<?xml version="1.0" encoding="UTF-8" standalone="no"?>
<svg
   xmlns:dc="http://purl.org/dc/elements/1.1/"
   xmlns:cc="http://creativecommons.org/ns#"
   xmlns:rdf="http://www.w3.org/1999/02/22-rdf-syntax-ns#"
   xmlns:svg="http://www.w3.org/2000/svg"
   xmlns="http://www.w3.org/2000/svg"
   xmlns:sodipodi="http://sodipodi.sourceforge.net/DTD/sodipodi-0.dtd"
   xmlns:inkscape="http://www.inkscape.org/namespaces/inkscape"
   version="1.1"
   id="svg2"
   viewBox="0 0 200 200"
   height="200px"
   width="200px"
   inkscape:version="0.91 r13725"
   sodipodi:docname="0.svg">
  <metadata
     id="metadata534">
    <rdf:RDF>
      <cc:Work
         rdf:about="">
        <dc:format>image/svg+xml</dc:format>
        <dc:type
           rdf:resource="http://purl.org/dc/dcmitype/StillImage" />
      </cc:Work>
    </rdf:RDF>
  </metadata>
  <sodipodi:namedview
     pagecolor="#ffffff"
     bordercolor="#666666"
     borderopacity="1"
     objecttolerance="10"
     gridtolerance="10"
     guidetolerance="10"
     inkscape:pageopacity="0"
     inkscape:pageshadow="2"
     inkscape:window-width="1920"
     inkscape:window-height="1060"
     id="namedview532"
     showgrid="false"
     inkscape:zoom="4.72"
     inkscape:cx="106.23297"
     inkscape:cy="95.556717"
     inkscape:window-x="0"
     inkscape:window-y="0"
     inkscape:window-maximized="1"
     inkscape:current-layer="g321" />
  
    <defs id="defs6">

        <clipPath
           id="clipPath28"
           clipPathUnits="userSpaceOnUse">
          <path
             id="path30"
             d="M 4,36 C 0,36 0,32 0,32 L 0,32 0,4 C 0,0 4,0 4,0 l 0,0 28,0 c 4,0 4,4 4,4 l 0,0 0,28 c 0,4 -4,4 -4,4 l 0,0 -28,0 z" />
        </clipPath>


        <clipPath clipPathUnits="userSpaceOnUse" id="clipPath16-rugby">
            <path d="M 0,38 38,38 38,0 0,0 0,38 Z" id="path18"/>
        </clipPath>
        <clipPath clipPathUnits="userSpaceOnUse" id="clipPath28-rugby">
            <path d="M 9.254,28.746 C 2.09,21.582 -0.927,9.561 3.929,3.929 l 0,0 C 9.561,-0.927 21.582,2.09 28.746,9.254 l 0,0 c 7.164,7.164 11.229,17.088 5.324,24.816 l 0,0 c -1.886,1.627 -4.489,2.371 -7.387,2.37 l 0,0 c -5.752,0 -12.665,-2.93 -17.429,-7.694" id="path30"/>
        </clipPath>

        <clipPath clipPathUnits="userSpaceOnUse" id="clipPath16-carrot">
            <path d="M 0,36 36,36 36,0 0,0 0,36 Z" id="path18"/>
        </clipPath>
        <clipPath clipPathUnits="userSpaceOnUse" id="clipPath32-carrot">
            <path d="M 11.815,23.013 C 4.2,15.397 -1.265,2.86 0.502,1.093 l 0,0 c 1.768,-1.768 14.305,3.698 21.92,11.313 l 0,0 c 7.616,7.615 7.562,11.53 4.243,14.85 l 0,0 c -1.328,1.328 -2.752,2.133 -4.47,2.133 l 0,0 c -2.575,0 -5.812,-1.809 -10.38,-6.376" id="path34"/>
        </clipPath>

        <clipPath clipPathUnits="userSpaceOnUse" id="clipPath32-hat">
            <path d="m 5,33.666 c 0,-0.034 0.018,-0.067 0.022,-0.101 l 0,0 C 5.008,33.455 5,33.335 5,33.2 l 0,0 L 6.802,9.616 C 3.299,8.705 1,7.424 1,6 L 1,6 C 1,3.238 9.611,1 19,1 l 0,0 c 9.389,0 18,2.238 18,5 l 0,0 c 0,1.424 -2.298,2.705 -5.801,3.616 l 0,0 L 33,33.184 c 0,0.135 -0.008,0.263 -0.021,0.373 l 0,0 C 32.982,33.591 33,33.632 33,33.666 l 0,0 c 0,1.805 -6.268,3.267 -14,3.267 l 0,0 c -7.732,0 -14,-1.462 -14,-3.267" id="path34"/>
        </clipPath>


        <clipPath clipPathUnits="userSpaceOnUse" id="clipPath48-soccer">
            <path d="M 1,19 C 1,9.059 9.059,1 19,1 l 0,0 c 9.941,0 18,8.059 18,18 l 0,0 c 0,9.941 -8.059,18 -18,18 l 0,0 C 9.059,37 1,28.941 1,19" id="path50"/>
        </clipPath>

        <clipPath clipPathUnits="userSpaceOnUse" id="clipPath28-baguette">
            <path d="M 24.052,31.33 5.126,12.406 C 1.342,8.62 1.288,4.133 2.856,2.564 l 0,0 C 4.424,0.997 8.912,1.049 12.697,4.835 l 0,0 18.925,18.924 c 3.784,3.785 3.837,8.273 2.269,9.841 l 0,0 c -0.605,0.606 -1.647,0.969 -2.915,0.969 l 0,0 c -2.014,0 -4.602,-0.917 -6.924,-3.239" id="path30"/>
        </clipPath>
    </defs>

  <g
     id="layer1">
    <circle
       style="opacity:1;fill:white;stroke:black;stroke-width:1;stroke-miterlimit:4;stroke-dasharray:none;stroke-opacity:0.1"
       id="path4039-0-9"
       cx="100px"
       cy="100px"
       r="90px" />
    <g
       transform="matrix(-0.80190587,-0.40859145,0.40859145,-0.80190587,136.02134,179.44614)"
       id="g7">
      <g
         transform="matrix(1.25,0,0,-1.25,0,45)"
         id="g10">
        <g
           id="g12">
          <g
             clip-path="url(#clipPath16)"
             id="g14">
            <g
               transform="translate(30.0801,4.9307)"
               id="g20">
              <path
                 id="path22"
                 style="fill:#d99e82;fill-opacity:1;fill-rule:nonzero;stroke:none"
                 d="M 0,0 C 0,0 -0.77,-0.477 -1.539,0 -2.309,0.477 -1.85,1.246 -1.85,1.246 -2.717,1.321 -2.807,2.124 -2.492,2.85 -2.999,2.989 -3.53,3.069 -4.08,3.069 l -16,0 c -3.314,0 -6,-2.686 -6,-6 l 0,-2 28,0 0,2 c 0,0.621 -0.094,1.219 -0.269,1.782 C -0.033,-1.791 0,0 0,0"
                 inkscape:connector-curvature="0" />
            </g>
            <g
               transform="translate(13.6397,7.899)"
               id="g24">
              <path
                 id="path26"
                 style="fill:#ccd6dd;fill-opacity:1;fill-rule:nonzero;stroke:none"
                 d="m 0,0 c 1.744,-1.267 2.849,-3.728 4.36,-3.728 1.512,0 2.616,2.462 4.36,3.728 l 0,3.811 L 0,3.811 0,0 Z"
                 inkscape:connector-curvature="0" />
            </g>
            <g
               transform="translate(13.6318,10.0272)"
               id="g28">
              <path
                 id="path17"
                 style="fill:#99aab5;fill-opacity:1;fill-rule:nonzero;stroke:none"
                 d="m 0,0 c 1.216,-1.374 2.724,-2.027 4.364,-2.027 1.639,0 3.147,0.654 4.364,2.027 l 0,3.491 L 0,3.491 0,0 Z"
                 inkscape:connector-curvature="0" />
            </g>
            <g
               transform="translate(11.4444,20.0646)"
               id="g32">
              <path
                 id="path36"
                 style="fill:#ccd6dd;fill-opacity:1;fill-rule:nonzero;stroke:none"
                 d="m 0,0 c 0,-1.448 -0.734,-2.622 -1.639,-2.622 -0.905,0 -1.639,1.174 -1.639,2.622 0,1.448 0.734,2.623 1.639,2.623 C -0.734,2.623 0,1.448 0,0"
                 inkscape:connector-curvature="0" />
            </g>
            <g
               transform="translate(27.8334,20.0646)"
               id="g36">
              <path
                 id="path38"
                 style="fill:#ccd6dd;fill-opacity:1;fill-rule:nonzero;stroke:none"
                 d="m 0,0 c 0,-1.448 -0.734,-2.622 -1.639,-2.622 -0.905,0 -1.639,1.174 -1.639,2.622 0,1.448 0.734,2.623 1.639,2.623 C -0.734,2.623 0,1.448 0,0"
                 inkscape:connector-curvature="0" />
            </g>
            <g
               transform="translate(9.4777,19.0403)"
               id="g40">
              <path
                 id="path42"
                 style="fill:#ccd6dd;fill-opacity:1;fill-rule:nonzero;stroke:none"
                 d="m 0,0 c 0,5.589 3.816,10.121 8.522,10.121 4.707,0 8.523,-4.532 8.523,-10.121 0,-5.04 -5.116,-10.12 -8.523,-10.12 C 5.116,-10.12 0,-5.04 0,0"
                 inkscape:connector-curvature="0" />
            </g>
            <g
               transform="translate(12.2322,18.2322)"
               id="g44">
              <path
                 id="path46"
                 style="fill:#99aab5;fill-opacity:1;fill-rule:nonzero;stroke:none"
                 d="m 0,0 0,0 c -0.778,0.778 -0.778,2.051 0,2.828 l 0.707,0.708 c 0.778,0.777 2.051,0.777 2.829,0 l 0,0 c 0.777,-0.778 0.777,-2.051 0,-2.829 L 2.828,0 C 2.051,-0.778 0.778,-0.778 0,0"
                 inkscape:connector-curvature="0" />
            </g>
            <g
               transform="translate(20.2322,21.7678)"
               id="g48">
              <path
                 id="path45"
                 style="fill:#99aab5;fill-opacity:1;fill-rule:nonzero;stroke:none"
                 d="m 0,0 0,0 c 0.778,0.778 2.051,0.778 2.828,0 l 0.708,-0.707 c 0.777,-0.778 0.777,-2.051 0,-2.829 l 0,0 c -0.778,-0.777 -2.051,-0.777 -2.829,0 L 0,-2.828 C -0.778,-2.051 -0.778,-0.778 0,0"
                 inkscape:connector-curvature="0" />
            </g>
            <g
               transform="translate(18,14.1837)"
               id="g52">
              <path
                 id="path54"
                 style="fill:#66757f;fill-opacity:1;fill-rule:nonzero;stroke:none"
                 d="m 0,0 c -2.754,0 -3.6,-0.706 -3.741,-0.848 -0.256,-0.256 -0.256,-0.671 0,-0.927 0.248,-0.248 0.645,-0.255 0.902,-0.023 0.052,0.038 0.721,0.487 2.839,0.487 2.2,0 2.836,-0.485 2.842,-0.49 0.256,-0.255 0.657,-0.243 0.913,0.014 0.256,0.256 0.242,0.683 -0.014,0.939 C 3.6,-0.706 2.754,0 0,0"
                 inkscape:connector-curvature="0" />
            </g>
            <g
               transform="translate(28.6458,26.0417)"
               id="g56">
              <path
                 id="path58"
                 style="fill:#292f33;fill-opacity:1;fill-rule:nonzero;stroke:none"
                 d="m 0,0 c -0.833,0.187 -2.305,1.908 -2.843,2.727 -0.006,0.009 -0.012,0.013 -0.018,0.022 -1.354,1.85 -3.644,3.349 -6.622,3.664 0.159,0.261 0.273,0.531 0.337,0.774 0.122,0.46 0.271,1.653 -0.417,0.861 -0.575,-0.662 -2.405,-1.427 -2.99,-1.661 -1.426,0.707 -3.45,0.603 -3.905,0.384 -0.563,-0.271 -0.039,-0.232 0.312,-0.292 0.436,-0.075 0.908,-0.386 1.359,-0.717 -1.71,-0.664 -2.961,-1.73 -3.788,-2.954 -0.002,-0.002 -0.003,-0.003 -0.005,-0.005 -0.61,-0.885 -1.695,-2.137 -2.274,-2.345 -1.125,-0.403 0.243,-0.562 0.812,-0.308 0.129,0.057 0.261,0.116 0.395,0.183 -0.114,-0.504 -0.177,-1.006 -0.177,-1.496 0,-3.473 1.216,-4.436 1.412,-3.473 0.706,3.473 2.824,4.863 2.824,4.863 3.213,-3.831 2.9,-0.581 2.9,-0.581 5.646,-6.542 2.748,-0.114 2.748,-0.114 1.412,-1.389 5.648,-1.389 5.648,-1.389 0,0 0.706,-1.389 1.412,-2.779 0.706,-1.389 1.412,0 1.412,3.473 0,0.285 -0.032,0.576 -0.079,0.867 0.425,-0.157 0.812,-0.215 1.13,-0.225 C 0.25,-0.542 0.833,-0.187 0,0"
                 inkscape:connector-curvature="0" />
            </g>
            <g
               transform="translate(15.5,20.5)"
               id="g60">
              <path
                 id="path62"
                 style="fill:#662113;fill-opacity:1;fill-rule:nonzero;stroke:none"
                 d="m 0,0 0,0 c 0,-0.55 -0.45,-1 -1,-1 l -1,0 c -0.55,0 -1,0.45 -1,1 l 0,0 c 0,0.55 0.45,1 1,1 l 1,0 C -0.45,1 0,0.55 0,0"
                 inkscape:connector-curvature="0" />
            </g>
            <g
               transform="translate(23.5,20.5)"
               id="g64">
              <path
                 id="path66"
                 style="fill:#662113;fill-opacity:1;fill-rule:nonzero;stroke:none"
                 d="m 0,0 0,0 c 0,-0.55 -0.45,-1 -1,-1 l -1,0 c -0.55,0 -1,0.45 -1,1 l 0,0 c 0,0.55 0.45,1 1,1 l 1,0 C -0.45,1 0,0.55 0,0"
                 inkscape:connector-curvature="0" />
            </g>
            <g
               transform="translate(18.0381,4.7656)"
               id="g68">
              <path
                 id="path70"
                 style="fill:#c1694f;fill-opacity:1;fill-rule:nonzero;stroke:none"
                 d="M 0,0 C 0,0 3.344,-2.137 4.056,-2.422 4.212,-2.484 3.69,1.234 3.69,1.234 l -2.416,-0.547 -1.316,-1.531 -0.995,2.078 -2.727,0 c 0,0 -0.524,-3.781 -0.232,-3.625 C -3.358,-2.048 0,0 0,0"
                 inkscape:connector-curvature="0" />
            </g>
            <g
               transform="translate(19.3125,5.4531)"
               id="g72">
              <path
                 id="path74"
                 style="fill:#226699;fill-opacity:1;fill-rule:nonzero;stroke:none"
                 d="m 0,0 c -0.027,-0.054 -0.362,-0.277 -0.606,-0.765 -0.24,0.125 -0.512,0.237 -0.816,0.312 -1.335,0.329 -2.177,0.039 -2.177,0.039 0,0 0.213,-1.491 0.396,-1.82 0.156,-0.282 0.513,-0.876 0.513,-0.876 0,0 -0.664,-0.343 -0.946,-2.343 l 2.324,0 0.02,0 1.542,0 c -0.281,1.594 -1.078,2.062 -1.078,2.062 0,0 0.828,0.629 1.015,0.891 0.313,0.437 0.393,0.808 0.393,0.808 0,0 -0.051,0.062 -0.145,0.158 0.21,0.091 0.432,0.222 0.659,0.425 C 2.141,-0.172 0,0 0,0"
                 inkscape:connector-curvature="0" />
            </g>
            <g
               transform="translate(13.2917,9.375)"
               id="g76">
              <path
                 id="path78"
                 style="fill:#ffd983;fill-opacity:1;fill-rule:nonzero;stroke:none"
                 d="m 0,0 c 0.566,-0.566 3.709,-3.383 3.709,-3.383 0,0 -1.126,-1.242 -3.084,-3.534 -0.197,-0.23 -1.542,4.625 -1.583,5.709 C -0.97,-0.905 -0.271,0.271 0,0"
                 inkscape:connector-curvature="0" />
            </g>
            <g
               transform="translate(22.7301,9.375)"
               id="g80">
              <path
                 id="path82"
                 style="fill:#ffd983;fill-opacity:1;fill-rule:nonzero;stroke:none"
                 d="m 0,0 c -0.566,-0.566 -3.418,-3.922 -3.418,-3.922 0,0 0.835,-0.703 2.793,-2.995 0.197,-0.23 1.542,4.625 1.583,5.709 C 0.97,-0.905 0.271,0.271 0,0"
                 inkscape:connector-curvature="0" />
            </g>
            <g
               transform="translate(26.9285,2.6591)"
               id="g84">
              <path
                 id="path86"
                 style="fill:#662113;fill-opacity:1;fill-rule:nonzero;stroke:none"
                 d="m 0,0 c -0.126,-1.929 -0.83,-2.659 -0.83,-2.659 l 1.385,0 c 0,0 0.189,2.975 -0.555,2.659"
                 inkscape:connector-curvature="0" />
            </g>
            <g
               transform="translate(17,16)"
               id="g88">
              <path
                 id="path90"
                 style="fill:#99aab5;fill-opacity:1;fill-rule:nonzero;stroke:none"
                 d="m 0,0 0,0 c -0.275,0 -0.5,0.225 -0.5,0.5 l 0,1 C -0.5,1.775 -0.275,2 0,2 0.275,2 0.5,1.775 0.5,1.5 l 0,-1 C 0.5,0.225 0.275,0 0,0"
                 inkscape:connector-curvature="0" />
            </g>
            <g
               transform="translate(19,16)"
               id="g92">
              <path
                 id="path94"
                 style="fill:#99aab5;fill-opacity:1;fill-rule:nonzero;stroke:none"
                 d="m 0,0 0,0 c -0.275,0 -0.5,0.225 -0.5,0.5 l 0,1 C -0.5,1.775 -0.275,2 0,2 0.275,2 0.5,1.775 0.5,1.5 l 0,-1 C 0.5,0.225 0.275,0 0,0"
                 inkscape:connector-curvature="0" />
            </g>
            <g
               transform="translate(13.811,15.2158)"
               id="g96">
              <path
                 id="path98"
                 style="fill:#9aaab4;fill-opacity:1;fill-rule:nonzero;stroke:none"
                 d="m 0,0 c -1.71,0 -3.092,1.357 -3.165,1.431 -0.194,0.195 -0.194,0.51 0,0.706 0.195,0.195 0.512,0.195 0.707,0.002 C -2.44,2.121 -0.685,0.404 0.965,1.231 1.212,1.356 1.513,1.254 1.636,1.008 1.76,0.761 1.66,0.461 1.413,0.337 0.931,0.096 0.454,0 0,0"
                 inkscape:connector-curvature="0" />
            </g>
            <g
               transform="translate(22.1895,15.2158)"
               id="g100">
              <path
                 id="path102"
                 style="fill:#9aaab4;fill-opacity:1;fill-rule:nonzero;stroke:none"
                 d="m 0,0 c -0.454,0 -0.932,0.096 -1.413,0.337 -0.247,0.124 -0.347,0.424 -0.224,0.671 0.125,0.246 0.424,0.346 0.671,0.223 1.657,-0.829 3.406,0.89 3.423,0.907 0.195,0.195 0.512,0.195 0.707,0 0.195,-0.196 0.195,-0.512 0,-0.707 C 3.092,1.357 1.709,0 0,0"
                 inkscape:connector-curvature="0" />
            </g>
            <g
               transform="translate(5.6169,2.0378)"
               id="g104">
              <path
                 id="path106"
                 style="fill:#662113;fill-opacity:1;fill-rule:nonzero;stroke:none"
                 d="M 0,0 C 0.319,0.251 0.872,1.996 1.869,2.411 2.866,2.826 5.076,3.368 5.042,2.321 5.009,1.274 3.702,-0.164 3.974,-0.697 2.994,-1.172 -1.013,-0.796 0,0"
                 inkscape:connector-curvature="0" />
            </g>
            <g
               transform="translate(6.2385,2.1984)"
               id="g108">
              <path
                 id="path110"
                 style="fill:#ccd6dd;fill-opacity:1;fill-rule:nonzero;stroke:none"
                 d="M 0,0 C 0.319,0.251 0.651,1.746 1.648,2.16 2.645,2.575 4.454,3.208 4.42,2.16 4.387,1.113 3.191,0.476 2.21,0 1.23,-0.476 -1.013,-0.796 0,0"
                 inkscape:connector-curvature="0" />
            </g>
          </g>
        </g>
      </g>
    </g>
    <g
       transform="matrix(-0.16632935,-0.78251808,0.78251808,-0.16632935,135.02273,77.782415)"
       id="g59">
      <g
         transform="matrix(1.25,0,0,-1.25,0,47.5)"
         id="g61">
        <g
           id="g63">
          <g
             clip-path="url(#clipPath16)"
             id="g65">
            <g
               transform="translate(28.7461,9.2539)"
               id="g67">
              <path
                 id="path69"
                 style="fill:#3b88c3;fill-opacity:1;fill-rule:nonzero;stroke:none"
                 d="m 0,0 c -7.164,-7.164 -19.186,-10.181 -24.816,-5.324 -4.857,5.631 -1.84,17.652 5.324,24.816 7.164,7.164 19.185,10.181 24.816,5.324 C 11.229,17.088 7.164,7.164 0,0"
                 inkscape:connector-curvature="0" />
            </g>
          </g>
        </g>
        <g
           id="g71">
          <g
             clip-path="url(#clipPath28-rugby)"
             id="g26">
            <g
               transform="translate(36.834,29.6665)"
               id="g74">
              <path
                 id="path76"
                 style="fill:#ccd6dd;fill-opacity:1;fill-rule:nonzero;stroke:none"
                 d="m 0,0 c -0.334,-4.417 -9.334,-19.167 -24.417,-24.75 -1.167,-0.5 -1.084,-2 0.833,-2.167 1.917,-0.166 13.5,0.167 17.5,2.417 4,2.25 10.75,18.917 9,20.25 -1.75,1.333 4.416,7.75 3,6.417 C 4.5,0.833 0,0 0,0"
                 inkscape:connector-curvature="0" />
            </g>
            <g
               transform="translate(9.0835,9.166)"
               id="g78">
              <path
                 id="path80"
                 style="fill:#e1e8ed;fill-opacity:1;fill-rule:nonzero;stroke:none"
                 d="M 0,0 C 7.833,1.917 26.667,10.417 25.25,24.584 24.834,25.75 17.099,30.7 3.917,19.834 -3.667,13.584 -4.862,5.643 -4.333,0.917 -4.131,-0.896 -1.918,-0.47 0,0"
                 inkscape:connector-curvature="0" />
            </g>
          </g>
        </g>
      </g>
    </g>
    <g
       transform="matrix(-0.41373845,-0.84828953,0.84828953,-0.41373845,55.530737,178.00429)"
       id="g82">
      <g
         transform="matrix(1.25,0,0,-1.25,0,47.5)"
         id="g85">
        <g
           id="g87">
          <g
             clip-path="url(#clipPath16)"
             id="g89">
            <g
               transform="translate(35.1934,23.6709)"
               id="g91">
              <path
                 id="path93"
                 style="fill:#f4abba;fill-opacity:1;fill-rule:nonzero;stroke:none"
                 d="m 0,0 c 0.387,0.371 0.733,0.795 1.02,1.28 1.685,2.853 0.269,10.292 -0.592,10.8 -0.696,0.411 -5.53,-1.05 -8.246,-3.132 -2.499,1.497 -5.344,2.381 -8.375,2.381 -3.022,0 -5.856,-0.879 -8.349,-2.367 -2.721,2.075 -7.533,3.528 -8.227,3.118 -0.861,-0.508 -2.276,-7.947 -0.592,-10.8 0.278,-0.471 0.615,-0.884 0.989,-1.249 -1.156,-2.552 -1.821,-5.342 -1.821,-8.18 0,-9.99 8.01,-12.522 18,-12.522 9.989,0 18,2.532 18,12.522 C 1.807,-5.322 1.146,-2.543 0,0"
                 inkscape:connector-curvature="0" />
            </g>
            <g
               transform="translate(8.3979,31.0352)"
               id="g95">
              <path
                 id="path97"
                 style="fill:#ea596e;fill-opacity:1;fill-rule:nonzero;stroke:none"
                 d="M 0,0 C -2.166,1.268 -4.402,2.08 -4.8,1.845 -5.37,1.509 -5.883,-3.153 -5.151,-6.419 -3.879,-3.938 -2.112,-1.738 0,0"
                 inkscape:connector-curvature="0" />
            </g>
            <g
               transform="translate(34.7529,24.6157)"
               id="g99">
              <path
                 id="path101"
                 style="fill:#ea596e;fill-opacity:1;fill-rule:nonzero;stroke:none"
                 d="M 0,0 C 0.732,3.267 0.219,7.928 -0.351,8.265 -0.749,8.5 -2.985,7.687 -5.151,6.419 -3.038,4.682 -1.271,2.482 0,0"
                 inkscape:connector-curvature="0" />
            </g>
            <g
               transform="translate(29,13.875)"
               id="g103">
              <path
                 id="path105"
                 style="fill:#ea596e;fill-opacity:1;fill-rule:nonzero;stroke:none"
                 d="m 0,0 c 0,-4.487 -3.097,-9.375 -10,-9.375 -6.904,0 -10,4.888 -10,9.375 0,4.487 3.096,5.625 10,5.625 C -3.097,5.625 0,4.487 0,0"
                 inkscape:connector-curvature="0" />
            </g>
            <g
               transform="translate(16,12.4004)"
               id="g107">
              <path
                 id="path109"
                 style="fill:#662113;fill-opacity:1;fill-rule:nonzero;stroke:none"
                 d="M 0,0 C 0,-1.857 -0.34,-2.4 -1.5,-2.4 -2.66,-2.4 -3,-1.857 -3,0 -3,1.856 -2.66,2.399 -1.5,2.399 -0.34,2.399 0,1.856 0,0"
                 inkscape:connector-curvature="0" />
            </g>
            <g
               transform="translate(25,12.4004)"
               id="g111">
              <path
                 id="path113"
                 style="fill:#662113;fill-opacity:1;fill-rule:nonzero;stroke:none"
                 d="M 0,0 C 0,-1.857 -0.34,-2.4 -1.5,-2.4 -2.66,-2.4 -3,-1.857 -3,0 -3,1.856 -2.66,2.399 -1.5,2.399 -0.34,2.399 0,1.856 0,0"
                 inkscape:connector-curvature="0" />
            </g>
            <g
               transform="translate(10,20)"
               id="g115">
              <path
                 id="path117"
                 style="fill:#292f33;fill-opacity:1;fill-rule:nonzero;stroke:none"
                 d="m 0,0 c 0,-1.104 -0.896,-2 -2,-2 -1.104,0 -2,0.896 -2,2 0,1.104 0.896,2 2,2 1.104,0 2,-0.896 2,-2"
                 inkscape:connector-curvature="0" />
            </g>
            <g
               transform="translate(32,20)"
               id="g119">
              <path
                 id="path121"
                 style="fill:#292f33;fill-opacity:1;fill-rule:nonzero;stroke:none"
                 d="m 0,0 c 0,-1.104 -0.896,-2 -2,-2 -1.104,0 -2,0.896 -2,2 0,1.104 0.896,2 2,2 1.104,0 2,-0.896 2,-2"
                 inkscape:connector-curvature="0" />
            </g>
          </g>
        </g>
      </g>
    </g>
    <g
       transform="matrix(0.39317875,-0.88309394,0.88309394,0.39317875,52.933057,108.6784)"
       id="g123">
      <g
         transform="matrix(1.25,0,0,-1.25,0,47.5)"
         id="g125">
        <g
           id="g127">
          <g
             clip-path="url(#clipPath16)"
             id="g129">
            <g
               transform="translate(37,15)"
               id="g131">
              <path
                 id="path133"
                 style="fill:#c6e5b3;fill-opacity:1;fill-rule:nonzero;stroke:none"
                 d="m 0,0 c 0,-7.456 -8.059,-12 -18,-12 -9.941,0 -18,4.544 -18,12 0,7.456 8.059,15 18,15 C -8.059,15 0,7.456 0,0"
                 inkscape:connector-curvature="0" />
            </g>
            <g
               transform="translate(32.7549,24.3242)"
               id="g135">
              <path
                 id="path137"
                 style="fill:#77b255;fill-opacity:1;fill-rule:nonzero;stroke:none"
                 d="m 0,0 c 1.368,1.1 2.245,2.785 2.245,4.676 0,3.313 -2.686,6 -6,6 -2.861,0 -5.25,-2.005 -5.85,-4.685 -1.289,0.483 -2.684,0.758 -4.15,0.758 -1.465,0 -2.861,-0.275 -4.149,-0.758 -0.601,2.68 -2.99,4.685 -5.851,4.685 -3.313,0 -6,-2.687 -6,-6 0,-1.891 0.878,-3.576 2.245,-4.676 -2.645,-2.68 -4.245,-6.009 -4.245,-9.324 0,-7.456 8.059,-1 18,-1 9.942,0 18,-6.456 18,1 C 4.245,-6.009 2.646,-2.68 0,0"
                 inkscape:connector-curvature="0" />
            </g>
            <g
               transform="translate(12,29.5)"
               id="g139">
              <path
                 id="path141"
                 style="fill:#ffffff;fill-opacity:1;fill-rule:nonzero;stroke:none"
                 d="M 0,0 C 0,-1.933 -1.567,-3.5 -3.5,-3.5 -5.433,-3.5 -7,-1.933 -7,0 -7,1.933 -5.433,3.5 -3.5,3.5 -1.567,3.5 0,1.933 0,0"
                 inkscape:connector-curvature="0" />
            </g>
            <g
               transform="translate(10,29.5)"
               id="g143">
              <path
                 id="path145"
                 style="fill:#292f33;fill-opacity:1;fill-rule:nonzero;stroke:none"
                 d="M 0,0 C 0,-0.829 -0.671,-1.5 -1.5,-1.5 -2.329,-1.5 -3,-0.829 -3,0 -3,0.829 -2.329,1.5 -1.5,1.5 -0.671,1.5 0,0.829 0,0"
                 inkscape:connector-curvature="0" />
            </g>
            <g
               transform="translate(33,29.5)"
               id="g147">
              <path
                 id="path149"
                 style="fill:#ffffff;fill-opacity:1;fill-rule:nonzero;stroke:none"
                 d="M 0,0 C 0,-1.933 -1.566,-3.5 -3.5,-3.5 -5.434,-3.5 -7,-1.933 -7,0 -7,1.933 -5.434,3.5 -3.5,3.5 -1.566,3.5 0,1.933 0,0"
                 inkscape:connector-curvature="0" />
            </g>
            <g
               transform="translate(31,29.5)"
               id="g151">
              <path
                 id="path153"
                 style="fill:#292f33;fill-opacity:1;fill-rule:nonzero;stroke:none"
                 d="M 0,0 C 0,-0.829 -0.672,-1.5 -1.5,-1.5 -2.328,-1.5 -3,-0.829 -3,0 -3,0.829 -2.328,1.5 -1.5,1.5 -0.672,1.5 0,0.829 0,0"
                 inkscape:connector-curvature="0" />
            </g>
            <g
               transform="translate(16,17)"
               id="g155">
              <path
                 id="path157"
                 style="fill:#5c913b;fill-opacity:1;fill-rule:nonzero;stroke:none"
                 d="m 0,0 c 0,-0.553 -0.448,-1 -1,-1 -0.552,0 -1,0.447 -1,1 0,0.553 0.448,1 1,1 0.552,0 1,-0.447 1,-1"
                 inkscape:connector-curvature="0" />
            </g>
            <g
               transform="translate(24,17)"
               id="g159">
              <path
                 id="path161"
                 style="fill:#5c913b;fill-opacity:1;fill-rule:nonzero;stroke:none"
                 d="m 0,0 c 0,-0.553 -0.447,-1 -1,-1 -0.553,0 -1,0.447 -1,1 0,0.553 0.447,1 1,1 0.553,0 1,-0.447 1,-1"
                 inkscape:connector-curvature="0" />
            </g>
          </g>
        </g>
      </g>
    </g>
    <g
       transform="matrix(0.72619658,0.10206027,-0.10206027,0.72619658,36.987813,52.956688)"
       id="g163">
      <g
         transform="matrix(1.25,0,0,-1.25,0,47.5)"
         id="g165">
        <g
           id="g167">
          <g
             clip-path="url(#clipPath16)"
             id="g169">
            <g
               transform="translate(37,19)"
               id="g171">
              <path
                 id="path173"
                 style="fill:#ccd6dd;fill-opacity:1;fill-rule:nonzero;stroke:none"
                 d="m 0,0 c 0,-9.941 -8.059,-18 -18,-18 -0.294,0 -0.58,0.029 -0.87,0.043 C -24.761,-15.393 -29,-8.332 -29,0 c 0,8.331 4.239,15.393 10.13,17.956 C -18.58,17.97 -18.294,18 -18,18 -8.059,18 0,9.941 0,0"
                 inkscape:connector-curvature="0" />
            </g>
            <g
               transform="translate(8,19)"
               id="g175">
              <path
                 id="path177"
                 style="fill:#66757f;fill-opacity:1;fill-rule:nonzero;stroke:none"
                 d="M 0,0 C 0,8.331 4.239,15.393 10.13,17.956 0.596,17.499 -7,9.647 -7,0 -7,-9.646 0.594,-17.498 10.128,-17.956 4.238,-15.391 0,-8.331 0,0"
                 inkscape:connector-curvature="0" />
            </g>
            <g
               transform="translate(23,28.5)"
               id="g179">
              <path
                 id="path181"
                 style="fill:#b8c5cd;fill-opacity:1;fill-rule:nonzero;stroke:none"
                 d="M 0,0 C 0,-1.933 1.566,-3.5 3.5,-3.5 5.434,-3.5 7,-1.933 7,0 7,1.933 5.434,3.5 3.5,3.5 1.566,3.5 0,1.933 0,0"
                 inkscape:connector-curvature="0" />
            </g>
            <g
               transform="translate(14,21)"
               id="g183">
              <path
                 id="path185"
                 style="fill:#b8c5cd;fill-opacity:1;fill-rule:nonzero;stroke:none"
                 d="M 0,0 C 0,-1.657 1.343,-3 3,-3 4.657,-3 6,-1.657 6,0 6,1.657 4.657,3 3,3 1.343,3 0,1.657 0,0"
                 inkscape:connector-curvature="0" />
            </g>
            <g
               transform="translate(12,9.5)"
               id="g187">
              <path
                 id="path189"
                 style="fill:#b8c5cd;fill-opacity:1;fill-rule:nonzero;stroke:none"
                 d="M 0,0 C 0,-1.934 1.566,-3.5 3.5,-3.5 5.434,-3.5 7,-1.934 7,0 7,1.934 5.434,3.5 3.5,3.5 1.566,3.5 0,1.934 0,0"
                 inkscape:connector-curvature="0" />
            </g>
            <g
               transform="translate(14,31)"
               id="g191">
              <path
                 id="path193"
                 style="fill:#b8c5cd;fill-opacity:1;fill-rule:nonzero;stroke:none"
                 d="M 0,0 C 0,-1.104 0.896,-2 2,-2 3.104,-2 4,-1.104 4,0 4,1.104 3.104,2 2,2 0.896,2 0,1.104 0,0"
                 inkscape:connector-curvature="0" />
            </g>
            <g
               transform="translate(35,19)"
               id="g195">
              <path
                 id="path197"
                 style="fill:#b8c5cd;fill-opacity:1;fill-rule:nonzero;stroke:none"
                 d="m 0,0 c 0,-0.553 -0.447,-1 -1,-1 -0.553,0 -1,0.447 -1,1 0,0.552 0.447,1 1,1 0.553,0 1,-0.448 1,-1"
                 inkscape:connector-curvature="0" />
            </g>
            <g
               transform="translate(8,28)"
               id="g199">
              <path
                 id="path201"
                 style="fill:#5b6876;fill-opacity:1;fill-rule:nonzero;stroke:none"
                 d="m 0,0 c 0,-0.553 -0.447,-1 -1,-1 -0.553,0 -1,0.447 -1,1 0,0.552 0.447,1 1,1 0.553,0 1,-0.448 1,-1"
                 inkscape:connector-curvature="0" />
            </g>
            <g
               transform="translate(23,6)"
               id="g203">
              <path
                 id="path205"
                 style="fill:#b8c5cd;fill-opacity:1;fill-rule:nonzero;stroke:none"
                 d="m 0,0 c 0,-0.553 -0.447,-1 -1,-1 -0.553,0 -1,0.447 -1,1 0,0.553 0.447,1 1,1 0.553,0 1,-0.447 1,-1"
                 inkscape:connector-curvature="0" />
            </g>
            <g
               transform="translate(3,18)"
               id="g207">
              <path
                 id="path209"
                 style="fill:#5b6876;fill-opacity:1;fill-rule:nonzero;stroke:none"
                 d="M 0,0 C 0,-1.104 0.896,-2 2,-2 3.104,-2 4,-1.104 4,0 4,1.104 3.104,2 2,2 0.896,2 0,1.104 0,0"
                 inkscape:connector-curvature="0" />
            </g>
            <g
               transform="translate(25,14)"
               id="g211">
              <path
                 id="path213"
                 style="fill:#b8c5cd;fill-opacity:1;fill-rule:nonzero;stroke:none"
                 d="M 0,0 C 0,-1.104 0.896,-2 2,-2 3.104,-2 4,-1.104 4,0 4,1.104 3.104,2 2,2 0.896,2 0,1.104 0,0"
                 inkscape:connector-curvature="0" />
            </g>
          </g>
        </g>
      </g>
    </g>
    <g
       transform="matrix(-0.6634743,0.84920839,-0.84920839,-0.6634743,132.52647,149.91362)"
       id="g215">
      <g
         transform="matrix(1.25,0,0,-1.25,0,45)"
         id="g217">
        <g
           id="g219">
          <g
             clip-path="url(#clipPath16)"
             id="g221">
            <g
               transform="translate(12.6968,4.835)"
               id="g223">
              <path
                 id="path225"
                 style="fill:#edb980;fill-opacity:1;fill-rule:nonzero;stroke:none"
                 d="m 0,0 c -3.785,-3.785 -8.273,-3.838 -9.841,-2.271 -1.568,1.569 -1.514,6.056 2.271,9.841 l 18.925,18.925 c 3.785,3.784 8.271,3.838 9.84,2.27 1.567,-1.568 1.514,-6.056 -2.271,-9.841 L 0,0 Z"
                 inkscape:connector-curvature="0" />
            </g>
          </g>
        </g>
        <g
           id="g227">
          <g
             clip-path="url(#clipPath28-baguette)"
             id="g229">
            <g
               transform="translate(27.917,25.9487)"
               id="g231">
              <path
                 id="path233"
                 style="fill:#e5a157;fill-opacity:1;fill-rule:nonzero;stroke:none"
                 d="M 0,0 C -0.837,-0.835 -2.026,0.514 -3.595,2.082 -5.163,3.65 -6.513,4.841 -5.677,5.677 -4.842,6.513 -2.893,5.921 -1.325,4.353 0.243,2.785 0.837,0.836 0,0"
                 inkscape:connector-curvature="0" />
            </g>
            <g
               transform="translate(22.998,32.3833)"
               id="g235">
              <path
                 id="path237"
                 style="fill:none;stroke:#ffd983;stroke-width:1;stroke-linecap:round;stroke-linejoin:round;stroke-miterlimit:10;stroke-dasharray:none;stroke-opacity:1"
                 d="M 0,0 C 1.701,-0.19 5.485,-3.974 5.676,-5.678"
                 inkscape:connector-curvature="0" />
            </g>
            <g
               transform="translate(23.376,21.4072)"
               id="g239">
              <path
                 id="path241"
                 style="fill:#e5a157;fill-opacity:1;fill-rule:nonzero;stroke:none"
                 d="M 0,0 C -0.837,-0.835 -2.028,0.514 -3.597,2.082 -5.164,3.649 -6.514,4.841 -5.678,5.677 -4.843,6.513 -2.893,5.921 -1.324,4.352 0.243,2.785 0.835,0.836 0,0"
                 inkscape:connector-curvature="0" />
            </g>
            <g
               transform="translate(18.4551,27.8413)"
               id="g243">
              <path
                 id="path245"
                 style="fill:none;stroke:#ffd983;stroke-width:1;stroke-linecap:round;stroke-linejoin:round;stroke-miterlimit:10;stroke-dasharray:none;stroke-opacity:1"
                 d="M 0,0 C 1.703,-0.189 5.488,-3.974 5.678,-5.678"
                 inkscape:connector-curvature="0" />
            </g>
            <g
               transform="translate(18.834,16.8662)"
               id="g247">
              <path
                 id="path249"
                 style="fill:#e5a157;fill-opacity:1;fill-rule:nonzero;stroke:none"
                 d="M 0,0 C -0.836,-0.837 -2.028,0.513 -3.595,2.081 -5.164,3.649 -6.514,4.84 -5.678,5.676 -4.841,6.512 -2.893,5.92 -1.325,4.351 0.243,2.783 0.837,0.835 0,0"
                 inkscape:connector-curvature="0" />
            </g>
            <g
               transform="translate(13.9136,23.2998)"
               id="g251">
              <path
                 id="path253"
                 style="fill:none;stroke:#ffd983;stroke-width:1;stroke-linecap:round;stroke-linejoin:round;stroke-miterlimit:10;stroke-dasharray:none;stroke-opacity:1"
                 d="M 0,0 C 1.703,-0.189 5.488,-3.975 5.677,-5.677"
                 inkscape:connector-curvature="0" />
            </g>
            <g
               transform="translate(14.2925,12.3232)"
               id="g255">
              <path
                 id="path257"
                 style="fill:#e5a157;fill-opacity:1;fill-rule:nonzero;stroke:none"
                 d="M 0,0 C -0.836,-0.837 -2.028,0.515 -3.596,2.082 -5.165,3.65 -6.513,4.842 -5.678,5.679 -4.842,6.513 -2.893,5.921 -1.325,4.354 0.243,2.785 0.835,0.837 0,0"
                 inkscape:connector-curvature="0" />
            </g>
            <g
               transform="translate(9.3721,18.7578)"
               id="g259">
              <path
                 id="path261"
                 style="fill:none;stroke:#ffd983;stroke-width:1;stroke-linecap:round;stroke-linejoin:round;stroke-miterlimit:10;stroke-dasharray:none;stroke-opacity:1"
                 d="M 0,0 C 1.703,-0.188 5.488,-3.975 5.677,-5.678"
                 inkscape:connector-curvature="0" />
            </g>
            <g
               transform="translate(9.7505,7.7822)"
               id="g263">
              <path
                 id="path265"
                 style="fill:#e5a157;fill-opacity:1;fill-rule:nonzero;stroke:none"
                 d="M 0,0 C -0.836,-0.837 -2.028,0.514 -3.596,2.082 -5.165,3.649 -6.513,4.842 -5.678,5.677 -4.841,6.513 -2.893,5.92 -1.325,4.352 0.243,2.783 0.836,0.835 0,0"
                 inkscape:connector-curvature="0" />
            </g>
            <g
               transform="translate(4.8301,14.2158)"
               id="g267">
              <path
                 id="path269"
                 style="fill:none;stroke:#ffd983;stroke-width:1;stroke-linecap:round;stroke-linejoin:round;stroke-miterlimit:10;stroke-dasharray:none;stroke-opacity:1"
                 d="M 0,0 C 1.703,-0.189 5.488,-3.974 5.677,-5.677"
                 inkscape:connector-curvature="0" />
            </g>
          </g>
        </g>
      </g>
    </g>
    <g
       transform="matrix(-0.31795156,0.50882886,-0.50882886,-0.31795156,92.898324,36.439932)"
       id="g271">
      <g
         transform="matrix(1.25,0,0,-1.25,0,47.5)"
         id="g273">
        <g
           id="g275">
          <g
             clip-path="url(#clipPath16)"
             id="g277">
            <g
               transform="translate(26,2)"
               id="g279">
              <path
                 id="path281"
                 style="fill:#292f33;fill-opacity:1;fill-rule:nonzero;stroke:none"
                 d="M 0,0 C -2.75,0 -2,6 -2,6 -2,7.104 0.646,8 1.75,8 2.854,8 5,8.104 5,7 5,7 2.75,0 0,0"
                 inkscape:connector-curvature="0" />
            </g>
            <g
               transform="translate(29,1)"
               id="g283">
              <path
                 id="path285"
                 style="fill:#66757f;fill-opacity:1;fill-rule:nonzero;stroke:none"
                 d="M 0,0 C -2.75,0 -2,6 -2,6 -2,7.104 0.646,8 1.75,8 2.854,8 5,8.104 5,7 5,7 2.75,0 0,0"
                 inkscape:connector-curvature="0" />
            </g>
            <g
               transform="translate(15,2)"
               id="g287">
              <path
                 id="path289"
                 style="fill:#292f33;fill-opacity:1;fill-rule:nonzero;stroke:none"
                 d="m 0,0 c -2.75,0 -4,6 -4,6 0,1.104 2.646,2 3.75,2 C 0.854,8 3,8.104 3,7 3,7 2.75,0 0,0"
                 inkscape:connector-curvature="0" />
            </g>
            <g
               transform="translate(18,1)"
               id="g291">
              <path
                 id="path293"
                 style="fill:#66757f;fill-opacity:1;fill-rule:nonzero;stroke:none"
                 d="m 0,0 c -2.75,0 -4,6 -4,6 0,1.104 2.646,2 3.75,2 C 0.854,8 3,8.104 3,7 3,7 2.75,0 0,0"
                 inkscape:connector-curvature="0" />
            </g>
            <g
               transform="translate(36.75,15.6162)"
               id="g295">
              <path
                 id="path297"
                 style="fill:#e1e8ed;fill-opacity:1;fill-rule:nonzero;stroke:none"
                 d="M 0,0 C 0,-7.782 -4.495,-11.408 -14.519,-11.408 -24.542,-11.408 -28,-7.782 -28,0 c 0,7.783 3.458,11.407 13.481,11.407 C -4.495,11.407 0,7.783 0,0"
                 inkscape:connector-curvature="0" />
            </g>
            <g
               transform="translate(18,19.333)"
               id="g299">
              <path
                 id="path301"
                 style="fill:#99aab5;fill-opacity:1;fill-rule:nonzero;stroke:none"
                 d="m 0,0 c 0,-9.333 -4.655,-11.333 -8.958,-11.333 -4.304,0 -7.042,6.64 -7.042,11.333 0,4.694 2.738,5.667 7.042,5.667 C -4.655,5.667 0,4.694 0,0"
                 inkscape:connector-curvature="0" />
            </g>
            <g
               transform="translate(7,16.5)"
               id="g303">
              <path
                 id="path305"
                 style="fill:#292f33;fill-opacity:1;fill-rule:nonzero;stroke:none"
                 d="M 0,0 C 0,-0.828 -0.671,-1.5 -1.5,-1.5 -2.329,-1.5 -3,-0.828 -3,0 -3,0.828 -2.329,1.5 -1.5,1.5 -0.671,1.5 0,0.828 0,0"
                 inkscape:connector-curvature="0" />
            </g>
            <g
               transform="translate(16.75,24.25)"
               id="g307">
              <path
                 id="path309"
                 style="fill:#e1e8ed;fill-opacity:1;fill-rule:nonzero;stroke:none"
                 d="m 0,0 c -1.75,-3.25 -2.128,-2.606 -7.128,-4.606 -3.077,-1.231 -8.622,-0.894 -8.622,3.856 0,1.933 3.687,2.5 7,2.5 C -5.437,1.75 1.659,3.082 0,0"
                 inkscape:connector-curvature="0" />
            </g>
            <g
               transform="translate(17,23.3042)"
               id="g311">
              <path
                 id="path313"
                 style="fill:#ffcc4d;fill-opacity:1;fill-rule:nonzero;stroke:none"
                 d="m 0,0 c 3.353,-2.427 5.43,-6.139 3.724,-11.089 -1.368,-3.967 -6.817,-3.116 -9.617,-1.127 -2.798,1.988 -2.642,4.792 -1.733,6.291 0.909,1.497 4.158,1.228 6.024,-0.097 0.934,-0.663 0.288,-1.56 -0.72,-1.068 -2.292,1.118 -3.037,-1.444 -1.246,-2.882 1.265,-1.016 3.274,-1.049 3.655,1.01 0.671,3.629 -3.505,6.274 -7.465,5.301 C -5,-2.304 -2.839,2.055 0,0"
                 inkscape:connector-curvature="0" />
            </g>
          </g>
        </g>
      </g>
    </g>
    <g
       transform="matrix(0.38860746,0.62190194,-0.62190194,0.38860746,164.32278,69.508456)"
       id="g315">
      <g
         transform="matrix(1.25,0,0,-1.25,0,45)"
         id="g317">
        <g
           id="g319">
          <g
             clip-path="url(#clipPath16)"
             id="g321">
            <g
               transform="translate(23.1064,30.0288)"
               id="g323">
              <path
                 id="path325"
                 style="fill:#dd2e44;fill-opacity:1;fill-rule:nonzero;stroke:none"
                 d="m 0,0 c -5.491,5.491 -14.722,6.492 -19.799,1.414 -5.077,-5.077 -4.077,-14.308 1.414,-19.799 3.554,-3.554 7.785,-4.324 11.706,-3.058 l -0.014,-0.013 c 0,0 0.053,0.022 0.13,0.052 0.263,0.088 0.526,0.179 0.787,0.284 0.698,0.239 1.734,0.558 2.942,0.806 1.848,0.38 3.541,-1.606 4.955,-3.021 1.414,-1.414 4.242,-5.657 4.949,-6.364 0.707,-0.707 1.414,0 2.122,0.707 l 0.708,0.707 0.707,0.707 c 0.707,0.708 1.414,1.415 0.707,2.122 -0.707,0.707 -4.951,3.536 -6.365,4.95 -1.414,1.414 -3.4,3.107 -3.02,4.955 0.198,0.965 0.441,1.815 0.653,2.481 C 4.556,-8.849 4.118,-4.119 0,0"
                 inkscape:connector-curvature="0" />
            </g>
            <g
               transform="translate(15.564,8.3447)"
               id="g327">
              <path
                 id="path329"
                 style="fill:#d99e82;fill-opacity:1;fill-rule:nonzero;stroke:none"
                 d="M 0,0 C 0.289,0.07 0.578,0.148 0.864,0.241 L 0.849,0.229 c 0,0 0.053,0.021 0.13,0.051 0.264,0.088 0.527,0.179 0.788,0.284 0.697,0.239 1.734,0.558 2.942,0.806 1.847,0.38 3.541,-1.606 4.955,-3.02 1.414,-1.414 4.242,-5.658 4.949,-6.365 0.707,-0.707 1.414,0 2.122,0.707 l 0.707,0.707 0.707,0.708 c 0.707,0.707 1.414,1.414 0.707,2.122 -0.707,0.707 -4.95,3.535 -6.364,4.949 -1.414,1.414 -3.401,3.107 -3.021,4.955 0.198,0.965 0.442,1.815 0.654,2.481 0.357,0.764 0.632,1.543 0.824,2.334 L 0,0 Z"
                 inkscape:connector-curvature="0" />
            </g>
            <g
               transform="translate(33.7129,2.4512)"
               id="g331">
              <path
                 id="path333"
                 style="fill:#ffcc4d;fill-opacity:1;fill-rule:nonzero;stroke:none"
                 d="m 0,0 -1.414,-1.414 -12.022,12.021 1.415,1.414 L 0,0 Z"
                 inkscape:connector-curvature="0" />
            </g>
          </g>
        </g>
      </g>
    </g>
    <g
       transform="matrix(0.36326508,0.51879629,-0.51879629,0.36326508,41.836176,91.965005)"
       id="g339">
      <g
         transform="matrix(1.25,0,0,-1.25,0,45)"
         id="g341">
        <g
           id="g343">
          <g
             clip-path="url(#clipPath16)"
             id="g345">
            <g
               transform="translate(13.5,12.5109)"
               id="g347">
              <path
                 id="path349"
                 style="fill:#662113;fill-opacity:1;fill-rule:nonzero;stroke:none"
                 d="M 0,0 C 0,0 -1.103,-1.377 -0.737,-3.268 -0.512,-4.433 0.577,-5.635 2.038,-5.86 2.526,-5.936 2.764,-6.888 2.629,-7.588 2.476,-8.38 1.93,-9.49 1.63,-10.053 1.329,-10.617 0.74,-10.615 0.015,-11.266 -0.49,-11.72 -0.662,-12.511 0.202,-12.511 l 3.821,0 c 0.766,0 1.255,0.469 1.418,1.241 0.226,1.071 1.094,5.148 0.846,5.936 C 6.11,-4.77 5.51,-4.32 5.123,-3.231 4.836,-2.423 5.5,-0.263 5.5,-0.263 L 0,0 Z"
                 inkscape:connector-curvature="0" />
            </g>
            <g
               transform="translate(2.5397,13.1182)"
               id="g351">
              <path
                 id="path353"
                 style="fill:#662113;fill-opacity:1;fill-rule:nonzero;stroke:none"
                 d="m 0,0 c 0,0 0.797,0.724 1.344,0.937 0.547,0.214 2.554,0.058 3.065,0.165 0.511,0.106 1.363,0.97 1.363,0.97 0,0 2.144,-0.835 2.166,-1.04 0.023,-0.206 -1.439,-1.618 -1.76,-1.987 -0.321,-0.368 -2.316,0.537 -2.91,0.537 -0.594,0 -1.842,-0.534 -2.282,-0.783 -0.439,-0.249 -0.51,0.131 -0.261,0.404 0,0 -0.401,-0.49 -0.539,-0.31 -0.138,0.18 0.231,0.572 0.231,0.572 0,0 -0.345,-0.439 -0.535,-0.297 C -0.308,-0.689 -0.312,-0.376 0,0"
                 inkscape:connector-curvature="0" />
            </g>
            <g
               transform="translate(14.4155,29.3028)"
               id="g355">
              <path
                 id="path357"
                 style="fill:#662113;fill-opacity:1;fill-rule:nonzero;stroke:none"
                 d="m 0,0 c -0.233,-0.62 -0.831,-1.637 0.355,-1.72 1.185,-0.083 0.021,-1.248 -1.031,-1.323 -1.052,-0.075 -4.471,1.39 -4.095,2.254 0.376,0.864 1.88,1.803 3.044,1.578 C -0.563,0.563 0,0 0,0"
                 inkscape:connector-curvature="0" />
            </g>
            <g
               transform="translate(20.8125,30.5469)"
               id="g359">
              <path
                 id="path361"
                 style="fill:#f4900c;fill-opacity:1;fill-rule:nonzero;stroke:none"
                 d="m 0,0 c -0.078,-0.578 -0.234,-1 -0.344,-0.984 -0.109,0.015 -0.375,1.062 -0.375,1.062 0,0 -0.203,-1.156 -0.343,-1.14 C -1.203,-1.047 -1.344,0 -1.344,0 c 0,0 -0.234,-1.063 -0.39,-1.063 C -1.891,-1.062 -2.094,0 -2.094,0 c 0,0 -0.17,-1.052 -0.295,-1.067 -0.125,-0.016 -0.502,0.959 -0.502,0.959 0,0 -0.218,-0.986 -0.328,-0.986 -0.109,0 -0.422,0.986 -0.422,0.986 0,0 -0.187,-0.97 -0.281,-0.97 -0.094,0 -0.437,0.97 -0.437,0.97 0,0 -0.139,-1.04 -0.235,-1.064 -0.256,-0.062 -0.72,0.891 -0.72,0.891 0,0 0.218,-1.061 0.08,-1.079 -0.235,-0.032 -0.985,0.735 -0.985,0.735 0,0 0.953,0.953 1.719,1.109 0.766,0.157 4.016,0.782 4.391,0.641 C 0.266,0.984 0,0 0,0"
                 inkscape:connector-curvature="0" />
            </g>
            <g
               transform="translate(20.1757,27.8055)"
               id="g363">
              <path
                 id="path365"
                 style="fill:#f4900c;fill-opacity:1;fill-rule:nonzero;stroke:none"
                 d="M 0,0 C -0.137,0.567 -0.336,0.97 -0.444,0.944 -0.551,0.917 -0.575,-0.06 -0.575,-0.06 c 0,0 -0.453,1.037 -0.592,1.007 -0.138,-0.03 -0.061,-1.074 -0.061,-1.074 0,0 -0.452,1.021 -0.607,1.005 C -1.99,0.862 -1.927,-0.2 -1.927,-0.2 c 0,0 -0.522,1.093 -0.648,1.095 -0.126,0.003 -0.141,-1.067 -0.141,-1.067 0,0 -0.387,1.013 -0.496,1.001 -0.109,-0.011 -0.231,-1.108 -0.231,-1.108 0,0 -0.289,0.976 -0.383,0.966 -0.093,-0.01 -0.256,-1.016 -0.256,-1.016 0,0 -0.294,0.865 -0.39,0.886 -0.097,0.021 -0.221,-0.903 -0.221,-0.903 0,0 -0.289,0.683 -0.42,0.732 -0.131,0.049 -0.216,-0.879 -0.216,-0.879 0,0 0.125,-0.377 0.903,-0.453 0.778,-0.077 4.075,-0.363 4.433,-0.184 C 0.366,-0.952 0,0 0,0"
                 inkscape:connector-curvature="0" />
            </g>
            <g
               transform="translate(11.0346,28.5139)"
               id="g367">
              <path
                 id="path369"
                 style="fill:#ab7e59;fill-opacity:1;fill-rule:nonzero;stroke:none"
                 d="M 0,0 C 0.114,0.683 2.141,-0.338 2.554,-0.225 2.968,-0.113 4.62,1.54 5.071,1.578 5.522,1.615 9.542,1.69 9.992,1.916 10.443,2.141 10.18,3.907 9.767,4.395 9.354,4.884 7.889,5.973 6.161,6.161 4.433,6.349 3.231,6.386 2.667,6.687 2.104,6.987 0.864,7.1 0,6.687 -0.864,6.273 -3.944,5.785 -5.222,4.508 -6.499,3.231 -7.964,1.54 -8.302,-1.202 c -0.338,-2.742 0.516,-4.573 1.052,-5.582 0.393,-0.742 1.502,-3.509 1.765,-4.598 0.263,-1.09 1.846,-4.978 4.934,-5.88 3.089,-0.901 5.359,-2.648 8.177,-3.099 3.208,-0.513 9.091,0.188 12.096,2.067 3.005,1.878 4.47,3.794 4.47,6.31 0,2.517 -1.615,5.26 -3.869,5.335 -2.254,0.075 -0.789,-0.676 -0.113,-0.827 0.676,-0.15 1.991,-1.765 1.691,-3.193 -0.301,-1.427 -0.902,-2.517 -2.517,-2.554 -1.615,-0.038 -3.306,1.765 -4.208,2.968 -0.901,1.202 -4.958,3.339 -6.874,3.454 -1.916,0.114 -5.898,0.114 -6.386,1.316 -0.489,1.202 -0.376,1.804 -0.038,1.954 0.338,0.15 2.217,0.563 3.531,0.601 1.315,0.037 3.644,0.375 3.945,0.826 0.3,0.451 0.225,1.39 -0.113,1.428 -0.338,0.037 -2.442,-0.188 -3.043,-0.188 -0.601,0 -0.939,0.488 -1.578,0.301 C 3.982,-0.751 2.817,-1.465 2.329,-1.39 1.841,-1.315 -0.038,-0.225 0,0"
                 inkscape:connector-curvature="0" />
            </g>
            <g
               transform="translate(26.9516,9.7475)"
               id="g371">
              <path
                 id="path373"
                 style="fill:#8b5e3c;fill-opacity:1;fill-rule:nonzero;stroke:none"
                 d="m 0,0 c -2.693,-0.388 -7.846,0.466 -9.358,0.982 -1.512,0.516 -4.615,1.318 -6.801,1.781 -2.186,0.464 -3.884,2.299 -5.084,4.099 0.519,-1.484 2.069,-4.567 4.775,-5.357 3.089,-0.902 5.359,-2.648 8.177,-3.099 C -5.083,-2.107 0.8,-1.406 3.805,0.472 4.896,1.154 5.777,1.841 6.465,2.559 5.518,1.851 2.68,0.386 0,0"
                 inkscape:connector-curvature="0" />
            </g>
            <g
               transform="translate(12.8164,34.4318)"
               id="g375">
              <path
                 id="path377"
                 style="fill:#8b5e3c;fill-opacity:1;fill-rule:nonzero;stroke:none"
                 d="m 0,0 c 1.336,-0.208 0.203,-0.909 2.683,-0.904 0,0 -1.873,-1 -2.624,-1 -1.297,0 -1.568,0.644 -1.567,1.182 C -1.508,-0.238 -0.7,0.109 0,0"
                 inkscape:connector-curvature="0" />
            </g>
            <g
               transform="translate(13,33.5)"
               id="g379">
              <path
                 id="path381"
                 style="fill:#292f33;fill-opacity:1;fill-rule:nonzero;stroke:none"
                 d="M 0,0 C 0,-0.276 -0.224,-0.5 -0.5,-0.5 -0.776,-0.5 -1,-0.276 -1,0 -1,0.276 -0.776,0.5 -0.5,0.5 -0.224,0.5 0,0.276 0,0"
                 inkscape:connector-curvature="0" />
            </g>
            <g
               transform="translate(17.1319,11.2337)"
               id="g383">
              <path
                 id="path385"
                 style="fill:#ab7e59;fill-opacity:1;fill-rule:nonzero;stroke:none"
                 d="M 0,0 C 0,0 0.424,-1.503 1.796,-2.855 3.168,-4.207 5.917,-4.508 6.406,-4.583 6.894,-4.658 7.423,-4.846 7.648,-5.522 7.874,-6.198 8.299,-8.213 7.998,-8.776 7.697,-9.34 6.45,-9.654 6.111,-10.293 5.921,-10.65 5.428,-11.234 6.292,-11.234 l 4.576,0 c 0.766,0 0.954,0.603 0.954,1.392 0,0.789 0.263,2.066 -0.226,3.456 -0.488,1.39 -0.676,3.493 -1.502,3.719 -0.827,0.225 -2.142,2.479 -2.142,2.479 L 0,0 Z"
                 inkscape:connector-curvature="0" />
            </g>
            <g
               transform="translate(4.3548,9.2523)"
               id="g387">
              <path
                 id="path389"
                 style="fill:#ab7e59;fill-opacity:1;fill-rule:nonzero;stroke:none"
                 d="m 0,0 c 0,0 0.559,0.996 1.037,1.395 0.478,0.398 2.55,0.916 3.028,1.195 0.478,0.279 1.046,1.434 1.046,1.434 0,0 2.437,-0.119 2.528,-0.319 C 7.731,3.506 6.735,1.594 6.536,1.116 6.336,0.637 4.025,0.876 3.428,0.677 2.83,0.478 1.754,-0.478 1.396,-0.877 1.037,-1.275 0.838,-0.916 0.997,-0.558 c 0,0 -0.239,-0.628 -0.438,-0.493 -0.199,0.135 0.04,0.653 0.04,0.653 0,0 -0.199,-0.558 -0.438,-0.479 C -0.078,-0.797 -0.188,-0.483 0,0"
                 inkscape:connector-curvature="0" />
            </g>
            <g
               transform="translate(15.7104,20.337)"
               id="g391">
              <path
                 id="path393"
                 style="fill:#8b5e3c;fill-opacity:1;fill-rule:nonzero;stroke:none"
                 d="m 0,0 c 0,-0.318 -0.258,-0.576 -0.576,-0.576 -0.318,0 -0.576,0.258 -0.576,0.576 0,0.318 0.258,0.576 0.576,0.576 C -0.258,0.576 0,0.318 0,0"
                 inkscape:connector-curvature="0" />
            </g>
            <g
               transform="translate(18.7712,19.0734)"
               id="g395">
              <path
                 id="path397"
                 style="fill:#8b5e3c;fill-opacity:1;fill-rule:nonzero;stroke:none"
                 d="m 0,0 c 0,-0.453 -0.367,-0.82 -0.82,-0.82 -0.452,0 -0.819,0.367 -0.819,0.82 0,0.453 0.367,0.82 0.819,0.82 C -0.367,0.82 0,0.453 0,0"
                 inkscape:connector-curvature="0" />
            </g>
            <g
               transform="translate(17.1319,20.7451)"
               id="g399">
              <path
                 id="path401"
                 style="fill:#8b5e3c;fill-opacity:1;fill-rule:nonzero;stroke:none"
                 d="m 0,0 c 0,-0.241 -0.195,-0.436 -0.436,-0.436 -0.241,0 -0.436,0.195 -0.436,0.436 0,0.241 0.195,0.436 0.436,0.436 C -0.195,0.436 0,0.241 0,0"
                 inkscape:connector-curvature="0" />
            </g>
            <g
               transform="translate(20.0868,20.5054)"
               id="g403">
              <path
                 id="path405"
                 style="fill:#8b5e3c;fill-opacity:1;fill-rule:nonzero;stroke:none"
                 d="m 0,0 c 0,-0.228 -0.185,-0.412 -0.412,-0.412 -0.228,0 -0.413,0.184 -0.413,0.412 0,0.228 0.185,0.412 0.413,0.412 C -0.185,0.412 0,0.228 0,0"
                 inkscape:connector-curvature="0" />
            </g>
            <g
               transform="translate(22.6996,19.3307)"
               id="g407">
              <path
                 id="path409"
                 style="fill:#8b5e3c;fill-opacity:1;fill-rule:nonzero;stroke:none"
                 d="m 0,0 c 0,-0.421 -0.341,-0.762 -0.762,-0.762 -0.421,0 -0.763,0.341 -0.763,0.762 0,0.421 0.342,0.762 0.763,0.762 C -0.341,0.762 0,0.421 0,0"
                 inkscape:connector-curvature="0" />
            </g>
            <g
               transform="translate(25.5952,15.6776)"
               id="g411">
              <path
                 id="path413"
                 style="fill:#8b5e3c;fill-opacity:1;fill-rule:nonzero;stroke:none"
                 d="m 0,0 c 0,-0.27 -0.218,-0.488 -0.488,-0.488 -0.269,0 -0.488,0.218 -0.488,0.488 0,0.27 0.219,0.488 0.488,0.488 C -0.218,0.488 0,0.27 0,0"
                 inkscape:connector-curvature="0" />
            </g>
            <g
               transform="translate(21.0626,17.7658)"
               id="g415">
              <path
                 id="path417"
                 style="fill:#8b5e3c;fill-opacity:1;fill-rule:nonzero;stroke:none"
                 d="m 0,0 c 0,-0.27 -0.218,-0.488 -0.488,-0.488 -0.269,0 -0.488,0.218 -0.488,0.488 0,0.269 0.219,0.488 0.488,0.488 C -0.218,0.488 0,0.269 0,0"
                 inkscape:connector-curvature="0" />
            </g>
            <g
               transform="translate(25.4781,17.7658)"
               id="g419">
              <path
                 id="path421"
                 style="fill:#8b5e3c;fill-opacity:1;fill-rule:nonzero;stroke:none"
                 d="m 0,0 c 0,-0.27 -0.218,-0.488 -0.488,-0.488 -0.269,0 -0.488,0.218 -0.488,0.488 0,0.269 0.219,0.488 0.488,0.488 C -0.218,0.488 0,0.269 0,0"
                 inkscape:connector-curvature="0" />
            </g>
            <g
               transform="translate(23.9852,18.0195)"
               id="g423">
              <path
                 id="path425"
                 style="fill:#8b5e3c;fill-opacity:1;fill-rule:nonzero;stroke:none"
                 d="m 0,0 c 0,-0.399 -0.323,-0.722 -0.722,-0.722 -0.399,0 -0.722,0.323 -0.722,0.722 0,0.399 0.323,0.722 0.722,0.722 C -0.323,0.722 0,0.399 0,0"
                 inkscape:connector-curvature="0" />
            </g>
          </g>
        </g>
      </g>
    </g>
    <g
       transform="matrix(-0.59771682,-0.05229345,0.05229345,-0.59771682,142.01694,116.21636)"
       id="g427">
      <g
         transform="matrix(1.25,0,0,-1.25,0,47.5)"
         id="g429">
        <g
           id="g431">
          <g
             clip-path="url(#clipPath16)"
             id="g433">
            <g
               transform="translate(12.8403,29.3657)"
               id="g435">
              <path
                 id="path437"
                 style="fill:#dd2e44;fill-opacity:1;fill-rule:nonzero;stroke:none"
                 d="m 0,0 c -0.719,0 -2.295,-2.243 -3.567,-1.029 -0.44,0.42 1.817,1.279 1.727,2.017 -0.076,0.608 -2.843,1.52 -1.876,2.099 0.967,0.578 2.418,-0.841 3.513,-0.866 C 2.179,2.167 4.009,3.074 4.035,3.087 4.576,3.361 5.23,3.139 5.499,2.591 5.769,2.044 5.55,1.378 5.011,1.105 4.881,1.039 2.786,0 0,0"
                 inkscape:connector-curvature="0" />
            </g>
            <g
               transform="translate(28.8184,1)"
               id="g439">
              <path
                 id="path441"
                 style="fill:#77b255;fill-opacity:1;fill-rule:nonzero;stroke:none"
                 d="m 0,0 c -3.967,0 -8.182,2.912 -8.182,8.308 0,1.374 -0.889,1.661 -1.636,1.661 -0.746,0 -1.637,-0.287 -1.637,-1.661 0,-5.396 -4.215,-8.308 -8.182,-8.308 -3.966,0 -8.181,2.77 -8.181,8.308 0,13.292 14.181,15.127 14.181,13.292 0,-1.835 -7.636,1.108 -7.636,-12.185 0,-2.215 0.89,-2.769 1.636,-2.769 0.747,0 1.637,0.288 1.637,1.662 0,5.395 4.215,8.307 8.182,8.307 3.965,0 8.181,-2.912 8.181,-8.307 0,-1.374 0.89,-1.662 1.637,-1.662 0.747,0 1.636,0.288 1.636,1.662 l 0,16.615 c 0,3.855 -3.417,4.431 -5.454,4.431 0,0 -3.273,-1.108 -6.546,-1.108 -3.273,0 -4.364,2.596 -4.364,4.431 0,1.835 4.364,3.323 10.91,3.323 6.546,0 12,-4.451 12,-11.077 l 0,-16.615 C 8.182,2.912 3.966,0 0,0"
                 inkscape:connector-curvature="0" />
            </g>
            <g
               transform="translate(21,34)"
               id="g443">
              <path
                 id="path445"
                 style="fill:#292f33;fill-opacity:1;fill-rule:nonzero;stroke:none"
                 d="m 0,0 c 0,-0.552 -0.447,-1 -1,-1 -0.553,0 -1,0.448 -1,1 0,0.552 0.447,1 1,1 0.553,0 1,-0.448 1,-1"
                 inkscape:connector-curvature="0" />
            </g>
          </g>
        </g>
      </g>
    </g>
    <g
       transform="matrix(-0.25759987,-0.57857879,0.57857879,-0.25759987,153.94872,148.97373)"
       id="g447">
      <g
         transform="matrix(1.25,0,0,-1.25,0,47.5)"
         id="g449">
        <g
           id="g451">
          <g
             clip-path="url(#clipPath16)"
             id="g453">
            <g
               transform="translate(19.9346,11.5146)"
               id="g455">
              <path
                 id="path457"
                 style="fill:#f4900c;fill-opacity:1;fill-rule:nonzero;stroke:none"
                 d="m 0,0 c -0.517,-0.781 -1.353,-0.781 -1.869,0 l -4.678,5.071 c -0.516,0.782 -0.516,2.048 0,2.828 l 4.678,9.072 c 0.516,0.78 1.352,0.78 1.869,0 L 4.678,7.899 c 0.516,-0.78 0.516,-2.046 0,-2.828 L 0,0 Z"
                 inkscape:connector-curvature="0" />
            </g>
            <g
               transform="translate(29.4346,9.5146)"
               id="g459">
              <path
                 id="path461"
                 style="fill:#f4900c;fill-opacity:1;fill-rule:nonzero;stroke:none"
                 d="m 0,0 c -0.517,-0.781 -1.353,-0.781 -1.869,0 l -4.678,5.071 c -0.516,0.782 -0.516,2.047 0,2.828 l 6.678,9.072 c 0.516,0.78 1.352,0.78 1.869,0 L 4.678,7.899 c 0.516,-0.781 0.516,-2.046 0,-2.828 L 0,0 Z"
                 inkscape:connector-curvature="0" />
            </g>
            <g
               transform="translate(10.4351,9.5146)"
               id="g463">
              <path
                 id="path465"
                 style="fill:#f4900c;fill-opacity:1;fill-rule:nonzero;stroke:none"
                 d="m 0,0 c -0.517,-0.781 -1.354,-0.781 -1.871,0 l -4.677,5.071 c -0.516,0.782 -0.516,2.047 0,2.828 l 2.677,9.072 c 0.517,0.78 1.354,0.78 1.871,0 L 4.678,7.899 c 0.516,-0.781 0.516,-2.046 0,-2.828 L 0,0 Z"
                 inkscape:connector-curvature="0" />
            </g>
            <g
               transform="translate(34,26)"
               id="g467">
              <path
                 id="path469"
                 style="fill:#ffcc4d;fill-opacity:1;fill-rule:nonzero;stroke:none"
                 d="m 0,0 c -0.45,-0.45 -2.12,-2.124 -4,-4.369 l -4.565,8.854 c -0.517,0.781 -1.353,0.781 -1.87,0 L -15,-4.368 -19.565,4.485 c -0.517,0.781 -1.354,0.781 -1.871,0 L -26,-4.368 c -1.88,2.245 -3.55,3.918 -4,4.368 -1,1 -2.485,0.94 -2,-1 1,-4 1,-7 1,-12 l 0,-2 c 0,-2.209 1.791,-4 4,-4 l 24,0 c 2.209,0 4,1.791 4,4 l 0,2 c 0,5 0,8 1,12 0.484,1.94 -1,2 -2,1"
                 inkscape:connector-curvature="0" />
            </g>
            <g
               transform="translate(22,15)"
               id="g471">
              <path
                 id="path473"
                 style="fill:#5c913b;fill-opacity:1;fill-rule:nonzero;stroke:none"
                 d="m 0,0 c 0,-1.657 -1.343,-3 -3,-3 -1.657,0 -3,1.343 -3,3 0,1.657 1.343,3 3,3 1.657,0 3,-1.343 3,-3"
                 inkscape:connector-curvature="0" />
            </g>
            <g
               transform="translate(29,15)"
               id="g475">
              <path
                 id="path477"
                 style="fill:#5c913b;fill-opacity:1;fill-rule:nonzero;stroke:none"
                 d="m 0,0 c 0,-1.104 -0.896,-2 -2,-2 -1.104,0 -2,0.896 -2,2 0,1.104 0.896,2 2,2 1.104,0 2,-0.896 2,-2"
                 inkscape:connector-curvature="0" />
            </g>
            <g
               transform="translate(36,15)"
               id="g479">
              <path
                 id="path481"
                 style="fill:#5c913b;fill-opacity:1;fill-rule:nonzero;stroke:none"
                 d="m 0,0 c 0,-1.104 -0.896,-2 -2,-2 -1.104,0 -2,0.896 -2,2 0,1.104 0.896,2 2,2 1.104,0 2,-0.896 2,-2"
                 inkscape:connector-curvature="0" />
            </g>
            <g
               transform="translate(13,15)"
               id="g483">
              <path
                 id="path485"
                 style="fill:#5c913b;fill-opacity:1;fill-rule:nonzero;stroke:none"
                 d="m 0,0 c 0,-1.104 -0.895,-2 -2,-2 -1.104,0 -2,0.896 -2,2 0,1.104 0.896,2 2,2 1.105,0 2,-0.896 2,-2"
                 inkscape:connector-curvature="0" />
            </g>
            <g
               transform="translate(6,15)"
               id="g487">
              <path
                 id="path489"
                 style="fill:#5c913b;fill-opacity:1;fill-rule:nonzero;stroke:none"
                 d="m 0,0 c 0,-1.104 -0.895,-2 -2,-2 -1.104,0 -2,0.896 -2,2 0,1.104 0.896,2 2,2 1.105,0 2,-0.896 2,-2"
                 inkscape:connector-curvature="0" />
            </g>
            <g
               transform="translate(35,11)"
               id="g491">
              <path
                 id="path493"
                 style="fill:#ffac33;fill-opacity:1;fill-rule:nonzero;stroke:none"
                 d="m 0,0 c 0,-2.209 -1.791,-4 -4,-4 l -24,0 c -2.209,0 -4,1.791 -4,4 L 0,0 Z"
                 inkscape:connector-curvature="0" />
            </g>
          </g>
        </g>
      </g>
    </g>
    <g
       transform="matrix(0.87693306,0.20245595,-0.20245595,0.87693306,87.86041,23.383065)"
       id="g495">
      <g
         transform="matrix(1.25,0,0,-1.25,0,47.5)"
         id="g497">
        <g
           id="g499">
          <g
             clip-path="url(#clipPath16)"
             id="g501">
            <g
               transform="translate(36,19)"
               id="g503">
              <path
                 id="path505"
                 style="fill:#ffcc4d;fill-opacity:1;fill-rule:nonzero;stroke:none"
                 d="m 0,0 c 0,-9.389 -7.611,-17 -17,-17 -9.388,0 -17,7.611 -17,17 0,9.388 7.612,17 17,17 C -7.611,17 0,9.388 0,0"
                 inkscape:connector-curvature="0" />
            </g>
            <g
               transform="translate(22,11)"
               id="g507">
              <path
                 id="path509"
                 style="fill:#664500;fill-opacity:1;fill-rule:nonzero;stroke:none"
                 d="m 0,0 c 0,-1.657 -1.343,-3 -3,-3 -1.657,0 -3,1.343 -3,3 0,1.656 1.343,3 3,3 1.657,0 3,-1.344 3,-3"
                 inkscape:connector-curvature="0" />
            </g>
            <g
               transform="translate(18.3125,20.3882)"
               id="g511">
              <path
                 id="path513"
                 style="fill:#664500;fill-opacity:1;fill-rule:nonzero;stroke:none"
                 d="m 0,0 c -0.176,0.143 -0.427,0.147 -0.61,0.014 -0.013,-0.01 -1.261,-0.902 -3.702,-0.902 -2.441,0 -3.69,0.892 -3.701,0.9 -0.182,0.136 -0.434,0.133 -0.611,-0.009 -0.178,-0.142 -0.238,-0.386 -0.146,-0.594 0.061,-0.135 1.5,-3.297 4.458,-3.297 2.958,0 4.397,3.162 4.457,3.297 C 0.236,-0.384 0.176,-0.142 0,0"
                 inkscape:connector-curvature="0" />
            </g>
            <g
               transform="translate(28.3125,20.3882)"
               id="g515">
              <path
                 id="path517"
                 style="fill:#664500;fill-opacity:1;fill-rule:nonzero;stroke:none"
                 d="m 0,0 c -0.176,0.143 -0.426,0.148 -0.61,0.014 -0.012,-0.01 -1.261,-0.902 -3.702,-0.902 -2.441,0 -3.691,0.892 -3.701,0.9 -0.182,0.136 -0.433,0.133 -0.611,-0.009 -0.178,-0.142 -0.238,-0.386 -0.146,-0.594 0.06,-0.135 1.5,-3.297 4.458,-3.297 2.958,0 4.397,3.162 4.457,3.297 C 0.236,-0.384 0.177,-0.142 0,0"
                 inkscape:connector-curvature="0" />
            </g>
            <g
               transform="translate(16.9985,31.8691)"
               id="g519">
              <path
                 id="path521"
                 style="fill:#2a6797;fill-opacity:1;fill-rule:nonzero;stroke:none"
                 d="m 0,0 -2.003,0 c -0.432,0 -0.78,0.276 -0.78,0.756 0,0.479 0.348,0.755 0.78,0.755 l 3.922,0 c 0.156,0 0.563,-0.071 0.563,-0.539 0,-0.228 -0.047,-0.336 -0.179,-0.516 l -2.723,-3.814 2.279,0 c 0.432,0 0.779,-0.276 0.779,-0.756 0,-0.479 -0.347,-0.755 -0.779,-0.755 l -4.018,0 c -0.384,0 -0.708,0.192 -0.708,0.588 0,0.192 0.096,0.371 0.156,0.468 L 0,0 Z"
                 inkscape:connector-curvature="0" />
            </g>
            <g
               transform="translate(24.502,34.687)"
               id="g523">
              <path
                 id="path525"
                 style="fill:#2a6797;fill-opacity:1;fill-rule:nonzero;stroke:none"
                 d="m 0,0 -2.34,0 c -0.504,0 -0.91,0.322 -0.91,0.882 0,0.561 0.406,0.883 0.91,0.883 l 4.58,0 C 2.424,1.765 2.9,1.681 2.9,1.135 2.9,0.869 2.844,0.743 2.689,0.532 l -3.179,-4.454 2.662,0 c 0.504,0 0.91,-0.322 0.91,-0.883 0,-0.56 -0.406,-0.882 -0.91,-0.882 l -4.693,0 c -0.449,0 -0.827,0.224 -0.827,0.687 0,0.224 0.112,0.434 0.182,0.545 L 0,0 Z"
                 inkscape:connector-curvature="0" />
            </g>
            <g
               transform="translate(32.502,31.3101)"
               id="g527">
              <path
                 id="path529"
                 style="fill:#2a6797;fill-opacity:1;fill-rule:nonzero;stroke:none"
                 d="m 0,0 -3.008,0 c -0.648,0 -1.17,0.414 -1.17,1.134 0,0.72 0.522,1.135 1.17,1.135 l 5.889,0 c 0.234,0 0.846,-0.108 0.846,-0.811 0,-0.341 -0.073,-0.504 -0.27,-0.774 l -4.088,-5.726 3.422,0 c 0.647,0 1.17,-0.414 1.17,-1.134 0,-0.72 -0.523,-1.134 -1.17,-1.134 l -6.033,0 c -0.576,0 -1.062,0.288 -1.062,0.882 0,0.288 0.144,0.558 0.234,0.702 L 0,0 Z"
                 inkscape:connector-curvature="0" />
            </g>
          </g>
        </g>
      </g>
    </g>
  </g>
</svg>
