<?xml version="1.0" encoding="UTF-8" standalone="no"?>
<svg
   xmlns:dc="http://purl.org/dc/elements/1.1/"
   xmlns:cc="http://creativecommons.org/ns#"
   xmlns:rdf="http://www.w3.org/1999/02/22-rdf-syntax-ns#"
   xmlns:svg="http://www.w3.org/2000/svg"
   xmlns="http://www.w3.org/2000/svg"
   xmlns:sodipodi="http://sodipodi.sourceforge.net/DTD/sodipodi-0.dtd"
   xmlns:inkscape="http://www.inkscape.org/namespaces/inkscape"
   version="1.1"
   id="svg2"
   viewBox="0 0 200 200"
   height="200px"
   width="200px"
   inkscape:version="0.91 r13725"
   sodipodi:docname="111.svg">
  <metadata
     id="metadata433">
    <rdf:RDF>
      <cc:Work
         rdf:about="">
        <dc:format>image/svg+xml</dc:format>
        <dc:type
           rdf:resource="http://purl.org/dc/dcmitype/StillImage" />
      </cc:Work>
    </rdf:RDF>
  </metadata>
  <sodipodi:namedview
     pagecolor="#ffffff"
     bordercolor="#666666"
     borderopacity="1"
     objecttolerance="10"
     gridtolerance="10"
     guidetolerance="10"
     inkscape:pageopacity="0"
     inkscape:pageshadow="2"
     inkscape:window-width="1920"
     inkscape:window-height="1060"
     id="namedview431"
     showgrid="false"
     inkscape:zoom="4.32"
     inkscape:cx="100"
     inkscape:cy="100"
     inkscape:window-x="0"
     inkscape:window-y="0"
     inkscape:window-maximized="1"
     inkscape:current-layer="layer1" />
  
    
    
    <defs id="defs6">

        <clipPath
           id="clipPath28"
           clipPathUnits="userSpaceOnUse">
          <path
             id="path30"
             d="M 4,36 C 0,36 0,32 0,32 L 0,32 0,4 C 0,0 4,0 4,0 l 0,0 28,0 c 4,0 4,4 4,4 l 0,0 0,28 c 0,4 -4,4 -4,4 l 0,0 -28,0 z" />
        </clipPath>


        <clipPath clipPathUnits="userSpaceOnUse" id="clipPath16-rugby">
            <path d="M 0,38 38,38 38,0 0,0 0,38 Z" id="path18"/>
        </clipPath>
        <clipPath clipPathUnits="userSpaceOnUse" id="clipPath28-rugby">
            <path d="M 9.254,28.746 C 2.09,21.582 -0.927,9.561 3.929,3.929 l 0,0 C 9.561,-0.927 21.582,2.09 28.746,9.254 l 0,0 c 7.164,7.164 11.229,17.088 5.324,24.816 l 0,0 c -1.886,1.627 -4.489,2.371 -7.387,2.37 l 0,0 c -5.752,0 -12.665,-2.93 -17.429,-7.694" id="path30"/>
        </clipPath>

        <clipPath clipPathUnits="userSpaceOnUse" id="clipPath16-carrot">
            <path d="M 0,36 36,36 36,0 0,0 0,36 Z" id="path18"/>
        </clipPath>
        <clipPath clipPathUnits="userSpaceOnUse" id="clipPath32-carrot">
            <path d="M 11.815,23.013 C 4.2,15.397 -1.265,2.86 0.502,1.093 l 0,0 c 1.768,-1.768 14.305,3.698 21.92,11.313 l 0,0 c 7.616,7.615 7.562,11.53 4.243,14.85 l 0,0 c -1.328,1.328 -2.752,2.133 -4.47,2.133 l 0,0 c -2.575,0 -5.812,-1.809 -10.38,-6.376" id="path34"/>
        </clipPath>

        <clipPath clipPathUnits="userSpaceOnUse" id="clipPath32-hat">
            <path d="m 5,33.666 c 0,-0.034 0.018,-0.067 0.022,-0.101 l 0,0 C 5.008,33.455 5,33.335 5,33.2 l 0,0 L 6.802,9.616 C 3.299,8.705 1,7.424 1,6 L 1,6 C 1,3.238 9.611,1 19,1 l 0,0 c 9.389,0 18,2.238 18,5 l 0,0 c 0,1.424 -2.298,2.705 -5.801,3.616 l 0,0 L 33,33.184 c 0,0.135 -0.008,0.263 -0.021,0.373 l 0,0 C 32.982,33.591 33,33.632 33,33.666 l 0,0 c 0,1.805 -6.268,3.267 -14,3.267 l 0,0 c -7.732,0 -14,-1.462 -14,-3.267" id="path34"/>
        </clipPath>


        <clipPath clipPathUnits="userSpaceOnUse" id="clipPath48-soccer">
            <path d="M 1,19 C 1,9.059 9.059,1 19,1 l 0,0 c 9.941,0 18,8.059 18,18 l 0,0 c 0,9.941 -8.059,18 -18,18 l 0,0 C 9.059,37 1,28.941 1,19" id="path50"/>
        </clipPath>

        <clipPath clipPathUnits="userSpaceOnUse" id="clipPath28-baguette">
            <path d="M 24.052,31.33 5.126,12.406 C 1.342,8.62 1.288,4.133 2.856,2.564 l 0,0 C 4.424,0.997 8.912,1.049 12.697,4.835 l 0,0 18.925,18.924 c 3.784,3.785 3.837,8.273 2.269,9.841 l 0,0 c -0.605,0.606 -1.647,0.969 -2.915,0.969 l 0,0 c -2.014,0 -4.602,-0.917 -6.924,-3.239" id="path30"/>
        </clipPath>
    </defs>



  <g
     id="layer1">
    <circle
       style="opacity:1;fill:white;stroke:black;stroke-width:1;stroke-miterlimit:4;stroke-dasharray:none;stroke-opacity:0.1"
       id="path4039-0-9"
       cx="100px"
       cy="100px"
       r="90px" />
    <g
       transform="matrix(0.49790956,0.19112957,-0.19112957,0.49790956,48.501442,131.45411)"
       id="g8">
      <g
         transform="matrix(1.25,0,0,-1.25,0,45)"
         id="g10">
        <g
           id="g12">
          <g
             clip-path="url(#clipPath16)"
             id="g14">
            <g
               transform="translate(6.5,3)"
               id="g20">
              <path
                 id="path22"
                 style="fill:#99aab5;fill-opacity:1;fill-rule:nonzero;stroke:none"
                 d="M 0,0 C -1.933,0 -3.5,1.567 -3.5,3.5 -3.5,5.433 -1.933,7 0,7 1.933,7 3.5,5.433 3.5,3.5 3.5,1.567 1.933,0 0,0 M 0,9 C -3.038,9 -5.5,6.537 -5.5,3.5 -5.5,0.463 -3.038,-2 0,-2 3.038,-2 5.5,0.463 5.5,3.5 5.5,6.537 3.038,9 0,9"
                 inkscape:connector-curvature="0" />
            </g>
            <g
               transform="translate(29.5,3)"
               id="g24">
              <path
                 id="path26"
                 style="fill:#99aab5;fill-opacity:1;fill-rule:nonzero;stroke:none"
                 d="M 0,0 C -1.934,0 -3.5,1.567 -3.5,3.5 -3.5,5.433 -1.934,7 0,7 1.934,7 3.5,5.433 3.5,3.5 3.5,1.567 1.934,0 0,0 M 0,9 C -3.037,9 -5.5,6.537 -5.5,3.5 -5.5,0.463 -3.037,-2 0,-2 3.037,-2 5.5,0.463 5.5,3.5 5.5,6.537 3.037,9 0,9"
                 inkscape:connector-curvature="0" />
            </g>
            <g
               transform="translate(6.5,2.0859)"
               id="g28">
              <path
                 id="path18"
                 style="fill:#292f33;fill-opacity:1;fill-rule:nonzero;stroke:none"
                 d="M 0,0 C -2.485,0 -4.5,2.015 -4.5,4.5 -4.5,6.985 -2.485,9 0,9 2.485,9 4.5,6.985 4.5,4.5 4.5,2.015 2.485,0 0,0 M 0,11 C -3.59,11 -6.5,8.09 -6.5,4.5 -6.5,0.91 -3.59,-2 0,-2 3.59,-2 6.5,0.91 6.5,4.5 6.5,8.09 3.59,11 0,11"
                 inkscape:connector-curvature="0" />
            </g>
            <g
               transform="translate(29.5,2.0859)"
               id="g32">
              <path
                 id="path34"
                 style="fill:#292f33;fill-opacity:1;fill-rule:nonzero;stroke:none"
                 d="M 0,0 C -2.485,0 -4.5,2.015 -4.5,4.5 -4.5,6.985 -2.485,9 0,9 2.485,9 4.5,6.985 4.5,4.5 4.5,2.015 2.485,0 0,0 M 0,11 C -3.59,11 -6.5,8.09 -6.5,4.5 -6.5,0.91 -3.59,-2 0,-2 3.59,-2 6.5,0.91 6.5,4.5 6.5,8.09 3.59,11 0,11"
                 inkscape:connector-curvature="0" />
            </g>
            <g
               transform="translate(7.0015,8.9492)"
               id="g36">
              <path
                 id="path38"
                 style="fill:#77b255;fill-opacity:1;fill-rule:nonzero;stroke:none"
                 d="m 0,0 c -2,-4 0.999,-2.587 1.999,-0.587 0.905,1.811 3.444,2.429 4.66,0.375 -0.952,3.05 -3.798,5.263 -7.16,5.263 -1.374,0 -2.657,-0.375 -3.764,-1.02 C -1.433,3.865 1.1,2.2 0,0"
                 inkscape:connector-curvature="0" />
            </g>
            <g
               transform="translate(30,7)"
               id="g40">
              <path
                 id="path42"
                 style="fill:#99aab5;fill-opacity:1;fill-rule:nonzero;stroke:none"
                 d="m 0,0 c 0,-0.553 -0.447,-1 -1,-1 l -9,0 c -0.553,0 -1,0.447 -1,1 0,0.553 0.447,1 1,1 l 9,0 C -0.447,1 0,0.553 0,0"
                 inkscape:connector-curvature="0" />
            </g>
            <g
               transform="translate(29.9229,5.6943)"
               id="g44">
              <path
                 id="path46"
                 style="fill:#99aab5;fill-opacity:1;fill-rule:nonzero;stroke:none"
                 d="m 0,0 c -0.433,-0.344 -1.062,-0.272 -1.405,0.161 l -5.601,7.045 c -0.344,0.433 -0.271,1.062 0.16,1.405 0.433,0.344 1.062,0.273 1.406,-0.161 L 0.16,1.405 C 0.504,0.973 0.432,0.344 0,0"
                 inkscape:connector-curvature="0" />
            </g>
            <g
               transform="translate(12.4629,15.6328)"
               id="g48">
              <path
                 id="path50"
                 style="fill:#ccd6dd;fill-opacity:1;fill-rule:nonzero;stroke:none"
                 d="m 0,0 c 0.466,-0.297 0.602,-0.915 0.304,-1.381 l -4.849,-7.582 c -0.298,-0.465 -0.915,-0.601 -1.381,-0.303 -0.466,0.297 -0.602,0.915 -0.304,1.381 l 4.849,7.582 C -1.083,0.162 -0.465,0.299 0,0"
                 inkscape:connector-curvature="0" />
            </g>
            <g
               transform="translate(10.5293,18.6323)"
               id="g52">
              <path
                 id="path54"
                 style="fill:#77b255;fill-opacity:1;fill-rule:nonzero;stroke:none"
                 d="m 0,0 c -0.811,-0.585 -4.529,-1.632 -1.529,-3.632 3,-2 5.093,-4.125 5.093,-6 0,-2.665 -0.656,-4 0.907,-4 l 7,0 c 0,0 -1,4 2,7 3,3 5,2 8,3 1.897,0.633 4,2 4,3 0,1 0,2 -2,1 -2,-1 -1,-1.551 -3,-0.551 -2,1 -3.16,-0.449 -4.16,-0.449 -1,0 -7.615,-1.68 -8.62,0.049 C 7.138,0.368 5.905,1.368 4.087,1.368 2.769,1.368 0.971,0.7 0,0"
                 inkscape:connector-curvature="0" />
            </g>
            <g
               transform="translate(21,7)"
               id="g56">
              <path
                 id="path58"
                 style="fill:#66757f;fill-opacity:1;fill-rule:nonzero;stroke:none"
                 d="m 0,0 c 0,-1.104 -0.895,-2 -2,-2 -1.104,0 -1.999,0.896 -1.999,2 0,1.105 0.895,2 1.999,2 1.105,0 2,-0.895 2,-2"
                 inkscape:connector-curvature="0" />
            </g>
            <g
               transform="translate(36.1982,8.9746)"
               id="g60">
              <path
                 id="path62"
                 style="fill:#ccd6dd;fill-opacity:1;fill-rule:nonzero;stroke:none"
                 d="m 0,0 -9.277,-3.732 -1.119,2.783 9.277,3.732 L 0,0 Z"
                 inkscape:connector-curvature="0" />
            </g>
            <g
               transform="translate(35.8252,9.9023)"
               id="g64">
              <path
                 id="path66"
                 style="fill:#ffffff;fill-opacity:1;fill-rule:nonzero;stroke:none"
                 d="M 0,0 -9.277,-3.732 -9.65,-2.805 -0.373,0.928 0,0 Z"
                 inkscape:connector-curvature="0" />
            </g>
            <g
               transform="translate(36.1982,8.9746)"
               id="g68">
              <path
                 id="path70"
                 style="fill:#66757f;fill-opacity:1;fill-rule:nonzero;stroke:none"
                 d="M 0,0 -9.277,-3.732 -9.65,-2.805 -0.373,0.928 0,0 Z"
                 inkscape:connector-curvature="0" />
            </g>
            <g
               transform="translate(19,17.8628)"
               id="g72">
              <path
                 id="path74"
                 style="fill:#292f33;fill-opacity:1;fill-rule:nonzero;stroke:none"
                 d="m 0,0 c 1.366,-0.385 5.645,0.007 6.802,0.098 1.157,0.09 1.594,-0.452 0,-1.25 C 5,-2.053 1.187,-4.313 0,-4.777 -0.998,-5.168 -4.5,-3.566 -4.917,-3.081 -5.333,-2.595 -1.172,0.33 0,0"
                 inkscape:connector-curvature="0" />
            </g>
            <g
               transform="translate(34,19)"
               id="g76">
              <path
                 id="path78"
                 style="fill:#292f33;fill-opacity:1;fill-rule:nonzero;stroke:none"
                 d="M 0,0 C -1.549,-0.04 -3,0 -4,0 -5,0 -5.158,-1.102 -2.451,-1.102 0.256,-1.102 0,0 0,0"
                 inkscape:connector-curvature="0" />
            </g>
            <g
               transform="translate(3.7363,19.0425)"
               id="g80">
              <path
                 id="path82"
                 style="fill:#77b255;fill-opacity:1;fill-rule:nonzero;stroke:none"
                 d="M 0,0 C 0,1.465 4.456,5.134 3.975,4.476 2.825,2.903 3.485,1 5.462,1 7.438,1 8.17,-5.519 5.264,-4.042 2.357,-2.566 0,-0.719 0,0"
                 inkscape:connector-curvature="0" />
            </g>
            <g
               transform="translate(8.606,25.4307)"
               id="g84">
              <path
                 id="path86"
                 style="fill:#ccd6dd;fill-opacity:1;fill-rule:nonzero;stroke:none"
                 d="M 0,0 C 0.704,-0.61 0.345,-1.692 -1.045,-3.485 -2.436,-5.279 -4.627,-6.006 -3.404,-4.027 -2.181,-2.048 0,0 0,0"
                 inkscape:connector-curvature="0" />
            </g>
            <g
               transform="translate(10.5293,18.6323)"
               id="g88">
              <path
                 id="path90"
                 style="fill:#66757f;fill-opacity:1;fill-rule:nonzero;stroke:none"
                 d="m 0,0 c -0.19,-0.476 -0.73,-0.706 -1.206,-0.516 l -0.134,0.054 c -0.476,0.191 -0.707,0.73 -0.516,1.206 l 0.797,1.991 c 0.191,0.476 0.73,0.707 1.206,0.517 L 0.282,3.197 C 0.757,3.007 0.988,2.467 0.798,1.992 L 0,0 Z"
                 inkscape:connector-curvature="0" />
            </g>
            <g
               transform="translate(12.9106,22.0093)"
               id="g92">
              <path
                 id="path94"
                 style="fill:#292f33;fill-opacity:1;fill-rule:nonzero;stroke:none"
                 d="m 0,0 c 0.094,-0.26 -0.04,-0.546 -0.3,-0.64 l -1.882,-0.679 c -0.259,-0.094 -0.545,0.04 -0.639,0.3 -0.094,0.26 0.04,0.546 0.3,0.641 L -0.64,0.301 C -0.38,0.394 -0.094,0.26 0,0"
                 inkscape:connector-curvature="0" />
            </g>
          </g>
        </g>
      </g>
    </g>
    <g
       transform="matrix(-0.54055314,-0.80140299,0.80140299,-0.54055314,146.50789,93.851235)"
       id="g53">
      <g
         transform="matrix(1.25,0,0,-1.25,0,45)"
         id="g55">
        <g
           id="g57">
          <g
             clip-path="url(#clipPath16)"
             id="g59">
            <g
               transform="translate(12,28.3926)"
               id="g61">
              <path
                 id="path63"
                 style="fill:#ccd6dd;fill-opacity:1;fill-rule:nonzero;stroke:none"
                 d="m 0,0 -9,2.411 c -1.657,0.444 -3,-0.539 -3,-2.196 l 0,-20 c 0,-1.656 1.343,-3.36 3,-3.804 L 0,-26 0,0 Z"
                 inkscape:connector-curvature="0" />
            </g>
            <g
               transform="translate(24,5.6074)"
               id="g65">
              <path
                 id="path67"
                 style="fill:#ccd6dd;fill-opacity:1;fill-rule:nonzero;stroke:none"
                 d="m 0,0 9,-2.411 c 1.656,-0.444 3,0.54 3,2.196 l 0,20 c 0,1.657 -1.344,3.361 -3,3.804 L 0,26 0,0 Z"
                 inkscape:connector-curvature="0" />
            </g>
            <g
               transform="translate(24,5.6084)"
               id="g69">
              <path
                 id="path71"
                 style="fill:#e1e8ed;fill-opacity:1;fill-rule:nonzero;stroke:none"
                 d="m 0,0 -12,-3.216 0,26 L 0,26 0,0 Z"
                 inkscape:connector-curvature="0" />
            </g>
            <g
               transform="translate(12,26.3931)"
               id="g73">
              <path
                 id="path75"
                 style="fill:#55acee;fill-opacity:1;fill-rule:nonzero;stroke:none"
                 d="m 0,0 -8,2.144 c -1.104,0.295 -2,-0.36 -2,-1.464 l 0,-18.001 c 0,-1.103 0.896,-2.24 2,-2.535 L 0,-22 0,0 Z"
                 inkscape:connector-curvature="0" />
            </g>
            <g
               transform="translate(32,27.4648)"
               id="g77">
              <path
                 id="path79"
                 style="fill:#55acee;fill-opacity:1;fill-rule:nonzero;stroke:none"
                 d="m 0,0 -8,2.144 0,-22 L 0,-22 c 1.105,-0.296 2,0.359 2,1.465 l 0,18 C 2,-1.432 1.105,-0.296 0,0"
                 inkscape:connector-curvature="0" />
            </g>
            <g
               transform="translate(24,7.6084)"
               id="g81">
              <path
                 id="path83"
                 style="fill:#88c9f9;fill-opacity:1;fill-rule:nonzero;stroke:none"
                 d="m 0,0 -12,-3.216 0,22 L 0,22 0,0 Z"
                 inkscape:connector-curvature="0" />
            </g>
            <g
               transform="translate(12,14.4941)"
               id="g85">
              <path
                 id="path87"
                 style="fill:#5c913b;fill-opacity:1;fill-rule:nonzero;stroke:none"
                 d="m 0,0 c -0.268,-0.006 -0.595,-0.104 -0.845,-0.145 -0.436,-0.073 -0.329,-0.516 -0.463,-0.443 -0.135,0.074 -0.475,0.265 -0.812,0.658 -0.337,0.395 0.25,0.478 0.418,0.622 0.168,0.145 -0.317,0.172 -0.486,0.333 -0.169,0.159 -0.47,-0.104 -0.739,0.276 -0.269,0.376 -0.101,0.79 -0.133,1.179 -0.034,0.39 0.436,0.341 0.739,0.334 0.302,-0.002 0.537,-0.143 0.537,-0.602 0,-0.456 0.37,-0.708 0.27,-0.146 -0.101,0.561 0.1,0.658 0.235,0.89 0.134,0.23 0.37,0.55 0.673,1.04 C -0.385,4.354 -0.217,4.279 0,4.16 L 0,7.505 C -0.055,7.549 -0.11,7.595 -0.165,7.618 -0.468,7.75 -0.068,6.865 -0.303,6.509 -0.54,6.152 -0.901,6.316 -1.273,6.415 -1.642,6.514 -1.986,6.96 -1.716,7.422 c 0.268,0.462 0.782,0.267 1.051,0.653 0.27,0.385 -0.956,0.672 -1.394,0.942 -0.437,0.27 -0.962,0.409 -1.4,0.145 C -3.896,8.898 -4.832,9.029 -5.202,8.977 -5.571,8.923 -5.637,9.346 -5.705,9.67 c -0.066,0.322 -0.652,0.329 -1.257,0.338 -0.606,0.01 -1.741,-0.281 -1.547,-1.759 0.068,-0.514 0.605,-0.124 0.707,-0.036 0.1,0.088 0.605,-0.2 0.671,-0.637 0.068,-0.438 0.034,-0.887 -0.099,-1.232 -0.137,-0.345 0.336,-1.006 0.604,-1.612 0.269,-0.606 0.572,-0.687 0.706,-0.723 0.135,-0.036 0.908,-0.587 0.875,-0.996 -0.034,-0.411 0.706,-0.992 1.009,-1.34 0.303,-0.35 0.494,-0.662 0.887,-0.846 0.393,-0.182 0.852,-1.035 1.054,-1.165 0.155,-0.099 0.418,-0.451 0.576,-0.58 -0.208,-0.242 -0.612,-0.748 -0.612,-1.029 0,-0.383 0.441,-1.103 0.608,-1.3 0.168,-0.196 0.65,-0.442 0.751,-0.85 0.101,-0.407 -0.07,-1.646 -0.373,-1.907 -0.304,-0.262 -0.414,-1.043 -0.414,-1.043 0,0 0.107,-0.293 0.465,-0.124 0.309,0.144 0.777,0.567 1.094,0.801 L 0,0 Z"
                 inkscape:connector-curvature="0" />
            </g>
            <g
               transform="translate(24,20.2686)"
               id="g89">
              <path
                 id="path91"
                 style="fill:#77b255;fill-opacity:1;fill-rule:nonzero;stroke:none"
                 d="M 0,0 0,6.314 C -0.04,6.311 -0.068,6.303 -0.11,6.3 -0.319,6.289 -0.593,6.165 -0.89,5.98 -0.914,5.985 -0.936,5.996 -0.96,6.001 -1.855,6.176 -2.272,4.796 -2.999,4.849 c -0.73,0.052 -1.7,0.343 -2.332,-0.514 -0.631,-0.858 -0.776,-1.53 0,-1.295 0.777,0.236 1.312,1.426 1.7,1.089 0.388,-0.336 0.29,-0.72 -0.632,-1.105 C -5.185,2.639 -6.18,2.208 -6.714,2.064 -7.248,1.921 -7.37,1.53 -7.006,1.243 -6.642,0.955 -7.225,0.771 -7.831,0.223 c -0.607,-0.548 0.146,-0.512 0.656,-0.705 0.51,-0.193 0.898,0.323 1.117,0.932 0.217,0.609 1.158,1.522 1.55,1.544 0.392,0.023 0.392,-0.197 0.319,-0.602 -0.013,-0.072 0.001,-0.103 0.01,-0.139 -0.17,-0.54 -0.309,-1.029 -0.365,-1.306 -0.026,-0.134 -0.031,-0.35 -0.027,-0.595 -0.086,-0.003 -0.183,-0.021 -0.248,0 -0.438,0.128 -1.434,0.219 -1.701,-0.043 -0.267,-0.266 -0.412,-0.502 -0.728,-0.723 -0.316,-0.219 -1.603,-1.224 -1.626,-2.084 -0.025,-0.859 -0.049,-1.83 0.46,-1.721 0.51,0.11 1.749,0.826 2.137,1.288 0.387,0.463 0.921,0.523 1.092,0.156 0.169,-0.369 0.048,-0.649 -0.12,-1.354 -0.172,-0.708 0.11,-0.963 0.381,-1.468 0.274,-0.504 0.491,-0.775 0.491,-1.189 0,-0.412 0.389,-0.723 0.97,0.123 0.188,0.269 0.367,0.606 0.536,0.957 0.409,0.469 0.768,0.923 0.758,1.096 -0.016,0.281 -0.021,0.433 -0.024,0.624 0.033,0.082 0.064,0.157 0.091,0.219 0.126,0.293 0.241,0.746 0.362,1.156 0.007,0.009 0.013,0.016 0.019,0.024 0.238,0.337 0.185,0.353 0.58,0.756 0.264,0.269 0.254,0.512 0.214,0.678 0.106,0.174 0.134,0.28 -0.033,0.235 -0.005,-0.001 -0.012,-0.003 -0.016,-0.004 -0.001,0 -0.004,-0.019 -0.005,-0.014 -0.023,0.15 -0.206,-0.003 -0.501,-0.147 -0.285,-0.008 -0.567,0.065 -0.668,0.368 -0.133,0.396 -0.602,0.996 -0.639,1.336 0.003,0.041 0.005,0.077 0.01,0.124 0.013,0.036 0.033,0.066 0.069,0.088 0.038,0.022 0.075,0.03 0.112,0.035 0.041,-0.111 0.076,-0.28 0.086,-0.464 0.027,-0.477 0.395,-0.196 0.395,-0.498 0,-0.302 0.53,-0.492 0.661,-0.548 0.037,-0.015 0.094,0.028 0.159,0.098 0.031,-0.011 0.06,-0.033 0.093,-0.037 0.292,-0.031 0.922,0.984 1.117,1.164 0.102,0.095 0.105,0.269 0.033,0.394 C -0.035,-0.015 -0.019,-0.008 0,0 m -9.142,-7.239 c -0.437,0.074 -0.359,0.023 -0.628,0.598 -0.269,0.577 -0.432,0.743 -1.036,0.657 -0.606,-0.087 -0.584,-0.136 -0.751,0.163 -0.072,0.128 -0.241,0.082 -0.443,-0.032 l 0,-6.37 c 0.09,0.115 0.17,0.211 0.228,0.267 0.505,0.476 0.996,1.026 1.466,1.646 0.471,0.621 0.301,0.924 0.536,1.481 0.235,0.558 0.54,0.617 0.943,1.145 0.405,0.531 0.122,0.368 -0.315,0.445 m -2.59,5.557 c -0.1,-0.015 -0.187,-0.011 -0.268,-0.01 l 0,3.344 c 0.254,-0.064 0.512,-0.317 0.706,-0.735 0.234,-0.51 0.605,-0.067 0.739,-0.374 0.134,-0.308 0.875,-0.758 0.505,-0.742 -0.371,0.014 -0.74,-0.008 -0.841,-0.454 -0.102,-0.448 0.168,-0.795 -0.102,-0.829 -0.269,-0.033 -0.369,-0.142 -0.739,-0.2"
                 inkscape:connector-curvature="0" />
            </g>
            <g
               transform="translate(31.4072,12.2305)"
               id="g93">
              <path
                 id="path95"
                 style="fill:#5c913b;fill-opacity:1;fill-rule:nonzero;stroke:none"
                 d="M 0,0 C -0.133,0.338 -0.518,0.713 -0.675,0.91 -0.834,1.104 -1.082,1.223 -1.293,1.189 -1.505,1.158 -1.636,1.281 -1.741,1.551 -1.848,1.816 -2.031,1.783 -2.19,1.795 -2.348,1.807 -2.981,1.676 -3.352,1.564 -3.72,1.451 -3.889,1.312 -4.13,1.107 c -0.382,-0.32 -0.17,-0.105 0,-0.423 0.168,-0.319 -0.186,-1.067 -0.213,-1.543 -0.027,-0.477 0.676,-0.032 0.94,-0.039 0.263,-0.012 0.185,0.189 0.396,0.314 0.212,0.125 0.349,0.129 0.579,-0.172 0.234,-0.305 0.537,-0.611 0.537,-0.883 0,-0.269 0.834,-0.947 1.152,-0.851 0.316,0.097 0.501,0.408 0.791,0.635 0.291,0.224 0.185,0.824 0.264,1.168 C 0.396,-0.346 0.13,-0.336 0,0 m -2.403,2.578 c 0.261,-0.402 0.159,-0.043 0.504,0.016 0.342,0.058 -0.291,0.56 -0.502,0.799 -0.211,0.238 -0.42,0.3 -0.606,-0.049 C -3.216,2.945 -2.664,2.98 -2.403,2.578 M 0.685,1.146 C 0.554,1.363 0.264,1.531 -0.054,1.607 -0.369,1.684 -0.344,2.088 -0.66,2.141 -0.976,2.195 -1.204,2.529 -1.346,2.652 -1.657,2.918 -1.452,2.443 -1.346,1.953 -1.239,1.465 -0.845,1.707 -0.477,1.367 -0.107,1.027 -0.079,1.352 0.264,1.139 0.605,0.928 0.738,0.619 1.067,0.561 1.396,0.502 0.817,0.93 0.685,1.146 m -2.004,5.371 c 0.183,-0.08 0.975,-0.171 0.553,0.334 -0.422,0.506 -0.106,0.299 -0.052,0.738 0.052,0.44 -0.264,0.525 -0.264,0.525 0,-0.332 -0.211,-0.638 0,-1.027 0.21,-0.389 -0.423,-0.49 -0.237,-0.57 M -3.411,4.449 c 0.389,-0.166 0.114,0.482 0.244,0.841 0.132,0.357 0.316,0.369 0.555,0.364 0.236,-0.002 0.422,0.191 0.581,0.388 0.157,0.2 0.448,0.455 0.422,0.733 -0.027,0.279 -0.105,0.482 -0.212,0.843 -0.106,0.36 0.316,0.368 0.502,0.711 0.183,0.342 0,0 0.421,0.007 0.421,0.008 0.238,0.058 0.316,0.218 0.08,0.159 0.133,0.327 0.054,0.68 -0.078,0.353 -0.37,0.099 -0.66,0.177 -0.289,0.077 0.106,0.424 0.131,0.78 0.027,0.355 0.397,0.165 0.662,0.125 0.262,-0.039 0.341,-0.485 0.42,-0.597 0.082,-0.112 0.896,0.365 1.109,0.641 0.211,0.275 -0.186,0.291 -0.079,0.403 0.105,0.111 -0.632,0.337 -0.925,0.469 -0.289,0.133 -1.028,0.367 -1.318,0.649 -0.289,0.284 -1.397,0.426 -1.688,0.337 -0.291,-0.086 -0.476,0.143 -0.606,0.406 -0.131,0.262 -0.686,0.297 -0.844,0.467 -0.158,0.17 -0.316,-0.127 -0.529,-0.16 -0.21,-0.035 -0.29,-0.043 -0.554,0.209 -0.263,0.252 0.08,0.371 -0.288,0.621 -0.355,0.239 -0.813,0.184 -1.71,0.593 l 0,-6.314 c 0.157,-0.014 0.308,-0.037 0.364,-0.051 0.131,-0.035 0.448,-0.574 0.448,-0.784 0,-0.211 0.159,-0.829 0.291,-1.196 0.131,-0.366 0.42,-0.506 0.686,-0.818 0.264,-0.312 0.394,-0.137 0.394,-0.137 0,0 -0.105,0.544 -0.105,0.965 0,0.424 0.316,0.701 0.316,0.701 0,0 0.5,-0.557 0.529,-0.684 0.026,-0.128 0.421,-0.657 0.449,-0.876 0.025,-0.219 0.236,-0.547 0.624,-0.711 m -0.362,-0.9 C -3.826,3.109 -3.59,3.348 -3.167,2.844 -2.744,2.336 -3.271,2.449 -3.456,2.527 c -0.185,0.08 -0.37,0.131 -0.579,0.518 -0.213,0.391 0,0.695 0,1.027 0,0 0.315,-0.084 0.262,-0.523"
                 inkscape:connector-curvature="0" />
            </g>
          </g>
        </g>
      </g>
    </g>
    <g
       transform="matrix(-0.46139152,-0.61228722,0.61228722,-0.46139152,90.158804,183.2938)"
       id="g97">
      <g
         transform="matrix(1.25,0,0,-1.25,0,47.5)"
         id="g99">
        <g
           id="g101">
          <g
             clip-path="url(#clipPath16)"
             id="g103">
            <g
               transform="translate(36,19)"
               id="g105">
              <path
                 id="path107"
                 style="fill:#ffcc4d;fill-opacity:1;fill-rule:nonzero;stroke:none"
                 d="m 0,0 c 0,-9.389 -7.611,-17 -17,-17 -9.388,0 -17,7.611 -17,17 0,9.388 7.612,17 17,17 C -7.611,17 0,9.388 0,0"
                 inkscape:connector-curvature="0" />
            </g>
            <g
               transform="translate(29.457,19.2031)"
               id="g109">
              <path
                 id="path111"
                 style="fill:#664500;fill-opacity:1;fill-rule:nonzero;stroke:none"
                 d="m 0,0 c -0.059,0.135 -1.499,3.297 -4.457,3.297 -2.957,0 -4.397,-3.162 -4.457,-3.297 -0.092,-0.207 -0.032,-0.449 0.144,-0.591 0.175,-0.142 0.426,-0.147 0.611,-0.014 0.012,0.009 1.262,0.902 3.702,0.902 2.426,0 3.674,-0.881 3.702,-0.901 0.088,-0.066 0.194,-0.099 0.298,-0.099 0.11,0 0.221,0.037 0.312,0.109 C 0.032,-0.452 0.093,-0.208 0,0"
                 inkscape:connector-curvature="0" />
            </g>
            <g
               transform="translate(17.457,19.2031)"
               id="g113">
              <path
                 id="path115"
                 style="fill:#664500;fill-opacity:1;fill-rule:nonzero;stroke:none"
                 d="m 0,0 c -0.06,0.135 -1.499,3.297 -4.457,3.297 -2.957,0 -4.397,-3.162 -4.457,-3.297 -0.092,-0.207 -0.032,-0.449 0.144,-0.591 0.176,-0.142 0.427,-0.147 0.61,-0.014 0.013,0.009 1.262,0.902 3.703,0.902 2.426,0 3.674,-0.881 3.702,-0.901 0.088,-0.066 0.194,-0.099 0.298,-0.099 0.11,0 0.221,0.037 0.312,0.109 C 0.033,-0.452 0.092,-0.208 0,0"
                 inkscape:connector-curvature="0" />
            </g>
            <g
               transform="translate(19,15)"
               id="g117">
              <path
                 id="path119"
                 style="fill:#664500;fill-opacity:1;fill-rule:nonzero;stroke:none"
                 d="m 0,0 c -3.623,0 -6.027,0.422 -9,1 -0.679,0.131 -2,0 -2,-2 0,-4 4.595,-9 11,-9 6.404,0 11,5 11,9 C 11,1 9.679,1.132 9,1 6.027,0.422 3.623,0 0,0"
                 inkscape:connector-curvature="0" />
            </g>
            <g
               transform="translate(10,14)"
               id="g121">
              <path
                 id="path123"
                 style="fill:#ffffff;fill-opacity:1;fill-rule:nonzero;stroke:none"
                 d="m 0,0 c 0,0 3,-1 9,-1 6,0 9,1 9,1 0,0 -2,-4 -9,-4 -7,0 -9,4 -9,4"
                 inkscape:connector-curvature="0" />
            </g>
            <g
               transform="translate(36,26)"
               id="g125">
              <path
                 id="path127"
                 style="fill:#5dadec;fill-opacity:1;fill-rule:nonzero;stroke:none"
                 d="m 0,0 c 0,-2.762 -2.238,-5 -5,-5 -2.762,0 -5,2.238 -5,5 0,2.762 4,10 5,10 1,0 5,-7.238 5,-10"
                 inkscape:connector-curvature="0" />
            </g>
          </g>
        </g>
      </g>
    </g>
    <g
       transform="matrix(-0.39319561,-0.54118733,0.54118733,-0.39319561,97.449939,60.369387)"
       id="g129">
      <g
         transform="matrix(1.25,0,0,-1.25,0,47.5)"
         id="g131">
        <g
           id="g133">
          <g
             clip-path="url(#clipPath16)"
             id="g135">
            <g
               transform="translate(29,35.0005)"
               id="g137">
              <path
                 id="path139"
                 style="fill:#ffe8b6;fill-opacity:1;fill-rule:nonzero;stroke:none"
                 d="m 0,0 c 2.684,1.342 5,-4 3,-13 -1.106,-4.977 -5,-9 -9,-12 -4,-3 -11,1 -7,5 4,4 8,7 10,13 1.304,3.912 1,6 3,7"
                 inkscape:connector-curvature="0" />
            </g>
            <g
               transform="translate(32,29.0005)"
               id="g141">
              <path
                 id="path143"
                 style="fill:#ffd983;fill-opacity:1;fill-rule:nonzero;stroke:none"
                 d="m 0,0 c 0,-3 -1,-9 -4,-13 -3,-4 -7,-5 -4,-1 3,4 5,7 6,11 1,4 2,7 2,3"
                 inkscape:connector-curvature="0" />
            </g>
            <g
               transform="translate(23,17)"
               id="g145">
              <path
                 id="path147"
                 style="fill:#ffcc4d;fill-opacity:1;fill-rule:nonzero;stroke:none"
                 d="M 0,0 C -0.296,-0.592 1,3 -1,5 -1.169,4.832 -1.338,4.632 -1.521,4.407 -1.621,5.112 -2.113,5.557 -3,6 -5,7 -13.001,5 -7,5 -4,5 -3,3.001 -5,1 -5.292,0.709 -5.489,0.397 -5.623,0.089 -6.039,-0.258 -6.495,-0.621 -7,-1 c -2.263,-1.697 -5.84,-4.227 -10,-7 -3,-2 -4,-3 -4,-4 0,-3 9,-3 14,-1 5,2 10,7 10,7 l 4,4 C 4,2 0,0 0,0"
                 inkscape:connector-curvature="0" />
            </g>
            <g
               transform="translate(23,17)"
               id="g149">
              <path
                 id="path151"
                 style="fill:#ffe8b6;fill-opacity:1;fill-rule:nonzero;stroke:none"
                 d="m 0,0 c 0,0 1,5 -3,7 -4.001,2 -8,1 -11,-1 -3,-2 -2,-3.999 -3,-5 -1,-1 1,-2 3,0 2,2 8.315,4.895 11,4 3,-1 2,-2.999 3,-5"
                 inkscape:connector-curvature="0" />
            </g>
            <g
               transform="translate(27,18.0005)"
               id="g153">
              <path
                 id="path155"
                 style="fill:#a6d388;fill-opacity:1;fill-rule:nonzero;stroke:none"
                 d="m 0,0 c 3,0 8,-3 7,-9 -1,-6 -5,-7 -7,-7 l -4,0 c -2,0 -3,-1 -4,-1 -1,0 -2,2 0,2 2,0 4,0 5,1 1,1 5,0 5,6 0,3 -4,7 -6,7 0,0 2,1 4,1"
                 inkscape:connector-curvature="0" />
            </g>
            <g
               transform="translate(19.9995,2)"
               id="g157">
              <path
                 id="path159"
                 style="fill:#3e721d;fill-opacity:1;fill-rule:nonzero;stroke:none"
                 d="m 0,0 c 0,-0.553 -0.448,-1 -1,-1 -0.552,0 -1,0.447 -1,1 0,0.553 0.448,1 1,1 0.552,0 1,-0.447 1,-1"
                 inkscape:connector-curvature="0" />
            </g>
            <g
               transform="translate(27,18.0005)"
               id="g161">
              <path
                 id="path163"
                 style="fill:#ffcc4d;fill-opacity:1;fill-rule:nonzero;stroke:none"
                 d="m 0,0 c 3,0 8,-3 7,-9 -1,-6 -5,-7 -7,-7 l -4,0 c -2,0 0,1 1,2 1,1 5,0 5,6 0,3 -4,7 -6,7 0,0 2,1 4,1"
                 inkscape:connector-curvature="0" />
            </g>
            <g
               transform="translate(27,18.0005)"
               id="g165">
              <path
                 id="path167"
                 style="fill:#ffe8b6;fill-opacity:1;fill-rule:nonzero;stroke:none"
                 d="m 0,0 c 3,0 8,-3 7,-9 -1,-6 -5,-7 -7,-7 l -2,0 c -2,0 -1,1 0,2 1,1 4,0 4,6 0,3 -4,7 -6,7 0,0 2,1 4,1"
                 inkscape:connector-curvature="0" />
            </g>
            <g
               transform="translate(17.9995,16)"
               id="g169">
              <path
                 id="path171"
                 style="fill:#ffd983;fill-opacity:1;fill-rule:nonzero;stroke:none"
                 d="m 0,0 c 3,0 5,-1 3,-3 -1.581,-1.581 -6,-5 -10,-6 -4,-1 -8,-1 -5,1 3,2 9.764,8 12,8"
                 inkscape:connector-curvature="0" />
            </g>
            <g
               transform="translate(2.9995,6)"
               id="g173">
              <path
                 id="path175"
                 style="fill:#c1694f;fill-opacity:1;fill-rule:nonzero;stroke:none"
                 d="M 0,0 C 1,0 1,0 1,-0.667 1,-1.333 1,-2 0,-2 c -1,0 -1,1.333 -1,1.333 0,0 0,0.667 1,0.667"
                 inkscape:connector-curvature="0" />
            </g>
          </g>
        </g>
      </g>
    </g>
    <g
       transform="translate(28.5 94.5) rotate(253 15 15) scale(0.5666666666666667)"
       id="g177">
      <g
         transform="matrix(1.25,0,0,-1.25,0,47.5)"
         id="g179">
        <g
           id="g181">
          <g
             clip-path="url(#clipPath16)"
             id="g183">
            <g
               transform="translate(24,1)"
               id="g185">
              <path
                 id="path187"
                 style="fill:#dd2e44;fill-opacity:1;fill-rule:nonzero;stroke:none"
                 d="M 0,0 C -0.263,0 -0.519,0.104 -0.707,0.293 -3.05,2.635 -7,20.104 -7,22 c 0,0.282 0.101,1.687 2.094,1.687 2.113,0 5.878,-1.587 6.3,-1.768 C 1.762,21.762 2,21.4 2,21 2,19.511 6.406,10.267 9.857,4.515 10.086,4.133 10.036,3.646 9.733,3.32 9.432,2.994 8.95,2.907 8.553,3.105 L 3.295,5.734 C 2.854,5.009 2.364,3.866 1.919,2.828 1.586,2.05 1.241,1.246 0.895,0.553 0.751,0.266 0.478,0.064 0.16,0.013 0.106,0.004 0.053,0 0,0" />
            </g>
            <g
               transform="translate(13,1)"
               id="g189">
              <path
                 id="path191"
                 style="fill:#dd2e44;fill-opacity:1;fill-rule:nonzero;stroke:none"
                 d="M 0,0 C -0.053,0 -0.107,0.004 -0.16,0.013 -0.478,0.064 -0.75,0.266 -0.895,0.553 -1.241,1.246 -1.586,2.05 -1.919,2.828 -2.364,3.866 -2.854,5.009 -3.295,5.734 L -8.553,3.105 C -8.951,2.905 -9.431,2.995 -9.734,3.32 -10.036,3.646 -10.086,4.133 -9.857,4.515 -6.406,10.267 -2,19.511 -2,21 c 0,0.4 0.238,0.762 0.606,0.919 0.422,0.181 4.187,1.768 6.3,1.768 C 6.899,23.687 7,22.282 7,22 7,20.104 3.049,2.635 0.707,0.293 0.518,0.104 0.263,0 0,0" />
            </g>
            <g
               transform="translate(3,33.3081)"
               id="g193">
              <path
                 id="path195"
                 style="fill:#dd2e44;fill-opacity:1;fill-rule:nonzero;stroke:none"
                 d="m 0,0 0,-13.499 c 0,-4.499 11.375,0.9 14.974,4.5 3.6,3.6 -0.063,5.399 -0.063,6.299 C 14.911,-1.8 0,7.199 0,0" />
            </g>
          </g>
        </g>
        <g
           id="g197">
          <g
             clip-path="url(#clipPath36)"
             id="g34">
            <g
               transform="translate(19.8999,25.209)"
               id="g200">
              <path
                 id="path202"
                 style="fill:#a0041e;fill-opacity:1;fill-rule:nonzero;stroke:none"
                 d="m 0,0 c -13.499,0 -17.098,-5.399 -17.098,-7.199 0,-1.8 9.899,-5.4 12.598,-2.699 C -1.8,-7.199 0,0 0,0" />
            </g>
          </g>
        </g>
        <g
           id="g204">
          <g
             clip-path="url(#clipPath48)"
             id="g46">
            <g
               transform="translate(35,33.3081)"
               id="g207">
              <path
                 id="path209"
                 style="fill:#dd2e44;fill-opacity:1;fill-rule:nonzero;stroke:none"
                 d="m 0,0 0,-13.499 c 0,-4.499 -10.99,0.9 -14.59,4.5 -3.599,3.6 -0.129,5.399 -0.129,6.299 C -14.719,-1.8 0,7.199 0,0" />
            </g>
          </g>
        </g>
        <g
           id="g211">
          <g
             clip-path="url(#clipPath60)"
             id="g58">
            <g
               transform="translate(18.7705,25.209)"
               id="g214">
              <path
                 id="path216"
                 style="fill:#a0041e;fill-opacity:1;fill-rule:nonzero;stroke:none"
                 d="m 0,0 c 13.499,0 17.099,-5.399 17.099,-7.199 0,-1.8 -9.9,-5.4 -12.599,-2.699 C 1.8,-7.199 0,0 0,0" />
            </g>
          </g>
        </g>
        <g
           id="g218">
          <g
             clip-path="url(#clipPath72)"
             id="g70">
            <g
               transform="translate(23,25.5996)"
               id="g221">
              <path
                 id="path223"
                 style="fill:#ea596e;fill-opacity:1;fill-rule:nonzero;stroke:none"
                 d="m 0,0 c 0,-1.988 -1.611,-3.6 -3.599,-3.6 l -1.802,0 C -7.389,-3.6 -9,-1.988 -9,0 l 0,3.801 C -9,5.789 -7.389,7.4 -5.401,7.4 l 1.802,0 C -1.611,7.4 0,5.789 0,3.801 L 0,0 Z" />
            </g>
          </g>
        </g>
      </g>
    </g>
    <g
       transform="matrix(-0.93358043,-0.35836795,0.35836795,-0.93358043,100.54485,107.61071)"
       id="g225">
      <g
         transform="matrix(1.25,0,0,-1.25,0,47.5)"
         id="g227">
        <g
           id="g229">
          <g
             clip-path="url(#clipPath16)"
             id="g231">
            <g
               transform="translate(31.1982,9.6152)"
               id="g233">
              <path
                 id="path235"
                 style="fill:#292f33;fill-opacity:1;fill-rule:nonzero;stroke:none"
                 d="m 0,0 1.802,23.568 c 0,0.136 -0.008,0.264 -0.022,0.373 0.004,0.034 0.022,0.076 0.022,0.11 0,1.804 -6.269,3.267 -14,3.267 -7.732,0 -14,-1.463 -14,-3.267 0,-0.034 0.017,-0.068 0.022,-0.102 -0.014,-0.109 -0.022,-0.229 -0.022,-0.364 L -24.396,0 c -3.504,-0.91 -5.802,-2.191 -5.802,-3.615 0,-2.762 8.611,-5 18,-5 9.388,0 18,2.238 18,5 C 5.802,-2.191 3.504,-0.91 0,0"
                 inkscape:connector-curvature="0" />
            </g>
            <g
               transform="translate(18.5356,30.4048)"
               id="g237">
              <path
                 id="path239"
                 style="fill:#66757f;fill-opacity:1;fill-rule:nonzero;stroke:none"
                 d="m 0,0 c -4.89,0 -8.602,0.896 -10.852,1.646 -0.524,0.175 -0.807,0.742 -0.632,1.266 0.174,0.523 0.738,0.807 1.265,0.632 C -7.33,2.581 0.543,0.653 11.202,3.56 11.731,3.702 12.284,3.392 12.429,2.858 12.575,2.326 12.26,1.776 11.727,1.63 7.321,0.429 3.379,0 0,0"
                 inkscape:connector-curvature="0" />
            </g>
          </g>
        </g>
        <g
           id="g241">
          <g
             clip-path="url(#clipPath32-hat)"
             id="g30">
            <g
               transform="translate(9.6045,6.208)"
               id="g244">
              <path
                 id="path246"
                 style="fill:#744eaa;fill-opacity:1;fill-rule:nonzero;stroke:none"
                 d="m 0,0 c 4.458,-1.708 13.958,-1.646 18.807,-0.149 1.466,0.453 2.776,1.733 2.776,3.191 0,3.256 3.742,7.25 2.271,6.75 -8.271,-2.813 -19.771,-3 -28.25,0.208 -9.995,3.782 0.125,-2.625 0.792,-3.875 0.4,-0.751 0.833,-1.347 0.833,-2.729 C -2.771,1.646 -1.482,0.567 0,0"
                 inkscape:connector-curvature="0" />
            </g>
          </g>
        </g>
      </g>
    </g>
    <g
       transform="matrix(0.45282575,-0.39363542,0.39363542,0.45282575,138.02366,110.99246)"
       id="g248">
      <g
         transform="matrix(1.25,0,0,-1.25,0,47.5)"
         id="g250">
        <g
           id="g252">
          <g
             clip-path="url(#clipPath16)"
             id="g254">
            <g
               transform="translate(20.6016,4.6709)"
               id="g256">
              <path
                 id="path258"
                 style="fill:#77b255;fill-opacity:1;fill-rule:nonzero;stroke:none"
                 d="M 0,0 C 6.509,-6.506 17.254,7.669 15.72,7.669 8.052,7.669 -6.506,6.508 0,0"
                 inkscape:connector-curvature="0" />
            </g>
            <g
               transform="translate(16.6445,3.6279)"
               id="g260">
              <path
                 id="path262"
                 style="fill:#77b255;fill-opacity:1;fill-rule:nonzero;stroke:none"
                 d="M 0,0 C -6.032,-6.032 -15.715,7.109 -14.292,7.109 -7.182,7.109 6.035,6.034 0,0"
                 inkscape:connector-curvature="0" />
            </g>
            <g
               transform="translate(35.6133,21.2461)"
               id="g264">
              <path
                 id="path266"
                 style="fill:#f4abba;fill-opacity:1;fill-rule:nonzero;stroke:none"
                 d="m 0,0 c -0.052,0.901 -0.175,2.585 -1.398,4.227 -1.161,1.549 -3.805,3.371 -5.535,2.585 0.516,1.676 -0.263,4.125 -1.191,5.49 -1.179,1.737 -4.262,3.843 -8.146,3.027 -1.754,-0.37 -4.18,-2.036 -4.632,-3.865 -1.18,1.472 -4.221,1.675 -6.015,1.222 -2.025,-0.511 -3.153,-1.777 -3.739,-2.461 l 0.004,0.005 c -0.01,-0.01 -0.02,-0.024 -0.03,-0.034 -0.007,-0.009 -0.02,-0.024 -0.027,-0.033 -0.583,-0.689 -1.656,-1.994 -1.847,-4.074 -0.193,-2.146 0.75,-5.832 3.026,-6.042 0.149,-0.014 0.323,-0.031 0.513,-0.051 -2.27,-0.098 -3.572,-3.654 -3.594,-5.8 -0.023,-2.101 0.926,-3.506 1.443,-4.243 l -0.003,0.004 c 0.008,-0.01 0.019,-0.024 0.025,-0.036 0.007,-0.011 0.02,-0.024 0.026,-0.036 0.523,-0.733 1.525,-2.094 3.515,-2.777 1.958,-0.669 5.553,-0.656 6.566,1.237 -0.273,-2.244 3.028,-4.077 5.17,-4.439 2.115,-0.358 3.71,0.358 4.55,0.753 l -0.005,-0.003 c 0.012,0.008 0.028,0.015 0.041,0.021 0.011,0.005 0.028,0.013 0.041,0.019 0.838,0.401 2.397,1.178 3.462,3.04 0.728,1.283 1.269,3.404 0.951,5.015 0.064,-0.043 0.136,-0.089 0.192,-0.127 1.826,-1.224 4.63,1.119 5.705,2.938 C 0.111,-2.675 0,-0.012 0,0"
                 inkscape:connector-curvature="0" />
            </g>
            <g
               transform="translate(28.542,23.4585)"
               id="g268">
              <path
                 id="path270"
                 style="fill:#ea596e;fill-opacity:1;fill-rule:nonzero;stroke:none"
                 d="m 0,0 c -1.786,0.997 -4.874,0.434 -6.792,-0.308 -0.266,0.468 -0.621,0.875 -1.051,1.196 1.393,1.607 3.527,4.593 1.468,6.362 -2.191,1.883 -3.74,-2.154 -3.575,-5.605 -0.068,0.003 -0.132,0.02 -0.2,0.02 -1.02,0 -1.94,-0.402 -2.632,-1.045 -1.402,2.277 -3.943,4.244 -5.314,2.392 -1.482,-2.002 1.149,-3.153 4.222,-4.199 -0.09,-0.329 -0.154,-0.668 -0.154,-1.026 0,-0.456 0.093,-0.887 0.237,-1.293 -2.54,-0.733 -6.236,-2.718 -4.209,-4.911 2.121,-2.295 4.471,1.239 5.603,3.053 0.635,-0.454 1.407,-0.727 2.247,-0.727 0.224,0 0.441,0.029 0.655,0.066 -0.109,-4.802 1.443,-7.07 4.036,-5.892 2.295,1.043 -0.137,5.299 -1.781,7.166 0.316,0.362 0.564,0.779 0.729,1.241 C 0.497,-6.054 2.078,-1.159 0,0"
                 inkscape:connector-curvature="0" />
            </g>
            <g
               transform="translate(18.707,19.541)"
               id="g272">
              <path
                 id="path274"
                 style="fill:#be1931;fill-opacity:1;fill-rule:nonzero;stroke:none"
                 d="m 0,0 c -0.679,0 -0.668,0.562 -0.832,1.25 -0.532,2.234 -2.381,6.309 -4.601,9.163 -0.508,0.654 -0.39,1.596 0.264,2.105 0.654,0.508 1.596,0.391 2.105,-0.263 C -0.625,9.119 0.199,4.851 0.918,1.834 1.109,1.028 1.155,0.233 0.349,0.042 0.232,0.014 0.115,0 0,0"
                 inkscape:connector-curvature="0" />
            </g>
            <g
               transform="translate(16.9043,31.6729)"
               id="g276">
              <path
                 id="path278"
                 style="fill:#ffcc4d;fill-opacity:1;fill-rule:nonzero;stroke:none"
                 d="m 0,0 c 0.498,-0.684 0.079,-1.838 -0.936,-2.578 l -0.475,-0.346 c -1.016,-0.74 -2.242,-0.785 -2.741,-0.101 l -2.781,3.816 c -0.498,0.684 -0.079,1.838 0.937,2.578 l 0.475,0.346 c 1.015,0.74 2.242,0.785 2.74,0.101 L 0,0 Z"
                 inkscape:connector-curvature="0" />
            </g>
          </g>
        </g>
      </g>
    </g>
    <g
       transform="translate(29.0 54.0) rotate(336 15 15) scale(0.5333333333333333)"
       id="g280">
      <g
         transform="matrix(1.25,0,0,-1.25,0,47.5)"
         id="g282">
        <g
           id="g284">
          <g
             clip-path="url(#clipPath16)"
             id="g286">
            <g
               transform="translate(35.1934,23.6709)"
               id="g288">
              <path
                 id="path290"
                 style="fill:#f4abba;fill-opacity:1;fill-rule:nonzero;stroke:none"
                 d="m 0,0 c 0.387,0.371 0.733,0.795 1.02,1.28 1.685,2.853 0.269,10.292 -0.592,10.8 -0.696,0.411 -5.53,-1.05 -8.246,-3.132 -2.499,1.497 -5.344,2.381 -8.375,2.381 -3.022,0 -5.856,-0.879 -8.349,-2.367 -2.721,2.075 -7.533,3.528 -8.227,3.118 -0.861,-0.508 -2.276,-7.947 -0.592,-10.8 0.278,-0.471 0.615,-0.884 0.989,-1.249 -1.156,-2.552 -1.821,-5.342 -1.821,-8.18 0,-9.99 8.01,-12.522 18,-12.522 9.989,0 18,2.532 18,12.522 C 1.807,-5.322 1.146,-2.543 0,0" />
            </g>
            <g
               transform="translate(8.3979,31.0352)"
               id="g292">
              <path
                 id="path294"
                 style="fill:#ea596e;fill-opacity:1;fill-rule:nonzero;stroke:none"
                 d="M 0,0 C -2.166,1.268 -4.402,2.08 -4.8,1.845 -5.37,1.509 -5.883,-3.153 -5.151,-6.419 -3.879,-3.938 -2.112,-1.738 0,0" />
            </g>
            <g
               transform="translate(34.7529,24.6157)"
               id="g296">
              <path
                 id="path298"
                 style="fill:#ea596e;fill-opacity:1;fill-rule:nonzero;stroke:none"
                 d="M 0,0 C 0.732,3.267 0.219,7.928 -0.351,8.265 -0.749,8.5 -2.985,7.687 -5.151,6.419 -3.038,4.682 -1.271,2.482 0,0" />
            </g>
            <g
               transform="translate(29,13.875)"
               id="g300">
              <path
                 id="path302"
                 style="fill:#ea596e;fill-opacity:1;fill-rule:nonzero;stroke:none"
                 d="m 0,0 c 0,-4.487 -3.097,-9.375 -10,-9.375 -6.904,0 -10,4.888 -10,9.375 0,4.487 3.096,5.625 10,5.625 C -3.097,5.625 0,4.487 0,0" />
            </g>
            <g
               transform="translate(16,12.4004)"
               id="g304">
              <path
                 id="path306"
                 style="fill:#662113;fill-opacity:1;fill-rule:nonzero;stroke:none"
                 d="M 0,0 C 0,-1.857 -0.34,-2.4 -1.5,-2.4 -2.66,-2.4 -3,-1.857 -3,0 -3,1.856 -2.66,2.399 -1.5,2.399 -0.34,2.399 0,1.856 0,0" />
            </g>
            <g
               transform="translate(25,12.4004)"
               id="g308">
              <path
                 id="path310"
                 style="fill:#662113;fill-opacity:1;fill-rule:nonzero;stroke:none"
                 d="M 0,0 C 0,-1.857 -0.34,-2.4 -1.5,-2.4 -2.66,-2.4 -3,-1.857 -3,0 -3,1.856 -2.66,2.399 -1.5,2.399 -0.34,2.399 0,1.856 0,0" />
            </g>
            <g
               transform="translate(10,20)"
               id="g312">
              <path
                 id="path314"
                 style="fill:#292f33;fill-opacity:1;fill-rule:nonzero;stroke:none"
                 d="m 0,0 c 0,-1.104 -0.896,-2 -2,-2 -1.104,0 -2,0.896 -2,2 0,1.104 0.896,2 2,2 1.104,0 2,-0.896 2,-2" />
            </g>
            <g
               transform="translate(32,20)"
               id="g316">
              <path
                 id="path318"
                 style="fill:#292f33;fill-opacity:1;fill-rule:nonzero;stroke:none"
                 d="m 0,0 c 0,-1.104 -0.896,-2 -2,-2 -1.104,0 -2,0.896 -2,2 0,1.104 0.896,2 2,2 1.104,0 2,-0.896 2,-2" />
            </g>
          </g>
        </g>
      </g>
    </g>
    <g
       transform="matrix(-0.44052427,0.54400217,-0.54400217,-0.44052427,157.49514,142.89373)"
       id="g320">
      <g
         transform="matrix(1.25,0,0,-1.25,0,45)"
         id="g322">
        <g
           id="g324">
          <g
             clip-path="url(#clipPath16)"
             id="g326">
            <g
               transform="translate(27.8652,19.2485)"
               id="g328">
              <path
                 id="path330"
                 style="fill:#ccd6dd;fill-opacity:1;fill-rule:nonzero;stroke:none"
                 d="m 0,0 c 0,6.242 -4.411,9.988 -9.927,9.988 -5.516,0 -9.836,-3.746 -9.836,-9.988 0,-3.48 -0.102,-6.485 3.898,-7.89 l 0,-2.722 c 0,-1.034 0.966,-1.872 2,-1.872 1.035,0 2,0.838 2,1.872 l 0,1.97 0,-0.044 0,-1.926 c 0,-1.034 0.965,-1.872 1.999,-1.872 1.036,0 2.001,0.838 2.001,1.872 l 0,1.926 0,0.044 0,-1.97 c 0,-1.034 0.966,-1.872 2,-1.872 1.034,0 2,0.838 2,1.872 l 0,2.722 C 0.135,-6.485 0,-3.48 0,0"
                 inkscape:connector-curvature="0" />
            </g>
            <g
               transform="translate(16.75,20.4971)"
               id="g332">
              <path
                 id="path334"
                 style="fill:#292f33;fill-opacity:1;fill-rule:nonzero;stroke:none"
                 d="m 0,0 c 0,-1.724 0,-3.121 -3.121,-3.121 -3.121,0 -3.121,1.397 -3.121,3.121 0,1.724 1.397,3.121 3.121,3.121 C -1.398,3.121 0,1.724 0,0"
                 inkscape:connector-curvature="0" />
            </g>
            <g
               transform="translate(25.4883,20.4971)"
               id="g336">
              <path
                 id="path338"
                 style="fill:#292f33;fill-opacity:1;fill-rule:nonzero;stroke:none"
                 d="m 0,0 c 0,-1.724 0,-3.121 -3.121,-3.121 -3.12,0 -3.12,1.397 -3.12,3.121 0,1.724 1.396,3.121 3.12,3.121 C -1.396,3.121 0,1.724 0,0"
                 inkscape:connector-curvature="0" />
            </g>
            <g
               transform="translate(19.1865,14.8408)"
               id="g340">
              <path
                 id="path342"
                 style="fill:#292f33;fill-opacity:1;fill-rule:nonzero;stroke:none"
                 d="M 0,0 C -0.157,0.382 -0.626,0.662 -1.189,0.662 -1.75,0.662 -2.22,0.382 -2.376,0 c -0.395,-0.11 -0.685,-0.469 -0.685,-0.898 0,-0.517 0.419,-0.936 0.936,-0.936 0.409,0 0.753,0.263 0.88,0.628 0.019,0 0.037,-0.004 0.056,-0.004 0.02,0 0.038,0.004 0.057,0.004 0.128,-0.365 0.472,-0.628 0.88,-0.628 0.517,0 0.937,0.419 0.937,0.936 C 0.685,-0.469 0.394,-0.111 0,0"
                 inkscape:connector-curvature="0" />
            </g>
            <g
               transform="translate(10.9995,9)"
               id="g344">
              <path
                 id="path346"
                 style="fill:#aab8c2;fill-opacity:1;fill-rule:nonzero;stroke:none"
                 d="M 0,0 C 0,0.367 0.075,0.713 0.196,1.038 -0.789,1.485 -1.635,2.12 -2.307,3.008 -3.414,2.04 -4.47,1.133 -5.434,0.313 -6.015,0.74 -6.724,1 -7.499,1 c -1.934,0 -3.5,-1.566 -3.5,-3.5 0,-1.778 1.329,-3.229 3.045,-3.454 C -7.729,-7.671 -6.277,-9 -4.499,-9 c 1.933,0 3.5,1.566 3.5,3.5 0,0.775 -0.261,1.485 -0.687,2.065 0.6,0.706 1.246,1.46 1.931,2.25 C 0.088,-0.821 0,-0.421 0,0"
                 inkscape:connector-curvature="0" />
            </g>
            <g
               transform="translate(27.8715,24.4822)"
               id="g348">
              <path
                 id="path350"
                 style="fill:#aab8c2;fill-opacity:1;fill-rule:nonzero;stroke:none"
                 d="m 0,0 c 0.884,0.769 1.729,1.495 2.515,2.162 0.57,-0.403 1.262,-0.644 2.014,-0.644 1.933,0 3.5,1.567 3.5,3.5 0,1.743 -1.277,3.177 -2.945,3.444 -0.221,1.721 -1.674,3.056 -3.456,3.056 -1.933,0 -3.5,-1.567 -3.5,-3.5 0,-0.775 0.261,-1.485 0.687,-2.065 C -1.779,5.253 -2.418,4.508 -3.096,3.726 -1.795,2.855 -0.735,1.631 0,0"
                 inkscape:connector-curvature="0" />
            </g>
            <g
               transform="translate(3.5,26)"
               id="g352">
              <path
                 id="path354"
                 style="fill:#aab8c2;fill-opacity:1;fill-rule:nonzero;stroke:none"
                 d="M 0,0 C 0.775,0 1.485,0.26 2.065,0.687 2.863,0.008 3.726,-0.732 4.628,-1.518 5.363,0.113 6.424,1.337 7.725,2.208 7.046,2.99 6.408,3.736 5.813,4.435 6.24,5.015 6.5,5.725 6.5,6.5 6.5,8.433 4.933,10 3,10 1.222,10 -0.229,8.67 -0.454,6.954 -2.17,6.729 -3.5,5.277 -3.5,3.5 -3.5,1.567 -1.933,0 0,0"
                 inkscape:connector-curvature="0" />
            </g>
            <g
               transform="translate(32.4004,10)"
               id="g356">
              <path
                 id="path358"
                 style="fill:#aab8c2;fill-opacity:1;fill-rule:nonzero;stroke:none"
                 d="M 0,0 C -0.752,0 -1.444,-0.242 -2.014,-0.645 -2.966,0.164 -4.004,1.056 -5.093,2.009 -5.765,1.12 -6.612,0.485 -7.596,0.038 -7.476,-0.287 -7.4,-0.633 -7.4,-1 c 0,-0.421 -0.089,-0.821 -0.245,-1.185 0.685,-0.79 1.331,-1.544 1.931,-2.25 C -6.14,-5.015 -6.4,-5.725 -6.4,-6.5 c 0,-1.934 1.566,-3.5 3.5,-3.5 1.781,0 3.235,1.334 3.455,3.056 C 2.223,-6.677 3.5,-5.244 3.5,-3.5 3.5,-1.566 1.934,0 0,0"
                 inkscape:connector-curvature="0" />
            </g>
          </g>
        </g>
      </g>
    </g>
    <g
       transform="matrix(0.37917401,-0.4211154,0.4211154,0.37917401,109.52883,84.443547)"
       id="g360">
      <g
         transform="matrix(1.25,0,0,-1.25,0,47.5)"
         id="g362">
        <g
           id="g364">
          <g
             clip-path="url(#clipPath16)"
             id="g366">
            <g
               transform="translate(36,18)"
               id="g368">
              <path
                 id="path370"
                 style="fill:#f4900c;fill-opacity:1;fill-rule:nonzero;stroke:none"
                 d="M 0,0 C 0,2.063 -0.367,4.039 -1.04,5.868 -1.5,0.479 -4.373,-2.289 -7.375,-1 c -2.813,1.208 -0.917,5.917 -0.777,8.164 0.236,3.809 -0.012,8.169 -6.931,11.794 2.875,-5.5 0.333,-8.916 -2.334,-9.125 -2.958,-0.23 -5.666,2.542 -4.666,7.042 -3.238,-2.386 -3.333,-6.402 -2.334,-9 C -23.375,5.167 -24.458,2.917 -27,2.667 -29.839,2.387 -31.417,5.708 -29.962,11 -32.48,8.035 -34,4.195 -34,0 c 0,-9.389 7.611,-17 17,-17 9.389,0 17,7.611 17,17"
                 inkscape:connector-curvature="0" />
            </g>
          </g>
        </g>
        <g
           id="g372">
          <g
             clip-path="url(#clipPath28)"
             id="g26">
            <g
               transform="translate(31,7)"
               id="g375">
              <path
                 id="path377"
                 style="fill:#ffcc4d;fill-opacity:1;fill-rule:nonzero;stroke:none"
                 d="m 0,0 c 0,2.187 -0.584,4.236 -1.605,6.001 0.147,-3.084 -2.562,-4.293 -4.02,-3.709 -2.105,0.843 -1.541,2.291 -2.083,5.291 -0.542,3 -2.625,5.084 -5.709,6 2.25,-6.333 -1.247,-8.667 -3.08,-9.084 C -18.369,4.073 -20.25,4.5 -20.465,8.506 -22.648,6.332 -24,3.324 -24,0 c 0,-6.627 5.373,-12 12,-12 6.627,0 12,5.373 12,12"
                 inkscape:connector-curvature="0" />
            </g>
          </g>
        </g>
      </g>
    </g>
    <g
       transform="matrix(-0.52751585,-0.50941614,0.50941614,-0.52751585,113.13874,141.71923)"
       id="g379">
      <g
         transform="matrix(1.25,0,0,-1.25,0,47.5)"
         id="g381">
        <g
           id="g383">
          <g
             clip-path="url(#clipPath16)"
             id="g385">
            <g
               transform="translate(3.9995,17.5)"
               id="g387">
              <path
                 id="path389"
                 style="fill:#f4900c;fill-opacity:1;fill-rule:nonzero;stroke:none"
                 d="M 0,0 C 0,9.112 7.387,16.5 16.5,16.5 25.613,16.5 33,9.112 33,0 33,-9.113 25.613,-16.5 16.5,-16.5 7.387,-16.5 0,-9.113 0,0"
                 inkscape:connector-curvature="0" />
            </g>
            <g
               transform="translate(12.4136,29.4146)"
               id="g391">
              <path
                 id="path393"
                 style="fill:#662113;fill-opacity:1;fill-rule:nonzero;stroke:none"
                 d="m 0,0 c -0.267,0.267 -0.797,0.197 -1.355,-0.12 -3.3,2.732 -8.653,3.652 -8.895,3.692 -0.546,0.09 -1.059,-0.277 -1.15,-0.821 -0.091,-0.544 0.276,-1.06 0.821,-1.151 0.053,-0.01 4.933,-0.854 7.821,-3.16 -0.275,-0.525 -0.324,-1.015 -0.07,-1.268 0.39,-0.391 1.34,-0.074 2.121,0.707 C 0.074,-1.34 0.391,-0.39 0,0"
                 inkscape:connector-curvature="0" />
            </g>
            <g
               transform="translate(22,36.0005)"
               id="g395">
              <path
                 id="path397"
                 style="fill:#5c913b;fill-opacity:1;fill-rule:nonzero;stroke:none"
                 d="M 0,0 C 0,0 -3.106,-4.318 -7.021,-5.273 -10,-6 -13.959,-6.07 -14.354,-5.151 c -0.394,0.919 1.572,3.937 4.969,5.393 C -5.988,1.698 0,0 0,0"
                 inkscape:connector-curvature="0" />
            </g>
          </g>
        </g>
      </g>
    </g>
    <g
       transform="matrix(-0.84588727,0.39444371,-0.39444371,-0.84588727,102.12834,132.34794)"
       id="g399">
      <g
         transform="matrix(1.25,0,0,-1.25,0,47.5)"
         id="g401">
        <g
           id="g403">
          <g
             clip-path="url(#clipPath16)"
             id="g405">
            <g
               transform="translate(20,16.7451)"
               id="g407">
              <path
                 id="path409"
                 style="fill:#8899a6;fill-opacity:1;fill-rule:nonzero;stroke:none"
                 d="m 0,0 c 0,0 10.042,2.213 10.042,16.005 0,1.481 -1.167,2.25 -3.416,2.25 l -7.124,0 -1.125,0 -1.125,0 -7.123,0 c -1.125,0 -3.329,0.262 -3.329,-2.125 C -13.2,2.422 -3,0 -3,0 l 0,-10.123 c 0,0 -4.584,-2.34 -5.498,-2.883 -0.984,-0.562 -0.33,-1.462 0.063,-1.617 0.657,-0.258 2.254,-1.102 6.781,-1.102 4.64,0 6.202,0.914 6.764,1.102 0.217,0.072 1.347,0.932 0.011,1.723 C 2.743,-11.492 0,-10.123 0,-10.123 L 0,0 Z"
                 inkscape:connector-curvature="0" />
            </g>
            <g
               transform="translate(30,33.5576)"
               id="g411">
              <path
                 id="path413"
                 style="fill:#ccd6dd;fill-opacity:1;fill-rule:nonzero;stroke:none"
                 d="m 0,0 c 0,-1.621 -3.547,-2.935 -11.623,-2.935 -8.076,0 -11.623,1.314 -11.623,2.935 0,1.622 3.547,2.935 11.623,2.935 C -3.547,2.935 0,1.622 0,0"
                 inkscape:connector-curvature="0" />
            </g>
            <g
               transform="translate(8.4585,33.4165)"
               id="g415">
              <path
                 id="path417"
                 style="fill:#ccd6dd;fill-opacity:1;fill-rule:nonzero;stroke:none"
                 d="m 0,0 c 2.042,-9.5 5.458,-12.792 8.699,-13.835 1.11,-0.358 2.026,-0.428 2.801,-0.123 3.5,1.375 7.542,5.666 8.167,13.583 C 19.828,1.662 0,0 0,0"
                 inkscape:connector-curvature="0" />
            </g>
            <g
               transform="translate(10,27.5)"
               id="g419">
              <path
                 id="path421"
                 style="fill:#a0041e;fill-opacity:1;fill-rule:nonzero;stroke:none"
                 d="M 0,0 C 0,-3.5 3.333,-8.5 8.333,-8.5 13.334,-8.5 17,-3.042 17,-0.042 11,-0.042 0,0 0,0"
                 inkscape:connector-curvature="0" />
            </g>
            <g
               transform="translate(27,27.5)"
               id="g423">
              <path
                 id="path425"
                 style="fill:#dd2e44;fill-opacity:1;fill-rule:nonzero;stroke:none"
                 d="m 0,0 c 0,-0.829 -3.806,-1.5 -8.5,-1.5 -4.694,0 -8.5,0.671 -8.5,1.5 0,0.829 3.806,1.5 8.5,1.5 C -3.806,1.5 0,0.829 0,0"
                 inkscape:connector-curvature="0" />
            </g>
            <g
               transform="translate(18.168,30.3408)"
               id="g427">
              <path
                 id="path429"
                 style="fill:#ffffff;fill-opacity:1;fill-rule:nonzero;stroke:none"
                 d="m 0,0 c -5.03,0 -8.783,1.11 -9.801,1.587 -0.5,0.235 -0.715,0.83 -0.481,1.33 0.234,0.501 0.831,0.716 1.33,0.481 C -7.713,2.816 0.502,0.504 9.644,3.525 10.167,3.699 10.732,3.414 10.906,2.89 11.08,2.365 10.795,1.799 10.271,1.626 6.594,0.411 3.061,0 0,0"
                 inkscape:connector-curvature="0" />
            </g>
          </g>
        </g>
      </g>
    </g>
  </g>
</svg>
