<?xml version="1.0" encoding="UTF-8" standalone="no"?>
<svg
   xmlns:dc="http://purl.org/dc/elements/1.1/"
   xmlns:cc="http://creativecommons.org/ns#"
   xmlns:rdf="http://www.w3.org/1999/02/22-rdf-syntax-ns#"
   xmlns:svg="http://www.w3.org/2000/svg"
   xmlns="http://www.w3.org/2000/svg"
   xmlns:sodipodi="http://sodipodi.sourceforge.net/DTD/sodipodi-0.dtd"
   xmlns:inkscape="http://www.inkscape.org/namespaces/inkscape"
   version="1.1"
   id="svg2"
   viewBox="0 0 200 200"
   height="200px"
   width="200px"
   inkscape:version="0.91 r13725"
   sodipodi:docname="112.svg">
  <metadata
     id="metadata559">
    <rdf:RDF>
      <cc:Work
         rdf:about="">
        <dc:format>image/svg+xml</dc:format>
        <dc:type
           rdf:resource="http://purl.org/dc/dcmitype/StillImage" />
      </cc:Work>
    </rdf:RDF>
  </metadata>
  <sodipodi:namedview
     pagecolor="#ffffff"
     bordercolor="#666666"
     borderopacity="1"
     objecttolerance="10"
     gridtolerance="10"
     guidetolerance="10"
     inkscape:pageopacity="0"
     inkscape:pageshadow="2"
     inkscape:window-width="1920"
     inkscape:window-height="1060"
     id="namedview557"
     showgrid="false"
     inkscape:zoom="4.32"
     inkscape:cx="100.46296"
     inkscape:cy="81.481481"
     inkscape:window-x="0"
     inkscape:window-y="0"
     inkscape:window-maximized="1"
     inkscape:current-layer="g33" />
  
    <defs id="defs6">

        <clipPath
           id="clipPath28"
           clipPathUnits="userSpaceOnUse">
          <path
             id="path30"
             d="M 4,36 C 0,36 0,32 0,32 L 0,32 0,4 C 0,0 4,0 4,0 l 0,0 28,0 c 4,0 4,4 4,4 l 0,0 0,28 c 0,4 -4,4 -4,4 l 0,0 -28,0 z" />
        </clipPath>


        <clipPath clipPathUnits="userSpaceOnUse" id="clipPath16-rugby">
            <path d="M 0,38 38,38 38,0 0,0 0,38 Z" id="path18"/>
        </clipPath>
        <clipPath clipPathUnits="userSpaceOnUse" id="clipPath28-rugby">
            <path d="M 9.254,28.746 C 2.09,21.582 -0.927,9.561 3.929,3.929 l 0,0 C 9.561,-0.927 21.582,2.09 28.746,9.254 l 0,0 c 7.164,7.164 11.229,17.088 5.324,24.816 l 0,0 c -1.886,1.627 -4.489,2.371 -7.387,2.37 l 0,0 c -5.752,0 -12.665,-2.93 -17.429,-7.694" id="path30"/>
        </clipPath>

        <clipPath clipPathUnits="userSpaceOnUse" id="clipPath16-carrot">
            <path d="M 0,36 36,36 36,0 0,0 0,36 Z" id="path18"/>
        </clipPath>
        <clipPath clipPathUnits="userSpaceOnUse" id="clipPath32-carrot">
            <path d="M 11.815,23.013 C 4.2,15.397 -1.265,2.86 0.502,1.093 l 0,0 c 1.768,-1.768 14.305,3.698 21.92,11.313 l 0,0 c 7.616,7.615 7.562,11.53 4.243,14.85 l 0,0 c -1.328,1.328 -2.752,2.133 -4.47,2.133 l 0,0 c -2.575,0 -5.812,-1.809 -10.38,-6.376" id="path34"/>
        </clipPath>

        <clipPath clipPathUnits="userSpaceOnUse" id="clipPath32-hat">
            <path d="m 5,33.666 c 0,-0.034 0.018,-0.067 0.022,-0.101 l 0,0 C 5.008,33.455 5,33.335 5,33.2 l 0,0 L 6.802,9.616 C 3.299,8.705 1,7.424 1,6 L 1,6 C 1,3.238 9.611,1 19,1 l 0,0 c 9.389,0 18,2.238 18,5 l 0,0 c 0,1.424 -2.298,2.705 -5.801,3.616 l 0,0 L 33,33.184 c 0,0.135 -0.008,0.263 -0.021,0.373 l 0,0 C 32.982,33.591 33,33.632 33,33.666 l 0,0 c 0,1.805 -6.268,3.267 -14,3.267 l 0,0 c -7.732,0 -14,-1.462 -14,-3.267" id="path34"/>
        </clipPath>


        <clipPath clipPathUnits="userSpaceOnUse" id="clipPath48-soccer">
            <path d="M 1,19 C 1,9.059 9.059,1 19,1 l 0,0 c 9.941,0 18,8.059 18,18 l 0,0 c 0,9.941 -8.059,18 -18,18 l 0,0 C 9.059,37 1,28.941 1,19" id="path50"/>
        </clipPath>

        <clipPath clipPathUnits="userSpaceOnUse" id="clipPath28-baguette">
            <path d="M 24.052,31.33 5.126,12.406 C 1.342,8.62 1.288,4.133 2.856,2.564 l 0,0 C 4.424,0.997 8.912,1.049 12.697,4.835 l 0,0 18.925,18.924 c 3.784,3.785 3.837,8.273 2.269,9.841 l 0,0 c -0.605,0.606 -1.647,0.969 -2.915,0.969 l 0,0 c -2.014,0 -4.602,-0.917 -6.924,-3.239" id="path30"/>
        </clipPath>
    </defs>

  <g
     id="layer1">
    <circle
       style="opacity:1;fill:white;stroke:black;stroke-width:1;stroke-miterlimit:4;stroke-dasharray:none;stroke-opacity:0.1"
       id="path4039-0-9"
       cx="100px"
       cy="100px"
       r="90px" />
    <g
       transform="matrix(0.29863996,-0.77798369,0.77798369,0.29863996,129.12077,73.081891)"
       id="g8">
      <g
         transform="matrix(1.25,0,0,-1.25,0,45)"
         id="g10">
        <g
           id="g12">
          <g
             clip-path="url(#clipPath16)"
             id="g14">
            <g
               transform="translate(35,30.0957)"
               id="g20">
              <path
                 id="path22"
                 style="fill:#3e721d;fill-opacity:1;fill-rule:nonzero;stroke:none"
                 d="m 0,0 c 2.394,-6.042 -1.438,-20.543 -10.5,-26.5 -9.06,-5.957 -20.395,-3.573 -23.097,6.443 -1.669,6.186 2.79,10.722 11.851,16.678 C -12.686,2.578 -2.36,5.958 0,0"
                 inkscape:connector-curvature="0" />
            </g>
            <g
               transform="translate(20.6055,9.9697)"
               id="g24">
              <path
                 id="path26"
                 style="fill:#3e721d;fill-opacity:1;fill-rule:nonzero;stroke:none"
                 d="m 0,0 c -6.523,-4.546 -15.287,-5.15 -18.469,-0.582 -3.183,4.566 0.418,12.578 6.943,17.124 6.522,4.545 21.951,9.796 25.133,5.229 C 16.79,17.203 6.522,4.546 0,0"
                 inkscape:connector-curvature="0" />
            </g>
            <g
               transform="translate(19.8154,9.4219)"
               id="g28">
              <path
                 id="path35"
                 style="fill:#a6d388;fill-opacity:1;fill-rule:nonzero;stroke:none"
                 d="m 0,0 c -5.757,-4.013 -13.482,-3.097 -16.29,0.934 -2.808,4.031 0.474,11.17 6.231,15.181 5.756,4.011 20.258,9.264 23.069,5.234 C 15.816,17.319 8.185,5.174 0,0"
                 inkscape:connector-curvature="0" />
            </g>
            <g
               transform="translate(18.1689,12.0742)"
               id="g32">
              <path
                 id="path38"
                 style="fill:#c6e5b3;fill-opacity:1;fill-rule:nonzero;stroke:none"
                 d="m 0,0 c -4.506,-3.14 -9.939,-3.127 -12.136,0.027 -2.2,3.155 -0.33,8.255 4.176,11.396 4.506,3.141 15.835,7.238 18.034,4.084 C 12.275,12.352 4.508,3.14 0,0"
                 inkscape:connector-curvature="0" />
            </g>
            <g
               transform="translate(11.1621,23.5122)"
               id="g36">
              <path
                 id="path41"
                 style="fill:#662113;fill-opacity:1;fill-rule:nonzero;stroke:none"
                 d="M 0,0 C 3.48,2.332 7.382,1.495 9.798,-0.995 11.23,-2.472 8.918,-6.377 5.439,-8.709 1.961,-11.039 -2.331,-10.471 -2.801,-9.44 -4.24,-6.283 -3.478,-2.332 0,0"
                 inkscape:connector-curvature="0" />
            </g>
            <g
               transform="translate(13.0713,22.894)"
               id="g40">
              <path
                 id="path42"
                 style="fill:#7c3225;fill-opacity:1;fill-rule:nonzero;stroke:none"
                 d="M 0,0 C 1.51,1.013 3.414,0.819 4.254,-0.431 5.091,-1.682 4.548,-3.518 3.037,-4.531 1.527,-5.54 -0.378,-5.348 -1.216,-4.098 -2.056,-2.846 -1.51,-1.012 0,0"
                 inkscape:connector-curvature="0" />
            </g>
          </g>
        </g>
      </g>
    </g>
    <g
       transform="matrix(-0.79890363,0.04186876,-0.04186876,-0.79890363,134.67189,145.77774)"
       id="g26">
      <g
         transform="matrix(1.25,0,0,-1.25,0,45)"
         id="g29">
        <g
           id="g31">
          <g
             clip-path="url(#clipPath16)"
             id="g33">
            <g
               transform="translate(23.1064,30.0288)"
               id="g35">
              <path
                 id="path37"
                 style="fill:#dd2e44;fill-opacity:1;fill-rule:nonzero;stroke:none"
                 d="m 0,0 c -5.491,5.491 -14.722,6.492 -19.799,1.414 -5.077,-5.077 -4.077,-14.308 1.414,-19.799 3.554,-3.554 7.785,-4.324 11.706,-3.058 l -0.014,-0.013 c 0,0 0.053,0.022 0.13,0.052 0.263,0.088 0.526,0.179 0.787,0.284 0.698,0.239 1.734,0.558 2.942,0.806 1.848,0.38 3.541,-1.606 4.955,-3.021 1.414,-1.414 4.242,-5.657 4.949,-6.364 0.707,-0.707 1.414,0 2.122,0.707 l 0.708,0.707 0.707,0.707 c 0.707,0.708 1.414,1.415 0.707,2.122 -0.707,0.707 -4.951,3.536 -6.365,4.95 -1.414,1.414 -3.4,3.107 -3.02,4.955 0.198,0.965 0.441,1.815 0.653,2.481 C 4.556,-8.849 4.118,-4.119 0,0"
                 inkscape:connector-curvature="0" />
            </g>
            <g
               transform="translate(15.564,8.3447)"
               id="g39">
              <path
                 id="path52"
                 style="fill:#d99e82;fill-opacity:1;fill-rule:nonzero;stroke:none"
                 d="M 0,0 C 0.289,0.07 0.578,0.148 0.864,0.241 L 0.849,0.229 c 0,0 0.053,0.021 0.13,0.051 0.264,0.088 0.527,0.179 0.788,0.284 0.697,0.239 1.734,0.558 2.942,0.806 1.847,0.38 3.541,-1.606 4.955,-3.02 1.414,-1.414 4.242,-5.658 4.949,-6.365 0.707,-0.707 1.414,0 2.122,0.707 l 0.707,0.707 0.707,0.708 c 0.707,0.707 1.414,1.414 0.707,2.122 -0.707,0.707 -4.95,3.535 -6.364,4.949 -1.414,1.414 -3.401,3.107 -3.021,4.955 0.198,0.965 0.442,1.815 0.654,2.481 0.357,0.764 0.632,1.543 0.824,2.334 L 0,0 Z"
                 inkscape:connector-curvature="0" />
            </g>
            <g
               transform="translate(33.7129,2.4512)"
               id="g43">
              <path
                 id="path45"
                 style="fill:#ffcc4d;fill-opacity:1;fill-rule:nonzero;stroke:none"
                 d="m 0,0 -1.414,-1.414 -12.022,12.021 1.415,1.414 L 0,0 Z"
                 inkscape:connector-curvature="0" />
            </g>
          </g>
        </g>
      </g>
    </g>
    <g
       transform="matrix(0.47090538,-0.25038483,0.25038483,0.47090538,26.898898,119.5386)"
       id="g51">
      <g
         transform="matrix(1.25,0,0,-1.25,0,45)"
         id="g53">
        <g
           id="g55">
          <g
             clip-path="url(#clipPath16)"
             id="g57">
            <g
               transform="translate(33.874,14.2793)"
               id="g59">
              <path
                 id="path61"
                 style="fill:#f4900c;fill-opacity:1;fill-rule:nonzero;stroke:none"
                 d="m 0,0 -6.909,4.226 -6.907,4.228 c -1.526,0.934 -4.001,0.934 -5.527,0 0,0 -5.527,-3.382 -6.908,-4.228 -1.382,-0.845 -0.691,-1.268 -2.072,-2.114 -1.382,-0.844 -2.072,-0.422 -3.454,-1.267 -1.383,-0.845 -1.526,-2.447 0,-3.382 l 6.907,-4.228 6.909,-4.227 c 1.525,-0.935 4.145,-0.848 5.524,0 1.383,0.845 0.693,1.266 2.074,2.114 1.381,0.844 2.071,0.422 3.454,1.266 C -5.526,-6.765 0,-3.385 0,-3.385 1.524,-2.45 1.525,-0.935 0,0"
                 inkscape:connector-curvature="0" />
            </g>
            <g
               transform="translate(35,14.4844)"
               id="g63">
              <path
                 id="path65"
                 style="fill:#f4900c;fill-opacity:1;fill-rule:nonzero;stroke:none"
                 d="M 0,0 -34,0.516 -34,-1.109 0.018,-1.901 0,0 Z"
                 inkscape:connector-curvature="0" />
            </g>
            <g
               transform="translate(35,15.4844)"
               id="g67">
              <path
                 id="path69"
                 style="fill:#f4900c;fill-opacity:1;fill-rule:nonzero;stroke:none"
                 d="M 0,0 -34,0.516 -34,-1.109 0.018,-1.901 0,0 Z"
                 inkscape:connector-curvature="0" />
            </g>
            <g
               transform="translate(33.873,17.2793)"
               id="g71">
              <path
                 id="path73"
                 style="fill:#ffac33;fill-opacity:1;fill-rule:nonzero;stroke:none"
                 d="m 0,0 -6.908,4.226 -6.907,4.228 c -1.526,0.934 -4.001,0.934 -5.527,0 0,0 -5.527,-3.382 -6.908,-4.228 -1.381,-0.845 -0.691,-1.268 -2.072,-2.114 -1.382,-0.844 -2.072,-0.422 -3.454,-1.267 -1.383,-0.845 -1.526,-2.447 0,-3.382 l 6.907,-4.228 6.909,-4.227 c 1.526,-0.935 4.145,-0.848 5.524,0 1.383,0.845 0.693,1.266 2.074,2.114 1.381,0.844 2.071,0.422 3.454,1.266 C -5.525,-6.765 0,-3.385 0,-3.385 1.525,-2.45 1.526,-0.935 0,0"
                 inkscape:connector-curvature="0" />
            </g>
            <g
               transform="translate(32.8496,16.4316)"
               id="g75">
              <path
                 id="path77"
                 style="fill:#ffd983;fill-opacity:1;fill-rule:nonzero;stroke:none"
                 d="m 0,0 -7.072,4.229 -7.071,4.227 c 0,0 -1.506,0.791 -2.828,0 0,0 -5.766,-3.447 -6.963,-4.162 -1.196,-0.716 -1.033,-1.464 -2.23,-2.179 -1.196,-0.715 -2.338,-0.553 -3.535,-1.267 -1.414,-0.847 0,-1.694 0,-1.694 l 7.071,-4.227 7.071,-4.228 c 0,0 1.414,-0.844 2.828,0 1.198,0.717 0.926,1.398 2.122,2.115 1.197,0.716 2.447,0.619 3.644,1.334 1.197,0.713 6.963,4.163 6.963,4.163 0,0 1.321,0.9 0,1.689"
                 inkscape:connector-curvature="0" />
            </g>
            <g
               transform="translate(7.9937,10.4336)"
               id="g79">
              <path
                 id="path81"
                 style="fill:#77b255;fill-opacity:1;fill-rule:nonzero;stroke:none"
                 d="M 0,0 C -0.925,-0.786 0.997,-3.518 3.249,-2.063 3.81,-3.172 7.205,-5.906 9.548,-2.165 10.033,-3.043 15.32,-4.413 16.423,0.079 16.601,0.68 10.395,1.964 7.063,1.944 5.224,1.934 1.745,1.484 0,0"
                 inkscape:connector-curvature="0" />
            </g>
            <g
               transform="translate(3.1626,18.2012)"
               id="g44">
              <path
                 id="path46"
                 style="fill:#77b255;fill-opacity:1;fill-rule:nonzero;stroke:none"
                 d="M 0,0 C -0.784,-0.737 -2.265,-2.22 -0.688,-4.439 0,-5.602 1.428,-6.358 1.618,-5.999 c 0.445,0.846 1.334,1.586 2.669,1.507 -0.017,0.301 -0.649,-2.733 1.577,-3.541 1.092,-0.396 2.265,0.238 3.6,1.638 2.137,2.243 7.582,1.196 9.11,0.609 1.547,-0.596 2.903,-0.985 2.498,-2.576 -0.089,-0.35 0.722,-0.654 1.548,-0.364 1.388,0.487 3.395,1.694 3.75,3.018 0.991,0.173 1.734,-0.102 2.305,-0.858 0.284,-0.373 1.254,-0.463 1.669,0.025 0.733,0.861 1.934,3.505 0.233,5.774 C 28.635,1.823 25.682,3.197 19.05,3.752 12.417,4.306 3.883,3.645 0,0"
                 inkscape:connector-curvature="0" />
            </g>
            <g
               transform="translate(31,10.959)"
               id="g48">
              <path
                 id="path78"
                 style="fill:#ffcc4d;fill-opacity:1;fill-rule:nonzero;stroke:none"
                 d="m 0,0 c 0,-0.529 -0.895,-0.959 -2,-0.959 l -22,0 c -1.104,0 -2,0.43 -2,0.959 l 0,10.551 c 0,0.53 0.896,0.49 2,0.49 l 22,0 c 1.105,0 2,0.04 2,-0.49 L 0,0 Z"
                 inkscape:connector-curvature="0" />
            </g>
            <g
               transform="translate(33.3105,16.0127)"
               id="g52">
              <path
                 id="path54"
                 style="fill:#be1931;fill-opacity:1;fill-rule:nonzero;stroke:none"
                 d="m 0,0 c 0,-2.768 -4.586,-5.013 -10.242,-5.013 -5.658,0 -10.243,2.245 -10.243,5.013 0,2.769 4.585,5.013 10.243,5.013 C -4.586,5.013 0,2.769 0,0"
                 inkscape:connector-curvature="0" />
            </g>
            <g
               transform="translate(33.874,20.2793)"
               id="g56">
              <path
                 id="path58"
                 style="fill:#f4900c;fill-opacity:1;fill-rule:nonzero;stroke:none"
                 d="m 0,0 -6.909,4.226 -6.907,4.228 c -1.526,0.934 -4.001,0.934 -5.527,0 0,0 -5.527,-3.382 -6.908,-4.228 -1.382,-0.845 -0.691,-1.268 -2.072,-2.114 -1.382,-0.844 -2.072,-0.422 -3.454,-1.267 -1.383,-0.845 -1.526,-2.447 0,-3.382 l 6.907,-4.228 6.909,-4.227 c 1.525,-0.935 4.145,-0.848 5.524,0 1.383,0.845 0.693,1.266 2.074,2.114 1.381,0.844 2.071,0.422 3.454,1.266 C -5.526,-6.765 0,-3.385 0,-3.385 1.524,-2.45 1.525,-0.935 0,0"
                 inkscape:connector-curvature="0" />
            </g>
            <g
               transform="translate(35,20.4844)"
               id="g60">
              <path
                 id="path62"
                 style="fill:#f4900c;fill-opacity:1;fill-rule:nonzero;stroke:none"
                 d="M 0,0 -34,0.516 -34,-1.109 0.018,-1.901 0,0 Z"
                 inkscape:connector-curvature="0" />
            </g>
            <g
               transform="translate(35,21.4844)"
               id="g64">
              <path
                 id="path66"
                 style="fill:#f4900c;fill-opacity:1;fill-rule:nonzero;stroke:none"
                 d="M 0,0 -34,0.516 -34,-1.109 0.018,-1.901 0,0 Z"
                 inkscape:connector-curvature="0" />
            </g>
            <g
               transform="translate(33.873,23.2793)"
               id="g68">
              <path
                 id="path70"
                 style="fill:#ffac33;fill-opacity:1;fill-rule:nonzero;stroke:none"
                 d="m 0,0 -6.908,4.226 -6.907,4.228 c -1.526,0.934 -4.001,0.934 -5.527,0 0,0 -5.527,-3.382 -6.908,-4.228 -1.381,-0.845 -0.691,-1.268 -2.072,-2.114 -1.382,-0.844 -2.072,-0.422 -3.454,-1.267 -1.383,-0.845 -1.526,-2.447 0,-3.382 l 6.907,-4.228 6.909,-4.227 c 1.526,-0.935 4.145,-0.848 5.524,0 1.383,0.845 0.693,1.266 2.074,2.114 1.381,0.844 2.071,0.422 3.454,1.266 C -5.525,-6.765 0,-3.385 0,-3.385 1.525,-2.45 1.526,-0.935 0,0"
                 inkscape:connector-curvature="0" />
            </g>
            <g
               transform="translate(32.8496,22.4316)"
               id="g72">
              <path
                 id="path74"
                 style="fill:#ffd983;fill-opacity:1;fill-rule:nonzero;stroke:none"
                 d="m 0,0 -7.072,4.229 -7.071,4.227 c 0,0 -1.506,0.791 -2.828,0 0,0 -5.766,-3.447 -6.963,-4.162 -1.196,-0.716 -1.033,-1.464 -2.23,-2.179 -1.196,-0.716 -2.338,-0.553 -3.535,-1.267 -1.414,-0.847 0,-1.694 0,-1.694 l 7.071,-4.227 7.071,-4.228 c 0,0 1.414,-0.844 2.828,0 1.198,0.717 0.926,1.398 2.122,2.115 1.197,0.716 2.447,0.619 3.644,1.334 1.197,0.713 6.963,4.163 6.963,4.163 0,0 1.321,0.9 0,1.689"
                 inkscape:connector-curvature="0" />
            </g>
          </g>
        </g>
      </g>
    </g>
    <g
       transform="matrix(0.36939689,-0.47280645,0.47280645,0.36939689,51.685657,50.548202)"
       id="g99">
      <g
         transform="matrix(1.25,0,0,-1.25,0,45)"
         id="g101">
        <g
           id="g103">
          <g
             clip-path="url(#clipPath16)"
             id="g105">
            <g
               transform="translate(36,18)"
               id="g107">
              <path
                 id="path109"
                 style="fill:#ffcc4d;fill-opacity:1;fill-rule:nonzero;stroke:none"
                 d="m 0,0 c 0,-9.941 -8.059,-18 -18,-18 -9.94,0 -18,8.059 -18,18 0,9.94 8.06,18 18,18 C -8.059,18 0,9.94 0,0"
                 inkscape:connector-curvature="0" />
            </g>
            <g
               transform="translate(30,22.5)"
               id="g111">
              <path
                 id="path113"
                 style="fill:#f5f8fa;fill-opacity:1;fill-rule:nonzero;stroke:none"
                 d="m 0,0 c 0,-3.037 -2.463,-5.5 -5.5,-5.5 -3.037,0 -5.5,2.463 -5.5,5.5 0,3.037 2.463,5.5 5.5,5.5 C -2.463,5.5 0,3.037 0,0"
                 inkscape:connector-curvature="0" />
            </g>
            <g
               transform="translate(17,22.5)"
               id="g115">
              <path
                 id="path117"
                 style="fill:#f5f8fa;fill-opacity:1;fill-rule:nonzero;stroke:none"
                 d="m 0,0 c 0,-3.037 -2.463,-5.5 -5.5,-5.5 -3.037,0 -5.5,2.463 -5.5,5.5 0,3.037 2.463,5.5 5.5,5.5 C -2.463,5.5 0,3.037 0,0"
                 inkscape:connector-curvature="0" />
            </g>
            <g
               transform="translate(14,25.5)"
               id="g119">
              <path
                 id="path121"
                 style="fill:#664500;fill-opacity:1;fill-rule:nonzero;stroke:none"
                 d="M 0,0 C 0,-1.381 -1.119,-2.5 -2.5,-2.5 -3.881,-2.5 -5,-1.381 -5,0 -5,1.38 -3.881,2.5 -2.5,2.5 -1.119,2.5 0,1.38 0,0"
                 inkscape:connector-curvature="0" />
            </g>
            <g
               transform="translate(27,25.5)"
               id="g123">
              <path
                 id="path125"
                 style="fill:#664500;fill-opacity:1;fill-rule:nonzero;stroke:none"
                 d="M 0,0 C 0,-1.381 -1.119,-2.5 -2.5,-2.5 -3.881,-2.5 -5,-1.381 -5,0 -5,1.38 -3.881,2.5 -2.5,2.5 -1.119,2.5 0,1.38 0,0"
                 inkscape:connector-curvature="0" />
            </g>
            <g
               transform="translate(23,9)"
               id="g127">
              <path
                 id="path129"
                 style="fill:#664500;fill-opacity:1;fill-rule:nonzero;stroke:none"
                 d="m 0,0 -10,0 c -0.552,0 -1,0.447 -1,1 0,0.553 0.448,1 1,1 L 0,2 C 0.553,2 1,1.553 1,1 1,0.447 0.553,0 0,0"
                 inkscape:connector-curvature="0" />
            </g>
          </g>
        </g>
      </g>
    </g>
    <g
       transform="matrix(0.63948182,0.28471565,-0.28471565,0.63948182,78.092312,140.14947)"
       id="g131">
      <g
         transform="matrix(1.25,0,0,-1.25,0,45)"
         id="g133">
        <g
           id="g135">
          <g
             clip-path="url(#clipPath16)"
             id="g137">
            <g
               transform="translate(15.2241,21.0815)"
               id="g139">
              <path
                 id="path141"
                 style="fill:#662113;fill-opacity:1;fill-rule:nonzero;stroke:none"
                 d="M 0,0 C 0.005,-0.552 -0.439,-1.003 -0.991,-1.009 -1.543,-1.014 -1.995,-0.57 -2,-0.018 l -0.035,4 C -2.04,4.534 -1.596,4.986 -1.044,4.991 -0.492,4.996 -0.041,4.552 -0.036,4 L 0,0 Z"
                 inkscape:connector-curvature="0" />
            </g>
            <g
               transform="translate(19.6387,20.6348)"
               id="g143">
              <path
                 id="path145"
                 style="fill:#662113;fill-opacity:1;fill-rule:nonzero;stroke:none"
                 d="m 0,0 c -0.129,-0.537 -0.668,-0.869 -1.205,-0.741 -0.536,0.128 -0.869,0.667 -0.741,1.204 L -1.02,4.355 C -0.893,4.892 -0.353,5.223 0.184,5.096 0.722,4.968 1.054,4.429 0.926,3.892 L 0,0 Z"
                 inkscape:connector-curvature="0" />
            </g>
            <g
               transform="translate(23.6387,19.1177)"
               id="g147">
              <path
                 id="path149"
                 style="fill:#662113;fill-opacity:1;fill-rule:nonzero;stroke:none"
                 d="m 0,0 c -0.25,-0.493 -0.852,-0.69 -1.345,-0.441 -0.491,0.249 -0.689,0.85 -0.441,1.343 l 1.804,3.57 C 0.266,4.965 0.868,5.163 1.361,4.914 1.854,4.665 2.052,4.063 1.803,3.571 L 0,0 Z"
                 inkscape:connector-curvature="0" />
            </g>
            <g
               transform="translate(4.458,28.5708)"
               id="g151">
              <path
                 id="path153"
                 style="fill:#662113;fill-opacity:1;fill-rule:nonzero;stroke:none"
                 d="M 0,0 C -4.53,-0.32 -4.775,5.511 3.801,4.738 12.377,3.965 21.765,1.337 24.019,2.949 25.808,4.228 25.435,6.557 24.984,7.027 24.534,7.496 23.852,7.072 24.197,6.345 24.541,5.617 24.136,3.667 21.936,3.47 19.736,3.273 11.535,4.822 6.36,5.55 1.076,6.294 -3.171,5.925 -4.094,2.969 -5.014,0.022 -2.15,-0.903 -0.636,-1.047 0.878,-1.191 0,0 0,0"
                 inkscape:connector-curvature="0" />
            </g>
            <g
               transform="translate(33.3779,22.7544)"
               id="g155">
              <path
                 id="path157"
                 style="fill:#c16a4f;fill-opacity:1;fill-rule:nonzero;stroke:none"
                 d="M 0,0 C 1.704,-2.632 3.319,-5.982 1.338,-11.753 L 1.24,-12.039 0.939,-13.031 c -0.152,0.003 -0.481,-0.076 -0.799,-0.153 -0.94,-0.226 -2.226,-0.535 -3.018,0.117 -0.439,0.364 -0.644,0.959 -0.608,1.771 0.072,1.618 -1.647,5.997 -4.454,7.555 -2.879,1.598 -5.606,2.481 -8.628,2.545 -2.938,0.063 -9.646,-1.385 -11.81,-0.558 -3.477,1.328 -3.561,5.188 -3,6 2.813,4.062 12.806,4.631 20.123,3.238 C -6.765,6.629 -2.541,3.928 0,0"
                 inkscape:connector-curvature="0" />
            </g>
            <g
               transform="translate(26.877,5.5781)"
               id="g159">
              <path
                 id="path161"
                 style="fill:#662113;fill-opacity:1;fill-rule:nonzero;stroke:none"
                 d="m 0,0 c 1.081,0.979 2.108,2.463 2.619,3.779 0.253,0.65 0.375,1.236 0.365,1.743 -0.005,0.256 0.033,0.49 0.112,0.695 l 10e-4,0 C 3.243,6.594 3.684,7.367 3.914,7.02 5.596,4.512 7.197,6.487 7.6,6.282 7.854,6.153 7.996,5.877 7.956,5.596 7.803,4.537 6.191,-2.668 5.628,-4.12 L 5.579,-4.238 C 5.203,-5.089 4.506,-5.578 3.8,-5.487 3.468,-5.443 2.672,-5.195 2.453,-3.826 2.389,-3.414 2.262,-3.129 2.114,-3.064 1.974,-3.002 1.619,-3.055 1.081,-3.407 0.549,-3.757 -0.062,-3.748 -0.51,-3.385 -1.062,-2.938 -1.215,-2.083 -0.895,-1.254 -0.718,-0.801 -0.416,-0.379 0,0"
                 inkscape:connector-curvature="0" />
            </g>
          </g>
        </g>
        <g
           id="g163">
          <g
             clip-path="url(#clipPath48)"
             id="g46">
            <g
               transform="translate(24.3203,18.6982)"
               id="g166">
              <path
                 id="path168"
                 style="fill:#662113;fill-opacity:1;fill-rule:nonzero;stroke:none"
                 d="M 0,0 C -1.922,2.735 -17.601,-5.1 -22.32,4.302 -18.601,2.587 -11.694,5.166 -5.778,4.635 6.088,3.57 6.429,-5.499 6.471,-6.287 5.945,-12.089 0,0 0,0"
                 inkscape:connector-curvature="0" />
            </g>
            <g
               transform="translate(23.2188,27.4307)"
               id="g170">
              <path
                 id="path172"
                 style="fill:#662113;fill-opacity:1;fill-rule:nonzero;stroke:none"
                 d="M 0,0 C 1.053,1.03 3.189,2.242 4.807,2.277 6.422,2.313 4.43,4.578 2.726,3.748 1.592,3.249 -0.414,1.211 -1.025,0.066 -1.635,-1.078 -0.891,-0.87 0,0"
                 inkscape:connector-curvature="0" />
            </g>
            <g
               transform="translate(35.6836,22.2588)"
               id="g174">
              <path
                 id="path176"
                 style="fill:#662113;fill-opacity:1;fill-rule:nonzero;stroke:none"
                 d="M 0,0 C -2.289,1.22 -5.321,3.227 -7.51,2.143 -9.698,1.059 -8.488,2.61 -7.484,3.348 -5.861,4.54 -3.437,4.097 -2.298,3.046 -1.158,1.997 0,0 0,0"
                 inkscape:connector-curvature="0" />
            </g>
            <g
               transform="translate(37.9209,14.7832)"
               id="g178">
              <path
                 id="path180"
                 style="fill:#662113;fill-opacity:1;fill-rule:nonzero;stroke:none"
                 d="M 0,0 C -1.732,1.931 -3.894,4.855 -6.321,4.586 -8.748,4.318 -7.08,5.361 -5.884,5.71 -3.951,6.274 -1.825,5.027 -1.115,3.649 -0.404,2.273 0,0 0,0"
                 inkscape:connector-curvature="0" />
            </g>
          </g>
        </g>
        <g
           id="g182">
          <g
             clip-path="url(#clipPath72)"
             id="g70">
            <g
               transform="translate(29.9102,0.2832)"
               id="g76">
              <path
                 id="path137"
                 style="fill:#292f33;fill-opacity:1;fill-rule:nonzero;stroke:none"
                 d="M 0,0 C -1.687,2.303 2.174,7.969 -3.405,1.472 -5.373,-1.341 0,0 0,0"
                 inkscape:connector-curvature="0" />
            </g>
          </g>
        </g>
        <g
           id="g80">
          <g
             clip-path="url(#clipPath84)"
             id="g82">
            <g
               transform="translate(6.0835,29.2915)"
               id="g88">
              <path
                 id="path90"
                 style="fill:#c16a4f;fill-opacity:1;fill-rule:nonzero;stroke:none"
                 d="m 0,0 c -4.542,0 -4.375,5.833 4.125,4.458 8.501,-1.375 17.679,-4.657 20.042,-3.208 1.875,1.15 1.666,3.5 1.25,4 C 25.001,5.75 24.292,5.375 24.584,4.625 24.876,3.875 24.334,1.958 22.126,1.917 19.918,1.874 11.846,3.998 6.735,5.088 1.517,6.202 -2.747,6.134 -3.875,3.25 -5,0.375 -2.208,-0.75 -0.708,-1 0.792,-1.25 0,0 0,0"
                 inkscape:connector-curvature="0" />
            </g>
            <g
               transform="translate(8,27)"
               id="g92">
              <path
                 id="path94"
                 style="fill:#292f33;fill-opacity:1;fill-rule:nonzero;stroke:none"
                 d="m 0,0 c 0,-0.552 -0.448,-1 -1,-1 -0.552,0 -1,0.448 -1,1 0,0.552 0.448,1 1,1 0.552,0 1,-0.448 1,-1"
                 inkscape:connector-curvature="0" />
            </g>
            <g
               transform="translate(16.605,19.4736)"
               id="g96">
              <path
                 id="path98"
                 style="fill:#c16a4f;fill-opacity:1;fill-rule:nonzero;stroke:none"
                 d="m 0,0 c -0.069,-0.548 -0.57,-0.936 -1.118,-0.866 -0.547,0.069 -0.935,0.57 -0.866,1.117 L -1.48,4.22 c 0.069,0.548 0.569,0.935 1.117,0.866 C 0.185,5.017 0.573,4.516 0.503,3.968 L 0,0 Z"
                 inkscape:connector-curvature="0" />
            </g>
            <g
               transform="translate(20.5176,18.7793)"
               id="g100">
              <path
                 id="path102"
                 style="fill:#c16a4f;fill-opacity:1;fill-rule:nonzero;stroke:none"
                 d="m 0,0 c -0.161,-0.528 -0.72,-0.824 -1.249,-0.664 -0.527,0.162 -0.825,0.721 -0.663,1.249 l 1.17,3.825 c 0.161,0.529 0.72,0.825 1.249,0.664 C 1.034,4.913 1.332,4.354 1.17,3.825 L 0,0 Z"
                 inkscape:connector-curvature="0" />
            </g>
            <g
               transform="translate(24.0352,17.2979)"
               id="g104">
              <path
                 id="path106"
                 style="fill:#c16a4f;fill-opacity:1;fill-rule:nonzero;stroke:none"
                 d="m 0,0 c -0.289,-0.47 -0.904,-0.616 -1.376,-0.328 -0.47,0.29 -0.617,0.905 -0.327,1.376 L 0.393,4.455 C 0.682,4.926 1.297,5.072 1.768,4.783 2.238,4.494 2.386,3.878 2.096,3.407 L 0,0 Z"
                 inkscape:connector-curvature="0" />
            </g>
          </g>
        </g>
      </g>
    </g>
    <g
       transform="matrix(-0.36606298,0.82219091,-0.82219091,-0.36606298,73.054232,73.203423)"
       id="g199">
      <g
         transform="matrix(1.25,0,0,-1.25,0,45)"
         id="g201">
        <g
           id="g203">
          <g
             clip-path="url(#clipPath16)"
             id="g205">
            <g
               transform="translate(12,28.3926)"
               id="g207">
              <path
                 id="path209"
                 style="fill:#ccd6dd;fill-opacity:1;fill-rule:nonzero;stroke:none"
                 d="m 0,0 -9,2.411 c -1.657,0.444 -3,-0.539 -3,-2.196 l 0,-20 c 0,-1.656 1.343,-3.36 3,-3.804 L 0,-26 0,0 Z"
                 inkscape:connector-curvature="0" />
            </g>
            <g
               transform="translate(24,5.6074)"
               id="g211">
              <path
                 id="path213"
                 style="fill:#ccd6dd;fill-opacity:1;fill-rule:nonzero;stroke:none"
                 d="m 0,0 9,-2.411 c 1.656,-0.444 3,0.54 3,2.196 l 0,20 c 0,1.657 -1.344,3.361 -3,3.804 L 0,26 0,0 Z"
                 inkscape:connector-curvature="0" />
            </g>
            <g
               transform="translate(24,5.6084)"
               id="g215">
              <path
                 id="path217"
                 style="fill:#e1e8ed;fill-opacity:1;fill-rule:nonzero;stroke:none"
                 d="m 0,0 -12,-3.216 0,26 L 0,26 0,0 Z"
                 inkscape:connector-curvature="0" />
            </g>
            <g
               transform="translate(12,26.3931)"
               id="g219">
              <path
                 id="path221"
                 style="fill:#55acee;fill-opacity:1;fill-rule:nonzero;stroke:none"
                 d="m 0,0 -8,2.144 c -1.104,0.295 -2,-0.36 -2,-1.464 l 0,-18.001 c 0,-1.103 0.896,-2.24 2,-2.535 L 0,-22 0,0 Z"
                 inkscape:connector-curvature="0" />
            </g>
            <g
               transform="translate(32,27.4648)"
               id="g223">
              <path
                 id="path225"
                 style="fill:#55acee;fill-opacity:1;fill-rule:nonzero;stroke:none"
                 d="m 0,0 -8,2.144 0,-22 L 0,-22 c 1.105,-0.296 2,0.359 2,1.465 l 0,18 C 2,-1.432 1.105,-0.296 0,0"
                 inkscape:connector-curvature="0" />
            </g>
            <g
               transform="translate(24,7.6084)"
               id="g227">
              <path
                 id="path229"
                 style="fill:#88c9f9;fill-opacity:1;fill-rule:nonzero;stroke:none"
                 d="m 0,0 -12,-3.216 0,22 L 0,22 0,0 Z"
                 inkscape:connector-curvature="0" />
            </g>
            <g
               transform="translate(12,14.4941)"
               id="g231">
              <path
                 id="path233"
                 style="fill:#5c913b;fill-opacity:1;fill-rule:nonzero;stroke:none"
                 d="m 0,0 c -0.268,-0.006 -0.595,-0.104 -0.845,-0.145 -0.436,-0.073 -0.329,-0.516 -0.463,-0.443 -0.135,0.074 -0.475,0.265 -0.812,0.658 -0.337,0.395 0.25,0.478 0.418,0.622 0.168,0.145 -0.317,0.172 -0.486,0.333 -0.169,0.159 -0.47,-0.104 -0.739,0.276 -0.269,0.376 -0.101,0.79 -0.133,1.179 -0.034,0.39 0.436,0.341 0.739,0.334 0.302,-0.002 0.537,-0.143 0.537,-0.602 0,-0.456 0.37,-0.708 0.27,-0.146 -0.101,0.561 0.1,0.658 0.235,0.89 0.134,0.23 0.37,0.55 0.673,1.04 C -0.385,4.354 -0.217,4.279 0,4.16 L 0,7.505 C -0.055,7.549 -0.11,7.595 -0.165,7.618 -0.468,7.75 -0.068,6.865 -0.303,6.509 -0.54,6.152 -0.901,6.316 -1.273,6.415 -1.642,6.514 -1.986,6.96 -1.716,7.422 c 0.268,0.462 0.782,0.267 1.051,0.653 0.27,0.385 -0.956,0.672 -1.394,0.942 -0.437,0.27 -0.962,0.409 -1.4,0.145 C -3.896,8.898 -4.832,9.029 -5.202,8.977 -5.571,8.923 -5.637,9.346 -5.705,9.67 c -0.066,0.322 -0.652,0.329 -1.257,0.338 -0.606,0.01 -1.741,-0.281 -1.547,-1.759 0.068,-0.514 0.605,-0.124 0.707,-0.036 0.1,0.088 0.605,-0.2 0.671,-0.637 0.068,-0.438 0.034,-0.887 -0.099,-1.232 -0.137,-0.345 0.336,-1.006 0.604,-1.612 0.269,-0.606 0.572,-0.687 0.706,-0.723 0.135,-0.036 0.908,-0.587 0.875,-0.996 -0.034,-0.411 0.706,-0.992 1.009,-1.34 0.303,-0.35 0.494,-0.662 0.887,-0.846 0.393,-0.182 0.852,-1.035 1.054,-1.165 0.155,-0.099 0.418,-0.451 0.576,-0.58 -0.208,-0.242 -0.612,-0.748 -0.612,-1.029 0,-0.383 0.441,-1.103 0.608,-1.3 0.168,-0.196 0.65,-0.442 0.751,-0.85 0.101,-0.407 -0.07,-1.646 -0.373,-1.907 -0.304,-0.262 -0.414,-1.043 -0.414,-1.043 0,0 0.107,-0.293 0.465,-0.124 0.309,0.144 0.777,0.567 1.094,0.801 L 0,0 Z"
                 inkscape:connector-curvature="0" />
            </g>
            <g
               transform="translate(24,20.2686)"
               id="g235">
              <path
                 id="path237"
                 style="fill:#77b255;fill-opacity:1;fill-rule:nonzero;stroke:none"
                 d="M 0,0 0,6.314 C -0.04,6.311 -0.068,6.303 -0.11,6.3 -0.319,6.289 -0.593,6.165 -0.89,5.98 -0.914,5.985 -0.936,5.996 -0.96,6.001 -1.855,6.176 -2.272,4.796 -2.999,4.849 c -0.73,0.052 -1.7,0.343 -2.332,-0.514 -0.631,-0.858 -0.776,-1.53 0,-1.295 0.777,0.236 1.312,1.426 1.7,1.089 0.388,-0.336 0.29,-0.72 -0.632,-1.105 C -5.185,2.639 -6.18,2.208 -6.714,2.064 -7.248,1.921 -7.37,1.53 -7.006,1.243 -6.642,0.955 -7.225,0.771 -7.831,0.223 c -0.607,-0.548 0.146,-0.512 0.656,-0.705 0.51,-0.193 0.898,0.323 1.117,0.932 0.217,0.609 1.158,1.522 1.55,1.544 0.392,0.023 0.392,-0.197 0.319,-0.602 -0.013,-0.072 0.001,-0.103 0.01,-0.139 -0.17,-0.54 -0.309,-1.029 -0.365,-1.306 -0.026,-0.134 -0.031,-0.35 -0.027,-0.595 -0.086,-0.003 -0.183,-0.021 -0.248,0 -0.438,0.128 -1.434,0.219 -1.701,-0.043 -0.267,-0.266 -0.412,-0.502 -0.728,-0.723 -0.316,-0.219 -1.603,-1.224 -1.626,-2.084 -0.025,-0.859 -0.049,-1.83 0.46,-1.721 0.51,0.11 1.749,0.826 2.137,1.288 0.387,0.463 0.921,0.523 1.092,0.156 0.169,-0.369 0.048,-0.649 -0.12,-1.354 -0.172,-0.708 0.11,-0.963 0.381,-1.468 0.274,-0.504 0.491,-0.775 0.491,-1.189 0,-0.412 0.389,-0.723 0.97,0.123 0.188,0.269 0.367,0.606 0.536,0.957 0.409,0.469 0.768,0.923 0.758,1.096 -0.016,0.281 -0.021,0.433 -0.024,0.624 0.033,0.082 0.064,0.157 0.091,0.219 0.126,0.293 0.241,0.746 0.362,1.156 0.007,0.009 0.013,0.016 0.019,0.024 0.238,0.337 0.185,0.353 0.58,0.756 0.264,0.269 0.254,0.512 0.214,0.678 0.106,0.174 0.134,0.28 -0.033,0.235 -0.005,-0.001 -0.012,-0.003 -0.016,-0.004 -0.001,0 -0.004,-0.019 -0.005,-0.014 -0.023,0.15 -0.206,-0.003 -0.501,-0.147 -0.285,-0.008 -0.567,0.065 -0.668,0.368 -0.133,0.396 -0.602,0.996 -0.639,1.336 0.003,0.041 0.005,0.077 0.01,0.124 0.013,0.036 0.033,0.066 0.069,0.088 0.038,0.022 0.075,0.03 0.112,0.035 0.041,-0.111 0.076,-0.28 0.086,-0.464 0.027,-0.477 0.395,-0.196 0.395,-0.498 0,-0.302 0.53,-0.492 0.661,-0.548 0.037,-0.015 0.094,0.028 0.159,0.098 0.031,-0.011 0.06,-0.033 0.093,-0.037 0.292,-0.031 0.922,0.984 1.117,1.164 0.102,0.095 0.105,0.269 0.033,0.394 C -0.035,-0.015 -0.019,-0.008 0,0 m -9.142,-7.239 c -0.437,0.074 -0.359,0.023 -0.628,0.598 -0.269,0.577 -0.432,0.743 -1.036,0.657 -0.606,-0.087 -0.584,-0.136 -0.751,0.163 -0.072,0.128 -0.241,0.082 -0.443,-0.032 l 0,-6.37 c 0.09,0.115 0.17,0.211 0.228,0.267 0.505,0.476 0.996,1.026 1.466,1.646 0.471,0.621 0.301,0.924 0.536,1.481 0.235,0.558 0.54,0.617 0.943,1.145 0.405,0.531 0.122,0.368 -0.315,0.445 m -2.59,5.557 c -0.1,-0.015 -0.187,-0.011 -0.268,-0.01 l 0,3.344 c 0.254,-0.064 0.512,-0.317 0.706,-0.735 0.234,-0.51 0.605,-0.067 0.739,-0.374 0.134,-0.308 0.875,-0.758 0.505,-0.742 -0.371,0.014 -0.74,-0.008 -0.841,-0.454 -0.102,-0.448 0.168,-0.795 -0.102,-0.829 -0.269,-0.033 -0.369,-0.142 -0.739,-0.2"
                 inkscape:connector-curvature="0" />
            </g>
            <g
               transform="translate(31.4072,12.2305)"
               id="g239">
              <path
                 id="path241"
                 style="fill:#5c913b;fill-opacity:1;fill-rule:nonzero;stroke:none"
                 d="M 0,0 C -0.133,0.338 -0.518,0.713 -0.675,0.91 -0.834,1.104 -1.082,1.223 -1.293,1.189 -1.505,1.158 -1.636,1.281 -1.741,1.551 -1.848,1.816 -2.031,1.783 -2.19,1.795 -2.348,1.807 -2.981,1.676 -3.352,1.564 -3.72,1.451 -3.889,1.312 -4.13,1.107 c -0.382,-0.32 -0.17,-0.105 0,-0.423 0.168,-0.319 -0.186,-1.067 -0.213,-1.543 -0.027,-0.477 0.676,-0.032 0.94,-0.039 0.263,-0.012 0.185,0.189 0.396,0.314 0.212,0.125 0.349,0.129 0.579,-0.172 0.234,-0.305 0.537,-0.611 0.537,-0.883 0,-0.269 0.834,-0.947 1.152,-0.851 0.316,0.097 0.501,0.408 0.791,0.635 0.291,0.224 0.185,0.824 0.264,1.168 C 0.396,-0.346 0.13,-0.336 0,0 m -2.403,2.578 c 0.261,-0.402 0.159,-0.043 0.504,0.016 0.342,0.058 -0.291,0.56 -0.502,0.799 -0.211,0.238 -0.42,0.3 -0.606,-0.049 C -3.216,2.945 -2.664,2.98 -2.403,2.578 M 0.685,1.146 C 0.554,1.363 0.264,1.531 -0.054,1.607 -0.369,1.684 -0.344,2.088 -0.66,2.141 -0.976,2.195 -1.204,2.529 -1.346,2.652 -1.657,2.918 -1.452,2.443 -1.346,1.953 -1.239,1.465 -0.845,1.707 -0.477,1.367 -0.107,1.027 -0.079,1.352 0.264,1.139 0.605,0.928 0.738,0.619 1.067,0.561 1.396,0.502 0.817,0.93 0.685,1.146 m -2.004,5.371 c 0.183,-0.08 0.975,-0.171 0.553,0.334 -0.422,0.506 -0.106,0.299 -0.052,0.738 0.052,0.44 -0.264,0.525 -0.264,0.525 0,-0.332 -0.211,-0.638 0,-1.027 0.21,-0.389 -0.423,-0.49 -0.237,-0.57 M -3.411,4.449 c 0.389,-0.166 0.114,0.482 0.244,0.841 0.132,0.357 0.316,0.369 0.555,0.364 0.236,-0.002 0.422,0.191 0.581,0.388 0.157,0.2 0.448,0.455 0.422,0.733 -0.027,0.279 -0.105,0.482 -0.212,0.843 -0.106,0.36 0.316,0.368 0.502,0.711 0.183,0.342 0,0 0.421,0.007 0.421,0.008 0.238,0.058 0.316,0.218 0.08,0.159 0.133,0.327 0.054,0.68 -0.078,0.353 -0.37,0.099 -0.66,0.177 -0.289,0.077 0.106,0.424 0.131,0.78 0.027,0.355 0.397,0.165 0.662,0.125 0.262,-0.039 0.341,-0.485 0.42,-0.597 0.082,-0.112 0.896,0.365 1.109,0.641 0.211,0.275 -0.186,0.291 -0.079,0.403 0.105,0.111 -0.632,0.337 -0.925,0.469 -0.289,0.133 -1.028,0.367 -1.318,0.649 -0.289,0.284 -1.397,0.426 -1.688,0.337 -0.291,-0.086 -0.476,0.143 -0.606,0.406 -0.131,0.262 -0.686,0.297 -0.844,0.467 -0.158,0.17 -0.316,-0.127 -0.529,-0.16 -0.21,-0.035 -0.29,-0.043 -0.554,0.209 -0.263,0.252 0.08,0.371 -0.288,0.621 -0.355,0.239 -0.813,0.184 -1.71,0.593 l 0,-6.314 c 0.157,-0.014 0.308,-0.037 0.364,-0.051 0.131,-0.035 0.448,-0.574 0.448,-0.784 0,-0.211 0.159,-0.829 0.291,-1.196 0.131,-0.366 0.42,-0.506 0.686,-0.818 0.264,-0.312 0.394,-0.137 0.394,-0.137 0,0 -0.105,0.544 -0.105,0.965 0,0.424 0.316,0.701 0.316,0.701 0,0 0.5,-0.557 0.529,-0.684 0.026,-0.128 0.421,-0.657 0.449,-0.876 0.025,-0.219 0.236,-0.547 0.624,-0.711 m -0.362,-0.9 C -3.826,3.109 -3.59,3.348 -3.167,2.844 -2.744,2.336 -3.271,2.449 -3.456,2.527 c -0.185,0.08 -0.37,0.131 -0.579,0.518 -0.213,0.391 0,0.695 0,1.027 0,0 0.315,-0.084 0.262,-0.523"
                 inkscape:connector-curvature="0" />
            </g>
          </g>
        </g>
      </g>
    </g>
    <g
       transform="matrix(0.73640388,-0.3125849,0.3125849,0.73640388,57.998127,89.997838)"
       id="g243">
      <g
         transform="matrix(1.25,0,0,-1.25,0,47.5)"
         id="g245">
        <g
           id="g247">
          <g
             clip-path="url(#clipPath16)"
             id="g249">
            <g
               transform="translate(14,31)"
               id="g251">
              <path
                 id="path253"
                 style="fill:#272b2b;fill-opacity:1;fill-rule:nonzero;stroke:none"
                 d="m 0,0 c 0,-3.313 -2.687,-6 -6,-6 -3.313,0 -6,2.687 -6,6 0,3.313 2.687,6 6,6 3.313,0 6,-2.687 6,-6"
                 inkscape:connector-curvature="0" />
            </g>
            <g
               transform="translate(36,31)"
               id="g255">
              <path
                 id="path257"
                 style="fill:#272b2b;fill-opacity:1;fill-rule:nonzero;stroke:none"
                 d="m 0,0 c 0,-3.313 -2.687,-6 -6,-6 -3.313,0 -6,2.687 -6,6 0,3.313 2.687,6 6,6 3.313,0 6,-2.687 6,-6"
                 inkscape:connector-curvature="0" />
            </g>
            <g
               transform="translate(12,31)"
               id="g259">
              <path
                 id="path261"
                 style="fill:#66757f;fill-opacity:1;fill-rule:nonzero;stroke:none"
                 d="m 0,0 c 0,-2.209 -1.791,-4 -4,-4 -2.209,0 -4,1.791 -4,4 0,2.209 1.791,4 4,4 2.209,0 4,-1.791 4,-4"
                 inkscape:connector-curvature="0" />
            </g>
            <g
               transform="translate(34,31)"
               id="g263">
              <path
                 id="path265"
                 style="fill:#66757f;fill-opacity:1;fill-rule:nonzero;stroke:none"
                 d="m 0,0 c 0,-2.209 -1.791,-4 -4,-4 -2.209,0 -4,1.791 -4,4 0,2.209 1.791,4 4,4 2.209,0 4,-1.791 4,-4"
                 inkscape:connector-curvature="0" />
            </g>
            <g
               transform="translate(36,15)"
               id="g267">
              <path
                 id="path269"
                 style="fill:#eeeeee;fill-opacity:1;fill-rule:nonzero;stroke:none"
                 d="m 0,0 c 0,-7 -6.375,-12 -17,-12 -10.625,0 -17,5 -17,12 0,0 1.308,22 17,22 C -1.308,22 0,0 0,0"
                 inkscape:connector-curvature="0" />
            </g>
            <g
               transform="translate(25,7)"
               id="g271">
              <path
                 id="path273"
                 style="fill:#ccd6dd;fill-opacity:1;fill-rule:nonzero;stroke:none"
                 d="m 0,0 c 0,-3.313 -2.687,-6 -6,-6 -3.313,0 -6,2.687 -6,6 0,3.313 2.687,6 6,6 3.313,0 6,-2.687 6,-6"
                 inkscape:connector-curvature="0" />
            </g>
            <g
               transform="translate(23,7)"
               id="g275">
              <path
                 id="path277"
                 style="fill:#dd2e44;fill-opacity:1;fill-rule:nonzero;stroke:none"
                 d="m 0,0 c 0,-2.209 -1.791,-4 -4,-4 -2.209,0 -4,1.791 -4,4 0,2.209 1.791,4 4,4 2.209,0 4,-1.791 4,-4"
                 inkscape:connector-curvature="0" />
            </g>
            <g
               transform="translate(21.709,24.3457)"
               id="g279">
              <path
                 id="path281"
                 style="fill:#272b2b;fill-opacity:1;fill-rule:nonzero;stroke:none"
                 d="m 0,0 c 4.454,2.776 11.291,-4.346 6.243,-10.016 -3.489,-3.921 -6.952,-2.33 -6.952,-2.33 0,0 -2.636,10.261 0.709,12.346"
                 inkscape:connector-curvature="0" />
            </g>
            <g
               transform="translate(16.2666,24.3354)"
               id="g283">
              <path
                 id="path285"
                 style="fill:#272b2b;fill-opacity:1;fill-rule:nonzero;stroke:none"
                 d="m 0,0 c -4.454,2.776 -11.291,-4.346 -6.244,-10.016 3.49,-3.92 6.953,-2.329 6.953,-2.329 0,0 2.636,10.26 -0.709,12.345"
                 inkscape:connector-curvature="0" />
            </g>
            <g
               transform="translate(12,20)"
               id="g287">
              <path
                 id="path289"
                 style="fill:#66757f;fill-opacity:1;fill-rule:nonzero;stroke:none"
                 d="M 0,0 C 0,0 0,2 2,2 4,2 4,0 4,0 l 0,-2 c 0,0 0,-2 -2,-2 -2,0 -2,2 -2,2 l 0,2 z"
                 inkscape:connector-curvature="0" />
            </g>
            <g
               transform="translate(19,17)"
               id="g291">
              <path
                 id="path293"
                 style="fill:#ffffff;fill-opacity:1;fill-rule:nonzero;stroke:none"
                 d="m 0,0 c 0,0 -11,-3.687 -11,-7 0,-3.313 2.687,-6 6,-6 2.088,0 3.925,1.067 5,2.686 C 1.074,-11.933 2.912,-13 5,-13 c 3.313,0 6,2.687 6,6 0,3.313 -11,7 -11,7"
                 inkscape:connector-curvature="0" />
            </g>
            <g
               transform="translate(22,20)"
               id="g295">
              <path
                 id="path297"
                 style="fill:#66757f;fill-opacity:1;fill-rule:nonzero;stroke:none"
                 d="M 0,0 C 0,0 0,2 2,2 4,2 4,0 4,0 l 0,-2 c 0,0 0,-2 -2,-2 -2,0 -2,2 -2,2 l 0,2 z"
                 inkscape:connector-curvature="0" />
            </g>
            <g
               transform="translate(14.1255,12)"
               id="g299">
              <path
                 id="path301"
                 style="fill:#272b2b;fill-opacity:1;fill-rule:nonzero;stroke:none"
                 d="M 0,0 C -1.625,-1 3.25,-4 4.875,-4 6.5,-4 11.374,-1 9.749,0 8.124,1 1.625,1 0,0"
                 inkscape:connector-curvature="0" />
            </g>
          </g>
        </g>
      </g>
    </g>
    <g
       transform="matrix(0.75501928,0.13313027,-0.13313027,0.75501928,46.971496,120.71575)"
       id="g303">
      <g
         transform="matrix(1.25,0,0,-1.25,0,47.5)"
         id="g305">
        <g
           id="g307">
          <g
             clip-path="url(#clipPath16)"
             id="g309">
            <g
               transform="translate(25.9248,18.7485)"
               id="g311">
              <path
                 id="path313"
                 style="fill:#f18f26;fill-opacity:1;fill-rule:nonzero;stroke:none"
                 d="m 0,0 c -2.392,-0.797 -3.189,3.189 -3.189,3.189 0,0 1.088,1.092 0.264,2.062 1.283,1.283 0.533,1.925 0.533,1.925 -2.203,2.202 -5.772,2.202 -7.974,0 -0.278,-0.278 -0.466,-0.527 -0.624,-0.764 -0.068,-0.098 -0.13,-0.196 -0.191,-0.296 -0.006,-0.011 -0.01,-0.021 -0.016,-0.031 -0.322,-0.535 -0.553,-1.107 -0.682,-1.701 -0.176,-0.359 -0.427,-0.743 -0.879,-1.195 -1.595,-1.594 -5.581,0.797 -8.771,-2.392 -0.033,-0.032 -0.051,-0.078 -0.077,-0.116 -0.107,-0.095 -0.218,-0.179 -0.321,-0.282 -3.743,-3.743 -3.386,-10.169 0.798,-14.353 3.974,-3.974 9.968,-4.487 13.767,-1.319 0.066,0.035 0.132,0.069 0.185,0.123 0.081,0.081 0.142,0.158 0.218,0.237 0.06,0.056 0.123,0.105 0.181,0.162 1.909,1.91 2.641,4.206 2.352,6.552 -0.076,1.116 -0.186,1.991 0.44,2.617 0.797,0.797 3.188,0 4.783,1.595 C 3.188,-1.595 1.513,0.503 0,0"
                 inkscape:connector-curvature="0" />
            </g>
            <g
               transform="translate(33.0488,30.9287)"
               id="g315">
              <path
                 id="path317"
                 style="fill:#642116;fill-opacity:1;fill-rule:nonzero;stroke:none"
                 d="m 0,0 -12.141,-12.142 -2.122,2.121 L -2.121,2.122 0,0 Z"
                 inkscape:connector-curvature="0" />
            </g>
            <g
               transform="translate(36.2041,33.8145)"
               id="g319">
              <path
                 id="path321"
                 style="fill:#f18f26;fill-opacity:1;fill-rule:nonzero;stroke:none"
                 d="m 0,0 c 0.437,-0.438 0.437,-1.155 -0.001,-1.593 l -3.187,-3.185 c -0.438,-0.438 -1.155,-0.438 -1.592,0 l -2.39,2.389 c -0.437,0.438 -0.437,1.155 0.001,1.593 l 3.187,3.185 c 0.438,0.438 1.155,0.438 1.592,0 L 0,0 Z"
                 inkscape:connector-curvature="0" />
            </g>
            <g
               transform="translate(21,17.4648)"
               id="g323">
              <path
                 id="path325"
                 style="fill:#ccd6dd;fill-opacity:1;fill-rule:nonzero;stroke:none"
                 d="M 0,0 -1.414,-1.415 -4.95,2.121 -3.536,3.535 0,0 Z"
                 inkscape:connector-curvature="0" />
            </g>
            <g
               transform="translate(17.4639,13.9287)"
               id="g327">
              <path
                 id="path329"
                 style="fill:#ccd6dd;fill-opacity:1;fill-rule:nonzero;stroke:none"
                 d="M 0,0 -1.414,-1.414 -4.95,2.121 -3.536,3.536 0,0 Z"
                 inkscape:connector-curvature="0" />
            </g>
            <g
               transform="translate(13.9282,11.8076)"
               id="g331">
              <path
                 id="path333"
                 style="fill:#642116;fill-opacity:1;fill-rule:nonzero;stroke:none"
                 d="m 0,0 c 0.389,-0.389 0.389,-1.025 0,-1.414 -0.389,-0.389 -1.025,-0.389 -1.414,0 l -2.122,2.121 c -0.388,0.389 -0.388,1.025 0,1.414 l 10e-4,0 c 0.389,0.389 1.025,0.389 1.414,0 L 0,0 Z"
                 inkscape:connector-curvature="0" />
            </g>
          </g>
        </g>
      </g>
    </g>
    <g
       transform="matrix(0.26644944,0.92921964,-0.92921964,0.26644944,142.75659,65.770588)"
       id="g335">
      <g
         transform="matrix(1.25,0,0,-1.25,0,47.5)"
         id="g337">
        <g
           id="g339">
          <g
             clip-path="url(#clipPath16)"
             id="g341">
            <g
               transform="translate(28,17)"
               id="g343">
              <path
                 id="path345"
                 style="fill:#ffcc4d;fill-opacity:1;fill-rule:nonzero;stroke:none"
                 d="m 0,0 c 0,-1.657 -4.03,-3 -9,-3 -4.97,0 -9,1.343 -9,3 0,1.657 4.03,3 9,3 4.97,0 9,-1.343 9,-3"
                 inkscape:connector-curvature="0" />
            </g>
            <g
               transform="translate(18.1816,14)"
               id="g347">
              <path
                 id="path349"
                 style="fill:#ffcc4d;fill-opacity:1;fill-rule:nonzero;stroke:none"
                 d="m 0,0 -7.363,0 c 0,0 1.352,-6.5 2.35,-9.752 C -4.014,-13.006 -0.408,-13 0.41,-13 2.045,-13 4.834,-13.006 5.832,-9.752 6.828,-6.5 9.001,0 9.001,0 L 0,0 Z"
                 inkscape:connector-curvature="0" />
            </g>
          </g>
        </g>
        <g
           id="g351">
          <g
             clip-path="url(#clipPath32)"
             id="g30">
            <g
               transform="translate(27.1826,12.5)"
               id="g354">
              <path
                 id="path356"
                 style="fill:#ffac33;fill-opacity:1;fill-rule:nonzero;stroke:none"
                 d="m 0,0 c 0,-1.657 -2.76,-3.5 -8.183,-3.5 -5.422,0 -8.181,1.843 -8.181,3.5 0,1.657 2.759,3 8.181,3 C -2.76,3 0,1.657 0,0"
                 inkscape:connector-curvature="0" />
            </g>
          </g>
        </g>
        <g
           id="g358">
          <g
             clip-path="url(#clipPath44)"
             id="g42">
            <g
               transform="translate(10,17)"
               id="g361">
              <path
                 id="path363"
                 style="fill:#ffcc4d;fill-opacity:1;fill-rule:nonzero;stroke:none"
                 d="m 0,0 0,-3 c 0,-1.657 4.03,-3 9,-3 4.97,0 9,1.343 9,3 L 18,0 0,0 Z"
                 inkscape:connector-curvature="0" />
            </g>
            <g
               transform="translate(27.1826,16.5)"
               id="g365">
              <path
                 id="path367"
                 style="fill:#f4900c;fill-opacity:1;fill-rule:nonzero;stroke:none"
                 d="m 0,0 c 0,-1.381 -3.664,-2.5 -8.183,-2.5 -4.519,0 -8.181,1.119 -8.181,2.5 0,1.381 3.662,2.5 8.181,2.5 C -3.664,2.5 0,1.381 0,0"
                 inkscape:connector-curvature="0" />
            </g>
            <g
               transform="translate(29.375,19.8501)"
               id="g369">
              <path
                 id="path371"
                 style="fill:#ffe8b6;fill-opacity:1;fill-rule:nonzero;stroke:none"
                 d="m 0,0 c 0,2.405 -1.949,4.354 -4.354,4.354 -2.405,0 -14.188,-4.803 -14.188,-7.208 0,-2.404 8.084,-2.329 13.751,-1.371 C -2.42,-3.825 0,-2.405 0,0"
                 inkscape:connector-curvature="0" />
            </g>
            <g
               transform="translate(27.6436,26.0342)"
               id="g373">
              <path
                 id="path375"
                 style="fill:#ffe8b6;fill-opacity:1;fill-rule:nonzero;stroke:none"
                 d="m 0,0 c -1.014,2.432 -3.868,3.606 -6.374,2.623 l -10.21,-4.008 0.001,-10e-4 c -1.794,-0.705 -3.061,-2.409 -3.061,-4.402 0,-2.623 2.192,-4.75 4.895,-4.75 6.145,0 12.417,4.183 12.417,4.183 C 0.014,-4.896 1.014,-2.432 0,0"
                 inkscape:connector-curvature="0" />
            </g>
            <g
               transform="translate(25.5088,30.501)"
               id="g377">
              <path
                 id="path379"
                 style="fill:#ffe8b6;fill-opacity:1;fill-rule:nonzero;stroke:none"
                 d="m 0,0 c -0.781,1.784 -2.982,2.646 -4.915,1.924 l -7.874,-2.939 10e-4,-0.002 c -1.384,-0.517 -2.36,-1.767 -2.36,-3.23 0,-1.924 1.69,-3.484 3.774,-3.484 4.74,0 9.575,3.068 9.575,3.068 C 0.011,-3.592 0.782,-1.784 0,0"
                 inkscape:connector-curvature="0" />
            </g>
            <g
               transform="translate(21.6943,32.0791)"
               id="g381">
              <path
                 id="path383"
                 style="fill:#ffe8b6;fill-opacity:1;fill-rule:nonzero;stroke:none"
                 d="m 0,0 c 0,0 0.593,1.781 -1.781,1.781 -3.562,0 -5.771,-0.845 -5.771,-0.845 l 0,-0.001 c -0.808,-0.327 -1.379,-1.119 -1.379,-2.044 0,-1.219 0.988,-2.206 2.206,-2.206 2.769,0 5.597,1.942 5.597,1.942 C -0.072,-0.695 0,0 0,0"
                 inkscape:connector-curvature="0" />
            </g>
            <g
               transform="translate(17.9824,36.8613)"
               id="g385">
              <path
                 id="path387"
                 style="fill:#ffe8b6;fill-opacity:1;fill-rule:nonzero;stroke:none"
                 d="M 0,0 C 1.781,-2.375 4.156,-1.177 4.751,-2.959 5.313,-4.648 3.562,-5.333 3.562,-5.333 l -4.749,0 c 0,0 -1.782,3.552 1.187,5.333"
                 inkscape:connector-curvature="0" />
            </g>
          </g>
        </g>
        <g
           id="g389">
          <g
             clip-path="url(#clipPath80)"
             id="g78">
            <g
               transform="translate(10.167,24.6211)"
               id="g84">
              <path
                 id="path86"
                 style="fill:#ffd983;fill-opacity:1;fill-rule:nonzero;stroke:none"
                 d="m 0,0 c 3.417,0 9.708,1.125 16.5,5.833 2.103,1.458 3.667,-0.875 2,-2.458 C 16.833,1.792 4.417,-4.042 0.167,-3.25 -4.083,-2.458 0,0 0,0"
                 inkscape:connector-curvature="0" />
            </g>
          </g>
        </g>
        <g
           id="g394">
          <g
             clip-path="url(#clipPath92)"
             id="g90">
            <g
               transform="translate(7.792,18.6626)"
               id="g397">
              <path
                 id="path399"
                 style="fill:#ffd983;fill-opacity:1;fill-rule:nonzero;stroke:none"
                 d="M 0,0 C 1.542,-0.708 5.458,-0.583 7.958,0.125 10.458,0.833 19.208,3.667 20.5,6.792 21.792,9.917 23.333,7.375 22.958,5 22.583,2.625 11.792,-6.458 6.667,-5.375 1.542,-4.292 -1.667,-4.583 -2,-2.792 -2.333,-1 0,0 0,0"
                 inkscape:connector-curvature="0" />
            </g>
          </g>
        </g>
        <g
           id="g401">
          <g
             clip-path="url(#clipPath104)"
             id="g102">
            <g
               transform="translate(12.5,30.4546)"
               id="g108">
              <path
                 id="path110"
                 style="fill:#ffd983;fill-opacity:1;fill-rule:nonzero;stroke:none"
                 d="M 0,0 C 2.417,-0.25 10.333,2.292 10.5,4.375 10.667,6.458 12.125,2.625 11.625,1.958 11.125,1.292 1.667,-3.75 -1.75,-1.542 -5.167,0.667 0,0 0,0"
                 inkscape:connector-curvature="0" />
            </g>
          </g>
        </g>
      </g>
    </g>
    <g
       transform="matrix(-0.45924132,0.52829671,-0.52829671,-0.45924132,183.16153,123.88136)"
       id="g406">
      <g
         transform="matrix(1.25,0,0,-1.25,0,47.5)"
         id="g408">
        <g
           id="g410">
          <g
             clip-path="url(#clipPath16)"
             id="g412">
            <g
               transform="translate(10,26)"
               id="g414">
              <path
                 id="path416"
                 style="fill:#99aab5;fill-opacity:1;fill-rule:nonzero;stroke:none"
                 d="M 0,0 C 0,4.142 -2,11 -1,11 0,11 6,7 4,0 2.862,-3.983 3.104,-4 2,-4 0.896,-4 0,-4.142 0,0"
                 inkscape:connector-curvature="0" />
            </g>
            <g
               transform="translate(10.5498,25.2964)"
               id="g418">
              <path
                 id="path420"
                 style="fill:#f4abba;fill-opacity:1;fill-rule:nonzero;stroke:none"
                 d="M 0,0 C 0,3.414 -1.297,9.065 -0.648,9.065 0,9.065 3.89,5.769 2.593,0 1.855,-3.282 2.013,-3.296 1.296,-3.296 0.58,-3.296 0,-3.414 0,0"
                 inkscape:connector-curvature="0" />
            </g>
            <g
               transform="translate(5.7886,24.625)"
               id="g422">
              <path
                 id="path424"
                 style="fill:#99aab5;fill-opacity:1;fill-rule:nonzero;stroke:none"
                 d="M 0,0 C -1.062,4.003 -4.755,10.119 -3.789,10.375 -2.822,10.632 4.003,8.305 3.866,1.026 3.789,-3.115 4.027,-3.07 2.959,-3.353 1.892,-3.636 1.062,-4.003 0,0"
                 inkscape:connector-curvature="0" />
            </g>
            <g
               transform="translate(6.5005,24.0859)"
               id="g426">
              <path
                 id="path428"
                 style="fill:#f4abba;fill-opacity:1;fill-rule:nonzero;stroke:none"
                 d="M 0,0 C -0.876,3.299 -3.579,8.429 -2.953,8.595 -2.326,8.762 2.279,6.573 2.506,0.665 2.635,-2.696 2.791,-2.67 2.099,-2.854 1.406,-3.037 0.876,-3.299 0,0"
                 inkscape:connector-curvature="0" />
            </g>
            <g
               transform="translate(37,8.5)"
               id="g430">
              <path
                 id="path432"
                 style="fill:#ccd6dd;fill-opacity:1;fill-rule:nonzero;stroke:none"
                 d="M 0,0 C 0,-1.933 -1.567,-3.5 -3.5,-3.5 -5.433,-3.5 -7,-1.933 -7,0 -7,1.933 -5.433,3.5 -3.5,3.5 -1.567,3.5 0,1.933 0,0"
                 inkscape:connector-curvature="0" />
            </g>
            <g
               transform="translate(31.7334,5.2637)"
               id="g434">
              <path
                 id="path436"
                 style="fill:#99aab5;fill-opacity:1;fill-rule:nonzero;stroke:none"
                 d="m 0,0 c 1.493,1.383 2.267,3.519 2.267,6.736 0,7.18 -6.821,11 -14,11 -2.058,0 -3.829,-0.157 -5.324,-0.539 -1.085,1.13 -2.859,1.539 -5.276,1.539 -4.265,0 -8.4,-4.069 -8.4,-8.333 0,-4.13 3.88,-4.636 7.998,-4.664 l 0.002,-0.003 c 3,-5 1,-10 3,-10 1.588,0 1.914,2.217 1.981,4.375 1.068,-0.663 2.258,-1.191 3.531,-1.577 -0.878,-0.523 -1.512,-1.068 -1.512,-1.298 0,-1.381 2,-1.5 5,-1.5 5.522,0 13,0 11,4 C 0.213,-0.156 0.115,-0.073 0,0"
                 inkscape:connector-curvature="0" />
            </g>
            <g
               transform="translate(8,19)"
               id="g438">
              <path
                 id="path440"
                 style="fill:#292f33;fill-opacity:1;fill-rule:nonzero;stroke:none"
                 d="m 0,0 c 0,-0.553 -0.448,-1 -1,-1 -0.552,0 -1,0.447 -1,1 0,0.552 0.448,1 1,1 0.552,0 1,-0.448 1,-1"
                 inkscape:connector-curvature="0" />
            </g>
            <g
               transform="translate(3,16)"
               id="g442">
              <path
                 id="path444"
                 style="fill:#f4abba;fill-opacity:1;fill-rule:nonzero;stroke:none"
                 d="m 0,0 c 0,-1.104 -0.5,-2 -1,-2 -0.5,0 -1,0.896 -1,2 0,1.104 0.448,1 1,1 0.552,0 1,0.104 1,-1"
                 inkscape:connector-curvature="0" />
            </g>
          </g>
        </g>
      </g>
    </g>
    <g
       transform="matrix(-0.1081251,-0.5562554,0.5562554,-0.1081251,116.95254,178.37358)"
       id="g446">
      <g
         transform="matrix(1.25,0,0,-1.25,0,47.5)"
         id="g448">
        <g
           id="g450">
          <g
             clip-path="url(#clipPath16)"
             id="g452">
            <g
               transform="translate(14,31)"
               id="g454">
              <path
                 id="path456"
                 style="fill:#ffcc4d;fill-opacity:1;fill-rule:nonzero;stroke:none"
                 d="m 0,0 c 0,-3.313 -2.687,-6 -6,-6 -3.313,0 -6,2.687 -6,6 0,3.313 2.687,6 6,6 3.313,0 6,-2.687 6,-6"
                 inkscape:connector-curvature="0" />
            </g>
            <g
               transform="translate(25,7)"
               id="g458">
              <path
                 id="path460"
                 style="fill:#ffcc4d;fill-opacity:1;fill-rule:nonzero;stroke:none"
                 d="m 0,0 c 0,-3.313 -2.687,-6 -6,-6 -3.313,0 -6,2.687 -6,6 0,3.313 2.687,6 6,6 3.313,0 6,-2.687 6,-6"
                 inkscape:connector-curvature="0" />
            </g>
            <g
               transform="translate(23,7)"
               id="g462">
              <path
                 id="path464"
                 style="fill:#dd2e44;fill-opacity:1;fill-rule:nonzero;stroke:none"
                 d="m 0,0 c 0,-2.209 -1.791,-4 -4,-4 -2.209,0 -4,1.791 -4,4 0,2.209 1.791,4 4,4 2.209,0 4,-1.791 4,-4"
                 inkscape:connector-curvature="0" />
            </g>
            <g
               transform="translate(36,31)"
               id="g466">
              <path
                 id="path468"
                 style="fill:#ffcc4d;fill-opacity:1;fill-rule:nonzero;stroke:none"
                 d="m 0,0 c 0,-3.313 -2.687,-6 -6,-6 -3.313,0 -6,2.687 -6,6 0,3.313 2.687,6 6,6 3.313,0 6,-2.687 6,-6"
                 inkscape:connector-curvature="0" />
            </g>
            <g
               transform="translate(12,31)"
               id="g470">
              <path
                 id="path472"
                 style="fill:#e6aaaa;fill-opacity:1;fill-rule:nonzero;stroke:none"
                 d="m 0,0 c 0,-2.209 -1.791,-4 -4,-4 -2.209,0 -4,1.791 -4,4 0,2.209 1.791,4 4,4 2.209,0 4,-1.791 4,-4"
                 inkscape:connector-curvature="0" />
            </g>
            <g
               transform="translate(34,31)"
               id="g474">
              <path
                 id="path476"
                 style="fill:#e6aaaa;fill-opacity:1;fill-rule:nonzero;stroke:none"
                 d="m 0,0 c 0,-2.209 -1.791,-4 -4,-4 -2.209,0 -4,1.791 -4,4 0,2.209 1.791,4 4,4 2.209,0 4,-1.791 4,-4"
                 inkscape:connector-curvature="0" />
            </g>
            <g
               transform="translate(35,15)"
               id="g478">
              <path
                 id="path480"
                 style="fill:#ffcc4d;fill-opacity:1;fill-rule:nonzero;stroke:none"
                 d="m 0,0 c 0,-7 -4.923,-7 -4.923,-7 l -22.154,0 c 0,0 -4.923,0 -4.923,7 0,0 1.231,22 16,22 C -1.23,22 0,0 0,0"
                 inkscape:connector-curvature="0" />
            </g>
            <g
               transform="translate(12,20)"
               id="g482">
              <path
                 id="path484"
                 style="fill:#272b2b;fill-opacity:1;fill-rule:nonzero;stroke:none"
                 d="M 0,0 C 0,0 0,2 2,2 4,2 4,0 4,0 l 0,-2 c 0,0 0,-2 -2,-2 -2,0 -2,2 -2,2 l 0,2 z"
                 inkscape:connector-curvature="0" />
            </g>
            <g
               transform="translate(22,20)"
               id="g486">
              <path
                 id="path488"
                 style="fill:#272b2b;fill-opacity:1;fill-rule:nonzero;stroke:none"
                 d="M 0,0 C 0,0 0,2 2,2 4,2 4,0 4,0 l 0,-2 c 0,0 0,-2 -2,-2 -2,0 -2,2 -2,2 l 0,2 z"
                 inkscape:connector-curvature="0" />
            </g>
            <g
               transform="translate(24.6777,14)"
               id="g490">
              <path
                 id="path492"
                 style="fill:#ffffff;fill-opacity:1;fill-rule:nonzero;stroke:none"
                 d="M 0,0 C -2.402,0 -4.501,-0.953 -5.678,-2.378 -6.855,-0.953 -8.955,0 -11.356,0 c -10.322,0 -10.279,-0.421 -10.322,-3.182 -0.087,-5.61 6.631,-6.9 10.322,-6.818 2.401,0.053 4.501,0.989 5.678,2.397 C -4.501,-9.011 -2.401,-9.947 0,-10 3.691,-10.082 10.409,-8.792 10.321,-3.182 10.278,-0.421 10.321,0 0,0"
                 inkscape:connector-curvature="0" />
            </g>
            <g
               transform="translate(34.6602,11.7578)"
               id="g494">
              <path
                 id="path496"
                 style="fill:#272b2b;fill-opacity:1;fill-rule:nonzero;stroke:none"
                 d="m 0,0 c 0.204,-0.279 0.333,-0.588 0.339,-0.939 0.03,-1.906 -0.745,-3.303 -1.915,-4.328 L -6.661,-5.758 0,0 Z"
                 inkscape:connector-curvature="0" />
            </g>
            <g
               transform="translate(16,12)"
               id="g498">
              <path
                 id="path500"
                 style="fill:#272b2b;fill-opacity:1;fill-rule:nonzero;stroke:none"
                 d="M 0,0 C -1,-1 2,-4 3,-4 4,-4 7,-1 6,0 5,1 1,1 0,0"
                 inkscape:connector-curvature="0" />
            </g>
            <g
               transform="translate(11,34)"
               id="g502">
              <path
                 id="path504"
                 style="fill:#272b2b;fill-opacity:1;fill-rule:nonzero;stroke:none"
                 d="m 0,0 c 2.667,-2 8,-4 8,-4 0,0 5.333,2 8,4 L 8,-1 0,0 Z"
                 inkscape:connector-curvature="0" />
            </g>
            <g
               transform="translate(19,35)"
               id="g506">
              <path
                 id="path508"
                 style="fill:#272b2b;fill-opacity:1;fill-rule:nonzero;stroke:none"
                 d="M 0,0 C 0,0 1.652,0.62 3.576,1.514 2.48,1.822 1.295,2 0,2 -1.295,2 -2.48,1.822 -3.576,1.514 -1.652,0.62 0,0 0,0"
                 inkscape:connector-curvature="0" />
            </g>
            <g
               transform="translate(12,28)"
               id="g510">
              <path
                 id="path512"
                 style="fill:#272b2b;fill-opacity:1;fill-rule:nonzero;stroke:none"
                 d="m 0,0 c 3,-2 7,-4 7,-4 0,0 4,2 7,4 L 7,-1 0,0 Z"
                 inkscape:connector-curvature="0" />
            </g>
            <g
               transform="translate(32.6445,25.7153)"
               id="g514">
              <path
                 id="path82"
                 style="fill:#272b2b;fill-opacity:1;fill-rule:nonzero;stroke:none"
                 d="M 0,0 -4.645,-3.715 1.361,-4.466 C 1.027,-3.064 0.584,-1.537 0,0"
                 inkscape:connector-curvature="0" />
            </g>
            <g
               transform="translate(34.5557,18.5557)"
               id="g517">
              <path
                 id="path519"
                 style="fill:#272b2b;fill-opacity:1;fill-rule:nonzero;stroke:none"
                 d="m 0,0 -5.556,-5.556 5.835,0 c 0.102,0.595 0.165,1.251 0.165,2 0,0 -0.081,1.43 -0.444,3.556"
                 inkscape:connector-curvature="0" />
            </g>
            <g
               transform="translate(3.4443,18.5557)"
               id="g521">
              <path
                 id="path523"
                 style="fill:#272b2b;fill-opacity:1;fill-rule:nonzero;stroke:none"
                 d="m 0,0 c -0.363,-2.126 -0.444,-3.556 -0.444,-3.556 0,-0.748 0.063,-1.405 0.165,-2 l 5.835,0 L 0,0 Z"
                 inkscape:connector-curvature="0" />
            </g>
            <g
               transform="translate(3.3389,11.7578)"
               id="g525">
              <path
                 id="path527"
                 style="fill:#272b2b;fill-opacity:1;fill-rule:nonzero;stroke:none"
                 d="m 0,0 c -0.204,-0.279 -0.333,-0.588 -0.339,-0.939 -0.03,-1.906 0.745,-3.303 1.916,-4.328 L 6.661,-5.758 0,0 Z"
                 inkscape:connector-curvature="0" />
            </g>
            <g
               transform="translate(10,22)"
               id="g529">
              <path
                 id="path531"
                 style="fill:#272b2b;fill-opacity:1;fill-rule:nonzero;stroke:none"
                 d="M 0,0 -4.644,3.715 C -5.229,2.178 -5.672,0.651 -6.005,-0.75 L 0,0 Z"
                 inkscape:connector-curvature="0" />
            </g>
          </g>
        </g>
      </g>
    </g>
    <g
       transform="matrix(-0.93105978,0.06510604,-0.06510604,-0.93105978,132.70425,63.787484)"
       id="g533">
      <g
         transform="matrix(1.25,0,0,-1.25,0,45)"
         id="g535">
        <g
           id="g537">
          <g
             clip-path="url(#clipPath16)"
             id="g539">
            <g
               transform="translate(36,18)"
               id="g541">
              <path
                 id="path543"
                 style="fill:#ffcc4d;fill-opacity:1;fill-rule:nonzero;stroke:none"
                 d="m 0,0 c 0,-9.941 -8.059,-18 -18,-18 -9.94,0 -18,8.059 -18,18 0,9.94 8.06,18 18,18 C -8.059,18 0,9.94 0,0"
                 inkscape:connector-curvature="0" />
            </g>
            <g
               transform="translate(14,21.5)"
               id="g545">
              <path
                 id="path547"
                 style="fill:#664500;fill-opacity:1;fill-rule:nonzero;stroke:none"
                 d="M 0,0 C 0,-1.934 -1.119,-3.5 -2.5,-3.5 -3.881,-3.5 -5,-1.934 -5,0 -5,1.933 -3.881,3.5 -2.5,3.5 -1.119,3.5 0,1.933 0,0"
                 inkscape:connector-curvature="0" />
            </g>
            <g
               transform="translate(27,21.5)"
               id="g549">
              <path
                 id="path551"
                 style="fill:#664500;fill-opacity:1;fill-rule:nonzero;stroke:none"
                 d="M 0,0 C 0,-1.934 -1.119,-3.5 -2.5,-3.5 -3.881,-3.5 -5,-1.934 -5,0 -5,1.933 -3.881,3.5 -2.5,3.5 -1.119,3.5 0,1.933 0,0"
                 inkscape:connector-curvature="0" />
            </g>
            <g
               transform="translate(8.665,8.1286)"
               id="g553">
              <path
                 id="path555"
                 style="fill:#664500;fill-opacity:1;fill-rule:nonzero;stroke:none"
                 d="m 0,0 c 0.178,-0.161 0.444,-0.171 0.635,-0.029 0.039,0.029 3.922,2.9 8.7,2.9 4.766,0 8.662,-2.871 8.7,-2.9 0.191,-0.142 0.457,-0.13 0.635,0.029 0.177,0.16 0.217,0.424 0.094,0.628 C 18.635,0.843 15.547,5.871 9.335,5.871 3.123,5.871 0.034,0.843 -0.094,0.628 -0.217,0.423 -0.178,0.16 0,0"
                 inkscape:connector-curvature="0" />
            </g>
          </g>
        </g>
      </g>
    </g>
  </g>
</svg>
