<?xml version="1.0" encoding="UTF-8" standalone="no"?>
<svg
   xmlns:dc="http://purl.org/dc/elements/1.1/"
   xmlns:cc="http://creativecommons.org/ns#"
   xmlns:rdf="http://www.w3.org/1999/02/22-rdf-syntax-ns#"
   xmlns:svg="http://www.w3.org/2000/svg"
   xmlns="http://www.w3.org/2000/svg"
   xmlns:sodipodi="http://sodipodi.sourceforge.net/DTD/sodipodi-0.dtd"
   xmlns:inkscape="http://www.inkscape.org/namespaces/inkscape"
   version="1.1"
   id="svg2"
   viewBox="0 0 200 200"
   height="200px"
   width="200px"
   inkscape:version="0.91 r13725"
   sodipodi:docname="116.svg">
  <metadata
     id="metadata537">
    <rdf:RDF>
      <cc:Work
         rdf:about="">
        <dc:format>image/svg+xml</dc:format>
        <dc:type
           rdf:resource="http://purl.org/dc/dcmitype/StillImage" />
      </cc:Work>
    </rdf:RDF>
  </metadata>
  <sodipodi:namedview
     pagecolor="#ffffff"
     bordercolor="#666666"
     borderopacity="1"
     objecttolerance="10"
     gridtolerance="10"
     guidetolerance="10"
     inkscape:pageopacity="0"
     inkscape:pageshadow="2"
     inkscape:window-width="1920"
     inkscape:window-height="1060"
     id="namedview535"
     showgrid="false"
     inkscape:zoom="4.32"
     inkscape:cx="100.46296"
     inkscape:cy="100"
     inkscape:window-x="0"
     inkscape:window-y="0"
     inkscape:window-maximized="1"
     inkscape:current-layer="g279" />
  
    <defs id="defs6">

        <clipPath
           id="clipPath28"
           clipPathUnits="userSpaceOnUse">
          <path
             id="path30"
             d="M 4,36 C 0,36 0,32 0,32 L 0,32 0,4 C 0,0 4,0 4,0 l 0,0 28,0 c 4,0 4,4 4,4 l 0,0 0,28 c 0,4 -4,4 -4,4 l 0,0 -28,0 z" />
        </clipPath>


        <clipPath clipPathUnits="userSpaceOnUse" id="clipPath16-rugby">
            <path d="M 0,38 38,38 38,0 0,0 0,38 Z" id="path18"/>
        </clipPath>
        <clipPath clipPathUnits="userSpaceOnUse" id="clipPath28-rugby">
            <path d="M 9.254,28.746 C 2.09,21.582 -0.927,9.561 3.929,3.929 l 0,0 C 9.561,-0.927 21.582,2.09 28.746,9.254 l 0,0 c 7.164,7.164 11.229,17.088 5.324,24.816 l 0,0 c -1.886,1.627 -4.489,2.371 -7.387,2.37 l 0,0 c -5.752,0 -12.665,-2.93 -17.429,-7.694" id="path30"/>
        </clipPath>

        <clipPath clipPathUnits="userSpaceOnUse" id="clipPath16-carrot">
            <path d="M 0,36 36,36 36,0 0,0 0,36 Z" id="path18"/>
        </clipPath>
        <clipPath clipPathUnits="userSpaceOnUse" id="clipPath32-carrot">
            <path d="M 11.815,23.013 C 4.2,15.397 -1.265,2.86 0.502,1.093 l 0,0 c 1.768,-1.768 14.305,3.698 21.92,11.313 l 0,0 c 7.616,7.615 7.562,11.53 4.243,14.85 l 0,0 c -1.328,1.328 -2.752,2.133 -4.47,2.133 l 0,0 c -2.575,0 -5.812,-1.809 -10.38,-6.376" id="path34"/>
        </clipPath>

        <clipPath clipPathUnits="userSpaceOnUse" id="clipPath32-hat">
            <path d="m 5,33.666 c 0,-0.034 0.018,-0.067 0.022,-0.101 l 0,0 C 5.008,33.455 5,33.335 5,33.2 l 0,0 L 6.802,9.616 C 3.299,8.705 1,7.424 1,6 L 1,6 C 1,3.238 9.611,1 19,1 l 0,0 c 9.389,0 18,2.238 18,5 l 0,0 c 0,1.424 -2.298,2.705 -5.801,3.616 l 0,0 L 33,33.184 c 0,0.135 -0.008,0.263 -0.021,0.373 l 0,0 C 32.982,33.591 33,33.632 33,33.666 l 0,0 c 0,1.805 -6.268,3.267 -14,3.267 l 0,0 c -7.732,0 -14,-1.462 -14,-3.267" id="path34"/>
        </clipPath>


        <clipPath clipPathUnits="userSpaceOnUse" id="clipPath48-soccer">
            <path d="M 1,19 C 1,9.059 9.059,1 19,1 l 0,0 c 9.941,0 18,8.059 18,18 l 0,0 c 0,9.941 -8.059,18 -18,18 l 0,0 C 9.059,37 1,28.941 1,19" id="path50"/>
        </clipPath>

        <clipPath clipPathUnits="userSpaceOnUse" id="clipPath28-baguette">
            <path d="M 24.052,31.33 5.126,12.406 C 1.342,8.62 1.288,4.133 2.856,2.564 l 0,0 C 4.424,0.997 8.912,1.049 12.697,4.835 l 0,0 18.925,18.924 c 3.784,3.785 3.837,8.273 2.269,9.841 l 0,0 c -0.605,0.606 -1.647,0.969 -2.915,0.969 l 0,0 c -2.014,0 -4.602,-0.917 -6.924,-3.239" id="path30"/>
        </clipPath>
    </defs>

  <g
     id="layer1">
    <circle
       style="opacity:1;fill:white;stroke:black;stroke-width:1;stroke-miterlimit:4;stroke-dasharray:none;stroke-opacity:0.1"
       id="path4039-0-9"
       cx="100px"
       cy="100px"
       r="90px" />
    <g
       transform="matrix(0.62646175,0.22801343,-0.22801343,0.62646175,112.54417,71.690975)"
       id="g8">
      <g
         transform="matrix(1.25,0,0,-1.25,0,47.5)"
         id="g10">
        <g
           id="g12">
          <g
             clip-path="url(#clipPath16)"
             id="g14">
            <g
               transform="translate(37,29.999)"
               id="g20">
              <path
                 id="path22"
                 style="fill:#3b88c3;fill-opacity:1;fill-rule:nonzero;stroke:none"
                 d="m 0,0 c -2,-3 -2,1 -5,-2 -3,2 -3,-3 -6,0 0.899,-2.699 3.419,-4.574 6.1,-4.926 -0.277,-1.789 0.202,-3.946 -2.1,-6.073 -2.008,-1.857 -3.023,-0.312 -8,2.999 -3,1.996 -5,4 -10,3 -5.883,-1.177 -11,-5.999 -11,-7.999 0,-2 3,-13.969 21,-13.969 2,0 5.243,0.664 8,2.969 5.955,4.978 5.882,15.349 4.58,19.456 C -0.64,-5.416 0,-2.393 0,0"
                 inkscape:connector-curvature="0" />
            </g>
            <g
               transform="translate(31.2139,5.1875)"
               id="g24">
              <path
                 id="path26"
                 style="fill:#55acee;fill-opacity:1;fill-rule:nonzero;stroke:none"
                 d="m 0,0 c 0.149,0.165 0.289,0.338 0.429,0.511 1.879,2.35 2.902,5.348 3.355,8.29 -1.999,-4.996 -3.006,-9.988 -13.998,-9.988 -11,0 -15,13 -20,11 0,-2.001 3,-13.969 21,-13.969 2,0 5.243,0.664 8,2.969 0.318,0.265 0.612,0.553 0.9,0.848 C -0.208,-0.228 -0.103,-0.115 0,0"
                 inkscape:connector-curvature="0" />
            </g>
            <g
               transform="translate(9,15.5)"
               id="g28">
              <path
                 id="path35"
                 style="fill:#292f33;fill-opacity:1;fill-rule:nonzero;stroke:none"
                 d="M 0,0 C 0,-0.828 -0.671,-1.5 -1.5,-1.5 -2.329,-1.5 -3,-0.828 -3,0 -3,0.828 -2.329,1.5 -1.5,1.5 -0.671,1.5 0,0.828 0,0"
                 inkscape:connector-curvature="0" />
            </g>
          </g>
        </g>
      </g>
    </g>
    <g
       transform="matrix(-0.81197505,0.18745921,-0.18745921,-0.81197505,123.88796,61.000544)"
       id="g21">
      <g
         transform="matrix(1.25,0,0,-1.25,0,47.5)"
         id="g23">
        <g
           id="g25">
          <g
             clip-path="url(#clipPath16)"
             id="g27">
            <g
               transform="translate(36,19)"
               id="g29">
              <path
                 id="path31"
                 style="fill:#ffcc4d;fill-opacity:1;fill-rule:nonzero;stroke:none"
                 d="m 0,0 c 0,-9.389 -7.611,-17 -17,-17 -9.388,0 -17,7.611 -17,17 0,9.388 7.612,17 17,17 C -7.611,17 0,9.388 0,0"
                 inkscape:connector-curvature="0" />
            </g>
            <g
               transform="translate(19,15)"
               id="g33">
              <path
                 id="path44"
                 style="fill:#664500;fill-opacity:1;fill-rule:nonzero;stroke:none"
                 d="m 0,0 c -3.623,0 -6.027,0.422 -9,1 -0.679,0.131 -2,0 -2,-2 0,-4 4.595,-9 11,-9 6.404,0 11,5 11,9 C 11,1 9.679,1.132 9,1 6.027,0.422 3.623,0 0,0"
                 inkscape:connector-curvature="0" />
            </g>
            <g
               transform="translate(10,14)"
               id="g37">
              <path
                 id="path39"
                 style="fill:#ffffff;fill-opacity:1;fill-rule:nonzero;stroke:none"
                 d="m 0,0 c 0,0 3,-1 9,-1 6,0 9,1 9,1 0,0 -2,-4 -9,-4 -7,0 -9,4 -9,4"
                 inkscape:connector-curvature="0" />
            </g>
            <g
               transform="translate(31.5996,18.7998)"
               id="g32">
              <path
                 id="path49"
                 style="fill:#664500;fill-opacity:1;fill-rule:nonzero;stroke:none"
                 d="M 0,0 C -0.114,0.085 -1.931,1.426 -4.646,2.344 -4.619,2.459 -4.6,2.577 -4.6,2.7 -4.6,3.069 -4.738,3.403 -4.959,3.664 -3.156,4.185 -1.625,4.2 -1.598,4.2 -1.047,4.202 -0.6,4.65 -0.601,5.202 -0.602,5.753 -1.048,6.2 -1.6,6.2 -1.82,6.2 -7.051,6.163 -10.307,2.907 -10.593,2.621 -10.679,2.191 -10.523,1.817 -10.369,1.444 -10.004,1.2 -9.6,1.2 c 4.59,0 8.364,-2.772 8.402,-2.801 0.18,-0.133 0.389,-0.198 0.597,-0.198 0.305,0 0.606,0.139 0.802,0.401 C 0.531,-0.956 0.441,-0.331 0,0"
                 inkscape:connector-curvature="0" />
            </g>
            <g
               transform="translate(16.707,21.707)"
               id="g36">
              <path
                 id="path38"
                 style="fill:#664500;fill-opacity:1;fill-rule:nonzero;stroke:none"
                 d="m 0,0 c -3.255,3.255 -8.486,3.293 -8.707,3.293 -0.552,0 -0.999,-0.447 -0.999,-0.999 -0.001,-0.551 0.446,-1 0.998,-1.001 0.026,0 1.558,-0.016 3.36,-0.536 -0.22,-0.261 -0.359,-0.595 -0.359,-0.964 0,-0.123 0.019,-0.241 0.047,-0.356 -2.716,-0.918 -4.533,-2.259 -4.647,-2.344 -0.442,-0.331 -0.531,-0.958 -0.2,-1.4 0.196,-0.262 0.497,-0.4 0.801,-0.4 0.208,0 0.419,0.065 0.599,0.2 0.037,0.028 3.787,2.8 8.4,2.8 0.404,0 0.769,0.244 0.924,0.617 C 0.372,-0.716 0.286,-0.286 0,0"
                 inkscape:connector-curvature="0" />
            </g>
          </g>
        </g>
      </g>
    </g>
    <g
       transform="matrix(-0.52443366,-0.64762163,0.64762163,-0.52443366,37.662246,134.68033)"
       id="g45">
      <g
         transform="matrix(1.25,0,0,-1.25,0,45)"
         id="g47">
        <g
           id="g49">
          <g
             clip-path="url(#clipPath16)"
             id="g51">
            <g
               transform="translate(30,0)"
               id="g53">
              <path
                 id="path55"
                 style="fill:#9266cc;fill-opacity:1;fill-rule:nonzero;stroke:none"
                 d="m 0,0 0,4 c -0.041,3.516 -2.013,5 -5,5 l -15,0 c -2.986,0 -4,-1.983 -4,-5 l 0,-4 24,0 z"
                 inkscape:connector-curvature="0" />
            </g>
            <g
               transform="translate(17.4546,29.4536)"
               id="g57">
              <path
                 id="path59"
                 style="fill:#963b22;fill-opacity:1;fill-rule:nonzero;stroke:none"
                 d="m 0,0 c 3.741,0 9.974,-1.871 9.974,-9.974 0,-8.106 0,-9.975 -1.87,-9.975 -1.87,0 -4.363,1.869 -8.104,1.869 -3.741,0 -6.182,-1.869 -8.105,-1.869 -2.084,0 -1.87,7.483 -1.87,9.975 C -9.975,-1.871 -3.741,0 0,0"
                 inkscape:connector-curvature="0" />
            </g>
            <g
               transform="translate(26,9.8371)"
               id="g61">
              <path
                 id="path63"
                 style="fill:#9266cc;fill-opacity:1;fill-rule:nonzero;stroke:none"
                 d="m 0,0 0.018,-0.836 -20.018,0 0,-9.001 24,0 0,9.835 L 0,0 Z"
                 inkscape:connector-curvature="0" />
            </g>
            <g
               transform="translate(14,9.0001)"
               id="g65">
              <path
                 id="path67"
                 style="fill:#d5ab88;fill-opacity:1;fill-rule:nonzero;stroke:none"
                 d="M 0,0 C 0,0 0.85,-2.063 3.55,-2.063 6.25,-2.063 7,0 7,0 L 6.976,3.9 0,4 0,0 Z"
                 inkscape:connector-curvature="0" />
            </g>
            <g
               transform="translate(14.0193,11.3136)"
               id="g69">
              <path
                 id="path71"
                 style="fill:#cc9b7a;fill-opacity:1;fill-rule:nonzero;stroke:none"
                 d="m 0,0 c 1.058,-1.207 2.049,-1.51 3.477,-1.51 1.426,0 2.426,0.304 3.484,1.51 l 0,2.5 L 0,2.5 0,0 Z"
                 inkscape:connector-curvature="0" />
            </g>
            <g
               transform="translate(9.9722,19.7515)"
               id="g40">
              <path
                 id="path42"
                 style="fill:#d5ab88;fill-opacity:1;fill-rule:nonzero;stroke:none"
                 d="m 0,0 c 0,5.316 3.35,9.625 7.482,9.625 4.131,0 7.48,-4.309 7.48,-9.625 0,-5.313 -3.349,-9.37 -7.48,-9.37 C 3.35,-9.37 0,-5.313 0,0"
                 inkscape:connector-curvature="0" />
            </g>
            <g
               transform="translate(17.4546,12.6221)"
               id="g44">
              <path
                 id="path46"
                 style="fill:#df1f32;fill-opacity:1;fill-rule:nonzero;stroke:none"
                 d="m 0,0 c -1.464,0 -2.23,0.723 -2.312,0.807 -0.243,0.244 -0.243,0.638 0,0.882 0.242,0.239 0.631,0.241 0.876,0.004 C -1.404,1.664 -0.934,1.246 0,1.246 0.946,1.246 1.416,1.678 1.435,1.695 1.685,1.928 2.077,1.922 2.312,1.678 2.549,1.432 2.549,1.047 2.309,0.807 2.229,0.723 1.463,0 0,0"
                 inkscape:connector-curvature="0" />
            </g>
            <g
               transform="translate(8.1421,16.7607)"
               id="g48">
              <path
                 id="path72"
                 style="fill:#963b22;fill-opacity:1;fill-rule:nonzero;stroke:none"
                 d="m 0,0 c -0.019,0.912 -0.04,0.205 -0.04,0.424 0,3.118 1.871,-0.449 1.871,1.771 0,2.222 1.247,2.444 2.493,3.69 0.624,0.625 1.87,1.847 1.87,1.847 0,0 3.118,-1.884 5.612,-1.884 2.491,0 4.987,-1.253 4.987,-3.746 0,-2.493 1.871,1.442 1.871,-1.674 0,-0.223 -0.021,0.484 -0.037,-0.428 l 0.655,0 c 0.005,1.822 0.005,1.753 0.005,2.919 0,8.103 -6.234,11.121 -9.975,11.121 -3.741,0 -9.974,-2.967 -9.974,-11.072 0,-0.722 -0.019,-1.146 0.007,-2.968 L 0,0 Z"
                 inkscape:connector-curvature="0" />
            </g>
            <g
               transform="translate(14.4141,17.7764)"
               id="g52">
              <path
                 id="path54"
                 style="fill:#662113;fill-opacity:1;fill-rule:nonzero;stroke:none"
                 d="m 0,0 0,0 c -0.423,0 -0.77,0.346 -0.77,0.771 l 0,0.769 c 0,0.423 0.347,0.771 0.77,0.771 0.424,0 0.771,-0.348 0.771,-0.771 l 0,-0.769 C 0.771,0.346 0.424,0 0,0"
                 inkscape:connector-curvature="0" />
            </g>
            <g
               transform="translate(20.5771,17.7764)"
               id="g56">
              <path
                 id="path58"
                 style="fill:#662113;fill-opacity:1;fill-rule:nonzero;stroke:none"
                 d="m 0,0 0,0 c -0.424,0 -0.771,0.346 -0.771,0.771 l 0,0.769 c 0,0.423 0.347,0.771 0.771,0.771 0.424,0 0.771,-0.348 0.771,-0.771 l 0,-0.769 C 0.771,0.346 0.424,0 0,0"
                 inkscape:connector-curvature="0" />
            </g>
            <g
               transform="translate(18.2666,15.3936)"
               id="g60">
              <path
                 id="path62"
                 style="fill:#c1694f;fill-opacity:1;fill-rule:nonzero;stroke:none"
                 d="m 0,0 -1.541,0 c -0.212,0 -0.385,0.174 -0.385,0.387 l 0,0.138 c 0,0.215 0.173,0.389 0.385,0.389 l 1.541,0 c 0.212,0 0.385,-0.174 0.385,-0.389 l 0,-0.138 C 0.385,0.174 0.212,0 0,0"
                 inkscape:connector-curvature="0" />
            </g>
            <g
               transform="translate(5.8945,21.7949)"
               id="g64">
              <path
                 id="path66"
                 style="fill:#d1d3d4;fill-opacity:1;fill-rule:nonzero;stroke:none"
                 d="m 0,0 c 0,0 -3.834,-1.39 -4.214,-6.221 0,0 -2.4,4.817 -0.522,10.15 L 0,0 Z"
                 inkscape:connector-curvature="0" />
            </g>
            <g
               transform="translate(20.0508,30.0229)"
               id="g68">
              <path
                 id="path70"
                 style="fill:#d1d3d4;fill-opacity:1;fill-rule:nonzero;stroke:none"
                 d="m 0,0 c 0,0 -2.758,3.005 -7.363,1.497 0,0 3.523,4.069 9.168,4.386 L 0,0 Z"
                 inkscape:connector-curvature="0" />
            </g>
            <g
               transform="translate(29.2715,19.6631)"
               id="g72">
              <path
                 id="path74"
                 style="fill:#d1d3d4;fill-opacity:1;fill-rule:nonzero;stroke:none"
                 d="m 0,0 c 0,0 1.972,3.571 -0.923,7.457 0,0 4.978,-2.046 7.075,-7.296 L 0,0 Z"
                 inkscape:connector-curvature="0" />
            </g>
            <g
               transform="translate(8.103,25.0137)"
               id="g76">
              <path
                 id="path78"
                 style="fill:#5c913b;fill-opacity:1;fill-rule:nonzero;stroke:none"
                 d="M 0,0 C 0,-1.933 -1.567,-3.5 -3.5,-3.5 -5.433,-3.5 -7,-1.933 -7,0 -7,1.933 -5.433,3.5 -3.5,3.5 -1.567,3.5 0,1.933 0,0"
                 inkscape:connector-curvature="0" />
            </g>
            <g
               transform="translate(26.0156,32.5)"
               id="g80">
              <path
                 id="path82"
                 style="fill:#be1931;fill-opacity:1;fill-rule:nonzero;stroke:none"
                 d="M 0,0 C 0,-1.933 -1.566,-3.5 -3.5,-3.5 -5.433,-3.5 -7,-1.933 -7,0 -7,1.933 -5.433,3.5 -3.5,3.5 -1.566,3.5 0,1.933 0,0"
                 inkscape:connector-curvature="0" />
            </g>
            <g
               transform="translate(35.8955,18.1455)"
               id="g84">
              <path
                 id="path86"
                 style="fill:#3b88c3;fill-opacity:1;fill-rule:nonzero;stroke:none"
                 d="M 0,0 C 0,-1.933 -1.566,-3.5 -3.5,-3.5 -5.434,-3.5 -7,-1.933 -7,0 -7,1.933 -5.434,3.5 -3.5,3.5 -1.566,3.5 0,1.933 0,0"
                 inkscape:connector-curvature="0" />
            </g>
            <g
               transform="translate(32.6455,12.5117)"
               id="g88">
              <path
                 id="path90"
                 style="fill:#cc9b7a;fill-opacity:1;fill-rule:nonzero;stroke:none"
                 d="m 0,0 c -0.111,0.538 -0.634,0.884 -1.169,0.774 l -2.057,-0.43 -1.808,0 c -0.85,0 -1.538,-0.696 -1.538,-1.555 l 0,-0.776 0,-0.777 3.846,0 c 0.83,0 1.503,0.666 1.533,1.496 l 0.273,0.057 0.503,0 c 0,0.059 -0.022,0.113 -0.035,0.169 C -0.11,-0.827 0.085,-0.421 0,0"
                 inkscape:connector-curvature="0" />
            </g>
            <g
               transform="translate(36.0752,12.0791)"
               id="g92">
              <path
                 id="path94"
                 style="fill:#d5ab88;fill-opacity:1;fill-rule:nonzero;stroke:none"
                 d="M 0,0 C 0,0.429 -0.344,0.776 -0.77,0.776 L -5.386,0 -9.232,0 c -0.426,0 -0.77,-0.349 -0.77,-0.778 l -0.073,-1.551 1.611,-0.002 3.078,0 4.616,1.553 C -0.77,-0.778 0,-0.43 0,0"
                 inkscape:connector-curvature="0" />
            </g>
            <g
               transform="translate(3.4302,8.7637)"
               id="g96">
              <path
                 id="path98"
                 style="fill:#cc9b7a;fill-opacity:1;fill-rule:nonzero;stroke:none"
                 d="m 0,0 c 0.11,0.538 0.633,0.884 1.168,0.774 l 2.058,-0.43 1.807,0 c 0.85,0 1.539,-0.696 1.539,-1.555 l 0,-0.776 0,-0.777 -3.847,0 c -0.829,0 -1.503,0.666 -1.532,1.496 l -0.273,0.057 -0.503,0 c 0,0.059 0.022,0.113 0.035,0.169 C 0.11,-0.827 -0.085,-0.421 0,0"
                 inkscape:connector-curvature="0" />
            </g>
            <g
               transform="translate(0,8.3311)"
               id="g100">
              <path
                 id="path102"
                 style="fill:#d5ab88;fill-opacity:1;fill-rule:nonzero;stroke:none"
                 d="M 0,0 C 0,0.429 0.344,0.776 0.769,0.776 L 5.386,0 9.233,0 c 0.425,0 0.769,-0.349 0.769,-0.778 l 0,-1.553 -1.539,0 -3.077,0 -4.617,1.553 C 0.769,-0.778 0,-0.43 0,0"
                 inkscape:connector-curvature="0" />
            </g>
            <path
               id="path104"
               style="fill:#744eaa;fill-opacity:1;fill-rule:nonzero;stroke:none"
               d="m 11,6 -1,0 0,-6 1,0 0,6 z"
               inkscape:connector-curvature="0" />
            <path
               id="path106"
               style="fill:#744eaa;fill-opacity:1;fill-rule:nonzero;stroke:none"
               d="m 26,9 -1,0 0,-9 1,0 0,9 z"
               inkscape:connector-curvature="0" />
          </g>
        </g>
      </g>
    </g>
    <g
       transform="matrix(-0.52751585,0.50941614,-0.50941614,-0.52751585,175.69145,132.82393)"
       id="g107">
      <g
         transform="matrix(1.25,0,0,-1.25,0,45)"
         id="g109">
        <g
           id="g111">
          <g
             clip-path="url(#clipPath16)"
             id="g113">
            <g
               transform="translate(36,18)"
               id="g115">
              <path
                 id="path117"
                 style="fill:#ffcc4d;fill-opacity:1;fill-rule:nonzero;stroke:none"
                 d="m 0,0 c 0,-9.941 -8.059,-18 -18,-18 -9.94,0 -18,8.059 -18,18 0,9.94 8.06,18 18,18 C -8.059,18 0,9.94 0,0"
                 inkscape:connector-curvature="0" />
            </g>
            <g
               transform="translate(30,22.5)"
               id="g119">
              <path
                 id="path121"
                 style="fill:#f5f8fa;fill-opacity:1;fill-rule:nonzero;stroke:none"
                 d="m 0,0 c 0,-3.037 -2.463,-5.5 -5.5,-5.5 -3.037,0 -5.5,2.463 -5.5,5.5 0,3.037 2.463,5.5 5.5,5.5 C -2.463,5.5 0,3.037 0,0"
                 inkscape:connector-curvature="0" />
            </g>
            <g
               transform="translate(17,22.5)"
               id="g123">
              <path
                 id="path125"
                 style="fill:#f5f8fa;fill-opacity:1;fill-rule:nonzero;stroke:none"
                 d="m 0,0 c 0,-3.037 -2.463,-5.5 -5.5,-5.5 -3.037,0 -5.5,2.463 -5.5,5.5 0,3.037 2.463,5.5 5.5,5.5 C -2.463,5.5 0,3.037 0,0"
                 inkscape:connector-curvature="0" />
            </g>
            <g
               transform="translate(14,25.5)"
               id="g127">
              <path
                 id="path129"
                 style="fill:#664500;fill-opacity:1;fill-rule:nonzero;stroke:none"
                 d="M 0,0 C 0,-1.381 -1.119,-2.5 -2.5,-2.5 -3.881,-2.5 -5,-1.381 -5,0 -5,1.38 -3.881,2.5 -2.5,2.5 -1.119,2.5 0,1.38 0,0"
                 inkscape:connector-curvature="0" />
            </g>
            <g
               transform="translate(27,25.5)"
               id="g131">
              <path
                 id="path133"
                 style="fill:#664500;fill-opacity:1;fill-rule:nonzero;stroke:none"
                 d="M 0,0 C 0,-1.381 -1.119,-2.5 -2.5,-2.5 -3.881,-2.5 -5,-1.381 -5,0 -5,1.38 -3.881,2.5 -2.5,2.5 -1.119,2.5 0,1.38 0,0"
                 inkscape:connector-curvature="0" />
            </g>
            <g
               transform="translate(23,9)"
               id="g135">
              <path
                 id="path137"
                 style="fill:#664500;fill-opacity:1;fill-rule:nonzero;stroke:none"
                 d="m 0,0 -10,0 c -0.552,0 -1,0.447 -1,1 0,0.553 0.448,1 1,1 L 0,2 C 0.553,2 1,1.553 1,1 1,0.447 0.553,0 0,0"
                 inkscape:connector-curvature="0" />
            </g>
          </g>
        </g>
      </g>
    </g>
    <g
       transform="matrix(0.25726153,-0.89717758,0.89717758,0.25726153,32.344663,76.043624)"
       id="g139">
      <g
         transform="matrix(1.25,0,0,-1.25,0,45)"
         id="g141">
        <g
           id="g143">
          <g
             clip-path="url(#clipPath16)"
             id="g145">
            <g
               transform="translate(27.2952,28.4738)"
               id="g147">
              <path
                 id="path149"
                 style="fill:#66757f;fill-opacity:1;fill-rule:nonzero;stroke:none"
                 d="m 0,0 c -1.152,3.054 -2.65,6.8 -8.298,6.915 -1.759,0.036 -1.521,-0.539 -0.347,-1.02 2.248,-0.922 -2.474,-5.438 4.759,-7.4 C 1.761,-3.036 1.152,-3.054 0,0"
                 inkscape:connector-curvature="0" />
            </g>
            <g
               transform="translate(36.004,32.097)"
               id="g151">
              <path
                 id="path153"
                 style="fill:#99aab5;fill-opacity:1;fill-rule:nonzero;stroke:none"
                 d="m 0,0 c -7.737,0 -14.41,-2.514 -18.105,-5.757 -4.875,-4.28 -5.38,-10.306 -14.034,-15.66 -2.847,-1.76 -0.423,-7.517 1.152,-9.618 1.908,-2.544 28.617,-0.238 30.987,8.777 L 0,0 Z"
                 inkscape:connector-curvature="0" />
            </g>
            <g
               transform="translate(8.6762,6.3477)"
               id="g155">
              <path
                 id="path157"
                 style="fill:#66757f;fill-opacity:1;fill-rule:nonzero;stroke:none"
                 d="m 0,0 c 1.011,-0.507 1.787,-1.051 1.318,-1.986 -0.469,-0.937 -1.173,-0.25 -2.184,0.257 -1.012,0.507 -2.286,0.018 -1.816,0.954 C -2.213,0.16 -1.012,0.507 0,0"
                 inkscape:connector-curvature="0" />
            </g>
            <g
               transform="translate(34.2021,29.6736)"
               id="g159">
              <path
                 id="path161"
                 style="fill:#66757f;fill-opacity:1;fill-rule:nonzero;stroke:none"
                 d="M 0,0 C 0.238,2.563 -2.178,4.999 -5.95,5.907 -7.635,6.312 -9.231,6.256 -8.295,5.429 -6.502,3.844 -8.377,1.422 -7.021,-1.695 -6.292,-3.369 -3.783,-5.449 -2.302,-5.516 -1.246,-5.564 -0.248,-2.668 0,0"
                 inkscape:connector-curvature="0" />
            </g>
            <g
               transform="translate(33.2467,29.6736)"
               id="g163">
              <path
                 id="path165"
                 style="fill:#99aab5;fill-opacity:1;fill-rule:nonzero;stroke:none"
                 d="M 0,0 C 0.238,2.563 -2.272,5.445 -6.17,6.007 -7.886,6.254 -8.457,5.92 -7.522,5.093 -5.728,3.508 -8.16,1.466 -6.804,-1.652 -6.076,-3.326 -3.41,-5.492 -1.929,-5.559 -0.873,-5.607 -0.248,-2.668 0,0"
                 inkscape:connector-curvature="0" />
            </g>
            <g
               transform="translate(2.6386,9.1021)"
               id="g167">
              <path
                 id="path169"
                 style="fill:#ccd6dd;fill-opacity:1;fill-rule:nonzero;stroke:none"
                 d="m 0,0 c -2.552,3.983 -3.626,11.971 -1.491,17.597 0.321,0.845 1.083,1.071 1.178,-0.13 C -0.132,15.185 2.104,10.634 7.653,6.499 8.894,5.575 1.94,-3.028 0,0"
                 inkscape:connector-curvature="0" />
            </g>
            <g
               transform="translate(13.2484,20.6131)"
               id="g171">
              <path
                 id="path173"
                 style="fill:#ccd6dd;fill-opacity:1;fill-rule:nonzero;stroke:none"
                 d="M 0,0 C -2.048,0.852 -3.609,3.189 -4.092,4.661 -4.669,6.419 -6.244,0.734 -3.24,-4.23 -2.034,-6.224 1.413,-0.588 0,0"
                 inkscape:connector-curvature="0" />
            </g>
            <g
               transform="translate(18.7886,14.9936)"
               id="g175">
              <path
                 id="path177"
                 style="fill:#292f33;fill-opacity:1;fill-rule:nonzero;stroke:none"
                 d="m 0,0 c 0,-1.105 -0.896,-2 -2,-2 -1.105,0 -2,0.895 -2,2 0,1.104 0.895,2 2,2 1.104,0 2,-0.896 2,-2"
                 inkscape:connector-curvature="0" />
            </g>
            <g
               transform="translate(30.2934,26.59)"
               id="g179">
              <path
                 id="path181"
                 style="fill:#e6aaaa;fill-opacity:1;fill-rule:nonzero;stroke:none"
                 d="M 0,0 C 1.331,-0.105 1.954,1.737 1.216,4.691 0.572,7.266 -3.036,7.938 -3.011,7.76 -2.986,7.581 -1.954,6.211 -2.997,4.821 -4.012,3.468 -1.65,0.13 0,0"
                 inkscape:connector-curvature="0" />
            </g>
          </g>
        </g>
      </g>
    </g>
    <g
       transform="matrix(-0.28501679,0.78307718,-0.78307718,-0.28501679,168.87384,37.683061)"
       id="g183">
      <g
         transform="matrix(1.25,0,0,-1.25,0,47.5)"
         id="g185">
        <g
           id="g187">
          <g
             clip-path="url(#clipPath16)"
             id="g189">
            <g
               transform="translate(29.0684,5.6445)"
               id="g191">
              <path
                 id="path193"
                 style="fill:#ffac33;fill-opacity:1;fill-rule:nonzero;stroke:none"
                 d="M 0,0 C -2.229,0 -8.468,-0.785 -10.068,-1.832 -11.669,-0.785 -17.908,0 -20.137,0 c -2.565,0 -1.161,-1.039 -1.161,-2.322 0,-1.282 -1.404,-2.323 1.161,-2.323 2.229,0 8.468,0.786 10.069,1.832 1.6,-1.046 7.839,-1.832 10.068,-1.832 2.565,0 1.161,1.041 1.161,2.323 C 1.161,-1.039 2.565,0 0,0"
                 inkscape:connector-curvature="0" />
            </g>
            <g
               transform="translate(32.7305,21.1338)"
               id="g195">
              <path
                 id="path197"
                 style="fill:#292f33;fill-opacity:1;fill-rule:nonzero;stroke:none"
                 d="m 0,0 c -1.25,2.499 -3.152,4.995 -4.942,6.723 -2.452,5.432 -6.03,9.143 -8.788,9.143 -2.759,0 -6.337,-3.71 -8.788,-9.142 C -24.309,4.995 -26.211,2.5 -27.461,0 c -2.438,-4.876 -3.116,-11.426 -2.078,-11.944 0.873,-0.437 2.324,1.551 4.208,5.082 0.268,-10.876 7.047,-10.95 11.601,-10.95 4.552,0 11.333,0.074 11.6,10.948 1.884,-3.529 3.335,-5.517 4.207,-5.08 C 3.115,-11.426 2.438,-4.876 0,0"
                 inkscape:connector-curvature="0" />
            </g>
            <g
               transform="translate(22.6748,30.0566)"
               id="g199">
              <path
                 id="path201"
                 style="fill:#f5f8fa;fill-opacity:1;fill-rule:nonzero;stroke:none"
                 d="m 0,0 c -0.85,-0.607 -2.172,-1.186 -3.675,-1.186 -1.503,0 -2.825,0.579 -3.675,1.186 -3.302,-2.137 -5.615,-7.061 -5.615,-12.799 0,-7.695 4.159,-13.935 9.29,-13.935 5.132,0 9.291,6.24 9.291,13.935 C 5.616,-7.061 3.303,-2.137 0,0"
                 inkscape:connector-curvature="0" />
            </g>
            <g
               transform="translate(29.4521,31)"
               id="g203">
              <path
                 id="path205"
                 style="fill:#ffac33;fill-opacity:1;fill-rule:nonzero;stroke:none"
                 d="m 0,0 -5.808,0 c -3.847,0 -4.644,0.78 -4.644,1.743 0,0.962 -0.364,1.741 3.483,1.741 C -1.161,3.484 1.161,0 0,0"
                 inkscape:connector-curvature="0" />
            </g>
            <g
               transform="translate(17.8389,33.5166)"
               id="g207">
              <path
                 id="path209"
                 style="fill:#f5f8fa;fill-opacity:1;fill-rule:nonzero;stroke:none"
                 d="m 0,0 c 0,-0.642 -0.52,-1.162 -1.161,-1.162 -0.642,0 -1.161,0.52 -1.161,1.162 0,0.641 0.519,1.161 1.161,1.161 C -0.52,1.161 0,0.641 0,0"
                 inkscape:connector-curvature="0" />
            </g>
          </g>
        </g>
      </g>
    </g>
    <g
       transform="matrix(0,0.96666667,-0.96666667,0,92.703704,122.5)"
       id="g211">
      <g
         transform="matrix(1.25,0,0,-1.25,0,47.5)"
         id="g213">
        <g
           id="g215">
          <g
             clip-path="url(#clipPath16)"
             id="g217">
            <g
               transform="translate(29,10)"
               id="g219">
              <path
                 id="path221"
                 style="fill:#3e721d;fill-opacity:1;fill-rule:nonzero;stroke:none"
                 d="m 0,0 c -8,0 -8,-6 -8,-6 l 0,11 -4,0 0,-11 c 0,0 0,6 -8,6 -4,0 -7,2 -7,2 0,0 0,-9 9,-9 l 6,0 c 0,0 0,-2 2,-2 2,0 2,2 2,2 l 6,0 C 7,-7 7,2 7,2 7,2 4,0 0,0"
                 inkscape:connector-curvature="0" />
            </g>
            <g
               transform="translate(22.125,9.3379)"
               id="g223">
              <path
                 id="path225"
                 style="fill:#ffac33;fill-opacity:1;fill-rule:nonzero;stroke:none"
                 d="M 0,0 C -0.328,0 -0.651,0.097 -0.927,0.283 L -3.25,1.858 -5.572,0.283 C -5.849,0.097 -6.173,0 -6.501,0 -6.645,0 -6.788,0.018 -6.93,0.057 -7.392,0.18 -7.78,0.498 -7.99,0.931 L -9.214,3.458 -12.012,3.254 C -12.051,3.252 -12.091,3.25 -12.13,3.25 c -0.438,0 -0.86,0.174 -1.17,0.484 -0.34,0.342 -0.516,0.811 -0.482,1.288 l 0.201,2.8 -2.523,1.225 c -0.432,0.209 -0.751,0.598 -0.875,1.061 -0.125,0.464 -0.042,0.958 0.228,1.356 l 1.573,2.323 -1.573,2.322 c -0.27,0.398 -0.353,0.893 -0.228,1.358 0.124,0.462 0.443,0.85 0.875,1.06 l 2.523,1.224 -0.201,2.798 c -0.034,0.48 0.142,0.951 0.482,1.288 0.309,0.312 0.732,0.485 1.17,0.485 0.039,0 0.079,0 0.118,-0.003 l 2.798,-0.201 1.224,2.523 c 0.21,0.432 0.598,0.751 1.06,0.876 0.142,0.037 0.285,0.057 0.429,0.057 0.328,0 0.651,-0.098 0.929,-0.285 l 2.322,-1.574 2.323,1.574 c 0.276,0.187 0.599,0.285 0.927,0.285 0.144,0 0.29,-0.02 0.428,-0.057 0.465,-0.125 0.853,-0.444 1.062,-0.876 l 1.225,-2.523 2.8,0.201 c 0.037,0.003 0.078,0.003 0.116,0.003 0.437,0 0.858,-0.173 1.172,-0.485 0.338,-0.337 0.514,-0.808 0.48,-1.288 L 7.079,19.751 9.606,18.527 c 0.433,-0.21 0.751,-0.598 0.874,-1.06 0.124,-0.465 0.043,-0.96 -0.226,-1.358 l -1.575,-2.322 1.575,-2.323 c 0.269,-0.398 0.35,-0.892 0.226,-1.356 C 10.357,9.645 10.039,9.256 9.606,9.047 L 7.079,7.822 7.283,5.022 C 7.317,4.545 7.141,4.076 6.803,3.734 6.489,3.424 6.068,3.25 5.631,3.25 5.593,3.25 5.552,3.252 5.515,3.254 L 2.715,3.458 1.49,0.931 C 1.281,0.498 0.893,0.18 0.428,0.057 0.289,0.018 0.144,0 0,0"
                 inkscape:connector-curvature="0" />
            </g>
            <g
               transform="translate(26,23)"
               id="g227">
              <path
                 id="path229"
                 style="fill:#732700;fill-opacity:1;fill-rule:nonzero;stroke:none"
                 d="m 0,0 c 0,3.866 -3.135,7 -7,7 -3.866,0 -7,-3.134 -7,-7 0,-3.866 3.134,-7 7,-7 3.865,0 7,3.134 7,7"
                 inkscape:connector-curvature="0" />
            </g>
          </g>
        </g>
      </g>
    </g>
    <g
       transform="matrix(-0.72786718,-0.08937085,0.08937085,-0.72786718,174.44904,104.03105)"
       id="g231">
      <g
         transform="matrix(1.25,0,0,-1.25,0,47.5)"
         id="g233">
        <g
           id="g235">
          <g
             clip-path="url(#clipPath16)"
             id="g237">
            <g
               transform="translate(24,1)"
               id="g239">
              <path
                 id="path241"
                 style="fill:#dd2e44;fill-opacity:1;fill-rule:nonzero;stroke:none"
                 d="M 0,0 C -0.263,0 -0.519,0.104 -0.707,0.293 -3.05,2.635 -7,20.104 -7,22 c 0,0.282 0.101,1.687 2.094,1.687 2.113,0 5.878,-1.587 6.3,-1.768 C 1.762,21.762 2,21.4 2,21 2,19.511 6.406,10.267 9.857,4.515 10.086,4.133 10.036,3.646 9.733,3.32 9.432,2.994 8.95,2.907 8.553,3.105 L 3.295,5.734 C 2.854,5.009 2.364,3.866 1.919,2.828 1.586,2.05 1.241,1.246 0.895,0.553 0.751,0.266 0.478,0.064 0.16,0.013 0.106,0.004 0.053,0 0,0"
                 inkscape:connector-curvature="0" />
            </g>
            <g
               transform="translate(13,1)"
               id="g243">
              <path
                 id="path245"
                 style="fill:#dd2e44;fill-opacity:1;fill-rule:nonzero;stroke:none"
                 d="M 0,0 C -0.053,0 -0.107,0.004 -0.16,0.013 -0.478,0.064 -0.75,0.266 -0.895,0.553 -1.241,1.246 -1.586,2.05 -1.919,2.828 -2.364,3.866 -2.854,5.009 -3.295,5.734 L -8.553,3.105 C -8.951,2.905 -9.431,2.995 -9.734,3.32 -10.036,3.646 -10.086,4.133 -9.857,4.515 -6.406,10.267 -2,19.511 -2,21 c 0,0.4 0.238,0.762 0.606,0.919 0.422,0.181 4.187,1.768 6.3,1.768 C 6.899,23.687 7,22.282 7,22 7,20.104 3.049,2.635 0.707,0.293 0.518,0.104 0.263,0 0,0"
                 inkscape:connector-curvature="0" />
            </g>
            <g
               transform="translate(3,33.3081)"
               id="g247">
              <path
                 id="path249"
                 style="fill:#dd2e44;fill-opacity:1;fill-rule:nonzero;stroke:none"
                 d="m 0,0 0,-13.499 c 0,-4.499 11.375,0.9 14.974,4.5 3.6,3.6 -0.063,5.399 -0.063,6.299 C 14.911,-1.8 0,7.199 0,0"
                 inkscape:connector-curvature="0" />
            </g>
          </g>
        </g>
        <g
           id="g251">
          <g
             clip-path="url(#clipPath36)"
             id="g34">
            <g
               transform="translate(19.8999,25.209)"
               id="g254">
              <path
                 id="path256"
                 style="fill:#a0041e;fill-opacity:1;fill-rule:nonzero;stroke:none"
                 d="m 0,0 c -13.499,0 -17.098,-5.399 -17.098,-7.199 0,-1.8 9.899,-5.4 12.598,-2.699 C -1.8,-7.199 0,0 0,0"
                 inkscape:connector-curvature="0" />
            </g>
          </g>
        </g>
        <g
           id="g258">
          <g
             clip-path="url(#clipPath48)"
             id="g46">
            <g
               transform="translate(35,33.3081)"
               id="g261">
              <path
                 id="path263"
                 style="fill:#dd2e44;fill-opacity:1;fill-rule:nonzero;stroke:none"
                 d="m 0,0 0,-13.499 c 0,-4.499 -10.99,0.9 -14.59,4.5 -3.599,3.6 -0.129,5.399 -0.129,6.299 C -14.719,-1.8 0,7.199 0,0"
                 inkscape:connector-curvature="0" />
            </g>
          </g>
        </g>
        <g
           id="g265">
          <g
             clip-path="url(#clipPath60)"
             id="g58">
            <g
               transform="translate(18.7705,25.209)"
               id="g268">
              <path
                 id="path270"
                 style="fill:#a0041e;fill-opacity:1;fill-rule:nonzero;stroke:none"
                 d="m 0,0 c 13.499,0 17.099,-5.399 17.099,-7.199 0,-1.8 -9.9,-5.4 -12.599,-2.699 C 1.8,-7.199 0,0 0,0"
                 inkscape:connector-curvature="0" />
            </g>
          </g>
        </g>
        <g
           id="g272">
          <g
             clip-path="url(#clipPath72)"
             id="g70">
            <g
               transform="translate(23,25.5996)"
               id="g275">
              <path
                 id="path277"
                 style="fill:#ea596e;fill-opacity:1;fill-rule:nonzero;stroke:none"
                 d="m 0,0 c 0,-1.988 -1.611,-3.6 -3.599,-3.6 l -1.802,0 C -7.389,-3.6 -9,-1.988 -9,0 l 0,3.801 C -9,5.789 -7.389,7.4 -5.401,7.4 l 1.802,0 C -1.611,7.4 0,5.789 0,3.801 L 0,0 Z"
                 inkscape:connector-curvature="0" />
            </g>
          </g>
        </g>
      </g>
    </g>
    <g
       transform="translate(55.5 144.5) rotate(61 15 15) scale(0.6333333333333333)"
       id="g279">
      <g
         transform="matrix(1.25,0,0,-1.25,36.77781,7.2992057)"
         id="g281">
        <g
           id="g283">
          <g
             clip-path="url(#clipPath16)"
             id="g285">
            <g
               transform="translate(18,33)"
               id="g287">
              <path
                 id="path289"
                 style="fill:#f2abba;fill-opacity:1;fill-rule:nonzero;stroke:none"
                 d="m 0,0 c 0,0 0,2 -3,2 -2,0 -5.375,-2.042 -6,-4 -2,0 -5,-4 -4,-7 -3,-1 -3.625,-8.042 -2,-9 -2,-2 -1,-7 3,-8 1.009,-3.095 3.6,-5.153 6,-5 0.875,-0.708 1.792,-1 3,-1 3,0 3,1.958 3,4.958 L 0,0 Z"
                 inkscape:connector-curvature="0" />
            </g>
            <g
               transform="translate(18,33)"
               id="g291">
              <path
                 id="path293"
                 style="fill:#f2abba;fill-opacity:1;fill-rule:nonzero;stroke:none"
                 d="m 0,0 c 0,0 0,2 3,2 2,0 5.375,-2.042 6,-4 2,0 5,-4 4,-7 3,-1 3.625,-8.042 2,-9 2,-2 1,-7 -3,-8 -1.009,-3.095 -3.6,-5.153 -6,-5 -0.875,-0.708 -1.792,-1 -3,-1 -3,0 -3,1.958 -3,4.958 L 0,0 Z"
                 inkscape:connector-curvature="0" />
            </g>
            <g
               transform="translate(12,25.5)"
               id="g295">
              <path
                 id="path297"
                 style="fill:#e75a70;fill-opacity:1;fill-rule:nonzero;stroke:none"
                 d="M 0,0 C -0.052,0 -0.105,0.008 -0.158,0.026 -2.802,0.907 -3.5,3.338 -3.5,4.5 c 0,0.275 0.223,0.498 0.498,0.499 l 0.002,0 c 0.274,0 0.498,-0.222 0.5,-0.497 C -2.499,4.394 -2.451,1.844 0.158,0.974 0.42,0.887 0.562,0.604 0.474,0.342 0.404,0.132 0.209,0 0,0"
                 inkscape:connector-curvature="0" />
            </g>
            <g
               transform="translate(12.0005,23.5)"
               id="g299">
              <path
                 id="path301"
                 style="fill:#e75a70;fill-opacity:1;fill-rule:nonzero;stroke:none"
                 d="M 0,0 C -0.184,0 -0.36,0.101 -0.448,0.276 -1.416,2.212 -0.07,3.524 0.776,3.947 1.023,4.069 1.323,3.971 1.447,3.724 1.57,3.478 1.471,3.178 1.225,3.054 1.067,2.973 -0.3,2.218 0.447,0.724 0.57,0.477 0.47,0.176 0.223,0.053 0.151,0.017 0.075,0 0,0"
                 inkscape:connector-curvature="0" />
            </g>
            <g
               transform="translate(9.2515,18.3906)"
               id="g303">
              <path
                 id="path305"
                 style="fill:#e75a70;fill-opacity:1;fill-rule:nonzero;stroke:none"
                 d="m 0,0 -0.41,0.135 c -3.229,1.076 -4.027,4.406 -4.059,4.547 -0.062,0.268 0.106,0.536 0.374,0.598 0.269,0.061 0.537,-0.105 0.6,-0.374 0.007,-0.028 0.649,-2.657 3.031,-3.681 0.44,0.652 1.498,1.884 3.213,1.884 0.276,0 0.5,-0.223 0.5,-0.5 0,-0.276 -0.224,-0.5 -0.5,-0.5 C 1.09,2.109 0.204,0.402 0.195,0.384 L 0,0 Z"
                 inkscape:connector-curvature="0" />
            </g>
            <g
               transform="translate(10.9995,14.6387)"
               id="g307">
              <path
                 id="path309"
                 style="fill:#e75a70;fill-opacity:1;fill-rule:nonzero;stroke:none"
                 d="M 0,0 C -0.055,0 -0.112,0.009 -0.167,0.028 -0.426,0.121 -0.562,0.403 -0.472,0.663 -0.46,0.696 0.731,3.941 5.122,2.847 5.39,2.779 5.553,2.508 5.485,2.24 5.418,1.972 5.144,1.812 4.879,1.876 1.394,2.748 0.508,0.428 0.471,0.33 0.397,0.127 0.205,0 0,0"
                 inkscape:connector-curvature="0" />
            </g>
            <g
               transform="translate(7.9995,9.5)"
               id="g311">
              <path
                 id="path313"
                 style="fill:#e75a70;fill-opacity:1;fill-rule:nonzero;stroke:none"
                 d="m 0,0 c -0.075,0 -0.151,0.017 -0.223,0.053 -1.518,0.759 -1.668,2.063 -1.458,3 -1.832,0.28 -3.116,1.593 -3.176,1.655 -0.191,0.198 -0.185,0.514 0.013,0.706 0.198,0.191 0.515,0.185 0.706,-0.012 C -4.124,5.389 -2.754,4 -1,4 L -0.19,4 -0.552,3.276 C -0.629,3.118 -1.27,1.694 0.224,0.947 0.471,0.823 0.571,0.523 0.448,0.276 0.36,0.102 0.184,0 0,0"
                 inkscape:connector-curvature="0" />
            </g>
            <g
               transform="translate(13.0005,2.5)"
               id="g315">
              <path
                 id="path317"
                 style="fill:#e75a70;fill-opacity:1;fill-rule:nonzero;stroke:none"
                 d="M 0,0 C -0.131,0 -0.262,0.051 -0.36,0.153 -0.551,0.352 -0.546,0.668 -0.348,0.859 -0.33,0.877 1.463,2.639 1.017,4.282 0.945,4.549 1.102,4.823 1.368,4.896 1.635,4.967 1.91,4.811 1.982,4.544 2.584,2.328 0.438,0.229 0.346,0.14 0.25,0.047 0.125,0 0,0"
                 inkscape:connector-curvature="0" />
            </g>
            <g
               transform="translate(15.1562,6.4121)"
               id="g319">
              <path
                 id="path321"
                 style="fill:#e75a70;fill-opacity:1;fill-rule:nonzero;stroke:none"
                 d="M 0,0 C -1.894,0 -2.571,1.3 -2.603,1.363 -2.727,1.61 -2.627,1.911 -2.381,2.035 -2.134,2.158 -1.837,2.06 -1.712,1.817 -1.681,1.76 -1.082,0.72 0.747,1.078 1.016,1.134 1.28,0.956 1.334,0.685 1.388,0.414 1.211,0.151 0.941,0.098 0.598,0.029 0.285,0 0,0"
                 inkscape:connector-curvature="0" />
            </g>
            <g
               transform="translate(12.7334,30.9932)"
               id="g323">
              <path
                 id="path325"
                 style="fill:#e75a70;fill-opacity:1;fill-rule:nonzero;stroke:none"
                 d="M 0,0 C -0.12,0 -0.24,0.043 -0.336,0.13 -0.54,0.315 -0.556,0.63 -0.371,0.835 -0.319,0.892 0.917,2.241 2.479,2.28 3.265,2.308 3.99,1.991 4.62,1.36 4.815,1.165 4.815,0.849 4.62,0.653 4.425,0.458 4.108,0.458 3.913,0.653 3.479,1.087 2.994,1.298 2.509,1.28 1.378,1.254 0.38,0.174 0.37,0.164 0.271,0.055 0.136,0 0,0"
                 inkscape:connector-curvature="0" />
            </g>
            <g
               transform="translate(24,25.5)"
               id="g327">
              <path
                 id="path329"
                 style="fill:#e75a70;fill-opacity:1;fill-rule:nonzero;stroke:none"
                 d="M 0,0 C -0.209,0 -0.404,0.132 -0.475,0.342 -0.562,0.604 -0.42,0.887 -0.158,0.974 2.451,1.844 2.499,4.394 2.5,4.502 2.502,4.778 2.695,5.01 3.002,4.999 3.277,4.998 3.5,4.775 3.5,4.5 3.5,3.338 2.802,0.907 0.158,0.026 0.105,0.008 0.053,0 0,0"
                 inkscape:connector-curvature="0" />
            </g>
            <g
               transform="translate(24,23.5)"
               id="g331">
              <path
                 id="path333"
                 style="fill:#e75a70;fill-opacity:1;fill-rule:nonzero;stroke:none"
                 d="M 0,0 C -0.075,0 -0.151,0.017 -0.224,0.053 -0.471,0.176 -0.57,0.477 -0.447,0.724 0.308,2.233 -1.064,2.973 -1.224,3.053 -1.471,3.176 -1.57,3.477 -1.447,3.724 -1.323,3.971 -1.022,4.069 -0.776,3.947 0.07,3.524 1.415,2.212 0.447,0.276 0.359,0.101 0.183,0 0,0"
                 inkscape:connector-curvature="0" />
            </g>
            <g
               transform="translate(26.749,18.3892)"
               id="g335">
              <path
                 id="path337"
                 style="fill:#e75a70;fill-opacity:1;fill-rule:nonzero;stroke:none"
                 d="m 0,0 -0.195,0.386 c -0.009,0.017 -0.896,1.725 -2.554,1.725 -0.276,0 -0.5,0.223 -0.5,0.5 0,0.276 0.224,0.5 0.5,0.5 1.715,0 2.772,-1.233 3.212,-1.885 C 2.859,2.253 3.487,4.879 3.494,4.907 3.555,5.175 3.821,5.348 4.093,5.282 4.362,5.221 4.53,4.952 4.469,4.683 4.437,4.542 3.639,1.213 0.409,0.137 L 0,0 Z"
                 inkscape:connector-curvature="0" />
            </g>
            <g
               transform="translate(25,14.6367)"
               id="g339">
              <path
                 id="path341"
                 style="fill:#e75a70;fill-opacity:1;fill-rule:nonzero;stroke:none"
                 d="M 0,0 C -0.206,0 -0.398,0.128 -0.471,0.332 -0.507,0.431 -1.404,2.75 -4.879,1.878 -5.146,1.816 -5.419,1.975 -5.485,2.242 -5.552,2.51 -5.39,2.781 -5.121,2.849 -0.732,3.946 0.46,0.698 0.472,0.665 0.563,0.404 0.426,0.119 0.165,0.028 0.11,0.009 0.055,0 0,0"
                 inkscape:connector-curvature="0" />
            </g>
            <g
               transform="translate(28,9.5)"
               id="g343">
              <path
                 id="path345"
                 style="fill:#e75a70;fill-opacity:1;fill-rule:nonzero;stroke:none"
                 d="m 0,0 c -0.183,0 -0.359,0.102 -0.447,0.276 -0.123,0.247 -0.024,0.547 0.223,0.671 1.509,0.755 0.856,2.17 0.777,2.329 L 0.191,4 1,4 C 2.755,4 4.125,5.389 4.139,5.402 4.333,5.599 4.646,5.606 4.846,5.413 5.044,5.222 5.05,4.906 4.858,4.708 4.798,4.646 3.514,3.333 1.682,3.053 1.892,2.116 1.741,0.812 0.224,0.053 0.151,0.017 0.075,0 0,0"
                 inkscape:connector-curvature="0" />
            </g>
            <g
               transform="translate(23,2.5)"
               id="g347">
              <path
                 id="path349"
                 style="fill:#e75a70;fill-opacity:1;fill-rule:nonzero;stroke:none"
                 d="M 0,0 C -0.125,0 -0.25,0.047 -0.347,0.14 -0.438,0.229 -2.584,2.328 -1.982,4.544 -1.91,4.81 -1.637,4.967 -1.369,4.896 -1.103,4.823 -0.945,4.549 -1.018,4.282 -1.466,2.631 0.329,0.878 0.347,0.86 0.546,0.669 0.552,0.352 0.36,0.153 0.262,0.051 0.131,0 0,0"
                 inkscape:connector-curvature="0" />
            </g>
            <g
               transform="translate(20.8438,6.4121)"
               id="g351">
              <path
                 id="path353"
                 style="fill:#e75a70;fill-opacity:1;fill-rule:nonzero;stroke:none"
                 d="m 0,0 c -0.285,0 -0.599,0.029 -0.94,0.098 -0.272,0.053 -0.448,0.316 -0.394,0.587 0.054,0.271 0.321,0.451 0.587,0.393 1.848,-0.362 2.434,0.694 2.46,0.74 C 1.841,2.06 2.142,2.155 2.386,2.028 2.628,1.902 2.726,1.607 2.603,1.363 2.571,1.3 1.893,0 0,0"
                 inkscape:connector-curvature="0" />
            </g>
            <g
               transform="translate(23.2666,30.9932)"
               id="g355">
              <path
                 id="path357"
                 style="fill:#e75a70;fill-opacity:1;fill-rule:nonzero;stroke:none"
                 d="m 0,0 c -0.136,0 -0.271,0.055 -0.37,0.164 -0.01,0.01 -1.008,1.09 -2.139,1.116 -0.519,0.024 -0.97,-0.193 -1.404,-0.627 -0.195,-0.195 -0.512,-0.195 -0.707,0 -0.195,0.196 -0.195,0.512 0,0.707 0.63,0.63 1.323,0.955 2.141,0.92 C -0.918,2.241 0.319,0.892 0.371,0.835 0.556,0.63 0.54,0.315 0.336,0.13 0.24,0.043 0.12,0 0,0"
                 inkscape:connector-curvature="0" />
            </g>
            <g
               transform="translate(18.5,32)"
               id="g359">
              <path
                 id="path361"
                 style="fill:#e75a70;fill-opacity:1;fill-rule:nonzero;stroke:none"
                 d="m 0,0 -1,0 c -0.275,0 -0.5,-0.225 -0.5,-0.5 l 0,-26 c 0,-0.275 0.225,-0.5 0.5,-0.5 l 1,0 c 0.275,0 0.5,0.225 0.5,0.5 l 0,26 C 0.5,-0.225 0.275,0 0,0"
                 inkscape:connector-curvature="0" />
            </g>
          </g>
        </g>
      </g>
    </g>
    <g
       transform="matrix(-0.1316774,0.61949348,-0.61949348,-0.1316774,154.68904,147.33535)"
       id="g363">
      <g
         transform="matrix(1.25,0,0,-1.25,0,47.5)"
         id="g365">
        <g
           id="g367">
          <g
             clip-path="url(#clipPath16)"
             id="g369">
            <g
               transform="translate(17.522,36.7676)"
               id="g371">
              <path
                 id="path373"
                 style="fill:#ea596e;fill-opacity:1;fill-rule:nonzero;stroke:none"
                 d="m 0,0 c 2.246,0 4.832,-1.375 6.703,-3.249 1.873,-1.874 3.775,-3.927 3.775,-5.998 l 0,-17.204 -15.974,-0.031 0,17.133 C -5.589,-7.844 -4.421,0 0,0"
                 inkscape:connector-curvature="0" />
            </g>
            <g
               transform="translate(20,25.6221)"
               id="g375">
              <path
                 id="path377"
                 style="fill:#dd2e44;fill-opacity:1;fill-rule:nonzero;stroke:none"
                 d="m 0,0 0,-16.622 c 0,-1.105 0.896,0 2,0 l 0,-2 c 1.104,0 2,0.895 2,2 L 4,-0.956 C 2.742,-0.851 1.35,-0.693 0,0"
                 inkscape:connector-curvature="0" />
            </g>
            <g
               transform="translate(23.0723,33.5454)"
               id="g379">
              <path
                 id="path381"
                 style="fill:#f4abba;fill-opacity:1;fill-rule:nonzero;stroke:none"
                 d="m 0,0 c 2.664,-2.391 4.277,-5.236 2.961,-6.699 -1.315,-1.464 -5.06,-0.991 -7.721,1.4 -2.661,2.39 -3.753,5.515 -2.439,6.978 C -5.883,3.143 -2.661,2.391 0,0"
                 inkscape:connector-curvature="0" />
            </g>
            <g
               transform="translate(31,3)"
               id="g383">
              <path
                 id="path385"
                 style="fill:#ffcc4d;fill-opacity:1;fill-rule:nonzero;stroke:none"
                 d="m 0,0 c 0,-1.104 -0.896,-2 -2,-2 l -18,0 c -1.104,0 -2,0.896 -2,2 l 0,6 c 0,1.104 0.896,2 2,2 L -2,8 C -0.896,8 0,7.104 0,6 L 0,0 Z"
                 inkscape:connector-curvature="0" />
            </g>
            <g
               transform="translate(32,3)"
               id="g387">
              <path
                 id="path389"
                 style="fill:#ffac33;fill-opacity:1;fill-rule:nonzero;stroke:none"
                 d="m 0,0 c 0,-1.104 -0.896,-2 -2,-2 l -20,0 c -1.104,0 -2,0.896 -2,2 l 0,1 c 0,1.104 0.896,2 2,2 L -2,3 C -0.896,3 0,2.104 0,1 L 0,0 Z"
                 inkscape:connector-curvature="0" />
            </g>
          </g>
        </g>
      </g>
    </g>
    <g
       transform="matrix(-0.61175302,0.16391873,-0.16391873,-0.61175302,130.12117,135.50475)"
       id="g391">
      <g
         transform="matrix(1.25,0,0,-1.25,0,45)"
         id="g393">
        <g
           id="g395">
          <g
             clip-path="url(#clipPath16)"
             id="g397">
            <g
               transform="translate(3.9233,13.0771)"
               id="g399">
              <path
                 id="path401"
                 style="fill:#66757f;fill-opacity:1;fill-rule:nonzero;stroke:none"
                 d="m 0,0 c -0.212,-0.511 -0.798,-0.751 -1.308,-0.539 -0.509,0.213 -0.751,0.798 -0.538,1.308 L 2.77,13.307 c 0.212,0.51 0.797,0.751 1.307,0.539 0.51,-0.213 0.751,-0.798 0.539,-1.308 L 0,0 Z"
                 inkscape:connector-curvature="0" />
            </g>
            <g
               transform="translate(13.9229,13.8457)"
               id="g403">
              <path
                 id="path405"
                 style="fill:#66757f;fill-opacity:1;fill-rule:nonzero;stroke:none"
                 d="m 0,0 c 0.212,-0.51 -0.029,-1.095 -0.539,-1.308 -0.509,-0.212 -1.095,0.029 -1.307,0.539 L -6.462,11.77 c -0.212,0.509 0.029,1.095 0.539,1.307 0.509,0.213 1.095,-0.029 1.307,-0.538 L 0,0 Z"
                 inkscape:connector-curvature="0" />
            </g>
            <g
               transform="translate(23.9238,13.0771)"
               id="g407">
              <path
                 id="path409"
                 style="fill:#66757f;fill-opacity:1;fill-rule:nonzero;stroke:none"
                 d="m 0,0 c -0.213,-0.511 -0.799,-0.751 -1.309,-0.539 -0.509,0.213 -0.75,0.798 -0.538,1.308 L 2.77,13.307 c 0.212,0.51 0.796,0.751 1.306,0.539 0.51,-0.213 0.752,-0.798 0.539,-1.308 L 0,0 Z"
                 inkscape:connector-curvature="0" />
            </g>
            <g
               transform="translate(33.9229,13.8457)"
               id="g411">
              <path
                 id="path413"
                 style="fill:#66757f;fill-opacity:1;fill-rule:nonzero;stroke:none"
                 d="m 0,0 c 0.212,-0.51 -0.028,-1.095 -0.538,-1.308 -0.51,-0.212 -1.096,0.029 -1.309,0.539 L -6.462,11.77 c -0.213,0.509 0.029,1.095 0.539,1.307 0.51,0.213 1.095,-0.029 1.307,-0.538 L 0,0 Z"
                 inkscape:connector-curvature="0" />
            </g>
            <g
               transform="translate(14.8569,14)"
               id="g415">
              <path
                 id="path417"
                 style="fill:#ffac33;fill-opacity:1;fill-rule:nonzero;stroke:none"
                 d="m 0,0 -13.714,0 c -0.631,0 -1.143,-0.511 -1.143,-1.143 0,-2.524 3.582,-4.571 8,-4.571 4.419,0 8,2.047 8,4.571 C 1.143,-0.511 0.631,0 0,0"
                 inkscape:connector-curvature="0" />
            </g>
            <g
               transform="translate(24,2)"
               id="g419">
              <path
                 id="path421"
                 style="fill:#ffac33;fill-opacity:1;fill-rule:nonzero;stroke:none"
                 d="m 0,0 -12,0 c -0.552,0 -1,0.447 -1,1 0,2.209 3.134,4 7,4 C -2.134,5 1,3.209 1,1 1,0.447 0.553,0 0,0"
                 inkscape:connector-curvature="0" />
            </g>
            <g
               transform="translate(34.8574,14)"
               id="g423">
              <path
                 id="path425"
                 style="fill:#ffac33;fill-opacity:1;fill-rule:nonzero;stroke:none"
                 d="m 0,0 -13.715,0 c -0.632,0 -1.142,-0.511 -1.142,-1.143 0,-2.524 3.581,-4.571 8,-4.571 4.418,0 8,2.047 8,4.571 C 1.143,-0.511 0.632,0 0,0"
                 inkscape:connector-curvature="0" />
            </g>
            <g
               transform="translate(19,33)"
               id="g427">
              <path
                 id="path429"
                 style="fill:#ffac33;fill-opacity:1;fill-rule:nonzero;stroke:none"
                 d="M 0,0 C 0,0.552 -0.447,1 -1,1 -1.552,1 -2,0.552 -2,0 l 0,-27 c 0,-0.553 0.448,-1 1,-1 0.553,0 1,0.447 1,1 L 0,0 Z"
                 inkscape:connector-curvature="0" />
            </g>
            <g
               transform="translate(20,32)"
               id="g431">
              <path
                 id="path433"
                 style="fill:#ffac33;fill-opacity:1;fill-rule:nonzero;stroke:none"
                 d="m 0,0 c 0,-1.104 -0.895,-2 -2,-2 -1.104,0 -2,0.896 -2,2 0,1.105 0.896,2 2,2 1.105,0 2,-0.895 2,-2"
                 inkscape:connector-curvature="0" />
            </g>
            <g
               transform="translate(10,26)"
               id="g435">
              <path
                 id="path437"
                 style="fill:#ffac33;fill-opacity:1;fill-rule:nonzero;stroke:none"
                 d="m 0,0 c 0,-1.104 -0.895,-2 -2,-2 -1.104,0 -2,0.896 -2,2 0,1.105 0.896,2 2,2 1.105,0 2,-0.895 2,-2"
                 inkscape:connector-curvature="0" />
            </g>
            <g
               transform="translate(30,26)"
               id="g439">
              <path
                 id="path441"
                 style="fill:#ffac33;fill-opacity:1;fill-rule:nonzero;stroke:none"
                 d="m 0,0 c 0,-1.104 -0.895,-2 -2,-2 -1.104,0 -2,0.896 -2,2 0,1.105 0.896,2 2,2 1.105,0 2,-0.895 2,-2"
                 inkscape:connector-curvature="0" />
            </g>
            <g
               transform="translate(28,26)"
               id="g443">
              <path
                 id="path445"
                 style="fill:#ffac33;fill-opacity:1;fill-rule:nonzero;stroke:none"
                 d="m 0,0 c 0,-1.104 0,0 -10,0 -10,0 -10,-1.104 -10,0 0,1.105 3,4 10,4 C -3,4 0,1.105 0,0"
                 inkscape:connector-curvature="0" />
            </g>
          </g>
        </g>
      </g>
    </g>
    <g
       transform="matrix(-0.69957358,0.02442965,-0.02442965,-0.69957358,99.014355,119.02293)"
       id="g447">
      <g
         transform="matrix(1.25,0,0,-1.25,0,45)"
         id="g449">
        <g
           id="g451">
          <g
             clip-path="url(#clipPath16)"
             id="g453">
            <g
               transform="translate(13.5,12.5109)"
               id="g455">
              <path
                 id="path457"
                 style="fill:#662113;fill-opacity:1;fill-rule:nonzero;stroke:none"
                 d="M 0,0 C 0,0 -1.103,-1.377 -0.737,-3.268 -0.512,-4.433 0.577,-5.635 2.038,-5.86 2.526,-5.936 2.764,-6.888 2.629,-7.588 2.476,-8.38 1.93,-9.49 1.63,-10.053 1.329,-10.617 0.74,-10.615 0.015,-11.266 -0.49,-11.72 -0.662,-12.511 0.202,-12.511 l 3.821,0 c 0.766,0 1.255,0.469 1.418,1.241 0.226,1.071 1.094,5.148 0.846,5.936 C 6.11,-4.77 5.51,-4.32 5.123,-3.231 4.836,-2.423 5.5,-0.263 5.5,-0.263 L 0,0 Z"
                 inkscape:connector-curvature="0" />
            </g>
            <g
               transform="translate(2.5397,13.1182)"
               id="g459">
              <path
                 id="path461"
                 style="fill:#662113;fill-opacity:1;fill-rule:nonzero;stroke:none"
                 d="m 0,0 c 0,0 0.797,0.724 1.344,0.937 0.547,0.214 2.554,0.058 3.065,0.165 0.511,0.106 1.363,0.97 1.363,0.97 0,0 2.144,-0.835 2.166,-1.04 0.023,-0.206 -1.439,-1.618 -1.76,-1.987 -0.321,-0.368 -2.316,0.537 -2.91,0.537 -0.594,0 -1.842,-0.534 -2.282,-0.783 -0.439,-0.249 -0.51,0.131 -0.261,0.404 0,0 -0.401,-0.49 -0.539,-0.31 -0.138,0.18 0.231,0.572 0.231,0.572 0,0 -0.345,-0.439 -0.535,-0.297 C -0.308,-0.689 -0.312,-0.376 0,0"
                 inkscape:connector-curvature="0" />
            </g>
            <g
               transform="translate(14.4155,29.3028)"
               id="g463">
              <path
                 id="path465"
                 style="fill:#662113;fill-opacity:1;fill-rule:nonzero;stroke:none"
                 d="m 0,0 c -0.233,-0.62 -0.831,-1.637 0.355,-1.72 1.185,-0.083 0.021,-1.248 -1.031,-1.323 -1.052,-0.075 -4.471,1.39 -4.095,2.254 0.376,0.864 1.88,1.803 3.044,1.578 C -0.563,0.563 0,0 0,0"
                 inkscape:connector-curvature="0" />
            </g>
            <g
               transform="translate(20.8125,30.5469)"
               id="g467">
              <path
                 id="path469"
                 style="fill:#f4900c;fill-opacity:1;fill-rule:nonzero;stroke:none"
                 d="m 0,0 c -0.078,-0.578 -0.234,-1 -0.344,-0.984 -0.109,0.015 -0.375,1.062 -0.375,1.062 0,0 -0.203,-1.156 -0.343,-1.14 C -1.203,-1.047 -1.344,0 -1.344,0 c 0,0 -0.234,-1.063 -0.39,-1.063 C -1.891,-1.062 -2.094,0 -2.094,0 c 0,0 -0.17,-1.052 -0.295,-1.067 -0.125,-0.016 -0.502,0.959 -0.502,0.959 0,0 -0.218,-0.986 -0.328,-0.986 -0.109,0 -0.422,0.986 -0.422,0.986 0,0 -0.187,-0.97 -0.281,-0.97 -0.094,0 -0.437,0.97 -0.437,0.97 0,0 -0.139,-1.04 -0.235,-1.064 -0.256,-0.062 -0.72,0.891 -0.72,0.891 0,0 0.218,-1.061 0.08,-1.079 -0.235,-0.032 -0.985,0.735 -0.985,0.735 0,0 0.953,0.953 1.719,1.109 0.766,0.157 4.016,0.782 4.391,0.641 C 0.266,0.984 0,0 0,0"
                 inkscape:connector-curvature="0" />
            </g>
            <g
               transform="translate(20.1757,27.8055)"
               id="g471">
              <path
                 id="path473"
                 style="fill:#f4900c;fill-opacity:1;fill-rule:nonzero;stroke:none"
                 d="M 0,0 C -0.137,0.567 -0.336,0.97 -0.444,0.944 -0.551,0.917 -0.575,-0.06 -0.575,-0.06 c 0,0 -0.453,1.037 -0.592,1.007 -0.138,-0.03 -0.061,-1.074 -0.061,-1.074 0,0 -0.452,1.021 -0.607,1.005 C -1.99,0.862 -1.927,-0.2 -1.927,-0.2 c 0,0 -0.522,1.093 -0.648,1.095 -0.126,0.003 -0.141,-1.067 -0.141,-1.067 0,0 -0.387,1.013 -0.496,1.001 -0.109,-0.011 -0.231,-1.108 -0.231,-1.108 0,0 -0.289,0.976 -0.383,0.966 -0.093,-0.01 -0.256,-1.016 -0.256,-1.016 0,0 -0.294,0.865 -0.39,0.886 -0.097,0.021 -0.221,-0.903 -0.221,-0.903 0,0 -0.289,0.683 -0.42,0.732 -0.131,0.049 -0.216,-0.879 -0.216,-0.879 0,0 0.125,-0.377 0.903,-0.453 0.778,-0.077 4.075,-0.363 4.433,-0.184 C 0.366,-0.952 0,0 0,0"
                 inkscape:connector-curvature="0" />
            </g>
            <g
               transform="translate(11.0346,28.5139)"
               id="g475">
              <path
                 id="path477"
                 style="fill:#ab7e59;fill-opacity:1;fill-rule:nonzero;stroke:none"
                 d="M 0,0 C 0.114,0.683 2.141,-0.338 2.554,-0.225 2.968,-0.113 4.62,1.54 5.071,1.578 5.522,1.615 9.542,1.69 9.992,1.916 10.443,2.141 10.18,3.907 9.767,4.395 9.354,4.884 7.889,5.973 6.161,6.161 4.433,6.349 3.231,6.386 2.667,6.687 2.104,6.987 0.864,7.1 0,6.687 -0.864,6.273 -3.944,5.785 -5.222,4.508 -6.499,3.231 -7.964,1.54 -8.302,-1.202 c -0.338,-2.742 0.516,-4.573 1.052,-5.582 0.393,-0.742 1.502,-3.509 1.765,-4.598 0.263,-1.09 1.846,-4.978 4.934,-5.88 3.089,-0.901 5.359,-2.648 8.177,-3.099 3.208,-0.513 9.091,0.188 12.096,2.067 3.005,1.878 4.47,3.794 4.47,6.31 0,2.517 -1.615,5.26 -3.869,5.335 -2.254,0.075 -0.789,-0.676 -0.113,-0.827 0.676,-0.15 1.991,-1.765 1.691,-3.193 -0.301,-1.427 -0.902,-2.517 -2.517,-2.554 -1.615,-0.038 -3.306,1.765 -4.208,2.968 -0.901,1.202 -4.958,3.339 -6.874,3.454 -1.916,0.114 -5.898,0.114 -6.386,1.316 -0.489,1.202 -0.376,1.804 -0.038,1.954 0.338,0.15 2.217,0.563 3.531,0.601 1.315,0.037 3.644,0.375 3.945,0.826 0.3,0.451 0.225,1.39 -0.113,1.428 -0.338,0.037 -2.442,-0.188 -3.043,-0.188 -0.601,0 -0.939,0.488 -1.578,0.301 C 3.982,-0.751 2.817,-1.465 2.329,-1.39 1.841,-1.315 -0.038,-0.225 0,0"
                 inkscape:connector-curvature="0" />
            </g>
            <g
               transform="translate(26.9516,9.7475)"
               id="g479">
              <path
                 id="path481"
                 style="fill:#8b5e3c;fill-opacity:1;fill-rule:nonzero;stroke:none"
                 d="m 0,0 c -2.693,-0.388 -7.846,0.466 -9.358,0.982 -1.512,0.516 -4.615,1.318 -6.801,1.781 -2.186,0.464 -3.884,2.299 -5.084,4.099 0.519,-1.484 2.069,-4.567 4.775,-5.357 3.089,-0.902 5.359,-2.648 8.177,-3.099 C -5.083,-2.107 0.8,-1.406 3.805,0.472 4.896,1.154 5.777,1.841 6.465,2.559 5.518,1.851 2.68,0.386 0,0"
                 inkscape:connector-curvature="0" />
            </g>
            <g
               transform="translate(12.8164,34.4318)"
               id="g483">
              <path
                 id="path485"
                 style="fill:#8b5e3c;fill-opacity:1;fill-rule:nonzero;stroke:none"
                 d="m 0,0 c 1.336,-0.208 0.203,-0.909 2.683,-0.904 0,0 -1.873,-1 -2.624,-1 -1.297,0 -1.568,0.644 -1.567,1.182 C -1.508,-0.238 -0.7,0.109 0,0"
                 inkscape:connector-curvature="0" />
            </g>
            <g
               transform="translate(13,33.5)"
               id="g487">
              <path
                 id="path489"
                 style="fill:#292f33;fill-opacity:1;fill-rule:nonzero;stroke:none"
                 d="M 0,0 C 0,-0.276 -0.224,-0.5 -0.5,-0.5 -0.776,-0.5 -1,-0.276 -1,0 -1,0.276 -0.776,0.5 -0.5,0.5 -0.224,0.5 0,0.276 0,0"
                 inkscape:connector-curvature="0" />
            </g>
            <g
               transform="translate(17.1319,11.2337)"
               id="g491">
              <path
                 id="path493"
                 style="fill:#ab7e59;fill-opacity:1;fill-rule:nonzero;stroke:none"
                 d="M 0,0 C 0,0 0.424,-1.503 1.796,-2.855 3.168,-4.207 5.917,-4.508 6.406,-4.583 6.894,-4.658 7.423,-4.846 7.648,-5.522 7.874,-6.198 8.299,-8.213 7.998,-8.776 7.697,-9.34 6.45,-9.654 6.111,-10.293 5.921,-10.65 5.428,-11.234 6.292,-11.234 l 4.576,0 c 0.766,0 0.954,0.603 0.954,1.392 0,0.789 0.263,2.066 -0.226,3.456 -0.488,1.39 -0.676,3.493 -1.502,3.719 -0.827,0.225 -2.142,2.479 -2.142,2.479 L 0,0 Z"
                 inkscape:connector-curvature="0" />
            </g>
            <g
               transform="translate(4.3548,9.2523)"
               id="g495">
              <path
                 id="path497"
                 style="fill:#ab7e59;fill-opacity:1;fill-rule:nonzero;stroke:none"
                 d="m 0,0 c 0,0 0.559,0.996 1.037,1.395 0.478,0.398 2.55,0.916 3.028,1.195 0.478,0.279 1.046,1.434 1.046,1.434 0,0 2.437,-0.119 2.528,-0.319 C 7.731,3.506 6.735,1.594 6.536,1.116 6.336,0.637 4.025,0.876 3.428,0.677 2.83,0.478 1.754,-0.478 1.396,-0.877 1.037,-1.275 0.838,-0.916 0.997,-0.558 c 0,0 -0.239,-0.628 -0.438,-0.493 -0.199,0.135 0.04,0.653 0.04,0.653 0,0 -0.199,-0.558 -0.438,-0.479 C -0.078,-0.797 -0.188,-0.483 0,0"
                 inkscape:connector-curvature="0" />
            </g>
            <g
               transform="translate(15.7104,20.337)"
               id="g499">
              <path
                 id="path501"
                 style="fill:#8b5e3c;fill-opacity:1;fill-rule:nonzero;stroke:none"
                 d="m 0,0 c 0,-0.318 -0.258,-0.576 -0.576,-0.576 -0.318,0 -0.576,0.258 -0.576,0.576 0,0.318 0.258,0.576 0.576,0.576 C -0.258,0.576 0,0.318 0,0"
                 inkscape:connector-curvature="0" />
            </g>
            <g
               transform="translate(18.7712,19.0734)"
               id="g503">
              <path
                 id="path505"
                 style="fill:#8b5e3c;fill-opacity:1;fill-rule:nonzero;stroke:none"
                 d="m 0,0 c 0,-0.453 -0.367,-0.82 -0.82,-0.82 -0.452,0 -0.819,0.367 -0.819,0.82 0,0.453 0.367,0.82 0.819,0.82 C -0.367,0.82 0,0.453 0,0"
                 inkscape:connector-curvature="0" />
            </g>
            <g
               transform="translate(17.1319,20.7451)"
               id="g507">
              <path
                 id="path509"
                 style="fill:#8b5e3c;fill-opacity:1;fill-rule:nonzero;stroke:none"
                 d="m 0,0 c 0,-0.241 -0.195,-0.436 -0.436,-0.436 -0.241,0 -0.436,0.195 -0.436,0.436 0,0.241 0.195,0.436 0.436,0.436 C -0.195,0.436 0,0.241 0,0"
                 inkscape:connector-curvature="0" />
            </g>
            <g
               transform="translate(20.0868,20.5054)"
               id="g511">
              <path
                 id="path513"
                 style="fill:#8b5e3c;fill-opacity:1;fill-rule:nonzero;stroke:none"
                 d="m 0,0 c 0,-0.228 -0.185,-0.412 -0.412,-0.412 -0.228,0 -0.413,0.184 -0.413,0.412 0,0.228 0.185,0.412 0.413,0.412 C -0.185,0.412 0,0.228 0,0"
                 inkscape:connector-curvature="0" />
            </g>
            <g
               transform="translate(22.6996,19.3307)"
               id="g515">
              <path
                 id="path517"
                 style="fill:#8b5e3c;fill-opacity:1;fill-rule:nonzero;stroke:none"
                 d="m 0,0 c 0,-0.421 -0.341,-0.762 -0.762,-0.762 -0.421,0 -0.763,0.341 -0.763,0.762 0,0.421 0.342,0.762 0.763,0.762 C -0.341,0.762 0,0.421 0,0"
                 inkscape:connector-curvature="0" />
            </g>
            <g
               transform="translate(25.5952,15.6776)"
               id="g519">
              <path
                 id="path521"
                 style="fill:#8b5e3c;fill-opacity:1;fill-rule:nonzero;stroke:none"
                 d="m 0,0 c 0,-0.27 -0.218,-0.488 -0.488,-0.488 -0.269,0 -0.488,0.218 -0.488,0.488 0,0.27 0.219,0.488 0.488,0.488 C -0.218,0.488 0,0.27 0,0"
                 inkscape:connector-curvature="0" />
            </g>
            <g
               transform="translate(21.0626,17.7658)"
               id="g523">
              <path
                 id="path525"
                 style="fill:#8b5e3c;fill-opacity:1;fill-rule:nonzero;stroke:none"
                 d="m 0,0 c 0,-0.27 -0.218,-0.488 -0.488,-0.488 -0.269,0 -0.488,0.218 -0.488,0.488 0,0.269 0.219,0.488 0.488,0.488 C -0.218,0.488 0,0.269 0,0"
                 inkscape:connector-curvature="0" />
            </g>
            <g
               transform="translate(25.4781,17.7658)"
               id="g527">
              <path
                 id="path529"
                 style="fill:#8b5e3c;fill-opacity:1;fill-rule:nonzero;stroke:none"
                 d="m 0,0 c 0,-0.27 -0.218,-0.488 -0.488,-0.488 -0.269,0 -0.488,0.218 -0.488,0.488 0,0.269 0.219,0.488 0.488,0.488 C -0.218,0.488 0,0.269 0,0"
                 inkscape:connector-curvature="0" />
            </g>
            <g
               transform="translate(23.9852,18.0195)"
               id="g531">
              <path
                 id="path533"
                 style="fill:#8b5e3c;fill-opacity:1;fill-rule:nonzero;stroke:none"
                 d="m 0,0 c 0,-0.399 -0.323,-0.722 -0.722,-0.722 -0.399,0 -0.722,0.323 -0.722,0.722 0,0.399 0.323,0.722 0.722,0.722 C -0.323,0.722 0,0.399 0,0"
                 inkscape:connector-curvature="0" />
            </g>
          </g>
        </g>
      </g>
    </g>
  </g>
</svg>
