<?xml version="1.0" encoding="UTF-8" standalone="no"?>
<svg
   xmlns:dc="http://purl.org/dc/elements/1.1/"
   xmlns:cc="http://creativecommons.org/ns#"
   xmlns:rdf="http://www.w3.org/1999/02/22-rdf-syntax-ns#"
   xmlns:svg="http://www.w3.org/2000/svg"
   xmlns="http://www.w3.org/2000/svg"
   xmlns:sodipodi="http://sodipodi.sourceforge.net/DTD/sodipodi-0.dtd"
   xmlns:inkscape="http://www.inkscape.org/namespaces/inkscape"
   version="1.1"
   id="svg2"
   viewBox="0 0 200 200"
   height="200px"
   width="200px"
   inkscape:version="0.91 r13725"
   sodipodi:docname="118.svg">
  <metadata
     id="metadata635">
    <rdf:RDF>
      <cc:Work
         rdf:about="">
        <dc:format>image/svg+xml</dc:format>
        <dc:type
           rdf:resource="http://purl.org/dc/dcmitype/StillImage" />
      </cc:Work>
    </rdf:RDF>
  </metadata>
  <sodipodi:namedview
     pagecolor="#ffffff"
     bordercolor="#666666"
     borderopacity="1"
     objecttolerance="10"
     gridtolerance="10"
     guidetolerance="10"
     inkscape:pageopacity="0"
     inkscape:pageshadow="2"
     inkscape:window-width="1920"
     inkscape:window-height="1060"
     id="namedview633"
     showgrid="false"
     inkscape:zoom="4.32"
     inkscape:cx="100"
     inkscape:cy="118.51852"
     inkscape:window-x="0"
     inkscape:window-y="0"
     inkscape:window-maximized="1"
     inkscape:current-layer="layer1" />
  
    
    
    <defs id="defs6">

        <clipPath
           id="clipPath28"
           clipPathUnits="userSpaceOnUse">
          <path
             id="path30"
             d="M 4,36 C 0,36 0,32 0,32 L 0,32 0,4 C 0,0 4,0 4,0 l 0,0 28,0 c 4,0 4,4 4,4 l 0,0 0,28 c 0,4 -4,4 -4,4 l 0,0 -28,0 z" />
        </clipPath>


        <clipPath clipPathUnits="userSpaceOnUse" id="clipPath16-rugby">
            <path d="M 0,38 38,38 38,0 0,0 0,38 Z" id="path18"/>
        </clipPath>
        <clipPath clipPathUnits="userSpaceOnUse" id="clipPath28-rugby">
            <path d="M 9.254,28.746 C 2.09,21.582 -0.927,9.561 3.929,3.929 l 0,0 C 9.561,-0.927 21.582,2.09 28.746,9.254 l 0,0 c 7.164,7.164 11.229,17.088 5.324,24.816 l 0,0 c -1.886,1.627 -4.489,2.371 -7.387,2.37 l 0,0 c -5.752,0 -12.665,-2.93 -17.429,-7.694" id="path30"/>
        </clipPath>

        <clipPath clipPathUnits="userSpaceOnUse" id="clipPath16-carrot">
            <path d="M 0,36 36,36 36,0 0,0 0,36 Z" id="path18"/>
        </clipPath>
        <clipPath clipPathUnits="userSpaceOnUse" id="clipPath32-carrot">
            <path d="M 11.815,23.013 C 4.2,15.397 -1.265,2.86 0.502,1.093 l 0,0 c 1.768,-1.768 14.305,3.698 21.92,11.313 l 0,0 c 7.616,7.615 7.562,11.53 4.243,14.85 l 0,0 c -1.328,1.328 -2.752,2.133 -4.47,2.133 l 0,0 c -2.575,0 -5.812,-1.809 -10.38,-6.376" id="path34"/>
        </clipPath>

        <clipPath clipPathUnits="userSpaceOnUse" id="clipPath32-hat">
            <path d="m 5,33.666 c 0,-0.034 0.018,-0.067 0.022,-0.101 l 0,0 C 5.008,33.455 5,33.335 5,33.2 l 0,0 L 6.802,9.616 C 3.299,8.705 1,7.424 1,6 L 1,6 C 1,3.238 9.611,1 19,1 l 0,0 c 9.389,0 18,2.238 18,5 l 0,0 c 0,1.424 -2.298,2.705 -5.801,3.616 l 0,0 L 33,33.184 c 0,0.135 -0.008,0.263 -0.021,0.373 l 0,0 C 32.982,33.591 33,33.632 33,33.666 l 0,0 c 0,1.805 -6.268,3.267 -14,3.267 l 0,0 c -7.732,0 -14,-1.462 -14,-3.267" id="path34"/>
        </clipPath>


        <clipPath clipPathUnits="userSpaceOnUse" id="clipPath48-soccer">
            <path d="M 1,19 C 1,9.059 9.059,1 19,1 l 0,0 c 9.941,0 18,8.059 18,18 l 0,0 c 0,9.941 -8.059,18 -18,18 l 0,0 C 9.059,37 1,28.941 1,19" id="path50"/>
        </clipPath>

        <clipPath clipPathUnits="userSpaceOnUse" id="clipPath28-baguette">
            <path d="M 24.052,31.33 5.126,12.406 C 1.342,8.62 1.288,4.133 2.856,2.564 l 0,0 C 4.424,0.997 8.912,1.049 12.697,4.835 l 0,0 18.925,18.924 c 3.784,3.785 3.837,8.273 2.269,9.841 l 0,0 c -0.605,0.606 -1.647,0.969 -2.915,0.969 l 0,0 c -2.014,0 -4.602,-0.917 -6.924,-3.239" id="path30"/>
        </clipPath>
    </defs>



  <g
     id="layer1">
    <circle
       style="opacity:1;fill:white;stroke:black;stroke-width:1;stroke-miterlimit:4;stroke-dasharray:none;stroke-opacity:0.1"
       id="path4039-0-9"
       cx="100px"
       cy="100px"
       r="90px" />
    <g
       transform="matrix(0.21132197,0.7369673,-0.7369673,0.21132197,122.42325,105.6317)"
       id="g8">
      <g
         transform="matrix(1.25,0,0,-1.25,0,47.5)"
         id="g10">
        <g
           id="g12">
          <g
             clip-path="url(#clipPath16)"
             id="g14">
            <g
               transform="translate(36,19)"
               id="g20">
              <path
                 id="path22"
                 style="fill:#ffcc4d;fill-opacity:1;fill-rule:nonzero;stroke:none"
                 d="m 0,0 c 0,-9.389 -7.611,-17 -17,-17 -9.388,0 -17,7.611 -17,17 0,9.388 7.612,17 17,17 C -7.611,17 0,9.388 0,0"
                 inkscape:connector-curvature="0" />
            </g>
            <g
               transform="translate(28.335,14.3711)"
               id="g24">
              <path
                 id="path26"
                 style="fill:#664500;fill-opacity:1;fill-rule:nonzero;stroke:none"
                 d="m 0,0 c -0.178,0.161 -0.444,0.171 -0.635,0.029 -0.039,-0.029 -3.922,-2.9 -8.7,-2.9 -4.766,0 -8.662,2.871 -8.7,2.9 -0.191,0.142 -0.457,0.13 -0.635,-0.029 -0.177,-0.16 -0.217,-0.424 -0.094,-0.628 0.129,-0.215 3.217,-5.243 9.429,-5.243 6.212,0 9.301,5.028 9.429,5.243 C 0.217,-0.423 0.178,-0.16 0,0"
                 inkscape:connector-curvature="0" />
            </g>
            <g
               transform="translate(19,30)"
               id="g28">
              <path
                 id="path18"
                 style="fill:#5dadec;fill-opacity:1;fill-rule:nonzero;stroke:none"
                 d="M 0,0 C -6.627,0 -12,0.567 -12,2.5 -12,4.433 -6.627,5 0,5 6.627,5 12,4.433 12,2.5 12,0.567 6.627,0 0,0 m 0,7 c -8.836,0 -16,-1.686 -16,-5 0,-3.313 7.164,-5 16,-5 8.836,0 16,1.687 16,5 0,3.314 -7.164,5 -16,5"
                 inkscape:connector-curvature="0" />
            </g>
            <g
               transform="translate(11.375,30.9375)"
               id="g32">
              <path
                 id="path34"
                 style="fill:#ffcc4d;fill-opacity:1;fill-rule:nonzero;stroke:none"
                 d="m 0,0 c -3.397,1.324 -2.5,1.991 -0.062,3.23 2.308,1.172 4.92,1.832 7.687,1.832 2.893,0 5.616,-0.722 8.001,-1.997 0.695,-0.372 1.432,-0.885 2.124,-1.346"
                 inkscape:connector-curvature="0" />
            </g>
            <g
               transform="translate(27,18)"
               id="g36">
              <path
                 id="path38"
                 style="fill:#664500;fill-opacity:1;fill-rule:nonzero;stroke:none"
                 d="M 0,0 C -0.419,0 -0.809,0.265 -0.948,0.684 -1.151,1.283 -1.967,3 -3,3 -4.062,3 -4.889,1.173 -5.052,0.684 -5.227,0.16 -5.788,-0.124 -6.316,0.052 -6.84,0.226 -7.123,0.792 -6.948,1.316 -6.823,1.693 -5.645,5 -3,5 -0.355,5 0.823,1.693 0.948,1.316 1.123,0.792 0.84,0.226 0.316,0.052 0.211,0.017 0.105,0 0,0"
                 inkscape:connector-curvature="0" />
            </g>
            <g
               transform="translate(17,18)"
               id="g40">
              <path
                 id="path42"
                 style="fill:#664500;fill-opacity:1;fill-rule:nonzero;stroke:none"
                 d="M 0,0 C -0.419,0 -0.809,0.265 -0.949,0.684 -1.152,1.283 -1.966,3 -3,3 -4.062,3 -4.888,1.173 -5.051,0.684 -5.226,0.16 -5.79,-0.124 -6.316,0.052 -6.84,0.226 -7.124,0.792 -6.949,1.316 -6.823,1.693 -5.645,5 -3,5 -0.355,5 0.823,1.693 0.949,1.316 1.124,0.792 0.84,0.226 0.316,0.052 0.211,0.017 0.105,0 0,0"
                 inkscape:connector-curvature="0" />
            </g>
          </g>
        </g>
      </g>
    </g>
    <g
       transform="matrix(-0.33061947,-0.90836953,0.90836953,-0.33061947,51.470098,91.753469)"
       id="g26">
      <g
         transform="matrix(1.25,0,0,-1.25,0,45)"
         id="g29">
        <g
           id="g31">
          <g
             clip-path="url(#clipPath16)"
             id="g33">
            <g
               transform="translate(33.5355,33.5355)"
               id="g35">
              <path
                 id="path37"
                 style="fill:#ccd6dd;fill-opacity:1;fill-rule:nonzero;stroke:none"
                 d="m 0,0 c -1.953,1.953 -5.118,1.953 -7.071,0 l -1.197,-1.199 2.842,-2.842 c 0.39,-0.391 0.39,-1.024 0,-1.414 -0.195,-0.196 -0.451,-0.293 -0.707,-0.293 -0.256,0 -0.512,0.097 -0.707,0.293 l -2.841,2.841 -2.109,-2.111 2.84,-2.84 c 0.391,-0.39 0.391,-1.023 0,-1.414 -0.195,-0.195 -0.451,-0.293 -0.707,-0.293 -0.255,0 -0.511,0.098 -0.707,0.293 l -2.839,2.839 -2.12,-2.123 2.837,-2.837 c 0.391,-0.391 0.391,-1.024 0,-1.415 -0.195,-0.195 -0.451,-0.292 -0.707,-0.292 -0.256,0 -0.511,0.097 -0.707,0.292 l -2.836,2.837 -2.121,-2.122 2.836,-2.836 c 0.391,-0.391 0.391,-1.024 0,-1.414 -0.195,-0.195 -0.451,-0.293 -0.707,-0.293 -0.256,0 -0.512,0.098 -0.707,0.293 l -2.835,2.835 -2.12,-2.123 2.833,-2.833 c 0.391,-0.391 0.391,-1.024 0,-1.414 -0.195,-0.196 -0.451,-0.293 -0.707,-0.293 -0.255,0 -0.511,0.097 -0.707,0.293 l -2.832,2.832 -1.783,-1.785 c -3.842,-0.027 -6.95,-3.148 -6.95,-6.998 0,-3.865 3.135,-7 7,-7 3.833,0 6.942,3.081 6.995,6.901 L 0,-7.071 C 1.953,-5.118 1.953,-1.953 0,0"
                 inkscape:connector-curvature="0" />
            </g>
            <g
               transform="translate(30.938,30.9086)"
               id="g39">
              <path
                 id="path41"
                 style="fill:#dd2e44;fill-opacity:1;fill-rule:nonzero;stroke:none"
                 d="m 0,0 c -0.781,0.781 -2.047,0.781 -2.828,0 l -19.065,-19.065 c -1.338,0.362 -2.823,0.035 -3.873,-1.015 -1.563,-1.562 -1.563,-4.095 0,-5.657 1.562,-1.562 4.094,-1.562 5.656,0 1.039,1.038 1.371,2.502 1.029,3.828 L 0,-2.828 C 0.781,-2.047 0.781,-0.781 0,0"
                 inkscape:connector-curvature="0" />
            </g>
            <g
               transform="translate(13.272,13.6572)"
               id="g43">
              <path
                 id="path45"
                 style="fill:#292f33;fill-opacity:1;fill-rule:nonzero;stroke:none"
                 d="m 0,0 c 0.256,0 0.512,0.098 0.707,0.293 0.391,0.391 0.391,1.023 0,1.414 L -2.126,4.54 -3.54,3.125 -0.707,0.293 C -0.512,0.098 -0.256,0 0,0"
                 inkscape:connector-curvature="0" />
            </g>
            <g
               transform="translate(16.8076,17.1924)"
               id="g47">
              <path
                 id="path49"
                 style="fill:#292f33;fill-opacity:1;fill-rule:nonzero;stroke:none"
                 d="m 0,0 c 0.256,0 0.512,0.098 0.707,0.293 0.391,0.391 0.391,1.023 0,1.414 L -2.129,4.543 -3.542,3.128 -0.707,0.293 C -0.512,0.098 -0.256,0 0,0"
                 inkscape:connector-curvature="0" />
            </g>
            <g
               transform="translate(20.3428,20.728)"
               id="g51">
              <path
                 id="path53"
                 style="fill:#292f33;fill-opacity:1;fill-rule:nonzero;stroke:none"
                 d="m 0,0 c 0.256,0 0.512,0.098 0.707,0.293 0.391,0.39 0.391,1.023 0,1.414 L -2.13,4.545 -3.544,3.13 -0.707,0.293 C -0.512,0.098 -0.256,0 0,0"
                 inkscape:connector-curvature="0" />
            </g>
            <g
               transform="translate(23.8789,24.2637)"
               id="g55">
              <path
                 id="path57"
                 style="fill:#292f33;fill-opacity:1;fill-rule:nonzero;stroke:none"
                 d="m 0,0 c 0.256,0 0.512,0.098 0.707,0.293 0.391,0.391 0.391,1.024 0,1.414 l -2.841,2.84 -1.413,-1.415 2.84,-2.839 C -0.512,0.098 -0.256,0 0,0"
                 inkscape:connector-curvature="0" />
            </g>
            <g
               transform="translate(27.4023,27.7871)"
               id="g44">
              <path
                 id="path46"
                 style="fill:#292f33;fill-opacity:1;fill-rule:nonzero;stroke:none"
                 d="m 0,0 c 0.256,0 0.512,0.098 0.707,0.293 0.391,0.39 0.391,1.023 0,1.414 L -2.135,4.55 -3.548,3.135 -0.707,0.293 C -0.512,0.098 -0.256,0 0,0"
                 inkscape:connector-curvature="0" />
            </g>
          </g>
        </g>
      </g>
    </g>
    <g
       transform="matrix(-0.66462571,-0.30992006,0.30992006,-0.66462571,67.255343,172.72093)"
       id="g61">
      <g
         transform="matrix(1.25,0,0,-1.25,0,47.5)"
         id="g63">
        <g
           id="g65">
          <g
             clip-path="url(#clipPath16)"
             id="g67">
            <g
               transform="translate(37,12)"
               id="g69">
              <path
                 id="path71"
                 style="fill:#292f33;fill-opacity:1;fill-rule:nonzero;stroke:none"
                 d="m 0,0 c 0,0 0,-4 -4,-4 l -28,0 c 0,0 -4,0 -4,4 l 0,15 c 0,4 4,4 4,4 l 28,0 c 0,0 4,0 4,-4 L 0,0 Z"
                 inkscape:connector-curvature="0" />
            </g>
            <g
               transform="translate(5,25)"
               id="g73">
              <path
                 id="path75"
                 style="fill:#ccd6dd;fill-opacity:1;fill-rule:nonzero;stroke:none"
                 d="m 0,0 6,0 c 0,0 1,0 1,-1 l 0,-8 c 0,0 0,-1 -1,-1 l -6,0 c -1,0 -2,2 -2,5 0,3 1,5 2,5"
                 inkscape:connector-curvature="0" />
            </g>
          </g>
        </g>
        <g
           id="g77">
          <g
             clip-path="url(#clipPath32)"
             id="g30">
            <g
               transform="translate(19,20)"
               id="g80">
              <path
                 id="path82"
                 style="fill:#000000;fill-opacity:1;fill-rule:nonzero;stroke:none"
                 d="m 0,0 c 0,-3.865 -3.134,-7 -7,-7 -3.866,0 -7,3.135 -7,7 0,3.866 3.134,7 7,7 3.866,0 7,-3.134 7,-7"
                 inkscape:connector-curvature="0" />
            </g>
            <g
               transform="translate(15,20)"
               id="g84">
              <path
                 id="path86"
                 style="fill:#66757f;fill-opacity:1;fill-rule:nonzero;stroke:none"
                 d="m 0,0 c 0,-1.657 -1.343,-3 -3,-3 -1.657,0 -3,1.343 -3,3 0,1.657 1.343,3 3,3 1.657,0 3,-1.343 3,-3"
                 inkscape:connector-curvature="0" />
            </g>
          </g>
        </g>
        <g
           id="g88">
          <g
             clip-path="url(#clipPath48)"
             id="g46">
            <g
               transform="translate(33,25)"
               id="g52">
              <path
                 id="path54"
                 style="fill:#ccd6dd;fill-opacity:1;fill-rule:nonzero;stroke:none"
                 d="m 0,0 -6,0 c 0,0 -1,0 -1,-1 l 0,-8 c 0,0 0,-1 1,-1 l 6,0 c 1,0 2,2 2,5 0,3 -1,5 -2,5"
                 inkscape:connector-curvature="0" />
            </g>
          </g>
        </g>
        <g
           id="g56">
          <g
             clip-path="url(#clipPath60)"
             id="g58">
            <g
               transform="translate(33,20)"
               id="g64">
              <path
                 id="path66"
                 style="fill:#000000;fill-opacity:1;fill-rule:nonzero;stroke:none"
                 d="m 0,0 c 0,-3.867 -3.133,-7 -7,-7 -3.867,0 -7,3.133 -7,7 0,3.865 3.133,7 7,7 3.867,0 7,-3.135 7,-7"
                 inkscape:connector-curvature="0" />
            </g>
            <g
               transform="translate(29,20)"
               id="g68">
              <path
                 id="path70"
                 style="fill:#66757f;fill-opacity:1;fill-rule:nonzero;stroke:none"
                 d="m 0,0 c 0,-1.657 -1.344,-3 -3,-3 -1.656,0 -3,1.343 -3,3 0,1.657 1.344,3 3,3 1.656,0 3,-1.343 3,-3"
                 inkscape:connector-curvature="0" />
            </g>
          </g>
        </g>
        <g
           id="g72">
          <g
             clip-path="url(#clipPath76)"
             id="g74">
            <g
               transform="translate(14,23)"
               id="g101">
              <path
                 id="path103"
                 style="fill:#88c9f9;fill-opacity:1;fill-rule:nonzero;stroke:none"
                 d="m 0,0 c 0,0 0,1 1,1 l 8,0 c 0,0 1,0 1,-1 l 0,-6 c 0,0 0,-1 -1,-1 l -8,0 c 0,0 -1,0 -1,1 l 0,6 z"
                 inkscape:connector-curvature="0" />
            </g>
            <g
               transform="translate(35,11)"
               id="g105">
              <path
                 id="path107"
                 style="fill:#000000;fill-opacity:1;fill-rule:nonzero;stroke:none"
                 d="m 0,0 c 0,-0.553 -0.447,-1 -1,-1 l -30,0 c -0.552,0 -1,0.447 -1,1 0,0.553 0.448,1 1,1 L -1,1 C -0.447,1 0,0.553 0,0"
                 inkscape:connector-curvature="0" />
            </g>
          </g>
        </g>
      </g>
    </g>
    <g
       transform="matrix(0.69829484,0.04882953,-0.04882953,0.69829484,134.87918,70.342044)"
       id="g109">
      <g
         transform="matrix(1.25,0,0,-1.25,0,45)"
         id="g111">
        <g
           id="g113">
          <g
             clip-path="url(#clipPath16)"
             id="g115">
            <g
               transform="translate(14.8487,18.4514)"
               id="g117">
              <path
                 id="path119"
                 style="fill:#ef9645;fill-opacity:1;fill-rule:nonzero;stroke:none"
                 d="m 0,0 c 0.274,-1.01 -0.334,-2.049 -1.36,-2.322 l -0.247,-0.065 c -1.026,-0.27 -2.079,0.33 -2.353,1.341 l -3.714,13.659 c -0.471,1.642 -0.147,3.184 1.279,3.601 l 0.449,0.102 c 1.025,0.271 1.625,-0.423 1.899,-1.434 L 0,0 Z"
                 inkscape:connector-curvature="0" />
            </g>
            <g
               transform="translate(21.7875,17.5486)"
               id="g121">
              <path
                 id="path123"
                 style="fill:#ef9645;fill-opacity:1;fill-rule:nonzero;stroke:none"
                 d="m 0,0 c -0.192,-1.075 -1.233,-1.794 -2.325,-1.604 l -0.087,0.015 c -1.091,0.189 -1.819,1.215 -1.627,2.29 l 2.685,15.01 c 0.193,1.076 0.713,1.814 1.805,1.625 l 0.241,-0.073 c 2.77,-0.657 1.621,-4.337 1.993,-2.254 L 0,0 Z"
                 inkscape:connector-curvature="0" />
            </g>
            <g
               transform="translate(11.1357,16.9619)"
               id="g125">
              <path
                 id="path127"
                 style="fill:#ffdc5d;fill-opacity:1;fill-rule:nonzero;stroke:none"
                 d="m 0,0 c 0.259,-0.967 -0.314,-1.961 -1.281,-2.221 l -0.363,-0.096 c -0.966,-0.259 -1.96,0.314 -2.219,1.281 l -3.203,11.953 c -0.259,0.967 0.315,1.962 1.282,2.221 l 0.361,0.096 c 0.967,0.26 1.961,-0.314 2.221,-1.281 L 0,0 Z"
                 inkscape:connector-curvature="0" />
            </g>
            <g
               transform="translate(15.6904,19.2822)"
               id="g129">
              <path
                 id="path131"
                 style="fill:#ffdc5d;fill-opacity:1;fill-rule:nonzero;stroke:none"
                 d="m 0,0 c 0.269,-1 -0.325,-2.028 -1.325,-2.296 l -0.242,-0.065 c -1,-0.268 -2.029,0.326 -2.296,1.326 l -3.948,14.73 c -0.268,1 0.326,2.029 1.326,2.296 l 0.242,0.065 c 1,0.268 2.028,-0.326 2.297,-1.326 L 0,0 Z"
                 inkscape:connector-curvature="0" />
            </g>
            <g
               transform="translate(20.6836,18.0781)"
               id="g133">
              <path
                 id="path135"
                 style="fill:#ffdc5d;fill-opacity:1;fill-rule:nonzero;stroke:none"
                 d="m 0,0 c -0.18,-1.02 -1.152,-1.701 -2.172,-1.521 l -0.246,0.044 c -1.02,0.179 -1.701,1.152 -1.521,2.171 l 2.648,15.018 c 0.18,1.019 1.152,1.701 2.172,1.521 L 1.127,17.19 C 2.146,17.011 2.828,16.037 2.648,15.018 L 0,0 Z"
                 inkscape:connector-curvature="0" />
            </g>
            <g
               transform="translate(25.5859,17.0869)"
               id="g137">
              <path
                 id="path139"
                 style="fill:#ffdc5d;fill-opacity:1;fill-rule:nonzero;stroke:none"
                 d="m 0,0 c -0.168,-0.952 -1.074,-1.588 -2.027,-1.42 l -0.493,0.087 c -0.952,0.168 -1.586,1.075 -1.419,2.027 l 2.518,14.28 c 0.168,0.951 1.075,1.588 2.026,1.42 L 1.099,16.307 C 2.051,16.139 2.686,15.23 2.518,14.279 L 0,0 Z"
                 inkscape:connector-curvature="0" />
            </g>
            <g
               transform="translate(28.9268,8.6406)"
               id="g141">
              <path
                 id="path143"
                 style="fill:#ffdc5d;fill-opacity:1;fill-rule:nonzero;stroke:none"
                 d="M 0,0 C -0.523,-0.903 -1.677,-1.213 -2.581,-0.691 L -2.773,-0.58 C -3.677,-0.059 -3.986,1.097 -3.464,2 l 5.609,9.718 c 0.523,0.903 1.678,1.214 2.582,0.692 L 4.919,12.299 C 5.823,11.777 6.132,10.621 5.61,9.718 L 0,0 Z"
                 inkscape:connector-curvature="0" />
            </g>
            <g
               transform="translate(6.1826,19.9932)"
               id="g48">
              <path
                 id="path50"
                 style="fill:#ffdc5d;fill-opacity:1;fill-rule:nonzero;stroke:none"
                 d="m 0,0 c 0.4,-1.493 -0.183,-5.186 -0.183,-7.993 0,-2.808 2.125,-12 12,-12 9.875,0 10.5,8.234 12,10.666 1.5,2.432 -0.833,6.375 -2,4.375 -1.167,-2 -2.933,-1.163 -2.333,2.375 0.601,3.539 -3.12,5.465 -3.635,2.544 C 15.411,-2.51 14.411,-1.786 14.994,0.88 15.577,3.547 11.48,4.3 10.817,0.673 10.33,-1.993 9.365,-0.219 8.966,1.311 8.567,2.84 4.482,2.974 5.015,0.602 5.776,-2.785 5.01,-3.465 3.901,0.673 3.198,3.297 0,0 0,0"
                 inkscape:connector-curvature="0" />
            </g>
            <g
               transform="translate(26.459,13.9854)"
               id="g147">
              <path
                 id="path149"
                 style="fill:#ef9645;fill-opacity:1;fill-rule:nonzero;stroke:none"
                 d="M 0,0 C 0.023,0.002 0.046,0.008 0.069,0.011 -0.319,0.079 -0.644,0.45 -0.804,1.117 -2.721,0.869 -5.39,0.404 -7.459,-1.619 c -2.556,-2.499 -2.992,-5.2 -2.971,-7.007 0.016,-1.457 0.812,-2.146 1.045,0.012 C -9.084,-5.819 -7.037,-0.574 0,0"
                 inkscape:connector-curvature="0" />
            </g>
          </g>
        </g>
      </g>
    </g>
    <g
       transform="matrix(-0.76900936,-0.22050988,0.22050988,-0.76900936,115.08992,187.72941)"
       id="g151">
      <g
         transform="matrix(1.25,0,0,-1.25,0,45)"
         id="g153">
        <g
           id="g155">
          <g
             clip-path="url(#clipPath16)"
             id="g157">
            <g
               transform="translate(12,28.3926)"
               id="g159">
              <path
                 id="path161"
                 style="fill:#ccd6dd;fill-opacity:1;fill-rule:nonzero;stroke:none"
                 d="m 0,0 -9,2.411 c -1.657,0.444 -3,-0.539 -3,-2.196 l 0,-20 c 0,-1.656 1.343,-3.36 3,-3.804 L 0,-26 0,0 Z"
                 inkscape:connector-curvature="0" />
            </g>
            <g
               transform="translate(24,5.6074)"
               id="g163">
              <path
                 id="path165"
                 style="fill:#ccd6dd;fill-opacity:1;fill-rule:nonzero;stroke:none"
                 d="m 0,0 9,-2.411 c 1.656,-0.444 3,0.54 3,2.196 l 0,20 c 0,1.657 -1.344,3.361 -3,3.804 L 0,26 0,0 Z"
                 inkscape:connector-curvature="0" />
            </g>
            <g
               transform="translate(24,5.6084)"
               id="g167">
              <path
                 id="path169"
                 style="fill:#e1e8ed;fill-opacity:1;fill-rule:nonzero;stroke:none"
                 d="m 0,0 -12,-3.216 0,26 L 0,26 0,0 Z"
                 inkscape:connector-curvature="0" />
            </g>
            <g
               transform="translate(12,26.3931)"
               id="g171">
              <path
                 id="path173"
                 style="fill:#55acee;fill-opacity:1;fill-rule:nonzero;stroke:none"
                 d="m 0,0 -8,2.144 c -1.104,0.295 -2,-0.36 -2,-1.464 l 0,-18.001 c 0,-1.103 0.896,-2.24 2,-2.535 L 0,-22 0,0 Z"
                 inkscape:connector-curvature="0" />
            </g>
            <g
               transform="translate(32,27.4648)"
               id="g175">
              <path
                 id="path177"
                 style="fill:#55acee;fill-opacity:1;fill-rule:nonzero;stroke:none"
                 d="m 0,0 -8,2.144 0,-22 L 0,-22 c 1.105,-0.296 2,0.359 2,1.465 l 0,18 C 2,-1.432 1.105,-0.296 0,0"
                 inkscape:connector-curvature="0" />
            </g>
            <g
               transform="translate(24,7.6084)"
               id="g179">
              <path
                 id="path181"
                 style="fill:#88c9f9;fill-opacity:1;fill-rule:nonzero;stroke:none"
                 d="m 0,0 -12,-3.216 0,22 L 0,22 0,0 Z"
                 inkscape:connector-curvature="0" />
            </g>
            <g
               transform="translate(12,14.4941)"
               id="g183">
              <path
                 id="path185"
                 style="fill:#5c913b;fill-opacity:1;fill-rule:nonzero;stroke:none"
                 d="m 0,0 c -0.268,-0.006 -0.595,-0.104 -0.845,-0.145 -0.436,-0.073 -0.329,-0.516 -0.463,-0.443 -0.135,0.074 -0.475,0.265 -0.812,0.658 -0.337,0.395 0.25,0.478 0.418,0.622 0.168,0.145 -0.317,0.172 -0.486,0.333 -0.169,0.159 -0.47,-0.104 -0.739,0.276 -0.269,0.376 -0.101,0.79 -0.133,1.179 -0.034,0.39 0.436,0.341 0.739,0.334 0.302,-0.002 0.537,-0.143 0.537,-0.602 0,-0.456 0.37,-0.708 0.27,-0.146 -0.101,0.561 0.1,0.658 0.235,0.89 0.134,0.23 0.37,0.55 0.673,1.04 C -0.385,4.354 -0.217,4.279 0,4.16 L 0,7.505 C -0.055,7.549 -0.11,7.595 -0.165,7.618 -0.468,7.75 -0.068,6.865 -0.303,6.509 -0.54,6.152 -0.901,6.316 -1.273,6.415 -1.642,6.514 -1.986,6.96 -1.716,7.422 c 0.268,0.462 0.782,0.267 1.051,0.653 0.27,0.385 -0.956,0.672 -1.394,0.942 -0.437,0.27 -0.962,0.409 -1.4,0.145 C -3.896,8.898 -4.832,9.029 -5.202,8.977 -5.571,8.923 -5.637,9.346 -5.705,9.67 c -0.066,0.322 -0.652,0.329 -1.257,0.338 -0.606,0.01 -1.741,-0.281 -1.547,-1.759 0.068,-0.514 0.605,-0.124 0.707,-0.036 0.1,0.088 0.605,-0.2 0.671,-0.637 0.068,-0.438 0.034,-0.887 -0.099,-1.232 -0.137,-0.345 0.336,-1.006 0.604,-1.612 0.269,-0.606 0.572,-0.687 0.706,-0.723 0.135,-0.036 0.908,-0.587 0.875,-0.996 -0.034,-0.411 0.706,-0.992 1.009,-1.34 0.303,-0.35 0.494,-0.662 0.887,-0.846 0.393,-0.182 0.852,-1.035 1.054,-1.165 0.155,-0.099 0.418,-0.451 0.576,-0.58 -0.208,-0.242 -0.612,-0.748 -0.612,-1.029 0,-0.383 0.441,-1.103 0.608,-1.3 0.168,-0.196 0.65,-0.442 0.751,-0.85 0.101,-0.407 -0.07,-1.646 -0.373,-1.907 -0.304,-0.262 -0.414,-1.043 -0.414,-1.043 0,0 0.107,-0.293 0.465,-0.124 0.309,0.144 0.777,0.567 1.094,0.801 L 0,0 Z"
                 inkscape:connector-curvature="0" />
            </g>
            <g
               transform="translate(24,20.2686)"
               id="g187">
              <path
                 id="path189"
                 style="fill:#77b255;fill-opacity:1;fill-rule:nonzero;stroke:none"
                 d="M 0,0 0,6.314 C -0.04,6.311 -0.068,6.303 -0.11,6.3 -0.319,6.289 -0.593,6.165 -0.89,5.98 -0.914,5.985 -0.936,5.996 -0.96,6.001 -1.855,6.176 -2.272,4.796 -2.999,4.849 c -0.73,0.052 -1.7,0.343 -2.332,-0.514 -0.631,-0.858 -0.776,-1.53 0,-1.295 0.777,0.236 1.312,1.426 1.7,1.089 0.388,-0.336 0.29,-0.72 -0.632,-1.105 C -5.185,2.639 -6.18,2.208 -6.714,2.064 -7.248,1.921 -7.37,1.53 -7.006,1.243 -6.642,0.955 -7.225,0.771 -7.831,0.223 c -0.607,-0.548 0.146,-0.512 0.656,-0.705 0.51,-0.193 0.898,0.323 1.117,0.932 0.217,0.609 1.158,1.522 1.55,1.544 0.392,0.023 0.392,-0.197 0.319,-0.602 -0.013,-0.072 0.001,-0.103 0.01,-0.139 -0.17,-0.54 -0.309,-1.029 -0.365,-1.306 -0.026,-0.134 -0.031,-0.35 -0.027,-0.595 -0.086,-0.003 -0.183,-0.021 -0.248,0 -0.438,0.128 -1.434,0.219 -1.701,-0.043 -0.267,-0.266 -0.412,-0.502 -0.728,-0.723 -0.316,-0.219 -1.603,-1.224 -1.626,-2.084 -0.025,-0.859 -0.049,-1.83 0.46,-1.721 0.51,0.11 1.749,0.826 2.137,1.288 0.387,0.463 0.921,0.523 1.092,0.156 0.169,-0.369 0.048,-0.649 -0.12,-1.354 -0.172,-0.708 0.11,-0.963 0.381,-1.468 0.274,-0.504 0.491,-0.775 0.491,-1.189 0,-0.412 0.389,-0.723 0.97,0.123 0.188,0.269 0.367,0.606 0.536,0.957 0.409,0.469 0.768,0.923 0.758,1.096 -0.016,0.281 -0.021,0.433 -0.024,0.624 0.033,0.082 0.064,0.157 0.091,0.219 0.126,0.293 0.241,0.746 0.362,1.156 0.007,0.009 0.013,0.016 0.019,0.024 0.238,0.337 0.185,0.353 0.58,0.756 0.264,0.269 0.254,0.512 0.214,0.678 0.106,0.174 0.134,0.28 -0.033,0.235 -0.005,-0.001 -0.012,-0.003 -0.016,-0.004 -0.001,0 -0.004,-0.019 -0.005,-0.014 -0.023,0.15 -0.206,-0.003 -0.501,-0.147 -0.285,-0.008 -0.567,0.065 -0.668,0.368 -0.133,0.396 -0.602,0.996 -0.639,1.336 0.003,0.041 0.005,0.077 0.01,0.124 0.013,0.036 0.033,0.066 0.069,0.088 0.038,0.022 0.075,0.03 0.112,0.035 0.041,-0.111 0.076,-0.28 0.086,-0.464 0.027,-0.477 0.395,-0.196 0.395,-0.498 0,-0.302 0.53,-0.492 0.661,-0.548 0.037,-0.015 0.094,0.028 0.159,0.098 0.031,-0.011 0.06,-0.033 0.093,-0.037 0.292,-0.031 0.922,0.984 1.117,1.164 0.102,0.095 0.105,0.269 0.033,0.394 C -0.035,-0.015 -0.019,-0.008 0,0 m -9.142,-7.239 c -0.437,0.074 -0.359,0.023 -0.628,0.598 -0.269,0.577 -0.432,0.743 -1.036,0.657 -0.606,-0.087 -0.584,-0.136 -0.751,0.163 -0.072,0.128 -0.241,0.082 -0.443,-0.032 l 0,-6.37 c 0.09,0.115 0.17,0.211 0.228,0.267 0.505,0.476 0.996,1.026 1.466,1.646 0.471,0.621 0.301,0.924 0.536,1.481 0.235,0.558 0.54,0.617 0.943,1.145 0.405,0.531 0.122,0.368 -0.315,0.445 m -2.59,5.557 c -0.1,-0.015 -0.187,-0.011 -0.268,-0.01 l 0,3.344 c 0.254,-0.064 0.512,-0.317 0.706,-0.735 0.234,-0.51 0.605,-0.067 0.739,-0.374 0.134,-0.308 0.875,-0.758 0.505,-0.742 -0.371,0.014 -0.74,-0.008 -0.841,-0.454 -0.102,-0.448 0.168,-0.795 -0.102,-0.829 -0.269,-0.033 -0.369,-0.142 -0.739,-0.2"
                 inkscape:connector-curvature="0" />
            </g>
            <g
               transform="translate(31.4072,12.2305)"
               id="g191">
              <path
                 id="path193"
                 style="fill:#5c913b;fill-opacity:1;fill-rule:nonzero;stroke:none"
                 d="M 0,0 C -0.133,0.338 -0.518,0.713 -0.675,0.91 -0.834,1.104 -1.082,1.223 -1.293,1.189 -1.505,1.158 -1.636,1.281 -1.741,1.551 -1.848,1.816 -2.031,1.783 -2.19,1.795 -2.348,1.807 -2.981,1.676 -3.352,1.564 -3.72,1.451 -3.889,1.312 -4.13,1.107 c -0.382,-0.32 -0.17,-0.105 0,-0.423 0.168,-0.319 -0.186,-1.067 -0.213,-1.543 -0.027,-0.477 0.676,-0.032 0.94,-0.039 0.263,-0.012 0.185,0.189 0.396,0.314 0.212,0.125 0.349,0.129 0.579,-0.172 0.234,-0.305 0.537,-0.611 0.537,-0.883 0,-0.269 0.834,-0.947 1.152,-0.851 0.316,0.097 0.501,0.408 0.791,0.635 0.291,0.224 0.185,0.824 0.264,1.168 C 0.396,-0.346 0.13,-0.336 0,0 m -2.403,2.578 c 0.261,-0.402 0.159,-0.043 0.504,0.016 0.342,0.058 -0.291,0.56 -0.502,0.799 -0.211,0.238 -0.42,0.3 -0.606,-0.049 C -3.216,2.945 -2.664,2.98 -2.403,2.578 M 0.685,1.146 C 0.554,1.363 0.264,1.531 -0.054,1.607 -0.369,1.684 -0.344,2.088 -0.66,2.141 -0.976,2.195 -1.204,2.529 -1.346,2.652 -1.657,2.918 -1.452,2.443 -1.346,1.953 -1.239,1.465 -0.845,1.707 -0.477,1.367 -0.107,1.027 -0.079,1.352 0.264,1.139 0.605,0.928 0.738,0.619 1.067,0.561 1.396,0.502 0.817,0.93 0.685,1.146 m -2.004,5.371 c 0.183,-0.08 0.975,-0.171 0.553,0.334 -0.422,0.506 -0.106,0.299 -0.052,0.738 0.052,0.44 -0.264,0.525 -0.264,0.525 0,-0.332 -0.211,-0.638 0,-1.027 0.21,-0.389 -0.423,-0.49 -0.237,-0.57 M -3.411,4.449 c 0.389,-0.166 0.114,0.482 0.244,0.841 0.132,0.357 0.316,0.369 0.555,0.364 0.236,-0.002 0.422,0.191 0.581,0.388 0.157,0.2 0.448,0.455 0.422,0.733 -0.027,0.279 -0.105,0.482 -0.212,0.843 -0.106,0.36 0.316,0.368 0.502,0.711 0.183,0.342 0,0 0.421,0.007 0.421,0.008 0.238,0.058 0.316,0.218 0.08,0.159 0.133,0.327 0.054,0.68 -0.078,0.353 -0.37,0.099 -0.66,0.177 -0.289,0.077 0.106,0.424 0.131,0.78 0.027,0.355 0.397,0.165 0.662,0.125 0.262,-0.039 0.341,-0.485 0.42,-0.597 0.082,-0.112 0.896,0.365 1.109,0.641 0.211,0.275 -0.186,0.291 -0.079,0.403 0.105,0.111 -0.632,0.337 -0.925,0.469 -0.289,0.133 -1.028,0.367 -1.318,0.649 -0.289,0.284 -1.397,0.426 -1.688,0.337 -0.291,-0.086 -0.476,0.143 -0.606,0.406 -0.131,0.262 -0.686,0.297 -0.844,0.467 -0.158,0.17 -0.316,-0.127 -0.529,-0.16 -0.21,-0.035 -0.29,-0.043 -0.554,0.209 -0.263,0.252 0.08,0.371 -0.288,0.621 -0.355,0.239 -0.813,0.184 -1.71,0.593 l 0,-6.314 c 0.157,-0.014 0.308,-0.037 0.364,-0.051 0.131,-0.035 0.448,-0.574 0.448,-0.784 0,-0.211 0.159,-0.829 0.291,-1.196 0.131,-0.366 0.42,-0.506 0.686,-0.818 0.264,-0.312 0.394,-0.137 0.394,-0.137 0,0 -0.105,0.544 -0.105,0.965 0,0.424 0.316,0.701 0.316,0.701 0,0 0.5,-0.557 0.529,-0.684 0.026,-0.128 0.421,-0.657 0.449,-0.876 0.025,-0.219 0.236,-0.547 0.624,-0.711 m -0.362,-0.9 C -3.826,3.109 -3.59,3.348 -3.167,2.844 -2.744,2.336 -3.271,2.449 -3.456,2.527 c -0.185,0.08 -0.37,0.131 -0.579,0.518 -0.213,0.391 0,0.695 0,1.027 0,0 0.315,-0.084 0.262,-0.523"
                 inkscape:connector-curvature="0" />
            </g>
          </g>
        </g>
      </g>
    </g>
    <g
       transform="matrix(0.09278207,-0.66017871,0.66017871,0.09278207,98.84542,98.377536)"
       id="g195">
      <g
         transform="matrix(1.25,0,0,-1.25,0,45)"
         id="g197">
        <g
           id="g199">
          <g
             clip-path="url(#clipPath16)"
             id="g201">
            <g
               transform="translate(36,21.5)"
               id="g203">
              <path
                 id="path205"
                 style="fill:#f4900c;fill-opacity:1;fill-rule:nonzero;stroke:none"
                 d="M 0,0 C 0,-1.933 -1.119,-3.5 -2.5,-3.5 -3.881,-3.5 -5,-1.933 -5,0 -5,1.933 -3.881,3.5 -2.5,3.5 -1.119,3.5 0,1.933 0,0"
                 inkscape:connector-curvature="0" />
            </g>
            <g
               transform="translate(5,21.5)"
               id="g207">
              <path
                 id="path209"
                 style="fill:#f4900c;fill-opacity:1;fill-rule:nonzero;stroke:none"
                 d="M 0,0 C 0,-1.933 -1.119,-3.5 -2.5,-3.5 -3.881,-3.5 -5,-1.933 -5,0 -5,1.933 -3.881,3.5 -2.5,3.5 -1.119,3.5 0,1.933 0,0"
                 inkscape:connector-curvature="0" />
            </g>
            <g
               transform="translate(34,17)"
               id="g211">
              <path
                 id="path213"
                 style="fill:#ffac33;fill-opacity:1;fill-rule:nonzero;stroke:none"
                 d="m 0,0 c 0,-0.553 -0.447,-1 -1,-1 l -3,0 c -0.553,0 -1,0.447 -1,1 l 0,9 c 0,0.552 0.447,1 1,1 l 3,0 C -0.447,10 0,9.552 0,9 L 0,0 Z"
                 inkscape:connector-curvature="0" />
            </g>
            <g
               transform="translate(7,17)"
               id="g215">
              <path
                 id="path217"
                 style="fill:#ffac33;fill-opacity:1;fill-rule:nonzero;stroke:none"
                 d="m 0,0 c 0,-0.553 -0.448,-1 -1,-1 l -3,0 c -0.552,0 -1,0.447 -1,1 l 0,9 c 0,0.552 0.448,1 1,1 l 3,0 C -0.448,10 0,9.552 0,9 L 0,0 Z"
                 inkscape:connector-curvature="0" />
            </g>
            <g
               transform="translate(28,31)"
               id="g219">
              <path
                 id="path221"
                 style="fill:#ffcc4d;fill-opacity:1;fill-rule:nonzero;stroke:none"
                 d="m 0,0 c 0,-2.761 -4.477,-4 -10,-4 -5.523,0 -10,1.239 -10,4 0,2.761 4.477,5 10,5 C -4.477,5 0,2.761 0,0"
                 inkscape:connector-curvature="0" />
            </g>
            <g
               transform="translate(25,31.9165)"
               id="g223">
              <path
                 id="path225"
                 style="fill:#f4900c;fill-opacity:1;fill-rule:nonzero;stroke:none"
                 d="m 0,0 c 0,-1.611 -3.135,-2.917 -7,-2.917 -3.866,0 -7,1.306 -7,2.917 0,1.611 3.134,2.917 7,2.917 3.865,0 7,-1.306 7,-2.917"
                 inkscape:connector-curvature="0" />
            </g>
            <g
               transform="translate(30,30.5)"
               id="g227">
              <path
                 id="path229"
                 style="fill:#226699;fill-opacity:1;fill-rule:nonzero;stroke:none"
                 d="m 0,0 c 0,-1.381 -1.119,-1.5 -2.5,-1.5 l -19,0 c -1.381,0 -2.5,0.119 -2.5,1.5 0,1.381 1.119,2.5 2.5,2.5 l 19,0 C -1.119,2.5 0,1.381 0,0"
                 inkscape:connector-curvature="0" />
            </g>
            <g
               transform="translate(32,6)"
               id="g231">
              <path
                 id="path233"
                 style="fill:#55acee;fill-opacity:1;fill-rule:nonzero;stroke:none"
                 d="m 0,0 c 0,-1.104 -0.895,-2 -2,-2 l -24,0 c -1.104,0 -2,0.896 -2,2 l 0,22 c 0,1.104 0.896,2 2,2 l 24,0 c 1.105,0 2,-0.896 2,-2 L 0,0 Z"
                 inkscape:connector-curvature="0" />
            </g>
            <g
               transform="translate(35,3)"
               id="g235">
              <path
                 id="path237"
                 style="fill:#3b88c3;fill-opacity:1;fill-rule:nonzero;stroke:none"
                 d="m 0,0 c 0,-1.105 0.105,-2 -1,-2 l -32,0 c -1.104,0 -1,0.895 -1,2 l 0,1 c 0,1.105 0.896,2 2,2 L -2,3 C -0.895,3 0,2.105 0,1 L 0,0 Z"
                 inkscape:connector-curvature="0" />
            </g>
            <g
               transform="translate(18.707,2.6357)"
               id="g239">
              <path
                 id="path58"
                 style="fill:#55acee;fill-opacity:1;fill-rule:nonzero;stroke:none"
                 d="m 0,0 c -0.391,-0.391 -1.023,-0.391 -1.414,0 l -5.657,5.657 c -0.39,0.391 -0.391,1.024 0,1.414 l 5.657,4.658 c 0.391,0.39 1.023,0.39 1.414,0 L 5.656,7.071 c 0.391,-0.39 0.392,-1.023 0,-1.414 L 0,0 Z"
                 inkscape:connector-curvature="0" />
            </g>
            <g
               transform="translate(16,21.5)"
               id="g60">
              <path
                 id="path62"
                 style="fill:#ffffff;fill-opacity:1;fill-rule:nonzero;stroke:none"
                 d="M 0,0 C 0,-2.485 -2.015,-4.5 -4.5,-4.5 -6.985,-4.5 -9,-2.485 -9,0 -9,2.485 -6.985,4.5 -4.5,4.5 -2.015,4.5 0,2.485 0,0"
                 inkscape:connector-curvature="0" />
            </g>
            <g
               transform="translate(29,21.5)"
               id="g244">
              <path
                 id="path246"
                 style="fill:#ffffff;fill-opacity:1;fill-rule:nonzero;stroke:none"
                 d="M 0,0 C 0,-2.485 -2.015,-4.5 -4.5,-4.5 -6.985,-4.5 -9,-2.485 -9,0 -9,2.485 -6.985,4.5 -4.5,4.5 -2.015,4.5 0,2.485 0,0"
                 inkscape:connector-curvature="0" />
            </g>
            <g
               transform="translate(12,22)"
               id="g248">
              <path
                 id="path250"
                 style="fill:#66757f;fill-opacity:1;fill-rule:nonzero;stroke:none"
                 d="M 0,0 Z"
                 inkscape:connector-curvature="0" />
            </g>
            <g
               transform="translate(12,22)"
               id="g252">
              <path
                 id="path74"
                 style="fill:#66757f;fill-opacity:1;fill-rule:nonzero;stroke:none"
                 d="M 0,0 Z"
                 inkscape:connector-curvature="0" />
            </g>
            <g
               transform="translate(26,19)"
               id="g76">
              <path
                 id="path78"
                 style="fill:#dd2e44;fill-opacity:1;fill-rule:nonzero;stroke:none"
                 d="m 0,0 c 0,-0.553 -0.447,-1 -1,-1 l -1,0 c -0.553,0 -1,0.447 -1,1 l 0,5 c 0,0.552 0.447,1 1,1 l 1,0 C -0.447,6 0,5.552 0,5 L 0,0 Z"
                 inkscape:connector-curvature="0" />
            </g>
            <g
               transform="translate(13,19)"
               id="g257">
              <path
                 id="path259"
                 style="fill:#dd2e44;fill-opacity:1;fill-rule:nonzero;stroke:none"
                 d="m 0,0 c 0,-0.553 -0.448,-1 -1,-1 l -1,0 c -0.552,0 -1,0.447 -1,1 l 0,5 c 0,0.552 0.448,1 1,1 l 1,0 C -0.448,6 0,5.552 0,5 L 0,0 Z"
                 inkscape:connector-curvature="0" />
            </g>
            <g
               transform="translate(29,10.5)"
               id="g261">
              <path
                 id="path263"
                 style="fill:#f5f8fa;fill-opacity:1;fill-rule:nonzero;stroke:none"
                 d="m 0,0 c 0,-1.381 -1.119,-2.5 -2.5,-2.5 l -17,0 c -1.381,0 -2.5,1.119 -2.5,2.5 0,1.381 1.119,2.5 2.5,2.5 l 17,0 C -1.119,2.5 0,1.381 0,0"
                 inkscape:connector-curvature="0" />
            </g>
            <path
               id="path88"
               style="fill:#ccd6dd;fill-opacity:1;fill-rule:nonzero;stroke:none"
               d="m 19,8 -2,0 0,5 2,0 0,-5 z"
               inkscape:connector-curvature="0" />
            <path
               id="path90"
               style="fill:#ccd6dd;fill-opacity:1;fill-rule:nonzero;stroke:none"
               d="m 14,8 -2,0 0,5 2,0 0,-5 z"
               inkscape:connector-curvature="0" />
            <path
               id="path92"
               style="fill:#ccd6dd;fill-opacity:1;fill-rule:nonzero;stroke:none"
               d="m 24,8 -2,0 0,5 2,0 0,-5 z"
               inkscape:connector-curvature="0" />
          </g>
        </g>
        <g
           id="g94">
          <g
             clip-path="url(#clipPath98)"
             id="g96">
            <path
               id="path102"
               style="fill:#ccd6dd;fill-opacity:1;fill-rule:nonzero;stroke:none"
               d="M 9,8 7,8 7,13 9,13 9,8 Z"
               inkscape:connector-curvature="0" />
            <path
               id="path104"
               style="fill:#ccd6dd;fill-opacity:1;fill-rule:nonzero;stroke:none"
               d="m 29,8 -2,0 0,5 2,0 0,-5 z"
               inkscape:connector-curvature="0" />
          </g>
        </g>
        <g
           id="g106">
          <g
             clip-path="url(#clipPath110)"
             id="g108">
            <g
               transform="translate(30,3)"
               id="g114">
              <path
                 id="path116"
                 style="fill:#55acee;fill-opacity:1;fill-rule:nonzero;stroke:none"
                 d="M 0,0 Z"
                 inkscape:connector-curvature="0" />
            </g>
            <g
               transform="translate(30,3)"
               id="g118">
              <path
                 id="path120"
                 style="fill:#55acee;fill-opacity:1;fill-rule:nonzero;stroke:none"
                 d="M 0,0 Z"
                 inkscape:connector-curvature="0" />
            </g>
          </g>
        </g>
      </g>
    </g>
    <g
       transform="matrix(0.36052665,0.60001711,-0.60001711,0.36052665,92.511568,80.722475)"
       id="g278">
      <g
         transform="matrix(1.25,0,0,-1.25,0,45)"
         id="g280">
        <g
           id="g282">
          <g
             clip-path="url(#clipPath16)"
             id="g284">
            <g
               transform="translate(18,33)"
               id="g286">
              <path
                 id="path288"
                 style="fill:#f2abba;fill-opacity:1;fill-rule:nonzero;stroke:none"
                 d="m 0,0 c 0,0 0,2 -3,2 -2,0 -5.375,-2.042 -6,-4 -2,0 -5,-4 -4,-7 -3,-1 -3.625,-8.042 -2,-9 -2,-2 -1,-7 3,-8 1.009,-3.095 3.6,-5.153 6,-5 0.875,-0.708 1.792,-1 3,-1 3,0 3,1.958 3,4.958 L 0,0 Z"
                 inkscape:connector-curvature="0" />
            </g>
            <g
               transform="translate(18,33)"
               id="g290">
              <path
                 id="path292"
                 style="fill:#f2abba;fill-opacity:1;fill-rule:nonzero;stroke:none"
                 d="m 0,0 c 0,0 0,2 3,2 2,0 5.375,-2.042 6,-4 2,0 5,-4 4,-7 3,-1 3.625,-8.042 2,-9 2,-2 1,-7 -3,-8 -1.009,-3.095 -3.6,-5.153 -6,-5 -0.875,-0.708 -1.792,-1 -3,-1 -3,0 -3,1.958 -3,4.958 L 0,0 Z"
                 inkscape:connector-curvature="0" />
            </g>
            <g
               transform="translate(12,25.5)"
               id="g294">
              <path
                 id="path296"
                 style="fill:#e75a70;fill-opacity:1;fill-rule:nonzero;stroke:none"
                 d="M 0,0 C -0.052,0 -0.105,0.008 -0.158,0.026 -2.802,0.907 -3.5,3.338 -3.5,4.5 c 0,0.275 0.223,0.498 0.498,0.499 l 0.002,0 c 0.274,0 0.498,-0.222 0.5,-0.497 C -2.499,4.394 -2.451,1.844 0.158,0.974 0.42,0.887 0.562,0.604 0.474,0.342 0.404,0.132 0.209,0 0,0"
                 inkscape:connector-curvature="0" />
            </g>
            <g
               transform="translate(12.0005,23.5)"
               id="g298">
              <path
                 id="path300"
                 style="fill:#e75a70;fill-opacity:1;fill-rule:nonzero;stroke:none"
                 d="M 0,0 C -0.184,0 -0.36,0.101 -0.448,0.276 -1.416,2.212 -0.07,3.524 0.776,3.947 1.023,4.069 1.323,3.971 1.447,3.724 1.57,3.478 1.471,3.178 1.225,3.054 1.067,2.973 -0.3,2.218 0.447,0.724 0.57,0.477 0.47,0.176 0.223,0.053 0.151,0.017 0.075,0 0,0"
                 inkscape:connector-curvature="0" />
            </g>
            <g
               transform="translate(9.2515,18.3906)"
               id="g302">
              <path
                 id="path304"
                 style="fill:#e75a70;fill-opacity:1;fill-rule:nonzero;stroke:none"
                 d="m 0,0 -0.41,0.135 c -3.229,1.076 -4.027,4.406 -4.059,4.547 -0.062,0.268 0.106,0.536 0.374,0.598 0.269,0.061 0.537,-0.105 0.6,-0.374 0.007,-0.028 0.649,-2.657 3.031,-3.681 0.44,0.652 1.498,1.884 3.213,1.884 0.276,0 0.5,-0.223 0.5,-0.5 0,-0.276 -0.224,-0.5 -0.5,-0.5 C 1.09,2.109 0.204,0.402 0.195,0.384 L 0,0 Z"
                 inkscape:connector-curvature="0" />
            </g>
            <g
               transform="translate(10.9995,14.6387)"
               id="g306">
              <path
                 id="path308"
                 style="fill:#e75a70;fill-opacity:1;fill-rule:nonzero;stroke:none"
                 d="M 0,0 C -0.055,0 -0.112,0.009 -0.167,0.028 -0.426,0.121 -0.562,0.403 -0.472,0.663 -0.46,0.696 0.731,3.941 5.122,2.847 5.39,2.779 5.553,2.508 5.485,2.24 5.418,1.972 5.144,1.812 4.879,1.876 1.394,2.748 0.508,0.428 0.471,0.33 0.397,0.127 0.205,0 0,0"
                 inkscape:connector-curvature="0" />
            </g>
            <g
               transform="translate(7.9995,9.5)"
               id="g310">
              <path
                 id="path312"
                 style="fill:#e75a70;fill-opacity:1;fill-rule:nonzero;stroke:none"
                 d="m 0,0 c -0.075,0 -0.151,0.017 -0.223,0.053 -1.518,0.759 -1.668,2.063 -1.458,3 -1.832,0.28 -3.116,1.593 -3.176,1.655 -0.191,0.198 -0.185,0.514 0.013,0.706 0.198,0.191 0.515,0.185 0.706,-0.012 C -4.124,5.389 -2.754,4 -1,4 L -0.19,4 -0.552,3.276 C -0.629,3.118 -1.27,1.694 0.224,0.947 0.471,0.823 0.571,0.523 0.448,0.276 0.36,0.102 0.184,0 0,0"
                 inkscape:connector-curvature="0" />
            </g>
            <g
               transform="translate(13.0005,2.5)"
               id="g314">
              <path
                 id="path316"
                 style="fill:#e75a70;fill-opacity:1;fill-rule:nonzero;stroke:none"
                 d="M 0,0 C -0.131,0 -0.262,0.051 -0.36,0.153 -0.551,0.352 -0.546,0.668 -0.348,0.859 -0.33,0.877 1.463,2.639 1.017,4.282 0.945,4.549 1.102,4.823 1.368,4.896 1.635,4.967 1.91,4.811 1.982,4.544 2.584,2.328 0.438,0.229 0.346,0.14 0.25,0.047 0.125,0 0,0"
                 inkscape:connector-curvature="0" />
            </g>
            <g
               transform="translate(15.1562,6.4121)"
               id="g318">
              <path
                 id="path320"
                 style="fill:#e75a70;fill-opacity:1;fill-rule:nonzero;stroke:none"
                 d="M 0,0 C -1.894,0 -2.571,1.3 -2.603,1.363 -2.727,1.61 -2.627,1.911 -2.381,2.035 -2.134,2.158 -1.837,2.06 -1.712,1.817 -1.681,1.76 -1.082,0.72 0.747,1.078 1.016,1.134 1.28,0.956 1.334,0.685 1.388,0.414 1.211,0.151 0.941,0.098 0.598,0.029 0.285,0 0,0"
                 inkscape:connector-curvature="0" />
            </g>
            <g
               transform="translate(12.7334,30.9932)"
               id="g322">
              <path
                 id="path324"
                 style="fill:#e75a70;fill-opacity:1;fill-rule:nonzero;stroke:none"
                 d="M 0,0 C -0.12,0 -0.24,0.043 -0.336,0.13 -0.54,0.315 -0.556,0.63 -0.371,0.835 -0.319,0.892 0.917,2.241 2.479,2.28 3.265,2.308 3.99,1.991 4.62,1.36 4.815,1.165 4.815,0.849 4.62,0.653 4.425,0.458 4.108,0.458 3.913,0.653 3.479,1.087 2.994,1.298 2.509,1.28 1.378,1.254 0.38,0.174 0.37,0.164 0.271,0.055 0.136,0 0,0"
                 inkscape:connector-curvature="0" />
            </g>
            <g
               transform="translate(24,25.5)"
               id="g326">
              <path
                 id="path328"
                 style="fill:#e75a70;fill-opacity:1;fill-rule:nonzero;stroke:none"
                 d="M 0,0 C -0.209,0 -0.404,0.132 -0.475,0.342 -0.562,0.604 -0.42,0.887 -0.158,0.974 2.451,1.844 2.499,4.394 2.5,4.502 2.502,4.778 2.695,5.01 3.002,4.999 3.277,4.998 3.5,4.775 3.5,4.5 3.5,3.338 2.802,0.907 0.158,0.026 0.105,0.008 0.053,0 0,0"
                 inkscape:connector-curvature="0" />
            </g>
            <g
               transform="translate(24,23.5)"
               id="g330">
              <path
                 id="path332"
                 style="fill:#e75a70;fill-opacity:1;fill-rule:nonzero;stroke:none"
                 d="M 0,0 C -0.075,0 -0.151,0.017 -0.224,0.053 -0.471,0.176 -0.57,0.477 -0.447,0.724 0.308,2.233 -1.064,2.973 -1.224,3.053 -1.471,3.176 -1.57,3.477 -1.447,3.724 -1.323,3.971 -1.022,4.069 -0.776,3.947 0.07,3.524 1.415,2.212 0.447,0.276 0.359,0.101 0.183,0 0,0"
                 inkscape:connector-curvature="0" />
            </g>
            <g
               transform="translate(26.749,18.3892)"
               id="g334">
              <path
                 id="path336"
                 style="fill:#e75a70;fill-opacity:1;fill-rule:nonzero;stroke:none"
                 d="m 0,0 -0.195,0.386 c -0.009,0.017 -0.896,1.725 -2.554,1.725 -0.276,0 -0.5,0.223 -0.5,0.5 0,0.276 0.224,0.5 0.5,0.5 1.715,0 2.772,-1.233 3.212,-1.885 C 2.859,2.253 3.487,4.879 3.494,4.907 3.555,5.175 3.821,5.348 4.093,5.282 4.362,5.221 4.53,4.952 4.469,4.683 4.437,4.542 3.639,1.213 0.409,0.137 L 0,0 Z"
                 inkscape:connector-curvature="0" />
            </g>
            <g
               transform="translate(25,14.6367)"
               id="g338">
              <path
                 id="path340"
                 style="fill:#e75a70;fill-opacity:1;fill-rule:nonzero;stroke:none"
                 d="M 0,0 C -0.206,0 -0.398,0.128 -0.471,0.332 -0.507,0.431 -1.404,2.75 -4.879,1.878 -5.146,1.816 -5.419,1.975 -5.485,2.242 -5.552,2.51 -5.39,2.781 -5.121,2.849 -0.732,3.946 0.46,0.698 0.472,0.665 0.563,0.404 0.426,0.119 0.165,0.028 0.11,0.009 0.055,0 0,0"
                 inkscape:connector-curvature="0" />
            </g>
            <g
               transform="translate(28,9.5)"
               id="g342">
              <path
                 id="path344"
                 style="fill:#e75a70;fill-opacity:1;fill-rule:nonzero;stroke:none"
                 d="m 0,0 c -0.183,0 -0.359,0.102 -0.447,0.276 -0.123,0.247 -0.024,0.547 0.223,0.671 1.509,0.755 0.856,2.17 0.777,2.329 L 0.191,4 1,4 C 2.755,4 4.125,5.389 4.139,5.402 4.333,5.599 4.646,5.606 4.846,5.413 5.044,5.222 5.05,4.906 4.858,4.708 4.798,4.646 3.514,3.333 1.682,3.053 1.892,2.116 1.741,0.812 0.224,0.053 0.151,0.017 0.075,0 0,0"
                 inkscape:connector-curvature="0" />
            </g>
            <g
               transform="translate(23,2.5)"
               id="g346">
              <path
                 id="path348"
                 style="fill:#e75a70;fill-opacity:1;fill-rule:nonzero;stroke:none"
                 d="M 0,0 C -0.125,0 -0.25,0.047 -0.347,0.14 -0.438,0.229 -2.584,2.328 -1.982,4.544 -1.91,4.81 -1.637,4.967 -1.369,4.896 -1.103,4.823 -0.945,4.549 -1.018,4.282 -1.466,2.631 0.329,0.878 0.347,0.86 0.546,0.669 0.552,0.352 0.36,0.153 0.262,0.051 0.131,0 0,0"
                 inkscape:connector-curvature="0" />
            </g>
            <g
               transform="translate(20.8438,6.4121)"
               id="g350">
              <path
                 id="path352"
                 style="fill:#e75a70;fill-opacity:1;fill-rule:nonzero;stroke:none"
                 d="m 0,0 c -0.285,0 -0.599,0.029 -0.94,0.098 -0.272,0.053 -0.448,0.316 -0.394,0.587 0.054,0.271 0.321,0.451 0.587,0.393 1.848,-0.362 2.434,0.694 2.46,0.74 C 1.841,2.06 2.142,2.155 2.386,2.028 2.628,1.902 2.726,1.607 2.603,1.363 2.571,1.3 1.893,0 0,0"
                 inkscape:connector-curvature="0" />
            </g>
            <g
               transform="translate(23.2666,30.9932)"
               id="g354">
              <path
                 id="path356"
                 style="fill:#e75a70;fill-opacity:1;fill-rule:nonzero;stroke:none"
                 d="m 0,0 c -0.136,0 -0.271,0.055 -0.37,0.164 -0.01,0.01 -1.008,1.09 -2.139,1.116 -0.519,0.024 -0.97,-0.193 -1.404,-0.627 -0.195,-0.195 -0.512,-0.195 -0.707,0 -0.195,0.196 -0.195,0.512 0,0.707 0.63,0.63 1.323,0.955 2.141,0.92 C -0.918,2.241 0.319,0.892 0.371,0.835 0.556,0.63 0.54,0.315 0.336,0.13 0.24,0.043 0.12,0 0,0"
                 inkscape:connector-curvature="0" />
            </g>
            <g
               transform="translate(18.5,32)"
               id="g92">
              <path
                 id="path94"
                 style="fill:#e75a70;fill-opacity:1;fill-rule:nonzero;stroke:none"
                 d="m 0,0 -1,0 c -0.275,0 -0.5,-0.225 -0.5,-0.5 l 0,-26 c 0,-0.275 0.225,-0.5 0.5,-0.5 l 1,0 c 0.275,0 0.5,0.225 0.5,0.5 l 0,26 C 0.5,-0.225 0.275,0 0,0"
                 inkscape:connector-curvature="0" />
            </g>
          </g>
        </g>
      </g>
    </g>
    <g
       transform="matrix(-0.53579386,0.18448862,-0.18448862,-0.53579386,158.62186,158.2437)"
       id="g360">
      <g
         transform="matrix(1.25,0,0,-1.25,0,47.5)"
         id="g362">
        <g
           id="g364">
          <g
             clip-path="url(#clipPath16)"
             id="g366">
            <g
               transform="translate(6,32)"
               id="g368">
              <path
                 id="path370"
                 style="fill:#ffac33;fill-opacity:1;fill-rule:nonzero;stroke:none"
                 d="M 0,0 6,0 C 7.104,0 8,0.104 8,-1 L 8,1 C 8,2.104 7.104,3 6,3 l -8,0 c -2,0 -3.583,-2.125 -3,-5 0,0 1.791,-9.375 1.917,-9.958 C -2.75,-13.5 -0.958,-15 0.958,-15 l 6.959,0 C 9.021,-15 8,-13.104 8,-12 l 0,2 c 0,-1.104 -0.896,-2 -2,-2 l -4,0 c -1.104,0 -1.833,1.042 -2,2 -0.167,0.958 -1.583,7.333 -1.583,7.333 C -1.917,-0.75 -1.104,0 0,0"
                 inkscape:connector-curvature="0" />
            </g>
            <g
               transform="translate(31.8125,32)"
               id="g372">
              <path
                 id="path374"
                 style="fill:#ffac33;fill-opacity:1;fill-rule:nonzero;stroke:none"
                 d="m 0,0 -6,0 c -1.104,0 -2.813,0.104 -2.813,-1 l 0,2 c 0,1.104 1.709,2 2.813,2 l 8,0 c 2,0 3.584,-2.125 3,-5 0,0 -1.633,-9.419 -1.771,-10 -0.354,-1.5 -2.042,-3 -4,-3 l -7.145,0 c -1.105,0 -0.897,1.896 -0.897,3 l 0,2 c 0,-1.104 1.709,-2 2.813,-2 l 4,0 c 1.104,0 1.834,1.042 2,2 0.166,0.958 1.584,7.333 1.584,7.333 C 1.916,-0.75 1.104,0 0,0"
                 inkscape:connector-curvature="0" />
            </g>
            <g
               transform="translate(21.709,15)"
               id="g376">
              <path
                 id="path378"
                 style="fill:#ffac33;fill-opacity:1;fill-rule:nonzero;stroke:none"
                 d="m 0,0 c 0,6.958 -2.709,0 -2.709,0 0,0 -3,6.958 -3,0 C -5.709,-6.958 -9,-10 -9,-10 l 6.291,0 6,0 C 3.291,-10 0,-6.958 0,0"
                 inkscape:connector-curvature="0" />
            </g>
            <g
               transform="translate(30,30.4233)"
               id="g380">
              <path
                 id="path382"
                 style="fill:#ffcc4d;fill-opacity:1;fill-rule:nonzero;stroke:none"
                 d="m 0,0 c 0,-6.775 -6.77,-18.192 -11,-18.192 -4.231,0 -11,11.417 -11,18.192 0,5.195 1,6.319 3,6.319 1.374,0 6.025,0.027 8,0.027 1.391,0 5.914,0.002 7,0.002 2.917,0 4,-0.685 4,-6.348"
                 inkscape:connector-curvature="0" />
            </g>
            <g
               transform="translate(28,4)"
               id="g384">
              <path
                 id="path386"
                 style="fill:#c1694f;fill-opacity:1;fill-rule:nonzero;stroke:none"
                 d="m 0,0 c 0,-1.104 0.104,-2 -1,-2 l -16,0 c -1.104,0 -1,0.896 -1,2 l 0,1 c 0,1.104 1.042,2 2.083,2 L -2,3 C -0.958,3 0,2.104 0,1 L 0,0 Z"
                 inkscape:connector-curvature="0" />
            </g>
            <g
               transform="translate(30,2.375)"
               id="g388">
              <path
                 id="path390"
                 style="fill:#c1694f;fill-opacity:1;fill-rule:nonzero;stroke:none"
                 d="m 0,0 c 0,-0.76 0.042,-1.375 -1.375,-1.375 l -19.25,0 C -21.917,-1.375 -22,-0.76 -22,0 l 0,0.25 c 0,0.76 0.616,1.375 1.375,1.375 l 19.25,0 C -0.615,1.625 0,1.01 0,0.25 L 0,0 Z"
                 inkscape:connector-curvature="0" />
            </g>
          </g>
        </g>
      </g>
    </g>
    <g
       transform="matrix(-0.39317875,0.88309394,-0.88309394,-0.39317875,76.591269,86.092312)"
       id="g392">
      <g
         transform="matrix(1.25,0,0,-1.25,0,45)"
         id="g394">
        <g
           id="g396">
          <g
             clip-path="url(#clipPath16)"
             id="g398">
            <g
               transform="translate(36,0)"
               id="g400">
              <path
                 id="path402"
                 style="fill:#77b255;fill-opacity:1;fill-rule:nonzero;stroke:none"
                 d="m 0,0 0,2 c 0,3.314 -2.686,6 -6,6 l -16,0 c -3.313,0 -6,-2.686 -6,-6 l 0,-2 28,0 z"
                 inkscape:connector-curvature="0" />
            </g>
            <g
               transform="translate(22,2)"
               id="g404">
              <path
                 id="path406"
                 style="fill:#3e721d;fill-opacity:1;fill-rule:nonzero;stroke:none"
                 d="M 0,0 C 0.767,0 5,3 5,6 L -5,6 C -5,3 -0.767,0 0,0"
                 inkscape:connector-curvature="0" />
            </g>
            <g
               transform="translate(17.6396,7.9619)"
               id="g408">
              <path
                 id="path410"
                 style="fill:#f3d2a2;fill-opacity:1;fill-rule:nonzero;stroke:none"
                 d="m 0,0 c 0,-2.846 8.72,-2.962 8.72,0 l 0,3.749 L 0,3.749 0,0 Z"
                 inkscape:connector-curvature="0" />
            </g>
            <g
               transform="translate(17.6318,10.0273)"
               id="g412">
              <path
                 id="path414"
                 style="fill:#e2c196;fill-opacity:1;fill-rule:nonzero;stroke:none"
                 d="m 0,0 c 1.216,-1.374 2.724,-1.746 4.364,-1.746 1.639,0 3.147,0.373 4.364,1.746 l 0,3.491 L 0,3.491 0,0 Z"
                 inkscape:connector-curvature="0" />
            </g>
            <g
               transform="translate(15.4443,20.0645)"
               id="g416">
              <path
                 id="path418"
                 style="fill:#f3d2a2;fill-opacity:1;fill-rule:nonzero;stroke:none"
                 d="m 0,0 c 0,-1.448 -0.734,-2.622 -1.639,-2.622 -0.905,0 -1.639,1.174 -1.639,2.622 0,1.448 0.734,2.623 1.639,2.623 C -0.734,2.623 0,1.448 0,0"
                 inkscape:connector-curvature="0" />
            </g>
            <g
               transform="translate(31.833,20.0645)"
               id="g420">
              <path
                 id="path422"
                 style="fill:#f3d2a2;fill-opacity:1;fill-rule:nonzero;stroke:none"
                 d="m 0,0 c 0,-1.448 -0.733,-2.622 -1.639,-2.622 -0.905,0 -1.638,1.174 -1.638,2.622 0,1.448 0.733,2.623 1.638,2.623 C -0.733,2.623 0,1.448 0,0"
                 inkscape:connector-curvature="0" />
            </g>
            <g
               transform="translate(13.4775,19.0405)"
               id="g424">
              <path
                 id="path426"
                 style="fill:#f3d2a2;fill-opacity:1;fill-rule:nonzero;stroke:none"
                 d="m 0,0 c 0,5.589 3.816,10.121 8.523,10.121 4.707,0 8.522,-4.532 8.522,-10.121 0,-5.589 -3.815,-10.121 -8.522,-10.121 C 3.816,-10.121 0,-5.589 0,0"
                 inkscape:connector-curvature="0" />
            </g>
            <g
               transform="translate(22,12.1982)"
               id="g428">
              <path
                 id="path430"
                 style="fill:#c1694f;fill-opacity:1;fill-rule:nonzero;stroke:none"
                 d="m 0,0 c -2.754,0 -3.6,0.705 -3.741,0.848 -0.256,0.256 -0.256,0.671 0,0.927 0.248,0.248 0.645,0.254 0.902,0.023 C -2.787,1.761 -2.118,1.311 0,1.311 c 2.2,0 2.836,0.485 2.842,0.49 C 3.098,2.056 3.499,2.044 3.755,1.786 4.011,1.53 3.997,1.104 3.741,0.848 3.6,0.705 2.754,0 0,0"
                 inkscape:connector-curvature="0" />
            </g>
            <g
               transform="translate(22,32.5205)"
               id="g432">
              <path
                 id="path434"
                 style="fill:#ffe51e;fill-opacity:1;fill-rule:nonzero;stroke:none"
                 d="m 0,0 c 5.648,0 9.178,-4.168 9.178,-7.641 0,-3.473 -0.706,-4.863 -1.412,-3.473 -0.706,1.389 -1.412,2.778 -1.412,2.778 0,0 -4.236,0 -5.648,1.39 0,0 2.118,-4.168 -2.118,0 0,0 0.706,-2.779 -3.53,0.694 0,0 -2.118,-1.389 -2.824,-4.862 -0.196,-0.964 -1.412,0 -1.412,3.473 C -9.178,-4.168 -6.354,0 0,0"
                 inkscape:connector-curvature="0" />
            </g>
            <g
               transform="translate(18,19)"
               id="g436">
              <path
                 id="path438"
                 style="fill:#662113;fill-opacity:1;fill-rule:nonzero;stroke:none"
                 d="m 0,0 0,0 c -0.55,0 -1,0.45 -1,1 l 0,1 C -1,2.55 -0.55,3 0,3 0.55,3 1,2.55 1,2 L 1,1 C 1,0.45 0.55,0 0,0"
                 inkscape:connector-curvature="0" />
            </g>
            <g
               transform="translate(26,19)"
               id="g440">
              <path
                 id="path442"
                 style="fill:#662113;fill-opacity:1;fill-rule:nonzero;stroke:none"
                 d="m 0,0 0,0 c -0.55,0 -1,0.45 -1,1 l 0,1 C -1,2.55 -0.55,3 0,3 0.55,3 1,2.55 1,2 L 1,1 C 1,0.45 0.55,0 0,0"
                 inkscape:connector-curvature="0" />
            </g>
            <g
               transform="translate(22.75,16.25)"
               id="g444">
              <path
                 id="path446"
                 style="fill:#c1694f;fill-opacity:1;fill-rule:nonzero;stroke:none"
                 d="m 0,0 -1.5,0 c -0.413,0 -0.75,0.337 -0.75,0.75 0,0.413 0.337,0.75 0.75,0.75 L 0,1.5 C 0.413,1.5 0.75,1.163 0.75,0.75 0.75,0.337 0.413,0 0,0"
                 inkscape:connector-curvature="0" />
            </g>
            <path
               id="path68"
               style="fill:#3b88c3;fill-opacity:1;fill-rule:nonzero;stroke:none"
               d="m 16,0 -3,0 0,8 3,0 0,-8 z"
               inkscape:connector-curvature="0" />
            <path
               id="path449"
               style="fill:#3b88c3;fill-opacity:1;fill-rule:nonzero;stroke:none"
               d="m 31,0 -3,0 0,8 3,0 0,-8 z"
               inkscape:connector-curvature="0" />
            <path
               id="path72"
               style="fill:#3b88c3;fill-opacity:1;fill-rule:nonzero;stroke:none"
               d="m 31,1 -17.875,0 0,-1 L 31,0 31,1 Z"
               inkscape:connector-curvature="0" />
            <g
               transform="translate(30,27.2002)"
               id="g452">
              <path
                 id="path76"
                 style="fill:#c1694f;fill-opacity:1;fill-rule:nonzero;stroke:none"
                 d="m 0,0 c 0,-1.32 -3.092,-2.2 -8,-2.2 -4.909,0 -8,0.88 -8,2.2 0,3.546 4,8.8 5.333,8.8 1.334,0 2.223,-1.76 2.667,-1.76 0.444,0 1.333,1.76 2.667,1.76 C -4,8.8 0,3.546 0,0"
                 inkscape:connector-curvature="0" />
            </g>
            <g
               transform="translate(35.9414,28)"
               id="g78">
              <path
                 id="path80"
                 style="fill:#c1694f;fill-opacity:1;fill-rule:nonzero;stroke:none"
                 d="m 0,0 c 0,-1.657 -3.5,-6 -14,-6 -10.5,0 -14,4.343 -14,6 0,1.657 6.82,1 14,1 7.18,0 14,0.657 14,-1"
                 inkscape:connector-curvature="0" />
            </g>
            <g
               transform="translate(30,27.2002)"
               id="g82">
              <path
                 id="path84"
                 style="fill:#292f33;fill-opacity:1;fill-rule:nonzero;stroke:none"
                 d="m 0,0 c 0,-1.32 -3.092,-2.2 -8,-2.2 -4.909,0 -8,0.88 -8,2.2 0,0.566 0.102,1.175 0.279,1.8 2.388,-2 13.054,-2 15.443,-0.005 C -0.102,1.172 0,0.564 0,0"
                 inkscape:connector-curvature="0" />
            </g>
            <g
               transform="translate(7,4.25)"
               id="g86">
              <path
                 id="path460"
                 style="fill:#c1694f;fill-opacity:1;fill-rule:nonzero;stroke:none"
                 d="M 0,0 C 0,0.69 -0.56,1.25 -1.25,1.25 -1.94,1.25 -2.5,0.69 -2.5,0 l 0,-4.25 2.5,0 L 0,0 Z"
                 inkscape:connector-curvature="0" />
            </g>
            <g
               transform="translate(10.0029,13.25)"
               id="g90">
              <path
                 id="path463"
                 style="fill:#66757f;fill-opacity:1;fill-rule:nonzero;stroke:none"
                 d="m 0,0 c 0,-2.35 -1.904,-4.253 -4.253,-4.253 -2.349,0 -4.253,1.903 -4.253,4.253 0,0.086 -1.497,0.084 -1.497,0 0,-3.176 2.575,-5.75 5.75,-5.75 3.175,0 5.75,2.574 5.75,5.75 C 1.497,0.084 0,0.086 0,0"
                 inkscape:connector-curvature="0" />
            </g>
            <g
               transform="translate(1.5,13.25)"
               id="g465">
              <path
                 id="path96"
                 style="fill:#66757f;fill-opacity:1;fill-rule:nonzero;stroke:none"
                 d="m 0,0 c 0,-0.414 -0.336,-0.75 -0.75,-0.75 -0.414,0 -0.75,0.336 -0.75,0.75 l 0,8.5 c 0,0.414 0.336,0.75 0.75,0.75 C -0.336,9.25 0,8.914 0,8.5 L 0,0 Z"
                 inkscape:connector-curvature="0" />
            </g>
            <g
               transform="translate(11.5,13.25)"
               id="g98">
              <path
                 id="path100"
                 style="fill:#66757f;fill-opacity:1;fill-rule:nonzero;stroke:none"
                 d="m 0,0 c 0,-0.414 -0.336,-0.75 -0.75,-0.75 -0.414,0 -0.75,0.336 -0.75,0.75 l 0,8.5 c 0,0.414 0.336,0.75 0.75,0.75 C -0.336,9.25 0,8.914 0,8.5 L 0,0 Z"
                 inkscape:connector-curvature="0" />
            </g>
            <g
               transform="translate(6.5,5)"
               id="g102">
              <path
                 id="path471"
                 style="fill:#66757f;fill-opacity:1;fill-rule:nonzero;stroke:none"
                 d="m 0,0 c 0,-0.414 -0.336,-0.75 -0.75,-0.75 -0.414,0 -0.75,0.336 -0.75,0.75 l 0,16.75 c 0,0.414 0.336,0.75 0.75,0.75 C -0.336,17.5 0,17.164 0,16.75 L 0,0 Z"
                 inkscape:connector-curvature="0" />
            </g>
          </g>
        </g>
      </g>
    </g>
    <g
       transform="matrix(0.56858449,-0.65408164,0.65408164,0.56858449,129.18107,121.27606)"
       id="g473">
      <g
         transform="matrix(1.25,0,0,-1.25,0,47.5)"
         id="g475">
        <g
           id="g477">
          <g
             clip-path="url(#clipPath16)"
             id="g479">
            <g
               transform="translate(19.9346,11.5146)"
               id="g481">
              <path
                 id="path483"
                 style="fill:#f4900c;fill-opacity:1;fill-rule:nonzero;stroke:none"
                 d="m 0,0 c -0.517,-0.781 -1.353,-0.781 -1.869,0 l -4.678,5.071 c -0.516,0.782 -0.516,2.048 0,2.828 l 4.678,9.072 c 0.516,0.78 1.352,0.78 1.869,0 L 4.678,7.899 c 0.516,-0.78 0.516,-2.046 0,-2.828 L 0,0 Z"
                 inkscape:connector-curvature="0" />
            </g>
            <g
               transform="translate(29.4346,9.5146)"
               id="g485">
              <path
                 id="path487"
                 style="fill:#f4900c;fill-opacity:1;fill-rule:nonzero;stroke:none"
                 d="m 0,0 c -0.517,-0.781 -1.353,-0.781 -1.869,0 l -4.678,5.071 c -0.516,0.782 -0.516,2.047 0,2.828 l 6.678,9.072 c 0.516,0.78 1.352,0.78 1.869,0 L 4.678,7.899 c 0.516,-0.781 0.516,-2.046 0,-2.828 L 0,0 Z"
                 inkscape:connector-curvature="0" />
            </g>
            <g
               transform="translate(10.4351,9.5146)"
               id="g489">
              <path
                 id="path491"
                 style="fill:#f4900c;fill-opacity:1;fill-rule:nonzero;stroke:none"
                 d="m 0,0 c -0.517,-0.781 -1.354,-0.781 -1.871,0 l -4.677,5.071 c -0.516,0.782 -0.516,2.047 0,2.828 l 2.677,9.072 c 0.517,0.78 1.354,0.78 1.871,0 L 4.678,7.899 c 0.516,-0.781 0.516,-2.046 0,-2.828 L 0,0 Z"
                 inkscape:connector-curvature="0" />
            </g>
            <g
               transform="translate(34,26)"
               id="g493">
              <path
                 id="path495"
                 style="fill:#ffcc4d;fill-opacity:1;fill-rule:nonzero;stroke:none"
                 d="m 0,0 c -0.45,-0.45 -2.12,-2.124 -4,-4.369 l -4.565,8.854 c -0.517,0.781 -1.353,0.781 -1.87,0 L -15,-4.368 -19.565,4.485 c -0.517,0.781 -1.354,0.781 -1.871,0 L -26,-4.368 c -1.88,2.245 -3.55,3.918 -4,4.368 -1,1 -2.485,0.94 -2,-1 1,-4 1,-7 1,-12 l 0,-2 c 0,-2.209 1.791,-4 4,-4 l 24,0 c 2.209,0 4,1.791 4,4 l 0,2 c 0,5 0,8 1,12 0.484,1.94 -1,2 -2,1"
                 inkscape:connector-curvature="0" />
            </g>
            <g
               transform="translate(22,15)"
               id="g497">
              <path
                 id="path499"
                 style="fill:#5c913b;fill-opacity:1;fill-rule:nonzero;stroke:none"
                 d="m 0,0 c 0,-1.657 -1.343,-3 -3,-3 -1.657,0 -3,1.343 -3,3 0,1.657 1.343,3 3,3 1.657,0 3,-1.343 3,-3"
                 inkscape:connector-curvature="0" />
            </g>
            <g
               transform="translate(29,15)"
               id="g501">
              <path
                 id="path503"
                 style="fill:#5c913b;fill-opacity:1;fill-rule:nonzero;stroke:none"
                 d="m 0,0 c 0,-1.104 -0.896,-2 -2,-2 -1.104,0 -2,0.896 -2,2 0,1.104 0.896,2 2,2 1.104,0 2,-0.896 2,-2"
                 inkscape:connector-curvature="0" />
            </g>
            <g
               transform="translate(36,15)"
               id="g505">
              <path
                 id="path507"
                 style="fill:#5c913b;fill-opacity:1;fill-rule:nonzero;stroke:none"
                 d="m 0,0 c 0,-1.104 -0.896,-2 -2,-2 -1.104,0 -2,0.896 -2,2 0,1.104 0.896,2 2,2 1.104,0 2,-0.896 2,-2"
                 inkscape:connector-curvature="0" />
            </g>
            <g
               transform="translate(13,15)"
               id="g509">
              <path
                 id="path511"
                 style="fill:#5c913b;fill-opacity:1;fill-rule:nonzero;stroke:none"
                 d="m 0,0 c 0,-1.104 -0.895,-2 -2,-2 -1.104,0 -2,0.896 -2,2 0,1.104 0.896,2 2,2 1.105,0 2,-0.896 2,-2"
                 inkscape:connector-curvature="0" />
            </g>
            <g
               transform="translate(6,15)"
               id="g513">
              <path
                 id="path515"
                 style="fill:#5c913b;fill-opacity:1;fill-rule:nonzero;stroke:none"
                 d="m 0,0 c 0,-1.104 -0.895,-2 -2,-2 -1.104,0 -2,0.896 -2,2 0,1.104 0.896,2 2,2 1.105,0 2,-0.896 2,-2"
                 inkscape:connector-curvature="0" />
            </g>
            <g
               transform="translate(35,11)"
               id="g517">
              <path
                 id="path519"
                 style="fill:#ffac33;fill-opacity:1;fill-rule:nonzero;stroke:none"
                 d="m 0,0 c 0,-2.209 -1.791,-4 -4,-4 l -24,0 c -2.209,0 -4,1.791 -4,4 L 0,0 Z"
                 inkscape:connector-curvature="0" />
            </g>
          </g>
        </g>
      </g>
    </g>
    <g
       transform="matrix(0.18745921,-0.81197505,0.81197505,0.18745921,110.97315,65.491285)"
       id="g521">
      <g
         transform="matrix(1.25,0,0,-1.25,0,47.5)"
         id="g523">
        <g
           id="g525">
          <g
             clip-path="url(#clipPath16)"
             id="g527">
            <g
               transform="translate(36,19)"
               id="g529">
              <path
                 id="path531"
                 style="fill:#ffcc4d;fill-opacity:1;fill-rule:nonzero;stroke:none"
                 d="m 0,0 c 0,-9.389 -7.611,-17 -17,-17 -9.389,0 -17,7.611 -17,17 0,9.389 7.611,17 17,17 C -7.611,17 0,9.389 0,0"
                 inkscape:connector-curvature="0" />
            </g>
            <g
               transform="translate(25.3271,13.3779)"
               id="g533">
              <path
                 id="path535"
                 style="fill:#664500;fill-opacity:1;fill-rule:nonzero;stroke:none"
                 d="m 0,0 c -0.153,0.132 -0.368,0.159 -0.551,0.069 l -4,-2 c -1.871,-0.935 -6.727,-0.947 -6.776,-0.947 l -10e-4,0 c -0.276,0 -0.499,-0.224 -0.499,-0.5 0,-0.184 0.1,-0.347 0.25,-0.433 l 0,0 10e-4,0 0,0 c 0.001,-10e-4 0.001,-10e-4 0.001,-10e-4 0.071,-0.041 0.153,-0.064 0.24,-0.066 l 0.008,0 7,0 c 2.658,0 4.089,2.186 4.474,3.342 C 0.211,-0.344 0.153,-0.133 0,0"
                 inkscape:connector-curvature="0" />
            </g>
            <g
               transform="translate(32.001,21)"
               id="g537">
              <path
                 id="path539"
                 style="fill:#664500;fill-opacity:1;fill-rule:nonzero;stroke:none"
                 d="M 0,0 C -0.305,0 -0.605,0.138 -0.801,0.4 -3.441,3.921 -6.862,3.999 -7.007,4 -7.557,4.006 -8.001,4.456 -7.998,5.005 -7.995,5.556 -7.551,6 -7.001,6 -6.817,6 -2.464,5.95 0.799,1.6 1.131,1.158 1.041,0.531 0.599,0.2 0.419,0.065 0.209,0 0,0"
                 inkscape:connector-curvature="0" />
            </g>
            <g
               transform="translate(5.999,21)"
               id="g541">
              <path
                 id="path543"
                 style="fill:#664500;fill-opacity:1;fill-rule:nonzero;stroke:none"
                 d="m 0,0 c -0.208,0 -0.419,0.065 -0.599,0.2 -0.442,0.331 -0.531,0.958 -0.2,1.4 3.262,4.35 7.616,4.4 7.8,4.4 0.552,0 1,-0.448 1,-1 C 8.001,4.449 7.556,4.002 7.005,4 6.85,3.998 3.437,3.914 0.801,0.4 0.604,0.138 0.304,0 0,0"
                 inkscape:connector-curvature="0" />
            </g>
            <g
               transform="translate(16.897,19.6035)"
               id="g545">
              <path
                 id="path547"
                 style="fill:#664500;fill-opacity:1;fill-rule:nonzero;stroke:none"
                 d="m 0,0 c 0.023,0.052 0.059,0.096 0.073,0.154 0.134,0.536 -0.192,1.079 -0.727,1.213 -0.181,0.045 -4.468,1.08 -7.798,-1.138 -0.459,-0.307 -0.583,-0.928 -0.277,-1.387 0.193,-0.289 0.51,-0.446 0.833,-0.446 0.19,0 0.383,0.055 0.554,0.168 1.092,0.73 2.362,0.995 3.468,1.062 -0.009,-0.077 -0.023,-0.151 -0.023,-0.23 0,-1.104 0.896,-2 2,-2 1.105,0 2,0.896 2,2 C 0.103,-0.392 0.061,-0.191 0,0"
                 inkscape:connector-curvature="0" />
            </g>
            <g
               transform="translate(28.8965,19.605)"
               id="g549">
              <path
                 id="path551"
                 style="fill:#664500;fill-opacity:1;fill-rule:nonzero;stroke:none"
                 d="M 0,0 C 0.023,0.052 0.059,0.095 0.073,0.152 0.208,0.689 -0.118,1.231 -0.654,1.365 -0.834,1.41 -5.12,2.445 -8.451,0.227 -8.911,-0.079 -9.035,-0.7 -8.729,-1.16 c 0.193,-0.289 0.51,-0.445 0.834,-0.445 0.19,0 0.382,0.055 0.553,0.168 1.092,0.729 2.362,0.994 3.469,1.06 -0.009,-0.076 -0.023,-0.15 -0.023,-0.228 0,-1.104 0.895,-2 2,-2 1.104,0 2,0.896 2,2 C 0.104,-0.393 0.062,-0.192 0,0"
                 inkscape:connector-curvature="0" />
            </g>
          </g>
        </g>
      </g>
    </g>
    <g
       transform="matrix(0.23691303,-0.72914333,0.72914333,0.23691303,73.274823,54.371334)"
       id="g553">
      <g
         transform="matrix(1.25,0,0,-1.25,0,45)"
         id="g555">
        <g
           id="g557">
          <g
             clip-path="url(#clipPath16)"
             id="g559">
            <g
               transform="translate(32.3252,25.0415)"
               id="g561">
              <path
                 id="path563"
                 style="fill:#662113;fill-opacity:1;fill-rule:nonzero;stroke:none"
                 d="M 0,0 C 0,0 2.315,-0.024 3.511,-1.177 3.175,3.794 1.407,7.072 -2.434,8.953 -5.574,10.072 -8.5,7.5 -8.5,7.5 c 0,0 0.862,1.99 2.19,2.746 -2.226,0.477 -4.869,0.712 -8.015,0.712 -3.136,0 -5.785,-0.226 -8.007,-0.7 1.342,-0.745 2.215,-2.758 2.215,-2.758 0,0 -3.014,2.656 -6.209,1.405 -3.778,-1.895 -5.518,-5.169 -5.841,-10.12 1.183,1.19 3.55,1.215 3.55,1.215 0,0 -3.813,-2.308 -3.425,-5.655 0.387,-2.947 1.394,-5.967 2.878,-8.722 -0.122,3.185 2.756,5.335 2.756,5.335 0,0 -2.492,-5.96 -0.581,-8.738 1.935,-2.542 4.313,-4.64 6.975,-5.916 -0.954,1.645 -0.135,3.044 -0.103,2.945 0.042,-0.125 0.459,-3.112 2.138,-3.743 1.178,-0.355 2.4,-0.548 3.654,-0.548 1.292,0 2.55,0.207 3.761,0.583 1.614,0.692 2.023,3.585 2.064,3.708 0.032,0.098 0.843,-1.287 -0.09,-2.92 2.706,1.308 5.118,3.463 7.065,6.073 1.698,2.846 -0.684,8.556 -0.684,8.556 0,0 2.85,-2.129 2.757,-5.288 1.556,2.907 2.585,6.105 2.911,9.2 C 3.424,-2.068 0,0 0,0"
                 inkscape:connector-curvature="0" />
            </g>
            <g
               transform="translate(13.8594,26.5049)"
               id="g565">
              <path
                 id="path567"
                 style="fill:#ffcc4d;fill-opacity:1;fill-rule:nonzero;stroke:none"
                 d="m 0,0 c 0.596,-2.392 0.16,-4.422 -2.232,-5.017 -2.392,-0.596 -6.363,-0.087 -6.958,2.304 -0.596,2.392 0.469,5.39 1.811,5.724 C -6.038,3.345 -0.595,2.392 0,0"
                 inkscape:connector-curvature="0" />
            </g>
            <g
               transform="translate(22.9629,8.0732)"
               id="g569">
              <path
                 id="path571"
                 style="fill:#ffcc4d;fill-opacity:1;fill-rule:nonzero;stroke:none"
                 d="m 0,0 c 0,-2.74 -2.222,-4.963 -4.963,-4.963 -2.741,0 -4.963,2.223 -4.963,4.963 0,2.741 2.222,4.964 4.963,4.964 C -2.222,4.964 0,2.741 0,0"
                 inkscape:connector-curvature="0" />
            </g>
            <g
               transform="translate(21.3086,8.0732)"
               id="g573">
              <path
                 id="path575"
                 style="fill:#dd2e44;fill-opacity:1;fill-rule:nonzero;stroke:none"
                 d="m 0,0 c 0,-1.827 -1.481,-3.309 -3.309,-3.309 -1.827,0 -3.308,1.482 -3.308,3.309 0,1.827 1.481,3.31 3.308,3.31 C -1.481,3.31 0,1.827 0,0"
                 inkscape:connector-curvature="0" />
            </g>
            <g
               transform="translate(11.0518,27.0034)"
               id="g577">
              <path
                 id="path579"
                 style="fill:#e6aaaa;fill-opacity:1;fill-rule:nonzero;stroke:none"
                 d="M 0,0 C 0.871,-1.393 0.447,-3.229 -0.946,-4.1 -2.339,-4.971 -3.554,-4.897 -4.424,-3.503 -5.295,-2.11 -4.61,0.627 -4.1,0.946 -3.59,1.265 -0.871,1.394 0,0"
                 inkscape:connector-curvature="0" />
            </g>
            <g
               transform="translate(22.1406,26.5049)"
               id="g581">
              <path
                 id="path583"
                 style="fill:#ffcc4d;fill-opacity:1;fill-rule:nonzero;stroke:none"
                 d="M 0,0 C -0.596,-2.392 -0.159,-4.422 2.232,-5.017 4.624,-5.613 8.595,-5.104 9.191,-2.713 9.786,-0.321 8.721,2.677 7.38,3.011 6.038,3.345 0.595,2.392 0,0"
                 inkscape:connector-curvature="0" />
            </g>
            <g
               transform="translate(24.9482,27.0034)"
               id="g585">
              <path
                 id="path587"
                 style="fill:#e6aaaa;fill-opacity:1;fill-rule:nonzero;stroke:none"
                 d="M 0,0 C -0.871,-1.393 -0.447,-3.229 0.945,-4.1 2.34,-4.971 3.554,-4.897 4.424,-3.503 5.295,-2.11 4.609,0.627 4.1,0.946 3.59,1.265 0.871,1.394 0,0"
                 inkscape:connector-curvature="0" />
            </g>
            <g
               transform="translate(18,28.875)"
               id="g589">
              <path
                 id="path591"
                 style="fill:#ffcc4d;fill-opacity:1;fill-rule:nonzero;stroke:none"
                 d="m 0,0 0,0 -0.001,0 -0.002,0 c -12.83,-0.001 -10.872,-4.958 -9.497,-11.542 1.375,-6.583 1.884,-8.333 1.884,-8.333 l 7.613,0 0.003,0 7.612,0 c 0,0 0.51,1.75 1.885,8.333 C 10.872,-4.958 12.829,-0.001 0,0"
                 inkscape:connector-curvature="0" />
            </g>
            <g
               transform="translate(12,20)"
               id="g593">
              <path
                 id="path595"
                 style="fill:#272b2b;fill-opacity:1;fill-rule:nonzero;stroke:none"
                 d="M 0,0 C 0,0 0,1.5 1.5,1.5 3,1.5 3,0 3,0 L 3,-1.5 C 3,-1.5 3,-3 1.5,-3 0,-3 0,-1.5 0,-1.5 L 0,0 Z"
                 inkscape:connector-curvature="0" />
            </g>
            <g
               transform="translate(21,20)"
               id="g597">
              <path
                 id="path599"
                 style="fill:#272b2b;fill-opacity:1;fill-rule:nonzero;stroke:none"
                 d="M 0,0 C 0,0 0,1.5 1.5,1.5 3,1.5 3,0 3,0 L 3,-1.5 C 3,-1.5 3,-3 1.5,-3 0,-3 0,-1.5 0,-1.5 L 0,0 Z"
                 inkscape:connector-curvature="0" />
            </g>
            <g
               transform="translate(20.168,14.4795)"
               id="g601">
              <path
                 id="path603"
                 style="fill:#ffe8b6;fill-opacity:1;fill-rule:nonzero;stroke:none"
                 d="M 0,0 C -1.598,0 -1.385,-0.848 -2.169,-2.113 -2.951,-0.848 -2.739,0 -4.337,0 c -6.865,0 -6.837,-0.375 -6.865,-2.828 -0.058,-4.987 2.802,-6.132 5.257,-6.06 1.597,0.048 2.994,0.88 3.777,2.131 0.783,-1.251 2.179,-2.083 3.776,-2.131 2.455,-0.072 5.316,1.073 5.257,6.06 C 6.837,-0.375 6.865,0 0,0"
                 inkscape:connector-curvature="0" />
            </g>
            <g
               transform="translate(14.5815,14.5889)"
               id="g605">
              <path
                 id="path607"
                 style="fill:#272b2b;fill-opacity:1;fill-rule:nonzero;stroke:none"
                 d="M 0,0 C -1.14,-0.232 2.279,-4.431 3.419,-4.431 4.558,-4.431 7.977,-0.232 6.837,0 5.698,0.232 1.139,0.232 0,0"
                 inkscape:connector-curvature="0" />
            </g>
            <g
               transform="translate(12,11.5)"
               id="g609">
              <path
                 id="path611"
                 style="fill:#d99e82;fill-opacity:1;fill-rule:nonzero;stroke:none"
                 d="M 0,0 C 0,-0.276 -0.224,-0.5 -0.5,-0.5 -0.776,-0.5 -1,-0.276 -1,0 -1,0.276 -0.776,0.5 -0.5,0.5 -0.224,0.5 0,0.276 0,0"
                 inkscape:connector-curvature="0" />
            </g>
            <g
               transform="translate(11,9.5)"
               id="g613">
              <path
                 id="path615"
                 style="fill:#d99e82;fill-opacity:1;fill-rule:nonzero;stroke:none"
                 d="M 0,0 C 0,-0.276 -0.224,-0.5 -0.5,-0.5 -0.776,-0.5 -1,-0.276 -1,0 -1,0.276 -0.776,0.5 -0.5,0.5 -0.224,0.5 0,0.276 0,0"
                 inkscape:connector-curvature="0" />
            </g>
            <g
               transform="translate(13,8.5)"
               id="g617">
              <path
                 id="path619"
                 style="fill:#d99e82;fill-opacity:1;fill-rule:nonzero;stroke:none"
                 d="M 0,0 C 0,-0.276 -0.224,-0.5 -0.5,-0.5 -0.776,-0.5 -1,-0.276 -1,0 -1,0.276 -0.776,0.5 -0.5,0.5 -0.224,0.5 0,0.276 0,0"
                 inkscape:connector-curvature="0" />
            </g>
            <g
               transform="translate(24,11.5)"
               id="g621">
              <path
                 id="path623"
                 style="fill:#d99e82;fill-opacity:1;fill-rule:nonzero;stroke:none"
                 d="M 0,0 C 0,-0.276 0.224,-0.5 0.5,-0.5 0.776,-0.5 1,-0.276 1,0 1,0.276 0.776,0.5 0.5,0.5 0.224,0.5 0,0.276 0,0"
                 inkscape:connector-curvature="0" />
            </g>
            <g
               transform="translate(25,9.5)"
               id="g625">
              <path
                 id="path627"
                 style="fill:#d99e82;fill-opacity:1;fill-rule:nonzero;stroke:none"
                 d="M 0,0 C 0,-0.276 0.224,-0.5 0.5,-0.5 0.776,-0.5 1,-0.276 1,0 1,0.276 0.776,0.5 0.5,0.5 0.224,0.5 0,0.276 0,0"
                 inkscape:connector-curvature="0" />
            </g>
            <g
               transform="translate(23,8.5)"
               id="g629">
              <path
                 id="path631"
                 style="fill:#d99e82;fill-opacity:1;fill-rule:nonzero;stroke:none"
                 d="M 0,0 C 0,-0.276 0.224,-0.5 0.5,-0.5 0.776,-0.5 1,-0.276 1,0 1,0.276 0.776,0.5 0.5,0.5 0.224,0.5 0,0.276 0,0"
                 inkscape:connector-curvature="0" />
            </g>
          </g>
        </g>
      </g>
    </g>
  </g>
</svg>
