<?xml version="1.0" encoding="UTF-8" standalone="no"?>
<svg
   xmlns:dc="http://purl.org/dc/elements/1.1/"
   xmlns:cc="http://creativecommons.org/ns#"
   xmlns:rdf="http://www.w3.org/1999/02/22-rdf-syntax-ns#"
   xmlns:svg="http://www.w3.org/2000/svg"
   xmlns="http://www.w3.org/2000/svg"
   xmlns:sodipodi="http://sodipodi.sourceforge.net/DTD/sodipodi-0.dtd"
   xmlns:inkscape="http://www.inkscape.org/namespaces/inkscape"
   version="1.1"
   id="svg2"
   viewBox="0 0 200 200"
   height="200px"
   width="200px"
   inkscape:version="0.91 r13725"
   sodipodi:docname="122.svg">
  <metadata
     id="metadata448">
    <rdf:RDF>
      <cc:Work
         rdf:about="">
        <dc:format>image/svg+xml</dc:format>
        <dc:type
           rdf:resource="http://purl.org/dc/dcmitype/StillImage" />
      </cc:Work>
    </rdf:RDF>
  </metadata>
  <sodipodi:namedview
     pagecolor="#ffffff"
     bordercolor="#666666"
     borderopacity="1"
     objecttolerance="10"
     gridtolerance="10"
     guidetolerance="10"
     inkscape:pageopacity="0"
     inkscape:pageshadow="2"
     inkscape:window-width="1920"
     inkscape:window-height="1060"
     id="namedview446"
     showgrid="false"
     inkscape:zoom="4.32"
     inkscape:cx="63.425926"
     inkscape:cy="81.481481"
     inkscape:window-x="0"
     inkscape:window-y="0"
     inkscape:window-maximized="1"
     inkscape:current-layer="g428" />
  
    <defs id="defs6">

        <clipPath
           id="clipPath28"
           clipPathUnits="userSpaceOnUse">
          <path
             id="path30"
             d="M 4,36 C 0,36 0,32 0,32 L 0,32 0,4 C 0,0 4,0 4,0 l 0,0 28,0 c 4,0 4,4 4,4 l 0,0 0,28 c 0,4 -4,4 -4,4 l 0,0 -28,0 z" />
        </clipPath>


        <clipPath clipPathUnits="userSpaceOnUse" id="clipPath16-rugby">
            <path d="M 0,38 38,38 38,0 0,0 0,38 Z" id="path18"/>
        </clipPath>
        <clipPath clipPathUnits="userSpaceOnUse" id="clipPath28-rugby">
            <path d="M 9.254,28.746 C 2.09,21.582 -0.927,9.561 3.929,3.929 l 0,0 C 9.561,-0.927 21.582,2.09 28.746,9.254 l 0,0 c 7.164,7.164 11.229,17.088 5.324,24.816 l 0,0 c -1.886,1.627 -4.489,2.371 -7.387,2.37 l 0,0 c -5.752,0 -12.665,-2.93 -17.429,-7.694" id="path30"/>
        </clipPath>

        <clipPath clipPathUnits="userSpaceOnUse" id="clipPath16-carrot">
            <path d="M 0,36 36,36 36,0 0,0 0,36 Z" id="path18"/>
        </clipPath>
        <clipPath clipPathUnits="userSpaceOnUse" id="clipPath32-carrot">
            <path d="M 11.815,23.013 C 4.2,15.397 -1.265,2.86 0.502,1.093 l 0,0 c 1.768,-1.768 14.305,3.698 21.92,11.313 l 0,0 c 7.616,7.615 7.562,11.53 4.243,14.85 l 0,0 c -1.328,1.328 -2.752,2.133 -4.47,2.133 l 0,0 c -2.575,0 -5.812,-1.809 -10.38,-6.376" id="path34"/>
        </clipPath>

        <clipPath clipPathUnits="userSpaceOnUse" id="clipPath32-hat">
            <path d="m 5,33.666 c 0,-0.034 0.018,-0.067 0.022,-0.101 l 0,0 C 5.008,33.455 5,33.335 5,33.2 l 0,0 L 6.802,9.616 C 3.299,8.705 1,7.424 1,6 L 1,6 C 1,3.238 9.611,1 19,1 l 0,0 c 9.389,0 18,2.238 18,5 l 0,0 c 0,1.424 -2.298,2.705 -5.801,3.616 l 0,0 L 33,33.184 c 0,0.135 -0.008,0.263 -0.021,0.373 l 0,0 C 32.982,33.591 33,33.632 33,33.666 l 0,0 c 0,1.805 -6.268,3.267 -14,3.267 l 0,0 c -7.732,0 -14,-1.462 -14,-3.267" id="path34"/>
        </clipPath>


        <clipPath clipPathUnits="userSpaceOnUse" id="clipPath48-soccer">
            <path d="M 1,19 C 1,9.059 9.059,1 19,1 l 0,0 c 9.941,0 18,8.059 18,18 l 0,0 c 0,9.941 -8.059,18 -18,18 l 0,0 C 9.059,37 1,28.941 1,19" id="path50"/>
        </clipPath>

        <clipPath clipPathUnits="userSpaceOnUse" id="clipPath28-baguette">
            <path d="M 24.052,31.33 5.126,12.406 C 1.342,8.62 1.288,4.133 2.856,2.564 l 0,0 C 4.424,0.997 8.912,1.049 12.697,4.835 l 0,0 18.925,18.924 c 3.784,3.785 3.837,8.273 2.269,9.841 l 0,0 c -0.605,0.606 -1.647,0.969 -2.915,0.969 l 0,0 c -2.014,0 -4.602,-0.917 -6.924,-3.239" id="path30"/>
        </clipPath>
    </defs>

  <g
     id="layer1">
    <circle
       style="opacity:1;fill:white;stroke:black;stroke-width:1;stroke-miterlimit:4;stroke-dasharray:none;stroke-opacity:0.1"
       id="path4039-0-9"
       cx="100px"
       cy="100px"
       r="90px" />
    <g
       transform="matrix(-0.54848276,-0.31666667,0.31666667,-0.54848276,67.295937,155.40705)"
       id="g8">
      <g
         transform="matrix(1.25,0,0,-1.25,0,47.5)"
         id="g10">
        <g
           id="g12">
          <g
             clip-path="url(#clipPath16)"
             id="g14">
            <g
               transform="translate(35.5391,3.5117)"
               id="g20">
              <path
                 id="path22"
                 style="fill:#662113;fill-opacity:1;fill-rule:nonzero;stroke:none"
                 d="m 0,0 c 0,0 1.18,-0.215 1.18,-1.256 0,-1.043 -1.042,-1.256 -2.084,-1.256 l -17.72,0 c -2.084,0 -5.915,4 -7.915,4 l -0.592,-4 -6.408,0 0,2.936 c 0,2.084 -0.881,2.285 -0.881,3.211 0,2.084 0.672,4.394 0.672,4.394 l 6.746,-0.31 9.463,-7.231 L 0,0 Z"
                 inkscape:connector-curvature="0" />
            </g>
            <g
               transform="translate(2.668,9.7187)"
               id="g24">
              <path
                 id="path26"
                 style="fill:#c1694f;fill-opacity:1;fill-rule:nonzero;stroke:none"
                 d="m 0,0 c 3.036,-0.731 6.332,-1.719 13.969,-5.379 0,0 2,-1.34 4.363,-1.34 l 14.539,0 c 0,0 1.18,0.257 1.18,2.424 0,1.084 -7.907,3.381 -10.27,4.465 -2.361,1.084 -6.445,6.316 -6.445,6.316 0,0 -0.17,-13.634 -7.258,-6.049 C 2.99,8.025 5.7,6.877 3.337,6.877 2.852,6.877 -0.401,5.57 -1.207,1.838 -1.322,1.305 -0.864,0.209 0,0"
                 inkscape:connector-curvature="0" />
            </g>
            <g
               transform="translate(3,15)"
               id="g28">
              <path
                 id="path35"
                 style="fill:#c1694f;fill-opacity:1;fill-rule:nonzero;stroke:none"
                 d="m 0,0 c 0,0 1,2 1,4 0,2 -1,17 -1,17 0,0 4.917,1 10,1 5.084,0 7,-1 7,-1 0,0 -6,-15 2,-23 2.55,-2.55 -2,-7 -2,-7 0,0 -1,-2 -4,0 C 10,-7 0,0 0,0"
                 inkscape:connector-curvature="0" />
            </g>
            <path
               id="path32"
               style="fill:#d99e82;fill-opacity:1;fill-rule:nonzero;stroke:none"
               d="m 11,17 -2,0 0,20 2,0 0,-20 z"
               inkscape:connector-curvature="0" />
          </g>
        </g>
      </g>
    </g>
    <g
       transform="matrix(0.47065839,0.42378272,-0.42378272,0.47065839,155.05645,106.09365)"
       id="g21">
      <g
         transform="matrix(1.25,0,0,-1.25,0,47.5)"
         id="g23">
        <g
           id="g25">
          <g
             clip-path="url(#clipPath16)"
             id="g27">
            <g
               transform="translate(28,4)"
               id="g29">
              <path
                 id="path31"
                 style="fill:#99aab5;fill-opacity:1;fill-rule:nonzero;stroke:none"
                 d="m 0,0 c 0,-2.209 -1.791,-3 -4,-3 l -10,0 c -2.209,0 -4,0.791 -4,3 0,2.209 3,7 3,13 0,6 12,6 12,0 C -3,7 0,2.209 0,0"
                 inkscape:connector-curvature="0" />
            </g>
          </g>
        </g>
        <g
           id="g33">
          <g
             clip-path="url(#clipPath28)"
             id="g26">
            <g
               transform="translate(19,37.6113)"
               id="g32">
              <path
                 id="path47"
                 style="fill:#dd2e44;fill-opacity:1;fill-rule:nonzero;stroke:none"
                 d="m 0,0 c -10.494,0 -19,-8.639 -19,-19.194 0,-2.332 1.891,-4.417 4.222,-4.417 l 29.555,0 c 2.332,0 4.223,2.085 4.223,4.417 C 19,-8.639 10.494,0 0,0"
                 inkscape:connector-curvature="0" />
            </g>
            <g
               transform="translate(8.7085,20.542)"
               id="g36">
              <path
                 id="path38"
                 style="fill:#f4abba;fill-opacity:1;fill-rule:nonzero;stroke:none"
                 d="m 0,0 c -3.4,0 -6.167,2.766 -6.167,6.167 0,3.4 2.767,6.166 6.167,6.166 3.4,0 6.167,-2.766 6.167,-6.166 C 6.167,2.766 3.4,0 0,0"
                 inkscape:connector-curvature="0" />
            </g>
            <g
               transform="translate(8.7085,33)"
               id="g40">
              <path
                 id="path42"
                 style="fill:#f4abba;fill-opacity:1;fill-rule:nonzero;stroke:none"
                 d="m 0,0 c -3.475,0 -6.292,-2.817 -6.292,-6.292 0,-3.474 2.817,-6.291 6.292,-6.291 3.475,0 6.292,2.817 6.292,6.291 C 6.292,-2.817 3.475,0 0,0 m 0,-0.25 c 3.331,0 6.042,-2.71 6.042,-6.042 0,-3.331 -2.711,-6.041 -6.042,-6.041 -3.331,0 -6.042,2.71 -6.042,6.041 0,3.332 2.711,6.042 6.042,6.042"
                 inkscape:connector-curvature="0" />
            </g>
            <g
               transform="translate(35.666,25.8115)"
               id="g44">
              <path
                 id="path46"
                 style="fill:#f4abba;fill-opacity:1;fill-rule:nonzero;stroke:none"
                 d="M 0,0 C -0.96,2.357 -2.404,4.455 -4.209,6.184 -6.674,6.16 -8.666,4.159 -8.666,1.688 c 0,-2.485 2.015,-4.5 4.5,-4.5 1.887,0 3.497,1.165 4.166,2.812"
                 inkscape:connector-curvature="0" />
            </g>
            <g
               transform="translate(27,21)"
               id="g48">
              <path
                 id="path56"
                 style="fill:#f4abba;fill-opacity:1;fill-rule:nonzero;stroke:none"
                 d="M 0,0 C 0,-2.485 -2.015,-4.5 -4.5,-4.5 -6.985,-4.5 -9,-2.485 -9,0 -9,2.485 -6.985,4.5 -4.5,4.5 -2.015,4.5 0,2.485 0,0"
                 inkscape:connector-curvature="0" />
            </g>
            <g
               transform="translate(24,32)"
               id="g52">
              <path
                 id="path54"
                 style="fill:#f4abba;fill-opacity:1;fill-rule:nonzero;stroke:none"
                 d="m 0,0 c 0,-1.656 -1.343,-3 -3,-3 -1.657,0 -3,1.344 -3,3 0,1.657 1.343,3 3,3 1.657,0 3,-1.343 3,-3"
                 inkscape:connector-curvature="0" />
            </g>
          </g>
        </g>
      </g>
    </g>
    <g
       transform="matrix(-0.47275929,-0.16278408,0.16278408,-0.47275929,61.938145,70.223708)"
       id="g49">
      <g
         transform="matrix(1.25,0,0,-1.25,0,47.5)"
         id="g51">
        <g
           id="g53">
          <g
             clip-path="url(#clipPath16)"
             id="g55">
            <g
               transform="translate(36,19)"
               id="g57">
              <path
                 id="path59"
                 style="fill:#ffcc4d;fill-opacity:1;fill-rule:nonzero;stroke:none"
                 d="m 0,0 c 0,-9.389 -7.611,-17 -17,-17 -9.389,0 -17,7.611 -17,17 0,9.389 7.611,17 17,17 C -7.611,17 0,9.389 0,0"
                 inkscape:connector-curvature="0" />
            </g>
            <g
               transform="translate(2.2402,25.9824)"
               id="g61">
              <path
                 id="path63"
                 style="fill:#292f33;fill-opacity:1;fill-rule:evenodd;stroke:none"
                 d="m 0,0 c 0.24,-0.239 1.437,-0.958 1.677,-1.675 0.24,-0.717 0.72,-4.784 2.158,-5.981 1.484,-1.233 7.077,-0.774 8.149,-0.24 2.397,1.195 2.691,4.531 3.115,6.221 0.239,0.957 1.677,0.957 1.677,0.957 0,0 1.439,0 1.678,-0.956 0.424,-1.691 0.72,-5.027 3.115,-6.221 1.073,-0.535 6.666,-0.994 8.152,0.239 1.435,1.197 1.915,5.264 2.155,5.982 0.238,0.717 1.437,1.435 1.677,1.674 0.241,0.239 0.241,1.196 0,1.436 C 33.074,1.914 27.419,2.34 21.33,1.675 20.115,1.542 19.653,1.196 16.776,1.196 13.901,1.196 13.437,1.542 12.223,1.674 6.136,2.34 0.479,1.914 0,1.436 -0.239,1.196 -0.239,0.239 0,0"
                 inkscape:connector-curvature="0" />
            </g>
            <g
               transform="translate(28.335,13.3711)"
               id="g65">
              <path
                 id="path67"
                 style="fill:#664500;fill-opacity:1;fill-rule:nonzero;stroke:none"
                 d="m 0,0 c -0.178,0.161 -0.444,0.171 -0.635,0.029 -0.039,-0.029 -3.922,-2.9 -8.7,-2.9 -4.766,0 -8.662,2.871 -8.7,2.9 -0.191,0.142 -0.457,0.13 -0.635,-0.029 -0.177,-0.16 -0.217,-0.424 -0.094,-0.628 0.129,-0.215 3.217,-5.243 9.429,-5.243 6.212,0 9.301,5.028 9.429,5.243 C 0.217,-0.423 0.178,-0.16 0,0"
                 inkscape:connector-curvature="0" />
            </g>
          </g>
        </g>
      </g>
    </g>
    <g
       transform="matrix(0.12186934,-0.99254615,0.99254615,0.12186934,70.802286,174.53237)"
       id="g69">
      <g
         transform="matrix(1.25,0,0,-1.25,0,47.5)"
         id="g71">
        <g
           id="g73">
          <g
             clip-path="url(#clipPath16)"
             id="g75">
            <g
               transform="translate(20.6016,4.6709)"
               id="g77">
              <path
                 id="path79"
                 style="fill:#77b255;fill-opacity:1;fill-rule:nonzero;stroke:none"
                 d="M 0,0 C 6.509,-6.506 17.254,7.669 15.72,7.669 8.052,7.669 -6.506,6.508 0,0"
                 inkscape:connector-curvature="0" />
            </g>
            <g
               transform="translate(16.6445,3.6279)"
               id="g81">
              <path
                 id="path83"
                 style="fill:#77b255;fill-opacity:1;fill-rule:nonzero;stroke:none"
                 d="M 0,0 C -6.032,-6.032 -15.715,7.109 -14.292,7.109 -7.182,7.109 6.035,6.034 0,0"
                 inkscape:connector-curvature="0" />
            </g>
            <g
               transform="translate(35.6133,21.2461)"
               id="g85">
              <path
                 id="path87"
                 style="fill:#f4abba;fill-opacity:1;fill-rule:nonzero;stroke:none"
                 d="m 0,0 c -0.052,0.901 -0.175,2.585 -1.398,4.227 -1.161,1.549 -3.805,3.371 -5.535,2.585 0.516,1.676 -0.263,4.125 -1.191,5.49 -1.179,1.737 -4.262,3.843 -8.146,3.027 -1.754,-0.37 -4.18,-2.036 -4.632,-3.865 -1.18,1.472 -4.221,1.675 -6.015,1.222 -2.025,-0.511 -3.153,-1.777 -3.739,-2.461 l 0.004,0.005 c -0.01,-0.01 -0.02,-0.024 -0.03,-0.034 -0.007,-0.009 -0.02,-0.024 -0.027,-0.033 -0.583,-0.689 -1.656,-1.994 -1.847,-4.074 -0.193,-2.146 0.75,-5.832 3.026,-6.042 0.149,-0.014 0.323,-0.031 0.513,-0.051 -2.27,-0.098 -3.572,-3.654 -3.594,-5.8 -0.023,-2.101 0.926,-3.506 1.443,-4.243 l -0.003,0.004 c 0.008,-0.01 0.019,-0.024 0.025,-0.036 0.007,-0.011 0.02,-0.024 0.026,-0.036 0.523,-0.733 1.525,-2.094 3.515,-2.777 1.958,-0.669 5.553,-0.656 6.566,1.237 -0.273,-2.244 3.028,-4.077 5.17,-4.439 2.115,-0.358 3.71,0.358 4.55,0.753 l -0.005,-0.003 c 0.012,0.008 0.028,0.015 0.041,0.021 0.011,0.005 0.028,0.013 0.041,0.019 0.838,0.401 2.397,1.178 3.462,3.04 0.728,1.283 1.269,3.404 0.951,5.015 0.064,-0.043 0.136,-0.089 0.192,-0.127 1.826,-1.224 4.63,1.119 5.705,2.938 C 0.111,-2.675 0,-0.012 0,0"
                 inkscape:connector-curvature="0" />
            </g>
            <g
               transform="translate(28.542,23.4585)"
               id="g89">
              <path
                 id="path91"
                 style="fill:#ea596e;fill-opacity:1;fill-rule:nonzero;stroke:none"
                 d="m 0,0 c -1.786,0.997 -4.874,0.434 -6.792,-0.308 -0.266,0.468 -0.621,0.875 -1.051,1.196 1.393,1.607 3.527,4.593 1.468,6.362 -2.191,1.883 -3.74,-2.154 -3.575,-5.605 -0.068,0.003 -0.132,0.02 -0.2,0.02 -1.02,0 -1.94,-0.402 -2.632,-1.045 -1.402,2.277 -3.943,4.244 -5.314,2.392 -1.482,-2.002 1.149,-3.153 4.222,-4.199 -0.09,-0.329 -0.154,-0.668 -0.154,-1.026 0,-0.456 0.093,-0.887 0.237,-1.293 -2.54,-0.733 -6.236,-2.718 -4.209,-4.911 2.121,-2.295 4.471,1.239 5.603,3.053 0.635,-0.454 1.407,-0.727 2.247,-0.727 0.224,0 0.441,0.029 0.655,0.066 -0.109,-4.802 1.443,-7.07 4.036,-5.892 2.295,1.043 -0.137,5.299 -1.781,7.166 0.316,0.362 0.564,0.779 0.729,1.241 C 0.497,-6.054 2.078,-1.159 0,0"
                 inkscape:connector-curvature="0" />
            </g>
            <g
               transform="translate(18.707,19.541)"
               id="g93">
              <path
                 id="path95"
                 style="fill:#be1931;fill-opacity:1;fill-rule:nonzero;stroke:none"
                 d="m 0,0 c -0.679,0 -0.668,0.562 -0.832,1.25 -0.532,2.234 -2.381,6.309 -4.601,9.163 -0.508,0.654 -0.39,1.596 0.264,2.105 0.654,0.508 1.596,0.391 2.105,-0.263 C -0.625,9.119 0.199,4.851 0.918,1.834 1.109,1.028 1.155,0.233 0.349,0.042 0.232,0.014 0.115,0 0,0"
                 inkscape:connector-curvature="0" />
            </g>
            <g
               transform="translate(16.9043,31.6729)"
               id="g97">
              <path
                 id="path99"
                 style="fill:#ffcc4d;fill-opacity:1;fill-rule:nonzero;stroke:none"
                 d="m 0,0 c 0.498,-0.684 0.079,-1.838 -0.936,-2.578 l -0.475,-0.346 c -1.016,-0.74 -2.242,-0.785 -2.741,-0.101 l -2.781,3.816 c -0.498,0.684 -0.079,1.838 0.937,2.578 l 0.475,0.346 c 1.015,0.74 2.242,0.785 2.74,0.101 L 0,0 Z"
                 inkscape:connector-curvature="0" />
            </g>
          </g>
        </g>
      </g>
    </g>
    <g
       transform="matrix(-0.86883424,0.42375878,-0.42375878,-0.86883424,148.80748,119.39708)"
       id="g101">
      <g
         transform="matrix(1.25,0,0,-1.25,0,47.5)"
         id="g103">
        <g
           id="g105">
          <g
             clip-path="url(#clipPath16)"
             id="g107">
            <g
               transform="translate(36,19)"
               id="g109">
              <path
                 id="path111"
                 style="fill:#ffcc4d;fill-opacity:1;fill-rule:nonzero;stroke:none"
                 d="m 0,0 c 0,-9.389 -7.611,-17 -17,-17 -9.388,0 -17,7.611 -17,17 0,9.388 7.612,17 17,17 C -7.611,17 0,9.388 0,0"
                 inkscape:connector-curvature="0" />
            </g>
            <g
               transform="translate(15,20.5)"
               id="g113">
              <path
                 id="path115"
                 style="fill:#664500;fill-opacity:1;fill-rule:nonzero;stroke:none"
                 d="M 0,0 C 0,-1.934 -1.119,-3.5 -2.5,-3.5 -3.881,-3.5 -5,-1.934 -5,0 -5,1.933 -3.881,3.5 -2.5,3.5 -1.119,3.5 0,1.933 0,0"
                 inkscape:connector-curvature="0" />
            </g>
            <g
               transform="translate(29.457,19.2031)"
               id="g117">
              <path
                 id="path119"
                 style="fill:#664500;fill-opacity:1;fill-rule:nonzero;stroke:none"
                 d="m 0,0 c -0.059,0.135 -1.499,3.297 -4.457,3.297 -2.957,0 -4.397,-3.162 -4.457,-3.297 -0.092,-0.207 -0.032,-0.449 0.144,-0.591 0.175,-0.142 0.426,-0.147 0.611,-0.014 0.012,0.009 1.262,0.902 3.702,0.902 2.426,0 3.674,-0.881 3.702,-0.901 0.088,-0.066 0.194,-0.099 0.298,-0.099 0.11,0 0.221,0.037 0.312,0.109 C 0.032,-0.452 0.093,-0.208 0,0"
                 inkscape:connector-curvature="0" />
            </g>
            <g
               transform="translate(6.999,24.542)"
               id="g121">
              <path
                 id="path123"
                 style="fill:#664500;fill-opacity:1;fill-rule:nonzero;stroke:none"
                 d="m 0,0 c -0.208,0 -0.419,0.065 -0.599,0.2 -0.442,0.331 -0.531,0.958 -0.2,1.4 3.262,4.35 7.616,4.4 7.8,4.4 0.552,0 1,-0.448 1,-1 C 8.001,4.449 7.556,4.002 7.005,4 6.85,3.998 3.436,3.914 0.801,0.4 0.604,0.138 0.304,0 0,0"
                 inkscape:connector-curvature="0" />
            </g>
            <g
               transform="translate(30.001,22.4165)"
               id="g125">
              <path
                 id="path127"
                 style="fill:#664500;fill-opacity:1;fill-rule:nonzero;stroke:none"
                 d="M 0,0 C -0.305,0 -0.605,0.138 -0.801,0.4 -3.393,3.856 -7.762,3.027 -7.805,3.02 -8.352,2.912 -8.873,3.263 -8.982,3.804 -9.09,4.345 -8.738,4.872 -8.197,4.98 -7.967,5.027 -2.54,6.052 0.799,1.6 1.131,1.158 1.041,0.531 0.599,0.2 0.419,0.065 0.209,0 0,0"
                 inkscape:connector-curvature="0" />
            </g>
            <g
               transform="translate(24.2539,13.4229)"
               id="g129">
              <path
                 id="path131"
                 style="fill:#664500;fill-opacity:1;fill-rule:nonzero;stroke:none"
                 d="m 0,0 c -0.187,0.11 -0.432,0.087 -0.597,-0.06 -0.009,-0.007 -1.013,-0.863 -4.657,-0.863 -3.641,0 -4.645,0.854 -4.646,0.854 -0.16,0.16 -0.405,0.19 -0.601,0.082 -0.195,-0.112 -0.293,-0.339 -0.238,-0.557 0.011,-0.044 1.145,-4.379 5.485,-4.379 4.34,0 5.474,4.335 5.485,4.379 C 0.284,-0.331 0.187,-0.113 0,0"
                 inkscape:connector-curvature="0" />
            </g>
          </g>
        </g>
      </g>
    </g>
    <g
       transform="matrix(0.09742117,-0.69318765,0.69318765,0.09742117,66.734309,95.95161)"
       id="g133">
      <g
         transform="matrix(1.25,0,0,-1.25,0,45)"
         id="g135">
        <g
           transform="translate(10.6362,14.0498)"
           id="g137">
          <path
             id="path105"
             style="fill:#99aab5;fill-opacity:1;fill-rule:nonzero;stroke:none"
             d="M 0,0 -2.122,2.122 8.485,12.729 10.606,10.607 0,0 Z"
             inkscape:connector-curvature="0" />
        </g>
        <g
           id="g16">
          <g
             clip-path="url(#clipPath20)"
             id="g18">
            <g
               transform="translate(8.5146,6.2725)"
               id="g142">
              <path
                 id="path144"
                 style="fill:#55acee;fill-opacity:1;fill-rule:nonzero;stroke:none"
                 d="m 0,0 c -0.781,-0.781 -2.047,-0.781 -2.828,0 l -4.95,4.949 c -0.781,0.781 -0.781,2.048 0,2.828 l 4.95,4.95 c 0.781,0.781 2.047,0.781 2.828,0 L 4.95,7.777 C 5.731,6.997 5.731,5.73 4.95,4.949 L 0,0 Z"
                 inkscape:connector-curvature="0" />
            </g>
            <g
               transform="translate(24.7773,22.5352)"
               id="g146">
              <path
                 id="path148"
                 style="fill:#55acee;fill-opacity:1;fill-rule:nonzero;stroke:none"
                 d="m 0,0 c -0.78,-0.781 -2.047,-0.781 -2.827,0 l -4.95,4.95 c -0.781,0.781 -0.782,2.047 -10e-4,2.828 l 4.951,4.95 c 0.781,0.782 2.047,0.781 2.828,0 L 4.95,7.778 C 5.732,6.998 5.732,5.731 4.951,4.951 L 0,0 Z"
                 inkscape:connector-curvature="0" />
            </g>
            <g
               transform="translate(12.4038,25.7173)"
               id="g150">
              <path
                 id="path152"
                 style="fill:#99aab5;fill-opacity:1;fill-rule:nonzero;stroke:none"
                 d="M 0,0 C 0,0 -0.707,2.122 -1.414,4.243 -1.862,5.584 -2.829,5.657 -3.536,4.95 -4.243,4.243 -5.657,2.829 -6.364,2.122 -7.071,1.415 -6.999,0.447 -5.657,0 c 2.121,-0.707 4.243,-1.414 4.243,-1.414 L 0,0 Z"
                 inkscape:connector-curvature="0" />
            </g>
            <g
               transform="translate(17.708,14.0508)"
               id="g154">
              <path
                 id="path156"
                 style="fill:#ccd6dd;fill-opacity:1;fill-rule:nonzero;stroke:none"
                 d="M 0,0 C -0.782,-0.781 -2.048,-0.781 -2.829,-0.001 L -9.9,7.07 c -0.781,0.782 -0.781,2.048 0,2.829 l 4.242,4.242 c 0.781,0.781 2.048,0.781 2.829,10e-4 L 4.242,7.07 C 5.022,6.29 5.022,5.023 4.241,4.241 L 0,0 Z"
                 inkscape:connector-curvature="0" />
            </g>
            <g
               transform="translate(21.0156,14.9453)"
               id="g158">
              <path
                 id="path160"
                 style="fill:#ccd6dd;fill-opacity:1;fill-rule:nonzero;stroke:none"
                 d="m 0,0 c -1.952,-1.953 -4.802,-2.27 -6.364,-0.708 -1.562,1.563 0.876,2.29 2.829,4.243 1.953,1.953 2.681,4.39 4.243,2.829 C 2.27,4.802 1.953,1.953 0,0"
                 inkscape:connector-curvature="0" />
            </g>
            <g
               transform="translate(27.96,15.8184)"
               id="g162">
              <path
                 id="path164"
                 style="fill:#99aab5;fill-opacity:1;fill-rule:nonzero;stroke:none"
                 d="m 0,0 c -2.12,2.122 -5.118,1.951 -7.071,0 -1.952,-1.954 -2.121,-4.95 0,-7.071 L 0,0 Z"
                 inkscape:connector-curvature="0" />
            </g>
            <g
               transform="translate(25.1318,12.9893)"
               id="g166">
              <path
                 id="path168"
                 style="fill:#99aab5;fill-opacity:1;fill-rule:nonzero;stroke:none"
                 d="M 0,0 2.121,-3.535 -1.414,-1.414 0,0 Z"
                 inkscape:connector-curvature="0" />
            </g>
            <g
               transform="translate(27.8135,8.8936)"
               id="g170">
              <path
                 id="path172"
                 style="fill:#99aab5;fill-opacity:1;fill-rule:nonzero;stroke:none"
                 d="m 0,0 c -0.391,-0.391 -1.023,-0.391 -1.414,0 -0.391,0.391 -0.391,1.023 0,1.414 0.391,0.391 1.023,0.391 1.414,0 C 0.391,1.023 0.391,0.391 0,0"
                 inkscape:connector-curvature="0" />
            </g>
            <g
               transform="translate(4.272,17.5854)"
               id="g56">
              <path
                 id="path58"
                 style="fill:#88c9f9;fill-opacity:1;fill-rule:nonzero;stroke:none"
                 d="M 0,0 1.414,1.415 9.192,-6.364 7.778,-7.778 0,0 Z"
                 inkscape:connector-curvature="0" />
            </g>
            <g
               transform="translate(26.1924,23.9497)"
               id="g60">
              <path
                 id="path62"
                 style="fill:#88c9f9;fill-opacity:1;fill-rule:nonzero;stroke:none"
                 d="M 0,0 -1.414,-1.414 -9.192,6.364 -7.778,7.778 0,0 Z"
                 inkscape:connector-curvature="0" />
            </g>
            <g
               transform="translate(0.7368,14.0498)"
               id="g64">
              <path
                 id="path66"
                 style="fill:#88c9f9;fill-opacity:1;fill-rule:nonzero;stroke:none"
                 d="M 0,0 1.414,1.415 9.192,-6.363 7.777,-7.777 0,0 Z"
                 inkscape:connector-curvature="0" />
            </g>
            <g
               transform="translate(29.7275,27.4858)"
               id="g68">
              <path
                 id="path70"
                 style="fill:#88c9f9;fill-opacity:1;fill-rule:nonzero;stroke:none"
                 d="M 0,0 -1.414,-1.415 -9.192,6.363 -7.777,7.777 0,0 Z"
                 inkscape:connector-curvature="0" />
            </g>
            <g
               transform="translate(8.3066,28.3989)"
               id="g72">
              <path
                 id="path74"
                 style="fill:#99aab5;fill-opacity:1;fill-rule:nonzero;stroke:none"
                 d="m 0,0 c -0.39,-0.39 -1.023,-0.39 -1.414,0 -0.391,0.391 -0.39,1.024 0,1.415 0.391,0.39 1.024,0.39 1.414,0 C 0.391,1.024 0.391,0.391 0,0"
                 inkscape:connector-curvature="0" />
            </g>
            <g
               transform="translate(23.6816,5.5693)"
               id="g76">
              <path
                 id="path78"
                 style="fill:#ffac33;fill-opacity:1;fill-rule:nonzero;stroke:none"
                 d="M 0,0 C 0,0.017 0.001,0.034 0.002,0.051 0.029,0.603 0.499,1.027 1.051,1 1.066,0.999 3.207,0.937 4.851,2.58 6.487,4.218 6.429,6.353 6.431,6.381 6.398,6.931 6.828,7.401 7.379,7.43 7.931,7.457 8.4,7.032 8.428,6.48 8.44,6.358 8.551,3.452 6.265,1.166 3.977,-1.121 1.073,-1.004 0.951,-0.998 0.416,-0.971 0,-0.529 0,0"
                 inkscape:connector-curvature="0" />
            </g>
            <g
               transform="translate(24.2383,2.0107)"
               id="g80">
              <path
                 id="path82"
                 style="fill:#ffac33;fill-opacity:1;fill-rule:nonzero;stroke:none"
                 d="M 0,0 C 0,0.109 0.018,0.221 0.057,0.33 0.238,0.852 0.809,1.126 1.33,0.943 1.437,0.909 4.207,0.051 7.294,3.139 c 3.127,3.126 2.414,6.126 2.382,6.252 -0.137,0.529 0.184,1.077 0.716,1.216 0.53,0.139 1.073,-0.172 1.216,-0.702 C 11.654,9.735 12.686,5.7 8.708,1.725 4.694,-2.291 0.832,-1.001 0.67,-0.943 0.258,-0.8 0,-0.413 0,0"
                 inkscape:connector-curvature="0" />
            </g>
          </g>
        </g>
      </g>
    </g>
    <g
       transform="matrix(-0.19534089,0.56731115,-0.56731115,-0.19534089,154.28852,146.23778)"
       id="g188">
      <g
         transform="matrix(1.25,0,0,-1.25,0,45)"
         id="g190">
        <g
           id="g192">
          <g
             clip-path="url(#clipPath16)"
             id="g194">
            <g
               transform="translate(3.9233,13.0771)"
               id="g196">
              <path
                 id="path198"
                 style="fill:#66757f;fill-opacity:1;fill-rule:nonzero;stroke:none"
                 d="m 0,0 c -0.212,-0.511 -0.798,-0.751 -1.308,-0.539 -0.509,0.213 -0.751,0.798 -0.538,1.308 L 2.77,13.307 c 0.212,0.51 0.797,0.751 1.307,0.539 0.51,-0.213 0.751,-0.798 0.539,-1.308 L 0,0 Z"
                 inkscape:connector-curvature="0" />
            </g>
            <g
               transform="translate(13.9229,13.8457)"
               id="g200">
              <path
                 id="path202"
                 style="fill:#66757f;fill-opacity:1;fill-rule:nonzero;stroke:none"
                 d="m 0,0 c 0.212,-0.51 -0.029,-1.095 -0.539,-1.308 -0.509,-0.212 -1.095,0.029 -1.307,0.539 L -6.462,11.77 c -0.212,0.509 0.029,1.095 0.539,1.307 0.509,0.213 1.095,-0.029 1.307,-0.538 L 0,0 Z"
                 inkscape:connector-curvature="0" />
            </g>
            <g
               transform="translate(23.9238,13.0771)"
               id="g204">
              <path
                 id="path206"
                 style="fill:#66757f;fill-opacity:1;fill-rule:nonzero;stroke:none"
                 d="m 0,0 c -0.213,-0.511 -0.799,-0.751 -1.309,-0.539 -0.509,0.213 -0.75,0.798 -0.538,1.308 L 2.77,13.307 c 0.212,0.51 0.796,0.751 1.306,0.539 0.51,-0.213 0.752,-0.798 0.539,-1.308 L 0,0 Z"
                 inkscape:connector-curvature="0" />
            </g>
            <g
               transform="translate(33.9229,13.8457)"
               id="g208">
              <path
                 id="path210"
                 style="fill:#66757f;fill-opacity:1;fill-rule:nonzero;stroke:none"
                 d="m 0,0 c 0.212,-0.51 -0.028,-1.095 -0.538,-1.308 -0.51,-0.212 -1.096,0.029 -1.309,0.539 L -6.462,11.77 c -0.213,0.509 0.029,1.095 0.539,1.307 0.51,0.213 1.095,-0.029 1.307,-0.538 L 0,0 Z"
                 inkscape:connector-curvature="0" />
            </g>
            <g
               transform="translate(14.8569,14)"
               id="g212">
              <path
                 id="path214"
                 style="fill:#ffac33;fill-opacity:1;fill-rule:nonzero;stroke:none"
                 d="m 0,0 -13.714,0 c -0.631,0 -1.143,-0.511 -1.143,-1.143 0,-2.524 3.582,-4.571 8,-4.571 4.419,0 8,2.047 8,4.571 C 1.143,-0.511 0.631,0 0,0"
                 inkscape:connector-curvature="0" />
            </g>
            <g
               transform="translate(24,2)"
               id="g216">
              <path
                 id="path218"
                 style="fill:#ffac33;fill-opacity:1;fill-rule:nonzero;stroke:none"
                 d="m 0,0 -12,0 c -0.552,0 -1,0.447 -1,1 0,2.209 3.134,4 7,4 C -2.134,5 1,3.209 1,1 1,0.447 0.553,0 0,0"
                 inkscape:connector-curvature="0" />
            </g>
            <g
               transform="translate(34.8574,14)"
               id="g220">
              <path
                 id="path222"
                 style="fill:#ffac33;fill-opacity:1;fill-rule:nonzero;stroke:none"
                 d="m 0,0 -13.715,0 c -0.632,0 -1.142,-0.511 -1.142,-1.143 0,-2.524 3.581,-4.571 8,-4.571 4.418,0 8,2.047 8,4.571 C 1.143,-0.511 0.632,0 0,0"
                 inkscape:connector-curvature="0" />
            </g>
            <g
               transform="translate(19,33)"
               id="g224">
              <path
                 id="path226"
                 style="fill:#ffac33;fill-opacity:1;fill-rule:nonzero;stroke:none"
                 d="M 0,0 C 0,0.552 -0.447,1 -1,1 -1.552,1 -2,0.552 -2,0 l 0,-27 c 0,-0.553 0.448,-1 1,-1 0.553,0 1,0.447 1,1 L 0,0 Z"
                 inkscape:connector-curvature="0" />
            </g>
            <g
               transform="translate(20,32)"
               id="g228">
              <path
                 id="path230"
                 style="fill:#ffac33;fill-opacity:1;fill-rule:nonzero;stroke:none"
                 d="m 0,0 c 0,-1.104 -0.895,-2 -2,-2 -1.104,0 -2,0.896 -2,2 0,1.105 0.896,2 2,2 1.105,0 2,-0.895 2,-2"
                 inkscape:connector-curvature="0" />
            </g>
            <g
               transform="translate(10,26)"
               id="g232">
              <path
                 id="path234"
                 style="fill:#ffac33;fill-opacity:1;fill-rule:nonzero;stroke:none"
                 d="m 0,0 c 0,-1.104 -0.895,-2 -2,-2 -1.104,0 -2,0.896 -2,2 0,1.105 0.896,2 2,2 1.105,0 2,-0.895 2,-2"
                 inkscape:connector-curvature="0" />
            </g>
            <g
               transform="translate(30,26)"
               id="g236">
              <path
                 id="path238"
                 style="fill:#ffac33;fill-opacity:1;fill-rule:nonzero;stroke:none"
                 d="m 0,0 c 0,-1.104 -0.895,-2 -2,-2 -1.104,0 -2,0.896 -2,2 0,1.105 0.896,2 2,2 1.105,0 2,-0.895 2,-2"
                 inkscape:connector-curvature="0" />
            </g>
            <g
               transform="translate(28,26)"
               id="g240">
              <path
                 id="path242"
                 style="fill:#ffac33;fill-opacity:1;fill-rule:nonzero;stroke:none"
                 d="m 0,0 c 0,-1.104 0,0 -10,0 -10,0 -10,-1.104 -10,0 0,1.105 3,4 10,4 C -3,4 0,1.105 0,0"
                 inkscape:connector-curvature="0" />
            </g>
          </g>
        </g>
      </g>
    </g>
    <g
       transform="matrix(0.35069692,-0.71903524,0.71903524,0.35069692,72.035115,49.239677)"
       id="g244">
      <g
         transform="matrix(1.25,0,0,-1.25,0,45)"
         id="g246">
        <g
           id="g248">
          <g
             clip-path="url(#clipPath16)"
             id="g250">
            <g
               transform="translate(11.5747,23.8018)"
               id="g252">
              <path
                 id="path254"
                 style="fill:#c1694f;fill-opacity:1;fill-rule:nonzero;stroke:none"
                 d="M 0,0 C -1.083,-0.411 -2.459,0.573 -3.076,2.197 -3.691,3.82 -3.313,5.469 -2.23,5.88 -1.148,6.291 0.229,5.307 0.845,3.684 1.461,2.06 1.082,0.411 0,0 M 2.731,4.399 C 1.522,7.585 -1.18,9.516 -3.304,8.71 -5.428,7.904 -6.17,4.668 -4.962,1.481 c 1.209,-3.186 3.911,-5.116 6.035,-4.31 2.124,0.806 2.866,4.042 1.658,7.228"
                 inkscape:connector-curvature="0" />
            </g>
            <g
               transform="translate(26.5049,25.999)"
               id="g256">
              <path
                 id="path258"
                 style="fill:#c1694f;fill-opacity:1;fill-rule:nonzero;stroke:none"
                 d="m 0,0 c -0.616,-1.624 -1.992,-2.608 -3.075,-2.197 -1.081,0.411 -1.461,2.06 -0.844,3.684 0.616,1.623 1.992,2.607 3.074,2.196 C 0.237,3.272 0.617,1.624 0,0 m 0.229,6.513 c -2.124,0.805 -4.827,-1.125 -6.036,-4.311 -1.208,-3.186 -0.465,-6.423 1.659,-7.228 2.125,-0.807 4.827,1.124 6.035,4.31 1.209,3.187 0.467,6.423 -1.658,7.229"
                 inkscape:connector-curvature="0" />
            </g>
            <g
               transform="translate(16.6299,4.2529)"
               id="g260">
              <path
                 id="path262"
                 style="fill:#272b2b;fill-opacity:1;fill-rule:nonzero;stroke:none"
                 d="m 0,0 c -2.057,0 -5.142,-0.971 -5.142,-3.027 0,-1.03 3.942,-1.143 6.085,-1.143 C 3.086,-4.17 1.029,0 1.029,0 L 0,0 Z"
                 inkscape:connector-curvature="0" />
            </g>
            <g
               transform="translate(18.5464,4.2529)"
               id="g264">
              <path
                 id="path266"
                 style="fill:#272b2b;fill-opacity:1;fill-rule:nonzero;stroke:none"
                 d="M 0,0 C 2.057,0 5.142,-0.971 5.142,-3.027 5.142,-4.057 1.201,-4.17 -0.942,-4.17 -3.085,-4.17 -1.028,0 -1.028,0 L 0,0 Z"
                 inkscape:connector-curvature="0" />
            </g>
            <g
               transform="translate(23.8291,26.7856)"
               id="g268">
              <path
                 id="path270"
                 style="fill:#c1694f;fill-opacity:1;fill-rule:nonzero;stroke:none"
                 d="m 0,0 c -1.028,1.028 -3.085,5.214 -2.057,6.214 l -4.113,0 -4.114,0 c 1.028,-1 -1.029,-5.186 -2.057,-6.214 -1.029,-1.028 -6.171,-2.079 -6.171,-8.25 0,-6.17 8.228,-13.38 9.256,-15.437 1.028,-1.028 3.086,-1.033 3.086,-1.033 0,0 2.057,-0.003 3.085,1.025 1.028,2.057 9.256,9.277 9.256,15.447 0,6.17 -5.143,7.22 -6.171,8.248"
                 inkscape:connector-curvature="0" />
            </g>
          </g>
        </g>
        <g
           id="g272">
          <g
             clip-path="url(#clipPath44)"
             id="g42">
            <path
               id="path48"
               style="fill:#272b2b;fill-opacity:1;fill-rule:nonzero;stroke:none"
               d="M 32,14 4,14 4,24 32,24 32,14 Z"
               inkscape:connector-curvature="0" />
          </g>
        </g>
        <g
           id="g50">
          <g
             clip-path="url(#clipPath54)"
             id="g277">
            <g
               transform="translate(18,33)"
               id="g58">
              <path
                 id="path60"
                 style="fill:#c1694f;fill-opacity:1;fill-rule:nonzero;stroke:none"
                 d="m 0,0 -4.455,0 c 0,-4 -0.859,-5.143 -1.887,-6.171"
                 inkscape:connector-curvature="0" />
            </g>
            <g
               transform="translate(17.6587,31.6421)"
               id="g62">
              <path
                 id="path64"
                 style="fill:#272b2b;fill-opacity:1;fill-rule:nonzero;stroke:none"
                 d="M 0,0 C 2.057,0 6.03,0.928 6.03,2.985 6.03,4.014 2.088,4.149 -0.054,4.149 -2.198,4.149 -0.141,0 -0.141,0 L 0,0 Z"
                 inkscape:connector-curvature="0" />
            </g>
            <g
               transform="translate(17.6587,31.6421)"
               id="g66">
              <path
                 id="path68"
                 style="fill:#272b2b;fill-opacity:1;fill-rule:nonzero;stroke:none"
                 d="m 0,0 c -2.057,0 -6.03,0.928 -6.03,2.985 0,1.029 3.942,1.164 6.084,1.164 C 2.198,4.149 0.141,0 0.141,0 L 0,0 Z"
                 inkscape:connector-curvature="0" />
            </g>
            <g
               transform="translate(13.0308,16)"
               id="g70">
              <path
                 id="path72"
                 style="fill:#c1694f;fill-opacity:1;fill-rule:nonzero;stroke:none"
                 d="m 0,0 -2.571,0 c -0.285,0 -0.514,0.216 -0.514,0.5 0,0.284 0.229,0.5 0.514,0.5 l 2.54,0 0,4 -4,0 0,-1 2.488,0 C -1.259,4 -1.029,3.784 -1.029,3.5 -1.029,3.216 -1.259,3 -1.543,3 L -3.968,3 C -4.51,3 -5.031,3.146 -5.031,3.771 l 0,1.314 C -5.031,5.812 -4.427,6 -4.143,6 L 0,6 C 0.699,6 0.969,5.521 0.969,5.085 l 0,-4.113 C 0.969,0.354 0.511,0 0,0"
                 inkscape:connector-curvature="0" />
            </g>
            <g
               transform="translate(27.0313,16)"
               id="g74">
              <path
                 id="path76"
                 style="fill:#c1694f;fill-opacity:1;fill-rule:nonzero;stroke:none"
                 d="m 0,0 -2.572,0 c -0.283,0 -0.514,0.216 -0.514,0.5 0,0.284 0.231,0.5 0.514,0.5 l 2.541,0 0,4 -4,0 0,-1 2.488,0 C -1.26,4 -1.029,3.784 -1.029,3.5 -1.029,3.216 -1.26,3 -1.543,3 L -3.969,3 C -4.51,3 -5.031,3.146 -5.031,3.771 l 0,1.314 C -5.031,5.812 -4.428,6 -4.143,6 L 0,6 C 0.698,6 0.969,5.521 0.969,5.085 l 0,-4.113 C 0.969,0.354 0.511,0 0,0"
                 inkscape:connector-curvature="0" />
            </g>
            <g
               transform="translate(20.0313,16)"
               id="g78">
              <path
                 id="path80"
                 style="fill:#c1694f;fill-opacity:1;fill-rule:nonzero;stroke:none"
                 d="m 0,0 -2.572,0 c -0.283,0 -0.514,0.216 -0.514,0.5 0,0.284 0.231,0.5 0.514,0.5 l 2.541,0 0,4 -4,0 0,-1 2.488,0 C -1.26,4 -1.029,3.784 -1.029,3.5 -1.029,3.216 -1.26,3 -1.543,3 L -3.969,3 C -4.51,3 -5.031,3.146 -5.031,3.771 l 0,1.314 C -5.031,5.812 -4.428,6 -4.143,6 L 0,6 C 0.698,6 0.969,5.521 0.969,5.085 l 0,-4.113 C 0.969,0.354 0.511,0 0,0"
                 inkscape:connector-curvature="0" />
            </g>
          </g>
        </g>
      </g>
    </g>
    <g
       transform="matrix(-0.33561553,0.53709713,-0.53709713,-0.33561553,183.02136,88.394734)"
       id="g291">
      <g
         transform="matrix(1.25,0,0,-1.25,0,45)"
         id="g293">
        <g
           id="g295">
          <g
             clip-path="url(#clipPath16)"
             id="g297">
            <g
               transform="translate(12.75,18.25)"
               id="g299">
              <path
                 id="path301"
                 style="fill:#d99e82;fill-opacity:1;fill-rule:nonzero;stroke:none"
                 d="m 0,0 c 1.226,-2.195 1.855,1.361 9.313,2.625 7.457,1.264 13.728,-4.454 13.859,-5.413 0.131,-0.958 -4.448,-9.462 -9.463,-9.462 l -15.71,0 c -4.142,0 -7.022,7.224 -3.999,11.438 0,0 4.5,3.5 6,0.812"
                 inkscape:connector-curvature="0" />
            </g>
            <g
               transform="translate(13.0083,17.8643)"
               id="g303">
              <path
                 id="path305"
                 style="fill:#c1694f;fill-opacity:1;fill-rule:nonzero;stroke:none"
                 d="m 0,0 c -4.989,-6.937 -6.04,-11.864 -2.259,-11.864 -4.142,0 -6.577,6.187 -4.468,11.031 0.463,1.064 1.758,2.492 1.758,2.492 L -0.79,1.667 C -0.627,1.347 -0.191,0.301 0,0"
                 inkscape:connector-curvature="0" />
            </g>
            <g
               transform="translate(20.0625,13.25)"
               id="g307">
              <path
                 id="path309"
                 style="fill:#e1e8ed;fill-opacity:1;fill-rule:nonzero;stroke:none"
                 d="M 0,0 C 6.672,2.682 15.729,3.171 15.859,2.212 15.99,1.254 11.411,-7.25 6.396,-7.25 l -14.646,0 c -4.143,0 1.232,4.429 8.25,7.25"
                 inkscape:connector-curvature="0" />
            </g>
            <g
               transform="translate(25.3594,14.875)"
               id="g311">
              <path
                 id="path313"
                 style="fill:#292f33;fill-opacity:1;fill-rule:nonzero;stroke:none"
                 d="M 0,0 C 6,1.312 10.468,1.282 10.563,0.587 10.642,0.009 9.004,-3.32 6.59,-5.867 8.794,-3.063 8.01,0.246 0,0"
                 inkscape:connector-curvature="0" />
            </g>
            <g
               transform="translate(7.125,29.875)"
               id="g315">
              <path
                 id="path317"
                 style="fill:#3e721d;fill-opacity:1;fill-rule:nonzero;stroke:none"
                 d="m 0,0 c 1.562,4.937 10.439,4.143 10.063,-0.687 -0.378,-4.829 -6.454,-7.86 -4.18,-11.324 -1.586,-1.38 -5.015,-0.913 -6.727,-0.833 0.702,1.351 1.381,2.632 1.813,3.406 C 3.884,-4.203 -1.163,-3.674 0,0"
                 inkscape:connector-curvature="0" />
            </g>
            <g
               transform="translate(1.8926,26.9551)"
               id="g319">
              <path
                 id="path321"
                 style="fill:#ffcc4d;fill-opacity:1;fill-rule:nonzero;stroke:none"
                 d="m 0,0 c 0.568,1.1 0.549,-0.106 3.352,-0.142 1.554,-0.02 1.463,0.56 1.664,1.621 0.042,0.223 0.776,-1.616 2.061,-1.807 3.554,-0.531 1.879,-1.94 0,-2.261 C 6.176,-2.743 5.067,-2.908 3.14,-2.744 0.62,-2.532 -0.628,-1.216 0,0"
                 inkscape:connector-curvature="0" />
            </g>
            <g
               transform="translate(12.5024,19.375)"
               id="g323">
              <path
                 id="path325"
                 style="fill:#f5f8fa;fill-opacity:1;fill-rule:nonzero;stroke:none"
                 d="m 0,0 c 0.044,-0.625 0.506,-1.511 0.506,-1.511 -1.016,-1.473 -5.643,-3.016 -7.354,-2.929 0.096,0.627 0.283,1.362 0.627,2.096 C -4.377,-1.873 -1.561,-1.273 0,0"
                 inkscape:connector-curvature="0" />
            </g>
            <g
               transform="translate(11.708,29.8486)"
               id="g327">
              <path
                 id="path329"
                 style="fill:#292f33;fill-opacity:1;fill-rule:nonzero;stroke:none"
                 d="m 0,0 c 0,-0.716 -0.58,-1.296 -1.296,-1.296 -0.716,0 -1.295,0.58 -1.295,1.296 0,0.716 0.579,1.295 1.295,1.295 C -0.58,1.295 0,0.716 0,0"
                 inkscape:connector-curvature="0" />
            </g>
          </g>
        </g>
      </g>
    </g>
    <g
       transform="matrix(-0.51423009,0.61283555,-0.61283555,-0.51423009,66.465814,85.74374)"
       id="g331">
      <g
         transform="matrix(1.25,0,0,-1.25,0,45)"
         id="g333">
        <g
           id="g335">
          <g
             clip-path="url(#clipPath16)"
             id="g337">
            <g
               transform="translate(14.8487,18.4514)"
               id="g339">
              <path
                 id="path341"
                 style="fill:#ef9645;fill-opacity:1;fill-rule:nonzero;stroke:none"
                 d="m 0,0 c 0.274,-1.01 -0.334,-2.049 -1.36,-2.322 l -0.247,-0.065 c -1.026,-0.27 -2.079,0.33 -2.353,1.341 l -3.714,13.659 c -0.471,1.642 -0.147,3.184 1.279,3.601 l 0.449,0.102 c 1.025,0.271 1.625,-0.423 1.899,-1.434 L 0,0 Z"
                 inkscape:connector-curvature="0" />
            </g>
            <g
               transform="translate(21.7875,17.5486)"
               id="g343">
              <path
                 id="path345"
                 style="fill:#ef9645;fill-opacity:1;fill-rule:nonzero;stroke:none"
                 d="m 0,0 c -0.192,-1.075 -1.233,-1.794 -2.325,-1.604 l -0.087,0.015 c -1.091,0.189 -1.819,1.215 -1.627,2.29 l 2.685,15.01 c 0.193,1.076 0.713,1.814 1.805,1.625 l 0.241,-0.073 c 2.77,-0.657 1.621,-4.337 1.993,-2.254 L 0,0 Z"
                 inkscape:connector-curvature="0" />
            </g>
            <g
               transform="translate(11.1357,16.9619)"
               id="g347">
              <path
                 id="path349"
                 style="fill:#ffdc5d;fill-opacity:1;fill-rule:nonzero;stroke:none"
                 d="m 0,0 c 0.259,-0.967 -0.314,-1.961 -1.281,-2.221 l -0.363,-0.096 c -0.966,-0.259 -1.96,0.314 -2.219,1.281 l -3.203,11.953 c -0.259,0.967 0.315,1.962 1.282,2.221 l 0.361,0.096 c 0.967,0.26 1.961,-0.314 2.221,-1.281 L 0,0 Z"
                 inkscape:connector-curvature="0" />
            </g>
            <g
               transform="translate(15.6904,19.2822)"
               id="g351">
              <path
                 id="path353"
                 style="fill:#ffdc5d;fill-opacity:1;fill-rule:nonzero;stroke:none"
                 d="m 0,0 c 0.269,-1 -0.325,-2.028 -1.325,-2.296 l -0.242,-0.065 c -1,-0.268 -2.029,0.326 -2.296,1.326 l -3.948,14.73 c -0.268,1 0.326,2.029 1.326,2.296 l 0.242,0.065 c 1,0.268 2.028,-0.326 2.297,-1.326 L 0,0 Z"
                 inkscape:connector-curvature="0" />
            </g>
            <g
               transform="translate(20.6836,18.0781)"
               id="g355">
              <path
                 id="path357"
                 style="fill:#ffdc5d;fill-opacity:1;fill-rule:nonzero;stroke:none"
                 d="m 0,0 c -0.18,-1.02 -1.152,-1.701 -2.172,-1.521 l -0.246,0.044 c -1.02,0.179 -1.701,1.152 -1.521,2.171 l 2.648,15.018 c 0.18,1.019 1.152,1.701 2.172,1.521 L 1.127,17.19 C 2.146,17.011 2.828,16.037 2.648,15.018 L 0,0 Z"
                 inkscape:connector-curvature="0" />
            </g>
            <g
               transform="translate(25.5859,17.0869)"
               id="g359">
              <path
                 id="path361"
                 style="fill:#ffdc5d;fill-opacity:1;fill-rule:nonzero;stroke:none"
                 d="m 0,0 c -0.168,-0.952 -1.074,-1.588 -2.027,-1.42 l -0.493,0.087 c -0.952,0.168 -1.586,1.075 -1.419,2.027 l 2.518,14.28 c 0.168,0.951 1.075,1.588 2.026,1.42 L 1.099,16.307 C 2.051,16.139 2.686,15.23 2.518,14.279 L 0,0 Z"
                 inkscape:connector-curvature="0" />
            </g>
            <g
               transform="translate(28.9268,8.6406)"
               id="g363">
              <path
                 id="path365"
                 style="fill:#ffdc5d;fill-opacity:1;fill-rule:nonzero;stroke:none"
                 d="M 0,0 C -0.523,-0.903 -1.677,-1.213 -2.581,-0.691 L -2.773,-0.58 C -3.677,-0.059 -3.986,1.097 -3.464,2 l 5.609,9.718 c 0.523,0.903 1.678,1.214 2.582,0.692 L 4.919,12.299 C 5.823,11.777 6.132,10.621 5.61,9.718 L 0,0 Z"
                 inkscape:connector-curvature="0" />
            </g>
            <g
               transform="translate(6.1826,19.9932)"
               id="g367">
              <path
                 id="path369"
                 style="fill:#ffdc5d;fill-opacity:1;fill-rule:nonzero;stroke:none"
                 d="m 0,0 c 0.4,-1.493 -0.183,-5.186 -0.183,-7.993 0,-2.808 2.125,-12 12,-12 9.875,0 10.5,8.234 12,10.666 1.5,2.432 -0.833,6.375 -2,4.375 -1.167,-2 -2.933,-1.163 -2.333,2.375 0.601,3.539 -3.12,5.465 -3.635,2.544 C 15.411,-2.51 14.411,-1.786 14.994,0.88 15.577,3.547 11.48,4.3 10.817,0.673 10.33,-1.993 9.365,-0.219 8.966,1.311 8.567,2.84 4.482,2.974 5.015,0.602 5.776,-2.785 5.01,-3.465 3.901,0.673 3.198,3.297 0,0 0,0"
                 inkscape:connector-curvature="0" />
            </g>
            <g
               transform="translate(26.459,13.9854)"
               id="g371">
              <path
                 id="path373"
                 style="fill:#ef9645;fill-opacity:1;fill-rule:nonzero;stroke:none"
                 d="M 0,0 C 0.023,0.002 0.046,0.008 0.069,0.011 -0.319,0.079 -0.644,0.45 -0.804,1.117 -2.721,0.869 -5.39,0.404 -7.459,-1.619 c -2.556,-2.499 -2.992,-5.2 -2.971,-7.007 0.016,-1.457 0.812,-2.146 1.045,0.012 C -9.084,-5.819 -7.037,-0.574 0,0"
                 inkscape:connector-curvature="0" />
            </g>
          </g>
        </g>
      </g>
    </g>
    <g
       transform="matrix(-0.23379794,-0.47935682,0.47935682,-0.23379794,33.621434,142.47415)"
       id="g375">
      <g
         transform="matrix(1.25,0,0,-1.25,0,47.5)"
         id="g377">
        <g
           id="g379">
          <g
             clip-path="url(#clipPath16)"
             id="g381">
            <g
               transform="translate(9.2314,27)"
               id="g383">
              <path
                 id="path385"
                 style="fill:#ffac33;fill-opacity:1;fill-rule:nonzero;stroke:none"
                 d="M 0,0 C 6,8 14,10 18,10 19,10 19,9 18,9 17,9 12,7 11,0 10,-7 0,0 0,0"
                 inkscape:connector-curvature="0" />
            </g>
            <g
               transform="translate(8.2314,9)"
               id="g387">
              <path
                 id="path389"
                 style="fill:#ffac33;fill-opacity:1;fill-rule:nonzero;stroke:none"
                 d="m 0,0 c 4,-3 13,-8 18,-8 3,0 2,1 1,1 C 18,-7 10,-4 9,0 8,4 0,0 0,0"
                 inkscape:connector-curvature="0" />
            </g>
            <g
               transform="translate(30,18)"
               id="g391">
              <path
                 id="path393"
                 style="fill:#ffcc4d;fill-opacity:1;fill-rule:nonzero;stroke:none"
                 d="M 0,0 C 0,-4.418 3.791,-10 6,-10 8.209,-10 4,-4.418 4,0 4,4.418 8.209,10 6,10 3.791,10 0,4.418 0,0"
                 inkscape:connector-curvature="0" />
            </g>
            <g
               transform="translate(31.2314,17.9658)"
               id="g395">
              <path
                 id="path397"
                 style="fill:#ffcc4d;fill-opacity:1;fill-rule:nonzero;stroke:none"
                 d="m 0,0 c 0,-6.854 -6.591,-12.41 -13.445,-12.41 -5.294,0 -11.666,3.285 -14.291,6.205 -0.773,0.859 -4.325,1.034 -1.222,3.102 -3.103,2.069 0.359,2.012 0.989,3.103 2.463,4.263 6.251,14.479 14.524,14.479 C -5.171,14.479 0,6.854 0,0"
                 inkscape:connector-curvature="0" />
            </g>
          </g>
        </g>
        <g
           id="g399">
          <g
             clip-path="url(#clipPath40)"
             id="g38">
            <g
               transform="translate(20.001,18)"
               id="g402">
              <path
                 id="path404"
                 style="fill:#f4900c;fill-opacity:1;fill-rule:nonzero;stroke:none"
                 d="M 0,0 C -0.012,0 -0.022,0 -0.034,0.001 -0.586,0.019 -1.019,0.481 -1,1.033 -0.751,8.573 6.294,11.781 6.594,11.914 7.1,12.141 7.689,11.91 7.913,11.405 8.137,10.901 7.91,10.311 7.406,10.086 7.153,9.973 1.206,7.236 0.998,0.967 0.98,0.426 0.536,0 0,0"
                 inkscape:connector-curvature="0" />
            </g>
            <g
               transform="translate(25.001,20)"
               id="g406">
              <path
                 id="path408"
                 style="fill:#f4900c;fill-opacity:1;fill-rule:nonzero;stroke:none"
                 d="M 0,0 C -0.065,0 -0.131,0.006 -0.197,0.02 -0.738,0.128 -1.09,0.655 -0.981,1.196 -0.063,5.787 3.986,7 5.999,7 c 0.553,0 1,-0.448 1,-1 C 6.999,5.449 6.554,5.002 6.003,5 5.83,4.999 1.802,4.915 0.979,0.804 0.885,0.329 0.467,0 0,0"
                 inkscape:connector-curvature="0" />
            </g>
            <g
               transform="translate(15,16)"
               id="g410">
              <path
                 id="path412"
                 style="fill:#f4900c;fill-opacity:1;fill-rule:nonzero;stroke:none"
                 d="m 0,0 c -0.552,0 -1,0.447 -1,1 0,12.598 10.605,15.926 10.713,15.958 0.529,0.158 1.086,-0.142 1.245,-0.671 0.158,-0.529 -0.142,-1.086 -0.67,-1.245 C 9.881,14.917 1,12.06 1,1 1,0.447 0.552,0 0,0"
                 inkscape:connector-curvature="0" />
            </g>
          </g>
        </g>
        <g
           id="g414">
          <g
             clip-path="url(#clipPath60)"
             id="g416">
            <g
               transform="translate(12,21.5)"
               id="g418">
              <path
                 id="path420"
                 style="fill:#292f33;fill-opacity:1;fill-rule:nonzero;stroke:none"
                 d="M 0,0 C 0,-0.829 -0.671,-1.5 -1.5,-1.5 -2.329,-1.5 -3,-0.829 -3,0 -3,0.829 -2.329,1.5 -1.5,1.5 -0.671,1.5 0,0.829 0,0"
                 inkscape:connector-curvature="0" />
            </g>
          </g>
        </g>
      </g>
    </g>
    <g
       transform="matrix(-0.43571123,-0.67093645,0.67093645,-0.43571123,133.14508,79.666311)"
       id="g422">
      <g
         transform="matrix(1.25,0,0,-1.25,0,45)"
         id="g424">
        <g
           id="g426">
          <g
             clip-path="url(#clipPath16)"
             id="g428">
            <g
               transform="translate(23.1064,30.0288)"
               id="g430">
              <path
                 id="path432"
                 style="fill:#dd2e44;fill-opacity:1;fill-rule:nonzero;stroke:none"
                 d="m 0,0 c -5.491,5.491 -14.722,6.492 -19.799,1.414 -5.077,-5.077 -4.077,-14.308 1.414,-19.799 3.554,-3.554 7.785,-4.324 11.706,-3.058 l -0.014,-0.013 c 0,0 0.053,0.022 0.13,0.052 0.263,0.088 0.526,0.179 0.787,0.284 0.698,0.239 1.734,0.558 2.942,0.806 1.848,0.38 3.541,-1.606 4.955,-3.021 1.414,-1.414 4.242,-5.657 4.949,-6.364 0.707,-0.707 1.414,0 2.122,0.707 l 0.708,0.707 0.707,0.707 c 0.707,0.708 1.414,1.415 0.707,2.122 -0.707,0.707 -4.951,3.536 -6.365,4.95 -1.414,1.414 -3.4,3.107 -3.02,4.955 0.198,0.965 0.441,1.815 0.653,2.481 C 4.556,-8.849 4.118,-4.119 0,0"
                 inkscape:connector-curvature="0" />
            </g>
            <g
               transform="translate(15.564,8.3447)"
               id="g434">
              <path
                 id="path436"
                 style="fill:#d99e82;fill-opacity:1;fill-rule:nonzero;stroke:none"
                 d="M 0,0 C 0.289,0.07 0.578,0.148 0.864,0.241 L 0.849,0.229 c 0,0 0.053,0.021 0.13,0.051 0.264,0.088 0.527,0.179 0.788,0.284 0.697,0.239 1.734,0.558 2.942,0.806 1.847,0.38 3.541,-1.606 4.955,-3.02 1.414,-1.414 4.242,-5.658 4.949,-6.365 0.707,-0.707 1.414,0 2.122,0.707 l 0.707,0.707 0.707,0.708 c 0.707,0.707 1.414,1.414 0.707,2.122 -0.707,0.707 -4.95,3.535 -6.364,4.949 -1.414,1.414 -3.401,3.107 -3.021,4.955 0.198,0.965 0.442,1.815 0.654,2.481 0.357,0.764 0.632,1.543 0.824,2.334 L 0,0 Z"
                 inkscape:connector-curvature="0" />
            </g>
            <g
               transform="translate(33.7129,2.4512)"
               id="g438">
              <path
                 id="path440"
                 style="fill:#ffcc4d;fill-opacity:1;fill-rule:nonzero;stroke:none"
                 d="m 0,0 -1.414,-1.414 -12.022,12.021 1.415,1.414 L 0,0 Z"
                 inkscape:connector-curvature="0" />
            </g>
          </g>
        </g>
      </g>
    </g>
  </g>
</svg>
