<?xml version="1.0" encoding="UTF-8" standalone="no"?>
<svg
   xmlns:dc="http://purl.org/dc/elements/1.1/"
   xmlns:cc="http://creativecommons.org/ns#"
   xmlns:rdf="http://www.w3.org/1999/02/22-rdf-syntax-ns#"
   xmlns:svg="http://www.w3.org/2000/svg"
   xmlns="http://www.w3.org/2000/svg"
   xmlns:sodipodi="http://sodipodi.sourceforge.net/DTD/sodipodi-0.dtd"
   xmlns:inkscape="http://www.inkscape.org/namespaces/inkscape"
   version="1.1"
   id="svg2"
   viewBox="0 0 200 200"
   height="200px"
   width="200px"
   inkscape:version="0.91 r13725"
   sodipodi:docname="125.svg">
  <metadata
     id="metadata591">
    <rdf:RDF>
      <cc:Work
         rdf:about="">
        <dc:format>image/svg+xml</dc:format>
        <dc:type
           rdf:resource="http://purl.org/dc/dcmitype/StillImage" />
      </cc:Work>
    </rdf:RDF>
  </metadata>
  <sodipodi:namedview
     pagecolor="#ffffff"
     bordercolor="#666666"
     borderopacity="1"
     objecttolerance="10"
     gridtolerance="10"
     guidetolerance="10"
     inkscape:pageopacity="0"
     inkscape:pageshadow="2"
     inkscape:window-width="1920"
     inkscape:window-height="1060"
     id="namedview589"
     showgrid="false"
     inkscape:zoom="4.32"
     inkscape:cx="100"
     inkscape:cy="100"
     inkscape:window-x="0"
     inkscape:window-y="0"
     inkscape:window-maximized="1"
     inkscape:current-layer="layer1" />
  
    
    
    <defs id="defs6">

        <clipPath
           id="clipPath28"
           clipPathUnits="userSpaceOnUse">
          <path
             id="path30"
             d="M 4,36 C 0,36 0,32 0,32 L 0,32 0,4 C 0,0 4,0 4,0 l 0,0 28,0 c 4,0 4,4 4,4 l 0,0 0,28 c 0,4 -4,4 -4,4 l 0,0 -28,0 z" />
        </clipPath>


        <clipPath clipPathUnits="userSpaceOnUse" id="clipPath16-rugby">
            <path d="M 0,38 38,38 38,0 0,0 0,38 Z" id="path18"/>
        </clipPath>
        <clipPath clipPathUnits="userSpaceOnUse" id="clipPath28-rugby">
            <path d="M 9.254,28.746 C 2.09,21.582 -0.927,9.561 3.929,3.929 l 0,0 C 9.561,-0.927 21.582,2.09 28.746,9.254 l 0,0 c 7.164,7.164 11.229,17.088 5.324,24.816 l 0,0 c -1.886,1.627 -4.489,2.371 -7.387,2.37 l 0,0 c -5.752,0 -12.665,-2.93 -17.429,-7.694" id="path30"/>
        </clipPath>

        <clipPath clipPathUnits="userSpaceOnUse" id="clipPath16-carrot">
            <path d="M 0,36 36,36 36,0 0,0 0,36 Z" id="path18"/>
        </clipPath>
        <clipPath clipPathUnits="userSpaceOnUse" id="clipPath32-carrot">
            <path d="M 11.815,23.013 C 4.2,15.397 -1.265,2.86 0.502,1.093 l 0,0 c 1.768,-1.768 14.305,3.698 21.92,11.313 l 0,0 c 7.616,7.615 7.562,11.53 4.243,14.85 l 0,0 c -1.328,1.328 -2.752,2.133 -4.47,2.133 l 0,0 c -2.575,0 -5.812,-1.809 -10.38,-6.376" id="path34"/>
        </clipPath>

        <clipPath clipPathUnits="userSpaceOnUse" id="clipPath32-hat">
            <path d="m 5,33.666 c 0,-0.034 0.018,-0.067 0.022,-0.101 l 0,0 C 5.008,33.455 5,33.335 5,33.2 l 0,0 L 6.802,9.616 C 3.299,8.705 1,7.424 1,6 L 1,6 C 1,3.238 9.611,1 19,1 l 0,0 c 9.389,0 18,2.238 18,5 l 0,0 c 0,1.424 -2.298,2.705 -5.801,3.616 l 0,0 L 33,33.184 c 0,0.135 -0.008,0.263 -0.021,0.373 l 0,0 C 32.982,33.591 33,33.632 33,33.666 l 0,0 c 0,1.805 -6.268,3.267 -14,3.267 l 0,0 c -7.732,0 -14,-1.462 -14,-3.267" id="path34"/>
        </clipPath>


        <clipPath clipPathUnits="userSpaceOnUse" id="clipPath48-soccer">
            <path d="M 1,19 C 1,9.059 9.059,1 19,1 l 0,0 c 9.941,0 18,8.059 18,18 l 0,0 c 0,9.941 -8.059,18 -18,18 l 0,0 C 9.059,37 1,28.941 1,19" id="path50"/>
        </clipPath>

        <clipPath clipPathUnits="userSpaceOnUse" id="clipPath28-baguette">
            <path d="M 24.052,31.33 5.126,12.406 C 1.342,8.62 1.288,4.133 2.856,2.564 l 0,0 C 4.424,0.997 8.912,1.049 12.697,4.835 l 0,0 18.925,18.924 c 3.784,3.785 3.837,8.273 2.269,9.841 l 0,0 c -0.605,0.606 -1.647,0.969 -2.915,0.969 l 0,0 c -2.014,0 -4.602,-0.917 -6.924,-3.239" id="path30"/>
        </clipPath>
    </defs>



  <g
     id="layer1">
    <circle
       style="opacity:1;fill:white;stroke:black;stroke-width:1;stroke-miterlimit:4;stroke-dasharray:none;stroke-opacity:0.1"
       id="path4039-0-9"
       cx="100px"
       cy="100px"
       r="90px" />
    <g
       transform="translate(97.5 81.5) rotate(199 15 15) scale(0.7)"
       id="g8">
      <g
         transform="matrix(1.25,0,0,-1.25,0,45)"
         id="g10">
        <g
           id="g12">
          <g
             clip-path="url(#clipPath16)"
             id="g14">
            <g
               transform="translate(12.6968,4.835)"
               id="g20">
              <path
                 id="path22"
                 style="fill:#edb980;fill-opacity:1;fill-rule:nonzero;stroke:none"
                 d="m 0,0 c -3.785,-3.785 -8.273,-3.838 -9.841,-2.271 -1.568,1.569 -1.514,6.056 2.271,9.841 l 18.925,18.925 c 3.785,3.784 8.271,3.838 9.84,2.27 1.567,-1.568 1.514,-6.056 -2.271,-9.841 L 0,0 Z" />
            </g>
          </g>
        </g>
        <g
           id="g24">
          <g
             clip-path="url(#clipPath28-baguette)"
             id="g26">
            <g
               transform="translate(27.917,25.9487)"
               id="g32">
              <path
                 id="path34"
                 style="fill:#e5a157;fill-opacity:1;fill-rule:nonzero;stroke:none"
                 d="M 0,0 C -0.837,-0.835 -2.026,0.514 -3.595,2.082 -5.163,3.65 -6.513,4.841 -5.677,5.677 -4.842,6.513 -2.893,5.921 -1.325,4.353 0.243,2.785 0.837,0.836 0,0" />
            </g>
            <g
               transform="translate(22.998,32.3833)"
               id="g36">
              <path
                 id="path38"
                 style="fill:none;stroke:#ffd983;stroke-width:1;stroke-linecap:round;stroke-linejoin:round;stroke-miterlimit:10;stroke-dasharray:none;stroke-opacity:1"
                 d="M 0,0 C 1.701,-0.19 5.485,-3.974 5.676,-5.678" />
            </g>
            <g
               transform="translate(23.376,21.4072)"
               id="g40">
              <path
                 id="path42"
                 style="fill:#e5a157;fill-opacity:1;fill-rule:nonzero;stroke:none"
                 d="M 0,0 C -0.837,-0.835 -2.028,0.514 -3.597,2.082 -5.164,3.649 -6.514,4.841 -5.678,5.677 -4.843,6.513 -2.893,5.921 -1.324,4.352 0.243,2.785 0.835,0.836 0,0" />
            </g>
            <g
               transform="translate(18.4551,27.8413)"
               id="g44">
              <path
                 id="path46"
                 style="fill:none;stroke:#ffd983;stroke-width:1;stroke-linecap:round;stroke-linejoin:round;stroke-miterlimit:10;stroke-dasharray:none;stroke-opacity:1"
                 d="M 0,0 C 1.703,-0.189 5.488,-3.974 5.678,-5.678" />
            </g>
            <g
               transform="translate(18.834,16.8662)"
               id="g48">
              <path
                 id="path50"
                 style="fill:#e5a157;fill-opacity:1;fill-rule:nonzero;stroke:none"
                 d="M 0,0 C -0.836,-0.837 -2.028,0.513 -3.595,2.081 -5.164,3.649 -6.514,4.84 -5.678,5.676 -4.841,6.512 -2.893,5.92 -1.325,4.351 0.243,2.783 0.837,0.835 0,0" />
            </g>
            <g
               transform="translate(13.9136,23.2998)"
               id="g52">
              <path
                 id="path54"
                 style="fill:none;stroke:#ffd983;stroke-width:1;stroke-linecap:round;stroke-linejoin:round;stroke-miterlimit:10;stroke-dasharray:none;stroke-opacity:1"
                 d="M 0,0 C 1.703,-0.189 5.488,-3.975 5.677,-5.677" />
            </g>
            <g
               transform="translate(14.2925,12.3232)"
               id="g56">
              <path
                 id="path58"
                 style="fill:#e5a157;fill-opacity:1;fill-rule:nonzero;stroke:none"
                 d="M 0,0 C -0.836,-0.837 -2.028,0.515 -3.596,2.082 -5.165,3.65 -6.513,4.842 -5.678,5.679 -4.842,6.513 -2.893,5.921 -1.325,4.354 0.243,2.785 0.835,0.837 0,0" />
            </g>
            <g
               transform="translate(9.3721,18.7578)"
               id="g60">
              <path
                 id="path62"
                 style="fill:none;stroke:#ffd983;stroke-width:1;stroke-linecap:round;stroke-linejoin:round;stroke-miterlimit:10;stroke-dasharray:none;stroke-opacity:1"
                 d="M 0,0 C 1.703,-0.188 5.488,-3.975 5.677,-5.678" />
            </g>
            <g
               transform="translate(9.7505,7.7822)"
               id="g64">
              <path
                 id="path66"
                 style="fill:#e5a157;fill-opacity:1;fill-rule:nonzero;stroke:none"
                 d="M 0,0 C -0.836,-0.837 -2.028,0.514 -3.596,2.082 -5.165,3.649 -6.513,4.842 -5.678,5.677 -4.841,6.513 -2.893,5.92 -1.325,4.352 0.243,2.783 0.836,0.835 0,0" />
            </g>
            <g
               transform="translate(4.8301,14.2158)"
               id="g68">
              <path
                 id="path70"
                 style="fill:none;stroke:#ffd983;stroke-width:1;stroke-linecap:round;stroke-linejoin:round;stroke-miterlimit:10;stroke-dasharray:none;stroke-opacity:1"
                 d="M 0,0 C 1.703,-0.189 5.488,-3.974 5.677,-5.677" />
            </g>
          </g>
        </g>
      </g>
    </g>
    <g
       transform="translate(51.5 137.5) rotate(126 15 15) scale(0.5666666666666667)"
       id="g37">
      <g
         transform="matrix(1.25,0,0,-1.25,0,47.5)"
         id="g39">
        <g
           id="g41">
          <g
             clip-path="url(#clipPath16)"
             id="g43">
            <g
               transform="translate(6,16)"
               id="g45">
              <path
                 id="path47"
                 style="fill:#d79e84;fill-opacity:1;fill-rule:nonzero;stroke:none"
                 d="M 0,0 C 0,-2.209 -1.119,-4 -2.5,-4 -3.881,-4 -5,-2.209 -5,0 -5,2.209 -3.881,4 -2.5,4 -1.119,4 0,2.209 0,0" />
            </g>
            <g
               transform="translate(4,18.4375)"
               id="g49">
              <path
                 id="path26"
                 style="fill:#d79e84;fill-opacity:1;fill-rule:nonzero;stroke:none"
                 d="M 0,0 C 0,8.526 5.373,15.438 12,15.438 18.627,15.438 24,8.526 24,0 24,-8.525 18.627,-15.438 12,-15.438 5.373,-15.438 0,-8.525 0,0" />
            </g>
            <g
               transform="translate(21,37)"
               id="g28">
              <path
                 id="path53"
                 style="fill:#dd2e44;fill-opacity:1;fill-rule:nonzero;stroke:none"
                 d="M 0,0 C -0.249,0 -0.478,-0.007 -0.713,-0.012 -0.81,-0.01 -0.903,0 -1,0 c -10,0 -17,-4.582 -17,-9 0,-4.418 6.373,-4 13,-4 4.442,0 7.648,0 9.966,0.086 C 4.978,-12.944 4.988,-12.97 5,-13 l 6,-15 2,0 c 0,0 0.343,3.055 1,7 1,6 0.533,21 -14,21" />
            </g>
            <g
               transform="translate(31,16)"
               id="g55">
              <path
                 id="path57"
                 style="fill:#d79e84;fill-opacity:1;fill-rule:nonzero;stroke:none"
                 d="M 0,0 C 0,-2.209 -1.119,-4 -2.5,-4 -3.881,-4 -5,-2.209 -5,0 -5,2.209 -3.881,4 -2.5,4 -1.119,4 0,2.209 0,0" />
            </g>
            <g
               transform="translate(11,16)"
               id="g59">
              <path
                 id="path61"
                 style="fill:#662113;fill-opacity:1;fill-rule:nonzero;stroke:none"
                 d="m 0,0 c -0.552,0 -1,0.447 -1,1 l 0,2 C -1,3.552 -0.552,4 0,4 0.552,4 1,3.552 1,3 L 1,1 C 1,0.447 0.552,0 0,0" />
            </g>
            <g
               transform="translate(21,16)"
               id="g63">
              <path
                 id="path65"
                 style="fill:#662113;fill-opacity:1;fill-rule:nonzero;stroke:none"
                 d="m 0,0 c -0.553,0 -1,0.447 -1,1 l 0,2 C -1,3.552 -0.553,4 0,4 0.553,4 1,3.552 1,3 L 1,1 C 1,0.447 0.553,0 0,0" />
            </g>
            <g
               transform="translate(17,11)"
               id="g67">
              <path
                 id="path69"
                 style="fill:#b7755e;fill-opacity:1;fill-rule:nonzero;stroke:none"
                 d="m 0,0 -2,0 c -0.552,0 -1,0.447 -1,1 0,0.553 0.448,1 1,1 L 0,2 C 0.552,2 1,1.553 1,1 1,0.447 0.552,0 0,0" />
            </g>
            <g
               transform="translate(28,12)"
               id="g71">
              <path
                 id="path73"
                 style="fill:#e6e7e8;fill-opacity:1;fill-rule:nonzero;stroke:none"
                 d="m 0,0 c 0,2 -2.293,0.707 -3,0 -1,-1 -3,-3 -5,-2 -2.828,1.414 -4,1 -4,1 0,0 -1.171,0.414 -4,-1 -2,-1 -4,1 -5,2 -0.707,0.707 -3,2 -3,0 0,-2 1,-2 1,-2 -1,-2 1,-3 1,-3 0,-3 3,-3 3,-3 0,-3 4,-2 4,-2 1,-1 3,-1 3,-1 0,0 2,0 3,1 0,0 4,-1 4,2 0,0 3,0 3,3 0,0 2,1 1,3 0,0 1,0 1,2" />
            </g>
            <g
               transform="translate(16,9)"
               id="g75">
              <path
                 id="path77"
                 style="fill:#d99e82;fill-opacity:1;fill-rule:nonzero;stroke:none"
                 d="m 0,0 c 7,0 4,-2 0,-2 -4,0 -7,2 0,2" />
            </g>
            <g
               transform="translate(2,23)"
               id="g79">
              <path
                 id="path81"
                 style="fill:#d1d3d4;fill-opacity:1;fill-rule:nonzero;stroke:none"
                 d="M 0,0 C 0,2.209 0.896,4 2,4 3.104,4 4,2.209 4,0 4,-2.209 3.104,-4 2,-4 0.896,-4 0,-2.209 0,0" />
            </g>
            <g
               transform="translate(25,23)"
               id="g83">
              <path
                 id="path85"
                 style="fill:#d1d3d4;fill-opacity:1;fill-rule:nonzero;stroke:none"
                 d="M 0,0 C 0,2.209 0.896,4 2,4 3.104,4 4,2.209 4,0 4,-2.209 3.104,-4 2,-4 0.896,-4 0,-2.209 0,0" />
            </g>
            <g
               transform="translate(29,8)"
               id="g87">
              <path
                 id="path89"
                 style="fill:#f1f2f2;fill-opacity:1;fill-rule:nonzero;stroke:none"
                 d="M 0,0 C 0,-2.209 1.791,-4 4,-4 6.209,-4 8,-2.209 8,0 8,2.209 6.209,4 4,4 1.791,4 0,2.209 0,0" />
            </g>
            <g
               transform="translate(30,25)"
               id="g91">
              <path
                 id="path93"
                 style="fill:#f1f2f2;fill-opacity:1;fill-rule:nonzero;stroke:none"
                 d="m 0,0 c 0,-1.104 -0.896,-2 -2,-2 l -25,0 c -1.104,0 -2,0.896 -2,2 l 0,1 c 0,1.104 0.896,2 2,2 L -2,3 C -0.896,3 0,2.104 0,1 L 0,0 Z" />
            </g>
          </g>
        </g>
      </g>
    </g>
    <g
       transform="translate(75.0 20.0) rotate(177 15 15) scale(0.7333333333333333)"
       id="g95">
      <g
         transform="matrix(1.25,0,0,-1.25,0,47.5)"
         id="g97">
        <g
           id="g99">
          <g
             clip-path="url(#clipPath16)"
             id="g101">
            <g
               transform="translate(23.4941,31.6558)"
               id="g103">
              <path
                 id="path105"
                 style="fill:#dd2e44;fill-opacity:1;fill-rule:nonzero;stroke:none"
                 d="m 0,0 c -0.687,0 -1.352,-0.066 -1.991,-0.177 -0.82,0.105 -2.74,0.231 -3.592,0.231 -8.472,0 -15.886,-3.177 -15.886,-14.298 0,-9.036 7.049,-16.361 16.976,-16.361 9.927,0 17.973,7.325 17.973,16.361 C 13.48,-2.995 4.096,0 0,0" />
            </g>
            <g
               transform="translate(9.439,36.9087)"
               id="g107">
              <path
                 id="path109"
                 style="fill:#77b255;fill-opacity:1;fill-rule:nonzero;stroke:none"
                 d="m 0,0 c 1.637,-1.636 2.77,-2.266 3.274,-4.91 0.298,-1.564 2.266,-1.51 2.266,-1.51 0,0 -3.903,-1.764 -5.54,-3.4 0,0 4.91,1.636 6.547,1.636 0,0 3.273,-1.636 3.273,-3.273 0,0 0,3.273 -1.636,3.273 0,0 4.909,0 4.909,-3.273 0,0 0,4.911 -1.636,4.911 0,0 4.911,1.636 6.547,0 0,0 -1.685,1.72 -4.911,1.636 0,0 1.638,1.637 4.911,1.637 0,0 -5.288,1.511 -6.924,-1.763 0,0 -1.386,1.385 1.384,4.155 0,0 -4.28,-0.755 -4.28,-4.029 0,0 -1.552,0.039 -2.644,1.259 C 3.399,-1.259 0,0 0,0" />
            </g>
          </g>
        </g>
      </g>
    </g>
    <g
       transform="translate(150.5 65.5) rotate(339 15 15) scale(0.7666666666666667)"
       id="g111">
      <g
         transform="matrix(1.25,0,0,-1.25,0,45)"
         id="g113">
        <g
           id="g115">
          <g
             clip-path="url(#clipPath16)"
             id="g117">
            <g
               transform="translate(25,18.875)"
               id="g119">
              <path
                 id="path121"
                 style="fill:#ef9645;fill-opacity:1;fill-rule:nonzero;stroke:none"
                 d="m 0,0 -8,-0.021 c -1.104,0 -1.875,-0.75 -1.875,-1.854 0,-1.104 0.771,-1.854 1.875,-1.854 l 5.266,-0.021 c 0,0 0.88,0.104 0.88,-0.625 C -1.854,-4.651 -2.224,-5 -2.5,-5 -2.5,-5 -7,-4.792 -7.375,-11.875 -7.39,-12.151 -7.724,-12.5 -8,-12.5 c -0.276,0 -0.625,0.349 -0.625,0.625 0,3.01 1.396,5.938 2.867,6.824 -0.91,0 -1.711,0.051 -2.242,0.051 -1,0 -1.438,0.334 -1.438,0.333 -0.146,-0.231 -0.562,-1.27 -2.687,-1.27 -2.375,0 -3.021,2.362 -3.021,3.02 l 0,5.021 0.146,0.021 c 0,0.811 0.485,1.507 1.18,1.82 l -0.097,-6.653 c 0,-1.105 0.813,-2.084 1.917,-2.084 0.755,0 1.263,0.341 1.604,0.959 -0.458,0.526 -0.677,1.132 -0.677,1.885 0,0.886 0.318,1.795 0.927,2.344 l 0.042,2.708 0.104,0.021 c 0,0.811 0.485,1.507 1.18,1.82 L -8.875,2.125 -8.896,1.104 c 0.315,0.111 0.564,0.146 0.917,0.146 l 2.875,-0.021 0,2.917 0.104,-0.021 0,9 c 0,0.811 0.485,1.507 1.18,1.82 l -0.034,-13.66 3.646,0 L 0,1.125 c 0.922,0 1.723,-2 1.723,-2 0,0 0.002,-0.013 0.002,-0.015 C 1.481,-0.471 0.968,0 0,0" />
            </g>
            <g
               transform="translate(15,19.2217)"
               id="g123">
              <path
                 id="path125"
                 style="fill:#ffdc5d;fill-opacity:1;fill-rule:nonzero;stroke:none"
                 d="m 0,0 c -0.609,-0.549 -1,-1.336 -1,-2.222 0,-0.753 0.287,-1.432 0.745,-1.959 -0.341,-0.617 -0.99,-1.041 -1.745,-1.041 -1.104,0 -2,0.896 -2,2 l 0,6 c 0,0.293 0.067,0.57 0.18,0.82 0.313,0.695 1.009,1.18 1.82,1.18 1.104,0 2,-0.895 2,-2 l 0,-1 L 0,0 Z" />
            </g>
            <g
               transform="translate(6,30)"
               id="g127">
              <path
                 id="path129"
                 style="fill:#ffdc5d;fill-opacity:1;fill-rule:nonzero;stroke:none"
                 d="M 0,0 C 0,1.104 0.896,2 2,2 3.104,2 4,1.104 4,0 l 0,-9 0,-2 0,-3 c 0,-0.658 0.217,-1.262 0.578,-1.753 0.028,-0.037 0.061,-0.068 0.089,-0.102 0.104,-0.129 0.21,-0.255 0.332,-0.366 0.033,-0.027 0.066,-0.054 0.1,-0.082 0.119,-0.098 0.243,-0.188 0.377,-0.268 0.066,-0.039 0.131,-0.075 0.201,-0.109 0.139,-0.069 0.285,-0.125 0.435,-0.172 0.068,-0.02 0.131,-0.045 0.2,-0.061 C 6.534,-16.966 6.763,-17 7,-17 c 0.236,0 0.461,0.036 0.681,0.089 0.076,0.017 0.148,0.042 0.222,0.066 0.137,0.044 0.269,0.099 0.396,0.161 0.082,0.04 0.163,0.077 0.24,0.124 0.164,0.1 0.318,0.213 0.46,0.341 0.202,0.184 0.384,0.387 0.53,0.618 -10e-4,0.001 -0.002,0.002 -0.003,0.003 C 9.727,-15.713 10,-16 11,-16 l 2.537,0 c -1.808,-1.365 -3.037,-3.99 -3.037,-7 0,-0.276 0.224,-0.5 0.5,-0.5 0.276,0 0.5,0.224 0.5,0.5 0,3.859 2.187,7 4.875,7 l 0.125,0 c 0.276,0 0.5,0.224 0.5,0.5 0,0.276 -0.224,0.5 -0.5,0.5 l -1.5,0 -4,0 c -1.104,0 -2,0.896 -2,2 0,1.104 0.896,2 2,2 l 8,0 c 0.968,0 1.481,-0.596 1.725,-1.015 0.126,-0.216 0.185,-0.389 0.188,-0.4 L 22,-16 c 0.103,-0.335 0.479,-1.871 0.411,-2.191 C 22.411,-23 17.715,-28 12,-28 5.463,-28 0,-22.75 0,-16 0.008,-16.007 0,0 0,0" />
            </g>
            <g
               transform="translate(20,20)"
               id="g131">
              <path
                 id="path133"
                 style="fill:#ffdc5d;fill-opacity:1;fill-rule:nonzero;stroke:none"
                 d="M 0,0 -3,0 C -3.352,0 -3.685,-0.072 -4,-0.184 L -4,1 -4,3 c 0,0.293 0.067,0.569 0.18,0.82 C -3.507,4.515 -2.811,5 -2,5 -0.896,5 0,4.104 0,3 L 0,1 0,0 Z" />
            </g>
            <g
               transform="translate(21,20)"
               id="g135">
              <path
                 id="path137"
                 style="fill:#ffdc5d;fill-opacity:1;fill-rule:nonzero;stroke:none"
                 d="m 0,0 0,13 c 0,0.293 0.067,0.569 0.18,0.82 C 0.493,14.515 1.189,15 2,15 3.104,15 4,14.104 4,13 L 4,1 4,0 3,0 0,0 Z" />
            </g>
          </g>
        </g>
      </g>
    </g>
    <g
       transform="translate(34.0 56.0) rotate(169 15 15) scale(0.6)"
       id="g139">
      <g
         transform="matrix(1.25,0,0,-1.25,0,45)"
         id="g141">
        <g
           id="g143">
          <g
             clip-path="url(#clipPath16)"
             id="g145">
            <g
               transform="translate(28.6885,15.6875)"
               id="g147">
              <path
                 id="path149"
                 style="fill:#6d6e71;fill-opacity:1;fill-rule:nonzero;stroke:none"
                 d="m 0,0 c 0,-5.904 -4.784,-10.688 -10.689,-10.688 -5.902,0 -10.688,4.784 -10.688,10.688 0,5.903 4.786,10.689 10.688,10.689 C -4.784,10.689 0,5.903 0,0" />
            </g>
            <g
               transform="translate(26,2.5)"
               id="g151">
              <path
                 id="path153"
                 style="fill:#662113;fill-opacity:1;fill-rule:nonzero;stroke:none"
                 d="m 0,0 -16,0 c -1.665,0 -2.479,1.339 -2.763,2.31 l -2.664,0.055 c -0.153,0.003 -0.297,0.077 -0.389,0.2 -0.092,0.123 -0.123,0.282 -0.083,0.43 l 0.594,2.216 -2.446,0.651 c -0.152,0.041 -0.276,0.151 -0.335,0.296 -0.06,0.146 -0.046,0.311 0.035,0.446 l 1.198,1.993 -2.155,1.192 c -0.139,0.077 -0.234,0.216 -0.254,0.374 -0.02,0.157 0.036,0.316 0.151,0.426 l 1.729,1.647 -1.729,1.646 c -0.115,0.11 -0.171,0.267 -0.151,0.426 0.02,0.158 0.115,0.297 0.254,0.374 l 2.156,1.194 -1.2,1.994 c -0.08,0.134 -0.094,0.299 -0.034,0.445 0.059,0.146 0.183,0.255 0.335,0.296 l 2.446,0.65 -0.594,2.218 c -0.04,0.148 -0.009,0.307 0.083,0.43 0.092,0.123 0.236,0.196 0.39,0.199 l 2.574,0.054 0.058,2.302 c 0.004,0.149 0.074,0.289 0.192,0.381 0.118,0.092 0.271,0.127 0.416,0.094 l 2.521,-0.56 0.718,2.234 c 0.044,0.138 0.147,0.251 0.282,0.308 0.135,0.056 0.287,0.051 0.417,-0.014 l 2.284,-1.138 1.341,2.009 c 0.08,0.119 0.208,0.199 0.35,0.218 0.144,0.018 0.286,-0.025 0.394,-0.119 L -8,26.242 l 1.88,1.635 c 0.109,0.095 0.251,0.137 0.394,0.119 0.143,-0.019 0.27,-0.099 0.35,-0.219 l 1.34,-2.008 2.286,1.138 c 0.13,0.066 0.283,0.07 0.417,0.014 0.135,-0.057 0.237,-0.17 0.282,-0.308 l 0.716,-2.234 2.522,0.56 c 0.146,0.033 0.297,-0.002 0.416,-0.094 0.118,-0.092 0.188,-0.232 0.192,-0.381 L 2.853,22.162 5.427,22.108 C 5.58,22.105 5.724,22.031 5.815,21.909 5.908,21.786 5.939,21.627 5.898,21.479 L 5.304,19.261 7.753,18.611 C 7.905,18.57 8.029,18.461 8.089,18.315 8.148,18.169 8.135,18.004 8.054,17.87 L 6.853,15.876 9.008,14.682 C 9.148,14.605 9.241,14.466 9.262,14.308 9.282,14.149 9.226,13.991 9.11,13.882 L 7.381,12.236 9.11,10.589 C 9.226,10.479 9.282,10.32 9.262,10.163 9.241,10.005 9.148,9.866 9.008,9.789 L 6.854,8.597 8.054,6.604 C 8.135,6.469 8.148,6.304 8.089,6.158 8.029,6.013 7.905,5.903 7.754,5.862 L 5.304,5.211 5.898,2.995 C 5.939,2.847 5.908,2.689 5.816,2.565 5.724,2.442 5.58,2.368 5.427,2.365 L 2.764,2.31 C 2.48,1.339 1.665,0 0,0" />
            </g>
            <g
               transform="translate(16.188,7.1758)"
               id="g155">
              <path
                 id="path157"
                 style="fill:#8a4b38;fill-opacity:1;fill-rule:nonzero;stroke:none"
                 d="m 0,0 c -0.022,0 -0.044,0.001 -0.066,0.004 -0.142,0.019 -0.27,0.099 -0.35,0.219 l -1.058,1.585 -1.804,-0.9 C -3.41,0.844 -3.561,0.838 -3.696,0.895 -3.83,0.951 -3.933,1.064 -3.978,1.203 L -4.542,2.96 -6.532,2.518 C -6.68,2.486 -6.831,2.521 -6.948,2.612 -7.066,2.704 -7.136,2.844 -7.14,2.993 L -7.185,4.797 -9.214,4.84 c -0.154,0.003 -0.297,0.077 -0.39,0.2 -0.092,0.122 -0.123,0.281 -0.083,0.43 l 0.465,1.732 -1.922,0.512 c -0.152,0.041 -0.276,0.15 -0.335,0.296 -0.059,0.145 -0.046,0.31 0.035,0.445 l 0.937,1.557 -1.689,0.934 c -0.139,0.077 -0.234,0.216 -0.254,0.373 -0.02,0.158 0.035,0.316 0.151,0.426 l 1.352,1.289 -1.352,1.287 c -0.115,0.11 -0.171,0.268 -0.151,0.426 0.02,0.158 0.115,0.296 0.254,0.374 l 1.689,0.935 -0.937,1.557 c -0.081,0.135 -0.094,0.3 -0.035,0.446 0.059,0.146 0.183,0.255 0.335,0.296 l 1.922,0.51 -0.465,1.735 c -0.04,0.148 -0.009,0.306 0.083,0.429 0.093,0.123 0.236,0.197 0.39,0.2 l 2.029,0.042 0.045,1.805 c 0.004,0.149 0.074,0.289 0.192,0.381 0.117,0.092 0.27,0.127 0.416,0.094 l 1.99,-0.442 0.564,1.756 c 0.045,0.139 0.148,0.252 0.282,0.308 0.136,0.056 0.287,0.052 0.418,-0.013 l 1.804,-0.9 1.058,1.584 c 0.08,0.119 0.208,0.199 0.35,0.218 0.144,0.021 0.286,-0.024 0.394,-0.119 l 1.484,-1.291 1.484,1.291 c 0.11,0.096 0.253,0.138 0.395,0.119 0.142,-0.019 0.269,-0.099 0.349,-0.218 l 1.057,-1.584 1.807,0.9 c 0.13,0.065 0.283,0.069 0.417,0.013 0.135,-0.057 0.237,-0.169 0.282,-0.308 l 0.562,-1.756 1.992,0.442 c 0.145,0.033 0.299,-0.002 0.416,-0.094 0.118,-0.092 0.188,-0.232 0.192,-0.382 l 0.045,-1.804 2.028,-0.042 c 0.154,-0.003 0.297,-0.077 0.389,-0.2 0.093,-0.123 0.123,-0.281 0.083,-0.43 l -0.465,-1.734 1.924,-0.51 c 0.152,-0.041 0.276,-0.15 0.336,-0.296 0.059,-0.146 0.046,-0.311 -0.035,-0.446 l -0.939,-1.558 1.689,-0.934 c 0.14,-0.078 0.233,-0.216 0.254,-0.374 0.02,-0.158 -0.036,-0.316 -0.152,-0.426 l -1.352,-1.287 1.352,-1.289 c 0.116,-0.11 0.172,-0.267 0.152,-0.426 -0.021,-0.157 -0.116,-0.296 -0.254,-0.373 L 14.132,10.012 15.07,8.455 C 15.151,8.32 15.164,8.155 15.105,8.01 15.045,7.864 14.921,7.755 14.77,7.714 L 12.845,7.202 13.31,5.47 C 13.35,5.321 13.32,5.163 13.228,5.04 13.135,4.917 12.992,4.843 12.838,4.84 L 10.81,4.797 10.765,2.993 C 10.761,2.844 10.691,2.704 10.573,2.612 10.456,2.521 10.302,2.486 10.157,2.518 L 8.165,2.96 7.603,1.203 C 7.558,1.064 7.456,0.951 7.321,0.895 7.187,0.837 7.037,0.842 6.904,0.908 L 5.098,1.808 4.04,0.223 C 3.96,0.103 3.833,0.023 3.691,0.004 3.549,-0.014 3.405,0.028 3.296,0.123 L 1.812,1.417 0.329,0.123 C 0.237,0.043 0.12,0 0,0" />
            </g>
            <g
               transform="translate(13.5,8.9484)"
               id="g159">
              <path
                 id="path161"
                 style="fill:#8a4b38;fill-opacity:1;fill-rule:nonzero;stroke:none"
                 d="m 0,0 9,0 c 3.521,0 6.5,-2.575 6.5,-4.5 0,-1.65 -1.35,-2 -3,-2 l -16,0 c -1.65,0 -3,0.35 -3,2 0,1.925 2.99,4.5 6.5,4.5" />
            </g>
            <g
               transform="translate(26.2217,13.2207)"
               id="g163">
              <path
                 id="path165"
                 style="fill:#d99e82;fill-opacity:1;fill-rule:nonzero;stroke:none"
                 d="m 0,0 c 0,-4.088 -3.68,-7.398 -8.222,-7.398 -4.541,0 -8.221,3.31 -8.221,7.398 0,4.087 3.68,7.4 8.221,7.4 C -3.68,7.4 0,4.087 0,0" />
            </g>
            <g
               transform="translate(21.2891,9.5215)"
               id="g167">
              <path
                 id="path169"
                 style="fill:#e6e7e8;fill-opacity:1;fill-rule:nonzero;stroke:none"
                 d="m 0,0 c 0,-2.043 -1.473,-3.699 -3.289,-3.699 -1.817,0 -3.289,1.656 -3.289,3.699 0,2.043 1.472,3.699 3.289,3.699 C -1.473,3.699 0,2.043 0,0" />
            </g>
            <g
               transform="translate(19.6445,8.2891)"
               id="g171">
              <path
                 id="path173"
                 style="fill:#231f20;fill-opacity:1;fill-rule:nonzero;stroke:none"
                 d="m 0,0 c 0,-0.908 -0.736,-1.645 -1.645,-1.645 -0.908,0 -1.644,0.737 -1.644,1.645 0,0.908 0.736,1.643 1.644,1.643 C -0.736,1.643 0,0.908 0,0" />
            </g>
            <g
               transform="translate(14.7114,14.4551)"
               id="g175">
              <path
                 id="path177"
                 style="fill:#231f20;fill-opacity:1;fill-rule:nonzero;stroke:none"
                 d="m 0,0 c 0,-0.682 -0.552,-1.234 -1.233,-1.234 -0.681,0 -1.234,0.552 -1.234,1.234 0,0.68 0.553,1.232 1.234,1.232 C -0.552,1.232 0,0.68 0,0" />
            </g>
            <g
               transform="translate(23.7549,14.4551)"
               id="g179">
              <path
                 id="path181"
                 style="fill:#231f20;fill-opacity:1;fill-rule:nonzero;stroke:none"
                 d="m 0,0 c 0,-0.682 -0.552,-1.234 -1.232,-1.234 -0.682,0 -1.234,0.552 -1.234,1.234 0,0.68 0.552,1.232 1.234,1.232 C -0.552,1.232 0,0.68 0,0" />
            </g>
            <g
               transform="translate(11.4224,18.1543)"
               id="g183">
              <path
                 id="path185"
                 style="fill:#c1694f;fill-opacity:1;fill-rule:nonzero;stroke:none"
                 d="m 0,0 c 0,0 4.111,1.645 4.933,0 0.822,-1.645 1.645,-1.645 1.645,-1.645 l 0,4.934 C 6.578,3.289 0,3.289 0,0" />
            </g>
            <g
               transform="translate(24.5771,18.1543)"
               id="g187">
              <path
                 id="path189"
                 style="fill:#c1694f;fill-opacity:1;fill-rule:nonzero;stroke:none"
                 d="m 0,0 c 0,0 -4.11,1.645 -4.933,0 -0.822,-1.645 -1.644,-1.645 -1.644,-1.645 l 0,4.934 c 0,0 6.577,0 6.577,-3.289" />
            </g>
            <g
               transform="translate(12.2446,17.7437)"
               id="g191">
              <path
                 id="path193"
                 style="fill:#d99e82;fill-opacity:1;fill-rule:nonzero;stroke:none"
                 d="m 0,0 c 0,-1.136 -0.92,-2.056 -2.055,-2.056 -1.136,0 -2.056,0.92 -2.056,2.056 0,1.135 0.92,2.055 2.056,2.055 C -0.92,2.055 0,1.135 0,0" />
            </g>
            <g
               transform="translate(27.8662,17.7437)"
               id="g195">
              <path
                 id="path197"
                 style="fill:#d99e82;fill-opacity:1;fill-rule:nonzero;stroke:none"
                 d="m 0,0 c 0,-1.136 -0.92,-2.056 -2.056,-2.056 -1.134,0 -2.055,0.92 -2.055,2.056 0,1.135 0.921,2.055 2.055,2.055 C -0.92,2.055 0,1.135 0,0" />
            </g>
            <g
               transform="translate(11,1)"
               id="g72">
              <path
                 id="path74"
                 style="fill:#d99e82;fill-opacity:1;fill-rule:nonzero;stroke:none"
                 d="M 0,0 C -2,0 -2,4 2,4 6,4 6.062,0 4,0 L 0,0 Z" />
            </g>
            <g
               transform="translate(21,1)"
               id="g76">
              <path
                 id="path78"
                 style="fill:#d99e82;fill-opacity:1;fill-rule:nonzero;stroke:none"
                 d="M 0,0 C -2,0 -2,4 2,4 6,4 6.062,0 4,0 L 0,0 Z" />
            </g>
          </g>
        </g>
      </g>
    </g>
    <g
       transform="matrix(-0.71430608,-0.4291984,0.4291984,-0.71430608,123.36342,179.49049)"
       id="g203">
      <g
         transform="matrix(1.25,0,0,-1.25,0,45)"
         id="g205">
        <g
           id="g207">
          <g
             clip-path="url(#clipPath16)"
             id="g209">
            <g
               transform="translate(12,28.3926)"
               id="g211">
              <path
                 id="path213"
                 style="fill:#ccd6dd;fill-opacity:1;fill-rule:nonzero;stroke:none"
                 d="m 0,0 -9,2.411 c -1.657,0.444 -3,-0.539 -3,-2.196 l 0,-20 c 0,-1.656 1.343,-3.36 3,-3.804 L 0,-26 0,0 Z"
                 inkscape:connector-curvature="0" />
            </g>
            <g
               transform="translate(24,5.6074)"
               id="g215">
              <path
                 id="path217"
                 style="fill:#ccd6dd;fill-opacity:1;fill-rule:nonzero;stroke:none"
                 d="m 0,0 9,-2.411 c 1.656,-0.444 3,0.54 3,2.196 l 0,20 c 0,1.657 -1.344,3.361 -3,3.804 L 0,26 0,0 Z"
                 inkscape:connector-curvature="0" />
            </g>
            <g
               transform="translate(24,5.6084)"
               id="g219">
              <path
                 id="path221"
                 style="fill:#e1e8ed;fill-opacity:1;fill-rule:nonzero;stroke:none"
                 d="m 0,0 -12,-3.216 0,26 L 0,26 0,0 Z"
                 inkscape:connector-curvature="0" />
            </g>
            <g
               transform="translate(12,26.3931)"
               id="g223">
              <path
                 id="path225"
                 style="fill:#55acee;fill-opacity:1;fill-rule:nonzero;stroke:none"
                 d="m 0,0 -8,2.144 c -1.104,0.295 -2,-0.36 -2,-1.464 l 0,-18.001 c 0,-1.103 0.896,-2.24 2,-2.535 L 0,-22 0,0 Z"
                 inkscape:connector-curvature="0" />
            </g>
            <g
               transform="translate(32,27.4648)"
               id="g227">
              <path
                 id="path229"
                 style="fill:#55acee;fill-opacity:1;fill-rule:nonzero;stroke:none"
                 d="m 0,0 -8,2.144 0,-22 L 0,-22 c 1.105,-0.296 2,0.359 2,1.465 l 0,18 C 2,-1.432 1.105,-0.296 0,0"
                 inkscape:connector-curvature="0" />
            </g>
            <g
               transform="translate(24,7.6084)"
               id="g231">
              <path
                 id="path233"
                 style="fill:#88c9f9;fill-opacity:1;fill-rule:nonzero;stroke:none"
                 d="m 0,0 -12,-3.216 0,22 L 0,22 0,0 Z"
                 inkscape:connector-curvature="0" />
            </g>
            <g
               transform="translate(12,14.4941)"
               id="g235">
              <path
                 id="path237"
                 style="fill:#5c913b;fill-opacity:1;fill-rule:nonzero;stroke:none"
                 d="m 0,0 c -0.268,-0.006 -0.595,-0.104 -0.845,-0.145 -0.436,-0.073 -0.329,-0.516 -0.463,-0.443 -0.135,0.074 -0.475,0.265 -0.812,0.658 -0.337,0.395 0.25,0.478 0.418,0.622 0.168,0.145 -0.317,0.172 -0.486,0.333 -0.169,0.159 -0.47,-0.104 -0.739,0.276 -0.269,0.376 -0.101,0.79 -0.133,1.179 -0.034,0.39 0.436,0.341 0.739,0.334 0.302,-0.002 0.537,-0.143 0.537,-0.602 0,-0.456 0.37,-0.708 0.27,-0.146 -0.101,0.561 0.1,0.658 0.235,0.89 0.134,0.23 0.37,0.55 0.673,1.04 C -0.385,4.354 -0.217,4.279 0,4.16 L 0,7.505 C -0.055,7.549 -0.11,7.595 -0.165,7.618 -0.468,7.75 -0.068,6.865 -0.303,6.509 -0.54,6.152 -0.901,6.316 -1.273,6.415 -1.642,6.514 -1.986,6.96 -1.716,7.422 c 0.268,0.462 0.782,0.267 1.051,0.653 0.27,0.385 -0.956,0.672 -1.394,0.942 -0.437,0.27 -0.962,0.409 -1.4,0.145 C -3.896,8.898 -4.832,9.029 -5.202,8.977 -5.571,8.923 -5.637,9.346 -5.705,9.67 c -0.066,0.322 -0.652,0.329 -1.257,0.338 -0.606,0.01 -1.741,-0.281 -1.547,-1.759 0.068,-0.514 0.605,-0.124 0.707,-0.036 0.1,0.088 0.605,-0.2 0.671,-0.637 0.068,-0.438 0.034,-0.887 -0.099,-1.232 -0.137,-0.345 0.336,-1.006 0.604,-1.612 0.269,-0.606 0.572,-0.687 0.706,-0.723 0.135,-0.036 0.908,-0.587 0.875,-0.996 -0.034,-0.411 0.706,-0.992 1.009,-1.34 0.303,-0.35 0.494,-0.662 0.887,-0.846 0.393,-0.182 0.852,-1.035 1.054,-1.165 0.155,-0.099 0.418,-0.451 0.576,-0.58 -0.208,-0.242 -0.612,-0.748 -0.612,-1.029 0,-0.383 0.441,-1.103 0.608,-1.3 0.168,-0.196 0.65,-0.442 0.751,-0.85 0.101,-0.407 -0.07,-1.646 -0.373,-1.907 -0.304,-0.262 -0.414,-1.043 -0.414,-1.043 0,0 0.107,-0.293 0.465,-0.124 0.309,0.144 0.777,0.567 1.094,0.801 L 0,0 Z"
                 inkscape:connector-curvature="0" />
            </g>
            <g
               transform="translate(24,20.2686)"
               id="g239">
              <path
                 id="path241"
                 style="fill:#77b255;fill-opacity:1;fill-rule:nonzero;stroke:none"
                 d="M 0,0 0,6.314 C -0.04,6.311 -0.068,6.303 -0.11,6.3 -0.319,6.289 -0.593,6.165 -0.89,5.98 -0.914,5.985 -0.936,5.996 -0.96,6.001 -1.855,6.176 -2.272,4.796 -2.999,4.849 c -0.73,0.052 -1.7,0.343 -2.332,-0.514 -0.631,-0.858 -0.776,-1.53 0,-1.295 0.777,0.236 1.312,1.426 1.7,1.089 0.388,-0.336 0.29,-0.72 -0.632,-1.105 C -5.185,2.639 -6.18,2.208 -6.714,2.064 -7.248,1.921 -7.37,1.53 -7.006,1.243 -6.642,0.955 -7.225,0.771 -7.831,0.223 c -0.607,-0.548 0.146,-0.512 0.656,-0.705 0.51,-0.193 0.898,0.323 1.117,0.932 0.217,0.609 1.158,1.522 1.55,1.544 0.392,0.023 0.392,-0.197 0.319,-0.602 -0.013,-0.072 0.001,-0.103 0.01,-0.139 -0.17,-0.54 -0.309,-1.029 -0.365,-1.306 -0.026,-0.134 -0.031,-0.35 -0.027,-0.595 -0.086,-0.003 -0.183,-0.021 -0.248,0 -0.438,0.128 -1.434,0.219 -1.701,-0.043 -0.267,-0.266 -0.412,-0.502 -0.728,-0.723 -0.316,-0.219 -1.603,-1.224 -1.626,-2.084 -0.025,-0.859 -0.049,-1.83 0.46,-1.721 0.51,0.11 1.749,0.826 2.137,1.288 0.387,0.463 0.921,0.523 1.092,0.156 0.169,-0.369 0.048,-0.649 -0.12,-1.354 -0.172,-0.708 0.11,-0.963 0.381,-1.468 0.274,-0.504 0.491,-0.775 0.491,-1.189 0,-0.412 0.389,-0.723 0.97,0.123 0.188,0.269 0.367,0.606 0.536,0.957 0.409,0.469 0.768,0.923 0.758,1.096 -0.016,0.281 -0.021,0.433 -0.024,0.624 0.033,0.082 0.064,0.157 0.091,0.219 0.126,0.293 0.241,0.746 0.362,1.156 0.007,0.009 0.013,0.016 0.019,0.024 0.238,0.337 0.185,0.353 0.58,0.756 0.264,0.269 0.254,0.512 0.214,0.678 0.106,0.174 0.134,0.28 -0.033,0.235 -0.005,-0.001 -0.012,-0.003 -0.016,-0.004 -0.001,0 -0.004,-0.019 -0.005,-0.014 -0.023,0.15 -0.206,-0.003 -0.501,-0.147 -0.285,-0.008 -0.567,0.065 -0.668,0.368 -0.133,0.396 -0.602,0.996 -0.639,1.336 0.003,0.041 0.005,0.077 0.01,0.124 0.013,0.036 0.033,0.066 0.069,0.088 0.038,0.022 0.075,0.03 0.112,0.035 0.041,-0.111 0.076,-0.28 0.086,-0.464 0.027,-0.477 0.395,-0.196 0.395,-0.498 0,-0.302 0.53,-0.492 0.661,-0.548 0.037,-0.015 0.094,0.028 0.159,0.098 0.031,-0.011 0.06,-0.033 0.093,-0.037 0.292,-0.031 0.922,0.984 1.117,1.164 0.102,0.095 0.105,0.269 0.033,0.394 C -0.035,-0.015 -0.019,-0.008 0,0 m -9.142,-7.239 c -0.437,0.074 -0.359,0.023 -0.628,0.598 -0.269,0.577 -0.432,0.743 -1.036,0.657 -0.606,-0.087 -0.584,-0.136 -0.751,0.163 -0.072,0.128 -0.241,0.082 -0.443,-0.032 l 0,-6.37 c 0.09,0.115 0.17,0.211 0.228,0.267 0.505,0.476 0.996,1.026 1.466,1.646 0.471,0.621 0.301,0.924 0.536,1.481 0.235,0.558 0.54,0.617 0.943,1.145 0.405,0.531 0.122,0.368 -0.315,0.445 m -2.59,5.557 c -0.1,-0.015 -0.187,-0.011 -0.268,-0.01 l 0,3.344 c 0.254,-0.064 0.512,-0.317 0.706,-0.735 0.234,-0.51 0.605,-0.067 0.739,-0.374 0.134,-0.308 0.875,-0.758 0.505,-0.742 -0.371,0.014 -0.74,-0.008 -0.841,-0.454 -0.102,-0.448 0.168,-0.795 -0.102,-0.829 -0.269,-0.033 -0.369,-0.142 -0.739,-0.2"
                 inkscape:connector-curvature="0" />
            </g>
            <g
               transform="translate(31.4072,12.2305)"
               id="g243">
              <path
                 id="path245"
                 style="fill:#5c913b;fill-opacity:1;fill-rule:nonzero;stroke:none"
                 d="M 0,0 C -0.133,0.338 -0.518,0.713 -0.675,0.91 -0.834,1.104 -1.082,1.223 -1.293,1.189 -1.505,1.158 -1.636,1.281 -1.741,1.551 -1.848,1.816 -2.031,1.783 -2.19,1.795 -2.348,1.807 -2.981,1.676 -3.352,1.564 -3.72,1.451 -3.889,1.312 -4.13,1.107 c -0.382,-0.32 -0.17,-0.105 0,-0.423 0.168,-0.319 -0.186,-1.067 -0.213,-1.543 -0.027,-0.477 0.676,-0.032 0.94,-0.039 0.263,-0.012 0.185,0.189 0.396,0.314 0.212,0.125 0.349,0.129 0.579,-0.172 0.234,-0.305 0.537,-0.611 0.537,-0.883 0,-0.269 0.834,-0.947 1.152,-0.851 0.316,0.097 0.501,0.408 0.791,0.635 0.291,0.224 0.185,0.824 0.264,1.168 C 0.396,-0.346 0.13,-0.336 0,0 m -2.403,2.578 c 0.261,-0.402 0.159,-0.043 0.504,0.016 0.342,0.058 -0.291,0.56 -0.502,0.799 -0.211,0.238 -0.42,0.3 -0.606,-0.049 C -3.216,2.945 -2.664,2.98 -2.403,2.578 M 0.685,1.146 C 0.554,1.363 0.264,1.531 -0.054,1.607 -0.369,1.684 -0.344,2.088 -0.66,2.141 -0.976,2.195 -1.204,2.529 -1.346,2.652 -1.657,2.918 -1.452,2.443 -1.346,1.953 -1.239,1.465 -0.845,1.707 -0.477,1.367 -0.107,1.027 -0.079,1.352 0.264,1.139 0.605,0.928 0.738,0.619 1.067,0.561 1.396,0.502 0.817,0.93 0.685,1.146 m -2.004,5.371 c 0.183,-0.08 0.975,-0.171 0.553,0.334 -0.422,0.506 -0.106,0.299 -0.052,0.738 0.052,0.44 -0.264,0.525 -0.264,0.525 0,-0.332 -0.211,-0.638 0,-1.027 0.21,-0.389 -0.423,-0.49 -0.237,-0.57 M -3.411,4.449 c 0.389,-0.166 0.114,0.482 0.244,0.841 0.132,0.357 0.316,0.369 0.555,0.364 0.236,-0.002 0.422,0.191 0.581,0.388 0.157,0.2 0.448,0.455 0.422,0.733 -0.027,0.279 -0.105,0.482 -0.212,0.843 -0.106,0.36 0.316,0.368 0.502,0.711 0.183,0.342 0,0 0.421,0.007 0.421,0.008 0.238,0.058 0.316,0.218 0.08,0.159 0.133,0.327 0.054,0.68 -0.078,0.353 -0.37,0.099 -0.66,0.177 -0.289,0.077 0.106,0.424 0.131,0.78 0.027,0.355 0.397,0.165 0.662,0.125 0.262,-0.039 0.341,-0.485 0.42,-0.597 0.082,-0.112 0.896,0.365 1.109,0.641 0.211,0.275 -0.186,0.291 -0.079,0.403 0.105,0.111 -0.632,0.337 -0.925,0.469 -0.289,0.133 -1.028,0.367 -1.318,0.649 -0.289,0.284 -1.397,0.426 -1.688,0.337 -0.291,-0.086 -0.476,0.143 -0.606,0.406 -0.131,0.262 -0.686,0.297 -0.844,0.467 -0.158,0.17 -0.316,-0.127 -0.529,-0.16 -0.21,-0.035 -0.29,-0.043 -0.554,0.209 -0.263,0.252 0.08,0.371 -0.288,0.621 -0.355,0.239 -0.813,0.184 -1.71,0.593 l 0,-6.314 c 0.157,-0.014 0.308,-0.037 0.364,-0.051 0.131,-0.035 0.448,-0.574 0.448,-0.784 0,-0.211 0.159,-0.829 0.291,-1.196 0.131,-0.366 0.42,-0.506 0.686,-0.818 0.264,-0.312 0.394,-0.137 0.394,-0.137 0,0 -0.105,0.544 -0.105,0.965 0,0.424 0.316,0.701 0.316,0.701 0,0 0.5,-0.557 0.529,-0.684 0.026,-0.128 0.421,-0.657 0.449,-0.876 0.025,-0.219 0.236,-0.547 0.624,-0.711 m -0.362,-0.9 C -3.826,3.109 -3.59,3.348 -3.167,2.844 -2.744,2.336 -3.271,2.449 -3.456,2.527 c -0.185,0.08 -0.37,0.131 -0.579,0.518 -0.213,0.391 0,0.695 0,1.027 0,0 0.315,-0.084 0.262,-0.523"
                 inkscape:connector-curvature="0" />
            </g>
          </g>
        </g>
      </g>
    </g>
    <g
       transform="translate(64.5 55.5) rotate(358 15 15) scale(0.7666666666666667)"
       id="g247">
      <g
         transform="matrix(1.25,0,0,-1.25,0,45)"
         id="g249">
        <g
           transform="translate(10.6362,14.0498)"
           id="g251">
          <path
             id="path14"
             style="fill:#99aab5;fill-opacity:1;fill-rule:nonzero;stroke:none"
             d="M 0,0 -2.122,2.122 8.485,12.729 10.606,10.607 0,0 Z" />
        </g>
        <g
           id="g16">
          <g
             clip-path="url(#clipPath20)"
             id="g18">
            <g
               transform="translate(8.5146,6.2725)"
               id="g256">
              <path
                 id="path258"
                 style="fill:#55acee;fill-opacity:1;fill-rule:nonzero;stroke:none"
                 d="m 0,0 c -0.781,-0.781 -2.047,-0.781 -2.828,0 l -4.95,4.949 c -0.781,0.781 -0.781,2.048 0,2.828 l 4.95,4.95 c 0.781,0.781 2.047,0.781 2.828,0 L 4.95,7.777 C 5.731,6.997 5.731,5.73 4.95,4.949 L 0,0 Z" />
            </g>
            <g
               transform="translate(24.7773,22.5352)"
               id="g260">
              <path
                 id="path262"
                 style="fill:#55acee;fill-opacity:1;fill-rule:nonzero;stroke:none"
                 d="m 0,0 c -0.78,-0.781 -2.047,-0.781 -2.827,0 l -4.95,4.95 c -0.781,0.781 -0.782,2.047 -10e-4,2.828 l 4.951,4.95 c 0.781,0.782 2.047,0.781 2.828,0 L 4.95,7.778 C 5.732,6.998 5.732,5.731 4.951,4.951 L 0,0 Z" />
            </g>
            <g
               transform="translate(12.4038,25.7173)"
               id="g264">
              <path
                 id="path266"
                 style="fill:#99aab5;fill-opacity:1;fill-rule:nonzero;stroke:none"
                 d="M 0,0 C 0,0 -0.707,2.122 -1.414,4.243 -1.862,5.584 -2.829,5.657 -3.536,4.95 -4.243,4.243 -5.657,2.829 -6.364,2.122 -7.071,1.415 -6.999,0.447 -5.657,0 c 2.121,-0.707 4.243,-1.414 4.243,-1.414 L 0,0 Z" />
            </g>
            <g
               transform="translate(17.708,14.0508)"
               id="g268">
              <path
                 id="path270"
                 style="fill:#ccd6dd;fill-opacity:1;fill-rule:nonzero;stroke:none"
                 d="M 0,0 C -0.782,-0.781 -2.048,-0.781 -2.829,-0.001 L -9.9,7.07 c -0.781,0.782 -0.781,2.048 0,2.829 l 4.242,4.242 c 0.781,0.781 2.048,0.781 2.829,10e-4 L 4.242,7.07 C 5.022,6.29 5.022,5.023 4.241,4.241 L 0,0 Z" />
            </g>
            <g
               transform="translate(21.0156,14.9453)"
               id="g272">
              <path
                 id="path274"
                 style="fill:#ccd6dd;fill-opacity:1;fill-rule:nonzero;stroke:none"
                 d="m 0,0 c -1.952,-1.953 -4.802,-2.27 -6.364,-0.708 -1.562,1.563 0.876,2.29 2.829,4.243 1.953,1.953 2.681,4.39 4.243,2.829 C 2.27,4.802 1.953,1.953 0,0" />
            </g>
            <g
               transform="translate(27.96,15.8184)"
               id="g276">
              <path
                 id="path278"
                 style="fill:#99aab5;fill-opacity:1;fill-rule:nonzero;stroke:none"
                 d="m 0,0 c -2.12,2.122 -5.118,1.951 -7.071,0 -1.952,-1.954 -2.121,-4.95 0,-7.071 L 0,0 Z" />
            </g>
            <g
               transform="translate(25.1318,12.9893)"
               id="g280">
              <path
                 id="path282"
                 style="fill:#99aab5;fill-opacity:1;fill-rule:nonzero;stroke:none"
                 d="M 0,0 2.121,-3.535 -1.414,-1.414 0,0 Z" />
            </g>
            <g
               transform="translate(27.8135,8.8936)"
               id="g284">
              <path
                 id="path286"
                 style="fill:#99aab5;fill-opacity:1;fill-rule:nonzero;stroke:none"
                 d="m 0,0 c -0.391,-0.391 -1.023,-0.391 -1.414,0 -0.391,0.391 -0.391,1.023 0,1.414 0.391,0.391 1.023,0.391 1.414,0 C 0.391,1.023 0.391,0.391 0,0" />
            </g>
            <g
               transform="translate(4.272,17.5854)"
               id="g288">
              <path
                 id="path290"
                 style="fill:#88c9f9;fill-opacity:1;fill-rule:nonzero;stroke:none"
                 d="M 0,0 1.414,1.415 9.192,-6.364 7.778,-7.778 0,0 Z" />
            </g>
            <g
               transform="translate(26.1924,23.9497)"
               id="g292">
              <path
                 id="path294"
                 style="fill:#88c9f9;fill-opacity:1;fill-rule:nonzero;stroke:none"
                 d="M 0,0 -1.414,-1.414 -9.192,6.364 -7.778,7.778 0,0 Z" />
            </g>
            <g
               transform="translate(0.7368,14.0498)"
               id="g296">
              <path
                 id="path298"
                 style="fill:#88c9f9;fill-opacity:1;fill-rule:nonzero;stroke:none"
                 d="M 0,0 1.414,1.415 9.192,-6.363 7.777,-7.777 0,0 Z" />
            </g>
            <g
               transform="translate(29.7275,27.4858)"
               id="g300">
              <path
                 id="path302"
                 style="fill:#88c9f9;fill-opacity:1;fill-rule:nonzero;stroke:none"
                 d="M 0,0 -1.414,-1.415 -9.192,6.363 -7.777,7.777 0,0 Z" />
            </g>
            <g
               transform="translate(8.3066,28.3989)"
               id="g304">
              <path
                 id="path306"
                 style="fill:#99aab5;fill-opacity:1;fill-rule:nonzero;stroke:none"
                 d="m 0,0 c -0.39,-0.39 -1.023,-0.39 -1.414,0 -0.391,0.391 -0.39,1.024 0,1.415 0.391,0.39 1.024,0.39 1.414,0 C 0.391,1.024 0.391,0.391 0,0" />
            </g>
            <g
               transform="translate(23.6816,5.5693)"
               id="g308">
              <path
                 id="path310"
                 style="fill:#ffac33;fill-opacity:1;fill-rule:nonzero;stroke:none"
                 d="M 0,0 C 0,0.017 0.001,0.034 0.002,0.051 0.029,0.603 0.499,1.027 1.051,1 1.066,0.999 3.207,0.937 4.851,2.58 6.487,4.218 6.429,6.353 6.431,6.381 6.398,6.931 6.828,7.401 7.379,7.43 7.931,7.457 8.4,7.032 8.428,6.48 8.44,6.358 8.551,3.452 6.265,1.166 3.977,-1.121 1.073,-1.004 0.951,-0.998 0.416,-0.971 0,-0.529 0,0" />
            </g>
            <g
               transform="translate(24.2383,2.0107)"
               id="g80">
              <path
                 id="path82"
                 style="fill:#ffac33;fill-opacity:1;fill-rule:nonzero;stroke:none"
                 d="M 0,0 C 0,0.109 0.018,0.221 0.057,0.33 0.238,0.852 0.809,1.126 1.33,0.943 1.437,0.909 4.207,0.051 7.294,3.139 c 3.127,3.126 2.414,6.126 2.382,6.252 -0.137,0.529 0.184,1.077 0.716,1.216 0.53,0.139 1.073,-0.172 1.216,-0.702 C 11.654,9.735 12.686,5.7 8.708,1.725 4.694,-2.291 0.832,-1.001 0.67,-0.943 0.258,-0.8 0,-0.413 0,0" />
            </g>
          </g>
        </g>
      </g>
    </g>
    <g
       transform="matrix(0,-0.93333333,0.93333333,0,100.83333,76.935185)"
       id="g314">
      <g
         transform="matrix(1.25,0,0,-1.25,0,47.5)"
         id="g316">
        <g
           id="g318">
          <g
             clip-path="url(#clipPath16)"
             id="g320">
            <g
               transform="translate(29.0684,5.6445)"
               id="g322">
              <path
                 id="path324"
                 style="fill:#ffac33;fill-opacity:1;fill-rule:nonzero;stroke:none"
                 d="M 0,0 C -2.229,0 -8.468,-0.785 -10.068,-1.832 -11.669,-0.785 -17.908,0 -20.137,0 c -2.565,0 -1.161,-1.039 -1.161,-2.322 0,-1.282 -1.404,-2.323 1.161,-2.323 2.229,0 8.468,0.786 10.069,1.832 1.6,-1.046 7.839,-1.832 10.068,-1.832 2.565,0 1.161,1.041 1.161,2.323 C 1.161,-1.039 2.565,0 0,0"
                 inkscape:connector-curvature="0" />
            </g>
            <g
               transform="translate(32.7305,21.1338)"
               id="g326">
              <path
                 id="path328"
                 style="fill:#292f33;fill-opacity:1;fill-rule:nonzero;stroke:none"
                 d="m 0,0 c -1.25,2.499 -3.152,4.995 -4.942,6.723 -2.452,5.432 -6.03,9.143 -8.788,9.143 -2.759,0 -6.337,-3.71 -8.788,-9.142 C -24.309,4.995 -26.211,2.5 -27.461,0 c -2.438,-4.876 -3.116,-11.426 -2.078,-11.944 0.873,-0.437 2.324,1.551 4.208,5.082 0.268,-10.876 7.047,-10.95 11.601,-10.95 4.552,0 11.333,0.074 11.6,10.948 1.884,-3.529 3.335,-5.517 4.207,-5.08 C 3.115,-11.426 2.438,-4.876 0,0"
                 inkscape:connector-curvature="0" />
            </g>
            <g
               transform="translate(22.6748,30.0566)"
               id="g330">
              <path
                 id="path332"
                 style="fill:#f5f8fa;fill-opacity:1;fill-rule:nonzero;stroke:none"
                 d="m 0,0 c -0.85,-0.607 -2.172,-1.186 -3.675,-1.186 -1.503,0 -2.825,0.579 -3.675,1.186 -3.302,-2.137 -5.615,-7.061 -5.615,-12.799 0,-7.695 4.159,-13.935 9.29,-13.935 5.132,0 9.291,6.24 9.291,13.935 C 5.616,-7.061 3.303,-2.137 0,0"
                 inkscape:connector-curvature="0" />
            </g>
            <g
               transform="translate(29.4521,31)"
               id="g334">
              <path
                 id="path336"
                 style="fill:#ffac33;fill-opacity:1;fill-rule:nonzero;stroke:none"
                 d="m 0,0 -5.808,0 c -3.847,0 -4.644,0.78 -4.644,1.743 0,0.962 -0.364,1.741 3.483,1.741 C -1.161,3.484 1.161,0 0,0"
                 inkscape:connector-curvature="0" />
            </g>
            <g
               transform="translate(17.8389,33.5166)"
               id="g338">
              <path
                 id="path340"
                 style="fill:#f5f8fa;fill-opacity:1;fill-rule:nonzero;stroke:none"
                 d="m 0,0 c 0,-0.642 -0.52,-1.162 -1.161,-1.162 -0.642,0 -1.161,0.52 -1.161,1.162 0,0.641 0.519,1.161 1.161,1.161 C -0.52,1.161 0,0.641 0,0"
                 inkscape:connector-curvature="0" />
            </g>
          </g>
        </g>
      </g>
    </g>
    <g
       transform="translate(25.5 113.5) rotate(334 15 15) scale(0.5)"
       id="g342">
      <g
         transform="matrix(1.25,0,0,-1.25,0,45)"
         id="g344">
        <g
           transform="translate(30,13)"
           id="g346">
          <path
             id="path348"
             style="fill:#414042;fill-opacity:1;fill-rule:nonzero;stroke:none"
             d="M 0,0 3,0 5,6 2,6 0,0 Z" />
        </g>
        <g
           id="g350">
          <g
             clip-path="url(#clipPath20)"
             id="g352">
            <g
               transform="translate(29,17)"
               id="g354">
              <path
                 id="path356"
                 style="fill:#f4900c;fill-opacity:1;fill-rule:nonzero;stroke:none"
                 d="m 0,0 c 0,0 -3,4 -4,4 l -9,0 -6,-5 -6.081,-1.77 c -0.62,-0.217 -1.45,-0.636 -1.56,-1.23 L -29,-14 c -0.125,-0.646 0.448,-1 1,-1 l 34,0 c 0.553,0 1,0.447 1,1 l 0,7 0,1 0,4 C 7,0 0,0 0,0" />
            </g>
            <g
               transform="translate(16.0938,16)"
               id="g358">
              <path
                 id="path360"
                 style="fill:#3b88c3;fill-opacity:1;fill-rule:nonzero;stroke:none"
                 d="m 0,0 -5.094,-14 12,0 5,14 L 0,0 Z" />
            </g>
            <g
               transform="translate(12,5)"
               id="g362">
              <path
                 id="path364"
                 style="fill:#292f33;fill-opacity:1;fill-rule:nonzero;stroke:none"
                 d="m 0,0 c 0,-2.209 -1.791,-4 -4,-4 -2.209,0 -4,1.791 -4,4 0,2.209 1.791,4 4,4 2.209,0 4,-1.791 4,-4" />
            </g>
            <g
               transform="translate(10,5)"
               id="g366">
              <path
                 id="path368"
                 style="fill:#58595b;fill-opacity:1;fill-rule:nonzero;stroke:none"
                 d="m 0,0 c 0,-1.105 -0.895,-2 -2,-2 -1.104,0 -2,0.895 -2,2 0,1.105 0.896,2 2,2 1.105,0 2,-0.895 2,-2" />
            </g>
            <g
               transform="translate(33,5)"
               id="g370">
              <path
                 id="path372"
                 style="fill:#292f33;fill-opacity:1;fill-rule:nonzero;stroke:none"
                 d="m 0,0 c 0,-2.209 -1.791,-4 -4,-4 -2.209,0 -4,1.791 -4,4 0,2.209 1.791,4 4,4 2.209,0 4,-1.791 4,-4" />
            </g>
            <g
               transform="translate(31,5)"
               id="g374">
              <path
                 id="path376"
                 style="fill:#58595b;fill-opacity:1;fill-rule:nonzero;stroke:none"
                 d="m 0,0 c 0,-1.105 -0.895,-2 -2,-2 -1.104,0 -2,0.895 -2,2 0,1.105 0.896,2 2,2 1.105,0 2,-0.895 2,-2" />
            </g>
            <g
               transform="translate(16,9.5)"
               id="g378">
              <path
                 id="path380"
                 style="fill:#ffffff;fill-opacity:1;fill-rule:nonzero;stroke:none"
                 d="M 0,0 C 0,1.934 1.567,3.5 3.5,3.5 5.433,3.5 7,1.934 7,0 7,-1.934 5.433,-3.5 3.5,-3.5 1.567,-3.5 0,-1.934 0,0" />
            </g>
            <g
               transform="translate(21.0547,10.7578)"
               id="g382">
              <path
                 id="path384"
                 style="fill:#231f20;fill-opacity:1;fill-rule:nonzero;stroke:none"
                 d="m 0,0 c 0,-0.441 -0.189,-0.826 -0.574,-1.072 0.504,-0.231 0.853,-0.699 0.853,-1.254 0,-0.84 -0.769,-1.547 -1.763,-1.547 -1.037,0 -1.682,0.764 -1.682,1.316 0,0.274 0.287,0.469 0.539,0.469 0.477,0 0.364,-0.818 1.156,-0.818 0.364,0 0.659,0.279 0.659,0.65 0,0.981 -1.192,0.26 -1.192,1.086 0,0.734 0.995,0.238 0.995,1.016 0,0.265 -0.188,0.468 -0.505,0.468 -0.665,0 -0.573,-0.685 -1.05,-0.685 -0.287,0 -0.455,0.258 -0.455,0.517 0,0.547 0.749,1.135 1.527,1.135 C -0.483,1.281 0,0.545 0,0" />
            </g>
            <g
               transform="translate(30,18)"
               id="g386">
              <path
                 id="path388"
                 style="fill:#f4900c;fill-opacity:1;fill-rule:nonzero;stroke:none"
                 d="M 0,0 1,1 6,2 6,0 0,0 Z" />
            </g>
            <g
               transform="translate(17,20)"
               id="g390">
              <path
                 id="path392"
                 style="fill:#88c9f9;fill-opacity:1;fill-rule:nonzero;stroke:none"
                 d="M 0,0 8,0 8,-4 -5,-4 0,0 Z" />
            </g>
            <g
               transform="translate(6,12)"
               id="g394">
              <path
                 id="path396"
                 style="fill:#ffcc4d;fill-opacity:1;fill-rule:nonzero;stroke:none"
                 d="m 0,0 c 0,-0.553 -0.448,-1 -1,-1 l -2,0 c -0.552,0 -1,0.447 -1,1 0,0.553 0.448,1 1,1 l 2,0 C -0.448,1 0,0.553 0,0" />
            </g>
            <g
               transform="translate(36,14)"
               id="g398">
              <path
                 id="path400"
                 style="fill:#dd2e44;fill-opacity:1;fill-rule:nonzero;stroke:none"
                 d="m 0,0 -1,0 c -0.553,0 -1,-0.447 -1,-1 l 0,-1 c 0,-0.553 0.447,-1 1,-1 l 1,0 0,3 z" />
            </g>
          </g>
        </g>
      </g>
    </g>
    <g
       transform="matrix(0.75470958,-0.65605903,0.65605903,0.75470958,110.78292,115.89061)"
       id="g402">
      <g
         transform="matrix(1.25,0,0,-1.25,0,47.5)"
         id="g404">
        <g
           id="g406">
          <g
             clip-path="url(#clipPath16)"
             id="g408">
            <g
               transform="translate(37,19)"
               id="g410">
              <path
                 id="path412"
                 style="fill:#ffcc4d;fill-opacity:1;fill-rule:nonzero;stroke:none"
                 d="m 0,0 c 0,-9.941 -8.059,-18 -18,-18 -9.94,0 -18,8.059 -18,18 0,9.94 8.06,18 18,18 C -8.059,18 0,9.94 0,0"
                 inkscape:connector-curvature="0" />
            </g>
            <g
               transform="translate(35,15)"
               id="g414">
              <path
                 id="path416"
                 style="fill:#ff7892;fill-opacity:1;fill-rule:nonzero;stroke:none"
                 d="m 0,0 c 0,-2.762 -2.238,-5 -5,-5 -2.762,0 -5,2.238 -5,5 0,2.762 2.238,5 5,5 2.762,0 5,-2.238 5,-5"
                 inkscape:connector-curvature="0" />
            </g>
            <g
               transform="translate(13,15)"
               id="g418">
              <path
                 id="path420"
                 style="fill:#ff7892;fill-opacity:1;fill-rule:nonzero;stroke:none"
                 d="m 0,0 c 0,-2.762 -2.238,-5 -5,-5 -2.762,0 -5,2.238 -5,5 0,2.762 2.238,5 5,5 2.762,0 5,-2.238 5,-5"
                 inkscape:connector-curvature="0" />
            </g>
            <g
               transform="translate(22,26)"
               id="g422">
              <path
                 id="path424"
                 style="fill:none;stroke:#664500;stroke-width:2;stroke-linecap:round;stroke-linejoin:round;stroke-miterlimit:4;stroke-dasharray:none;stroke-opacity:1"
                 d="M 0,0 C 0,0 5,1 8,-2"
                 inkscape:connector-curvature="0" />
            </g>
            <g
               transform="translate(16,26)"
               id="g426">
              <path
                 id="path428"
                 style="fill:none;stroke:#664500;stroke-width:2;stroke-linecap:round;stroke-linejoin:round;stroke-miterlimit:4;stroke-dasharray:none;stroke-opacity:1"
                 d="M 0,0 C 0,0 -5,1 -8,-2"
                 inkscape:connector-curvature="0" />
            </g>
            <g
               transform="translate(21,20)"
               id="g430">
              <path
                 id="path432"
                 style="fill:none;stroke:#664500;stroke-width:2;stroke-linecap:round;stroke-linejoin:round;stroke-miterlimit:4;stroke-dasharray:none;stroke-opacity:1"
                 d="M 0,0 C 0,0 4,1 6,-1"
                 inkscape:connector-curvature="0" />
            </g>
            <g
               transform="translate(17,20)"
               id="g434">
              <path
                 id="path436"
                 style="fill:none;stroke:#664500;stroke-width:2;stroke-linecap:round;stroke-linejoin:round;stroke-miterlimit:4;stroke-dasharray:none;stroke-opacity:1"
                 d="M 0,0 C 0,0 -4,1 -6,-1"
                 inkscape:connector-curvature="0" />
            </g>
            <g
               transform="translate(14,12)"
               id="g438">
              <path
                 id="path440"
                 style="fill:#664500;fill-opacity:1;fill-rule:nonzero;stroke:none"
                 d="m 0,0 c 0,0 1,-4 5,-4 4,0 5,4 5,4 C 10,0 9,-1 5,-1 1,-1 0,0 0,0"
                 inkscape:connector-curvature="0" />
            </g>
            <g
               transform="translate(14,12)"
               id="g442">
              <path
                 id="path444"
                 style="fill:none;stroke:#664500;stroke-width:1;stroke-linecap:round;stroke-linejoin:round;stroke-miterlimit:4;stroke-dasharray:none;stroke-opacity:1"
                 d="m 0,0 c 0,0 1,-4 5,-4 4,0 5,4 5,4 C 10,0 9,-1 5,-1 1,-1 0,0 0,0 Z"
                 inkscape:connector-curvature="0" />
            </g>
          </g>
        </g>
      </g>
    </g>
    <g
       transform="matrix(-0.69943137,-0.56638835,0.56638835,-0.69943137,81.597013,150.30996)"
       id="g446">
      <g
         transform="matrix(1.25,0,0,-1.25,0,45)"
         id="g448">
        <g
           id="g450">
          <g
             clip-path="url(#clipPath16)"
             id="g452">
            <g
               transform="translate(12,28.9995)"
               id="g454">
              <path
                 id="path456"
                 style="fill:#ffe8b6;fill-opacity:1;fill-rule:nonzero;stroke:none"
                 d="m 0,0 c -6.626,0 -12,-7.164 -12,-16 l 6,0 0,-6 17.119,0 C 11.683,-20.145 12,-18.123 12,-16 12,-7.164 6.627,0 0,0"
                 inkscape:connector-curvature="0" />
            </g>
            <g
               transform="translate(29,15)"
               id="g458">
              <path
                 id="path460"
                 style="fill:#ffe8b6;fill-opacity:1;fill-rule:nonzero;stroke:none"
                 d="M 0,0 4.896,0 C 4.156,7.89 -0.882,14 -7,14 c -6.626,0 -11.999,-7.164 -11.999,-16 0,-2.123 0.316,-4.145 0.88,-6 L 0,-8 0,0 Z"
                 inkscape:connector-curvature="0" />
            </g>
            <g
               transform="translate(36,13)"
               id="g462">
              <path
                 id="path464"
                 style="fill:#ffac33;fill-opacity:1;fill-rule:nonzero;stroke:none"
                 d="m 0,0 c 0,8.836 -5.373,16 -12,16 -6.626,0 -11.999,-7.164 -11.999,-16 0,-2.123 0.316,-4.145 0.88,-6 L -6,-6 c 3.314,0 6,2.686 6,6"
                 inkscape:connector-curvature="0" />
            </g>
            <path
               id="path32"
               style="fill:#ffac33;fill-opacity:1;fill-rule:nonzero;stroke:none"
               d="M 16,13 6,13 6,7 16,7 16,13 Z"
               inkscape:connector-curvature="0" />
            <g
               transform="translate(5e-4,13)"
               id="g34">
              <path
                 id="path36"
                 style="fill:#ffe8b6;fill-opacity:1;fill-rule:nonzero;stroke:none"
                 d="M 0,0 C 0,3.313 2.687,5.999 6,5.999 9.313,5.999 12,3.313 12,0 12,-3.314 9.313,-6 6,-6 2.687,-6 0,-3.314 0,0"
                 inkscape:connector-curvature="0" />
            </g>
            <g
               transform="translate(14,28.9995)"
               id="g38">
              <path
                 id="path40"
                 style="fill:#ffac33;fill-opacity:1;fill-rule:nonzero;stroke:none"
                 d="m 0,0 c -6.626,0 -12,-7.164 -12,-16 0,-2.21 1.792,-4 4,-4 2.209,0 4.001,1.79 4.001,4 0,6.963 3.342,12.871 7.999,15.07 C 2.747,-0.338 1.405,0 0,0"
                 inkscape:connector-curvature="0" />
            </g>
            <g
               transform="translate(5.0005,13)"
               id="g42">
              <path
                 id="path44"
                 style="fill:#d99e82;fill-opacity:1;fill-rule:nonzero;stroke:none"
                 d="m 0,0 c 0,-0.553 -0.448,-1 -1,-1 -0.552,0 -1,0.447 -1,1 0,0.553 0.448,1 1,1 0.552,0 1,-0.447 1,-1"
                 inkscape:connector-curvature="0" />
            </g>
            <g
               transform="translate(9.9751,12.75)"
               id="g46">
              <path
                 id="path48"
                 style="fill:#c1694f;fill-opacity:1;fill-rule:nonzero;stroke:none"
                 d="m 0,0 c -0.12,0.709 -0.732,1.25 -1.475,1.25 -0.179,0 -0.35,-0.037 -0.509,-0.095 10e-4,0.032 0.009,0.063 0.009,0.095 0,1.105 -0.895,2 -2,2 -1.104,0 -2,-0.895 -2,-2 0,-0.525 0.207,-1 0.539,-1.357 -0.327,-0.276 -0.539,-0.682 -0.539,-1.143 0,-0.678 0.453,-1.244 1.071,-1.43 0.167,-0.556 0.651,-0.962 1.241,-1.039 C -1.686,-3.564 -0.125,-1.986 0,0"
                 inkscape:connector-curvature="0" />
            </g>
            <g
               transform="translate(9.5005,15)"
               id="g50">
              <path
                 id="path52"
                 style="fill:#d99e82;fill-opacity:1;fill-rule:nonzero;stroke:none"
                 d="M 0,0 C -0.829,0 -1.5,-0.672 -1.5,-1.5 -1.5,-2.328 -0.829,-3 0,-3 0.13,-3 0.254,-2.979 0.375,-2.947 0.45,-2.642 0.5,-2.328 0.5,-2 c 0,0.637 0.037,1.261 0.091,1.878 C 0.41,-0.044 0.21,0 0,0"
                 inkscape:connector-curvature="0" />
            </g>
            <g
               transform="translate(8.0005,16)"
               id="g54">
              <path
                 id="path56"
                 style="fill:#ffcc4d;fill-opacity:1;fill-rule:nonzero;stroke:none"
                 d="M 0,0 C 0,-0.553 -0.671,-1 -1.5,-1 -2.329,-1 -3,-0.553 -3,0 -3,0.553 -2.329,1 -1.5,1 -0.671,1 0,0.553 0,0"
                 inkscape:connector-curvature="0" />
            </g>
            <g
               transform="translate(8.0005,15)"
               id="g58">
              <path
                 id="path60"
                 style="fill:#ffcc4d;fill-opacity:1;fill-rule:nonzero;stroke:none"
                 d="m 0,0 c 0,-0.553 -0.448,-1 -1,-1 -0.552,0 -1,0.447 -1,1 0,0.553 0.448,1 1,1 0.552,0 1,-0.447 1,-1"
                 inkscape:connector-curvature="0" />
            </g>
            <g
               transform="translate(10.0005,15)"
               id="g62">
              <path
                 id="path64"
                 style="fill:#c1694f;fill-opacity:1;fill-rule:nonzero;stroke:none"
                 d="m 0,0 c 0,-0.553 -0.448,-1 -1,-1 -0.552,0 -1,0.447 -1,1 0,0.553 0.448,1 1,1 0.552,0 1,-0.447 1,-1"
                 inkscape:connector-curvature="0" />
            </g>
            <g
               transform="translate(6.0005,14)"
               id="g66">
              <path
                 id="path68"
                 style="fill:#d99e82;fill-opacity:1;fill-rule:nonzero;stroke:none"
                 d="m 0,0 c 0,-0.553 -0.448,-1 -1,-1 -0.552,0 -1,0.447 -1,1 0,0.553 0.448,1 1,1 0.552,0 1,-0.447 1,-1"
                 inkscape:connector-curvature="0" />
            </g>
            <g
               transform="translate(8.0005,14)"
               id="g70">
              <path
                 id="path72"
                 style="fill:#d99e82;fill-opacity:1;fill-rule:nonzero;stroke:none"
                 d="m 0,0 c 0,-0.553 -0.448,-1 -1,-1 -0.552,0 -1,0.447 -1,1 0,0.553 0.448,1 1,1 0.552,0 1,-0.447 1,-1"
                 inkscape:connector-curvature="0" />
            </g>
            <g
               transform="translate(9.0005,16)"
               id="g74">
              <path
                 id="path76"
                 style="fill:#ffd983;fill-opacity:1;fill-rule:nonzero;stroke:none"
                 d="m 0,0 c 0,-0.553 -0.448,-1 -1,-1 -0.552,0 -1,0.447 -1,1 0,0.553 0.448,1 1,1 0.552,0 1,-0.447 1,-1"
                 inkscape:connector-curvature="0" />
            </g>
            <g
               transform="translate(8.0005,18)"
               id="g78">
              <path
                 id="path80"
                 style="fill:#ffe8b6;fill-opacity:1;fill-rule:nonzero;stroke:none"
                 d="m 0,0 c 0,-0.553 -0.448,-1 -1,-1 -0.552,0 -1,0.447 -1,1 0,0.553 0.448,1 1,1 0.552,0 1,-0.447 1,-1"
                 inkscape:connector-curvature="0" />
            </g>
            <g
               transform="translate(7.0005,16)"
               id="g82">
              <path
                 id="path84"
                 style="fill:#ffe8b6;fill-opacity:1;fill-rule:nonzero;stroke:none"
                 d="m 0,0 c 0,-0.553 -0.448,-1 -1,-1 -0.552,0 -1,0.447 -1,1 0,0.553 0.448,1 1,1 0.552,0 1,-0.447 1,-1"
                 inkscape:connector-curvature="0" />
            </g>
            <g
               transform="translate(10.0005,18)"
               id="g86">
              <path
                 id="path88"
                 style="fill:#ffd983;fill-opacity:1;fill-rule:nonzero;stroke:none"
                 d="m 0,0 c 0,-0.553 -0.448,-1 -1,-1 -0.552,0 -1,0.447 -1,1 0,0.553 0.448,1 1,1 0.552,0 1,-0.447 1,-1"
                 inkscape:connector-curvature="0" />
            </g>
            <g
               transform="translate(10.0005,16)"
               id="g90">
              <path
                 id="path92"
                 style="fill:#ffd983;fill-opacity:1;fill-rule:nonzero;stroke:none"
                 d="m 0,0 c 0,-0.553 -0.448,-1 -1,-1 -0.552,0 -1,0.447 -1,1 0,0.553 0.448,1 1,1 0.552,0 1,-0.447 1,-1"
                 inkscape:connector-curvature="0" />
            </g>
            <g
               transform="translate(10.0005,17)"
               id="g94">
              <path
                 id="path96"
                 style="fill:#ffd983;fill-opacity:1;fill-rule:nonzero;stroke:none"
                 d="m 0,0 c 0,-0.553 -0.448,-1 -1,-1 -0.552,0 -1,0.447 -1,1 0,0.553 0.448,1 1,1 0.552,0 1,-0.447 1,-1"
                 inkscape:connector-curvature="0" />
            </g>
            <g
               transform="translate(10.0005,17)"
               id="g98">
              <path
                 id="path100"
                 style="fill:#ffe8b6;fill-opacity:1;fill-rule:nonzero;stroke:none"
                 d="m 0,0 c 0,-0.553 -0.448,-1 -1,-1 -0.552,0 -1,0.447 -1,1 0,0.553 0.448,1 1,1 0.552,0 1,-0.447 1,-1"
                 inkscape:connector-curvature="0" />
            </g>
            <g
               transform="translate(10.5718,23.5474)"
               id="g102">
              <path
                 id="path104"
                 style="fill:#77b255;fill-opacity:1;fill-rule:nonzero;stroke:none"
                 d="m 0,0 c -0.272,0.278 -0.651,0.452 -1.071,0.452 -0.738,0 -1.348,-0.533 -1.473,-1.235 -0.216,0.14 -0.478,0.235 -0.777,0.235 -0.691,0 -1.25,-0.448 -1.25,-1 0,-0.19 0.084,-0.358 0.199,-0.51 -0.123,-0.145 -0.199,-0.311 -0.199,-0.49 -0.553,0 -1,-0.448 -1,-1 0,-0.202 0.074,-0.379 0.178,-0.536 -0.11,-0.14 -0.178,-0.295 -0.178,-0.463 0,-0.553 0.671,-1 1.5,-1 0.43,0 0.815,0.122 1.089,0.316 0.253,-0.196 0.566,-0.316 0.911,-0.316 0.197,0 0.385,0.04 0.557,0.11 0.163,-0.603 0.691,-1.042 1.331,-1.092 0.495,2.544 1.451,4.835 2.739,6.72 C 2.234,0.355 1.847,0.452 1.429,0.452 0.868,0.452 0.363,0.278 0,0"
                 inkscape:connector-curvature="0" />
            </g>
            <g
               transform="translate(9.0005,20.9995)"
               id="g106">
              <path
                 id="path108"
                 style="fill:#a6d388;fill-opacity:1;fill-rule:nonzero;stroke:none"
                 d="m 0,0 c 0,-0.552 -0.448,-1 -1,-1 -0.552,0 -1,0.448 -1,1 0,0.552 0.448,1 1,1 0.552,0 1,-0.448 1,-1"
                 inkscape:connector-curvature="0" />
            </g>
            <g
               transform="translate(10.0005,22.4995)"
               id="g110">
              <path
                 id="path112"
                 style="fill:#a6d388;fill-opacity:1;fill-rule:nonzero;stroke:none"
                 d="M 0,0 C 0,-0.276 -0.224,-0.5 -0.5,-0.5 -0.776,-0.5 -1,-0.276 -1,0 -1,0.276 -0.776,0.5 -0.5,0.5 -0.224,0.5 0,0.276 0,0"
                 inkscape:connector-curvature="0" />
            </g>
            <g
               transform="translate(7.0005,19.4995)"
               id="g114">
              <path
                 id="path116"
                 style="fill:#a6d388;fill-opacity:1;fill-rule:nonzero;stroke:none"
                 d="M 0,0 C 0,-0.276 -0.224,-0.5 -0.5,-0.5 -0.776,-0.5 -1,-0.276 -1,0 -1,0.276 -0.776,0.5 -0.5,0.5 -0.224,0.5 0,0.276 0,0"
                 inkscape:connector-curvature="0" />
            </g>
            <g
               transform="translate(10.0005,19.4995)"
               id="g118">
              <path
                 id="path120"
                 style="fill:#a6d388;fill-opacity:1;fill-rule:nonzero;stroke:none"
                 d="M 0,0 C 0,-0.276 -0.224,-0.5 -0.5,-0.5 -0.776,-0.5 -1,-0.276 -1,0 -1,0.276 -0.776,0.5 -0.5,0.5 -0.224,0.5 0,0.276 0,0"
                 inkscape:connector-curvature="0" />
            </g>
            <g
               transform="translate(11.0005,20.9995)"
               id="g122">
              <path
                 id="path124"
                 style="fill:#a6d388;fill-opacity:1;fill-rule:nonzero;stroke:none"
                 d="m 0,0 c 0,-0.552 -0.448,-1 -1,-1 -0.552,0 -1,0.448 -1,1 0,0.552 0.448,1 1,1 0.552,0 1,-0.448 1,-1"
                 inkscape:connector-curvature="0" />
            </g>
            <g
               transform="translate(10.0005,23.9995)"
               id="g126">
              <path
                 id="path128"
                 style="fill:#dd2e44;fill-opacity:1;fill-rule:nonzero;stroke:none"
                 d="m 0,0 c 0,-0.552 -0.448,-1 -1,-1 -0.552,0 -1,0.448 -1,1 0,0.552 0.448,1 1,1 0.552,0 1,-0.448 1,-1"
                 inkscape:connector-curvature="0" />
            </g>
            <g
               transform="translate(12.0005,23.9995)"
               id="g130">
              <path
                 id="path132"
                 style="fill:#ffd983;fill-opacity:1;fill-rule:nonzero;stroke:none"
                 d="m 0,0 c 0,-0.552 -0.448,-1 -1,-1 -0.552,0 -1,0.448 -1,1 0,0.552 0.448,1 1,1 0.552,0 1,-0.448 1,-1"
                 inkscape:connector-curvature="0" />
            </g>
            <g
               transform="translate(13.0005,25.9995)"
               id="g134">
              <path
                 id="path136"
                 style="fill:#ffd983;fill-opacity:1;fill-rule:nonzero;stroke:none"
                 d="m 0,0 c 0,-0.552 -0.448,-1 -1,-1 -0.552,0 -1,0.448 -1,1 0,0.552 0.448,1 1,1 0.552,0 1,-0.448 1,-1"
                 inkscape:connector-curvature="0" />
            </g>
            <g
               transform="translate(10.0005,21.9995)"
               id="g138">
              <path
                 id="path140"
                 style="fill:#ffd983;fill-opacity:1;fill-rule:nonzero;stroke:none"
                 d="m 0,0 c 0,-0.552 -0.448,-1 -1,-1 -0.552,0 -1,0.448 -1,1 0,0.552 0.448,1 1,1 0.552,0 1,-0.448 1,-1"
                 inkscape:connector-curvature="0" />
            </g>
            <g
               transform="translate(15.0005,26.9995)"
               id="g142">
              <path
                 id="path144"
                 style="fill:#a6d388;fill-opacity:1;fill-rule:nonzero;stroke:none"
                 d="m 0,0 c -0.552,0 -1,-0.448 -1,-1 0,-0.035 0.016,-0.064 0.02,-0.098 C -1.143,-1.038 -1.316,-1 -1.5,-1 -2.329,-1 -3,-1.671 -3,-2.5 c 0,-0.561 0.311,-1.043 0.767,-1.301 0.844,1.354 1.855,2.513 2.989,3.436 C 0.572,-0.147 0.308,0 0,0"
                 inkscape:connector-curvature="0" />
            </g>
            <g
               transform="translate(13.0005,24.9995)"
               id="g146">
              <path
                 id="path148"
                 style="fill:#dd2e44;fill-opacity:1;fill-rule:nonzero;stroke:none"
                 d="m 0,0 c 0,-0.552 -0.448,-1 -1,-1 -0.552,0 -1,0.448 -1,1 0,0.552 0.448,1 1,1 0.552,0 1,-0.448 1,-1"
                 inkscape:connector-curvature="0" />
            </g>
            <g
               transform="translate(15.0005,26.9995)"
               id="g150">
              <path
                 id="path152"
                 style="fill:#dd2e44;fill-opacity:1;fill-rule:nonzero;stroke:none"
                 d="m 0,0 c 0,-0.552 -0.448,-1 -1,-1 -0.552,0 -1,0.448 -1,1 0,0.552 0.448,1 1,1 0.552,0 1,-0.448 1,-1"
                 inkscape:connector-curvature="0" />
            </g>
            <g
               transform="translate(18.0005,11)"
               id="g154">
              <path
                 id="path156"
                 style="fill:#f4900c;fill-opacity:1;fill-rule:nonzero;stroke:none"
                 d="m 0,0 c 0,-0.553 -0.448,-1 -1,-1 -0.552,0 -1,0.447 -1,1 0,0.553 0.448,1 1,1 0.552,0 1,-0.447 1,-1"
                 inkscape:connector-curvature="0" />
            </g>
            <g
               transform="translate(14.0005,8)"
               id="g158">
              <path
                 id="path160"
                 style="fill:#f4900c;fill-opacity:1;fill-rule:nonzero;stroke:none"
                 d="m 0,0 c 0,-0.553 -0.448,-1 -1,-1 -0.552,0 -1,0.447 -1,1 0,0.553 0.448,1 1,1 0.552,0 1,-0.447 1,-1"
                 inkscape:connector-curvature="0" />
            </g>
            <g
               transform="translate(20,8)"
               id="g162">
              <path
                 id="path164"
                 style="fill:#f4900c;fill-opacity:1;fill-rule:nonzero;stroke:none"
                 d="m 0,0 c 0,-0.553 -0.447,-1 -1,-1 -0.552,0 -1,0.447 -1,1 0,0.553 0.448,1 1,1 0.553,0 1,-0.447 1,-1"
                 inkscape:connector-curvature="0" />
            </g>
            <g
               transform="translate(23,9)"
               id="g166">
              <path
                 id="path168"
                 style="fill:#f4900c;fill-opacity:1;fill-rule:nonzero;stroke:none"
                 d="m 0,0 c 0,-0.553 -0.447,-1 -1,-1 -0.553,0 -1,0.447 -1,1 0,0.553 0.447,1 1,1 0.553,0 1,-0.447 1,-1"
                 inkscape:connector-curvature="0" />
            </g>
            <g
               transform="translate(27,9)"
               id="g170">
              <path
                 id="path172"
                 style="fill:#f4900c;fill-opacity:1;fill-rule:nonzero;stroke:none"
                 d="m 0,0 c 0,-0.553 -0.447,-1 -1,-1 -0.553,0 -1,0.447 -1,1 0,0.553 0.447,1 1,1 0.553,0 1,-0.447 1,-1"
                 inkscape:connector-curvature="0" />
            </g>
            <g
               transform="translate(30,8)"
               id="g174">
              <path
                 id="path176"
                 style="fill:#f4900c;fill-opacity:1;fill-rule:nonzero;stroke:none"
                 d="m 0,0 c 0,-0.553 -0.447,-1 -1,-1 -0.553,0 -1,0.447 -1,1 0,0.553 0.447,1 1,1 0.553,0 1,-0.447 1,-1"
                 inkscape:connector-curvature="0" />
            </g>
            <g
               transform="translate(32,10)"
               id="g178">
              <path
                 id="path180"
                 style="fill:#f4900c;fill-opacity:1;fill-rule:nonzero;stroke:none"
                 d="m 0,0 c 0,-0.553 -0.447,-1 -1,-1 -0.553,0 -1,0.447 -1,1 0,0.553 0.447,1 1,1 0.553,0 1,-0.447 1,-1"
                 inkscape:connector-curvature="0" />
            </g>
            <g
               transform="translate(22,14)"
               id="g182">
              <path
                 id="path184"
                 style="fill:#f4900c;fill-opacity:1;fill-rule:nonzero;stroke:none"
                 d="m 0,0 c 0,-0.553 -0.447,-1 -1,-1 -0.552,0 -1,0.447 -1,1 0,0.553 0.448,1 1,1 0.553,0 1,-0.447 1,-1"
                 inkscape:connector-curvature="0" />
            </g>
            <g
               transform="translate(16.0005,14)"
               id="g186">
              <path
                 id="path188"
                 style="fill:#f4900c;fill-opacity:1;fill-rule:nonzero;stroke:none"
                 d="m 0,0 c 0,-0.553 -0.448,-1 -1,-1 -0.552,0 -1,0.447 -1,1 0,0.553 0.448,1 1,1 0.552,0 1,-0.447 1,-1"
                 inkscape:connector-curvature="0" />
            </g>
            <g
               transform="translate(35,12)"
               id="g190">
              <path
                 id="path192"
                 style="fill:#f4900c;fill-opacity:1;fill-rule:nonzero;stroke:none"
                 d="m 0,0 c 0,-0.553 -0.447,-1 -1,-1 -0.553,0 -1,0.447 -1,1 0,0.553 0.447,1 1,1 0.553,0 1,-0.447 1,-1"
                 inkscape:connector-curvature="0" />
            </g>
            <g
               transform="translate(18.0005,18)"
               id="g194">
              <path
                 id="path196"
                 style="fill:#f4900c;fill-opacity:1;fill-rule:nonzero;stroke:none"
                 d="m 0,0 c 0,-0.553 -0.448,-1 -1,-1 -0.552,0 -1,0.447 -1,1 0,0.553 0.448,1 1,1 0.552,0 1,-0.447 1,-1"
                 inkscape:connector-curvature="0" />
            </g>
            <g
               transform="translate(23,19.9995)"
               id="g198">
              <path
                 id="path200"
                 style="fill:#f4900c;fill-opacity:1;fill-rule:nonzero;stroke:none"
                 d="m 0,0 c 0,-0.552 -0.447,-1 -1,-1 -0.553,0 -1,0.448 -1,1 0,0.552 0.447,1 1,1 0.553,0 1,-0.448 1,-1"
                 inkscape:connector-curvature="0" />
            </g>
            <g
               transform="translate(20,23.9995)"
               id="g202">
              <path
                 id="path204"
                 style="fill:#f4900c;fill-opacity:1;fill-rule:nonzero;stroke:none"
                 d="m 0,0 c 0,-0.552 -0.447,-1 -1,-1 -0.552,0 -0.999,0.448 -0.999,1 0,0.552 0.447,1 0.999,1 0.553,0 1,-0.448 1,-1"
                 inkscape:connector-curvature="0" />
            </g>
            <g
               transform="translate(28,22.9995)"
               id="g206">
              <path
                 id="path208"
                 style="fill:#f4900c;fill-opacity:1;fill-rule:nonzero;stroke:none"
                 d="m 0,0 c 0,-0.552 -0.447,-1 -1,-1 -0.553,0 -1,0.448 -1,1 0,0.552 0.447,1 1,1 0.553,0 1,-0.448 1,-1"
                 inkscape:connector-curvature="0" />
            </g>
            <g
               transform="translate(25,25.9995)"
               id="g210">
              <path
                 id="path212"
                 style="fill:#f4900c;fill-opacity:1;fill-rule:nonzero;stroke:none"
                 d="m 0,0 c 0,-0.552 -0.447,-1 -1,-1 -0.553,0 -1,0.448 -1,1 0,0.552 0.447,1 1,1 0.553,0 1,-0.448 1,-1"
                 inkscape:connector-curvature="0" />
            </g>
            <g
               transform="translate(32,17)"
               id="g214">
              <path
                 id="path216"
                 style="fill:#f4900c;fill-opacity:1;fill-rule:nonzero;stroke:none"
                 d="m 0,0 c 0,-0.553 -0.447,-1 -1,-1 -0.553,0 -1,0.447 -1,1 0,0.553 0.447,1 1,1 0.553,0 1,-0.447 1,-1"
                 inkscape:connector-curvature="0" />
            </g>
            <g
               transform="translate(27,17)"
               id="g218">
              <path
                 id="path220"
                 style="fill:#f4900c;fill-opacity:1;fill-rule:nonzero;stroke:none"
                 d="m 0,0 c 0,-0.553 -0.447,-1 -1,-1 -0.553,0 -1,0.447 -1,1 0,0.553 0.447,1 1,1 0.553,0 1,-0.447 1,-1"
                 inkscape:connector-curvature="0" />
            </g>
            <g
               transform="translate(25,13)"
               id="g222">
              <path
                 id="path224"
                 style="fill:#f4900c;fill-opacity:1;fill-rule:nonzero;stroke:none"
                 d="m 0,0 c 0,-0.553 -0.447,-1 -1,-1 -0.553,0 -1,0.447 -1,1 0,0.553 0.447,1 1,1 0.553,0 1,-0.447 1,-1"
                 inkscape:connector-curvature="0" />
            </g>
            <g
               transform="translate(30,14)"
               id="g226">
              <path
                 id="path228"
                 style="fill:#f4900c;fill-opacity:1;fill-rule:nonzero;stroke:none"
                 d="m 0,0 c 0,-0.553 -0.447,-1 -1,-1 -0.553,0 -1,0.447 -1,1 0,0.553 0.447,1 1,1 0.553,0 1,-0.447 1,-1"
                 inkscape:connector-curvature="0" />
            </g>
          </g>
        </g>
      </g>
    </g>
    <g
       transform="translate(20.5 79.5) rotate(165 15 15) scale(0.5666666666666667)"
       id="g565">
      <g
         transform="matrix(1.25,0,0,-1.25,0,47.5)"
         id="g567">
        <g
           id="g569">
          <g
             clip-path="url(#clipPath16)"
             id="g571">
            <g
               transform="translate(37,35)"
               id="g573">
              <path
                 id="path575"
                 style="fill:#aa8ed6;fill-opacity:1;fill-rule:nonzero;stroke:none"
                 d="M 0,0 C 0,0.809 -0.487,1.538 -1.234,1.848 -1.984,2.158 -2.842,1.987 -3.414,1.414 -4.3,0.528 -7.411,-2 -10,-2 c -10e-4,0 -0.002,0 -0.004,0 -2.384,1.273 -5.104,2 -7.996,2 -2.892,0 -5.612,-0.727 -7.996,-2 -0.002,0 -0.003,0 -0.004,0 -2.58,0 -5.631,2.466 -6.586,3.414 -0.571,0.572 -1.433,0.744 -2.179,0.434 C -35.513,1.538 -36,0.809 -36,0 c 0,-2.384 0.795,-6.229 3.359,-8.391 C -34.13,-10.918 -35,-13.854 -35,-17 c 0,-9.389 7.612,-17 17,-17 9.389,0 17,7.611 17,17 0,3.146 -0.87,6.082 -2.359,8.609 C -0.795,-6.229 0,-2.384 0,0" />
            </g>
            <g
               transform="translate(28.335,11.3711)"
               id="g577">
              <path
                 id="path579"
                 style="fill:#553986;fill-opacity:1;fill-rule:nonzero;stroke:none"
                 d="m 0,0 c -0.178,0.161 -0.444,0.171 -0.635,0.029 -0.039,-0.029 -3.922,-2.9 -8.7,-2.9 -4.766,0 -8.662,2.871 -8.7,2.9 -0.191,0.142 -0.457,0.13 -0.635,-0.029 -0.177,-0.16 -0.217,-0.424 -0.094,-0.628 0.129,-0.215 3.217,-5.243 9.429,-5.243 6.212,0 9.301,5.028 9.429,5.243 C 0.217,-0.423 0.178,-0.16 0,0" />
            </g>
            <g
               transform="translate(16.707,18.707)"
               id="g581">
              <path
                 id="path583"
                 style="fill:#553986;fill-opacity:1;fill-rule:nonzero;stroke:none"
                 d="m 0,0 c -3.255,3.255 -8.486,3.293 -8.707,3.293 -0.552,0 -0.999,-0.447 -0.999,-0.999 -0.001,-0.551 0.446,-1 0.998,-1.001 0.029,0 1.925,-0.022 3.983,-0.737 -0.593,-0.64 -0.982,-1.634 -0.982,-2.763 0,-1.934 1.119,-3.5 2.5,-3.5 1.381,0 2.5,1.566 2.5,3.5 0,0.174 -0.019,0.34 -0.037,0.507 0.013,0 0.025,-0.007 0.037,-0.007 0.256,0 0.512,0.098 0.707,0.293 0.391,0.391 0.391,1.023 0,1.414" />
            </g>
            <g
               transform="translate(30,22)"
               id="g585">
              <path
                 id="path587"
                 style="fill:#553986;fill-opacity:1;fill-rule:nonzero;stroke:none"
                 d="m 0,0 c -0.221,0 -5.451,-0.038 -8.707,-3.293 -0.391,-0.391 -0.391,-1.023 0,-1.414 C -8.512,-4.902 -8.256,-5 -8,-5 c 0.013,0 0.024,0.007 0.036,0.007 C -7.98,-5.16 -8,-5.326 -8,-5.5 -8,-7.434 -6.881,-9 -5.5,-9 c 1.381,0 2.5,1.566 2.5,3.5 0,1.129 -0.389,2.123 -0.982,2.763 C -1.924,-2.022 -0.028,-2 0.002,-2 0.553,-1.999 1,-1.55 0.999,-0.999 0.998,-0.447 0.552,0 0,0" />
            </g>
          </g>
        </g>
      </g>
    </g>
  </g>
</svg>
