<?xml version="1.0" encoding="UTF-8" standalone="no"?>
<svg
   xmlns:dc="http://purl.org/dc/elements/1.1/"
   xmlns:cc="http://creativecommons.org/ns#"
   xmlns:rdf="http://www.w3.org/1999/02/22-rdf-syntax-ns#"
   xmlns:svg="http://www.w3.org/2000/svg"
   xmlns="http://www.w3.org/2000/svg"
   xmlns:sodipodi="http://sodipodi.sourceforge.net/DTD/sodipodi-0.dtd"
   xmlns:inkscape="http://www.inkscape.org/namespaces/inkscape"
   version="1.1"
   id="svg2"
   viewBox="0 0 200 200"
   height="200px"
   width="200px"
   inkscape:version="0.91 r13725"
   sodipodi:docname="2.svg">
  <metadata
     id="metadata615">
    <rdf:RDF>
      <cc:Work
         rdf:about="">
        <dc:format>image/svg+xml</dc:format>
        <dc:type
           rdf:resource="http://purl.org/dc/dcmitype/StillImage" />
      </cc:Work>
    </rdf:RDF>
  </metadata>
  <sodipodi:namedview
     pagecolor="#ffffff"
     bordercolor="#666666"
     borderopacity="1"
     objecttolerance="10"
     gridtolerance="10"
     guidetolerance="10"
     inkscape:pageopacity="0"
     inkscape:pageshadow="2"
     inkscape:window-width="1920"
     inkscape:window-height="1060"
     id="namedview613"
     showgrid="false"
     inkscape:zoom="4.72"
     inkscape:cx="71.298243"
     inkscape:cy="98.178655"
     inkscape:window-x="0"
     inkscape:window-y="0"
     inkscape:window-maximized="1"
     inkscape:current-layer="layer1" />
  <defs
     id="defs6">
    <clipPath
       id="clipPath28"
       clipPathUnits="userSpaceOnUse">
      <path
         id="path30"
         d="M 4,36 C 0,36 0,32 0,32 L 0,32 0,4 C 0,0 4,0 4,0 l 0,0 28,0 c 4,0 4,4 4,4 l 0,0 0,28 c 0,4 -4,4 -4,4 l 0,0 -28,0 z" />
    </clipPath>
    <clipPath
       clipPathUnits="userSpaceOnUse"
       id="clipPath16-rugby">
      <path
         d="M 0,38 38,38 38,0 0,0 0,38 Z"
         id="path18" />
    </clipPath>
    <clipPath
       clipPathUnits="userSpaceOnUse"
       id="clipPath28-rugby">
      <path
         d="M 9.254,28.746 C 2.09,21.582 -0.927,9.561 3.929,3.929 l 0,0 C 9.561,-0.927 21.582,2.09 28.746,9.254 l 0,0 c 7.164,7.164 11.229,17.088 5.324,24.816 l 0,0 c -1.886,1.627 -4.489,2.371 -7.387,2.37 l 0,0 c -5.752,0 -12.665,-2.93 -17.429,-7.694"
         id="path11" />
    </clipPath>
    <clipPath
       clipPathUnits="userSpaceOnUse"
       id="clipPath16-carrot">
      <path
         d="M 0,36 36,36 36,0 0,0 0,36 Z"
         id="path14" />
    </clipPath>
    <clipPath
       clipPathUnits="userSpaceOnUse"
       id="clipPath32-carrot">
      <path
         d="M 11.815,23.013 C 4.2,15.397 -1.265,2.86 0.502,1.093 l 0,0 c 1.768,-1.768 14.305,3.698 21.92,11.313 l 0,0 c 7.616,7.615 7.562,11.53 4.243,14.85 l 0,0 c -1.328,1.328 -2.752,2.133 -4.47,2.133 l 0,0 c -2.575,0 -5.812,-1.809 -10.38,-6.376"
         id="path34" />
    </clipPath>
    <clipPath
       clipPathUnits="userSpaceOnUse"
       id="clipPath32-hat">
      <path
         d="m 5,33.666 c 0,-0.034 0.018,-0.067 0.022,-0.101 l 0,0 C 5.008,33.455 5,33.335 5,33.2 l 0,0 L 6.802,9.616 C 3.299,8.705 1,7.424 1,6 L 1,6 C 1,3.238 9.611,1 19,1 l 0,0 c 9.389,0 18,2.238 18,5 l 0,0 c 0,1.424 -2.298,2.705 -5.801,3.616 l 0,0 L 33,33.184 c 0,0.135 -0.008,0.263 -0.021,0.373 l 0,0 C 32.982,33.591 33,33.632 33,33.666 l 0,0 c 0,1.805 -6.268,3.267 -14,3.267 l 0,0 c -7.732,0 -14,-1.462 -14,-3.267"
         id="path19" />
    </clipPath>
    <clipPath
       clipPathUnits="userSpaceOnUse"
       id="clipPath48-soccer">
      <path
         d="M 1,19 C 1,9.059 9.059,1 19,1 l 0,0 c 9.941,0 18,8.059 18,18 l 0,0 c 0,9.941 -8.059,18 -18,18 l 0,0 C 9.059,37 1,28.941 1,19"
         id="path50" />
    </clipPath>
    <clipPath
       clipPathUnits="userSpaceOnUse"
       id="clipPath28-baguette">
      <path
         d="M 24.052,31.33 5.126,12.406 C 1.342,8.62 1.288,4.133 2.856,2.564 l 0,0 C 4.424,0.997 8.912,1.049 12.697,4.835 l 0,0 18.925,18.924 c 3.784,3.785 3.837,8.273 2.269,9.841 l 0,0 c -0.605,0.606 -1.647,0.969 -2.915,0.969 l 0,0 c -2.014,0 -4.602,-0.917 -6.924,-3.239"
         id="path24" />
    </clipPath>
  </defs>
  <g
     id="layer1">
    <circle
       style="opacity:1;fill:#ffffff;stroke:#000000;stroke-width:1;stroke-miterlimit:4;stroke-dasharray:none;stroke-opacity:0.1"
       id="path4039-0-9"
       cx="100"
       cy="95.55085"
       r="90" />
    <g
       transform="matrix(0.75800375,0.42016834,-0.42016834,0.75800375,133.97488,113.76111)"
       id="g7">
      <g
         transform="matrix(1.25,0,0,-1.25,0,45)"
         id="g10">
        <g
           id="g12">
          <g
             clip-path="url(#clipPath16)"
             id="g14">
            <g
               transform="translate(25.8193,25.2695)"
               id="g20">
              <path
                 id="path22"
                 style="fill:#66757f;fill-opacity:1;fill-rule:nonzero;stroke:none"
                 d="m 0,0 c -0.22,-0.132 -0.505,-0.061 -0.637,0.158 l -3.134,5.201 c -0.133,0.219 -0.063,0.504 0.157,0.636 l 0.061,0.038 c 0.22,0.132 0.505,0.062 0.637,-0.158 L 0.22,0.674 C 0.352,0.455 0.281,0.17 0.062,0.038 L 0,0 Z"
                 inkscape:connector-curvature="0" />
            </g>
            <g
               transform="translate(25.2695,25.8193)"
               id="g24">
              <path
                 id="path26"
                 style="fill:#66757f;fill-opacity:1;fill-rule:nonzero;stroke:none"
                 d="m 0,0 c -0.132,-0.219 -0.061,-0.504 0.158,-0.636 l 5.2,-3.135 c 0.22,-0.133 0.505,-0.063 0.637,0.157 l 0.037,0.062 c 0.133,0.219 0.063,0.504 -0.158,0.637 L 0.674,0.22 C 0.455,0.352 0.17,0.282 0.037,0.062 L 0,0 Z"
                 inkscape:connector-curvature="0" />
            </g>
            <g
               transform="translate(13.0488,3.8564)"
               id="g28">
              <path
                 id="path17"
                 style="fill:#be1931;fill-opacity:1;fill-rule:nonzero;stroke:none"
                 d="m 0,0 -3.536,4.95 -0.707,0.707 -4.949,3.535 c -0.391,0.391 -1.024,0.391 -1.414,0 l -2.122,-2.121 c -0.391,-0.39 -0.39,-1.023 0,-1.414 l 9.192,-9.192 c 0.391,-0.391 1.024,-0.391 1.415,0 L 0,-1.414 C 0.391,-1.023 0.391,-0.391 0,0"
                 inkscape:connector-curvature="0" />
            </g>
            <g
               transform="translate(23.2041,18.2534)"
               id="g32">
              <path
                 id="path39"
                 style="fill:#ccd6dd;fill-opacity:1;fill-rule:nonzero;stroke:none"
                 d="m 0,0 c -6.995,-6.994 -19.669,-15.557 -20.088,-15.137 -0.42,0.419 8.144,13.093 15.138,20.087 6.993,6.993 8.821,6.606 10.188,5.238 C 6.604,8.822 6.993,6.994 0,0"
                 inkscape:connector-curvature="0" />
            </g>
            <g
               transform="translate(32.0762,31.3682)"
               id="g36">
              <path
                 id="path38"
                 style="fill:#be1931;fill-opacity:1;fill-rule:nonzero;stroke:none"
                 d="m 0,0 c -0.977,-0.976 -1.927,-1.609 -2.122,-1.414 -0.195,0.195 0.438,1.145 1.414,2.122 C 0.268,1.684 1.219,2.317 1.414,2.122 1.609,1.926 0.976,0.977 0,0"
                 inkscape:connector-curvature="0" />
            </g>
            <g
               transform="translate(23.9443,18.9946)"
               id="g40">
              <path
                 id="path42"
                 style="fill:#ccd6dd;fill-opacity:1;fill-rule:nonzero;stroke:none"
                 d="M 0,0 C -0.781,-0.781 -2.048,-0.781 -2.828,0 L -4.95,2.121 c -0.781,0.781 -0.781,2.048 0,2.829 l 7.778,7.778 c 0.781,0.781 3.222,1.955 4.003,1.173 L 8.952,11.78 C 9.733,10.999 8.56,8.559 7.778,7.778 L 0,0 Z"
                 inkscape:connector-curvature="0" />
            </g>
            <g
               transform="translate(28.5264,32.7974)"
               id="g44">
              <path
                 id="path46"
                 style="fill:#226699;fill-opacity:1;fill-rule:nonzero;stroke:none"
                 d="m 0,0 4.271,-4.271 c 0.365,0.883 0.53,1.817 0.099,2.249 L 2.249,0.099 C 1.818,0.529 0.883,0.364 0,0"
                 inkscape:connector-curvature="0" />
            </g>
            <g
               transform="translate(32.5918,32.2671)"
               id="g48">
              <path
                 id="path48"
                 style="fill:#be1931;fill-opacity:1;fill-rule:nonzero;stroke:none"
                 d="M 0,0 C -0.196,-0.196 -1.145,0.437 -2.121,1.414 -3.098,2.39 -3.731,3.34 -3.535,3.535 -3.34,3.73 -2.391,3.097 -1.414,2.121 -0.437,1.145 0.195,0.195 0,0"
                 inkscape:connector-curvature="0" />
            </g>
            <g
               transform="translate(35.8232,29.0347)"
               id="g52">
              <path
                 id="path54"
                 style="fill:#be1931;fill-opacity:1;fill-rule:nonzero;stroke:none"
                 d="M 0,0 C -0.195,-0.195 -1.145,0.438 -2.121,1.414 -3.098,2.391 -3.731,3.34 -3.535,3.536 -3.34,3.731 -2.391,3.098 -1.414,2.121 -0.437,1.145 0.195,0.195 0,0"
                 inkscape:connector-curvature="0" />
            </g>
            <g
               transform="translate(24.5166,25.8921)"
               id="g56">
              <path
                 id="path58"
                 style="fill:#66757f;fill-opacity:1;fill-rule:nonzero;stroke:none"
                 d="M 0,0 1.375,-1.375 C 1.953,-1.953 2.489,-2.463 2.66,-3.121 l 0.061,0.061 c 0.944,0.945 0.944,2.477 0,3.422 L 1.738,1.344 c -0.944,0.945 -2.476,0.945 -3.422,0 l -0.06,-0.06 C -1.087,1.113 -0.577,0.577 0,0"
                 inkscape:connector-curvature="0" />
            </g>
            <g
               transform="translate(21.8311,29.6099)"
               id="g60">
              <path
                 id="path62"
                 style="fill:#292f33;fill-opacity:1;fill-rule:nonzero;stroke:none"
                 d="m 0,0 c -0.34,-0.34 -0.893,-0.34 -1.233,0 l -0.18,0.181 c -0.341,0.34 -0.341,0.893 -10e-4,1.233 l 1.596,1.595 c 0.339,0.341 0.892,0.341 1.233,0 l 0.18,-0.18 C 1.936,2.488 1.936,1.936 1.596,1.595 L 0,0 Z"
                 inkscape:connector-curvature="0" />
            </g>
            <g
               transform="translate(30.9902,20.3838)"
               id="g64">
              <path
                 id="path66"
                 style="fill:#292f33;fill-opacity:1;fill-rule:nonzero;stroke:none"
                 d="m 0,0 c -0.322,-0.322 -0.844,-0.322 -1.166,0 l -0.248,0.248 c -0.322,0.322 -0.322,0.844 0,1.166 l 1.662,1.663 c 0.322,0.321 0.844,0.321 1.166,0 L 1.662,2.828 c 0.322,-0.322 0.322,-0.844 0,-1.166 L 0,0 Z"
                 inkscape:connector-curvature="0" />
            </g>
            <g
               transform="translate(3.8652,8.7979)"
               id="g68">
              <path
                 id="path70"
                 style="fill:#ea596e;fill-opacity:1;fill-rule:nonzero;stroke:none"
                 d="m 0,0 -0.716,0.716 -1.423,1.423 c -0.385,0.385 -1.011,0.385 -1.397,0 L -3.553,2.122 c -0.385,-0.387 -0.385,-1.012 0,-1.397 l 1.423,-1.423 0.715,-0.716 0.699,-0.698 0.699,0.698 L 0,-1.397 0.698,-0.698 0,0 Z"
                 inkscape:connector-curvature="0" />
            </g>
            <g
               transform="translate(10.9277,1.7354)"
               id="g72">
              <path
                 id="path74"
                 style="fill:#ea596e;fill-opacity:1;fill-rule:nonzero;stroke:none"
                 d="m 0,0 -1.44,1.44 -0.682,0.681 -0.707,0.707 -1.414,-1.414 0.707,-0.707 0.681,-0.681 1.44,-1.44 c 0.392,-0.391 1.024,-0.391 1.415,0 0.391,0.391 0.391,1.023 0,1.414"
                 inkscape:connector-curvature="0" />
            </g>
            <g
               transform="translate(7.1191,6.5254)"
               id="g76">
              <path
                 id="path78"
                 style="fill:#be1931;fill-opacity:1;fill-rule:nonzero;stroke:none"
                 d="m 0,0 c -2.047,-2.047 -3.84,-3.573 -4.003,-3.409 -0.164,0.163 1.362,1.956 3.409,4.003 2.048,2.048 3.84,3.574 4.004,3.41 C 3.574,3.84 2.047,2.048 0,0"
                 inkscape:connector-curvature="0" />
            </g>
            <g
               transform="translate(35.1318,12.8271)"
               id="g80">
              <path
                 id="path82"
                 style="fill:#be1931;fill-opacity:1;fill-rule:nonzero;stroke:none"
                 d="m 0,0 -22.329,22.328 c -0.781,0.781 -2.047,0.781 -2.829,0 l -2.535,-2.95 8.226,-10.64 5.9,-5.899 L -2.95,-5.365 0,-2.828 C 0.781,-2.049 0.781,-0.781 0,0"
                 inkscape:connector-curvature="0" />
            </g>
            <g
               transform="translate(16.5249,25.5103)"
               id="g84">
              <path
                 id="path86"
                 style="fill:#ea596e;fill-opacity:1;fill-rule:nonzero;stroke:none"
                 d="M 0,0 -7.981,7.981 -9.086,6.695 -2.205,-2.205 0,0 Z"
                 inkscape:connector-curvature="0" />
            </g>
            <g
               transform="translate(33.4678,8.5674)"
               id="g88">
              <path
                 id="path90"
                 style="fill:#ea596e;fill-opacity:1;fill-rule:nonzero;stroke:none"
                 d="M 0,0 -8.457,8.458 -10.726,6.189 -1.286,-1.105 0,0 Z"
                 inkscape:connector-curvature="0" />
            </g>
          </g>
        </g>
      </g>
    </g>
    <g
       transform="matrix(-0.21661276,0.59513866,-0.59513866,-0.21661276,141.92061,23.839998)"
       id="g49">
      <g
         transform="matrix(1.25,0,0,-1.25,0,47.5)"
         id="g51">
        <g
           id="g53">
          <g
             clip-path="url(#clipPath16)"
             id="g55">
            <g
               transform="translate(19,32.0005)"
               id="g57">
              <path
                 id="path59"
                 style="fill:#f18f26;fill-opacity:1;fill-rule:nonzero;stroke:none"
                 d="m 0,0 6,0 c 7,0 11,-7.887 11,-16 0,-15.001 -9,-15 -17,-15 -8,0 -17,0 -17,15 0,9.958 6,16 11,16 l 6,0"
                 inkscape:connector-curvature="0" />
            </g>
            <g
               transform="translate(27.9717,12.6289)"
               id="g61">
              <path
                 id="path63"
                 style="fill:#642116;fill-opacity:1;fill-rule:nonzero;stroke:none"
                 d="m 0,0 c -0.035,-0.669 -0.352,-1.405 -0.972,-2.129 -1.605,-1.873 -3.386,-1.481 -4.039,0.82 -1.224,-0.194 -2.549,-0.32 -3.961,-0.32 -7,0 -12,3 -12,3 0,-2.673 1.015,-4.438 2.465,-5.624 0.148,0.32 0.345,0.634 0.635,0.924 1.485,1.485 3.105,0.675 3.601,-1.8 0.077,-0.389 0.099,-0.733 0.096,-1.057 2.052,-0.44 4.062,-0.443 5.203,-0.443 3,0 12,0 12,8 C 3.028,1.371 1.907,0.704 0,0"
                 inkscape:connector-curvature="0" />
            </g>
            <g
               transform="translate(21.873,31.7642)"
               id="g65">
              <path
                 id="path67"
                 style="fill:#3f7123;fill-opacity:1;fill-rule:nonzero;stroke:none"
                 d="m 0,0 c 0.069,-0.42 -0.222,-0.764 -0.647,-0.764 l -4.452,0 c -0.425,0 -0.717,0.344 -0.647,0.764 L -5,4.472 c 0.07,0.42 0.476,0.764 0.901,0.764 l 2.452,0 c 0.425,0 0.832,-0.344 0.901,-0.764 L 0,0 Z"
                 inkscape:connector-curvature="0" />
            </g>
            <g
               transform="translate(17,31)"
               id="g69">
              <path
                 id="path71"
                 style="fill:#5c913b;fill-opacity:1;fill-rule:nonzero;stroke:none"
                 d="m 0,0 c 0,0 2,5 8,5 5,0 7,-5 7,-5 L 0,0 Z"
                 inkscape:connector-curvature="0" />
            </g>
            <g
               transform="translate(9.6914,25.8911)"
               id="g73">
              <path
                 id="path75"
                 style="fill:#642116;fill-opacity:1;fill-rule:nonzero;stroke:none"
                 d="M 0,0 C 0.793,1.479 2.093,1.479 2.887,-0.001 L 5.05,-4.034 C 5.845,-5.513 4.744,-6.723 2.604,-6.723 l -2.324,0 c -2.139,0 -3.239,1.21 -2.446,2.689 L 0,0 Z"
                 inkscape:connector-curvature="0" />
            </g>
            <g
               transform="translate(25.4229,25.8911)"
               id="g77">
              <path
                 id="path79"
                 style="fill:#642116;fill-opacity:1;fill-rule:nonzero;stroke:none"
                 d="M 0,0 C 0.794,1.479 2.093,1.479 2.887,-0.001 L 5.051,-4.034 C 5.845,-5.513 4.744,-6.723 2.604,-6.723 l -2.324,0 c -2.138,0 -3.239,1.21 -2.445,2.689 L 0,0 Z"
                 inkscape:connector-curvature="0" />
            </g>
            <g
               transform="translate(20.1982,14.0381)"
               id="g81">
              <path
                 id="path83"
                 style="fill:#642116;fill-opacity:1;fill-rule:nonzero;stroke:none"
                 d="m 0,0 c -0.586,-1.091 -1.544,-1.091 -2.131,0 l -1.597,2.977 c -0.586,1.092 0.226,1.985 1.805,1.985 l 1.715,0 c 1.58,0 2.393,-0.893 1.806,-1.985 L 0,0 Z"
                 inkscape:connector-curvature="0" />
            </g>
          </g>
        </g>
      </g>
    </g>
    <g
       transform="matrix(0.10242208,0.83416088,-0.83416088,0.10242208,165.59782,72.973115)"
       id="g85">
      <g
         transform="matrix(1.25,0,0,-1.25,0,47.5)"
         id="g87">
        <g
           transform="translate(7,14)"
           id="g89">
          <path
             id="path91"
             style="fill:#ccd6dd;fill-opacity:1;fill-rule:nonzero;stroke:none"
             d="m 0,0 -5,3 2,-6 -1,-2 6,-5 7,-2 3,11 -12,1 z"
             inkscape:connector-curvature="0" />
        </g>
        <g
           transform="translate(32,14)"
           id="g16">
          <path
             id="path94"
             style="fill:#ccd6dd;fill-opacity:1;fill-rule:nonzero;stroke:none"
             d="m 0,0 5,3 -2,-6 1,-2 -6,-5 -7,-2 -3,11 12,1 z"
             inkscape:connector-curvature="0" />
        </g>
        <g
           id="g94">
          <g
             clip-path="url(#clipPath24)"
             id="g22">
            <g
               transform="translate(12,30)"
               id="g97">
              <path
                 id="path99"
                 style="fill:#66757f;fill-opacity:1;fill-rule:nonzero;stroke:none"
                 d="M 0,0 C 0,-3.866 -3.032,-7 -6.771,-7 -10.51,-7 -7.899,7 -7.899,7 -7.899,7 0,3.866 0,0"
                 inkscape:connector-curvature="0" />
            </g>
            <g
               transform="translate(25,7)"
               id="g101">
              <path
                 id="path103"
                 style="fill:#66757f;fill-opacity:1;fill-rule:nonzero;stroke:none"
                 d="m 0,0 c 0,-3.313 -2.687,-6 -6,-6 -3.313,0 -6,2.687 -6,6 0,3.313 2.687,6 6,6 3.313,0 6,-2.687 6,-6"
                 inkscape:connector-curvature="0" />
            </g>
            <g
               transform="translate(23,7)"
               id="g105">
              <path
                 id="path107"
                 style="fill:#dd2e44;fill-opacity:1;fill-rule:nonzero;stroke:none"
                 d="m 0,0 c 0,-2.209 -1.791,-4 -4,-4 -2.209,0 -4,1.791 -4,4 0,2.209 1.791,4 4,4 2.209,0 4,-1.791 4,-4"
                 inkscape:connector-curvature="0" />
            </g>
            <g
               transform="translate(32.7705,23)"
               id="g109">
              <path
                 id="path111"
                 style="fill:#66757f;fill-opacity:1;fill-rule:nonzero;stroke:none"
                 d="m 0,0 c -3.739,0 -6.771,3.134 -6.771,7 0,3.866 7.9,7 7.9,7 C 1.129,14 3.739,0 0,0"
                 inkscape:connector-curvature="0" />
            </g>
            <g
               transform="translate(10,29)"
               id="g113">
              <path
                 id="path115"
                 style="fill:#e6aaaa;fill-opacity:1;fill-rule:nonzero;stroke:none"
                 d="m 0,0 c 0,-2.209 -1.791,-4 -4,-4 -2.209,0 0,8 0,8 0,0 4,-1.791 4,-4"
                 inkscape:connector-curvature="0" />
            </g>
            <g
               transform="translate(32,25)"
               id="g117">
              <path
                 id="path119"
                 style="fill:#e6aaaa;fill-opacity:1;fill-rule:nonzero;stroke:none"
                 d="M 0,0 C -2.209,0 -4,1.791 -4,4 -4,6.209 0,8 0,8 0,8 2.209,0 0,0"
                 inkscape:connector-curvature="0" />
            </g>
            <g
               transform="translate(35,15)"
               id="g121">
              <path
                 id="path123"
                 style="fill:#66757f;fill-opacity:1;fill-rule:nonzero;stroke:none"
                 d="m 0,0 c 0,-7 -6.923,-7 -6.923,-7 l -18.154,0 c 0,0 -6.923,0 -6.923,7 0,0 1.231,19 16,19 C -1.23,19 0,0 0,0"
                 inkscape:connector-curvature="0" />
            </g>
            <g
               transform="translate(12,20)"
               id="g125">
              <path
                 id="path127"
                 style="fill:#272b2b;fill-opacity:1;fill-rule:nonzero;stroke:none"
                 d="M 0,0 C 0,0 0,2 2,2 4,2 4,0 4,0 l 0,-2 c 0,0 0,-2 -2,-2 -2,0 -2,2 -2,2 l 0,2 z"
                 inkscape:connector-curvature="0" />
            </g>
            <g
               transform="translate(22,20)"
               id="g129">
              <path
                 id="path131"
                 style="fill:#272b2b;fill-opacity:1;fill-rule:nonzero;stroke:none"
                 d="M 0,0 C 0,0 0,2 2,2 4,2 4,0 4,0 l 0,-2 c 0,0 0,-2 -2,-2 -2,0 -2,2 -2,2 l 0,2 z"
                 inkscape:connector-curvature="0" />
            </g>
            <g
               transform="translate(33.7148,12.8379)"
               id="g133">
              <path
                 id="path135"
                 style="fill:#ccd6dd;fill-opacity:1;fill-rule:nonzero;stroke:none"
                 d="M 0,0 1.229,3.162 -1.399,0.496 c -0.388,0.1 -0.823,0.191 -1.316,0.27 l 0,4.396 -2.518,-4.121 c -1.101,0.076 -2.351,0.121 -3.804,0.121 -3.483,0 -1.003,-4.451 -5.762,-4.949 -4.759,0.498 -2.28,4.949 -5.762,4.949 -1.38,0 -2.582,-0.04 -3.643,-0.108 l -2.511,4.108 0,-4.366 c -0.509,-0.077 -0.947,-0.169 -1.348,-0.267 l -2.596,2.633 1.203,-3.093 c -1.689,-0.778 -1.502,-1.864 -0.427,-2.907 5.999,-5.818 9,-6 9.322,-6 2.46,0 4.603,0.998 5.762,2.481 1.159,-1.483 3.303,-2.481 5.762,-2.481 0.322,0 3.323,0.182 9.322,6 C 1.329,-1.825 1.532,-0.772 0,0"
                 inkscape:connector-curvature="0" />
            </g>
            <g
               transform="translate(16,12)"
               id="g137">
              <path
                 id="path139"
                 style="fill:#272b2b;fill-opacity:1;fill-rule:nonzero;stroke:none"
                 d="M 0,0 C -1,-1 0,-4 3,-4 6,-4 7,-1 6,0 5,1 1,1 0,0"
                 inkscape:connector-curvature="0" />
            </g>
          </g>
        </g>
      </g>
    </g>
    <g
       transform="matrix(0.65479411,-0.17545155,0.17545155,0.65479411,32.034854,118.50106)"
       id="g141">
      <g
         transform="matrix(1.25,0,0,-1.25,0,47.5)"
         id="g143">
        <g
           id="g145">
          <g
             clip-path="url(#clipPath16)"
             id="g147">
            <g
               transform="translate(1,33)"
               id="g149">
              <path
                 id="path151"
                 style="fill:#88c9f9;fill-opacity:1;fill-rule:nonzero;stroke:none"
                 d="m 0,0 c 0,0 0,4 4,4 l 28,0 c 0,0 4,0 4,-4 l 0,-28 c 0,0 0,-4 -4,-4 l -28,0 c 0,0 -4,0 -4,4 L 0,0 Z"
                 inkscape:connector-curvature="0" />
            </g>
          </g>
        </g>
        <g
           id="g153">
          <g
             clip-path="url(#clipPath28)"
             id="g26">
            <g
               transform="translate(1,1)"
               id="g156">
              <path
                 id="path158"
                 style="fill:#ed1c24;fill-opacity:1;fill-rule:nonzero;stroke:none"
                 d="M 0,0 C 0,19.882 16.118,36 36,36 55.882,36 72,19.882 72,0 72,-19.882 55.882,-36 36,-36 16.118,-36 0,-19.882 0,0"
                 inkscape:connector-curvature="0" />
            </g>
            <g
               transform="translate(4.0415,1)"
               id="g160">
              <path
                 id="path162"
                 style="fill:#f4900c;fill-opacity:1;fill-rule:nonzero;stroke:none"
                 d="M 0,0 C 0,18.203 14.756,32.958 32.958,32.958 51.161,32.958 65.917,18.203 65.917,0 65.917,-18.202 51.161,-32.959 32.958,-32.959 14.756,-32.959 0,-18.202 0,0"
                 inkscape:connector-curvature="0" />
            </g>
            <g
               transform="translate(7.0415,1)"
               id="g164">
              <path
                 id="path166"
                 style="fill:#ffcc4d;fill-opacity:1;fill-rule:nonzero;stroke:none"
                 d="M 0,0 C 0,16.546 13.413,29.958 29.958,29.958 46.503,29.958 59.917,16.546 59.917,0 59.917,-16.545 46.503,-29.959 29.958,-29.959 13.413,-29.959 0,-16.545 0,0"
                 inkscape:connector-curvature="0" />
            </g>
            <g
               transform="translate(10.0415,1)"
               id="g168">
              <path
                 id="path170"
                 style="fill:#5c913b;fill-opacity:1;fill-rule:nonzero;stroke:none"
                 d="M 0,0 C 0,14.889 12.07,26.958 26.958,26.958 41.846,26.958 53.917,14.889 53.917,0 53.917,-14.888 41.846,-26.959 26.958,-26.959 12.07,-26.959 0,-14.888 0,0"
                 inkscape:connector-curvature="0" />
            </g>
            <g
               transform="translate(13.0415,1)"
               id="g172">
              <path
                 id="path174"
                 style="fill:#226699;fill-opacity:1;fill-rule:nonzero;stroke:none"
                 d="M 0,0 C 0,13.231 10.727,23.958 23.958,23.958 37.19,23.958 47.917,13.231 47.917,0 47.917,-13.231 37.19,-23.959 23.958,-23.959 10.727,-23.959 0,-13.231 0,0"
                 inkscape:connector-curvature="0" />
            </g>
            <g
               transform="translate(16.0415,1)"
               id="g176">
              <path
                 id="path178"
                 style="fill:#9266cc;fill-opacity:1;fill-rule:nonzero;stroke:none"
                 d="m 0,0 c 0,11.574 9.384,20.958 20.958,20.958 11.575,0 20.959,-9.384 20.959,-20.958 0,-11.574 -9.384,-20.959 -20.959,-20.959 C 9.384,-20.959 0,-11.574 0,0"
                 inkscape:connector-curvature="0" />
            </g>
            <g
               transform="translate(19.0415,1)"
               id="g180">
              <path
                 id="path182"
                 style="fill:#88c9f9;fill-opacity:1;fill-rule:nonzero;stroke:none"
                 d="m 0,0 c 0,9.917 8.042,17.958 17.958,17.958 9.918,0 17.959,-8.041 17.959,-17.958 0,-9.918 -8.041,-17.959 -17.959,-17.959 C 8.042,-17.959 0,-9.918 0,0"
                 inkscape:connector-curvature="0" />
            </g>
          </g>
        </g>
      </g>
    </g>
    <g
       transform="translate(14.0 69.0) rotate(4 15 15) scale(0.8666666666666667)"
       id="g184">
      <g
         transform="matrix(1.25,0,0,-1.25,0,45)"
         id="g186">
        <g
           id="g188">
          <g
             clip-path="url(#clipPath16)"
             id="g190">
            <g
               transform="translate(13.5,12.5109)"
               id="g192">
              <path
                 id="path194"
                 style="fill:#662113;fill-opacity:1;fill-rule:nonzero;stroke:none"
                 d="M 0,0 C 0,0 -1.103,-1.377 -0.737,-3.268 -0.512,-4.433 0.577,-5.635 2.038,-5.86 2.526,-5.936 2.764,-6.888 2.629,-7.588 2.476,-8.38 1.93,-9.49 1.63,-10.053 1.329,-10.617 0.74,-10.615 0.015,-11.266 -0.49,-11.72 -0.662,-12.511 0.202,-12.511 l 3.821,0 c 0.766,0 1.255,0.469 1.418,1.241 0.226,1.071 1.094,5.148 0.846,5.936 C 6.11,-4.77 5.51,-4.32 5.123,-3.231 4.836,-2.423 5.5,-0.263 5.5,-0.263 L 0,0 Z" />
            </g>
            <g
               transform="translate(2.5397,13.1182)"
               id="g196">
              <path
                 id="path198"
                 style="fill:#662113;fill-opacity:1;fill-rule:nonzero;stroke:none"
                 d="m 0,0 c 0,0 0.797,0.724 1.344,0.937 0.547,0.214 2.554,0.058 3.065,0.165 0.511,0.106 1.363,0.97 1.363,0.97 0,0 2.144,-0.835 2.166,-1.04 0.023,-0.206 -1.439,-1.618 -1.76,-1.987 -0.321,-0.368 -2.316,0.537 -2.91,0.537 -0.594,0 -1.842,-0.534 -2.282,-0.783 -0.439,-0.249 -0.51,0.131 -0.261,0.404 0,0 -0.401,-0.49 -0.539,-0.31 -0.138,0.18 0.231,0.572 0.231,0.572 0,0 -0.345,-0.439 -0.535,-0.297 C -0.308,-0.689 -0.312,-0.376 0,0" />
            </g>
            <g
               transform="translate(14.4155,29.3028)"
               id="g200">
              <path
                 id="path202"
                 style="fill:#662113;fill-opacity:1;fill-rule:nonzero;stroke:none"
                 d="m 0,0 c -0.233,-0.62 -0.831,-1.637 0.355,-1.72 1.185,-0.083 0.021,-1.248 -1.031,-1.323 -1.052,-0.075 -4.471,1.39 -4.095,2.254 0.376,0.864 1.88,1.803 3.044,1.578 C -0.563,0.563 0,0 0,0" />
            </g>
            <g
               transform="translate(20.8125,30.5469)"
               id="g204">
              <path
                 id="path206"
                 style="fill:#f4900c;fill-opacity:1;fill-rule:nonzero;stroke:none"
                 d="m 0,0 c -0.078,-0.578 -0.234,-1 -0.344,-0.984 -0.109,0.015 -0.375,1.062 -0.375,1.062 0,0 -0.203,-1.156 -0.343,-1.14 C -1.203,-1.047 -1.344,0 -1.344,0 c 0,0 -0.234,-1.063 -0.39,-1.063 C -1.891,-1.062 -2.094,0 -2.094,0 c 0,0 -0.17,-1.052 -0.295,-1.067 -0.125,-0.016 -0.502,0.959 -0.502,0.959 0,0 -0.218,-0.986 -0.328,-0.986 -0.109,0 -0.422,0.986 -0.422,0.986 0,0 -0.187,-0.97 -0.281,-0.97 -0.094,0 -0.437,0.97 -0.437,0.97 0,0 -0.139,-1.04 -0.235,-1.064 -0.256,-0.062 -0.72,0.891 -0.72,0.891 0,0 0.218,-1.061 0.08,-1.079 -0.235,-0.032 -0.985,0.735 -0.985,0.735 0,0 0.953,0.953 1.719,1.109 0.766,0.157 4.016,0.782 4.391,0.641 C 0.266,0.984 0,0 0,0" />
            </g>
            <g
               transform="translate(20.1757,27.8055)"
               id="g208">
              <path
                 id="path210"
                 style="fill:#f4900c;fill-opacity:1;fill-rule:nonzero;stroke:none"
                 d="M 0,0 C -0.137,0.567 -0.336,0.97 -0.444,0.944 -0.551,0.917 -0.575,-0.06 -0.575,-0.06 c 0,0 -0.453,1.037 -0.592,1.007 -0.138,-0.03 -0.061,-1.074 -0.061,-1.074 0,0 -0.452,1.021 -0.607,1.005 C -1.99,0.862 -1.927,-0.2 -1.927,-0.2 c 0,0 -0.522,1.093 -0.648,1.095 -0.126,0.003 -0.141,-1.067 -0.141,-1.067 0,0 -0.387,1.013 -0.496,1.001 -0.109,-0.011 -0.231,-1.108 -0.231,-1.108 0,0 -0.289,0.976 -0.383,0.966 -0.093,-0.01 -0.256,-1.016 -0.256,-1.016 0,0 -0.294,0.865 -0.39,0.886 -0.097,0.021 -0.221,-0.903 -0.221,-0.903 0,0 -0.289,0.683 -0.42,0.732 -0.131,0.049 -0.216,-0.879 -0.216,-0.879 0,0 0.125,-0.377 0.903,-0.453 0.778,-0.077 4.075,-0.363 4.433,-0.184 C 0.366,-0.952 0,0 0,0" />
            </g>
            <g
               transform="translate(11.0346,28.5139)"
               id="g212">
              <path
                 id="path214"
                 style="fill:#ab7e59;fill-opacity:1;fill-rule:nonzero;stroke:none"
                 d="M 0,0 C 0.114,0.683 2.141,-0.338 2.554,-0.225 2.968,-0.113 4.62,1.54 5.071,1.578 5.522,1.615 9.542,1.69 9.992,1.916 10.443,2.141 10.18,3.907 9.767,4.395 9.354,4.884 7.889,5.973 6.161,6.161 4.433,6.349 3.231,6.386 2.667,6.687 2.104,6.987 0.864,7.1 0,6.687 -0.864,6.273 -3.944,5.785 -5.222,4.508 -6.499,3.231 -7.964,1.54 -8.302,-1.202 c -0.338,-2.742 0.516,-4.573 1.052,-5.582 0.393,-0.742 1.502,-3.509 1.765,-4.598 0.263,-1.09 1.846,-4.978 4.934,-5.88 3.089,-0.901 5.359,-2.648 8.177,-3.099 3.208,-0.513 9.091,0.188 12.096,2.067 3.005,1.878 4.47,3.794 4.47,6.31 0,2.517 -1.615,5.26 -3.869,5.335 -2.254,0.075 -0.789,-0.676 -0.113,-0.827 0.676,-0.15 1.991,-1.765 1.691,-3.193 -0.301,-1.427 -0.902,-2.517 -2.517,-2.554 -1.615,-0.038 -3.306,1.765 -4.208,2.968 -0.901,1.202 -4.958,3.339 -6.874,3.454 -1.916,0.114 -5.898,0.114 -6.386,1.316 -0.489,1.202 -0.376,1.804 -0.038,1.954 0.338,0.15 2.217,0.563 3.531,0.601 1.315,0.037 3.644,0.375 3.945,0.826 0.3,0.451 0.225,1.39 -0.113,1.428 -0.338,0.037 -2.442,-0.188 -3.043,-0.188 -0.601,0 -0.939,0.488 -1.578,0.301 C 3.982,-0.751 2.817,-1.465 2.329,-1.39 1.841,-1.315 -0.038,-0.225 0,0" />
            </g>
            <g
               transform="translate(26.9516,9.7475)"
               id="g216">
              <path
                 id="path218"
                 style="fill:#8b5e3c;fill-opacity:1;fill-rule:nonzero;stroke:none"
                 d="m 0,0 c -2.693,-0.388 -7.846,0.466 -9.358,0.982 -1.512,0.516 -4.615,1.318 -6.801,1.781 -2.186,0.464 -3.884,2.299 -5.084,4.099 0.519,-1.484 2.069,-4.567 4.775,-5.357 3.089,-0.902 5.359,-2.648 8.177,-3.099 C -5.083,-2.107 0.8,-1.406 3.805,0.472 4.896,1.154 5.777,1.841 6.465,2.559 5.518,1.851 2.68,0.386 0,0" />
            </g>
            <g
               transform="translate(12.8164,34.4318)"
               id="g220">
              <path
                 id="path222"
                 style="fill:#8b5e3c;fill-opacity:1;fill-rule:nonzero;stroke:none"
                 d="m 0,0 c 1.336,-0.208 0.203,-0.909 2.683,-0.904 0,0 -1.873,-1 -2.624,-1 -1.297,0 -1.568,0.644 -1.567,1.182 C -1.508,-0.238 -0.7,0.109 0,0" />
            </g>
            <g
               transform="translate(13,33.5)"
               id="g224">
              <path
                 id="path226"
                 style="fill:#292f33;fill-opacity:1;fill-rule:nonzero;stroke:none"
                 d="M 0,0 C 0,-0.276 -0.224,-0.5 -0.5,-0.5 -0.776,-0.5 -1,-0.276 -1,0 -1,0.276 -0.776,0.5 -0.5,0.5 -0.224,0.5 0,0.276 0,0" />
            </g>
            <g
               transform="translate(17.1319,11.2337)"
               id="g228">
              <path
                 id="path230"
                 style="fill:#ab7e59;fill-opacity:1;fill-rule:nonzero;stroke:none"
                 d="M 0,0 C 0,0 0.424,-1.503 1.796,-2.855 3.168,-4.207 5.917,-4.508 6.406,-4.583 6.894,-4.658 7.423,-4.846 7.648,-5.522 7.874,-6.198 8.299,-8.213 7.998,-8.776 7.697,-9.34 6.45,-9.654 6.111,-10.293 5.921,-10.65 5.428,-11.234 6.292,-11.234 l 4.576,0 c 0.766,0 0.954,0.603 0.954,1.392 0,0.789 0.263,2.066 -0.226,3.456 -0.488,1.39 -0.676,3.493 -1.502,3.719 -0.827,0.225 -2.142,2.479 -2.142,2.479 L 0,0 Z" />
            </g>
            <g
               transform="translate(4.3548,9.2523)"
               id="g232">
              <path
                 id="path234"
                 style="fill:#ab7e59;fill-opacity:1;fill-rule:nonzero;stroke:none"
                 d="m 0,0 c 0,0 0.559,0.996 1.037,1.395 0.478,0.398 2.55,0.916 3.028,1.195 0.478,0.279 1.046,1.434 1.046,1.434 0,0 2.437,-0.119 2.528,-0.319 C 7.731,3.506 6.735,1.594 6.536,1.116 6.336,0.637 4.025,0.876 3.428,0.677 2.83,0.478 1.754,-0.478 1.396,-0.877 1.037,-1.275 0.838,-0.916 0.997,-0.558 c 0,0 -0.239,-0.628 -0.438,-0.493 -0.199,0.135 0.04,0.653 0.04,0.653 0,0 -0.199,-0.558 -0.438,-0.479 C -0.078,-0.797 -0.188,-0.483 0,0" />
            </g>
            <g
               transform="translate(15.7104,20.337)"
               id="g236">
              <path
                 id="path238"
                 style="fill:#8b5e3c;fill-opacity:1;fill-rule:nonzero;stroke:none"
                 d="m 0,0 c 0,-0.318 -0.258,-0.576 -0.576,-0.576 -0.318,0 -0.576,0.258 -0.576,0.576 0,0.318 0.258,0.576 0.576,0.576 C -0.258,0.576 0,0.318 0,0" />
            </g>
            <g
               transform="translate(18.7712,19.0734)"
               id="g240">
              <path
                 id="path242"
                 style="fill:#8b5e3c;fill-opacity:1;fill-rule:nonzero;stroke:none"
                 d="m 0,0 c 0,-0.453 -0.367,-0.82 -0.82,-0.82 -0.452,0 -0.819,0.367 -0.819,0.82 0,0.453 0.367,0.82 0.819,0.82 C -0.367,0.82 0,0.453 0,0" />
            </g>
            <g
               transform="translate(17.1319,20.7451)"
               id="g244">
              <path
                 id="path246"
                 style="fill:#8b5e3c;fill-opacity:1;fill-rule:nonzero;stroke:none"
                 d="m 0,0 c 0,-0.241 -0.195,-0.436 -0.436,-0.436 -0.241,0 -0.436,0.195 -0.436,0.436 0,0.241 0.195,0.436 0.436,0.436 C -0.195,0.436 0,0.241 0,0" />
            </g>
            <g
               transform="translate(20.0868,20.5054)"
               id="g248">
              <path
                 id="path250"
                 style="fill:#8b5e3c;fill-opacity:1;fill-rule:nonzero;stroke:none"
                 d="m 0,0 c 0,-0.228 -0.185,-0.412 -0.412,-0.412 -0.228,0 -0.413,0.184 -0.413,0.412 0,0.228 0.185,0.412 0.413,0.412 C -0.185,0.412 0,0.228 0,0" />
            </g>
            <g
               transform="translate(22.6996,19.3307)"
               id="g252">
              <path
                 id="path254"
                 style="fill:#8b5e3c;fill-opacity:1;fill-rule:nonzero;stroke:none"
                 d="m 0,0 c 0,-0.421 -0.341,-0.762 -0.762,-0.762 -0.421,0 -0.763,0.341 -0.763,0.762 0,0.421 0.342,0.762 0.763,0.762 C -0.341,0.762 0,0.421 0,0" />
            </g>
            <g
               transform="translate(25.5952,15.6776)"
               id="g256">
              <path
                 id="path258"
                 style="fill:#8b5e3c;fill-opacity:1;fill-rule:nonzero;stroke:none"
                 d="m 0,0 c 0,-0.27 -0.218,-0.488 -0.488,-0.488 -0.269,0 -0.488,0.218 -0.488,0.488 0,0.27 0.219,0.488 0.488,0.488 C -0.218,0.488 0,0.27 0,0" />
            </g>
            <g
               transform="translate(21.0626,17.7658)"
               id="g260">
              <path
                 id="path262"
                 style="fill:#8b5e3c;fill-opacity:1;fill-rule:nonzero;stroke:none"
                 d="m 0,0 c 0,-0.27 -0.218,-0.488 -0.488,-0.488 -0.269,0 -0.488,0.218 -0.488,0.488 0,0.269 0.219,0.488 0.488,0.488 C -0.218,0.488 0,0.269 0,0" />
            </g>
            <g
               transform="translate(25.4781,17.7658)"
               id="g92">
              <path
                 id="path183"
                 style="fill:#8b5e3c;fill-opacity:1;fill-rule:nonzero;stroke:none"
                 d="m 0,0 c 0,-0.27 -0.218,-0.488 -0.488,-0.488 -0.269,0 -0.488,0.218 -0.488,0.488 0,0.269 0.219,0.488 0.488,0.488 C -0.218,0.488 0,0.269 0,0" />
            </g>
            <g
               transform="translate(23.9852,18.0195)"
               id="g96">
              <path
                 id="path98"
                 style="fill:#8b5e3c;fill-opacity:1;fill-rule:nonzero;stroke:none"
                 d="m 0,0 c 0,-0.399 -0.323,-0.722 -0.722,-0.722 -0.399,0 -0.722,0.323 -0.722,0.722 0,0.399 0.323,0.722 0.722,0.722 C -0.323,0.722 0,0.399 0,0" />
            </g>
          </g>
        </g>
      </g>
    </g>
    <g
       transform="matrix(0.73462787,0.23869506,-0.23869506,0.73462787,88.882235,101.99977)"
       id="g268">
      <g
         transform="matrix(1.25,0,0,-1.25,0,45)"
         id="g270">
        <g
           id="g272">
          <g
             clip-path="url(#clipPath16)"
             id="g274">
            <g
               transform="translate(26,8)"
               id="g276">
              <path
                 id="path278"
                 style="fill:#4289c1;fill-opacity:1;fill-rule:nonzero;stroke:none"
                 d="m 0,0 -16,0 c -2.484,0 -4.615,-1.51 -5.527,-3.661 C -21.893,-3.258 -22.416,-3 -23,-3 c -1.1,0 -2,-0.9 -2,-2 l 0,-3 31,0 0,2 C 6,-2.687 3.313,0 0,0"
                 inkscape:connector-curvature="0" />
            </g>
            <g
               transform="translate(14,9)"
               id="g280">
              <path
                 id="path282"
                 style="fill:#2a6797;fill-opacity:1;fill-rule:nonzero;stroke:none"
                 d="M 0,0 8,0 C 8,0 9,-9 4,-9 -1,-9 0,0 0,0"
                 inkscape:connector-curvature="0" />
            </g>
            <g
               transform="translate(33,16.9756)"
               id="g284">
              <path
                 id="path286"
                 style="fill:#292f33;fill-opacity:1;fill-rule:nonzero;stroke:none"
                 d="m 0,0 c 0,-1.949 -6.716,-3.529 -15,-3.529 -8.284,0 -15,1.58 -15,3.529 0,1.949 6.716,3.529 15,3.529 8.284,0 15,-1.58 15,-3.529"
                 inkscape:connector-curvature="0" />
            </g>
            <g
               transform="translate(26.3395,18.4366)"
               id="g288">
              <path
                 id="path290"
                 style="fill:#ffdc5d;fill-opacity:1;fill-rule:nonzero;stroke:none"
                 d="m 0,0 c -0.809,3.6 -4.235,8.65 -8.339,8.65 -4.105,0 -7.531,-5.05 -8.34,-8.65 -0.836,-0.048 -1.494,-0.52 -1.494,-1.889 0,-1.448 0.734,-2.622 1.639,-2.622 0.015,0 0.028,0.006 0.043,0.007 1.064,-4.376 4.31,-8.013 8.152,-8.013 3.842,0 7.088,3.637 8.151,8.013 0.015,-0.001 0.028,-0.007 0.043,-0.007 0.905,0 1.639,1.174 1.639,2.622 C 1.494,-0.52 0.836,-0.048 0,0"
                 inkscape:connector-curvature="0" />
            </g>
            <g
               transform="translate(14,15.2914)"
               id="g292">
              <path
                 id="path294"
                 style="fill:#662113;fill-opacity:1;fill-rule:nonzero;stroke:none"
                 d="m 0,0 0,0 c -0.55,0 -1,0.45 -1,1 l 0,1 c 0,0.55 0.45,1 1,1 L 0,3 C 0.55,3 1,2.55 1,2 L 1,1 C 1,0.45 0.55,0 0,0"
                 inkscape:connector-curvature="0" />
            </g>
            <g
               transform="translate(22,15.2914)"
               id="g296">
              <path
                 id="path298"
                 style="fill:#662113;fill-opacity:1;fill-rule:nonzero;stroke:none"
                 d="m 0,0 0,0 c -0.55,0 -1,0.45 -1,1 l 0,1 c 0,0.55 0.45,1 1,1 L 0,3 C 0.55,3 1,2.55 1,2 L 1,1 C 1,0.45 0.55,0 0,0"
                 inkscape:connector-curvature="0" />
            </g>
            <g
               transform="translate(18.75,14.1758)"
               id="g300">
              <path
                 id="path302"
                 style="fill:#c1694f;fill-opacity:1;fill-rule:nonzero;stroke:none"
                 d="m 0,0 -1.5,0 c -0.413,0 -0.75,0.337 -0.75,0.75 l 0,0 c 0,0.412 0.337,0.75 0.75,0.75 l 1.5,0 c 0.413,0 0.75,-0.338 0.75,-0.75 l 0,0 C 0.75,0.337 0.413,0 0,0"
                 inkscape:connector-curvature="0" />
            </g>
            <g
               transform="translate(20.1667,10.9674)"
               id="g304">
              <path
                 id="path306"
                 style="fill:#c1694f;fill-opacity:1;fill-rule:nonzero;stroke:none"
                 d="m 0,0 -4.333,0 c -0.413,0 -0.75,0.338 -0.75,0.75 l 0,0.331 c 0,0.412 0.337,0.75 0.75,0.75 l 4.333,0 c 0.413,0 0.75,-0.338 0.75,-0.75 l 0,-0.331 C 0.75,0.338 0.413,0 0,0"
                 inkscape:connector-curvature="0" />
            </g>
            <g
               transform="translate(20.6667,10.1295)"
               id="g308">
              <path
                 id="path310"
                 style="fill:#e6e7e8;fill-opacity:1;fill-rule:nonzero;stroke:none"
                 d="m 0,0 c -1.885,1.289 -2.667,0.911 -2.667,0.911 0,0 -0.781,0.378 -2.666,-0.911 -1.013,-0.692 -2.025,0.192 -2.745,1.057 0.748,0.276 1.684,0.623 2.675,0.819 1.83,-0.03 2.534,0.225 2.7,0.599 C -2.536,2.111 -1.828,1.877 -0.002,1.869 1.011,1.668 1.968,1.309 2.724,1.032 2.005,0.175 1.002,-0.685 0,0 M 5.757,8.024 C 5.95,8.116 6.105,8.248 6.206,8.423 6.621,9.141 5.987,10.282 4.791,10.972 3.596,11.663 2.291,11.641 1.876,10.923 1.462,10.206 2.096,9.065 3.291,8.374 3.81,8.075 4.345,7.918 4.823,7.885 4.531,7.361 4.333,6.412 4.333,5.317 4.333,4.254 4.519,3.326 4.796,2.793 4.388,2.809 3.843,2.397 3.506,2.029 2.797,2.768 1.665,3.578 0.386,3.831 -1.666,4.237 -2.515,3.445 -2.702,2.898 -2.884,3.445 -3.731,4.246 -5.792,3.838 -7.051,3.589 -8.166,2.8 -8.877,2.071 c -0.339,0.356 -0.86,0.737 -1.253,0.722 0.278,0.533 0.463,1.461 0.463,2.524 0,1.101 -0.2,2.053 -0.494,2.575 0.566,-0.064 1.274,0.091 1.952,0.482 1.196,0.691 1.83,1.832 1.415,2.549 -0.414,0.718 -1.719,0.74 -2.915,0.049 -1.195,-0.69 -1.829,-1.831 -1.415,-2.549 0.051,-0.087 0.115,-0.162 0.189,-0.229 -0.421,-0.353 -0.732,-1.501 -0.732,-2.877 0,-1.657 0.448,-3 1,-3 0.02,0 0.039,0.014 0.059,0.018 C -10.644,2.199 -10.667,2.033 -10.667,1.823 -10.667,0 -10,0 -10,0 c -0.667,-1.823 0.667,-3.66 0.667,-3.66 0,-2.735 2,-2.735 2,-2.735 0,-2.735 2.666,-1.823 2.666,-1.823 0.667,-0.912 2,-0.912 2,-0.912 0,0 1.334,0 2,0.912 0,0 2.667,-0.912 2.667,1.823 0,0 2,0 2,2.735 0,0 1.333,1.837 0.667,3.66 0,0 0.666,0 0.666,1.823 0,0.21 -0.022,0.376 -0.058,0.512 0.019,-0.004 0.038,-0.018 0.058,-0.018 0.553,0 1,1.343 1,3 0,1.2 -0.236,2.227 -0.576,2.707"
                 inkscape:connector-curvature="0" />
            </g>
            <g
               transform="translate(25.7654,20.8431)"
               id="g312">
              <path
                 id="path314"
                 style="fill:#4289c1;fill-opacity:1;fill-rule:nonzero;stroke:none"
                 d="m 0,0 c -1.228,2.686 -6.972,15.157 -7.765,15.157 -0.794,0 -6.538,-12.471 -7.766,-15.157 -4.819,-0.844 -7.234,-2.438 -7.234,-3.843 6,2 11,2.443 15,2.443 4,0 9,-0.443 15,-2.443 C 7.235,-2.438 4.819,-0.844 0,0"
                 inkscape:connector-curvature="0" />
            </g>
            <g
               transform="translate(5,0)"
               id="g316">
              <path
                 id="path318"
                 style="fill:#d99e82;fill-opacity:1;fill-rule:nonzero;stroke:none"
                 d="M 0,0 -2,0 -2,24.138 -3,28 1,28 0,24.138 0,0 Z"
                 inkscape:connector-curvature="0" />
            </g>
            <g
               transform="translate(7,30)"
               id="g320">
              <path
                 id="path322"
                 style="fill:#55acee;fill-opacity:1;fill-rule:nonzero;stroke:none"
                 d="m 0,0 c 0,-1.657 -1.343,-3 -3,-3 -1.657,0 -3,1.343 -3,3 0,1.657 1.343,3 3,3 1.657,0 3,-1.343 3,-3"
                 inkscape:connector-curvature="0" />
            </g>
            <g
               transform="translate(5,30.5)"
               id="g324">
              <path
                 id="path326"
                 style="fill:#b0f0ff;fill-opacity:1;fill-rule:nonzero;stroke:none"
                 d="M 0,0 C 0,-0.828 -0.672,-1.5 -1.5,-1.5 -2.328,-1.5 -3,-0.828 -3,0 -3,0.828 -2.328,1.5 -1.5,1.5 -0.672,1.5 0,0.828 0,0"
                 inkscape:connector-curvature="0" />
            </g>
            <g
               transform="translate(7,5.5)"
               id="g328">
              <path
                 id="path330"
                 style="fill:#ffdc5d;fill-opacity:1;fill-rule:nonzero;stroke:none"
                 d="m 0,0 c 0,-1.933 -1.343,-3.5 -3,-3.5 -1.657,0 -3,1.567 -3,3.5 0,1.933 1.343,2.5 3,2.5 1.657,0 3,-0.567 3,-2.5"
                 inkscape:connector-curvature="0" />
            </g>
          </g>
        </g>
      </g>
    </g>
    <g
       transform="matrix(0.78785756,0.16746429,-0.16746429,0.78785756,58.31689,67.80596)"
       id="g332">
      <g
         transform="matrix(1.25,0,0,-1.25,0,47.5)"
         id="g334">
        <g
           id="g336">
          <g
             clip-path="url(#clipPath16)"
             id="g338">
            <g
               transform="translate(23.0879,4.1699)"
               id="g340">
              <path
                 id="path342"
                 style="fill:#662113;fill-opacity:1;fill-rule:nonzero;stroke:none"
                 d="m 0,0 c 0,-1.997 -1.619,-2.712 -3.616,-2.712 -1.997,0 -3.616,0.715 -3.616,2.712 l 0.904,8.136 c 0,1.996 0.715,1.807 2.712,1.807 1.997,0 2.712,0.189 2.712,-1.807 L 0,0 Z"
                 inkscape:connector-curvature="0" />
            </g>
            <g
               transform="translate(31.5898,9.3252)"
               id="g344">
              <path
                 id="path346"
                 style="fill:#5c913b;fill-opacity:1;fill-rule:nonzero;stroke:none"
                 d="m 0,0 c -6.294,5.392 -8.843,13.112 -12.118,13.112 -3.276,0 -5.824,-7.72 -12.118,-13.112 -2.644,-2.266 -1.385,-3.577 2.241,-3.314 3.232,0.232 6.255,0.965 9.877,0.965 3.622,0 6.645,-0.733 9.876,-0.965 C 1.385,-3.577 2.645,-2.266 0,0"
                 inkscape:connector-curvature="0" />
            </g>
            <g
               transform="translate(29.5459,11.4619)"
               id="g348">
              <path
                 id="path350"
                 style="fill:#3e721d;fill-opacity:1;fill-rule:nonzero;stroke:none"
                 d="m 0,0 c -4.837,4.435 -7.555,10.787 -10.074,10.787 -2.517,0 -5.237,-6.352 -10.073,-10.787 -3.844,-3.524 5.037,-4.315 10.073,0 C -5.04,-4.315 3.843,-3.524 0,0"
                 inkscape:connector-curvature="0" />
            </g>
            <g
               transform="translate(29.5459,15.0547)"
               id="g352">
              <path
                 id="path354"
                 style="fill:#5c913b;fill-opacity:1;fill-rule:nonzero;stroke:none"
                 d="m 0,0 c -4.837,4.144 -7.555,10.077 -10.074,10.077 -2.517,0 -5.237,-5.933 -10.073,-10.077 -3.844,-3.292 5.037,-4.031 10.073,0 C -5.04,-4.031 3.843,-3.292 0,0"
                 inkscape:connector-curvature="0" />
            </g>
            <g
               transform="translate(27.3359,17.9971)"
               id="g356">
              <path
                 id="path358"
                 style="fill:#3e721d;fill-opacity:1;fill-rule:nonzero;stroke:none"
                 d="m 0,0 c -3.775,3.235 -5.897,7.868 -7.864,7.868 -1.966,0 -4.089,-4.633 -7.865,-7.868 -3,-2.57 3.933,-3.146 7.865,0 C -3.934,-3.146 3.001,-2.57 0,0"
                 inkscape:connector-curvature="0" />
            </g>
            <g
               transform="translate(27.3359,20.689)"
               id="g360">
              <path
                 id="path362"
                 style="fill:#5c913b;fill-opacity:1;fill-rule:nonzero;stroke:none"
                 d="m 0,0 c -3.775,3.235 -5.897,7.867 -7.864,7.867 -1.966,0 -4.089,-4.632 -7.865,-7.867 -3,-2.571 3.933,-3.147 7.865,0 C -3.934,-3.147 3.001,-2.571 0,0"
                 inkscape:connector-curvature="0" />
            </g>
            <g
               transform="translate(25.8184,23.0796)"
               id="g364">
              <path
                 id="path366"
                 style="fill:#3e721d;fill-opacity:1;fill-rule:nonzero;stroke:none"
                 d="M 0,0 C -3.047,2.61 -4.76,6.349 -6.347,6.349 -7.933,6.349 -9.646,2.61 -12.694,0 -15.116,-2.075 -9.52,-2.54 -6.347,0 -3.174,-2.54 2.423,-2.075 0,0"
                 inkscape:connector-curvature="0" />
            </g>
            <g
               transform="translate(25.8184,25.106)"
               id="g368">
              <path
                 id="path370"
                 style="fill:#5c913b;fill-opacity:1;fill-rule:nonzero;stroke:none"
                 d="M 0,0 C -3.047,2.61 -4.76,6.349 -6.347,6.349 -7.933,6.349 -9.646,2.61 -12.694,0 -15.116,-2.075 -9.52,-2.54 -6.347,0 -3.174,-2.54 2.423,-2.075 0,0"
                 inkscape:connector-curvature="0" />
            </g>
            <g
               transform="translate(24.3008,28.0889)"
               id="g372">
              <path
                 id="path374"
                 style="fill:#3e721d;fill-opacity:1;fill-rule:nonzero;stroke:none"
                 d="M 0,0 C -2.317,1.986 -3.621,4.831 -4.829,4.831 -6.036,4.831 -7.34,1.986 -9.659,0 -11.501,-1.579 -7.244,-1.933 -4.829,0 -2.415,-1.933 1.844,-1.579 0,0"
                 inkscape:connector-curvature="0" />
            </g>
            <g
               transform="translate(24.3008,29.1685)"
               id="g376">
              <path
                 id="path378"
                 style="fill:#5c913b;fill-opacity:1;fill-rule:nonzero;stroke:none"
                 d="M 0,0 C -2.317,1.986 -3.621,4.832 -4.829,4.832 -6.036,4.832 -7.34,1.986 -9.659,0 -11.501,-1.579 -7.244,-1.933 -4.829,0 -2.415,-1.933 1.844,-1.579 0,0"
                 inkscape:connector-curvature="0" />
            </g>
            <g
               transform="translate(19,24.958)"
               id="g380">
              <path
                 id="path382"
                 style="fill:#ffcc4d;fill-opacity:1;fill-rule:nonzero;stroke:none"
                 d="M 0,0 C 0,-0.829 -0.671,-1.5 -1.5,-1.5 -2.329,-1.5 -3,-0.829 -3,0 -3,0.829 -2.329,1.5 -1.5,1.5 -0.671,1.5 0,0.829 0,0"
                 inkscape:connector-curvature="0" />
            </g>
            <g
               transform="translate(23,12)"
               id="g384">
              <path
                 id="path386"
                 style="fill:#ffcc4d;fill-opacity:1;fill-rule:nonzero;stroke:none"
                 d="m 0,0 c 0,-1.104 -0.896,-2 -2,-2 -1.104,0 -2,0.896 -2,2 0,1.104 0.896,2 2,2 1.104,0 2,-0.896 2,-2"
                 inkscape:connector-curvature="0" />
            </g>
            <g
               transform="translate(26,21.5)"
               id="g388">
              <path
                 id="path390"
                 style="fill:#dd2e44;fill-opacity:1;fill-rule:nonzero;stroke:none"
                 d="M 0,0 C 0,-1.381 -1.12,-2.5 -2.5,-2.5 -3.88,-2.5 -5,-1.381 -5,0 -5,1.381 -3.88,2.5 -2.5,2.5 -1.12,2.5 0,1.381 0,0"
                 inkscape:connector-curvature="0" />
            </g>
            <g
               transform="translate(13,11)"
               id="g392">
              <path
                 id="path394"
                 style="fill:#dd2e44;fill-opacity:1;fill-rule:nonzero;stroke:none"
                 d="m 0,0 c 0,-1.104 -0.896,-2 -2,-2 -1.104,0 -2,0.896 -2,2 0,1.104 0.896,2 2,2 1.104,0 2,-0.896 2,-2"
                 inkscape:connector-curvature="0" />
            </g>
            <g
               transform="translate(17,18)"
               id="g396">
              <path
                 id="path398"
                 style="fill:#a6d388;fill-opacity:1;fill-rule:nonzero;stroke:none"
                 d="m 0,0 c 0,-1.104 -0.896,-2 -2,-2 -1.104,0 -2,0.896 -2,2 0,1.104 0.896,2 2,2 1.104,0 2,-0.896 2,-2"
                 inkscape:connector-curvature="0" />
            </g>
            <g
               transform="translate(29,14)"
               id="g400">
              <path
                 id="path402"
                 style="fill:#a6d388;fill-opacity:1;fill-rule:nonzero;stroke:none"
                 d="m 0,0 c 0,-1.104 -0.896,-2 -2,-2 -1.104,0 -2,0.896 -2,2 0,1.104 0.896,2 2,2 1.104,0 2,-0.896 2,-2"
                 inkscape:connector-curvature="0" />
            </g>
            <g
               transform="translate(20.3789,35.3213)"
               id="g404">
              <path
                 id="path406"
                 style="fill:#ffac33;fill-opacity:1;fill-rule:nonzero;stroke:none"
                 d="M 0,0 C 0.143,-0.275 0.512,-0.549 0.817,-0.609 L 2.196,-0.878 C 2.501,-0.937 2.573,-1.168 2.355,-1.39 L 1.372,-2.395 C 1.155,-2.617 1.007,-3.051 1.046,-3.36 l 0.17,-1.394 C 1.254,-5.062 1.057,-5.202 0.777,-5.064 l -1.256,0.625 c -0.28,0.138 -0.739,0.144 -1.021,0.012 l -1.273,-0.594 c -0.283,-0.13 -0.476,0.014 -0.431,0.322 l 0.205,1.39 c 0.046,0.307 -0.09,0.745 -0.302,0.973 l -0.958,1.028 c -0.212,0.227 -0.135,0.457 0.172,0.509 l 1.385,0.234 c 0.307,0.051 0.681,0.316 0.832,0.588 l 0.682,1.229 c 0.151,0.272 0.393,0.269 0.537,-0.006 L 0,0 Z"
                 inkscape:connector-curvature="0" />
            </g>
          </g>
        </g>
      </g>
    </g>
    <g
       transform="matrix(-0.37481752,0.59983342,-0.59983342,-0.37481752,116.60309,155.2732)"
       id="g408">
      <g
         transform="matrix(1.25,0,0,-1.25,0,47.5)"
         id="g410">
        <g
           id="g412">
          <g
             clip-path="url(#clipPath16)"
             id="g414">
            <g
               transform="translate(19,5)"
               id="g416">
              <path
                 id="path418"
                 style="fill:#9aaab4;fill-opacity:1;fill-rule:nonzero;stroke:none"
                 d="m 0,0 c -4.418,0 -8,3.582 -8,8 0,4.418 3.582,8 8,8 C 4.418,16 8,12.418 8,8 8,3.582 4.418,0 0,0 M 0,20 C -6.627,20 -12,14.627 -12,8 -12,1.373 -6.627,-4 0,-4 6.627,-4 12,1.373 12,8 12,14.627 6.627,20 0,20"
                 inkscape:connector-curvature="0" />
            </g>
            <g
               transform="translate(30,32)"
               id="g420">
              <path
                 id="path422"
                 style="fill:#5dadec;fill-opacity:1;fill-rule:nonzero;stroke:none"
                 d="m 0,0 -4,5 -7,0 -7,0 -4,-5 11,-9 11,9 z"
                 inkscape:connector-curvature="0" />
            </g>
            <g
               transform="translate(30,32)"
               id="g424">
              <path
                 id="path426"
                 style="fill:#8ccaf7;fill-opacity:1;fill-rule:nonzero;stroke:none"
                 d="m 0,0 -4,5 -7,0 -7,0 -4,-5 11,0 11,0 z"
                 inkscape:connector-curvature="0" />
            </g>
            <g
               transform="translate(30,32)"
               id="g428">
              <path
                 id="path430"
                 style="fill:#5dadec;fill-opacity:1;fill-rule:nonzero;stroke:none"
                 d="m 0,0 -4,5 -6,0 -1,0 0,-5 1,0 10,0 z"
                 inkscape:connector-curvature="0" />
            </g>
            <g
               transform="translate(19,32)"
               id="g432">
              <path
                 id="path434"
                 style="fill:#8ccaf7;fill-opacity:1;fill-rule:nonzero;stroke:none"
                 d="M 0,0 11,0 0,-9 0,0 Z"
                 inkscape:connector-curvature="0" />
            </g>
            <g
               transform="translate(26,24)"
               id="g436">
              <path
                 id="path438"
                 style="fill:#9aaab4;fill-opacity:1;fill-rule:nonzero;stroke:none"
                 d="m 0,0 c 0,-1.657 -1.343,-3 -3,-3 l -8,0 c -1.657,0 -3,1.343 -3,3 0,1.657 1.343,3 3,3 l 8,0 C -1.343,3 0,1.657 0,0"
                 inkscape:connector-curvature="0" />
            </g>
          </g>
        </g>
      </g>
    </g>
    <g
       transform="matrix(-0.09942702,0.80976814,-0.80976814,-0.09942702,128.85182,61.686827)"
       id="g440">
      <g
         transform="matrix(1.25,0,0,-1.25,0,45)"
         id="g442">
        <g
           id="g444">
          <g
             clip-path="url(#clipPath16)"
             id="g446">
            <g
               transform="translate(21.2793,31.7202)"
               id="g448">
              <path
                 id="path450"
                 style="fill:#c1694f;fill-opacity:1;fill-rule:nonzero;stroke:none"
                 d="m 0,0 c -8.999,0 -10.5,-1.5 -13,-4 -2.5,-2.5 -4,-4 -4,-13 0,-11.18 -2,-14 -1,-14 1,0 3,2 3,4 0,2 -1.999,13 5.001,20 L -10,-7 c 7,7 18,5 20,5 2,0 4,2 4,3 C 14,2 11.181,0 0,0"
                 inkscape:connector-curvature="0" />
            </g>
            <g
               transform="translate(29.5,6.2207)"
               id="g452">
              <path
                 id="path454"
                 style="fill:#d99e82;fill-opacity:1;fill-rule:nonzero;stroke:none"
                 d="m 0,0 c 0,-0.276 -0.224,-0.5 -0.5,-0.5 l -25.22,0 c -0.277,0 -0.5,0.224 -0.5,0.5 0,0.276 0.223,0.5 0.5,0.5 l 25.22,0 C -0.224,0.5 0,0.276 0,0"
                 inkscape:connector-curvature="0" />
            </g>
            <g
               transform="translate(29.7793,6.5)"
               id="g456">
              <path
                 id="path458"
                 style="fill:#d99e82;fill-opacity:1;fill-rule:nonzero;stroke:none"
                 d="m 0,0 c -0.277,0 -0.5,0.225 -0.5,0.5 l 0,25.221 c 0,0.277 0.223,0.5 0.5,0.5 0.275,0 0.5,-0.224 0.5,-0.5 L 0.5,0.5 C 0.5,0.225 0.275,0 0,0"
                 inkscape:connector-curvature="0" />
            </g>
            <g
               transform="translate(0,36)"
               id="g460">
              <path
                 id="path462"
                 style="fill:#99aab5;fill-opacity:1;fill-rule:nonzero;stroke:none"
                 d="M 0,0 2.793,-8.52 4.93,-4.955 8.45,-2.863 0,0 Z"
                 inkscape:connector-curvature="0" />
            </g>
            <g
               transform="translate(26.0869,8.6074)"
               id="g464">
              <path
                 id="path466"
                 style="fill:#dd2e44;fill-opacity:1;fill-rule:nonzero;stroke:none"
                 d="m 0,0 c 0.364,-1.896 0,-3.564 -0.812,-3.719 -0.814,-0.156 -1.77,1.256 -2.133,3.155 C -3.31,1.334 -2.946,3 -2.133,3.156 -1.319,3.313 -0.364,1.898 0,0"
                 inkscape:connector-curvature="0" />
            </g>
            <g
               transform="translate(26.5684,7.5352)"
               id="g468">
              <path
                 id="path470"
                 style="fill:#f4900c;fill-opacity:1;fill-rule:nonzero;stroke:none"
                 d="M 0,0 C 0.365,-1.898 0,-3.564 -0.812,-3.721 -1.626,-3.877 -2.581,-2.463 -2.944,-0.566 -3.31,1.334 -2.945,3 -2.133,3.154 -1.319,3.311 -0.363,1.898 0,0"
                 inkscape:connector-curvature="0" />
            </g>
            <g
               transform="translate(27.958,6.1465)"
               id="g472">
              <path
                 id="path474"
                 style="fill:#a0041e;fill-opacity:1;fill-rule:nonzero;stroke:none"
                 d="m 0,0 c 0.364,-1.898 0,-3.564 -0.812,-3.721 -0.814,-0.156 -1.77,1.256 -2.133,3.155 -0.365,1.898 0,3.564 0.812,3.72 C -1.319,3.311 -0.363,1.898 0,0"
                 inkscape:connector-curvature="0" />
            </g>
            <g
               transform="translate(29.3721,4.7324)"
               id="g476">
              <path
                 id="path478"
                 style="fill:#dd2e44;fill-opacity:1;fill-rule:nonzero;stroke:none"
                 d="m 0,0 c 0.365,-1.898 0,-3.566 -0.812,-3.721 -0.814,-0.156 -1.77,1.256 -2.133,3.155 -0.365,1.898 0,3.564 0.812,3.72 C -1.319,3.311 -0.363,1.896 0,0"
                 inkscape:connector-curvature="0" />
            </g>
            <g
               transform="translate(27.3926,9.9131)"
               id="g480">
              <path
                 id="path482"
                 style="fill:#dd2e44;fill-opacity:1;fill-rule:nonzero;stroke:none"
                 d="M 0,0 C 1.897,-0.364 3.564,0 3.719,0.812 3.875,1.626 2.463,2.582 0.564,2.945 -1.334,3.31 -3,2.946 -3.156,2.133 -3.313,1.319 -1.898,0.364 0,0"
                 inkscape:connector-curvature="0" />
            </g>
            <g
               transform="translate(28.4648,9.4316)"
               id="g484">
              <path
                 id="path486"
                 style="fill:#f4900c;fill-opacity:1;fill-rule:nonzero;stroke:none"
                 d="M 0,0 C 1.898,-0.365 3.564,0 3.721,0.812 3.877,1.626 2.463,2.581 0.566,2.944 -1.334,3.31 -3,2.945 -3.154,2.133 -3.311,1.319 -1.898,0.363 0,0"
                 inkscape:connector-curvature="0" />
            </g>
            <g
               transform="translate(29.8535,8.042)"
               id="g488">
              <path
                 id="path490"
                 style="fill:#a0041e;fill-opacity:1;fill-rule:nonzero;stroke:none"
                 d="M 0,0 C 1.898,-0.364 3.564,0 3.721,0.812 3.877,1.626 2.465,2.582 0.566,2.945 -1.332,3.31 -2.998,2.945 -3.154,2.133 -3.311,1.319 -1.898,0.363 0,0"
                 inkscape:connector-curvature="0" />
            </g>
            <g
               transform="translate(31.2676,6.6279)"
               id="g492">
              <path
                 id="path494"
                 style="fill:#dd2e44;fill-opacity:1;fill-rule:nonzero;stroke:none"
                 d="M 0,0 C 1.898,-0.365 3.566,0 3.721,0.812 3.877,1.626 2.465,2.582 0.566,2.945 -1.332,3.31 -2.998,2.945 -3.154,2.133 -3.311,1.319 -1.896,0.363 0,0"
                 inkscape:connector-curvature="0" />
            </g>
            <g
               transform="translate(30.3848,7)"
               id="g496">
              <path
                 id="path498"
                 style="fill:#ccd6dd;fill-opacity:1;fill-rule:nonzero;stroke:none"
                 d="m 0,0 c 0.382,-0.382 0.382,-1.002 0,-1.385 -0.383,-0.382 -1.003,-0.382 -1.385,0 L -26.249,23.48 c -0.382,0.382 -0.381,1.002 0,1.384 0.382,0.382 1.002,0.382 1.384,0 L 0,0 Z"
                 inkscape:connector-curvature="0" />
            </g>
          </g>
        </g>
      </g>
    </g>
    <g
       transform="matrix(-0.25783059,-0.48338697,0.48338697,-0.25783059,144.1529,72.912598)"
       id="g500">
      <g
         transform="matrix(1.25,0,0,-1.25,0,45)"
         id="g502">
        <g
           id="g504">
          <g
             clip-path="url(#clipPath16)"
             id="g506">
            <g
               transform="translate(12,28.3926)"
               id="g508">
              <path
                 id="path510"
                 style="fill:#ccd6dd;fill-opacity:1;fill-rule:nonzero;stroke:none"
                 d="m 0,0 -9,2.411 c -1.657,0.444 -3,-0.539 -3,-2.196 l 0,-20 c 0,-1.656 1.343,-3.36 3,-3.804 L 0,-26 0,0 Z"
                 inkscape:connector-curvature="0" />
            </g>
            <g
               transform="translate(24,5.6074)"
               id="g512">
              <path
                 id="path514"
                 style="fill:#ccd6dd;fill-opacity:1;fill-rule:nonzero;stroke:none"
                 d="m 0,0 9,-2.411 c 1.656,-0.444 3,0.54 3,2.196 l 0,20 c 0,1.657 -1.344,3.361 -3,3.804 L 0,26 0,0 Z"
                 inkscape:connector-curvature="0" />
            </g>
            <g
               transform="translate(24,5.6084)"
               id="g516">
              <path
                 id="path518"
                 style="fill:#e1e8ed;fill-opacity:1;fill-rule:nonzero;stroke:none"
                 d="m 0,0 -12,-3.216 0,26 L 0,26 0,0 Z"
                 inkscape:connector-curvature="0" />
            </g>
            <g
               transform="translate(12,26.3931)"
               id="g520">
              <path
                 id="path522"
                 style="fill:#55acee;fill-opacity:1;fill-rule:nonzero;stroke:none"
                 d="m 0,0 -8,2.144 c -1.104,0.295 -2,-0.36 -2,-1.464 l 0,-18.001 c 0,-1.103 0.896,-2.24 2,-2.535 L 0,-22 0,0 Z"
                 inkscape:connector-curvature="0" />
            </g>
            <g
               transform="translate(32,27.4648)"
               id="g524">
              <path
                 id="path526"
                 style="fill:#55acee;fill-opacity:1;fill-rule:nonzero;stroke:none"
                 d="m 0,0 -8,2.144 0,-22 L 0,-22 c 1.105,-0.296 2,0.359 2,1.465 l 0,18 C 2,-1.432 1.105,-0.296 0,0"
                 inkscape:connector-curvature="0" />
            </g>
            <g
               transform="translate(24,7.6084)"
               id="g528">
              <path
                 id="path530"
                 style="fill:#88c9f9;fill-opacity:1;fill-rule:nonzero;stroke:none"
                 d="m 0,0 -12,-3.216 0,22 L 0,22 0,0 Z"
                 inkscape:connector-curvature="0" />
            </g>
            <g
               transform="translate(12,14.4941)"
               id="g532">
              <path
                 id="path534"
                 style="fill:#5c913b;fill-opacity:1;fill-rule:nonzero;stroke:none"
                 d="m 0,0 c -0.268,-0.006 -0.595,-0.104 -0.845,-0.145 -0.436,-0.073 -0.329,-0.516 -0.463,-0.443 -0.135,0.074 -0.475,0.265 -0.812,0.658 -0.337,0.395 0.25,0.478 0.418,0.622 0.168,0.145 -0.317,0.172 -0.486,0.333 -0.169,0.159 -0.47,-0.104 -0.739,0.276 -0.269,0.376 -0.101,0.79 -0.133,1.179 -0.034,0.39 0.436,0.341 0.739,0.334 0.302,-0.002 0.537,-0.143 0.537,-0.602 0,-0.456 0.37,-0.708 0.27,-0.146 -0.101,0.561 0.1,0.658 0.235,0.89 0.134,0.23 0.37,0.55 0.673,1.04 C -0.385,4.354 -0.217,4.279 0,4.16 L 0,7.505 C -0.055,7.549 -0.11,7.595 -0.165,7.618 -0.468,7.75 -0.068,6.865 -0.303,6.509 -0.54,6.152 -0.901,6.316 -1.273,6.415 -1.642,6.514 -1.986,6.96 -1.716,7.422 c 0.268,0.462 0.782,0.267 1.051,0.653 0.27,0.385 -0.956,0.672 -1.394,0.942 -0.437,0.27 -0.962,0.409 -1.4,0.145 C -3.896,8.898 -4.832,9.029 -5.202,8.977 -5.571,8.923 -5.637,9.346 -5.705,9.67 c -0.066,0.322 -0.652,0.329 -1.257,0.338 -0.606,0.01 -1.741,-0.281 -1.547,-1.759 0.068,-0.514 0.605,-0.124 0.707,-0.036 0.1,0.088 0.605,-0.2 0.671,-0.637 0.068,-0.438 0.034,-0.887 -0.099,-1.232 -0.137,-0.345 0.336,-1.006 0.604,-1.612 0.269,-0.606 0.572,-0.687 0.706,-0.723 0.135,-0.036 0.908,-0.587 0.875,-0.996 -0.034,-0.411 0.706,-0.992 1.009,-1.34 0.303,-0.35 0.494,-0.662 0.887,-0.846 0.393,-0.182 0.852,-1.035 1.054,-1.165 0.155,-0.099 0.418,-0.451 0.576,-0.58 -0.208,-0.242 -0.612,-0.748 -0.612,-1.029 0,-0.383 0.441,-1.103 0.608,-1.3 0.168,-0.196 0.65,-0.442 0.751,-0.85 0.101,-0.407 -0.07,-1.646 -0.373,-1.907 -0.304,-0.262 -0.414,-1.043 -0.414,-1.043 0,0 0.107,-0.293 0.465,-0.124 0.309,0.144 0.777,0.567 1.094,0.801 L 0,0 Z"
                 inkscape:connector-curvature="0" />
            </g>
            <g
               transform="translate(24,20.2686)"
               id="g536">
              <path
                 id="path538"
                 style="fill:#77b255;fill-opacity:1;fill-rule:nonzero;stroke:none"
                 d="M 0,0 0,6.314 C -0.04,6.311 -0.068,6.303 -0.11,6.3 -0.319,6.289 -0.593,6.165 -0.89,5.98 -0.914,5.985 -0.936,5.996 -0.96,6.001 -1.855,6.176 -2.272,4.796 -2.999,4.849 c -0.73,0.052 -1.7,0.343 -2.332,-0.514 -0.631,-0.858 -0.776,-1.53 0,-1.295 0.777,0.236 1.312,1.426 1.7,1.089 0.388,-0.336 0.29,-0.72 -0.632,-1.105 C -5.185,2.639 -6.18,2.208 -6.714,2.064 -7.248,1.921 -7.37,1.53 -7.006,1.243 -6.642,0.955 -7.225,0.771 -7.831,0.223 c -0.607,-0.548 0.146,-0.512 0.656,-0.705 0.51,-0.193 0.898,0.323 1.117,0.932 0.217,0.609 1.158,1.522 1.55,1.544 0.392,0.023 0.392,-0.197 0.319,-0.602 -0.013,-0.072 0.001,-0.103 0.01,-0.139 -0.17,-0.54 -0.309,-1.029 -0.365,-1.306 -0.026,-0.134 -0.031,-0.35 -0.027,-0.595 -0.086,-0.003 -0.183,-0.021 -0.248,0 -0.438,0.128 -1.434,0.219 -1.701,-0.043 -0.267,-0.266 -0.412,-0.502 -0.728,-0.723 -0.316,-0.219 -1.603,-1.224 -1.626,-2.084 -0.025,-0.859 -0.049,-1.83 0.46,-1.721 0.51,0.11 1.749,0.826 2.137,1.288 0.387,0.463 0.921,0.523 1.092,0.156 0.169,-0.369 0.048,-0.649 -0.12,-1.354 -0.172,-0.708 0.11,-0.963 0.381,-1.468 0.274,-0.504 0.491,-0.775 0.491,-1.189 0,-0.412 0.389,-0.723 0.97,0.123 0.188,0.269 0.367,0.606 0.536,0.957 0.409,0.469 0.768,0.923 0.758,1.096 -0.016,0.281 -0.021,0.433 -0.024,0.624 0.033,0.082 0.064,0.157 0.091,0.219 0.126,0.293 0.241,0.746 0.362,1.156 0.007,0.009 0.013,0.016 0.019,0.024 0.238,0.337 0.185,0.353 0.58,0.756 0.264,0.269 0.254,0.512 0.214,0.678 0.106,0.174 0.134,0.28 -0.033,0.235 -0.005,-0.001 -0.012,-0.003 -0.016,-0.004 -0.001,0 -0.004,-0.019 -0.005,-0.014 -0.023,0.15 -0.206,-0.003 -0.501,-0.147 -0.285,-0.008 -0.567,0.065 -0.668,0.368 -0.133,0.396 -0.602,0.996 -0.639,1.336 0.003,0.041 0.005,0.077 0.01,0.124 0.013,0.036 0.033,0.066 0.069,0.088 0.038,0.022 0.075,0.03 0.112,0.035 0.041,-0.111 0.076,-0.28 0.086,-0.464 0.027,-0.477 0.395,-0.196 0.395,-0.498 0,-0.302 0.53,-0.492 0.661,-0.548 0.037,-0.015 0.094,0.028 0.159,0.098 0.031,-0.011 0.06,-0.033 0.093,-0.037 0.292,-0.031 0.922,0.984 1.117,1.164 0.102,0.095 0.105,0.269 0.033,0.394 C -0.035,-0.015 -0.019,-0.008 0,0 m -9.142,-7.239 c -0.437,0.074 -0.359,0.023 -0.628,0.598 -0.269,0.577 -0.432,0.743 -1.036,0.657 -0.606,-0.087 -0.584,-0.136 -0.751,0.163 -0.072,0.128 -0.241,0.082 -0.443,-0.032 l 0,-6.37 c 0.09,0.115 0.17,0.211 0.228,0.267 0.505,0.476 0.996,1.026 1.466,1.646 0.471,0.621 0.301,0.924 0.536,1.481 0.235,0.558 0.54,0.617 0.943,1.145 0.405,0.531 0.122,0.368 -0.315,0.445 m -2.59,5.557 c -0.1,-0.015 -0.187,-0.011 -0.268,-0.01 l 0,3.344 c 0.254,-0.064 0.512,-0.317 0.706,-0.735 0.234,-0.51 0.605,-0.067 0.739,-0.374 0.134,-0.308 0.875,-0.758 0.505,-0.742 -0.371,0.014 -0.74,-0.008 -0.841,-0.454 -0.102,-0.448 0.168,-0.795 -0.102,-0.829 -0.269,-0.033 -0.369,-0.142 -0.739,-0.2"
                 inkscape:connector-curvature="0" />
            </g>
            <g
               transform="translate(31.4072,12.2305)"
               id="g540">
              <path
                 id="path542"
                 style="fill:#5c913b;fill-opacity:1;fill-rule:nonzero;stroke:none"
                 d="M 0,0 C -0.133,0.338 -0.518,0.713 -0.675,0.91 -0.834,1.104 -1.082,1.223 -1.293,1.189 -1.505,1.158 -1.636,1.281 -1.741,1.551 -1.848,1.816 -2.031,1.783 -2.19,1.795 -2.348,1.807 -2.981,1.676 -3.352,1.564 -3.72,1.451 -3.889,1.312 -4.13,1.107 c -0.382,-0.32 -0.17,-0.105 0,-0.423 0.168,-0.319 -0.186,-1.067 -0.213,-1.543 -0.027,-0.477 0.676,-0.032 0.94,-0.039 0.263,-0.012 0.185,0.189 0.396,0.314 0.212,0.125 0.349,0.129 0.579,-0.172 0.234,-0.305 0.537,-0.611 0.537,-0.883 0,-0.269 0.834,-0.947 1.152,-0.851 0.316,0.097 0.501,0.408 0.791,0.635 0.291,0.224 0.185,0.824 0.264,1.168 C 0.396,-0.346 0.13,-0.336 0,0 m -2.403,2.578 c 0.261,-0.402 0.159,-0.043 0.504,0.016 0.342,0.058 -0.291,0.56 -0.502,0.799 -0.211,0.238 -0.42,0.3 -0.606,-0.049 C -3.216,2.945 -2.664,2.98 -2.403,2.578 M 0.685,1.146 C 0.554,1.363 0.264,1.531 -0.054,1.607 -0.369,1.684 -0.344,2.088 -0.66,2.141 -0.976,2.195 -1.204,2.529 -1.346,2.652 -1.657,2.918 -1.452,2.443 -1.346,1.953 -1.239,1.465 -0.845,1.707 -0.477,1.367 -0.107,1.027 -0.079,1.352 0.264,1.139 0.605,0.928 0.738,0.619 1.067,0.561 1.396,0.502 0.817,0.93 0.685,1.146 m -2.004,5.371 c 0.183,-0.08 0.975,-0.171 0.553,0.334 -0.422,0.506 -0.106,0.299 -0.052,0.738 0.052,0.44 -0.264,0.525 -0.264,0.525 0,-0.332 -0.211,-0.638 0,-1.027 0.21,-0.389 -0.423,-0.49 -0.237,-0.57 M -3.411,4.449 c 0.389,-0.166 0.114,0.482 0.244,0.841 0.132,0.357 0.316,0.369 0.555,0.364 0.236,-0.002 0.422,0.191 0.581,0.388 0.157,0.2 0.448,0.455 0.422,0.733 -0.027,0.279 -0.105,0.482 -0.212,0.843 -0.106,0.36 0.316,0.368 0.502,0.711 0.183,0.342 0,0 0.421,0.007 0.421,0.008 0.238,0.058 0.316,0.218 0.08,0.159 0.133,0.327 0.054,0.68 -0.078,0.353 -0.37,0.099 -0.66,0.177 -0.289,0.077 0.106,0.424 0.131,0.78 0.027,0.355 0.397,0.165 0.662,0.125 0.262,-0.039 0.341,-0.485 0.42,-0.597 0.082,-0.112 0.896,0.365 1.109,0.641 0.211,0.275 -0.186,0.291 -0.079,0.403 0.105,0.111 -0.632,0.337 -0.925,0.469 -0.289,0.133 -1.028,0.367 -1.318,0.649 -0.289,0.284 -1.397,0.426 -1.688,0.337 -0.291,-0.086 -0.476,0.143 -0.606,0.406 -0.131,0.262 -0.686,0.297 -0.844,0.467 -0.158,0.17 -0.316,-0.127 -0.529,-0.16 -0.21,-0.035 -0.29,-0.043 -0.554,0.209 -0.263,0.252 0.08,0.371 -0.288,0.621 -0.355,0.239 -0.813,0.184 -1.71,0.593 l 0,-6.314 c 0.157,-0.014 0.308,-0.037 0.364,-0.051 0.131,-0.035 0.448,-0.574 0.448,-0.784 0,-0.211 0.159,-0.829 0.291,-1.196 0.131,-0.366 0.42,-0.506 0.686,-0.818 0.264,-0.312 0.394,-0.137 0.394,-0.137 0,0 -0.105,0.544 -0.105,0.965 0,0.424 0.316,0.701 0.316,0.701 0,0 0.5,-0.557 0.529,-0.684 0.026,-0.128 0.421,-0.657 0.449,-0.876 0.025,-0.219 0.236,-0.547 0.624,-0.711 m -0.362,-0.9 C -3.826,3.109 -3.59,3.348 -3.167,2.844 -2.744,2.336 -3.271,2.449 -3.456,2.527 c -0.185,0.08 -0.37,0.131 -0.579,0.518 -0.213,0.391 0,0.695 0,1.027 0,0 0.315,-0.084 0.262,-0.523"
                 inkscape:connector-curvature="0" />
            </g>
          </g>
        </g>
      </g>
    </g>
    <g
       transform="matrix(0.58756679,-0.4758022,0.4758022,0.58756679,58.981975,35.124342)"
       id="g544">
      <g
         transform="matrix(1.25,0,0,-1.25,0,47.5)"
         id="g546">
        <g
           id="g548">
          <g
             clip-path="url(#clipPath16)"
             id="g550">
            <g
               transform="translate(36,19)"
               id="g552">
              <path
                 id="path554"
                 style="fill:#ffcc4d;fill-opacity:1;fill-rule:nonzero;stroke:none"
                 d="m 0,0 c 0,-9.389 -7.611,-17 -17,-17 -9.389,0 -17,7.611 -17,17 0,9.389 7.611,17 17,17 C -7.611,17 0,9.389 0,0"
                 inkscape:connector-curvature="0" />
            </g>
            <g
               transform="translate(2.2402,25.9824)"
               id="g556">
              <path
                 id="path558"
                 style="fill:#292f33;fill-opacity:1;fill-rule:evenodd;stroke:none"
                 d="m 0,0 c 0.24,-0.239 1.437,-0.958 1.677,-1.675 0.24,-0.717 0.72,-4.784 2.158,-5.981 1.484,-1.233 7.077,-0.774 8.149,-0.24 2.397,1.195 2.691,4.531 3.115,6.221 0.239,0.957 1.677,0.957 1.677,0.957 0,0 1.439,0 1.678,-0.956 0.424,-1.691 0.72,-5.027 3.115,-6.221 1.073,-0.535 6.666,-0.994 8.152,0.239 1.435,1.197 1.915,5.264 2.155,5.982 0.238,0.717 1.437,1.435 1.677,1.674 0.241,0.239 0.241,1.196 0,1.436 C 33.074,1.914 27.419,2.34 21.33,1.675 20.115,1.542 19.653,1.196 16.776,1.196 13.901,1.196 13.437,1.542 12.223,1.674 6.136,2.34 0.479,1.914 0,1.436 -0.239,1.196 -0.239,0.239 0,0"
                 inkscape:connector-curvature="0" />
            </g>
            <g
               transform="translate(28.335,13.3711)"
               id="g560">
              <path
                 id="path562"
                 style="fill:#664500;fill-opacity:1;fill-rule:nonzero;stroke:none"
                 d="m 0,0 c -0.178,0.161 -0.444,0.171 -0.635,0.029 -0.039,-0.029 -3.922,-2.9 -8.7,-2.9 -4.766,0 -8.662,2.871 -8.7,2.9 -0.191,0.142 -0.457,0.13 -0.635,-0.029 -0.177,-0.16 -0.217,-0.424 -0.094,-0.628 0.129,-0.215 3.217,-5.243 9.429,-5.243 6.212,0 9.301,5.028 9.429,5.243 C 0.217,-0.423 0.178,-0.16 0,0"
                 inkscape:connector-curvature="0" />
            </g>
          </g>
        </g>
      </g>
    </g>
    <g
       transform="matrix(-0.72259899,-0.16682512,0.16682512,-0.72259899,60.435589,82.072061)"
       id="g564">
      <g
         transform="matrix(1.25,0,0,-1.25,0,47.5)"
         id="g566">
        <g
           id="g568">
          <g
             clip-path="url(#clipPath16)"
             id="g570">
            <g
               transform="translate(21,17)"
               id="g572">
              <path
                 id="path574"
                 style="fill:#9aaab4;fill-opacity:1;fill-rule:nonzero;stroke:none"
                 d="m 0,0 c 0,-1.657 -1.343,-3 -3,-3 -1.657,0 -3,1.343 -3,3 0,1.657 1.343,3 3,3 1.657,0 3,-1.343 3,-3"
                 inkscape:connector-curvature="0" />
            </g>
            <g
               transform="translate(20.2354,19.9414)"
               id="g576">
              <path
                 id="path578"
                 style="fill:#da2f47;fill-opacity:1;fill-rule:nonzero;stroke:none"
                 d="m 0,0 c -0.259,-0.485 -0.868,-0.671 -1.353,-0.412 l -12.354,6.588 c -0.485,0.259 -0.67,0.867 -0.411,1.353 l 2.823,5.295 c 0.259,0.485 0.868,0.67 1.353,0.411 L 2.411,6.647 C 2.896,6.389 3.082,5.78 2.823,5.294 L 0,0 Z"
                 inkscape:connector-curvature="0" />
            </g>
            <g
               transform="translate(32.1768,14.707)"
               id="g580">
              <path
                 id="path582"
                 style="fill:#da2f47;fill-opacity:1;fill-rule:nonzero;stroke:none"
                 d="m 0,0 c -0.259,-0.485 -0.868,-0.671 -1.354,-0.412 l -9.705,5.176 c -0.485,0.258 -0.67,0.868 -0.412,1.353 l 1.882,3.529 c 0.259,0.485 0.868,0.67 1.354,0.412 L 1.47,4.882 C 1.955,4.623 2.141,4.014 1.882,3.528 L 0,0 Z"
                 inkscape:connector-curvature="0" />
            </g>
            <g
               transform="translate(22,19)"
               id="g584">
              <path
                 id="path586"
                 style="fill:#bb1a34;fill-opacity:1;fill-rule:nonzero;stroke:none"
                 d="M 0,0 -1.765,0.941 1.059,6.235 2.823,5.295 0,0 Z"
                 inkscape:connector-curvature="0" />
            </g>
            <g
               transform="translate(33.4707,12.8828)"
               id="g588">
              <path
                 id="path590"
                 style="fill:#9d0522;fill-opacity:1;fill-rule:nonzero;stroke:none"
                 d="M 0,0 -3.529,1.882 -0.706,7.177 2.823,5.294 0,0 Z"
                 inkscape:connector-curvature="0" />
            </g>
            <g
               transform="translate(9.2944,29.1763)"
               id="g592">
              <path
                 id="path594"
                 style="fill:#292f33;fill-opacity:1;fill-rule:nonzero;stroke:none"
                 d="M 0,0 1.882,3.53 1.001,4 C 1,4 1,4 1,4 L -3.412,6.353 C -3.897,6.612 -4.506,6.427 -4.765,5.941 L -7.588,0.646 c -0.259,-0.485 -0.074,-1.094 0.411,-1.353 l 3.529,-1.881 1.766,-0.942 0.47,0.882 c 0,0 0,0 0,0.001 L 0,0 Z"
                 inkscape:connector-curvature="0" />
            </g>
            <g
               transform="translate(24,12)"
               id="g596">
              <path
                 id="path598"
                 style="fill:#292f33;fill-opacity:1;fill-rule:nonzero;stroke:none"
                 d="m 0,0 c 0,-1.104 -0.896,-2 -2,-2 l -8,0 c -1.104,0 -2,0.896 -2,2 0,1.104 0.896,2 2,2 l 8,0 C -0.896,2 0,1.104 0,0"
                 inkscape:connector-curvature="0" />
            </g>
            <g
               transform="translate(10.4673,1)"
               id="g600">
              <path
                 id="path602"
                 style="fill:#9aaab4;fill-opacity:1;fill-rule:nonzero;stroke:none"
                 d="m 0,0 3.344,7.152 c 0.468,1 0.036,2.192 -0.965,2.659 -1,0.468 -2.191,0.037 -2.658,-0.965 L -4.416,0 0,0 Z"
                 inkscape:connector-curvature="0" />
            </g>
            <g
               transform="translate(25.5322,1)"
               id="g604">
              <path
                 id="path606"
                 style="fill:#9aaab4;fill-opacity:1;fill-rule:nonzero;stroke:none"
                 d="M 0,0 4.416,0 0.279,8.846 C -0.187,9.848 -1.379,10.279 -2.379,9.811 -3.38,9.344 -3.812,8.152 -3.344,7.152 L 0,0 Z"
                 inkscape:connector-curvature="0" />
            </g>
            <g
               transform="translate(20,1)"
               id="g608">
              <path
                 id="path610"
                 style="fill:#9aaab4;fill-opacity:1;fill-rule:nonzero;stroke:none"
                 d="m 0,0 0,8 c 0,1.104 -0.896,2 -2,2 -1.104,0 -2,-0.896 -2,-2 l 0,-8 4,0 z"
                 inkscape:connector-curvature="0" />
            </g>
          </g>
        </g>
      </g>
    </g>
  </g>
</svg>
