<?xml version="1.0" encoding="UTF-8" standalone="no"?>
<svg
   xmlns:dc="http://purl.org/dc/elements/1.1/"
   xmlns:cc="http://creativecommons.org/ns#"
   xmlns:rdf="http://www.w3.org/1999/02/22-rdf-syntax-ns#"
   xmlns:svg="http://www.w3.org/2000/svg"
   xmlns="http://www.w3.org/2000/svg"
   xmlns:sodipodi="http://sodipodi.sourceforge.net/DTD/sodipodi-0.dtd"
   xmlns:inkscape="http://www.inkscape.org/namespaces/inkscape"
   version="1.1"
   id="svg2"
   viewBox="0 0 200 200"
   height="200px"
   width="200px"
   inkscape:version="0.91 r13725"
   sodipodi:docname="27.svg">
  <metadata
     id="metadata612">
    <rdf:RDF>
      <cc:Work
         rdf:about="">
        <dc:format>image/svg+xml</dc:format>
        <dc:type
           rdf:resource="http://purl.org/dc/dcmitype/StillImage" />
      </cc:Work>
    </rdf:RDF>
  </metadata>
  <sodipodi:namedview
     pagecolor="#ffffff"
     bordercolor="#666666"
     borderopacity="1"
     objecttolerance="10"
     gridtolerance="10"
     guidetolerance="10"
     inkscape:pageopacity="0"
     inkscape:pageshadow="2"
     inkscape:window-width="1920"
     inkscape:window-height="1060"
     id="namedview610"
     showgrid="false"
     inkscape:zoom="3.337544"
     inkscape:cx="101.5752"
     inkscape:cy="106.18337"
     inkscape:window-x="0"
     inkscape:window-y="0"
     inkscape:window-maximized="1"
     inkscape:current-layer="layer1" />
  
    
    
    <defs id="defs6">

        <clipPath
           id="clipPath28"
           clipPathUnits="userSpaceOnUse">
          <path
             id="path30"
             d="M 4,36 C 0,36 0,32 0,32 L 0,32 0,4 C 0,0 4,0 4,0 l 0,0 28,0 c 4,0 4,4 4,4 l 0,0 0,28 c 0,4 -4,4 -4,4 l 0,0 -28,0 z" />
        </clipPath>


        <clipPath clipPathUnits="userSpaceOnUse" id="clipPath16-rugby">
            <path d="M 0,38 38,38 38,0 0,0 0,38 Z" id="path18"/>
        </clipPath>
        <clipPath clipPathUnits="userSpaceOnUse" id="clipPath28-rugby">
            <path d="M 9.254,28.746 C 2.09,21.582 -0.927,9.561 3.929,3.929 l 0,0 C 9.561,-0.927 21.582,2.09 28.746,9.254 l 0,0 c 7.164,7.164 11.229,17.088 5.324,24.816 l 0,0 c -1.886,1.627 -4.489,2.371 -7.387,2.37 l 0,0 c -5.752,0 -12.665,-2.93 -17.429,-7.694" id="path30"/>
        </clipPath>

        <clipPath clipPathUnits="userSpaceOnUse" id="clipPath16-carrot">
            <path d="M 0,36 36,36 36,0 0,0 0,36 Z" id="path18"/>
        </clipPath>
        <clipPath clipPathUnits="userSpaceOnUse" id="clipPath32-carrot">
            <path d="M 11.815,23.013 C 4.2,15.397 -1.265,2.86 0.502,1.093 l 0,0 c 1.768,-1.768 14.305,3.698 21.92,11.313 l 0,0 c 7.616,7.615 7.562,11.53 4.243,14.85 l 0,0 c -1.328,1.328 -2.752,2.133 -4.47,2.133 l 0,0 c -2.575,0 -5.812,-1.809 -10.38,-6.376" id="path34"/>
        </clipPath>

        <clipPath clipPathUnits="userSpaceOnUse" id="clipPath32-hat">
            <path d="m 5,33.666 c 0,-0.034 0.018,-0.067 0.022,-0.101 l 0,0 C 5.008,33.455 5,33.335 5,33.2 l 0,0 L 6.802,9.616 C 3.299,8.705 1,7.424 1,6 L 1,6 C 1,3.238 9.611,1 19,1 l 0,0 c 9.389,0 18,2.238 18,5 l 0,0 c 0,1.424 -2.298,2.705 -5.801,3.616 l 0,0 L 33,33.184 c 0,0.135 -0.008,0.263 -0.021,0.373 l 0,0 C 32.982,33.591 33,33.632 33,33.666 l 0,0 c 0,1.805 -6.268,3.267 -14,3.267 l 0,0 c -7.732,0 -14,-1.462 -14,-3.267" id="path34"/>
        </clipPath>


        <clipPath clipPathUnits="userSpaceOnUse" id="clipPath48-soccer">
            <path d="M 1,19 C 1,9.059 9.059,1 19,1 l 0,0 c 9.941,0 18,8.059 18,18 l 0,0 c 0,9.941 -8.059,18 -18,18 l 0,0 C 9.059,37 1,28.941 1,19" id="path50"/>
        </clipPath>

        <clipPath clipPathUnits="userSpaceOnUse" id="clipPath28-baguette">
            <path d="M 24.052,31.33 5.126,12.406 C 1.342,8.62 1.288,4.133 2.856,2.564 l 0,0 C 4.424,0.997 8.912,1.049 12.697,4.835 l 0,0 18.925,18.924 c 3.784,3.785 3.837,8.273 2.269,9.841 l 0,0 c -0.605,0.606 -1.647,0.969 -2.915,0.969 l 0,0 c -2.014,0 -4.602,-0.917 -6.924,-3.239" id="path30"/>
        </clipPath>
    </defs>



  <g
     id="layer1">
    <circle
       style="opacity:1;fill:white;stroke:black;stroke-width:1;stroke-miterlimit:4;stroke-dasharray:none;stroke-opacity:0.1"
       id="path4039-0-9"
       cx="100px"
       cy="100px"
       r="90px" />
    <g
       transform="matrix(0.7650438,-0.23389736,0.23389736,0.7650438,81.708458,29.468255)"
       id="g8">
      <g
         transform="matrix(1.25,0,0,-1.25,0,47.5)"
         id="g10">
        <g
           id="g12">
          <g
             clip-path="url(#clipPath16)"
             id="g14">
            <g
               transform="translate(14,31)"
               id="g20">
              <path
                 id="path22"
                 style="fill:#272b2b;fill-opacity:1;fill-rule:nonzero;stroke:none"
                 d="m 0,0 c 0,-3.313 -2.687,-6 -6,-6 -3.313,0 -6,2.687 -6,6 0,3.313 2.687,6 6,6 3.313,0 6,-2.687 6,-6"
                 inkscape:connector-curvature="0" />
            </g>
            <g
               transform="translate(36,31)"
               id="g24">
              <path
                 id="path26"
                 style="fill:#272b2b;fill-opacity:1;fill-rule:nonzero;stroke:none"
                 d="m 0,0 c 0,-3.313 -2.687,-6 -6,-6 -3.313,0 -6,2.687 -6,6 0,3.313 2.687,6 6,6 3.313,0 6,-2.687 6,-6"
                 inkscape:connector-curvature="0" />
            </g>
            <g
               transform="translate(12,31)"
               id="g28">
              <path
                 id="path18"
                 style="fill:#66757f;fill-opacity:1;fill-rule:nonzero;stroke:none"
                 d="m 0,0 c 0,-2.209 -1.791,-4 -4,-4 -2.209,0 -4,1.791 -4,4 0,2.209 1.791,4 4,4 2.209,0 4,-1.791 4,-4"
                 inkscape:connector-curvature="0" />
            </g>
            <g
               transform="translate(34,31)"
               id="g32">
              <path
                 id="path34"
                 style="fill:#66757f;fill-opacity:1;fill-rule:nonzero;stroke:none"
                 d="m 0,0 c 0,-2.209 -1.791,-4 -4,-4 -2.209,0 -4,1.791 -4,4 0,2.209 1.791,4 4,4 2.209,0 4,-1.791 4,-4"
                 inkscape:connector-curvature="0" />
            </g>
            <g
               transform="translate(36,15)"
               id="g36">
              <path
                 id="path38"
                 style="fill:#eeeeee;fill-opacity:1;fill-rule:nonzero;stroke:none"
                 d="m 0,0 c 0,-7 -6.375,-12 -17,-12 -10.625,0 -17,5 -17,12 0,0 1.308,22 17,22 C -1.308,22 0,0 0,0"
                 inkscape:connector-curvature="0" />
            </g>
            <g
               transform="translate(25,7)"
               id="g40">
              <path
                 id="path42"
                 style="fill:#ccd6dd;fill-opacity:1;fill-rule:nonzero;stroke:none"
                 d="m 0,0 c 0,-3.313 -2.687,-6 -6,-6 -3.313,0 -6,2.687 -6,6 0,3.313 2.687,6 6,6 3.313,0 6,-2.687 6,-6"
                 inkscape:connector-curvature="0" />
            </g>
            <g
               transform="translate(23,7)"
               id="g44">
              <path
                 id="path46"
                 style="fill:#dd2e44;fill-opacity:1;fill-rule:nonzero;stroke:none"
                 d="m 0,0 c 0,-2.209 -1.791,-4 -4,-4 -2.209,0 -4,1.791 -4,4 0,2.209 1.791,4 4,4 2.209,0 4,-1.791 4,-4"
                 inkscape:connector-curvature="0" />
            </g>
            <g
               transform="translate(21.709,24.3457)"
               id="g48">
              <path
                 id="path50"
                 style="fill:#272b2b;fill-opacity:1;fill-rule:nonzero;stroke:none"
                 d="m 0,0 c 4.454,2.776 11.291,-4.346 6.243,-10.016 -3.489,-3.921 -6.952,-2.33 -6.952,-2.33 0,0 -2.636,10.261 0.709,12.346"
                 inkscape:connector-curvature="0" />
            </g>
            <g
               transform="translate(16.2666,24.3354)"
               id="g52">
              <path
                 id="path54"
                 style="fill:#272b2b;fill-opacity:1;fill-rule:nonzero;stroke:none"
                 d="m 0,0 c -4.454,2.776 -11.291,-4.346 -6.244,-10.016 3.49,-3.92 6.953,-2.329 6.953,-2.329 0,0 2.636,10.26 -0.709,12.345"
                 inkscape:connector-curvature="0" />
            </g>
            <g
               transform="translate(12,20)"
               id="g56">
              <path
                 id="path58"
                 style="fill:#66757f;fill-opacity:1;fill-rule:nonzero;stroke:none"
                 d="M 0,0 C 0,0 0,2 2,2 4,2 4,0 4,0 l 0,-2 c 0,0 0,-2 -2,-2 -2,0 -2,2 -2,2 l 0,2 z"
                 inkscape:connector-curvature="0" />
            </g>
            <g
               transform="translate(19,17)"
               id="g60">
              <path
                 id="path62"
                 style="fill:#ffffff;fill-opacity:1;fill-rule:nonzero;stroke:none"
                 d="m 0,0 c 0,0 -11,-3.687 -11,-7 0,-3.313 2.687,-6 6,-6 2.088,0 3.925,1.067 5,2.686 C 1.074,-11.933 2.912,-13 5,-13 c 3.313,0 6,2.687 6,6 0,3.313 -11,7 -11,7"
                 inkscape:connector-curvature="0" />
            </g>
            <g
               transform="translate(22,20)"
               id="g64">
              <path
                 id="path66"
                 style="fill:#66757f;fill-opacity:1;fill-rule:nonzero;stroke:none"
                 d="M 0,0 C 0,0 0,2 2,2 4,2 4,0 4,0 l 0,-2 c 0,0 0,-2 -2,-2 -2,0 -2,2 -2,2 l 0,2 z"
                 inkscape:connector-curvature="0" />
            </g>
            <g
               transform="translate(14.1255,12)"
               id="g68">
              <path
                 id="path70"
                 style="fill:#272b2b;fill-opacity:1;fill-rule:nonzero;stroke:none"
                 d="M 0,0 C -1.625,-1 3.25,-4 4.875,-4 6.5,-4 11.374,-1 9.749,0 8.124,1 1.625,1 0,0"
                 inkscape:connector-curvature="0" />
            </g>
          </g>
        </g>
      </g>
    </g>
    <g
       transform="matrix(-0.57357644,0.81915204,-0.81915204,-0.57357644,144.01099,148.40993)"
       id="g41">
      <g
         transform="matrix(1.25,0,0,-1.25,0,47.5)"
         id="g43">
        <g
           id="g45">
          <g
             clip-path="url(#clipPath16)"
             id="g47">
            <g
               transform="translate(30.0488,29.9673)"
               id="g49">
              <path
                 id="path51"
                 style="fill:#ccd6dd;fill-opacity:1;fill-rule:nonzero;stroke:none"
                 d="m 0,0 c 4.423,-4.424 5.71,-21.367 1.289,-25.788 -4.425,-4.424 -12.185,-3.783 -16.607,0.64 -2.979,2.979 -3.834,10.952 0.589,15.377 C -10.305,-5.35 -4.423,4.423 0,0"
                 inkscape:connector-curvature="0" />
            </g>
            <g
               transform="translate(17.9897,3.8916)"
               id="g53">
              <path
                 id="path55"
                 style="fill:#ccd6dd;fill-opacity:1;fill-rule:nonzero;stroke:none"
                 d="m 0,0 c -2.175,-0.273 -5.546,2.28 -5.913,5.912 l -1.329,13.157 c -0.366,3.63 1.687,6.873 4.586,7.24 L 7.84,27.637 c 2.898,0.365 5.483,-1.666 5.912,-5.912 C 14.178,17.473 3.393,0.428 0,0"
                 inkscape:connector-curvature="0" />
            </g>
          </g>
        </g>
        <g
           id="g57">
          <g
             clip-path="url(#clipPath32)"
             id="g30">
            <g
               transform="translate(11.3491,10.5322)"
               id="g61">
              <path
                 id="path63"
                 style="fill:#99aab5;fill-opacity:1;fill-rule:nonzero;stroke:none"
                 d="m 0,0 c -2.174,-0.274 -5.548,2.282 -5.915,5.914 l -1.327,13.154 c -0.367,3.632 1.686,6.875 4.584,7.243 L 7.84,27.638 c 2.898,0.366 5.483,-1.665 5.912,-5.911 C 14.18,17.473 3.393,0.428 0,0"
                 inkscape:connector-curvature="0" />
            </g>
          </g>
        </g>
        <g
           id="g65">
          <g
             clip-path="url(#clipPath44)"
             id="g42">
            <g
               transform="translate(11.8501,14.7217)"
               id="g69">
              <path
                 id="path71"
                 style="fill:#ccd6dd;fill-opacity:1;fill-rule:nonzero;stroke:none"
                 d="m 0,0 c -1.613,-0.202 -4.115,1.693 -4.388,4.389 l -0.985,9.758 c -0.272,2.694 1.252,5.1 3.402,5.374 l 7.788,0.984 C 7.968,20.777 9.886,19.271 10.204,16.119 10.522,12.964 2.518,0.319 0,0"
                 inkscape:connector-curvature="0" />
            </g>
          </g>
        </g>
        <g
           id="g73">
          <g
             clip-path="url(#clipPath56)"
             id="g54">
            <g
               transform="translate(6.3511,20.2207)"
               id="g76">
              <path
                 id="path78"
                 style="fill:#99aab5;fill-opacity:1;fill-rule:nonzero;stroke:none"
                 d="m 0,0 c -1.612,-0.204 -4.114,1.693 -4.387,4.387 l -0.985,9.759 c -0.272,2.695 1.251,5.101 3.401,5.375 l 7.788,0.983 C 7.968,20.777 9.886,19.272 10.205,16.118 10.522,12.962 2.518,0.318 0,0"
                 inkscape:connector-curvature="0" />
            </g>
          </g>
        </g>
        <g
           id="g80">
          <g
             clip-path="url(#clipPath68)"
             id="g66">
            <g
               transform="translate(7.2471,24.1943)"
               id="g72">
              <path
                 id="path74"
                 style="fill:#ccd6dd;fill-opacity:1;fill-rule:nonzero;stroke:none"
                 d="m 0,0 c -0.993,-0.125 -2.533,1.043 -2.701,2.702 l -0.606,6.006 c -0.167,1.659 0.77,3.14 2.093,3.308 l 4.795,0.606 C 4.905,12.79 6.084,11.863 6.28,9.923 6.477,7.98 1.548,0.198 0,0"
                 inkscape:connector-curvature="0" />
            </g>
            <g
               transform="translate(31.6094,22.6035)"
               id="g85">
              <path
                 id="path87"
                 style="fill:#66757f;fill-opacity:1;fill-rule:nonzero;stroke:none"
                 d="m 0,0 c 0.801,-2.371 1.545,-11.57 -1.532,-15.543 -3.079,-3.972 -8.043,1.389 -5.312,6.205 C -4.114,-4.523 -0.809,2.396 0,0"
                 inkscape:connector-curvature="0" />
            </g>
          </g>
        </g>
      </g>
    </g>
    <g
       transform="matrix(0.11088624,-0.52167872,0.52167872,0.11088624,19.917059,136.05543)"
       id="g89">
      <g
         transform="matrix(1.25,0,0,-1.25,0,47.5)"
         id="g91">
        <g
           id="g93">
          <g
             clip-path="url(#clipPath16)"
             id="g95">
            <g
               transform="translate(19.2412,27.3672)"
               id="g97">
              <path
                 id="path99"
                 style="fill:#5c913b;fill-opacity:1;fill-rule:nonzero;stroke:none"
                 d="M 0,0 C -0.277,3.307 2.17,4.72 2.17,4.72 -1.029,4.607 -2.724,1.895 -2.724,1.895 -3.476,3.194 -1.778,5.907 -0.555,6.614 -3.753,6.501 -4.225,4.494 -4.225,4.494 -5.728,7.095 -5.254,9.102 -5.254,9.102 -6.375,8.454 -7.021,6.989 -7.396,5.589 L -9.714,8.26 c -0.23,-1.046 0.156,-3.176 0.572,-4.962 -3.054,1.791 -5.902,0.151 -5.902,0.151 3.95,-1.187 5.45,-3.787 5.45,-3.787 0,0 -3.948,1.187 -5.645,-1.527 2.596,0.092 4.5,-0.499 5.856,-1.229 -1.163,-0.289 -3.145,0.236 -4.355,-1.371 0,0 3.198,0.113 3.851,-1.055 -2.172,-0.614 -3.574,-2.251 -3.574,-2.251 4.422,0.818 9.123,-1.668 9.123,-1.668 L 1.78,-5.907 C 0.751,-1.3 4.422,0.82 4.422,0.82 1.697,2.713 0,0 0,0"
                 inkscape:connector-curvature="0" />
            </g>
            <g
               transform="translate(30.5605,14.1201)"
               id="g101">
              <path
                 id="path103"
                 style="fill:#ffac33;fill-opacity:1;fill-rule:nonzero;stroke:none"
                 d="m 0,0 c 2.488,-4.309 1.218,-9.7 -2.837,-12.041 -4.055,-2.341 -9.359,-0.746 -11.846,3.562 l -1.589,2.753 c -2.489,4.31 -1.218,9.699 2.837,12.04 4.055,2.342 9.359,0.747 11.846,-3.562 L 0,0 Z"
                 inkscape:connector-curvature="0" />
            </g>
            <g
               transform="translate(28.7178,10.541)"
               id="g105">
              <path
                 id="path107"
                 style="fill:#ffcc4d;fill-opacity:1;fill-rule:nonzero;stroke:none"
                 d="M 0,0 -1.951,0.828 -1.123,2.778 0.828,1.951 0,0 Z m -1.656,-3.901 -1.95,0.827 0.828,1.952 1.95,-0.828 -0.828,-1.951 z m -1.657,-3.904 -1.951,0.828 0.828,1.952 1.952,-0.829 -0.829,-1.951 z m -4.197,6.388 0.828,1.952 1.952,-0.829 -0.829,-1.952 -1.951,0.829 z m 0.294,-4.73 -1.95,0.828 0.828,1.95 1.95,-0.829 -0.828,-1.949 z m -4.196,6.386 0.829,1.951 1.951,-0.827 -0.828,-1.952 -1.952,0.828 z m 0.295,-4.73 -1.951,0.827 0.828,1.951 1.951,-0.828 -0.828,-1.95 z m -4.196,6.386 0.828,1.952 1.951,-0.828 -0.828,-1.953 -1.951,0.829 z m 2.484,5.852 1.951,-0.828 -0.829,-1.949 -1.95,0.828 0.828,1.949 z m 3.902,-1.655 1.95,-0.828 -0.828,-1.951 -1.95,0.828 0.828,1.951 z M -7.271,9.994 -5.319,9.166 -6.148,7.214 -8.1,8.042 -7.271,9.994 Z m 4.197,-6.387 -0.828,-1.95 -1.952,0.827 0.829,1.952 1.951,-0.829 z m -0.294,4.731 1.95,-0.829 -0.828,-1.95 -1.951,0.828 0.829,1.951 z M 2.845,1.095 C 2.636,1.942 2.305,2.779 1.843,3.579 L 1.656,3.902 1.656,3.901 -0.295,4.729 0.329,6.2 0.254,6.331 c -2.025,3.51 -5.92,5.217 -9.486,4.466 l -0.819,-1.926 -1.884,0.799 c -3.28,-2.122 -4.567,-6.318 -3.262,-10.128 l 1.006,-0.427 -0.401,-0.946 c 0.055,-0.106 0.102,-0.212 0.162,-0.315 l 1.59,-2.753 c 0.685,-1.188 1.59,-2.161 2.617,-2.91 l 0.229,0.538 1.951,-0.828 -0.324,-0.763 c 0.665,-0.278 1.357,-0.465 2.06,-0.573 l 0.215,0.507 1.404,-0.594 c 1.144,0.047 2.28,0.335 3.342,0.882 l -0.016,0.007 0.828,1.951 1.188,-0.504 c 0.523,0.522 0.973,1.104 1.334,1.737 l -1.693,0.72 0.828,1.951 1.667,-0.707 c 0.191,0.7 0.301,1.426 0.316,2.167 l -1.155,0.49 0.828,1.951 0.066,-0.028 z"
                 inkscape:connector-curvature="0" />
            </g>
          </g>
        </g>
      </g>
    </g>
    <g
       transform="matrix(-0.59552769,-0.07312161,0.07312161,-0.59552769,79.273777,70.393902)"
       id="g109">
      <g
         transform="matrix(1.25,0,0,-1.25,0,47.5)"
         id="g111">
        <g
           id="g113">
          <g
             clip-path="url(#clipPath16)"
             id="g115">
            <g
               transform="translate(35.5391,5.5117)"
               id="g117">
              <path
                 id="path119"
                 style="fill:#292f33;fill-opacity:1;fill-rule:nonzero;stroke:none"
                 d="m 0,0 c 0,0 1.18,-0.215 1.18,-1.256 0,-1.043 -1.042,-1.256 -2.084,-1.256 l -17.72,0 c -2.084,0 -2.084,3.34 -5.212,9.594 -3.127,6.255 -6.253,2.001 -6.253,2.001 l -1.042,-12.595 -2.408,0 0,13.936 c 0,2.084 -0.881,4.285 -0.881,5.211 0,2.084 0.672,4.395 0.672,4.395 L -27.002,17.719 0,0 Z"
                 inkscape:connector-curvature="0" />
            </g>
            <g
               transform="translate(2.668,23.7192)"
               id="g121">
              <path
                 id="path123"
                 style="fill:#9266cc;fill-opacity:1;fill-rule:nonzero;stroke:none"
                 d="m 0,0 c 3.036,-0.732 10.291,-3.88 13.969,-17.379 0,0 0,-1.34 2.363,-1.34 l 16.539,0 c 0,0 1.18,0.257 1.18,2.424 0,1.084 -5.907,3.38 -8.27,4.464 -2.361,1.084 -4.445,4.317 -4.445,4.317 0,0 -4.17,-1.635 -11.258,5.952 C 2.99,6.025 5.7,8.876 3.337,8.876 2.852,8.876 -0.401,5.569 -1.207,1.838 -1.322,1.305 -0.864,0.208 0,0"
                 inkscape:connector-curvature="0" />
            </g>
          </g>
        </g>
      </g>
    </g>
    <g
       transform="matrix(0.48110995,-0.55345369,0.55345369,0.48110995,22.145662,76.993005)"
       id="g125">
      <g
         transform="matrix(1.25,0,0,-1.25,0,47.5)"
         id="g127">
        <g
           id="g129">
          <g
             clip-path="url(#clipPath16)"
             id="g131">
            <g
               transform="translate(37,19)"
               id="g133">
              <path
                 id="path135"
                 style="fill:#ffcc4d;fill-opacity:1;fill-rule:nonzero;stroke:none"
                 d="m 0,0 c 0,-9.941 -8.059,-18 -18,-18 -9.94,0 -18,8.059 -18,18 0,9.94 8.06,18 18,18 C -8.059,18 0,9.94 0,0"
                 inkscape:connector-curvature="0" />
            </g>
            <g
               transform="translate(35,15)"
               id="g137">
              <path
                 id="path139"
                 style="fill:#ff7892;fill-opacity:1;fill-rule:nonzero;stroke:none"
                 d="m 0,0 c 0,-2.762 -2.238,-5 -5,-5 -2.762,0 -5,2.238 -5,5 0,2.762 2.238,5 5,5 2.762,0 5,-2.238 5,-5"
                 inkscape:connector-curvature="0" />
            </g>
            <g
               transform="translate(13,15)"
               id="g141">
              <path
                 id="path143"
                 style="fill:#ff7892;fill-opacity:1;fill-rule:nonzero;stroke:none"
                 d="m 0,0 c 0,-2.762 -2.238,-5 -5,-5 -2.762,0 -5,2.238 -5,5 0,2.762 2.238,5 5,5 2.762,0 5,-2.238 5,-5"
                 inkscape:connector-curvature="0" />
            </g>
            <g
               transform="translate(22,26)"
               id="g145">
              <path
                 id="path147"
                 style="fill:none;stroke:#664500;stroke-width:2;stroke-linecap:round;stroke-linejoin:round;stroke-miterlimit:4;stroke-dasharray:none;stroke-opacity:1"
                 d="M 0,0 C 0,0 5,1 8,-2"
                 inkscape:connector-curvature="0" />
            </g>
            <g
               transform="translate(16,26)"
               id="g149">
              <path
                 id="path151"
                 style="fill:none;stroke:#664500;stroke-width:2;stroke-linecap:round;stroke-linejoin:round;stroke-miterlimit:4;stroke-dasharray:none;stroke-opacity:1"
                 d="M 0,0 C 0,0 -5,1 -8,-2"
                 inkscape:connector-curvature="0" />
            </g>
            <g
               transform="translate(21,20)"
               id="g153">
              <path
                 id="path155"
                 style="fill:none;stroke:#664500;stroke-width:2;stroke-linecap:round;stroke-linejoin:round;stroke-miterlimit:4;stroke-dasharray:none;stroke-opacity:1"
                 d="M 0,0 C 0,0 4,1 6,-1"
                 inkscape:connector-curvature="0" />
            </g>
            <g
               transform="translate(17,20)"
               id="g157">
              <path
                 id="path159"
                 style="fill:none;stroke:#664500;stroke-width:2;stroke-linecap:round;stroke-linejoin:round;stroke-miterlimit:4;stroke-dasharray:none;stroke-opacity:1"
                 d="M 0,0 C 0,0 -4,1 -6,-1"
                 inkscape:connector-curvature="0" />
            </g>
            <g
               transform="translate(14,12)"
               id="g161">
              <path
                 id="path163"
                 style="fill:#664500;fill-opacity:1;fill-rule:nonzero;stroke:none"
                 d="m 0,0 c 0,0 1,-4 5,-4 4,0 5,4 5,4 C 10,0 9,-1 5,-1 1,-1 0,0 0,0"
                 inkscape:connector-curvature="0" />
            </g>
            <g
               transform="translate(14,12)"
               id="g165">
              <path
                 id="path167"
                 style="fill:none;stroke:#664500;stroke-width:1;stroke-linecap:round;stroke-linejoin:round;stroke-miterlimit:4;stroke-dasharray:none;stroke-opacity:1"
                 d="m 0,0 c 0,0 1,-4 5,-4 4,0 5,4 5,4 C 10,0 9,-1 5,-1 1,-1 0,0 0,0 Z"
                 inkscape:connector-curvature="0" />
            </g>
          </g>
        </g>
      </g>
    </g>
    <g
       transform="matrix(-0.77201433,0.58175452,-0.58175452,-0.77201433,176.88859,122.72922)"
       id="g169">
      <g
         transform="matrix(1.25,0,0,-1.25,0,45)"
         id="g171">
        <g
           id="g173">
          <g
             clip-path="url(#clipPath16)"
             id="g175">
            <g
               transform="translate(13.2344,16.3242)"
               id="g177">
              <path
                 id="path179"
                 style="fill:#ad743d;fill-opacity:1;fill-rule:nonzero;stroke:none"
                 d="M 0,0 C -1.243,1.243 -4.97,0 -6.211,2.488 -6.998,4.06 -9.939,1.243 -8.697,-1.246 -7.455,-3.73 -3.728,-3.73 -1.243,-2.488 1.242,-1.246 0,0 0,0"
                 inkscape:connector-curvature="0" />
            </g>
            <g
               transform="translate(10.4668,33.1802)"
               id="g181">
              <path
                 id="path183"
                 style="fill:#ad743d;fill-opacity:1;fill-rule:nonzero;stroke:none"
                 d="m 0,0 c -4.694,-1.399 -9.492,-7.219 -9.345,-8.397 0.148,-1.177 0.342,-2.638 6.571,-3.656 1.104,-0.18 3.995,-1.835 4.4,-5.779 0.657,-6.411 4.157,-11.098 8.251,-15.192 1.607,0 1.666,-0.156 3.443,-0.156 1.781,0 3.679,2.41 4.602,4.673 2.844,6.974 2.029,15.707 -5.506,19.83 C 9.427,-7.041 7.205,-6.825 7.087,-5.64 6.953,-4.262 5.869,-1.941 3.276,-0.312 3.72,0.997 2.791,2.474 2.16,2.528 1.528,2.582 0.136,1.49 0,0"
                 inkscape:connector-curvature="0" />
            </g>
          </g>
        </g>
        <g
           id="g185">
          <g
             clip-path="url(#clipPath32)"
             id="g187">
            <g
               transform="translate(2.1836,22.0332)"
               id="g189">
              <path
                 id="path191"
                 style="fill:#d99e82;fill-opacity:1;fill-rule:nonzero;stroke:none"
                 d="M 0,0 C 0.629,5.908 3.746,8.413 6.202,8.232 7.696,8.122 8.338,6.585 8.46,5.507 13.666,4.736 12.399,-1.222 9.141,-1.312 10.518,-2.69 19.28,-8.263 17.902,-15.148 16.525,-22.033 11.016,-22.033 8.263,-19.28 5.509,-16.524 0,0 0,0"
                 inkscape:connector-curvature="0" />
            </g>
          </g>
        </g>
        <g
           id="g193">
          <g
             clip-path="url(#clipPath44)"
             id="g195">
            <g
               transform="translate(9.0693,26.5405)"
               id="g197">
              <path
                 id="path199"
                 style="fill:#292f33;fill-opacity:1;fill-rule:nonzero;stroke:none"
                 d="m 0,0 c 0,-0.76 -0.617,-1.376 -1.377,-1.376 -0.761,0 -1.377,0.616 -1.377,1.376 0,0.761 0.616,1.377 1.377,1.377 C -0.617,1.377 0,0.761 0,0"
                 inkscape:connector-curvature="0" />
            </g>
            <g
               transform="translate(6.2603,15.8535)"
               id="g201">
              <path
                 id="path203"
                 style="fill:#662113;fill-opacity:1;fill-rule:nonzero;stroke:none"
                 d="m 0,0 c 0.304,-1.49 -0.383,-4.295 -1.874,-4.6 -1.489,-0.303 -3.22,2.007 -3.523,3.496 C -5.702,0.387 -4.74,1.843 -3.25,2.15 -1.759,2.455 -0.305,1.49 0,0"
                 inkscape:connector-curvature="0" />
            </g>
            <g
               transform="translate(21.2539,22.4355)"
               id="g205">
              <path
                 id="path207"
                 style="fill:#662113;fill-opacity:1;fill-rule:nonzero;stroke:none"
                 d="M 0,0 C 4.065,-3.341 6.158,-7.296 5.402,-12.37 5.084,-14.514 6.232,-15.303 7.09,-13.272 7.688,-11.85 8.025,-3.385 1.04,1.039 -0.818,2.216 -0.921,0.756 0,0"
                 inkscape:connector-curvature="0" />
            </g>
            <g
               transform="translate(13.9072,14.625)"
               id="g209">
              <path
                 id="path211"
                 style="fill:#ad743d;fill-opacity:1;fill-rule:nonzero;stroke:none"
                 d="m 0,0 c -1.635,1.061 -5.388,-1.148 -7.309,1.259 -1.215,1.523 -3.753,-2.209 -1.832,-4.615 1.922,-2.406 5.962,-1.543 8.368,0.377 C 1.634,-1.058 0,0 0,0"
                 inkscape:connector-curvature="0" />
            </g>
            <g
               transform="translate(24.625,0)"
               id="g213">
              <path
                 id="path215"
                 style="fill:#ad743d;fill-opacity:1;fill-rule:nonzero;stroke:none"
                 d="m 0,0 -10.928,0 c -2.754,0 -2.754,4.132 1.378,4.132 l 3.634,0 C -3.161,4.132 0,0 0,0"
                 inkscape:connector-curvature="0" />
            </g>
            <g
               transform="translate(16.5352,7.3838)"
               id="g217">
              <path
                 id="path219"
                 style="fill:#ad743d;fill-opacity:1;fill-rule:nonzero;stroke:none"
                 d="M 0,0 C 0.371,3.555 2.87,6.21 5.586,5.931 8.301,5.647 10.199,2.533 9.83,-1.021 9.46,-4.58 6.959,-7.234 4.246,-6.955 1.53,-6.672 -0.369,-3.559 0,0"
                 inkscape:connector-curvature="0" />
            </g>
            <g
               transform="translate(23.0117,0.9922)"
               id="g221">
              <path
                 id="path223"
                 style="fill:#ad743d;fill-opacity:1;fill-rule:nonzero;stroke:none"
                 d="m 0,0 c 1.653,0.338 4.956,1.516 6.815,9.035 0.648,2.613 1.373,6.272 -0.827,11.216 -1.875,4.218 -1.084,5.128 0.737,3.766 1.58,-1.184 1.948,-2.708 2.158,-4.928 0.154,0.462 0.377,1.046 0.264,2.153 3.65,-2.056 3.65,-6.749 2.25,-11.167 0.385,0.386 0.828,1.301 1.023,2.159 C 13.706,6.444 9.846,-0.292 2.916,-0.905 -1.064,-1.339 0,0 0,0"
                 inkscape:connector-curvature="0" />
            </g>
          </g>
        </g>
      </g>
    </g>
    <g
       transform="matrix(0.64084113,0.18375824,-0.18375824,0.64084113,85.322447,98.738567)"
       id="g225">
      <g
         transform="matrix(1.25,0,0,-1.25,0,45)"
         id="g227">
        <g
           id="g229">
          <g
             clip-path="url(#clipPath16)"
             id="g231">
            <g
               transform="translate(27.8652,19.2485)"
               id="g233">
              <path
                 id="path235"
                 style="fill:#ccd6dd;fill-opacity:1;fill-rule:nonzero;stroke:none"
                 d="m 0,0 c 0,6.242 -4.411,9.988 -9.927,9.988 -5.516,0 -9.836,-3.746 -9.836,-9.988 0,-3.48 -0.102,-6.485 3.898,-7.89 l 0,-2.722 c 0,-1.034 0.966,-1.872 2,-1.872 1.035,0 2,0.838 2,1.872 l 0,1.97 0,-0.044 0,-1.926 c 0,-1.034 0.965,-1.872 1.999,-1.872 1.036,0 2.001,0.838 2.001,1.872 l 0,1.926 0,0.044 0,-1.97 c 0,-1.034 0.966,-1.872 2,-1.872 1.034,0 2,0.838 2,1.872 l 0,2.722 C 0.135,-6.485 0,-3.48 0,0"
                 inkscape:connector-curvature="0" />
            </g>
            <g
               transform="translate(16.75,20.4971)"
               id="g237">
              <path
                 id="path239"
                 style="fill:#292f33;fill-opacity:1;fill-rule:nonzero;stroke:none"
                 d="m 0,0 c 0,-1.724 0,-3.121 -3.121,-3.121 -3.121,0 -3.121,1.397 -3.121,3.121 0,1.724 1.397,3.121 3.121,3.121 C -1.398,3.121 0,1.724 0,0"
                 inkscape:connector-curvature="0" />
            </g>
            <g
               transform="translate(25.4883,20.4971)"
               id="g241">
              <path
                 id="path243"
                 style="fill:#292f33;fill-opacity:1;fill-rule:nonzero;stroke:none"
                 d="m 0,0 c 0,-1.724 0,-3.121 -3.121,-3.121 -3.12,0 -3.12,1.397 -3.12,3.121 0,1.724 1.396,3.121 3.12,3.121 C -1.396,3.121 0,1.724 0,0"
                 inkscape:connector-curvature="0" />
            </g>
            <g
               transform="translate(19.1865,14.8408)"
               id="g245">
              <path
                 id="path247"
                 style="fill:#292f33;fill-opacity:1;fill-rule:nonzero;stroke:none"
                 d="M 0,0 C -0.157,0.382 -0.626,0.662 -1.189,0.662 -1.75,0.662 -2.22,0.382 -2.376,0 c -0.395,-0.11 -0.685,-0.469 -0.685,-0.898 0,-0.517 0.419,-0.936 0.936,-0.936 0.409,0 0.753,0.263 0.88,0.628 0.019,0 0.037,-0.004 0.056,-0.004 0.02,0 0.038,0.004 0.057,0.004 0.128,-0.365 0.472,-0.628 0.88,-0.628 0.517,0 0.937,0.419 0.937,0.936 C 0.685,-0.469 0.394,-0.111 0,0"
                 inkscape:connector-curvature="0" />
            </g>
            <g
               transform="translate(10.9995,9)"
               id="g249">
              <path
                 id="path251"
                 style="fill:#aab8c2;fill-opacity:1;fill-rule:nonzero;stroke:none"
                 d="M 0,0 C 0,0.367 0.075,0.713 0.196,1.038 -0.789,1.485 -1.635,2.12 -2.307,3.008 -3.414,2.04 -4.47,1.133 -5.434,0.313 -6.015,0.74 -6.724,1 -7.499,1 c -1.934,0 -3.5,-1.566 -3.5,-3.5 0,-1.778 1.329,-3.229 3.045,-3.454 C -7.729,-7.671 -6.277,-9 -4.499,-9 c 1.933,0 3.5,1.566 3.5,3.5 0,0.775 -0.261,1.485 -0.687,2.065 0.6,0.706 1.246,1.46 1.931,2.25 C 0.088,-0.821 0,-0.421 0,0"
                 inkscape:connector-curvature="0" />
            </g>
            <g
               transform="translate(27.8715,24.4822)"
               id="g253">
              <path
                 id="path255"
                 style="fill:#aab8c2;fill-opacity:1;fill-rule:nonzero;stroke:none"
                 d="m 0,0 c 0.884,0.769 1.729,1.495 2.515,2.162 0.57,-0.403 1.262,-0.644 2.014,-0.644 1.933,0 3.5,1.567 3.5,3.5 0,1.743 -1.277,3.177 -2.945,3.444 -0.221,1.721 -1.674,3.056 -3.456,3.056 -1.933,0 -3.5,-1.567 -3.5,-3.5 0,-0.775 0.261,-1.485 0.687,-2.065 C -1.779,5.253 -2.418,4.508 -3.096,3.726 -1.795,2.855 -0.735,1.631 0,0"
                 inkscape:connector-curvature="0" />
            </g>
            <g
               transform="translate(3.5,26)"
               id="g257">
              <path
                 id="path259"
                 style="fill:#aab8c2;fill-opacity:1;fill-rule:nonzero;stroke:none"
                 d="M 0,0 C 0.775,0 1.485,0.26 2.065,0.687 2.863,0.008 3.726,-0.732 4.628,-1.518 5.363,0.113 6.424,1.337 7.725,2.208 7.046,2.99 6.408,3.736 5.813,4.435 6.24,5.015 6.5,5.725 6.5,6.5 6.5,8.433 4.933,10 3,10 1.222,10 -0.229,8.67 -0.454,6.954 -2.17,6.729 -3.5,5.277 -3.5,3.5 -3.5,1.567 -1.933,0 0,0"
                 inkscape:connector-curvature="0" />
            </g>
            <g
               transform="translate(32.4004,10)"
               id="g261">
              <path
                 id="path263"
                 style="fill:#aab8c2;fill-opacity:1;fill-rule:nonzero;stroke:none"
                 d="M 0,0 C -0.752,0 -1.444,-0.242 -2.014,-0.645 -2.966,0.164 -4.004,1.056 -5.093,2.009 -5.765,1.12 -6.612,0.485 -7.596,0.038 -7.476,-0.287 -7.4,-0.633 -7.4,-1 c 0,-0.421 -0.089,-0.821 -0.245,-1.185 0.685,-0.79 1.331,-1.544 1.931,-2.25 C -6.14,-5.015 -6.4,-5.725 -6.4,-6.5 c 0,-1.934 1.566,-3.5 3.5,-3.5 1.781,0 3.235,1.334 3.455,3.056 C 2.223,-6.677 3.5,-5.244 3.5,-3.5 3.5,-1.566 1.934,0 0,0"
                 inkscape:connector-curvature="0" />
            </g>
          </g>
        </g>
      </g>
    </g>
    <g
       transform="matrix(0.23948368,0.51357441,-0.51357441,0.23948368,71.291299,135.37141)"
       id="g265">
      <g
         transform="matrix(1.25,0,0,-1.25,0,45)"
         id="g267">
        <g
           id="g269">
          <g
             clip-path="url(#clipPath16)"
             id="g271">
            <g
               transform="translate(36,21.5)"
               id="g273">
              <path
                 id="path275"
                 style="fill:#f4900c;fill-opacity:1;fill-rule:nonzero;stroke:none"
                 d="M 0,0 C 0,-1.933 -1.119,-3.5 -2.5,-3.5 -3.881,-3.5 -5,-1.933 -5,0 -5,1.933 -3.881,3.5 -2.5,3.5 -1.119,3.5 0,1.933 0,0"
                 inkscape:connector-curvature="0" />
            </g>
            <g
               transform="translate(5,21.5)"
               id="g277">
              <path
                 id="path279"
                 style="fill:#f4900c;fill-opacity:1;fill-rule:nonzero;stroke:none"
                 d="M 0,0 C 0,-1.933 -1.119,-3.5 -2.5,-3.5 -3.881,-3.5 -5,-1.933 -5,0 -5,1.933 -3.881,3.5 -2.5,3.5 -1.119,3.5 0,1.933 0,0"
                 inkscape:connector-curvature="0" />
            </g>
            <g
               transform="translate(34,17)"
               id="g281">
              <path
                 id="path283"
                 style="fill:#ffac33;fill-opacity:1;fill-rule:nonzero;stroke:none"
                 d="m 0,0 c 0,-0.553 -0.447,-1 -1,-1 l -3,0 c -0.553,0 -1,0.447 -1,1 l 0,9 c 0,0.552 0.447,1 1,1 l 3,0 C -0.447,10 0,9.552 0,9 L 0,0 Z"
                 inkscape:connector-curvature="0" />
            </g>
            <g
               transform="translate(7,17)"
               id="g285">
              <path
                 id="path287"
                 style="fill:#ffac33;fill-opacity:1;fill-rule:nonzero;stroke:none"
                 d="m 0,0 c 0,-0.553 -0.448,-1 -1,-1 l -3,0 c -0.552,0 -1,0.447 -1,1 l 0,9 c 0,0.552 0.448,1 1,1 l 3,0 C -0.448,10 0,9.552 0,9 L 0,0 Z"
                 inkscape:connector-curvature="0" />
            </g>
            <g
               transform="translate(28,31)"
               id="g289">
              <path
                 id="path291"
                 style="fill:#ffcc4d;fill-opacity:1;fill-rule:nonzero;stroke:none"
                 d="m 0,0 c 0,-2.761 -4.477,-4 -10,-4 -5.523,0 -10,1.239 -10,4 0,2.761 4.477,5 10,5 C -4.477,5 0,2.761 0,0"
                 inkscape:connector-curvature="0" />
            </g>
            <g
               transform="translate(25,31.9165)"
               id="g293">
              <path
                 id="path295"
                 style="fill:#f4900c;fill-opacity:1;fill-rule:nonzero;stroke:none"
                 d="m 0,0 c 0,-1.611 -3.135,-2.917 -7,-2.917 -3.866,0 -7,1.306 -7,2.917 0,1.611 3.134,2.917 7,2.917 3.865,0 7,-1.306 7,-2.917"
                 inkscape:connector-curvature="0" />
            </g>
            <g
               transform="translate(30,30.5)"
               id="g297">
              <path
                 id="path299"
                 style="fill:#226699;fill-opacity:1;fill-rule:nonzero;stroke:none"
                 d="m 0,0 c 0,-1.381 -1.119,-1.5 -2.5,-1.5 l -19,0 c -1.381,0 -2.5,0.119 -2.5,1.5 0,1.381 1.119,2.5 2.5,2.5 l 19,0 C -1.119,2.5 0,1.381 0,0"
                 inkscape:connector-curvature="0" />
            </g>
            <g
               transform="translate(32,6)"
               id="g301">
              <path
                 id="path303"
                 style="fill:#55acee;fill-opacity:1;fill-rule:nonzero;stroke:none"
                 d="m 0,0 c 0,-1.104 -0.895,-2 -2,-2 l -24,0 c -1.104,0 -2,0.896 -2,2 l 0,22 c 0,1.104 0.896,2 2,2 l 24,0 c 1.105,0 2,-0.896 2,-2 L 0,0 Z"
                 inkscape:connector-curvature="0" />
            </g>
            <g
               transform="translate(35,3)"
               id="g305">
              <path
                 id="path307"
                 style="fill:#3b88c3;fill-opacity:1;fill-rule:nonzero;stroke:none"
                 d="m 0,0 c 0,-1.105 0.105,-2 -1,-2 l -32,0 c -1.104,0 -1,0.895 -1,2 l 0,1 c 0,1.105 0.896,2 2,2 L -2,3 C -0.895,3 0,2.105 0,1 L 0,0 Z"
                 inkscape:connector-curvature="0" />
            </g>
            <g
               transform="translate(18.707,2.6357)"
               id="g309">
              <path
                 id="path311"
                 style="fill:#55acee;fill-opacity:1;fill-rule:nonzero;stroke:none"
                 d="m 0,0 c -0.391,-0.391 -1.023,-0.391 -1.414,0 l -5.657,5.657 c -0.39,0.391 -0.391,1.024 0,1.414 l 5.657,4.658 c 0.391,0.39 1.023,0.39 1.414,0 L 5.656,7.071 c 0.391,-0.39 0.392,-1.023 0,-1.414 L 0,0 Z"
                 inkscape:connector-curvature="0" />
            </g>
            <g
               transform="translate(16,21.5)"
               id="g313">
              <path
                 id="path315"
                 style="fill:#ffffff;fill-opacity:1;fill-rule:nonzero;stroke:none"
                 d="M 0,0 C 0,-2.485 -2.015,-4.5 -4.5,-4.5 -6.985,-4.5 -9,-2.485 -9,0 -9,2.485 -6.985,4.5 -4.5,4.5 -2.015,4.5 0,2.485 0,0"
                 inkscape:connector-curvature="0" />
            </g>
            <g
               transform="translate(29,21.5)"
               id="g317">
              <path
                 id="path319"
                 style="fill:#ffffff;fill-opacity:1;fill-rule:nonzero;stroke:none"
                 d="M 0,0 C 0,-2.485 -2.015,-4.5 -4.5,-4.5 -6.985,-4.5 -9,-2.485 -9,0 -9,2.485 -6.985,4.5 -4.5,4.5 -2.015,4.5 0,2.485 0,0"
                 inkscape:connector-curvature="0" />
            </g>
            <g
               transform="translate(12,22)"
               id="g321">
              <path
                 id="path323"
                 style="fill:#66757f;fill-opacity:1;fill-rule:nonzero;stroke:none"
                 d="M 0,0 Z"
                 inkscape:connector-curvature="0" />
            </g>
            <g
               transform="translate(12,22)"
               id="g325">
              <path
                 id="path327"
                 style="fill:#66757f;fill-opacity:1;fill-rule:nonzero;stroke:none"
                 d="M 0,0 Z"
                 inkscape:connector-curvature="0" />
            </g>
            <g
               transform="translate(26,19)"
               id="g329">
              <path
                 id="path331"
                 style="fill:#dd2e44;fill-opacity:1;fill-rule:nonzero;stroke:none"
                 d="m 0,0 c 0,-0.553 -0.447,-1 -1,-1 l -1,0 c -0.553,0 -1,0.447 -1,1 l 0,5 c 0,0.552 0.447,1 1,1 l 1,0 C -0.447,6 0,5.552 0,5 L 0,0 Z"
                 inkscape:connector-curvature="0" />
            </g>
            <g
               transform="translate(13,19)"
               id="g333">
              <path
                 id="path82"
                 style="fill:#dd2e44;fill-opacity:1;fill-rule:nonzero;stroke:none"
                 d="m 0,0 c 0,-0.553 -0.448,-1 -1,-1 l -1,0 c -0.552,0 -1,0.447 -1,1 l 0,5 c 0,0.552 0.448,1 1,1 l 1,0 C -0.448,6 0,5.552 0,5 L 0,0 Z"
                 inkscape:connector-curvature="0" />
            </g>
            <g
               transform="translate(29,10.5)"
               id="g84">
              <path
                 id="path86"
                 style="fill:#f5f8fa;fill-opacity:1;fill-rule:nonzero;stroke:none"
                 d="m 0,0 c 0,-1.381 -1.119,-2.5 -2.5,-2.5 l -17,0 c -1.381,0 -2.5,1.119 -2.5,2.5 0,1.381 1.119,2.5 2.5,2.5 l 17,0 C -1.119,2.5 0,1.381 0,0"
                 inkscape:connector-curvature="0" />
            </g>
            <path
               id="path88"
               style="fill:#ccd6dd;fill-opacity:1;fill-rule:nonzero;stroke:none"
               d="m 19,8 -2,0 0,5 2,0 0,-5 z"
               inkscape:connector-curvature="0" />
            <path
               id="path90"
               style="fill:#ccd6dd;fill-opacity:1;fill-rule:nonzero;stroke:none"
               d="m 14,8 -2,0 0,5 2,0 0,-5 z"
               inkscape:connector-curvature="0" />
            <path
               id="path92"
               style="fill:#ccd6dd;fill-opacity:1;fill-rule:nonzero;stroke:none"
               d="m 24,8 -2,0 0,5 2,0 0,-5 z"
               inkscape:connector-curvature="0" />
          </g>
        </g>
        <g
           id="g94">
          <g
             clip-path="url(#clipPath98)"
             id="g96">
            <path
               id="path102"
               style="fill:#ccd6dd;fill-opacity:1;fill-rule:nonzero;stroke:none"
               d="M 9,8 7,8 7,13 9,13 9,8 Z"
               inkscape:connector-curvature="0" />
            <path
               id="path104"
               style="fill:#ccd6dd;fill-opacity:1;fill-rule:nonzero;stroke:none"
               d="m 29,8 -2,0 0,5 2,0 0,-5 z"
               inkscape:connector-curvature="0" />
          </g>
        </g>
        <g
           id="g106">
          <g
             clip-path="url(#clipPath110)"
             id="g108">
            <g
               transform="translate(30,3)"
               id="g114">
              <path
                 id="path116"
                 style="fill:#55acee;fill-opacity:1;fill-rule:nonzero;stroke:none"
                 d="M 0,0 Z"
                 inkscape:connector-curvature="0" />
            </g>
            <g
               transform="translate(30,3)"
               id="g118">
              <path
                 id="path120"
                 style="fill:#55acee;fill-opacity:1;fill-rule:nonzero;stroke:none"
                 d="M 0,0 Z"
                 inkscape:connector-curvature="0" />
            </g>
          </g>
        </g>
      </g>
    </g>
    <g
       transform="matrix(-0.40069384,-0.40069384,0.40069384,-0.40069384,76.73255,99.866276)"
       id="g351">
      <g
         transform="matrix(1.25,0,0,-1.25,0,45)"
         id="g353">
        <g
           id="g355">
          <g
             clip-path="url(#clipPath16)"
             id="g357">
            <g
               transform="translate(13.5,12.5109)"
               id="g359">
              <path
                 id="path361"
                 style="fill:#662113;fill-opacity:1;fill-rule:nonzero;stroke:none"
                 d="M 0,0 C 0,0 -1.103,-1.377 -0.737,-3.268 -0.512,-4.433 0.577,-5.635 2.038,-5.86 2.526,-5.936 2.764,-6.888 2.629,-7.588 2.476,-8.38 1.93,-9.49 1.63,-10.053 1.329,-10.617 0.74,-10.615 0.015,-11.266 -0.49,-11.72 -0.662,-12.511 0.202,-12.511 l 3.821,0 c 0.766,0 1.255,0.469 1.418,1.241 0.226,1.071 1.094,5.148 0.846,5.936 C 6.11,-4.77 5.51,-4.32 5.123,-3.231 4.836,-2.423 5.5,-0.263 5.5,-0.263 L 0,0 Z"
                 inkscape:connector-curvature="0" />
            </g>
            <g
               transform="translate(2.5397,13.1182)"
               id="g363">
              <path
                 id="path365"
                 style="fill:#662113;fill-opacity:1;fill-rule:nonzero;stroke:none"
                 d="m 0,0 c 0,0 0.797,0.724 1.344,0.937 0.547,0.214 2.554,0.058 3.065,0.165 0.511,0.106 1.363,0.97 1.363,0.97 0,0 2.144,-0.835 2.166,-1.04 0.023,-0.206 -1.439,-1.618 -1.76,-1.987 -0.321,-0.368 -2.316,0.537 -2.91,0.537 -0.594,0 -1.842,-0.534 -2.282,-0.783 -0.439,-0.249 -0.51,0.131 -0.261,0.404 0,0 -0.401,-0.49 -0.539,-0.31 -0.138,0.18 0.231,0.572 0.231,0.572 0,0 -0.345,-0.439 -0.535,-0.297 C -0.308,-0.689 -0.312,-0.376 0,0"
                 inkscape:connector-curvature="0" />
            </g>
            <g
               transform="translate(14.4155,29.3028)"
               id="g367">
              <path
                 id="path369"
                 style="fill:#662113;fill-opacity:1;fill-rule:nonzero;stroke:none"
                 d="m 0,0 c -0.233,-0.62 -0.831,-1.637 0.355,-1.72 1.185,-0.083 0.021,-1.248 -1.031,-1.323 -1.052,-0.075 -4.471,1.39 -4.095,2.254 0.376,0.864 1.88,1.803 3.044,1.578 C -0.563,0.563 0,0 0,0"
                 inkscape:connector-curvature="0" />
            </g>
            <g
               transform="translate(20.8125,30.5469)"
               id="g371">
              <path
                 id="path373"
                 style="fill:#f4900c;fill-opacity:1;fill-rule:nonzero;stroke:none"
                 d="m 0,0 c -0.078,-0.578 -0.234,-1 -0.344,-0.984 -0.109,0.015 -0.375,1.062 -0.375,1.062 0,0 -0.203,-1.156 -0.343,-1.14 C -1.203,-1.047 -1.344,0 -1.344,0 c 0,0 -0.234,-1.063 -0.39,-1.063 C -1.891,-1.062 -2.094,0 -2.094,0 c 0,0 -0.17,-1.052 -0.295,-1.067 -0.125,-0.016 -0.502,0.959 -0.502,0.959 0,0 -0.218,-0.986 -0.328,-0.986 -0.109,0 -0.422,0.986 -0.422,0.986 0,0 -0.187,-0.97 -0.281,-0.97 -0.094,0 -0.437,0.97 -0.437,0.97 0,0 -0.139,-1.04 -0.235,-1.064 -0.256,-0.062 -0.72,0.891 -0.72,0.891 0,0 0.218,-1.061 0.08,-1.079 -0.235,-0.032 -0.985,0.735 -0.985,0.735 0,0 0.953,0.953 1.719,1.109 0.766,0.157 4.016,0.782 4.391,0.641 C 0.266,0.984 0,0 0,0"
                 inkscape:connector-curvature="0" />
            </g>
            <g
               transform="translate(20.1757,27.8055)"
               id="g375">
              <path
                 id="path377"
                 style="fill:#f4900c;fill-opacity:1;fill-rule:nonzero;stroke:none"
                 d="M 0,0 C -0.137,0.567 -0.336,0.97 -0.444,0.944 -0.551,0.917 -0.575,-0.06 -0.575,-0.06 c 0,0 -0.453,1.037 -0.592,1.007 -0.138,-0.03 -0.061,-1.074 -0.061,-1.074 0,0 -0.452,1.021 -0.607,1.005 C -1.99,0.862 -1.927,-0.2 -1.927,-0.2 c 0,0 -0.522,1.093 -0.648,1.095 -0.126,0.003 -0.141,-1.067 -0.141,-1.067 0,0 -0.387,1.013 -0.496,1.001 -0.109,-0.011 -0.231,-1.108 -0.231,-1.108 0,0 -0.289,0.976 -0.383,0.966 -0.093,-0.01 -0.256,-1.016 -0.256,-1.016 0,0 -0.294,0.865 -0.39,0.886 -0.097,0.021 -0.221,-0.903 -0.221,-0.903 0,0 -0.289,0.683 -0.42,0.732 -0.131,0.049 -0.216,-0.879 -0.216,-0.879 0,0 0.125,-0.377 0.903,-0.453 0.778,-0.077 4.075,-0.363 4.433,-0.184 C 0.366,-0.952 0,0 0,0"
                 inkscape:connector-curvature="0" />
            </g>
            <g
               transform="translate(11.0346,28.5139)"
               id="g379">
              <path
                 id="path381"
                 style="fill:#ab7e59;fill-opacity:1;fill-rule:nonzero;stroke:none"
                 d="M 0,0 C 0.114,0.683 2.141,-0.338 2.554,-0.225 2.968,-0.113 4.62,1.54 5.071,1.578 5.522,1.615 9.542,1.69 9.992,1.916 10.443,2.141 10.18,3.907 9.767,4.395 9.354,4.884 7.889,5.973 6.161,6.161 4.433,6.349 3.231,6.386 2.667,6.687 2.104,6.987 0.864,7.1 0,6.687 -0.864,6.273 -3.944,5.785 -5.222,4.508 -6.499,3.231 -7.964,1.54 -8.302,-1.202 c -0.338,-2.742 0.516,-4.573 1.052,-5.582 0.393,-0.742 1.502,-3.509 1.765,-4.598 0.263,-1.09 1.846,-4.978 4.934,-5.88 3.089,-0.901 5.359,-2.648 8.177,-3.099 3.208,-0.513 9.091,0.188 12.096,2.067 3.005,1.878 4.47,3.794 4.47,6.31 0,2.517 -1.615,5.26 -3.869,5.335 -2.254,0.075 -0.789,-0.676 -0.113,-0.827 0.676,-0.15 1.991,-1.765 1.691,-3.193 -0.301,-1.427 -0.902,-2.517 -2.517,-2.554 -1.615,-0.038 -3.306,1.765 -4.208,2.968 -0.901,1.202 -4.958,3.339 -6.874,3.454 -1.916,0.114 -5.898,0.114 -6.386,1.316 -0.489,1.202 -0.376,1.804 -0.038,1.954 0.338,0.15 2.217,0.563 3.531,0.601 1.315,0.037 3.644,0.375 3.945,0.826 0.3,0.451 0.225,1.39 -0.113,1.428 -0.338,0.037 -2.442,-0.188 -3.043,-0.188 -0.601,0 -0.939,0.488 -1.578,0.301 C 3.982,-0.751 2.817,-1.465 2.329,-1.39 1.841,-1.315 -0.038,-0.225 0,0"
                 inkscape:connector-curvature="0" />
            </g>
            <g
               transform="translate(26.9516,9.7475)"
               id="g383">
              <path
                 id="path385"
                 style="fill:#8b5e3c;fill-opacity:1;fill-rule:nonzero;stroke:none"
                 d="m 0,0 c -2.693,-0.388 -7.846,0.466 -9.358,0.982 -1.512,0.516 -4.615,1.318 -6.801,1.781 -2.186,0.464 -3.884,2.299 -5.084,4.099 0.519,-1.484 2.069,-4.567 4.775,-5.357 3.089,-0.902 5.359,-2.648 8.177,-3.099 C -5.083,-2.107 0.8,-1.406 3.805,0.472 4.896,1.154 5.777,1.841 6.465,2.559 5.518,1.851 2.68,0.386 0,0"
                 inkscape:connector-curvature="0" />
            </g>
            <g
               transform="translate(12.8164,34.4318)"
               id="g387">
              <path
                 id="path389"
                 style="fill:#8b5e3c;fill-opacity:1;fill-rule:nonzero;stroke:none"
                 d="m 0,0 c 1.336,-0.208 0.203,-0.909 2.683,-0.904 0,0 -1.873,-1 -2.624,-1 -1.297,0 -1.568,0.644 -1.567,1.182 C -1.508,-0.238 -0.7,0.109 0,0"
                 inkscape:connector-curvature="0" />
            </g>
            <g
               transform="translate(13,33.5)"
               id="g391">
              <path
                 id="path393"
                 style="fill:#292f33;fill-opacity:1;fill-rule:nonzero;stroke:none"
                 d="M 0,0 C 0,-0.276 -0.224,-0.5 -0.5,-0.5 -0.776,-0.5 -1,-0.276 -1,0 -1,0.276 -0.776,0.5 -0.5,0.5 -0.224,0.5 0,0.276 0,0"
                 inkscape:connector-curvature="0" />
            </g>
            <g
               transform="translate(17.1319,11.2337)"
               id="g395">
              <path
                 id="path397"
                 style="fill:#ab7e59;fill-opacity:1;fill-rule:nonzero;stroke:none"
                 d="M 0,0 C 0,0 0.424,-1.503 1.796,-2.855 3.168,-4.207 5.917,-4.508 6.406,-4.583 6.894,-4.658 7.423,-4.846 7.648,-5.522 7.874,-6.198 8.299,-8.213 7.998,-8.776 7.697,-9.34 6.45,-9.654 6.111,-10.293 5.921,-10.65 5.428,-11.234 6.292,-11.234 l 4.576,0 c 0.766,0 0.954,0.603 0.954,1.392 0,0.789 0.263,2.066 -0.226,3.456 -0.488,1.39 -0.676,3.493 -1.502,3.719 -0.827,0.225 -2.142,2.479 -2.142,2.479 L 0,0 Z"
                 inkscape:connector-curvature="0" />
            </g>
            <g
               transform="translate(4.3548,9.2523)"
               id="g399">
              <path
                 id="path401"
                 style="fill:#ab7e59;fill-opacity:1;fill-rule:nonzero;stroke:none"
                 d="m 0,0 c 0,0 0.559,0.996 1.037,1.395 0.478,0.398 2.55,0.916 3.028,1.195 0.478,0.279 1.046,1.434 1.046,1.434 0,0 2.437,-0.119 2.528,-0.319 C 7.731,3.506 6.735,1.594 6.536,1.116 6.336,0.637 4.025,0.876 3.428,0.677 2.83,0.478 1.754,-0.478 1.396,-0.877 1.037,-1.275 0.838,-0.916 0.997,-0.558 c 0,0 -0.239,-0.628 -0.438,-0.493 -0.199,0.135 0.04,0.653 0.04,0.653 0,0 -0.199,-0.558 -0.438,-0.479 C -0.078,-0.797 -0.188,-0.483 0,0"
                 inkscape:connector-curvature="0" />
            </g>
            <g
               transform="translate(15.7104,20.337)"
               id="g403">
              <path
                 id="path405"
                 style="fill:#8b5e3c;fill-opacity:1;fill-rule:nonzero;stroke:none"
                 d="m 0,0 c 0,-0.318 -0.258,-0.576 -0.576,-0.576 -0.318,0 -0.576,0.258 -0.576,0.576 0,0.318 0.258,0.576 0.576,0.576 C -0.258,0.576 0,0.318 0,0"
                 inkscape:connector-curvature="0" />
            </g>
            <g
               transform="translate(18.7712,19.0734)"
               id="g407">
              <path
                 id="path409"
                 style="fill:#8b5e3c;fill-opacity:1;fill-rule:nonzero;stroke:none"
                 d="m 0,0 c 0,-0.453 -0.367,-0.82 -0.82,-0.82 -0.452,0 -0.819,0.367 -0.819,0.82 0,0.453 0.367,0.82 0.819,0.82 C -0.367,0.82 0,0.453 0,0"
                 inkscape:connector-curvature="0" />
            </g>
            <g
               transform="translate(17.1319,20.7451)"
               id="g411">
              <path
                 id="path413"
                 style="fill:#8b5e3c;fill-opacity:1;fill-rule:nonzero;stroke:none"
                 d="m 0,0 c 0,-0.241 -0.195,-0.436 -0.436,-0.436 -0.241,0 -0.436,0.195 -0.436,0.436 0,0.241 0.195,0.436 0.436,0.436 C -0.195,0.436 0,0.241 0,0"
                 inkscape:connector-curvature="0" />
            </g>
            <g
               transform="translate(20.0868,20.5054)"
               id="g415">
              <path
                 id="path417"
                 style="fill:#8b5e3c;fill-opacity:1;fill-rule:nonzero;stroke:none"
                 d="m 0,0 c 0,-0.228 -0.185,-0.412 -0.412,-0.412 -0.228,0 -0.413,0.184 -0.413,0.412 0,0.228 0.185,0.412 0.413,0.412 C -0.185,0.412 0,0.228 0,0"
                 inkscape:connector-curvature="0" />
            </g>
            <g
               transform="translate(22.6996,19.3307)"
               id="g419">
              <path
                 id="path421"
                 style="fill:#8b5e3c;fill-opacity:1;fill-rule:nonzero;stroke:none"
                 d="m 0,0 c 0,-0.421 -0.341,-0.762 -0.762,-0.762 -0.421,0 -0.763,0.341 -0.763,0.762 0,0.421 0.342,0.762 0.763,0.762 C -0.341,0.762 0,0.421 0,0"
                 inkscape:connector-curvature="0" />
            </g>
            <g
               transform="translate(25.5952,15.6776)"
               id="g423">
              <path
                 id="path425"
                 style="fill:#8b5e3c;fill-opacity:1;fill-rule:nonzero;stroke:none"
                 d="m 0,0 c 0,-0.27 -0.218,-0.488 -0.488,-0.488 -0.269,0 -0.488,0.218 -0.488,0.488 0,0.27 0.219,0.488 0.488,0.488 C -0.218,0.488 0,0.27 0,0"
                 inkscape:connector-curvature="0" />
            </g>
            <g
               transform="translate(21.0626,17.7658)"
               id="g88">
              <path
                 id="path428"
                 style="fill:#8b5e3c;fill-opacity:1;fill-rule:nonzero;stroke:none"
                 d="m 0,0 c 0,-0.27 -0.218,-0.488 -0.488,-0.488 -0.269,0 -0.488,0.218 -0.488,0.488 0,0.269 0.219,0.488 0.488,0.488 C -0.218,0.488 0,0.269 0,0"
                 inkscape:connector-curvature="0" />
            </g>
            <g
               transform="translate(25.4781,17.7658)"
               id="g92">
              <path
                 id="path94"
                 style="fill:#8b5e3c;fill-opacity:1;fill-rule:nonzero;stroke:none"
                 d="m 0,0 c 0,-0.27 -0.218,-0.488 -0.488,-0.488 -0.269,0 -0.488,0.218 -0.488,0.488 0,0.269 0.219,0.488 0.488,0.488 C -0.218,0.488 0,0.269 0,0"
                 inkscape:connector-curvature="0" />
            </g>
            <g
               transform="translate(23.9852,18.0195)"
               id="g432">
              <path
                 id="path98"
                 style="fill:#8b5e3c;fill-opacity:1;fill-rule:nonzero;stroke:none"
                 d="m 0,0 c 0,-0.399 -0.323,-0.722 -0.722,-0.722 -0.399,0 -0.722,0.323 -0.722,0.722 0,0.399 0.323,0.722 0.722,0.722 C -0.323,0.722 0,0.399 0,0"
                 inkscape:connector-curvature="0" />
            </g>
          </g>
        </g>
      </g>
    </g>
    <g
       transform="matrix(-0.85595086,-0.27811529,0.27811529,-0.85595086,71.040812,139.92192)"
       id="g435">
      <g
         transform="matrix(1.25,0,0,-1.25,0,45)"
         id="g437">
        <g
           id="g439">
          <g
             clip-path="url(#clipPath16)"
             id="g441">
            <g
               transform="translate(12.75,18.25)"
               id="g443">
              <path
                 id="path445"
                 style="fill:#d99e82;fill-opacity:1;fill-rule:nonzero;stroke:none"
                 d="m 0,0 c 1.226,-2.195 1.855,1.361 9.313,2.625 7.457,1.264 13.728,-4.454 13.859,-5.413 0.131,-0.958 -4.448,-9.462 -9.463,-9.462 l -15.71,0 c -4.142,0 -7.022,7.224 -3.999,11.438 0,0 4.5,3.5 6,0.812"
                 inkscape:connector-curvature="0" />
            </g>
            <g
               transform="translate(13.0083,17.8643)"
               id="g447">
              <path
                 id="path449"
                 style="fill:#c1694f;fill-opacity:1;fill-rule:nonzero;stroke:none"
                 d="m 0,0 c -4.989,-6.937 -6.04,-11.864 -2.259,-11.864 -4.142,0 -6.577,6.187 -4.468,11.031 0.463,1.064 1.758,2.492 1.758,2.492 L -0.79,1.667 C -0.627,1.347 -0.191,0.301 0,0"
                 inkscape:connector-curvature="0" />
            </g>
            <g
               transform="translate(20.0625,13.25)"
               id="g451">
              <path
                 id="path453"
                 style="fill:#e1e8ed;fill-opacity:1;fill-rule:nonzero;stroke:none"
                 d="M 0,0 C 6.672,2.682 15.729,3.171 15.859,2.212 15.99,1.254 11.411,-7.25 6.396,-7.25 l -14.646,0 c -4.143,0 1.232,4.429 8.25,7.25"
                 inkscape:connector-curvature="0" />
            </g>
            <g
               transform="translate(25.3594,14.875)"
               id="g455">
              <path
                 id="path457"
                 style="fill:#292f33;fill-opacity:1;fill-rule:nonzero;stroke:none"
                 d="M 0,0 C 6,1.312 10.468,1.282 10.563,0.587 10.642,0.009 9.004,-3.32 6.59,-5.867 8.794,-3.063 8.01,0.246 0,0"
                 inkscape:connector-curvature="0" />
            </g>
            <g
               transform="translate(7.125,29.875)"
               id="g459">
              <path
                 id="path461"
                 style="fill:#3e721d;fill-opacity:1;fill-rule:nonzero;stroke:none"
                 d="m 0,0 c 1.562,4.937 10.439,4.143 10.063,-0.687 -0.378,-4.829 -6.454,-7.86 -4.18,-11.324 -1.586,-1.38 -5.015,-0.913 -6.727,-0.833 0.702,1.351 1.381,2.632 1.813,3.406 C 3.884,-4.203 -1.163,-3.674 0,0"
                 inkscape:connector-curvature="0" />
            </g>
            <g
               transform="translate(1.8926,26.9551)"
               id="g463">
              <path
                 id="path465"
                 style="fill:#ffcc4d;fill-opacity:1;fill-rule:nonzero;stroke:none"
                 d="m 0,0 c 0.568,1.1 0.549,-0.106 3.352,-0.142 1.554,-0.02 1.463,0.56 1.664,1.621 0.042,0.223 0.776,-1.616 2.061,-1.807 3.554,-0.531 1.879,-1.94 0,-2.261 C 6.176,-2.743 5.067,-2.908 3.14,-2.744 0.62,-2.532 -0.628,-1.216 0,0"
                 inkscape:connector-curvature="0" />
            </g>
            <g
               transform="translate(12.5024,19.375)"
               id="g467">
              <path
                 id="path469"
                 style="fill:#f5f8fa;fill-opacity:1;fill-rule:nonzero;stroke:none"
                 d="m 0,0 c 0.044,-0.625 0.506,-1.511 0.506,-1.511 -1.016,-1.473 -5.643,-3.016 -7.354,-2.929 0.096,0.627 0.283,1.362 0.627,2.096 C -4.377,-1.873 -1.561,-1.273 0,0"
                 inkscape:connector-curvature="0" />
            </g>
            <g
               transform="translate(11.708,29.8486)"
               id="g471">
              <path
                 id="path473"
                 style="fill:#292f33;fill-opacity:1;fill-rule:nonzero;stroke:none"
                 d="m 0,0 c 0,-0.716 -0.58,-1.296 -1.296,-1.296 -0.716,0 -1.295,0.58 -1.295,1.296 0,0.716 0.579,1.295 1.295,1.295 C -0.58,1.295 0,0.716 0,0"
                 inkscape:connector-curvature="0" />
            </g>
          </g>
        </g>
      </g>
    </g>
    <g
       transform="matrix(-0.37460659,0.92718385,-0.92718385,-0.37460659,177.72534,55.314369)"
       id="g475">
      <g
         transform="matrix(1.25,0,0,-1.25,0,47.5)"
         id="g477">
        <g
           id="g479">
          <g
             clip-path="url(#clipPath16)"
             id="g481">
            <g
               transform="translate(37,19)"
               id="g483">
              <path
                 id="path485"
                 style="fill:#f5f8fa;fill-opacity:1;fill-rule:nonzero;stroke:none"
                 d="m 0,0 c 0,-9.941 -8.059,-18 -18,-18 -9.941,0 -18,8.059 -18,18 0,9.941 8.059,18 18,18 C -8.059,18 0,9.941 0,0"
                 inkscape:connector-curvature="0" />
            </g>
            <g
               transform="translate(19,26)"
               id="g487">
              <path
                 id="path489"
                 style="fill:#ccd6dd;fill-opacity:1;fill-rule:nonzero;stroke:none"
                 d="m 0,0 c -0.552,0 -1,0.448 -1,1 l 0,7 C -1,8.552 -0.552,9 0,9 0.552,9 1,8.552 1,8 L 1,1 C 1,0.448 0.552,0 0,0"
                 inkscape:connector-curvature="0" />
            </g>
            <g
               transform="translate(12.417,21.4995)"
               id="g491">
              <path
                 id="path493"
                 style="fill:#ccd6dd;fill-opacity:1;fill-rule:nonzero;stroke:none"
                 d="M 0,0 C -0.1,0 -0.202,0.015 -0.302,0.047 L -8.343,2.588 C -8.87,2.755 -9.162,3.317 -8.996,3.843 -8.83,4.37 -8.265,4.662 -7.741,4.496 L 0.301,1.954 C 0.828,1.788 1.12,1.226 0.953,0.699 0.818,0.273 0.424,0 0,0"
                 inkscape:connector-curvature="0" />
            </g>
            <g
               transform="translate(26.042,21.791)"
               id="g495">
              <path
                 id="path497"
                 style="fill:#ccd6dd;fill-opacity:1;fill-rule:nonzero;stroke:none"
                 d="m 0,0 c -0.434,0 -0.833,0.285 -0.96,0.722 -0.154,0.53 0.151,1.085 0.682,1.239 l 6.75,1.958 C 7.003,4.073 7.557,3.767 7.71,3.238 7.864,2.707 7.559,2.152 7.028,1.999 L 0.278,0.04 C 0.186,0.013 0.092,0 0,0"
                 inkscape:connector-curvature="0" />
            </g>
            <g
               transform="translate(28.043,6.833)"
               id="g499">
              <path
                 id="path501"
                 style="fill:#ccd6dd;fill-opacity:1;fill-rule:nonzero;stroke:none"
                 d="m 0,0 c -0.306,0 -0.606,0.14 -0.803,0.403 l -5.459,7.333 c -0.33,0.443 -0.238,1.07 0.205,1.399 0.443,0.331 1.07,0.238 1.399,-0.205 L 0.801,1.597 C 1.131,1.154 1.039,0.527 0.596,0.198 0.417,0.064 0.207,0 0,0"
                 inkscape:connector-curvature="0" />
            </g>
            <g
               transform="translate(9.749,6.916)"
               id="g503">
              <path
                 id="path505"
                 style="fill:#ccd6dd;fill-opacity:1;fill-rule:nonzero;stroke:none"
                 d="M 0,0 C -0.197,0 -0.396,0.058 -0.57,0.179 -1.023,0.494 -1.135,1.117 -0.82,1.57 L 4.305,8.945 C 4.62,9.399 5.243,9.512 5.697,9.196 6.15,8.881 6.262,8.258 5.947,7.805 L 0.822,0.43 C 0.628,0.149 0.316,0 0,0"
                 inkscape:connector-curvature="0" />
            </g>
          </g>
        </g>
        <g
           id="g507">
          <g
             clip-path="url(#clipPath48-soccer)"
             id="g46">
            <g
               transform="translate(4.4995,9.9375)"
               id="g510">
              <path
                 id="path512"
                 style="fill:#ccd6dd;fill-opacity:1;fill-rule:nonzero;stroke:none"
                 d="m 0,0 c -0.44,0 -0.844,0.293 -0.965,0.738 l -2.187,8.063 c -0.145,0.532 0.17,1.082 0.703,1.227 0.535,0.14 1.083,-0.171 1.227,-0.704 L 0.966,1.262 C 1.11,0.729 0.795,0.18 0.262,0.035 0.175,0.011 0.086,0 0,0"
                 inkscape:connector-curvature="0" />
            </g>
            <g
               transform="translate(23,3)"
               id="g514">
              <path
                 id="path516"
                 style="fill:#ccd6dd;fill-opacity:1;fill-rule:nonzero;stroke:none"
                 d="m 0,0 -9,0 c -0.552,0 -1,0.447 -1,1 0,0.553 0.448,1 1,1 L 0,2 C 0.553,2 1,1.553 1,1 1,0.447 0.553,0 0,0"
                 inkscape:connector-curvature="0" />
            </g>
            <g
               transform="translate(33.126,9.875)"
               id="g518">
              <path
                 id="path520"
                 style="fill:#ccd6dd;fill-opacity:1;fill-rule:nonzero;stroke:none"
                 d="m 0,0 c -0.079,0 -0.16,0.009 -0.24,0.029 -0.536,0.132 -0.864,0.674 -0.732,1.21 l 2.125,8.625 c 0.133,0.536 0.679,0.862 1.21,0.732 0.536,-0.132 0.865,-0.674 0.732,-1.21 L 0.97,0.761 C 0.857,0.305 0.449,0 0,0"
                 inkscape:connector-curvature="0" />
            </g>
            <g
               transform="translate(31.3115,29.3125)"
               id="g522">
              <path
                 id="path524"
                 style="fill:#ccd6dd;fill-opacity:1;fill-rule:nonzero;stroke:none"
                 d="m 0,0 c -0.17,0 -0.342,0.043 -0.5,0.134 l -7.563,4.375 c -0.477,0.277 -0.641,0.888 -0.364,1.367 0.276,0.478 0.886,0.643 1.366,0.365 L 0.502,1.866 C 0.979,1.589 1.144,0.978 0.866,0.499 0.682,0.179 0.346,0 0,0"
                 inkscape:connector-curvature="0" />
            </g>
            <g
               transform="translate(6.501,29.3125)"
               id="g526">
              <path
                 id="path528"
                 style="fill:#ccd6dd;fill-opacity:1;fill-rule:nonzero;stroke:none"
                 d="m 0,0 c -0.312,0 -0.618,0.145 -0.813,0.417 -0.322,0.449 -0.22,1.074 0.229,1.395 L 5.604,6.25 C 6.053,6.572 6.677,6.469 6.999,6.021 7.321,5.571 7.218,4.947 6.77,4.625 L 0.582,0.187 C 0.405,0.061 0.202,0 0,0"
                 inkscape:connector-curvature="0" />
            </g>
            <g
               transform="translate(26.4932,23.4839)"
               id="g530">
              <path
                 id="path532"
                 style="fill:#292f33;fill-opacity:1;fill-rule:nonzero;stroke:none"
                 d="M 0,0 -7.208,5.083 C -7.556,5.328 -8.022,5.327 -8.37,5.077 l -7.167,-5.167 c -0.343,-0.247 -0.493,-0.684 -0.375,-1.091 l 2.5,-8.582 c 0.124,-0.427 0.516,-0.721 0.96,-0.721 l 8.959,0 c 0.43,0 0.81,0.275 0.948,0.681 l 2.917,8.667 C 0.513,-0.717 0.361,-0.255 0,0"
                 inkscape:connector-curvature="0" />
            </g>
            <g
               transform="translate(7.7744,31.6323)"
               id="g534">
              <path
                 id="path536"
                 style="fill:#292f33;fill-opacity:1;fill-rule:nonzero;stroke:none"
                 d="m 0,0 c -0.19,0.233 -0.474,0.368 -0.774,0.368 l -3,0 c -0.217,0 -0.427,-0.071 -0.601,-0.201 l -4,-3 c -0.251,-0.188 -0.399,-0.484 -0.399,-0.799 l 0,-7.584 c 0,-0.292 0.128,-0.57 0.35,-0.76 l 2.291,-1.958 c 0.183,-0.156 0.414,-0.24 0.65,-0.24 0.058,0 0.117,0.005 0.175,0.015 0.294,0.052 0.55,0.234 0.697,0.494 l 3.375,6 c 0.05,0.091 0.087,0.189 0.108,0.291 l 1.334,6.542 C 0.266,-0.538 0.19,-0.232 0,0"
                 inkscape:connector-curvature="0" />
            </g>
            <g
               transform="translate(24.7354,38.1484)"
               id="g538">
              <path
                 id="path540"
                 style="fill:#292f33;fill-opacity:1;fill-rule:nonzero;stroke:none"
                 d="m 0,0 c -0.077,0.378 -0.437,0.634 -0.811,0.598 l -10.292,-1.042 c -0.293,-0.03 -0.52,-0.174 -0.614,-0.453 -0.08,-0.174 -0.858,-1.6 -1.384,-2.557 -0.117,-0.213 -0.124,-0.471 -0.017,-0.69 0.106,-0.219 0.313,-0.372 0.553,-0.412 l 6.375,-1.041 c 0.04,-0.007 0.081,-0.01 0.121,-0.01 0.041,0 0.082,0.003 0.122,0.01 l 6.084,1 c 0.2,0.033 0.38,0.146 0.495,0.314 0.116,0.168 0.158,0.375 0.118,0.575 L 0,0 Z"
                 inkscape:connector-curvature="0" />
            </g>
            <g
               transform="translate(38.6973,20.3589)"
               id="g542">
              <path
                 id="path544"
                 style="fill:#292f33;fill-opacity:1;fill-rule:nonzero;stroke:none"
                 d="m 0,0 -4.083,10.333 c -0.106,0.271 -0.36,0.457 -0.65,0.475 l -3.334,0.209 c -0.229,0.013 -0.455,-0.076 -0.61,-0.249 -0.152,-0.173 -0.218,-0.402 -0.175,-0.63 L -7.685,3.94 c 0.017,-0.086 0.048,-0.148 0.093,-0.224 1.492,-2.504 3.153,-5.301 3.381,-5.781 0.024,-0.084 0.063,-0.08 0.114,-0.151 0.141,-0.196 0.372,-0.143 0.613,-0.143 l 0.006,0 c 0.249,0 0.375,-0.155 3.181,1.619 C 0.008,-0.547 0.133,-0.335 0,0"
                 inkscape:connector-curvature="0" />
            </g>
            <g
               transform="translate(15.3491,4.168)"
               id="g546">
              <path
                 id="path548"
                 style="fill:#292f33;fill-opacity:1;fill-rule:nonzero;stroke:none"
                 d="m 0,0 -4.5,5 c -0.06,0.066 -0.131,0.122 -0.211,0.163 -5.885,3.069 -5.994,3.106 -6.066,3.13 -0.077,0.025 -0.16,0.039 -0.241,0.039 -0.677,0 -0.75,-0.092 -1.645,-3.956 -0.012,-0.05 -0.019,-0.102 -0.02,-0.154 l -0.083,-4.125 c -0.005,-0.273 0.138,-0.527 0.374,-0.663 l 7.333,-4.25 c 0.118,-0.069 0.247,-0.102 0.376,-0.102 0.18,0 0.358,0.064 0.498,0.189 l 4.125,3.667 C 0.09,-0.93 0.18,-0.743 0.191,-0.544 0.202,-0.345 0.133,-0.148 0,0"
                 inkscape:connector-curvature="0" />
            </g>
            <g
               transform="translate(34.9941,8.5557)"
               id="g550">
              <path
                 id="path552"
                 style="fill:#292f33;fill-opacity:1;fill-rule:nonzero;stroke:none"
                 d="M 0,0 -1.209,3.209 C -1.282,3.401 -1.431,3.556 -1.62,3.636 -1.81,3.716 -2.025,3.714 -2.212,3.631 L -8.295,0.964 C -8.401,0.918 -8.495,0.848 -8.569,0.759 l -4.25,-5.083 c -0.129,-0.155 -0.191,-0.353 -0.172,-0.552 0.019,-0.2 0.117,-0.384 0.272,-0.51 4.791,-3.92 4.892,-3.92 5.225,-3.92 0.279,0 0.384,0 6.484,3.867 0.183,0.116 0.307,0.304 0.34,0.518 L 0.039,-0.38 C 0.059,-0.252 0.045,-0.121 0,0"
                 inkscape:connector-curvature="0" />
            </g>
          </g>
        </g>
      </g>
    </g>
    <g
       transform="matrix(0.53530449,0.59451586,-0.59451586,0.53530449,110.18107,59.973776)"
       id="g554">
      <g
         transform="matrix(1.25,0,0,-1.25,0,47.5)"
         id="g556">
        <g
           id="g558">
          <g
             clip-path="url(#clipPath16)"
             id="g560">
            <g
               transform="translate(37,14)"
               id="g562">
              <path
                 id="path564"
                 style="fill:#ffd983;fill-opacity:1;fill-rule:nonzero;stroke:none"
                 d="m 0,0 c 0,-2.071 -8.059,-5 -18,-5 -9.941,0 -18,2.929 -18,5 0,2.071 8.059,5 18,5 C -8.059,5 0,2.071 0,0"
                 inkscape:connector-curvature="0" />
            </g>
            <g
               transform="translate(30,20)"
               id="g566">
              <path
                 id="path568"
                 style="fill:#ffd983;fill-opacity:1;fill-rule:nonzero;stroke:none"
                 d="m 0,0 c 0,-1.566 -4.925,-6 -11,-6 -6.075,0 -10.957,4.434 -10.957,6 0,7 6.957,10 10.957,10 C -7,10 0,7 0,0"
                 inkscape:connector-curvature="0" />
            </g>
            <g
               transform="translate(30,16)"
               id="g570">
              <path
                 id="path572"
                 style="fill:#9266cc;fill-opacity:1;fill-rule:nonzero;stroke:none"
                 d="m 0,0 c -5,-3 -17,-3 -22,0 0,0.492 0.043,3.535 0.043,4 C -16,1 -6,1 0,4 -0.003,3.535 0,0.492 0,0"
                 inkscape:connector-curvature="0" />
            </g>
            <g
               transform="translate(20,13)"
               id="g574">
              <path
                 id="path576"
                 style="fill:#ffffff;fill-opacity:1;fill-rule:nonzero;stroke:none"
                 d="m 0,0 c 0,-1.104 -0.448,-2 -1,-2 -0.553,0 -1,0.896 -1,2 0,1.104 0.447,2 1,2 0.552,0 1,-0.896 1,-2"
                 inkscape:connector-curvature="0" />
            </g>
            <g
               transform="translate(20,19)"
               id="g578">
              <path
                 id="path580"
                 style="fill:#ffffff;fill-opacity:1;fill-rule:nonzero;stroke:none"
                 d="m 0,0 c 0,-1.104 -0.448,-2 -1,-2 -0.553,0 -1,0.896 -1,2 0,1.104 0.447,2 1,2 0.552,0 1,-0.896 1,-2"
                 inkscape:connector-curvature="0" />
            </g>
            <g
               transform="translate(17.5859,13.1719)"
               id="g582">
              <path
                 id="path584"
                 style="fill:#ffffff;fill-opacity:1;fill-rule:nonzero;stroke:none"
                 d="m 0,0 c -0.781,-0.781 -1.731,-1.098 -2.122,-0.707 -0.39,0.391 -0.073,1.34 0.707,2.121 0.782,0.781 1.731,1.098 2.122,0.707 C 1.098,1.73 0.781,0.78 0,0"
                 inkscape:connector-curvature="0" />
            </g>
            <g
               transform="translate(21.8281,17.4141)"
               id="g586">
              <path
                 id="path588"
                 style="fill:#ffffff;fill-opacity:1;fill-rule:nonzero;stroke:none"
                 d="m 0,0 c -0.78,-0.781 -1.73,-1.098 -2.121,-0.707 -0.391,0.391 -0.074,1.34 0.707,2.122 0.781,0.78 1.73,1.097 2.121,0.707 C 1.098,1.731 0.781,0.781 0,0"
                 inkscape:connector-curvature="0" />
            </g>
            <g
               transform="translate(16.0005,15)"
               id="g590">
              <path
                 id="path592"
                 style="fill:#ffffff;fill-opacity:1;fill-rule:nonzero;stroke:none"
                 d="M 0,0 C -1.105,0 -2,0.448 -2,1 -2,1.553 -1.105,2 0,2 1.104,2 2,1.553 2,1 2,0.447 1.104,0 0,0"
                 inkscape:connector-curvature="0" />
            </g>
            <g
               transform="translate(22,15)"
               id="g594">
              <path
                 id="path596"
                 style="fill:#ffffff;fill-opacity:1;fill-rule:nonzero;stroke:none"
                 d="M 0,0 C -1.104,-0.001 -2,0.447 -2,1 -2,1.553 -1.104,2 0,2 1.104,2 2,1.553 2,1 2,0.448 1.104,0 0,0"
                 inkscape:connector-curvature="0" />
            </g>
            <g
               transform="translate(16.1719,17.4131)"
               id="g598">
              <path
                 id="path600"
                 style="fill:#ffffff;fill-opacity:1;fill-rule:nonzero;stroke:none"
                 d="M 0,0 C -0.782,0.782 -1.098,1.732 -0.708,2.122 -0.317,2.513 0.633,2.196 1.414,1.415 2.195,0.633 2.512,-0.315 2.121,-0.706 1.73,-1.098 0.78,-0.78 0,0"
                 inkscape:connector-curvature="0" />
            </g>
            <g
               transform="translate(20.4141,13.1709)"
               id="g602">
              <path
                 id="path604"
                 style="fill:#ffffff;fill-opacity:1;fill-rule:nonzero;stroke:none"
                 d="M 0,0 C -0.782,0.78 -1.098,1.73 -0.707,2.121 -0.316,2.513 0.633,2.195 1.414,1.414 2.195,0.634 2.512,-0.316 2.121,-0.707 1.731,-1.097 0.781,-0.781 0,0"
                 inkscape:connector-curvature="0" />
            </g>
            <g
               transform="translate(21,16)"
               id="g606">
              <path
                 id="path608"
                 style="fill:#ffac33;fill-opacity:1;fill-rule:nonzero;stroke:none"
                 d="m 0,0 c 0,-1.104 -0.896,-2 -2,-2 -1.105,0 -2,0.896 -2,2 0,1.104 0.895,2 2,2 1.104,0 2,-0.896 2,-2"
                 inkscape:connector-curvature="0" />
            </g>
          </g>
        </g>
      </g>
    </g>
  </g>
</svg>
