<?xml version="1.0" encoding="UTF-8" standalone="no"?>
<svg
   xmlns:dc="http://purl.org/dc/elements/1.1/"
   xmlns:cc="http://creativecommons.org/ns#"
   xmlns:rdf="http://www.w3.org/1999/02/22-rdf-syntax-ns#"
   xmlns:svg="http://www.w3.org/2000/svg"
   xmlns="http://www.w3.org/2000/svg"
   xmlns:sodipodi="http://sodipodi.sourceforge.net/DTD/sodipodi-0.dtd"
   xmlns:inkscape="http://www.inkscape.org/namespaces/inkscape"
   version="1.1"
   id="svg2"
   viewBox="0 0 200 200"
   height="200px"
   width="200px"
   inkscape:version="0.91 r13725"
   sodipodi:docname="29.svg">
  <metadata
     id="metadata6521">
    <rdf:RDF>
      <cc:Work
         rdf:about="">
        <dc:format>image/svg+xml</dc:format>
        <dc:type
           rdf:resource="http://purl.org/dc/dcmitype/StillImage" />
      </cc:Work>
    </rdf:RDF>
  </metadata>
  <sodipodi:namedview
     pagecolor="#ffffff"
     bordercolor="#666666"
     borderopacity="1"
     objecttolerance="10"
     gridtolerance="10"
     guidetolerance="10"
     inkscape:pageopacity="0"
     inkscape:pageshadow="2"
     inkscape:window-width="1920"
     inkscape:window-height="1060"
     id="namedview6519"
     showgrid="false"
     inkscape:zoom="4.32"
     inkscape:cx="81.481481"
     inkscape:cy="100"
     inkscape:window-x="0"
     inkscape:window-y="0"
     inkscape:window-maximized="1"
     inkscape:current-layer="layer1" />
  
    
    
    <defs id="defs6">

        <clipPath
           id="clipPath28"
           clipPathUnits="userSpaceOnUse">
          <path
             id="path30"
             d="M 4,36 C 0,36 0,32 0,32 L 0,32 0,4 C 0,0 4,0 4,0 l 0,0 28,0 c 4,0 4,4 4,4 l 0,0 0,28 c 0,4 -4,4 -4,4 l 0,0 -28,0 z" />
        </clipPath>


        <clipPath clipPathUnits="userSpaceOnUse" id="clipPath16-rugby">
            <path d="M 0,38 38,38 38,0 0,0 0,38 Z" id="path18"/>
        </clipPath>
        <clipPath clipPathUnits="userSpaceOnUse" id="clipPath28-rugby">
            <path d="M 9.254,28.746 C 2.09,21.582 -0.927,9.561 3.929,3.929 l 0,0 C 9.561,-0.927 21.582,2.09 28.746,9.254 l 0,0 c 7.164,7.164 11.229,17.088 5.324,24.816 l 0,0 c -1.886,1.627 -4.489,2.371 -7.387,2.37 l 0,0 c -5.752,0 -12.665,-2.93 -17.429,-7.694" id="path30"/>
        </clipPath>

        <clipPath clipPathUnits="userSpaceOnUse" id="clipPath16-carrot">
            <path d="M 0,36 36,36 36,0 0,0 0,36 Z" id="path18"/>
        </clipPath>
        <clipPath clipPathUnits="userSpaceOnUse" id="clipPath32-carrot">
            <path d="M 11.815,23.013 C 4.2,15.397 -1.265,2.86 0.502,1.093 l 0,0 c 1.768,-1.768 14.305,3.698 21.92,11.313 l 0,0 c 7.616,7.615 7.562,11.53 4.243,14.85 l 0,0 c -1.328,1.328 -2.752,2.133 -4.47,2.133 l 0,0 c -2.575,0 -5.812,-1.809 -10.38,-6.376" id="path34"/>
        </clipPath>

        <clipPath clipPathUnits="userSpaceOnUse" id="clipPath32-hat">
            <path d="m 5,33.666 c 0,-0.034 0.018,-0.067 0.022,-0.101 l 0,0 C 5.008,33.455 5,33.335 5,33.2 l 0,0 L 6.802,9.616 C 3.299,8.705 1,7.424 1,6 L 1,6 C 1,3.238 9.611,1 19,1 l 0,0 c 9.389,0 18,2.238 18,5 l 0,0 c 0,1.424 -2.298,2.705 -5.801,3.616 l 0,0 L 33,33.184 c 0,0.135 -0.008,0.263 -0.021,0.373 l 0,0 C 32.982,33.591 33,33.632 33,33.666 l 0,0 c 0,1.805 -6.268,3.267 -14,3.267 l 0,0 c -7.732,0 -14,-1.462 -14,-3.267" id="path34"/>
        </clipPath>


        <clipPath clipPathUnits="userSpaceOnUse" id="clipPath48-soccer">
            <path d="M 1,19 C 1,9.059 9.059,1 19,1 l 0,0 c 9.941,0 18,8.059 18,18 l 0,0 c 0,9.941 -8.059,18 -18,18 l 0,0 C 9.059,37 1,28.941 1,19" id="path50"/>
        </clipPath>

        <clipPath clipPathUnits="userSpaceOnUse" id="clipPath28-baguette">
            <path d="M 24.052,31.33 5.126,12.406 C 1.342,8.62 1.288,4.133 2.856,2.564 l 0,0 C 4.424,0.997 8.912,1.049 12.697,4.835 l 0,0 18.925,18.924 c 3.784,3.785 3.837,8.273 2.269,9.841 l 0,0 c -0.605,0.606 -1.647,0.969 -2.915,0.969 l 0,0 c -2.014,0 -4.602,-0.917 -6.924,-3.239" id="path30"/>
        </clipPath>
    </defs>



  <g
     id="layer1">
    <circle
       style="opacity:1;fill:white;stroke:black;stroke-width:1;stroke-miterlimit:4;stroke-dasharray:none;stroke-opacity:0.1"
       id="path4039-0-9"
       cx="100px"
       cy="100px"
       r="90px" />
    <g
       transform="matrix(-0.68910792,0.25081477,-0.25081477,-0.68910792,125.61131,47.276063)"
       id="g5942">
      <g
         transform="matrix(1.25,0,0,-1.25,0,45)"
         id="g10">
        <g
           id="g12">
          <g
             clip-path="url(#clipPath16)"
             id="g14">
            <g
               transform="translate(19,16.5)"
               id="g20">
              <path
                 id="path22"
                 style="fill:#292f33;fill-opacity:1;fill-rule:nonzero;stroke:none"
                 d="m 0,0 c 1,-7.5 -1,-9.5 -1,-9.5 0,0 -2,2 -1,9.5 0.913,6.843 -2.687,9.159 1,9.159 3.688,0 0.088,-2.316 1,-9.159"
                 inkscape:connector-curvature="0" />
            </g>
            <g
               transform="translate(17.5894,25.7407)"
               id="g24">
              <path
                 id="path26"
                 style="fill:#292f33;fill-opacity:1;fill-rule:nonzero;stroke:none"
                 d="m 0,0 c 0.133,-0.242 0.045,-0.546 -0.197,-0.679 -0.242,-0.133 -0.546,-0.045 -0.679,0.197 l -2.651,4.819 c -0.134,0.242 -0.046,0.546 0.196,0.679 0.243,0.133 0.546,0.045 0.68,-0.197 L 0,0 Z"
                 inkscape:connector-curvature="0" />
            </g>
            <g
               transform="translate(18.4111,25.7407)"
               id="g28">
              <path
                 id="path5952"
                 style="fill:#292f33;fill-opacity:1;fill-rule:nonzero;stroke:none"
                 d="m 0,0 c -0.133,-0.242 -0.045,-0.546 0.197,-0.679 0.242,-0.133 0.545,-0.045 0.679,0.197 L 3.527,4.337 C 3.66,4.579 3.572,4.883 3.33,5.016 3.088,5.149 2.785,5.061 2.651,4.819 L 0,0 Z"
                 inkscape:connector-curvature="0" />
            </g>
            <g
               transform="translate(18,17)"
               id="g32">
              <path
                 id="path34"
                 style="fill:#292f33;fill-opacity:1;fill-rule:nonzero;stroke:none"
                 d="m 0,0 c -9.962,0.477 -15.645,-0.835 -15,-9 0.727,-9.191 15,0 15,3 l 0,6 z"
                 inkscape:connector-curvature="0" />
            </g>
            <g
               transform="translate(8.1904,5.1025)"
               id="g36">
              <path
                 id="path38"
                 style="fill:#88c9f9;fill-opacity:1;fill-rule:nonzero;stroke:none"
                 d="m 0,0 c -1.744,0.001 -3.217,0.343 -3.65,2.438 -0.491,2.374 0.108,4.769 0.975,5.931 1.779,2.384 6.457,2.521 11.554,2.528 l 0,-5 C 8.879,5.493 8.015,4.081 5.931,2.497 3.874,0.934 1.658,0 0,0 Z"
                 inkscape:connector-curvature="0" />
            </g>
            <g
               transform="translate(5.5151,13.4717)"
               id="g40">
              <path
                 id="path42"
                 style="fill:#bbddf5;fill-opacity:1;fill-rule:nonzero;stroke:none"
                 d="m 0,0 c -0.302,-0.404 -0.516,-0.882 -0.652,-1.426 5.44,0.357 9.955,1.653 12.207,3.406 l 0,0.548 C 6.458,2.521 1.779,2.384 0,0"
                 inkscape:connector-curvature="0" />
            </g>
            <g
               transform="translate(9.3574,7.6035)"
               id="g44">
              <path
                 id="path46"
                 style="fill:#bbddf5;fill-opacity:1;fill-rule:nonzero;stroke:none"
                 d="m 0,0 c 0,-0.978 -0.792,-1.771 -1.77,-1.771 -0.979,0 -1.772,0.793 -1.772,1.771 0,0.979 0.793,1.771 1.772,1.771 C -0.792,1.771 0,0.979 0,0"
                 inkscape:connector-curvature="0" />
            </g>
            <g
               transform="translate(12.3813,7.9922)"
               id="g48">
              <path
                 id="path50"
                 style="fill:#bbddf5;fill-opacity:1;fill-rule:nonzero;stroke:none"
                 d="m 0,0 c 0,-0.718 -0.582,-1.301 -1.3,-1.301 -0.719,0 -1.301,0.583 -1.301,1.301 0,0.719 0.582,1.301 1.301,1.301 C -0.582,1.301 0,0.719 0,0"
                 inkscape:connector-curvature="0" />
            </g>
            <g
               transform="translate(14.5415,9.0332)"
               id="g52">
              <path
                 id="path54"
                 style="fill:#bbddf5;fill-opacity:1;fill-rule:nonzero;stroke:none"
                 d="m 0,0 c 0,-0.575 -0.466,-1.041 -1.042,-1.041 -0.575,0 -1.041,0.466 -1.041,1.041 0,0.575 0.466,1.042 1.041,1.042 C -0.466,1.042 0,0.575 0,0"
                 inkscape:connector-curvature="0" />
            </g>
            <g
               transform="translate(15.9414,10.0752)"
               id="g56">
              <path
                 id="path58"
                 style="fill:#bbddf5;fill-opacity:1;fill-rule:nonzero;stroke:none"
                 d="m 0,0 c 0,-0.387 -0.314,-0.7 -0.7,-0.7 -0.386,0 -0.7,0.313 -0.7,0.7 0,0.387 0.314,0.7 0.7,0.7 C -0.314,0.7 0,0.387 0,0"
                 inkscape:connector-curvature="0" />
            </g>
            <g
               transform="translate(17.974,17)"
               id="g60">
              <path
                 id="path62"
                 style="fill:#292f33;fill-opacity:1;fill-rule:nonzero;stroke:none"
                 d="M 0,0 C 9.962,0.477 15.645,-0.835 15,-9 14.273,-18.191 0,-9 0,-6 l 0,6 z"
                 inkscape:connector-curvature="0" />
            </g>
            <g
               transform="translate(27.7835,5.1025)"
               id="g64">
              <path
                 id="path66"
                 style="fill:#88c9f9;fill-opacity:1;fill-rule:nonzero;stroke:none"
                 d="M 0,0 C 1.744,0.001 3.217,0.343 3.65,2.438 4.141,4.812 3.542,7.207 2.675,8.369 0.896,10.753 -3.782,10.89 -8.879,10.897 l 0,-5 c 0,-0.404 0.864,-1.816 2.948,-3.4 C -3.874,0.934 -1.658,0 -0.001,0 L 0,0 Z"
                 inkscape:connector-curvature="0" />
            </g>
            <g
               transform="translate(30.4588,13.4717)"
               id="g68">
              <path
                 id="path70"
                 style="fill:#bbddf5;fill-opacity:1;fill-rule:nonzero;stroke:none"
                 d="m 0,0 c 0.302,-0.404 0.516,-0.882 0.652,-1.426 -5.44,0.357 -9.955,1.653 -12.207,3.406 l 0,0.548 C -6.458,2.521 -1.779,2.384 0,0"
                 inkscape:connector-curvature="0" />
            </g>
            <g
               transform="translate(26.6166,7.6035)"
               id="g72">
              <path
                 id="path74"
                 style="fill:#bbddf5;fill-opacity:1;fill-rule:nonzero;stroke:none"
                 d="m 0,0 c 0,-0.978 0.792,-1.771 1.77,-1.771 0.979,0 1.772,0.793 1.772,1.771 0,0.979 -0.793,1.771 -1.772,1.771 C 0.792,1.771 0,0.979 0,0"
                 inkscape:connector-curvature="0" />
            </g>
            <g
               transform="translate(23.5927,7.9922)"
               id="g76">
              <path
                 id="path78"
                 style="fill:#bbddf5;fill-opacity:1;fill-rule:nonzero;stroke:none"
                 d="M 0,0 C 0,-0.718 0.582,-1.301 1.3,-1.301 2.019,-1.301 2.601,-0.718 2.601,0 2.601,0.719 2.019,1.301 1.3,1.301 0.582,1.301 0,0.719 0,0"
                 inkscape:connector-curvature="0" />
            </g>
            <g
               transform="translate(21.4325,9.0332)"
               id="g80">
              <path
                 id="path82"
                 style="fill:#bbddf5;fill-opacity:1;fill-rule:nonzero;stroke:none"
                 d="m 0,0 c 0,-0.575 0.466,-1.041 1.042,-1.041 0.575,0 1.042,0.466 1.042,1.041 0,0.575 -0.467,1.042 -1.042,1.042 C 0.466,1.042 0,0.575 0,0"
                 inkscape:connector-curvature="0" />
            </g>
            <g
               transform="translate(20.0326,10.0752)"
               id="g84">
              <path
                 id="path86"
                 style="fill:#bbddf5;fill-opacity:1;fill-rule:nonzero;stroke:none"
                 d="M 0,0 C 0,-0.387 0.313,-0.7 0.7,-0.7 1.086,-0.7 1.4,-0.387 1.4,0 1.4,0.387 1.086,0.7 0.7,0.7 0.313,0.7 0,0.387 0,0"
                 inkscape:connector-curvature="0" />
            </g>
            <g
               transform="translate(18,22)"
               id="g88">
              <path
                 id="path90"
                 style="fill:#292f33;fill-opacity:1;fill-rule:nonzero;stroke:none"
                 d="M 0,0 C -4,7 -16.536,11.336 -17,10 -19,4.25 -14.413,-3.609 -12.545,-5.04 -10.001,-6.988 0,-7 0,-6 l 0,6 z"
                 inkscape:connector-curvature="0" />
            </g>
            <g
               transform="translate(5.3752,19.3847)"
               id="g92">
              <path
                 id="path94"
                 style="fill:#3b88c3;fill-opacity:1;fill-rule:nonzero;stroke:none"
                 d="M 0,0 C -0.834,1.195 -2.146,3.975 -2.405,8.615 0.07,8.481 8.517,7.923 11.685,2.343 l 0,-5.193 C 10.698,-3.161 8.704,-3.06 5.127,-2.663 1.55,-2.266 0.834,-1.194 0,0"
                 inkscape:connector-curvature="0" />
            </g>
            <g
               transform="translate(3.2225,25.6247)"
               id="g96">
              <path
                 id="path98"
                 style="fill:#55acee;fill-opacity:1;fill-rule:nonzero;stroke:none"
                 d="M 0,0 C 0.201,-1.329 0.48,-2.463 0.796,-3.394 8.704,-2.239 13.79,-6.371 13.79,-6.371 13.79,-6.371 10.708,-0.318 0,0"
                 inkscape:connector-curvature="0" />
            </g>
            <g
               transform="translate(16.9136,17.125)"
               id="g100">
              <path
                 id="path102"
                 style="fill:#55acee;fill-opacity:1;fill-rule:nonzero;stroke:none"
                 d="m 0,0 c 0,0 -4.096,4.624 -12.213,3.427 0.238,-0.486 0.471,-0.875 0.675,-1.167 0.084,-0.12 0.167,-0.239 0.251,-0.356 C -5.398,2.955 0,0 0,0"
                 inkscape:connector-curvature="0" />
            </g>
            <g
               transform="translate(17.974,22)"
               id="g104">
              <path
                 id="path106"
                 style="fill:#292f33;fill-opacity:1;fill-rule:nonzero;stroke:none"
                 d="M 0,0 C 4,7 16.536,11.336 17,10 19,4.25 14.413,-3.609 12.545,-5.04 10.001,-6.988 0,-7 0,-6 l 0,6 z"
                 inkscape:connector-curvature="0" />
            </g>
            <g
               transform="translate(30.5988,19.3847)"
               id="g108">
              <path
                 id="path110"
                 style="fill:#3b88c3;fill-opacity:1;fill-rule:nonzero;stroke:none"
                 d="M 0,0 C 0.834,1.195 2.146,3.975 2.405,8.615 -0.07,8.481 -8.517,7.923 -11.685,2.343 l 0,-5.193 c 0.987,-0.311 2.981,-0.21 6.558,0.187 C -1.55,-2.266 -0.834,-1.194 0,0"
                 inkscape:connector-curvature="0" />
            </g>
            <g
               transform="translate(32.7514,25.6247)"
               id="g112">
              <path
                 id="path114"
                 style="fill:#55acee;fill-opacity:1;fill-rule:nonzero;stroke:none"
                 d="m 0,0 c -0.201,-1.329 -0.48,-2.463 -0.796,-3.394 -7.908,1.155 -12.994,-2.977 -12.994,-2.977 0,0 3.082,6.053 13.79,6.371"
                 inkscape:connector-curvature="0" />
            </g>
            <g
               transform="translate(19.0604,17.125)"
               id="g116">
              <path
                 id="path118"
                 style="fill:#55acee;fill-opacity:1;fill-rule:nonzero;stroke:none"
                 d="M 0,0 C 0,0 4.096,4.624 12.213,3.427 11.975,2.941 11.742,2.552 11.538,2.26 11.455,2.14 11.371,2.021 11.287,1.904 5.398,2.955 0,0 0,0"
                 inkscape:connector-curvature="0" />
            </g>
          </g>
        </g>
      </g>
    </g>
    <g
       transform="matrix(0.03257286,-0.93276477,0.93276477,0.03257286,123.02268,149.92107)"
       id="g5998">
      <g
         transform="matrix(1.25,0,0,-1.25,0,47.5)"
         id="g6000">
        <g
           id="g6002">
          <g
             clip-path="url(#clipPath16)"
             id="g6004">
            <g
               transform="translate(10,21.4395)"
               id="g6006">
              <path
                 id="path6008"
                 style="fill:#9266cc;fill-opacity:1;fill-rule:nonzero;stroke:none"
                 d="M 0,0 C 0,4 2,8 0,10 -2,12 -3,8 -2,8 -0.586,8 0,6 -1,3 -2,0 0,-1 0,0"
                 inkscape:connector-curvature="0" />
            </g>
            <g
               transform="translate(6.125,21.4395)"
               id="g6010">
              <path
                 id="path6012"
                 style="fill:#9266cc;fill-opacity:1;fill-rule:nonzero;stroke:none"
                 d="M 0,0 C 0,4 2,8 0,10 -2,12 -3,8 -2,8 -0.586,8 0,6 -1,3 -2,0 0,-1 0,0"
                 inkscape:connector-curvature="0" />
            </g>
            <g
               transform="translate(37,2.0645)"
               id="g6014">
              <path
                 id="path6016"
                 style="fill:#aa8dd8;fill-opacity:1;fill-rule:nonzero;stroke:none"
                 d="m 0,0 c 0,-1 -1,-1 -2,-1 l -23,0 c -5,0 -7.272,3.09 -8,6 -1,4 2,11 0,12 -2,1 -3,1 -3,3 0,2 4.47,5.265 7,4 4,-2 2.767,-6.932 2,-10 -0.88,-3.521 1.115,-3.594 5,-5 C -17.061,7.213 -9.68,4.561 -8,4 -5,3 0,1 0,0"
                 inkscape:connector-curvature="0" />
            </g>
            <g
               transform="translate(11.9248,12.0645)"
               id="g6018">
              <path
                 id="path6020"
                 style="fill:#ffcc4d;fill-opacity:1;fill-rule:nonzero;stroke:none"
                 d="m 0,0 c 2.887,-1 3.849,-9 13.472,-9 6.377,0 8.66,5.479 8.66,11 0,5.523 -5.17,10 -11.547,10 C 4.208,12 -0.913,0.316 0,0"
                 inkscape:connector-curvature="0" />
            </g>
            <g
               transform="translate(25.9141,3.0625)"
               id="g6022">
              <path
                 id="path6024"
                 style="fill:#ffac33;fill-opacity:1;fill-rule:nonzero;stroke:none"
                 d="m 0,0 c 1.708,0 3.389,0.48 4.893,1.418 2.184,1.361 3.728,3.527 4.347,6.098 1.531,6.363 -2.206,12.834 -8.329,14.425 -7.392,1.923 -14.919,-2.769 -16.767,-10.455 -0.258,-1.072 0.369,-2.158 1.399,-2.425 1.027,-0.272 2.076,0.382 2.335,1.455 1.334,5.546 6.761,8.93 12.1,7.544 C 4.041,17.004 6.521,12.709 5.506,8.486 5.137,6.953 4.216,5.66 2.912,4.848 1.607,4.035 0.076,3.797 -1.398,4.182 c -1.081,0.279 -1.992,0.98 -2.565,1.972 -0.572,0.994 -0.74,2.159 -0.469,3.282 0.191,0.794 0.668,1.464 1.344,1.886 0.676,0.421 1.527,0.707 2.234,0.345 1.298,-0.665 1.298,-2.665 0.336,-3.665 -0.752,-0.781 1.604,-1.065 2.887,0 1.151,0.955 1.645,2.492 1.069,4.199 -0.582,1.724 -1.805,2.943 -3.358,3.347 -1.762,0.457 -3.59,0.176 -5.148,-0.797 C -6.625,13.78 -7.726,12.236 -8.166,10.404 -8.686,8.246 -8.365,6.006 -7.263,4.098 -6.16,2.188 -4.41,0.84 -2.332,0.301 -1.559,0.1 -0.776,0 0,0"
                 inkscape:connector-curvature="0" />
            </g>
          </g>
        </g>
      </g>
    </g>
    <g
       transform="matrix(0.58462204,0.13497063,-0.13497063,0.58462204,63.851307,141.46389)"
       id="g6026">
      <g
         transform="matrix(1.25,0,0,-1.25,0,45)"
         id="g6028">
        <g
           id="g6030">
          <g
             clip-path="url(#clipPath16)"
             id="g6032">
            <g
               transform="translate(12,28.3926)"
               id="g6034">
              <path
                 id="path6036"
                 style="fill:#ccd6dd;fill-opacity:1;fill-rule:nonzero;stroke:none"
                 d="m 0,0 -9,2.411 c -1.657,0.444 -3,-0.539 -3,-2.196 l 0,-20 c 0,-1.656 1.343,-3.36 3,-3.804 L 0,-26 0,0 Z"
                 inkscape:connector-curvature="0" />
            </g>
            <g
               transform="translate(24,5.6074)"
               id="g6038">
              <path
                 id="path6040"
                 style="fill:#ccd6dd;fill-opacity:1;fill-rule:nonzero;stroke:none"
                 d="m 0,0 9,-2.411 c 1.656,-0.444 3,0.54 3,2.196 l 0,20 c 0,1.657 -1.344,3.361 -3,3.804 L 0,26 0,0 Z"
                 inkscape:connector-curvature="0" />
            </g>
            <g
               transform="translate(24,5.6084)"
               id="g6042">
              <path
                 id="path6044"
                 style="fill:#e1e8ed;fill-opacity:1;fill-rule:nonzero;stroke:none"
                 d="m 0,0 -12,-3.216 0,26 L 0,26 0,0 Z"
                 inkscape:connector-curvature="0" />
            </g>
            <g
               transform="translate(12,26.3931)"
               id="g6046">
              <path
                 id="path6048"
                 style="fill:#55acee;fill-opacity:1;fill-rule:nonzero;stroke:none"
                 d="m 0,0 -8,2.144 c -1.104,0.295 -2,-0.36 -2,-1.464 l 0,-18.001 c 0,-1.103 0.896,-2.24 2,-2.535 L 0,-22 0,0 Z"
                 inkscape:connector-curvature="0" />
            </g>
            <g
               transform="translate(32,27.4648)"
               id="g6050">
              <path
                 id="path6052"
                 style="fill:#55acee;fill-opacity:1;fill-rule:nonzero;stroke:none"
                 d="m 0,0 -8,2.144 0,-22 L 0,-22 c 1.105,-0.296 2,0.359 2,1.465 l 0,18 C 2,-1.432 1.105,-0.296 0,0"
                 inkscape:connector-curvature="0" />
            </g>
            <g
               transform="translate(24,7.6084)"
               id="g6054">
              <path
                 id="path6056"
                 style="fill:#88c9f9;fill-opacity:1;fill-rule:nonzero;stroke:none"
                 d="m 0,0 -12,-3.216 0,22 L 0,22 0,0 Z"
                 inkscape:connector-curvature="0" />
            </g>
            <g
               transform="translate(12,14.4941)"
               id="g6058">
              <path
                 id="path6060"
                 style="fill:#5c913b;fill-opacity:1;fill-rule:nonzero;stroke:none"
                 d="m 0,0 c -0.268,-0.006 -0.595,-0.104 -0.845,-0.145 -0.436,-0.073 -0.329,-0.516 -0.463,-0.443 -0.135,0.074 -0.475,0.265 -0.812,0.658 -0.337,0.395 0.25,0.478 0.418,0.622 0.168,0.145 -0.317,0.172 -0.486,0.333 -0.169,0.159 -0.47,-0.104 -0.739,0.276 -0.269,0.376 -0.101,0.79 -0.133,1.179 -0.034,0.39 0.436,0.341 0.739,0.334 0.302,-0.002 0.537,-0.143 0.537,-0.602 0,-0.456 0.37,-0.708 0.27,-0.146 -0.101,0.561 0.1,0.658 0.235,0.89 0.134,0.23 0.37,0.55 0.673,1.04 C -0.385,4.354 -0.217,4.279 0,4.16 L 0,7.505 C -0.055,7.549 -0.11,7.595 -0.165,7.618 -0.468,7.75 -0.068,6.865 -0.303,6.509 -0.54,6.152 -0.901,6.316 -1.273,6.415 -1.642,6.514 -1.986,6.96 -1.716,7.422 c 0.268,0.462 0.782,0.267 1.051,0.653 0.27,0.385 -0.956,0.672 -1.394,0.942 -0.437,0.27 -0.962,0.409 -1.4,0.145 C -3.896,8.898 -4.832,9.029 -5.202,8.977 -5.571,8.923 -5.637,9.346 -5.705,9.67 c -0.066,0.322 -0.652,0.329 -1.257,0.338 -0.606,0.01 -1.741,-0.281 -1.547,-1.759 0.068,-0.514 0.605,-0.124 0.707,-0.036 0.1,0.088 0.605,-0.2 0.671,-0.637 0.068,-0.438 0.034,-0.887 -0.099,-1.232 -0.137,-0.345 0.336,-1.006 0.604,-1.612 0.269,-0.606 0.572,-0.687 0.706,-0.723 0.135,-0.036 0.908,-0.587 0.875,-0.996 -0.034,-0.411 0.706,-0.992 1.009,-1.34 0.303,-0.35 0.494,-0.662 0.887,-0.846 0.393,-0.182 0.852,-1.035 1.054,-1.165 0.155,-0.099 0.418,-0.451 0.576,-0.58 -0.208,-0.242 -0.612,-0.748 -0.612,-1.029 0,-0.383 0.441,-1.103 0.608,-1.3 0.168,-0.196 0.65,-0.442 0.751,-0.85 0.101,-0.407 -0.07,-1.646 -0.373,-1.907 -0.304,-0.262 -0.414,-1.043 -0.414,-1.043 0,0 0.107,-0.293 0.465,-0.124 0.309,0.144 0.777,0.567 1.094,0.801 L 0,0 Z"
                 inkscape:connector-curvature="0" />
            </g>
            <g
               transform="translate(24,20.2686)"
               id="g6062">
              <path
                 id="path6064"
                 style="fill:#77b255;fill-opacity:1;fill-rule:nonzero;stroke:none"
                 d="M 0,0 0,6.314 C -0.04,6.311 -0.068,6.303 -0.11,6.3 -0.319,6.289 -0.593,6.165 -0.89,5.98 -0.914,5.985 -0.936,5.996 -0.96,6.001 -1.855,6.176 -2.272,4.796 -2.999,4.849 c -0.73,0.052 -1.7,0.343 -2.332,-0.514 -0.631,-0.858 -0.776,-1.53 0,-1.295 0.777,0.236 1.312,1.426 1.7,1.089 0.388,-0.336 0.29,-0.72 -0.632,-1.105 C -5.185,2.639 -6.18,2.208 -6.714,2.064 -7.248,1.921 -7.37,1.53 -7.006,1.243 -6.642,0.955 -7.225,0.771 -7.831,0.223 c -0.607,-0.548 0.146,-0.512 0.656,-0.705 0.51,-0.193 0.898,0.323 1.117,0.932 0.217,0.609 1.158,1.522 1.55,1.544 0.392,0.023 0.392,-0.197 0.319,-0.602 -0.013,-0.072 0.001,-0.103 0.01,-0.139 -0.17,-0.54 -0.309,-1.029 -0.365,-1.306 -0.026,-0.134 -0.031,-0.35 -0.027,-0.595 -0.086,-0.003 -0.183,-0.021 -0.248,0 -0.438,0.128 -1.434,0.219 -1.701,-0.043 -0.267,-0.266 -0.412,-0.502 -0.728,-0.723 -0.316,-0.219 -1.603,-1.224 -1.626,-2.084 -0.025,-0.859 -0.049,-1.83 0.46,-1.721 0.51,0.11 1.749,0.826 2.137,1.288 0.387,0.463 0.921,0.523 1.092,0.156 0.169,-0.369 0.048,-0.649 -0.12,-1.354 -0.172,-0.708 0.11,-0.963 0.381,-1.468 0.274,-0.504 0.491,-0.775 0.491,-1.189 0,-0.412 0.389,-0.723 0.97,0.123 0.188,0.269 0.367,0.606 0.536,0.957 0.409,0.469 0.768,0.923 0.758,1.096 -0.016,0.281 -0.021,0.433 -0.024,0.624 0.033,0.082 0.064,0.157 0.091,0.219 0.126,0.293 0.241,0.746 0.362,1.156 0.007,0.009 0.013,0.016 0.019,0.024 0.238,0.337 0.185,0.353 0.58,0.756 0.264,0.269 0.254,0.512 0.214,0.678 0.106,0.174 0.134,0.28 -0.033,0.235 -0.005,-0.001 -0.012,-0.003 -0.016,-0.004 -0.001,0 -0.004,-0.019 -0.005,-0.014 -0.023,0.15 -0.206,-0.003 -0.501,-0.147 -0.285,-0.008 -0.567,0.065 -0.668,0.368 -0.133,0.396 -0.602,0.996 -0.639,1.336 0.003,0.041 0.005,0.077 0.01,0.124 0.013,0.036 0.033,0.066 0.069,0.088 0.038,0.022 0.075,0.03 0.112,0.035 0.041,-0.111 0.076,-0.28 0.086,-0.464 0.027,-0.477 0.395,-0.196 0.395,-0.498 0,-0.302 0.53,-0.492 0.661,-0.548 0.037,-0.015 0.094,0.028 0.159,0.098 0.031,-0.011 0.06,-0.033 0.093,-0.037 0.292,-0.031 0.922,0.984 1.117,1.164 0.102,0.095 0.105,0.269 0.033,0.394 C -0.035,-0.015 -0.019,-0.008 0,0 m -9.142,-7.239 c -0.437,0.074 -0.359,0.023 -0.628,0.598 -0.269,0.577 -0.432,0.743 -1.036,0.657 -0.606,-0.087 -0.584,-0.136 -0.751,0.163 -0.072,0.128 -0.241,0.082 -0.443,-0.032 l 0,-6.37 c 0.09,0.115 0.17,0.211 0.228,0.267 0.505,0.476 0.996,1.026 1.466,1.646 0.471,0.621 0.301,0.924 0.536,1.481 0.235,0.558 0.54,0.617 0.943,1.145 0.405,0.531 0.122,0.368 -0.315,0.445 m -2.59,5.557 c -0.1,-0.015 -0.187,-0.011 -0.268,-0.01 l 0,3.344 c 0.254,-0.064 0.512,-0.317 0.706,-0.735 0.234,-0.51 0.605,-0.067 0.739,-0.374 0.134,-0.308 0.875,-0.758 0.505,-0.742 -0.371,0.014 -0.74,-0.008 -0.841,-0.454 -0.102,-0.448 0.168,-0.795 -0.102,-0.829 -0.269,-0.033 -0.369,-0.142 -0.739,-0.2"
                 inkscape:connector-curvature="0" />
            </g>
            <g
               transform="translate(31.4072,12.2305)"
               id="g6066">
              <path
                 id="path6068"
                 style="fill:#5c913b;fill-opacity:1;fill-rule:nonzero;stroke:none"
                 d="M 0,0 C -0.133,0.338 -0.518,0.713 -0.675,0.91 -0.834,1.104 -1.082,1.223 -1.293,1.189 -1.505,1.158 -1.636,1.281 -1.741,1.551 -1.848,1.816 -2.031,1.783 -2.19,1.795 -2.348,1.807 -2.981,1.676 -3.352,1.564 -3.72,1.451 -3.889,1.312 -4.13,1.107 c -0.382,-0.32 -0.17,-0.105 0,-0.423 0.168,-0.319 -0.186,-1.067 -0.213,-1.543 -0.027,-0.477 0.676,-0.032 0.94,-0.039 0.263,-0.012 0.185,0.189 0.396,0.314 0.212,0.125 0.349,0.129 0.579,-0.172 0.234,-0.305 0.537,-0.611 0.537,-0.883 0,-0.269 0.834,-0.947 1.152,-0.851 0.316,0.097 0.501,0.408 0.791,0.635 0.291,0.224 0.185,0.824 0.264,1.168 C 0.396,-0.346 0.13,-0.336 0,0 m -2.403,2.578 c 0.261,-0.402 0.159,-0.043 0.504,0.016 0.342,0.058 -0.291,0.56 -0.502,0.799 -0.211,0.238 -0.42,0.3 -0.606,-0.049 C -3.216,2.945 -2.664,2.98 -2.403,2.578 M 0.685,1.146 C 0.554,1.363 0.264,1.531 -0.054,1.607 -0.369,1.684 -0.344,2.088 -0.66,2.141 -0.976,2.195 -1.204,2.529 -1.346,2.652 -1.657,2.918 -1.452,2.443 -1.346,1.953 -1.239,1.465 -0.845,1.707 -0.477,1.367 -0.107,1.027 -0.079,1.352 0.264,1.139 0.605,0.928 0.738,0.619 1.067,0.561 1.396,0.502 0.817,0.93 0.685,1.146 m -2.004,5.371 c 0.183,-0.08 0.975,-0.171 0.553,0.334 -0.422,0.506 -0.106,0.299 -0.052,0.738 0.052,0.44 -0.264,0.525 -0.264,0.525 0,-0.332 -0.211,-0.638 0,-1.027 0.21,-0.389 -0.423,-0.49 -0.237,-0.57 M -3.411,4.449 c 0.389,-0.166 0.114,0.482 0.244,0.841 0.132,0.357 0.316,0.369 0.555,0.364 0.236,-0.002 0.422,0.191 0.581,0.388 0.157,0.2 0.448,0.455 0.422,0.733 -0.027,0.279 -0.105,0.482 -0.212,0.843 -0.106,0.36 0.316,0.368 0.502,0.711 0.183,0.342 0,0 0.421,0.007 0.421,0.008 0.238,0.058 0.316,0.218 0.08,0.159 0.133,0.327 0.054,0.68 -0.078,0.353 -0.37,0.099 -0.66,0.177 -0.289,0.077 0.106,0.424 0.131,0.78 0.027,0.355 0.397,0.165 0.662,0.125 0.262,-0.039 0.341,-0.485 0.42,-0.597 0.082,-0.112 0.896,0.365 1.109,0.641 0.211,0.275 -0.186,0.291 -0.079,0.403 0.105,0.111 -0.632,0.337 -0.925,0.469 -0.289,0.133 -1.028,0.367 -1.318,0.649 -0.289,0.284 -1.397,0.426 -1.688,0.337 -0.291,-0.086 -0.476,0.143 -0.606,0.406 -0.131,0.262 -0.686,0.297 -0.844,0.467 -0.158,0.17 -0.316,-0.127 -0.529,-0.16 -0.21,-0.035 -0.29,-0.043 -0.554,0.209 -0.263,0.252 0.08,0.371 -0.288,0.621 -0.355,0.239 -0.813,0.184 -1.71,0.593 l 0,-6.314 c 0.157,-0.014 0.308,-0.037 0.364,-0.051 0.131,-0.035 0.448,-0.574 0.448,-0.784 0,-0.211 0.159,-0.829 0.291,-1.196 0.131,-0.366 0.42,-0.506 0.686,-0.818 0.264,-0.312 0.394,-0.137 0.394,-0.137 0,0 -0.105,0.544 -0.105,0.965 0,0.424 0.316,0.701 0.316,0.701 0,0 0.5,-0.557 0.529,-0.684 0.026,-0.128 0.421,-0.657 0.449,-0.876 0.025,-0.219 0.236,-0.547 0.624,-0.711 m -0.362,-0.9 C -3.826,3.109 -3.59,3.348 -3.167,2.844 -2.744,2.336 -3.271,2.449 -3.456,2.527 c -0.185,0.08 -0.37,0.131 -0.579,0.518 -0.213,0.391 0,0.695 0,1.027 0,0 0.315,-0.084 0.262,-0.523"
                 inkscape:connector-curvature="0" />
            </g>
          </g>
        </g>
      </g>
    </g>
    <g
       transform="matrix(0.2923717,0.95630476,-0.95630476,0.2923717,56.829366,90.723557)"
       id="g6070">
      <g
         transform="matrix(1.25,0,0,-1.25,0,45)"
         id="g6072">
        <g
           id="g6074">
          <g
             clip-path="url(#clipPath16)"
             id="g6076">
            <g
               transform="translate(12.75,18.25)"
               id="g6078">
              <path
                 id="path6080"
                 style="fill:#d99e82;fill-opacity:1;fill-rule:nonzero;stroke:none"
                 d="m 0,0 c 1.226,-2.195 1.855,1.361 9.313,2.625 7.457,1.264 13.728,-4.454 13.859,-5.413 0.131,-0.958 -4.448,-9.462 -9.463,-9.462 l -15.71,0 c -4.142,0 -7.022,7.224 -3.999,11.438 0,0 4.5,3.5 6,0.812"
                 inkscape:connector-curvature="0" />
            </g>
            <g
               transform="translate(13.0083,17.8643)"
               id="g6082">
              <path
                 id="path6084"
                 style="fill:#c1694f;fill-opacity:1;fill-rule:nonzero;stroke:none"
                 d="m 0,0 c -4.989,-6.937 -6.04,-11.864 -2.259,-11.864 -4.142,0 -6.577,6.187 -4.468,11.031 0.463,1.064 1.758,2.492 1.758,2.492 L -0.79,1.667 C -0.627,1.347 -0.191,0.301 0,0"
                 inkscape:connector-curvature="0" />
            </g>
            <g
               transform="translate(20.0625,13.25)"
               id="g6086">
              <path
                 id="path6088"
                 style="fill:#e1e8ed;fill-opacity:1;fill-rule:nonzero;stroke:none"
                 d="M 0,0 C 6.672,2.682 15.729,3.171 15.859,2.212 15.99,1.254 11.411,-7.25 6.396,-7.25 l -14.646,0 c -4.143,0 1.232,4.429 8.25,7.25"
                 inkscape:connector-curvature="0" />
            </g>
            <g
               transform="translate(25.3594,14.875)"
               id="g6090">
              <path
                 id="path6092"
                 style="fill:#292f33;fill-opacity:1;fill-rule:nonzero;stroke:none"
                 d="M 0,0 C 6,1.312 10.468,1.282 10.563,0.587 10.642,0.009 9.004,-3.32 6.59,-5.867 8.794,-3.063 8.01,0.246 0,0"
                 inkscape:connector-curvature="0" />
            </g>
            <g
               transform="translate(7.125,29.875)"
               id="g6094">
              <path
                 id="path6096"
                 style="fill:#3e721d;fill-opacity:1;fill-rule:nonzero;stroke:none"
                 d="m 0,0 c 1.562,4.937 10.439,4.143 10.063,-0.687 -0.378,-4.829 -6.454,-7.86 -4.18,-11.324 -1.586,-1.38 -5.015,-0.913 -6.727,-0.833 0.702,1.351 1.381,2.632 1.813,3.406 C 3.884,-4.203 -1.163,-3.674 0,0"
                 inkscape:connector-curvature="0" />
            </g>
            <g
               transform="translate(1.8926,26.9551)"
               id="g6098">
              <path
                 id="path6100"
                 style="fill:#ffcc4d;fill-opacity:1;fill-rule:nonzero;stroke:none"
                 d="m 0,0 c 0.568,1.1 0.549,-0.106 3.352,-0.142 1.554,-0.02 1.463,0.56 1.664,1.621 0.042,0.223 0.776,-1.616 2.061,-1.807 3.554,-0.531 1.879,-1.94 0,-2.261 C 6.176,-2.743 5.067,-2.908 3.14,-2.744 0.62,-2.532 -0.628,-1.216 0,0"
                 inkscape:connector-curvature="0" />
            </g>
            <g
               transform="translate(12.5024,19.375)"
               id="g6102">
              <path
                 id="path6104"
                 style="fill:#f5f8fa;fill-opacity:1;fill-rule:nonzero;stroke:none"
                 d="m 0,0 c 0.044,-0.625 0.506,-1.511 0.506,-1.511 -1.016,-1.473 -5.643,-3.016 -7.354,-2.929 0.096,0.627 0.283,1.362 0.627,2.096 C -4.377,-1.873 -1.561,-1.273 0,0"
                 inkscape:connector-curvature="0" />
            </g>
            <g
               transform="translate(11.708,29.8486)"
               id="g6106">
              <path
                 id="path6108"
                 style="fill:#292f33;fill-opacity:1;fill-rule:nonzero;stroke:none"
                 d="m 0,0 c 0,-0.716 -0.58,-1.296 -1.296,-1.296 -0.716,0 -1.295,0.58 -1.295,1.296 0,0.716 0.579,1.295 1.295,1.295 C -0.58,1.295 0,0.716 0,0"
                 inkscape:connector-curvature="0" />
            </g>
          </g>
        </g>
      </g>
    </g>
    <g
       transform="matrix(-0.32678342,0.50320234,-0.50320234,-0.32678342,103.29594,123.35804)"
       id="g6110">
      <g
         transform="matrix(1.25,0,0,-1.25,0,47.5)"
         id="g6112">
        <g
           id="g6114">
          <g
             clip-path="url(#clipPath16)"
             id="g6116">
            <g
               transform="translate(26,2)"
               id="g6118">
              <path
                 id="path6120"
                 style="fill:#292f33;fill-opacity:1;fill-rule:nonzero;stroke:none"
                 d="M 0,0 C -2.75,0 -2,6 -2,6 -2,7.104 0.646,8 1.75,8 2.854,8 5,8.104 5,7 5,7 2.75,0 0,0"
                 inkscape:connector-curvature="0" />
            </g>
            <g
               transform="translate(29,1)"
               id="g6122">
              <path
                 id="path6124"
                 style="fill:#66757f;fill-opacity:1;fill-rule:nonzero;stroke:none"
                 d="M 0,0 C -2.75,0 -2,6 -2,6 -2,7.104 0.646,8 1.75,8 2.854,8 5,8.104 5,7 5,7 2.75,0 0,0"
                 inkscape:connector-curvature="0" />
            </g>
            <g
               transform="translate(15,2)"
               id="g6126">
              <path
                 id="path6128"
                 style="fill:#292f33;fill-opacity:1;fill-rule:nonzero;stroke:none"
                 d="m 0,0 c -2.75,0 -4,6 -4,6 0,1.104 2.646,2 3.75,2 C 0.854,8 3,8.104 3,7 3,7 2.75,0 0,0"
                 inkscape:connector-curvature="0" />
            </g>
            <g
               transform="translate(18,1)"
               id="g6130">
              <path
                 id="path6132"
                 style="fill:#66757f;fill-opacity:1;fill-rule:nonzero;stroke:none"
                 d="m 0,0 c -2.75,0 -4,6 -4,6 0,1.104 2.646,2 3.75,2 C 0.854,8 3,8.104 3,7 3,7 2.75,0 0,0"
                 inkscape:connector-curvature="0" />
            </g>
            <g
               transform="translate(36.75,15.6162)"
               id="g6134">
              <path
                 id="path6136"
                 style="fill:#e1e8ed;fill-opacity:1;fill-rule:nonzero;stroke:none"
                 d="M 0,0 C 0,-7.782 -4.495,-11.408 -14.519,-11.408 -24.542,-11.408 -28,-7.782 -28,0 c 0,7.783 3.458,11.407 13.481,11.407 C -4.495,11.407 0,7.783 0,0"
                 inkscape:connector-curvature="0" />
            </g>
            <g
               transform="translate(18,19.333)"
               id="g6138">
              <path
                 id="path6140"
                 style="fill:#99aab5;fill-opacity:1;fill-rule:nonzero;stroke:none"
                 d="m 0,0 c 0,-9.333 -4.655,-11.333 -8.958,-11.333 -4.304,0 -7.042,6.64 -7.042,11.333 0,4.694 2.738,5.667 7.042,5.667 C -4.655,5.667 0,4.694 0,0"
                 inkscape:connector-curvature="0" />
            </g>
            <g
               transform="translate(7,16.5)"
               id="g6142">
              <path
                 id="path6144"
                 style="fill:#292f33;fill-opacity:1;fill-rule:nonzero;stroke:none"
                 d="M 0,0 C 0,-0.828 -0.671,-1.5 -1.5,-1.5 -2.329,-1.5 -3,-0.828 -3,0 -3,0.828 -2.329,1.5 -1.5,1.5 -0.671,1.5 0,0.828 0,0"
                 inkscape:connector-curvature="0" />
            </g>
            <g
               transform="translate(16.75,24.25)"
               id="g6146">
              <path
                 id="path6148"
                 style="fill:#e1e8ed;fill-opacity:1;fill-rule:nonzero;stroke:none"
                 d="m 0,0 c -1.75,-3.25 -2.128,-2.606 -7.128,-4.606 -3.077,-1.231 -8.622,-0.894 -8.622,3.856 0,1.933 3.687,2.5 7,2.5 C -5.437,1.75 1.659,3.082 0,0"
                 inkscape:connector-curvature="0" />
            </g>
            <g
               transform="translate(17,23.3042)"
               id="g6150">
              <path
                 id="path6152"
                 style="fill:#ffcc4d;fill-opacity:1;fill-rule:nonzero;stroke:none"
                 d="m 0,0 c 3.353,-2.427 5.43,-6.139 3.724,-11.089 -1.368,-3.967 -6.817,-3.116 -9.617,-1.127 -2.798,1.988 -2.642,4.792 -1.733,6.291 0.909,1.497 4.158,1.228 6.024,-0.097 0.934,-0.663 0.288,-1.56 -0.72,-1.068 -2.292,1.118 -3.037,-1.444 -1.246,-2.882 1.265,-1.016 3.274,-1.049 3.655,1.01 0.671,3.629 -3.505,6.274 -7.465,5.301 C -5,-2.304 -2.839,2.055 0,0"
                 inkscape:connector-curvature="0" />
            </g>
          </g>
        </g>
      </g>
    </g>
    <g
       transform="matrix(-0.43737269,-0.50313972,0.50313972,-0.43737269,134.94617,77.133751)"
       id="g6154">
      <g
         transform="matrix(1.25,0,0,-1.25,0,45)"
         id="g6156">
        <g
           id="g6158">
          <g
             clip-path="url(#clipPath16)"
             id="g6160">
            <g
               transform="translate(32,0)"
               id="g6162">
              <path
                 id="path6164"
                 style="fill:#2a6797;fill-opacity:1;fill-rule:nonzero;stroke:none"
                 d="m 0,0 0,2 c 0,3.314 -2.686,6 -6,6 l -16,0 c -3.313,0 -6,-2.686 -6,-6 l 0,-2 28,0 z"
                 inkscape:connector-curvature="0" />
            </g>
            <g
               transform="translate(30,28.4995)"
               id="g6166">
              <path
                 id="path6168"
                 style="fill:#2a6797;fill-opacity:1;fill-rule:nonzero;stroke:none"
                 d="m 0,0 c 0,-4.143 -5.372,-7.499 -12,-7.499 -6.626,0 -11.999,3.356 -11.999,7.499 0,4.142 5.373,7.5 11.999,7.5 C -5.372,7.5 0,4.142 0,0"
                 inkscape:connector-curvature="0" />
            </g>
            <g
               transform="translate(13.6396,7.8994)"
               id="g6170">
              <path
                 id="path6172"
                 style="fill:#ffdc5d;fill-opacity:1;fill-rule:nonzero;stroke:none"
                 d="m 0,0 c 1.744,-1.268 2.848,-1.963 4.36,-1.963 1.512,0 2.616,0.696 4.36,1.963 l 0,3.811 L 0,3.811 0,0 Z"
                 inkscape:connector-curvature="0" />
            </g>
            <g
               transform="translate(13.6318,10.0273)"
               id="g6174">
              <path
                 id="path6176"
                 style="fill:#f9ca55;fill-opacity:1;fill-rule:nonzero;stroke:none"
                 d="m 0,0 c 1.216,-1.374 2.724,-1.746 4.364,-1.746 1.639,0 3.147,0.373 4.364,1.746 l 0,3.491 L 0,3.491 0,0 Z"
                 inkscape:connector-curvature="0" />
            </g>
            <g
               transform="translate(11.4443,20.0645)"
               id="g6178">
              <path
                 id="path6180"
                 style="fill:#ffdc5d;fill-opacity:1;fill-rule:nonzero;stroke:none"
                 d="m 0,0 c 0,-1.448 -0.734,-2.622 -1.639,-2.622 -0.905,0 -1.639,1.174 -1.639,2.622 0,1.448 0.734,2.623 1.639,2.623 C -0.734,2.623 0,1.448 0,0"
                 inkscape:connector-curvature="0" />
            </g>
            <g
               transform="translate(27.833,20.0645)"
               id="g6182">
              <path
                 id="path6184"
                 style="fill:#ffdc5d;fill-opacity:1;fill-rule:nonzero;stroke:none"
                 d="m 0,0 c 0,-1.448 -0.733,-2.622 -1.639,-2.622 -0.905,0 -1.638,1.174 -1.638,2.622 0,1.448 0.733,2.623 1.638,2.623 C -0.733,2.623 0,1.448 0,0"
                 inkscape:connector-curvature="0" />
            </g>
            <g
               transform="translate(9.4775,19.0405)"
               id="g6186">
              <path
                 id="path6188"
                 style="fill:#ffdc5d;fill-opacity:1;fill-rule:nonzero;stroke:none"
                 d="m 0,0 c 0,5.589 3.816,10.121 8.523,10.121 4.707,0 8.522,-4.532 8.522,-10.121 0,-5.589 -3.815,-10.121 -8.522,-10.121 C 3.816,-10.121 0,-5.589 0,0"
                 inkscape:connector-curvature="0" />
            </g>
            <g
               transform="translate(18,12.1982)"
               id="g6190">
              <path
                 id="path6192"
                 style="fill:#c1694f;fill-opacity:1;fill-rule:nonzero;stroke:none"
                 d="m 0,0 c -2.754,0 -3.6,0.705 -3.741,0.848 -0.256,0.256 -0.256,0.671 0,0.927 0.248,0.248 0.645,0.254 0.902,0.023 C -2.787,1.761 -2.118,1.311 0,1.311 c 2.2,0 2.836,0.485 2.842,0.49 C 3.098,2.056 3.499,2.044 3.755,1.786 4.011,1.53 3.997,1.104 3.741,0.848 3.6,0.705 2.754,0 0,0"
                 inkscape:connector-curvature="0" />
            </g>
            <g
               transform="translate(18,31.5942)"
               id="g6194">
              <path
                 id="path6196"
                 style="fill:#ffac33;fill-opacity:1;fill-rule:nonzero;stroke:none"
                 d="m 0,0 c 5.648,0 9.178,-3.242 9.178,-6.715 0,-3.473 -0.706,-4.863 -1.412,-3.473 -0.706,1.389 -1.412,2.778 -1.412,2.778 0,0 -4.236,0 -5.648,1.39 0,0 2.118,-4.168 -2.118,0 0,0 0.706,-2.779 -3.53,0.694 0,0 -2.118,-1.389 -2.824,-4.862 -0.196,-0.964 -1.412,0 -1.412,3.473 C -9.178,-3.242 -6.354,0 0,0"
                 inkscape:connector-curvature="0" />
            </g>
            <g
               transform="translate(14,19)"
               id="g6198">
              <path
                 id="path6200"
                 style="fill:#662113;fill-opacity:1;fill-rule:nonzero;stroke:none"
                 d="m 0,0 0,0 c -0.55,0 -1,0.45 -1,1 l 0,1 C -1,2.55 -0.55,3 0,3 0.55,3 1,2.55 1,2 L 1,1 C 1,0.45 0.55,0 0,0"
                 inkscape:connector-curvature="0" />
            </g>
            <g
               transform="translate(22,19)"
               id="g6202">
              <path
                 id="path6204"
                 style="fill:#662113;fill-opacity:1;fill-rule:nonzero;stroke:none"
                 d="m 0,0 0,0 c -0.55,0 -1,0.45 -1,1 l 0,1 C -1,2.55 -0.55,3 0,3 0.55,3 1,2.55 1,2 L 1,1 C 1,0.45 0.55,0 0,0"
                 inkscape:connector-curvature="0" />
            </g>
            <g
               transform="translate(18.75,16.25)"
               id="g6206">
              <path
                 id="path6208"
                 style="fill:#c1694f;fill-opacity:1;fill-rule:nonzero;stroke:none"
                 d="m 0,0 -1.5,0 c -0.413,0 -0.75,0.337 -0.75,0.75 0,0.413 0.337,0.75 0.75,0.75 L 0,1.5 C 0.413,1.5 0.75,1.163 0.75,0.75 0.75,0.337 0.413,0 0,0"
                 inkscape:connector-curvature="0" />
            </g>
            <g
               transform="translate(8.5,27)"
               id="g6210">
              <path
                 id="path6212"
                 style="fill:#2a6797;fill-opacity:1;fill-rule:nonzero;stroke:none"
                 d="M 0,0 C 0,1.105 4.253,2 9.5,2 14.747,2 19,1.105 19,0 19,-1.105 14.747,-2 9.5,-2 4.253,-2 0,-1.105 0,0"
                 inkscape:connector-curvature="0" />
            </g>
            <g
               transform="translate(27.001,27)"
               id="g6214">
              <path
                 id="path6216"
                 style="fill:#4289c1;fill-opacity:1;fill-rule:nonzero;stroke:none"
                 d="m 0,0 -18,0 0,2.999 c 0,0 3.75,2.25 8.999,2.25 C -3.75,5.249 0,2.999 0,2.999 L 0,0 Z"
                 inkscape:connector-curvature="0" />
            </g>
            <g
               transform="translate(27.5,27)"
               id="g6218">
              <path
                 id="path6220"
                 style="fill:#fdcb58;fill-opacity:1;fill-rule:nonzero;stroke:none"
                 d="m 0,0 -19,0 c -0.275,0 -0.5,0.225 -0.5,0.5 0,0.275 0.225,0.5 0.5,0.5 L 0,1 C 0.275,1 0.5,0.775 0.5,0.5 0.5,0.225 0.275,0 0,0"
                 inkscape:connector-curvature="0" />
            </g>
            <g
               transform="translate(18.001,5.1221)"
               id="g6222">
              <path
                 id="path6224"
                 style="fill:#193d59;fill-opacity:1;fill-rule:nonzero;stroke:none"
                 d="M 0,0 C 0,0 3.381,-2.494 4.093,-2.778 4.249,-2.841 3.727,0.878 3.727,0.878 l -7.455,0 c 0,0 -0.523,-3.781 -0.231,-3.625 C -3.32,-2.404 0,0 0,0"
                 inkscape:connector-curvature="0" />
            </g>
            <g
               transform="translate(19.3125,2.5625)"
               id="g6226">
              <path
                 id="path6228"
                 style="fill:#193d59;fill-opacity:1;fill-rule:nonzero;stroke:none"
                 d="m 0,0 c 0,0 0.375,0.625 0.531,0.906 0.183,0.329 0.453,1.571 0.453,1.571 l -2.187,0.961 c 0,0.007 -0.16,-0.005 -0.16,-0.005 L -1.547,3.391 -1.719,3.328 C -1.936,3.258 -1.625,3.32 -1.625,3.313 L -3.599,2.477 c 0,0 0.288,-1.242 0.47,-1.571 C -2.973,0.625 -2.601,0 -2.601,0 c 0,0 -0.753,-0.562 -1.035,-2.563 l 2.325,0 0.019,0 2.323,0 C 0.75,-0.969 0,0 0,0"
                 inkscape:connector-curvature="0" />
            </g>
            <g
               transform="translate(13.2915,9.375)"
               id="g6230">
              <path
                 id="path6232"
                 style="fill:#4289c1;fill-opacity:1;fill-rule:nonzero;stroke:none"
                 d="m 0,0 c 0.566,-0.566 4.71,-3.383 4.71,-3.383 0,0 -2.127,-1.242 -4.085,-3.534 -0.197,-0.23 -1.542,4.625 -1.583,5.709 C -0.97,-0.905 -0.271,0.271 0,0"
                 inkscape:connector-curvature="0" />
            </g>
            <g
               transform="translate(22.7305,9.375)"
               id="g6234">
              <path
                 id="path6236"
                 style="fill:#4289c1;fill-opacity:1;fill-rule:nonzero;stroke:none"
                 d="m 0,0 c -0.566,-0.566 -4.709,-3.383 -4.709,-3.383 0,0 2.126,-1.242 4.084,-3.534 0.196,-0.23 1.542,4.625 1.583,5.709 C 0.97,-0.905 0.271,0.271 0,0"
                 inkscape:connector-curvature="0" />
            </g>
            <g
               transform="translate(18.0156,5.3125)"
               id="g6238">
              <path
                 id="path6240"
                 style="fill:#1e4b6e;fill-opacity:1;fill-rule:nonzero;stroke:none"
                 d="M 0,0 C 0.39,0.022 1.543,-0.771 1.422,-1.25 0.961,-3.077 0.573,-2.641 0.031,-2.641 c -0.611,0 -0.964,-0.472 -1.39,1.313 C -1.452,-0.941 -0.562,-0.031 0,0"
                 inkscape:connector-curvature="0" />
            </g>
            <g
               transform="translate(20.0469,0)"
               id="g6242">
              <path
                 id="path6244"
                 style="fill:#1e4b6e;fill-opacity:1;fill-rule:nonzero;stroke:none"
                 d="m 0,0 -4.023,0 c 0,0 0.541,2.167 2.018,2.167 C -0.528,2.167 0,0 0,0"
                 inkscape:connector-curvature="0" />
            </g>
          </g>
        </g>
        <g
           id="g6246">
          <g
             clip-path="url(#clipPath108)"
             id="g106">
            <g
               transform="translate(20.25,34.499)"
               id="g6249">
              <path
                 id="path6251"
                 style="fill:#fdcb58;fill-opacity:1;fill-rule:nonzero;stroke:none"
                 d="m 0,0 c 0,0 -0.001,-0.001 -0.002,-0.001 l 0,0.001 0,-0.001 c -0.233,0 -0.434,-0.114 -0.57,-0.282 -0.282,-0.069 -0.667,-0.084 -1.157,0.071 C -1.865,-0.082 -2.047,0 -2.25,0 c -0.201,0 -0.384,-0.082 -0.519,-0.212 -0.491,-0.155 -0.876,-0.14 -1.157,-0.071 -0.137,0.168 -0.338,0.282 -0.571,0.282 l 0,0.001 0,-0.001 c 0,0 -0.001,0.001 -0.002,0.001 -0.415,0 -0.75,-0.335 -0.75,-0.75 0,-0.414 0.335,-0.75 0.75,-0.75 l 10e-4,0 0.001,0 c 0,-3 1.498,-3.75 2.247,-3.75 0.751,0 2.248,0.75 2.248,3.75 L 0,-1.5 c 0.416,0 0.751,0.336 0.751,0.75 C 0.751,-0.335 0.416,0 0,0"
                 inkscape:connector-curvature="0" />
            </g>
            <g
               transform="translate(11.4683,6.5879)"
               id="g6253">
              <path
                 id="path6255"
                 style="fill:#4289c1;fill-opacity:1;fill-rule:nonzero;stroke:none"
                 d="m 0,0 -5.926,-0.938 c -0.272,-0.043 -0.529,0.143 -0.572,0.416 l -0.157,0.988 c -0.043,0.27 0.144,0.528 0.416,0.571 l 5.927,0.939 C -0.041,2.019 0.217,1.831 0.26,1.561 L 0.416,0.572 C 0.459,0.301 0.271,0.044 0,0"
                 inkscape:connector-curvature="0" />
            </g>
            <g
               transform="translate(11.2017,7.4863)"
               id="g120">
              <path
                 id="path122"
                 style="fill:#ffffff;fill-opacity:1;fill-rule:nonzero;stroke:none"
                 d="m 0,0 c 0,-0.318 -0.258,-0.576 -0.577,-0.576 -0.319,0 -0.576,0.258 -0.576,0.576 0,0.319 0.257,0.577 0.576,0.577 C -0.258,0.577 0,0.319 0,0"
                 inkscape:connector-curvature="0" />
            </g>
            <g
               transform="translate(24.5439,6.5879)"
               id="g124">
              <path
                 id="path126"
                 style="fill:#4289c1;fill-opacity:1;fill-rule:nonzero;stroke:none"
                 d="m 0,0 5.926,-0.938 c 0.272,-0.043 0.529,0.143 0.572,0.416 L 6.655,0.466 C 6.698,0.736 6.512,0.994 6.239,1.037 L 0.312,1.976 C 0.041,2.019 -0.217,1.831 -0.26,1.561 L -0.416,0.572 C -0.459,0.301 -0.271,0.044 0,0"
                 inkscape:connector-curvature="0" />
            </g>
            <g
               transform="translate(24.6152,7.4863)"
               id="g128">
              <path
                 id="path130"
                 style="fill:#ffffff;fill-opacity:1;fill-rule:nonzero;stroke:none"
                 d="m 0,0 c 0,-0.318 0.258,-0.576 0.576,-0.576 0.319,0 0.576,0.258 0.576,0.576 0,0.319 -0.257,0.577 -0.576,0.577 C 0.258,0.577 0,0.319 0,0"
                 inkscape:connector-curvature="0" />
            </g>
          </g>
        </g>
      </g>
    </g>
    <g
       transform="matrix(0.83016225,0.07262979,-0.07262979,0.83016225,101.93849,73.370114)"
       id="g6263">
      <g
         transform="matrix(1.25,0,0,-1.25,0,47.5)"
         id="g6265">
        <g
           id="g6267">
          <g
             clip-path="url(#clipPath16)"
             id="g6269">
            <g
               transform="translate(17.522,36.7676)"
               id="g6271">
              <path
                 id="path6273"
                 style="fill:#ea596e;fill-opacity:1;fill-rule:nonzero;stroke:none"
                 d="m 0,0 c 2.246,0 4.832,-1.375 6.703,-3.249 1.873,-1.874 3.775,-3.927 3.775,-5.998 l 0,-17.204 -15.974,-0.031 0,17.133 C -5.589,-7.844 -4.421,0 0,0"
                 inkscape:connector-curvature="0" />
            </g>
            <g
               transform="translate(20,25.6221)"
               id="g6275">
              <path
                 id="path6277"
                 style="fill:#dd2e44;fill-opacity:1;fill-rule:nonzero;stroke:none"
                 d="m 0,0 0,-16.622 c 0,-1.105 0.896,0 2,0 l 0,-2 c 1.104,0 2,0.895 2,2 L 4,-0.956 C 2.742,-0.851 1.35,-0.693 0,0"
                 inkscape:connector-curvature="0" />
            </g>
            <g
               transform="translate(23.0723,33.5454)"
               id="g6279">
              <path
                 id="path6281"
                 style="fill:#f4abba;fill-opacity:1;fill-rule:nonzero;stroke:none"
                 d="m 0,0 c 2.664,-2.391 4.277,-5.236 2.961,-6.699 -1.315,-1.464 -5.06,-0.991 -7.721,1.4 -2.661,2.39 -3.753,5.515 -2.439,6.978 C -5.883,3.143 -2.661,2.391 0,0"
                 inkscape:connector-curvature="0" />
            </g>
            <g
               transform="translate(31,3)"
               id="g6283">
              <path
                 id="path6285"
                 style="fill:#ffcc4d;fill-opacity:1;fill-rule:nonzero;stroke:none"
                 d="m 0,0 c 0,-1.104 -0.896,-2 -2,-2 l -18,0 c -1.104,0 -2,0.896 -2,2 l 0,6 c 0,1.104 0.896,2 2,2 L -2,8 C -0.896,8 0,7.104 0,6 L 0,0 Z"
                 inkscape:connector-curvature="0" />
            </g>
            <g
               transform="translate(32,3)"
               id="g6287">
              <path
                 id="path6289"
                 style="fill:#ffac33;fill-opacity:1;fill-rule:nonzero;stroke:none"
                 d="m 0,0 c 0,-1.104 -0.896,-2 -2,-2 l -20,0 c -1.104,0 -2,0.896 -2,2 l 0,1 c 0,1.104 0.896,2 2,2 L -2,3 C -0.896,3 0,2.104 0,1 L 0,0 Z"
                 inkscape:connector-curvature="0" />
            </g>
          </g>
        </g>
      </g>
    </g>
    <g
       transform="matrix(0.53115803,-0.34493806,0.34493806,0.53115803,87.6948,146.89508)"
       id="g6291">
      <g
         transform="matrix(1.25,0,0,-1.25,0,47.5)"
         id="g6293">
        <g
           id="g6295">
          <g
             clip-path="url(#clipPath16)"
             id="g6297">
            <g
               transform="translate(20,9.7451)"
               id="g6299">
              <path
                 id="path6301"
                 style="fill:#8899a6;fill-opacity:1;fill-rule:nonzero;stroke:none"
                 d="m 0,0 c 0,0 8,0.213 9.651,4.075 1.07,2.501 -0.609,9.554 -0.609,13.93 0,1.481 -1.167,2.25 -3.416,2.25 l -6.124,0 -1.125,0 -1.125,0 -6.123,0 c -1.125,0 -3.329,0.262 -3.329,-2.125 0,-4.284 -1.765,-11.341 -0.634,-13.815 C -10.958,0.213 -3,0 -3,0 l 0,-3.123 c 0,0 -4.584,-2.34 -5.498,-2.883 -0.984,-0.562 -0.33,-1.462 0.063,-1.617 0.657,-0.258 2.254,-1.102 6.781,-1.102 4.64,0 6.202,0.914 6.764,1.102 0.217,0.072 1.347,0.932 0.011,1.723 C 2.743,-4.492 0,-3.123 0,-3.123 L 0,0 Z"
                 inkscape:connector-curvature="0" />
            </g>
            <g
               transform="translate(29,28.5576)"
               id="g6303">
              <path
                 id="path6305"
                 style="fill:#ccd6dd;fill-opacity:1;fill-rule:nonzero;stroke:none"
                 d="m 0,0 c 0,-1.621 -2.547,-2.935 -10.623,-2.935 -8.076,0 -10.623,1.314 -10.623,2.935 0,1.622 2.547,2.935 10.623,2.935 C -2.547,2.935 0,1.622 0,0"
                 inkscape:connector-curvature="0" />
            </g>
            <g
               transform="translate(9.4585,28.4165)"
               id="g6307">
              <path
                 id="path6309"
                 style="fill:#ccd6dd;fill-opacity:1;fill-rule:nonzero;stroke:none"
                 d="m 0,0 c 2.042,-9.5 -2.417,-13.583 2.083,-15.167 5.432,-1.911 8.542,-1.592 13.459,0 4.5,1.459 1.5,6.875 2.125,14.792 C 17.828,1.662 0,0 0,0"
                 inkscape:connector-curvature="0" />
            </g>
            <g
               transform="translate(10.0415,22.4165)"
               id="g6311">
              <path
                 id="path6313"
                 style="fill:#f4900c;fill-opacity:1;fill-rule:nonzero;stroke:none"
                 d="m 0,0 c -0.083,-1.083 -1.09,-6.129 -0.625,-7.292 0.5,-1.25 1.75,-3.25 8.917,-3.25 5.25,0 8.583,1.584 9.125,3.584 0.47,1.74 -0.25,5.583 -0.334,7"
                 inkscape:connector-curvature="0" />
            </g>
            <g
               transform="translate(27,22.5)"
               id="g6315">
              <path
                 id="path6317"
                 style="fill:#ffcc4d;fill-opacity:1;fill-rule:nonzero;stroke:none"
                 d="m 0,0 c 0,-0.829 -3.806,-1.5 -8.5,-1.5 -4.694,0 -8.5,0.671 -8.5,1.5 0,0.829 3.806,1.5 8.5,1.5 C -3.806,1.5 0,0.829 0,0"
                 inkscape:connector-curvature="0" />
            </g>
            <g
               transform="translate(25.7451,32.0991)"
               id="g6319">
              <path
                 id="path6321"
                 style="fill:#c1694f;fill-opacity:1;fill-rule:nonzero;stroke:none"
                 d="m 0,0 c 0,0 -5.922,-13.911 -6.231,-14.549 -0.376,-0.781 0.601,-1.874 1.47,-0.484 0.868,1.391 6.741,13.698 6.741,13.698 L 0,0 Z"
                 inkscape:connector-curvature="0" />
            </g>
            <g
               transform="translate(18.3105,25.3247)"
               id="g6323">
              <path
                 id="path6325"
                 style="fill:#ffffff;fill-opacity:1;fill-rule:nonzero;stroke:none"
                 d="M 0,0 C -4.292,0 -7.672,1.007 -8.943,1.604 -9.444,1.838 -9.659,2.433 -9.424,2.933 -9.19,3.434 -8.595,3.649 -8.095,3.414 -8.021,3.379 -0.388,0.138 8.457,3.525 8.971,3.725 9.551,3.466 9.748,2.95 9.946,2.434 9.688,1.855 9.172,1.658 5.95,0.424 2.783,0 0,0"
                 inkscape:connector-curvature="0" />
            </g>
            <g
               transform="translate(29,35.75)"
               id="g6327">
              <path
                 id="path6329"
                 style="fill:#77b255;fill-opacity:1;fill-rule:nonzero;stroke:none"
                 d="m 0,0 c -2.333,0 -9.375,0.042 -10.208,0.042 -1,0 -0.325,-2.987 7,-6.5 7.125,-3.417 9.501,-2.334 8.792,-1.5 C 4.626,-6.458 0,0 0,0"
                 inkscape:connector-curvature="0" />
            </g>
          </g>
        </g>
        <g
           id="g6331">
          <g
             clip-path="url(#clipPath56)"
             id="g54">
            <g
               transform="translate(21.375,22.75)"
               id="g6334">
              <path
                 id="path6336"
                 style="fill:#ffac33;fill-opacity:1;fill-rule:nonzero;stroke:none"
                 d="m 0,0 c 1,-0.5 1.875,-0.625 2.792,-0.5 0.917,0.125 0.75,-0.667 -0.25,-0.875 -1,-0.208 -2.833,-0.375 -4,-0.292 C -2.625,-1.583 0,0 0,0"
                 inkscape:connector-curvature="0" />
            </g>
            <g
               transform="translate(19.4585,21)"
               id="g6338">
              <path
                 id="path6340"
                 style="fill:#cc6f00;fill-opacity:1;fill-rule:nonzero;stroke:none"
                 d="M 0,0 C 1.167,0 3.75,0.167 4.458,0.333 5.167,0.5 4.875,-5.874 2.542,-5.833 0.208,-5.792 -2.25,-6.709 -1.75,-4.625 -1.25,-2.542 0,0 0,0"
                 inkscape:connector-curvature="0" />
            </g>
          </g>
        </g>
        <g
           id="g6342">
          <g
             clip-path="url(#clipPath72)"
             id="g70">
            <g
               transform="translate(33.3301,24.9438)"
               id="g6345">
              <path
                 id="path6347"
                 style="fill:#77b255;fill-opacity:1;fill-rule:nonzero;stroke:none"
                 d="m 0,0 -0.001,0 c -1.309,0 -3.754,0.424 -7.97,2.446 -6.363,3.052 -8.228,5.863 -7.891,7.343 0.144,0.633 0.676,1.059 1.324,1.059 0.312,0 1.494,-0.006 2.975,-0.014 2.47,-0.012 5.774,-0.028 7.233,-0.028 0.322,0 0.625,-0.156 0.812,-0.417 C -3.329,10.126 1.048,4.014 2.067,2.432 2.397,2.003 2.467,1.479 2.252,1.013 2.038,0.551 1.474,0 0,0"
                 inkscape:connector-curvature="0" />
            </g>
          </g>
        </g>
        <g
           id="g6349">
          <g
             clip-path="url(#clipPath84)"
             id="g82">
            <g
               transform="translate(30.584,35.0415)"
               id="g6352">
              <path
                 id="path6354"
                 style="fill:#5c913b;fill-opacity:1;fill-rule:nonzero;stroke:none"
                 d="M 0,0 C 0.916,-1.875 3.541,-8.708 -4.292,-8.458 -0.834,-11.75 -1.416,-17 3,-13.875 7.416,-10.75 9.874,-5.25 7.416,-3.292 4.958,-1.333 0,0 0,0"
                 inkscape:connector-curvature="0" />
            </g>
          </g>
        </g>
        <g
           id="g6356">
          <g
             clip-path="url(#clipPath96)"
             id="g94">
            <g
               transform="translate(30.875,35.3125)"
               id="g6359">
              <path
                 id="path6361"
                 style="fill:#3e721d;fill-opacity:1;fill-rule:nonzero;stroke:none"
                 d="m 0,0 c 0,-0.932 -0.756,-1.687 -1.687,-1.687 -0.932,0 -1.688,0.755 -1.688,1.687 0,0.932 0.756,1.687 1.688,1.687 C -0.756,1.687 0,0.932 0,0"
                 inkscape:connector-curvature="0" />
            </g>
          </g>
        </g>
      </g>
    </g>
    <g
       transform="matrix(-0.22696637,-0.5912676,0.5912676,-0.22696637,56.568407,62.800799)"
       id="g6363">
      <g
         transform="matrix(1.25,0,0,-1.25,0,47.5)"
         id="g6365">
        <g
           id="g6367">
          <g
             clip-path="url(#clipPath16)"
             id="g6369">
            <g
               transform="translate(24.9121,24.9131)"
               id="g6371">
              <path
                 id="path6373"
                 style="fill:#f18f26;fill-opacity:1;fill-rule:nonzero;stroke:none"
                 d="m 0,0 c -1.693,1.692 -3.594,2.587 -5.497,2.587 -1.626,0 -3.19,-0.668 -4.402,-1.88 -1.519,-1.519 -1.728,-2.39 -1.866,-2.966 -0.07,-0.295 -0.105,-0.421 -0.255,-0.57 -0.105,-0.106 -0.155,-0.256 -0.14,-0.406 0.015,-0.149 0.1,-0.286 0.225,-0.369 0.013,-0.009 0.324,-0.22 0.368,-0.651 0.039,-0.394 -0.13,-1.08 -1.16,-2.11 -0.629,-0.629 -1.252,-0.948 -1.85,-0.948 -0.981,0 -1.649,0.87 -1.653,0.876 -0.111,0.15 -0.295,0.227 -0.481,0.197 -0.185,-0.029 -0.337,-0.158 -0.396,-0.335 -0.221,-0.663 -0.251,-0.668 -0.535,-0.709 -0.59,-0.086 -1.578,-0.23 -3.624,-2.276 -1.675,-1.674 -2.265,-3.766 -1.708,-6.047 0.395,-1.618 1.408,-3.359 2.708,-4.66 1.408,-1.408 3.803,-2.912 6.301,-2.912 l 10e-4,0 c 1.654,0 3.136,0.643 4.405,1.912 2.046,2.046 2.189,3.034 2.275,3.624 0.041,0.285 0.046,0.314 0.709,0.535 0.178,0.059 0.307,0.212 0.336,0.396 0.03,0.184 -0.046,0.369 -0.196,0.481 -0.008,0.005 -0.805,0.619 -0.873,1.527 -0.047,0.638 0.27,1.302 0.944,1.975 0.963,0.963 1.622,1.166 2.005,1.166 0.504,0 0.746,-0.358 0.752,-0.367 0.08,-0.13 0.215,-0.216 0.368,-0.234 0.142,-0.016 0.302,0.035 0.411,0.143 0.149,0.15 0.275,0.185 0.57,0.255 0.576,0.139 1.446,0.348 2.965,1.867 C 2.994,-7.612 3.663,-3.664 0,0"
                 inkscape:connector-curvature="0" />
            </g>
            <g
               transform="translate(33,32.0005)"
               id="g6375">
              <path
                 id="path6377"
                 style="fill:#292f33;fill-opacity:1;fill-rule:nonzero;stroke:none"
                 d="M 0,0 -13.878,-15 -16,-12.879 -1,1 0,0 Z"
                 inkscape:connector-curvature="0" />
            </g>
            <g
               transform="translate(35.7041,34.3145)"
               id="g6379">
              <path
                 id="path6381"
                 style="fill:#f18f26;fill-opacity:1;fill-rule:nonzero;stroke:none"
                 d="m 0,0 c 0.437,-0.438 0.437,-1.155 -0.001,-1.592 l -3.187,-3.186 c -0.438,-0.438 -1.155,-0.438 -1.592,0 l -1.39,1.389 c -0.437,0.438 -0.437,1.155 0.001,1.593 l 3.187,3.186 c 0.438,0.437 1.155,0.437 1.592,-10e-4 L 0,0 Z"
                 inkscape:connector-curvature="0" />
            </g>
            <g
               transform="translate(35,29)"
               id="g6383">
              <path
                 id="path6385"
                 style="fill:#642116;fill-opacity:1;fill-rule:nonzero;stroke:none"
                 d="m 0,0 c 0,-0.552 -0.447,-1 -1,-1 -0.553,0 -1,0.448 -1,1 0,0.552 0.447,1 1,1 0.553,0 1,-0.448 1,-1"
                 inkscape:connector-curvature="0" />
            </g>
            <g
               transform="translate(37,31)"
               id="g6387">
              <path
                 id="path6389"
                 style="fill:#642116;fill-opacity:1;fill-rule:nonzero;stroke:none"
                 d="m 0,0 c 0,-0.553 -0.447,-1 -1,-1 -0.553,0 -1,0.447 -1,1 0,0.553 0.447,1 1,1 0.553,0 1,-0.447 1,-1"
                 inkscape:connector-curvature="0" />
            </g>
            <g
               transform="translate(30,34)"
               id="g6391">
              <path
                 id="path6393"
                 style="fill:#642116;fill-opacity:1;fill-rule:nonzero;stroke:none"
                 d="m 0,0 c 0,-0.553 -0.447,-1 -1,-1 -0.553,0 -1,0.447 -1,1 0,0.553 0.447,1 1,1 0.553,0 1,-0.447 1,-1"
                 inkscape:connector-curvature="0" />
            </g>
            <g
               transform="translate(32,36)"
               id="g6395">
              <path
                 id="path6397"
                 style="fill:#642116;fill-opacity:1;fill-rule:nonzero;stroke:none"
                 d="m 0,0 c 0,-0.553 -0.447,-1 -1,-1 -0.553,0 -1,0.447 -1,1 0,0.553 0.447,1 1,1 0.553,0 1,-0.447 1,-1"
                 inkscape:connector-curvature="0" />
            </g>
            <g
               transform="translate(3,5)"
               id="g6399">
              <path
                 id="path6401"
                 style="fill:#292f33;fill-opacity:1;fill-rule:nonzero;stroke:none"
                 d="M 0,0 4,5 C 4,5 4.999,5 6,4 7,3 7,2 7,2 L 2,-2 0,0 Z"
                 inkscape:connector-curvature="0" />
            </g>
            <g
               transform="translate(13.9995,10)"
               id="g6403">
              <path
                 id="path6405"
                 style="fill:#fee7b8;fill-opacity:1;fill-rule:nonzero;stroke:none"
                 d="m 0,0 c -0.256,0 -0.512,0.098 -0.707,0.293 l -3,3 c -0.391,0.391 -0.391,1.023 0,1.414 0.391,0.391 1.023,0.391 1.414,0 l 3,-3 C 1.098,1.316 1.098,0.684 0.707,0.293 0.512,0.098 0.256,0 0,0"
                 inkscape:connector-curvature="0" />
            </g>
          </g>
        </g>
      </g>
    </g>
    <g
       transform="matrix(0.5591929,-0.82903757,0.82903757,0.5591929,50.171326,91.287234)"
       id="g6407">
      <g
         transform="matrix(1.25,0,0,-1.25,0,47.5)"
         id="g6409">
        <g
           id="g6411">
          <g
             id="g6413">
            <g
               transform="translate(36,19)"
               id="g6415">
              <path
                 id="path6417"
                 style="fill:#ffcc4d;fill-opacity:1;fill-rule:nonzero;stroke:none"
                 d="m 0,0 c 0,-9.389 -7.611,-17 -17,-17 -9.389,0 -17,7.611 -17,17 0,9.389 7.611,17 17,17 C -7.611,17 0,9.389 0,0"
                 inkscape:connector-curvature="0" />
            </g>
            <g
               transform="translate(19,15.1514)"
               id="g6419">
              <path
                 id="path6421"
                 style="fill:#664500;fill-opacity:1;fill-rule:nonzero;stroke:none"
                 d="m 0,0 c -2.966,0 -4.935,0.346 -7.369,0.819 -0.557,0.107 -1.638,0 -1.638,-1.637 0,-3.276 3.763,-7.37 9.007,-7.37 5.244,0 9.007,4.094 9.007,7.37 0,1.637 -1.082,1.745 -1.638,1.637 C 4.936,0.346 2.967,0 0,0"
                 inkscape:connector-curvature="0" />
            </g>
            <g
               transform="translate(17.6499,33.7192)"
               id="g6423">
              <path
                 id="path6425"
                 style="fill:#e75a70;fill-opacity:1;fill-rule:nonzero;stroke:none"
                 d="m 0,0 c -0.859,2.431 -3.524,3.707 -5.956,2.85 -1.476,-0.521 -2.521,-1.711 -2.928,-3.105 -1.191,0.83 -2.751,1.1 -4.224,0.581 -2.431,-0.858 -3.708,-3.525 -2.85,-5.956 0.122,-0.345 0.284,-0.663 0.472,-0.958 1.951,-3.582 7.588,-6.1 11.002,-6.131 2.636,2.167 5.446,7.664 4.717,11.677 C 0.195,-0.694 0.12,-0.344 0,0"
                 inkscape:connector-curvature="0" />
            </g>
            <g
               transform="translate(20.3496,33.7192)"
               id="g6427">
              <path
                 id="path6429"
                 style="fill:#e75a70;fill-opacity:1;fill-rule:nonzero;stroke:none"
                 d="m 0,0 c 0.859,2.431 3.525,3.707 5.956,2.85 1.477,-0.521 2.521,-1.711 2.929,-3.105 1.191,0.83 2.751,1.1 4.224,0.581 2.43,-0.858 3.707,-3.525 2.85,-5.956 -0.123,-0.345 -0.284,-0.663 -0.473,-0.958 -1.951,-3.582 -7.588,-6.1 -11.002,-6.131 -2.636,2.167 -5.445,7.664 -4.716,11.677 C -0.194,-0.694 -0.119,-0.344 0,0"
                 inkscape:connector-curvature="0" />
            </g>
          </g>
        </g>
      </g>
    </g>
    <g
       transform="matrix(0.08124623,-0.66169743,0.66169743,0.08124623,143.33932,97.273115)"
       id="g6431">
      <g
         transform="matrix(1.25,0,0,-1.25,0,45)"
         id="g6433">
        <g
           id="g6435">
          <g
             clip-path="url(#clipPath16)"
             id="g6437">
            <g
               transform="translate(8,34)"
               id="g6439">
              <path
                 id="path6441"
                 style="fill:none;stroke:#292f33;stroke-width:2;stroke-linecap:round;stroke-linejoin:round;stroke-miterlimit:10;stroke-dasharray:none;stroke-opacity:1"
                 d="M 0,0 C -0.042,-5.625 3,-11 7,-14"
                 inkscape:connector-curvature="0" />
            </g>
            <g
               transform="translate(16,18)"
               id="g6443">
              <path
                 id="path6445"
                 style="fill:none;stroke:#292f33;stroke-width:2;stroke-linecap:round;stroke-linejoin:round;stroke-miterlimit:10;stroke-dasharray:none;stroke-opacity:1"
                 d="M 0,0 C -2,0 -9,1 -12,8"
                 inkscape:connector-curvature="0" />
            </g>
            <g
               transform="translate(16,16)"
               id="g6447">
              <path
                 id="path6449"
                 style="fill:none;stroke:#292f33;stroke-width:2;stroke-linecap:round;stroke-linejoin:round;stroke-miterlimit:10;stroke-dasharray:none;stroke-opacity:1"
                 d="M 0,0 C -1,0 -9,1 -12,-8"
                 inkscape:connector-curvature="0" />
            </g>
            <g
               transform="translate(16,16)"
               id="g6451">
              <path
                 id="path6453"
                 style="fill:none;stroke:#292f33;stroke-width:2;stroke-linecap:round;stroke-linejoin:round;stroke-miterlimit:10;stroke-dasharray:none;stroke-opacity:1"
                 d="M 0,0 C -5,-3 -8,-11 -8,-15"
                 inkscape:connector-curvature="0" />
            </g>
            <g
               transform="translate(28,34)"
               id="g6455">
              <path
                 id="path6457"
                 style="fill:none;stroke:#292f33;stroke-width:2;stroke-linecap:round;stroke-linejoin:round;stroke-miterlimit:10;stroke-dasharray:none;stroke-opacity:1"
                 d="M 0,0 C 0.042,-5.625 -3,-11 -7,-14"
                 inkscape:connector-curvature="0" />
            </g>
            <g
               transform="translate(20,18)"
               id="g6459">
              <path
                 id="path6461"
                 style="fill:none;stroke:#292f33;stroke-width:2;stroke-linecap:round;stroke-linejoin:round;stroke-miterlimit:10;stroke-dasharray:none;stroke-opacity:1"
                 d="M 0,0 C 2,0 9,1 12,8"
                 inkscape:connector-curvature="0" />
            </g>
            <g
               transform="translate(20,16)"
               id="g6463">
              <path
                 id="path6465"
                 style="fill:none;stroke:#292f33;stroke-width:2;stroke-linecap:round;stroke-linejoin:round;stroke-miterlimit:10;stroke-dasharray:none;stroke-opacity:1"
                 d="M 0,0 C 1,0 9,1 12,-8"
                 inkscape:connector-curvature="0" />
            </g>
            <g
               transform="translate(20,16)"
               id="g6467">
              <path
                 id="path6469"
                 style="fill:none;stroke:#292f33;stroke-width:2;stroke-linecap:round;stroke-linejoin:round;stroke-miterlimit:10;stroke-dasharray:none;stroke-opacity:1"
                 d="M 0,0 C 5,-3 8,-11 8,-15"
                 inkscape:connector-curvature="0" />
            </g>
            <g
               transform="translate(24,10.792)"
               id="g6471">
              <path
                 id="path6473"
                 style="fill:#292f33;fill-opacity:1;fill-rule:nonzero;stroke:none"
                 d="m 0,0 c 0,-3.751 -2.688,-6.792 -6,-6.792 -3.314,0 -6,3.041 -6,6.792 0,3.751 2.686,6.792 6,6.792 3.312,0 6,-3.041 6,-6.792"
                 inkscape:connector-curvature="0" />
            </g>
            <g
               transform="translate(22,19)"
               id="g6475">
              <path
                 id="path6477"
                 style="fill:#292f33;fill-opacity:1;fill-rule:nonzero;stroke:none"
                 d="m 0,0 c 0,-3.314 -1.79,-6 -4,-6 -2.208,0 -4,2.686 -4,6 0,3.314 1.792,6 4,6 2.21,0 4,-2.686 4,-6"
                 inkscape:connector-curvature="0" />
            </g>
            <g
               transform="translate(15,26)"
               id="g6479">
              <path
                 id="path6481"
                 style="fill:none;stroke:#292f33;stroke-width:2;stroke-linecap:round;stroke-linejoin:round;stroke-miterlimit:10;stroke-dasharray:none;stroke-opacity:1"
                 d="M 0,0 C 0,-1 0,-2 1,-3"
                 inkscape:connector-curvature="0" />
            </g>
            <g
               transform="translate(21,26)"
               id="g6483">
              <path
                 id="path6485"
                 style="fill:none;stroke:#292f33;stroke-width:2;stroke-linecap:round;stroke-linejoin:round;stroke-miterlimit:10;stroke-dasharray:none;stroke-opacity:1"
                 d="M 0,0 C 0,-1 0,-2 -1,-3"
                 inkscape:connector-curvature="0" />
            </g>
          </g>
        </g>
      </g>
    </g>
    <g
       transform="matrix(0.36326508,-0.51879629,0.51879629,0.36326508,11.51648,80.572523)"
       id="g6487">
      <g
         transform="matrix(1.25,0,0,-1.25,0,47.5)"
         id="g6489">
        <g
           id="g6491">
          <g
             clip-path="url(#clipPath16)"
             id="g6493">
            <g
               transform="translate(2.0005,20)"
               id="g6495">
              <path
                 id="path6497"
                 style="fill:#a0041e;fill-opacity:1;fill-rule:nonzero;stroke:none"
                 d="m 0,0 8,7 16,-1 1,-16 -7,-8 c 0,0 0,5.999 -6,12 C 5.999,0.001 0,0 0,0"
                 inkscape:connector-curvature="0" />
            </g>
            <g
               transform="translate(1.9727,2)"
               id="g6499">
              <path
                 id="path6501"
                 style="fill:#ffac33;fill-opacity:1;fill-rule:nonzero;stroke:none"
                 d="m 0,0 c 0,0 -0.036,7.979 2.985,11 3.021,3.021 11.042,2.813 11.042,2.813 C 14.027,13.813 14.026,6 11.026,3 8.026,0 0,0 0,0"
                 inkscape:connector-curvature="0" />
            </g>
            <g
               transform="translate(5.999,10)"
               id="g6503">
              <path
                 id="path6505"
                 style="fill:#ffcc4d;fill-opacity:1;fill-rule:nonzero;stroke:none"
                 d="M 0,0 C 0,2.209 1.791,4 4,4 6.209,4 8,2.209 8,0 8,-2.209 6.209,-4 4,-4 1.791,-4 0,-2.209 0,0"
                 inkscape:connector-curvature="0" />
            </g>
            <g
               transform="translate(36.999,37.0005)"
               id="g6507">
              <path
                 id="path6509"
                 style="fill:#55acee;fill-opacity:1;fill-rule:nonzero;stroke:none"
                 d="m 0,0 c 0,0 -10,0 -22,-10 -6,-5 -6,-14 -4,-16 2,-2 11,-2 16,4 C 0,-10 0,0 0,0"
                 inkscape:connector-curvature="0" />
            </g>
            <g
               transform="translate(27.999,32.0005)"
               id="g6511">
              <path
                 id="path6513"
                 style="fill:#000000;fill-opacity:1;fill-rule:nonzero;stroke:none"
                 d="M 0,0 C -1.623,0 -3.013,-0.971 -3.641,-2.36 -3.139,-2.133 -2.586,-2 -2,-2 0.209,-2 2,-3.791 2,-6 2,-6.586 1.867,-7.139 1.641,-7.64 3.029,-7.013 4,-5.623 4,-4 4,-1.791 2.209,0 0,0"
                 inkscape:connector-curvature="0" />
            </g>
            <g
               transform="translate(9,9)"
               id="g6515">
              <path
                 id="path6517"
                 style="fill:#a0041e;fill-opacity:1;fill-rule:nonzero;stroke:none"
                 d="M 0,0 C 0,0 0,4 1,5 2,6 14.001,15.999 15,15 15.999,14.001 5.999,2 4.999,1 3.999,0 0,0 0,0"
                 inkscape:connector-curvature="0" />
            </g>
          </g>
        </g>
      </g>
    </g>
  </g>
</svg>
