<?xml version="1.0" encoding="UTF-8" standalone="no"?>
<svg
   xmlns:dc="http://purl.org/dc/elements/1.1/"
   xmlns:cc="http://creativecommons.org/ns#"
   xmlns:rdf="http://www.w3.org/1999/02/22-rdf-syntax-ns#"
   xmlns:svg="http://www.w3.org/2000/svg"
   xmlns="http://www.w3.org/2000/svg"
   xmlns:sodipodi="http://sodipodi.sourceforge.net/DTD/sodipodi-0.dtd"
   xmlns:inkscape="http://www.inkscape.org/namespaces/inkscape"
   version="1.1"
   id="svg2"
   viewBox="0 0 200 200"
   height="200px"
   width="200px"
   inkscape:version="0.91 r13725"
   sodipodi:docname="3.svg">
  <metadata
     id="metadata669">
    <rdf:RDF>
      <cc:Work
         rdf:about="">
        <dc:format>image/svg+xml</dc:format>
        <dc:type
           rdf:resource="http://purl.org/dc/dcmitype/StillImage" />
      </cc:Work>
    </rdf:RDF>
  </metadata>
  <sodipodi:namedview
     pagecolor="#ffffff"
     bordercolor="#666666"
     borderopacity="1"
     objecttolerance="10"
     gridtolerance="10"
     guidetolerance="10"
     inkscape:pageopacity="0"
     inkscape:pageshadow="2"
     inkscape:window-width="1920"
     inkscape:window-height="1060"
     id="namedview667"
     showgrid="false"
     inkscape:zoom="3.337544"
     inkscape:cx="128.80385"
     inkscape:cy="75.938425"
     inkscape:window-x="0"
     inkscape:window-y="0"
     inkscape:window-maximized="1"
     inkscape:current-layer="layer1" />
  
    
    
    <defs id="defs6">

        <clipPath
           id="clipPath28"
           clipPathUnits="userSpaceOnUse">
          <path
             id="path30"
             d="M 4,36 C 0,36 0,32 0,32 L 0,32 0,4 C 0,0 4,0 4,0 l 0,0 28,0 c 4,0 4,4 4,4 l 0,0 0,28 c 0,4 -4,4 -4,4 l 0,0 -28,0 z" />
        </clipPath>


        <clipPath clipPathUnits="userSpaceOnUse" id="clipPath16-rugby">
            <path d="M 0,38 38,38 38,0 0,0 0,38 Z" id="path18"/>
        </clipPath>
        <clipPath clipPathUnits="userSpaceOnUse" id="clipPath28-rugby">
            <path d="M 9.254,28.746 C 2.09,21.582 -0.927,9.561 3.929,3.929 l 0,0 C 9.561,-0.927 21.582,2.09 28.746,9.254 l 0,0 c 7.164,7.164 11.229,17.088 5.324,24.816 l 0,0 c -1.886,1.627 -4.489,2.371 -7.387,2.37 l 0,0 c -5.752,0 -12.665,-2.93 -17.429,-7.694" id="path30"/>
        </clipPath>

        <clipPath clipPathUnits="userSpaceOnUse" id="clipPath16-carrot">
            <path d="M 0,36 36,36 36,0 0,0 0,36 Z" id="path18"/>
        </clipPath>
        <clipPath clipPathUnits="userSpaceOnUse" id="clipPath32-carrot">
            <path d="M 11.815,23.013 C 4.2,15.397 -1.265,2.86 0.502,1.093 l 0,0 c 1.768,-1.768 14.305,3.698 21.92,11.313 l 0,0 c 7.616,7.615 7.562,11.53 4.243,14.85 l 0,0 c -1.328,1.328 -2.752,2.133 -4.47,2.133 l 0,0 c -2.575,0 -5.812,-1.809 -10.38,-6.376" id="path34"/>
        </clipPath>

        <clipPath clipPathUnits="userSpaceOnUse" id="clipPath32-hat">
            <path d="m 5,33.666 c 0,-0.034 0.018,-0.067 0.022,-0.101 l 0,0 C 5.008,33.455 5,33.335 5,33.2 l 0,0 L 6.802,9.616 C 3.299,8.705 1,7.424 1,6 L 1,6 C 1,3.238 9.611,1 19,1 l 0,0 c 9.389,0 18,2.238 18,5 l 0,0 c 0,1.424 -2.298,2.705 -5.801,3.616 l 0,0 L 33,33.184 c 0,0.135 -0.008,0.263 -0.021,0.373 l 0,0 C 32.982,33.591 33,33.632 33,33.666 l 0,0 c 0,1.805 -6.268,3.267 -14,3.267 l 0,0 c -7.732,0 -14,-1.462 -14,-3.267" id="path34"/>
        </clipPath>


        <clipPath clipPathUnits="userSpaceOnUse" id="clipPath48-soccer">
            <path d="M 1,19 C 1,9.059 9.059,1 19,1 l 0,0 c 9.941,0 18,8.059 18,18 l 0,0 c 0,9.941 -8.059,18 -18,18 l 0,0 C 9.059,37 1,28.941 1,19" id="path50"/>
        </clipPath>

        <clipPath clipPathUnits="userSpaceOnUse" id="clipPath28-baguette">
            <path d="M 24.052,31.33 5.126,12.406 C 1.342,8.62 1.288,4.133 2.856,2.564 l 0,0 C 4.424,0.997 8.912,1.049 12.697,4.835 l 0,0 18.925,18.924 c 3.784,3.785 3.837,8.273 2.269,9.841 l 0,0 c -0.605,0.606 -1.647,0.969 -2.915,0.969 l 0,0 c -2.014,0 -4.602,-0.917 -6.924,-3.239" id="path30"/>
        </clipPath>
    </defs>



  <g
     id="layer1">
    <circle
       style="opacity:1;fill:white;stroke:black;stroke-width:1;stroke-miterlimit:4;stroke-dasharray:none;stroke-opacity:0.1"
       id="path4039-0-9"
       cx="100px"
       cy="100px"
       r="90px" />

    <g
       transform="matrix(-0.13557654,-0.85599656,0.85599656,-0.13557654,100.01038,138.05693)"
       id="g7">
      <g
         transform="matrix(1.25,0,0,-1.25,0,45)"
         id="g10">
        <g
           id="g12">
          <g
             clip-path="url(#clipPath16)"
             id="g14">
            <g
               transform="translate(17.68,14)"
               id="g20">
              <path
                 id="path22"
                 style="fill:#3e721d;fill-opacity:1;fill-rule:nonzero;stroke:none"
                 d="M 0,0 C 0,0 1.937,-7.873 1.187,-9.373 -1.187,-14.119 0,-14 1.187,-14 l 2.373,0 C 5.933,-14 2.373,0 2.373,0 L 0,0 Z"
                 inkscape:connector-curvature="0" />
            </g>
            <g
               transform="translate(5.2547,16.6134)"
               id="g24">
              <path
                 id="path26"
                 style="fill:#3e721d;fill-opacity:1;fill-rule:nonzero;stroke:none"
                 d="m 0,0 c 0,0 -0.436,-7.993 -1.187,-9.493 -2.373,-4.747 -2.373,-7.12 -1.186,-7.12 l 2.373,0 c 1.187,0 1.187,4.153 1.187,5.34 0,1.186 1.186,8.603 1.186,8.603 L 0,0 Z"
                 inkscape:connector-curvature="0" />
            </g>
            <g
               transform="translate(12.3741,30.7493)"
               id="g28">
              <path
                 id="path17"
                 style="fill:#77b255;fill-opacity:1;fill-rule:nonzero;stroke:none"
                 d="m 0,0 c -2.068,-0.018 -4.209,0.435 -5.523,-2.099 -1.404,-2.709 -2.065,-8.579 0.777,-9.664 2.478,-0.946 7.933,1.187 13.865,-1.186 5.933,-2.373 8.306,-16.612 13.016,-16.631 1.223,-0.004 1.205,-1.123 0,-1.132 -5.914,-0.045 -8.509,5.897 -9.509,5.897 0,0 1,-5.934 0,-5.934 l -4,0 c -1,0 0,3.081 0,4.267 l 0,1.667 c 0,0 -1.593,-1.218 -5.937,-1.218 -3.282,0 -6.063,1.218 -6.063,1.218 0,0 1,-5.934 0,-5.934 l -3.745,0 c -1.678,0 0.165,4.013 0,5.933 -0.102,1.182 -0.511,4.757 -1.224,5.933 -1.726,2.848 -2.763,11.522 -1.929,15.286 0.781,3.526 3.122,6.633 4.675,7.511 1.519,0.858 2.862,1.499 6.19,0.965 C 2.368,4.594 4.184,1.957 3.484,0.605 3.063,-0.206 1.544,0.013 0,0"
                 inkscape:connector-curvature="0" />
            </g>
            <g
               transform="translate(12.9674,33.8185)"
               id="g32">
              <path
                 id="path34"
                 style="fill:#000000;fill-opacity:1;fill-rule:nonzero;stroke:none"
                 d="m 0,0 c 0,-0.328 -0.265,-0.593 -0.593,-0.593 -0.328,0 -0.594,0.265 -0.594,0.593 0,0.328 0.266,0.593 0.594,0.593 C -0.265,0.593 0,0.328 0,0"
                 inkscape:connector-curvature="0" />
            </g>
            <g
               transform="translate(10.2182,17.515)"
               id="g36">
              <path
                 id="path38"
                 style="fill:#5c913b;fill-opacity:1;fill-rule:nonzero;stroke:none"
                 d="m 0,0 c 0.094,-0.304 -0.076,-0.626 -0.38,-0.72 -0.303,-0.094 -0.626,0.076 -0.72,0.379 -0.094,0.304 0.076,0.627 0.38,0.721 C -0.417,0.474 -0.094,0.304 0,0"
                 inkscape:connector-curvature="0" />
            </g>
            <g
               transform="translate(14.0917,16.2665)"
               id="g40">
              <path
                 id="path42"
                 style="fill:#5c913b;fill-opacity:1;fill-rule:nonzero;stroke:none"
                 d="m 0,0 c 0.134,-0.432 -0.108,-0.891 -0.541,-1.025 -0.432,-0.134 -0.891,0.108 -1.025,0.54 -0.134,0.433 0.108,0.892 0.541,1.026 C -0.593,0.674 -0.134,0.432 0,0"
                 inkscape:connector-curvature="0" />
            </g>
            <g
               transform="translate(12.4675,17.6928)"
               id="g44">
              <path
                 id="path46"
                 style="fill:#5c913b;fill-opacity:1;fill-rule:nonzero;stroke:none"
                 d="m 0,0 c 0.071,-0.23 -0.057,-0.474 -0.288,-0.545 -0.23,-0.072 -0.474,0.057 -0.545,0.287 -0.071,0.23 0.058,0.474 0.287,0.546 C -0.315,0.359 -0.071,0.23 0,0"
                 inkscape:connector-curvature="0" />
            </g>
            <g
               transform="translate(14.9249,18.0235)"
               id="g48">
              <path
                 id="path50"
                 style="fill:#5c913b;fill-opacity:1;fill-rule:nonzero;stroke:none"
                 d="m 0,0 c 0.067,-0.217 -0.054,-0.448 -0.272,-0.516 -0.217,-0.067 -0.448,0.055 -0.516,0.272 -0.067,0.218 0.055,0.448 0.272,0.516 C -0.298,0.339 -0.067,0.217 0,0"
                 inkscape:connector-curvature="0" />
            </g>
            <g
               transform="translate(17.7683,17.6741)"
               id="g52">
              <path
                 id="path54"
                 style="fill:#5c913b;fill-opacity:1;fill-rule:nonzero;stroke:none"
                 d="m 0,0 c 0.125,-0.402 -0.101,-0.829 -0.503,-0.954 -0.402,-0.124 -0.829,0.101 -0.953,0.503 -0.125,0.402 0.1,0.829 0.502,0.954 C -0.552,0.627 -0.125,0.402 0,0"
                 inkscape:connector-curvature="0" />
            </g>
            <g
               transform="translate(22.5215,15.6951)"
               id="g56">
              <path
                 id="path58"
                 style="fill:#5c913b;fill-opacity:1;fill-rule:nonzero;stroke:none"
                 d="m 0,0 c 0.08,-0.257 -0.064,-0.531 -0.322,-0.61 -0.257,-0.08 -0.53,0.064 -0.61,0.321 -0.08,0.258 0.064,0.531 0.322,0.611 C -0.353,0.402 -0.08,0.257 0,0"
                 inkscape:connector-curvature="0" />
            </g>
            <g
               transform="translate(16.6673,15.6951)"
               id="g60">
              <path
                 id="path62"
                 style="fill:#5c913b;fill-opacity:1;fill-rule:nonzero;stroke:none"
                 d="m 0,0 c 0.08,-0.257 -0.064,-0.531 -0.322,-0.61 -0.257,-0.08 -0.53,0.064 -0.61,0.321 -0.08,0.258 0.064,0.531 0.322,0.611 C -0.353,0.402 -0.08,0.257 0,0"
                 inkscape:connector-curvature="0" />
            </g>
            <g
               transform="translate(20.8853,17.001)"
               id="g64">
              <path
                 id="path66"
                 style="fill:#5c913b;fill-opacity:1;fill-rule:nonzero;stroke:none"
                 d="m 0,0 c 0.08,-0.257 -0.064,-0.531 -0.322,-0.61 -0.257,-0.08 -0.53,0.064 -0.61,0.321 -0.08,0.258 0.064,0.531 0.322,0.611 C -0.353,0.401 -0.08,0.257 0,0"
                 inkscape:connector-curvature="0" />
            </g>
            <g
               transform="translate(19.3841,16.8018)"
               id="g68">
              <path
                 id="path70"
                 style="fill:#5c913b;fill-opacity:1;fill-rule:nonzero;stroke:none"
                 d="m 0,0 c 0.118,-0.381 -0.095,-0.785 -0.476,-0.903 -0.381,-0.118 -0.786,0.095 -0.904,0.476 -0.117,0.381 0.096,0.785 0.477,0.903 C -0.522,0.594 -0.118,0.381 0,0"
                 inkscape:connector-curvature="0" />
            </g>
          </g>
        </g>
      </g>
    </g>
    <g
       transform="matrix(0.7878462,0.13891854,-0.13891854,0.7878462,67.259857,22.155332)"
       id="g39">
      <g
         transform="matrix(1.25,0,0,-1.25,0,47.5)"
         id="g41">
        <g
           id="g43">
          <g
             clip-path="url(#clipPath16)"
             id="g45">
            <g
               transform="translate(36,19)"
               id="g47">
              <path
                 id="path49"
                 style="fill:#ffcc4d;fill-opacity:1;fill-rule:nonzero;stroke:none"
                 d="m 0,0 c 0,-9.389 -7.611,-17 -17,-17 -9.388,0 -17,7.611 -17,17 0,9.388 7.612,17 17,17 C -7.611,17 0,9.388 0,0"
                 inkscape:connector-curvature="0" />
            </g>
            <g
               transform="translate(28.335,14.3711)"
               id="g51">
              <path
                 id="path53"
                 style="fill:#664500;fill-opacity:1;fill-rule:nonzero;stroke:none"
                 d="m 0,0 c -0.178,0.161 -0.444,0.171 -0.635,0.029 -0.039,-0.029 -3.922,-2.9 -8.7,-2.9 -4.766,0 -8.662,2.871 -8.7,2.9 -0.191,0.142 -0.457,0.13 -0.635,-0.029 -0.177,-0.16 -0.217,-0.424 -0.094,-0.628 0.129,-0.215 3.217,-5.243 9.429,-5.243 6.212,0 9.301,5.028 9.429,5.243 C 0.217,-0.423 0.178,-0.16 0,0"
                 inkscape:connector-curvature="0" />
            </g>
            <g
               transform="translate(19,30)"
               id="g55">
              <path
                 id="path57"
                 style="fill:#5dadec;fill-opacity:1;fill-rule:nonzero;stroke:none"
                 d="M 0,0 C -6.627,0 -12,0.567 -12,2.5 -12,4.433 -6.627,5 0,5 6.627,5 12,4.433 12,2.5 12,0.567 6.627,0 0,0 m 0,7 c -8.836,0 -16,-1.686 -16,-5 0,-3.313 7.164,-5 16,-5 8.836,0 16,1.687 16,5 0,3.314 -7.164,5 -16,5"
                 inkscape:connector-curvature="0" />
            </g>
            <g
               transform="translate(11.375,30.9375)"
               id="g59">
              <path
                 id="path61"
                 style="fill:#ffcc4d;fill-opacity:1;fill-rule:nonzero;stroke:none"
                 d="m 0,0 c -3.397,1.324 -2.5,1.991 -0.062,3.23 2.308,1.172 4.92,1.832 7.687,1.832 2.893,0 5.616,-0.722 8.001,-1.997 0.695,-0.372 1.432,-0.885 2.124,-1.346"
                 inkscape:connector-curvature="0" />
            </g>
            <g
               transform="translate(27,18)"
               id="g63">
              <path
                 id="path65"
                 style="fill:#664500;fill-opacity:1;fill-rule:nonzero;stroke:none"
                 d="M 0,0 C -0.419,0 -0.809,0.265 -0.948,0.684 -1.151,1.283 -1.967,3 -3,3 -4.062,3 -4.889,1.173 -5.052,0.684 -5.227,0.16 -5.788,-0.124 -6.316,0.052 -6.84,0.226 -7.123,0.792 -6.948,1.316 -6.823,1.693 -5.645,5 -3,5 -0.355,5 0.823,1.693 0.948,1.316 1.123,0.792 0.84,0.226 0.316,0.052 0.211,0.017 0.105,0 0,0"
                 inkscape:connector-curvature="0" />
            </g>
            <g
               transform="translate(17,18)"
               id="g67">
              <path
                 id="path69"
                 style="fill:#664500;fill-opacity:1;fill-rule:nonzero;stroke:none"
                 d="M 0,0 C -0.419,0 -0.809,0.265 -0.949,0.684 -1.152,1.283 -1.966,3 -3,3 -4.062,3 -4.888,1.173 -5.051,0.684 -5.226,0.16 -5.79,-0.124 -6.316,0.052 -6.84,0.226 -7.124,0.792 -6.949,1.316 -6.823,1.693 -5.645,5 -3,5 -0.355,5 0.823,1.693 0.949,1.316 1.124,0.792 0.84,0.226 0.316,0.052 0.211,0.017 0.105,0 0,0"
                 inkscape:connector-curvature="0" />
            </g>
          </g>
        </g>
      </g>
    </g>
    <g
       transform="matrix(-0.62553595,0.09907516,-0.09907516,-0.62553595,173.35465,101.28735)"
       id="g71">
      <g
         transform="matrix(1.25,0,0,-1.25,0,45)"
         id="g73">
        <g
           id="g75">
          <g
             clip-path="url(#clipPath16)"
             id="g77">
            <g
               transform="translate(27.8652,19.2485)"
               id="g79">
              <path
                 id="path81"
                 style="fill:#ccd6dd;fill-opacity:1;fill-rule:nonzero;stroke:none"
                 d="m 0,0 c 0,6.242 -4.411,9.988 -9.927,9.988 -5.516,0 -9.836,-3.746 -9.836,-9.988 0,-3.48 -0.102,-6.485 3.898,-7.89 l 0,-2.722 c 0,-1.034 0.966,-1.872 2,-1.872 1.035,0 2,0.838 2,1.872 l 0,1.97 0,-0.044 0,-1.926 c 0,-1.034 0.965,-1.872 1.999,-1.872 1.036,0 2.001,0.838 2.001,1.872 l 0,1.926 0,0.044 0,-1.97 c 0,-1.034 0.966,-1.872 2,-1.872 1.034,0 2,0.838 2,1.872 l 0,2.722 C 0.135,-6.485 0,-3.48 0,0"
                 inkscape:connector-curvature="0" />
            </g>
            <g
               transform="translate(16.75,20.4971)"
               id="g83">
              <path
                 id="path85"
                 style="fill:#292f33;fill-opacity:1;fill-rule:nonzero;stroke:none"
                 d="m 0,0 c 0,-1.724 0,-3.121 -3.121,-3.121 -3.121,0 -3.121,1.397 -3.121,3.121 0,1.724 1.397,3.121 3.121,3.121 C -1.398,3.121 0,1.724 0,0"
                 inkscape:connector-curvature="0" />
            </g>
            <g
               transform="translate(25.4883,20.4971)"
               id="g87">
              <path
                 id="path89"
                 style="fill:#292f33;fill-opacity:1;fill-rule:nonzero;stroke:none"
                 d="m 0,0 c 0,-1.724 0,-3.121 -3.121,-3.121 -3.12,0 -3.12,1.397 -3.12,3.121 0,1.724 1.396,3.121 3.12,3.121 C -1.396,3.121 0,1.724 0,0"
                 inkscape:connector-curvature="0" />
            </g>
            <g
               transform="translate(19.1865,14.8408)"
               id="g91">
              <path
                 id="path93"
                 style="fill:#292f33;fill-opacity:1;fill-rule:nonzero;stroke:none"
                 d="M 0,0 C -0.157,0.382 -0.626,0.662 -1.189,0.662 -1.75,0.662 -2.22,0.382 -2.376,0 c -0.395,-0.11 -0.685,-0.469 -0.685,-0.898 0,-0.517 0.419,-0.936 0.936,-0.936 0.409,0 0.753,0.263 0.88,0.628 0.019,0 0.037,-0.004 0.056,-0.004 0.02,0 0.038,0.004 0.057,0.004 0.128,-0.365 0.472,-0.628 0.88,-0.628 0.517,0 0.937,0.419 0.937,0.936 C 0.685,-0.469 0.394,-0.111 0,0"
                 inkscape:connector-curvature="0" />
            </g>
            <g
               transform="translate(10.9995,9)"
               id="g95">
              <path
                 id="path97"
                 style="fill:#aab8c2;fill-opacity:1;fill-rule:nonzero;stroke:none"
                 d="M 0,0 C 0,0.367 0.075,0.713 0.196,1.038 -0.789,1.485 -1.635,2.12 -2.307,3.008 -3.414,2.04 -4.47,1.133 -5.434,0.313 -6.015,0.74 -6.724,1 -7.499,1 c -1.934,0 -3.5,-1.566 -3.5,-3.5 0,-1.778 1.329,-3.229 3.045,-3.454 C -7.729,-7.671 -6.277,-9 -4.499,-9 c 1.933,0 3.5,1.566 3.5,3.5 0,0.775 -0.261,1.485 -0.687,2.065 0.6,0.706 1.246,1.46 1.931,2.25 C 0.088,-0.821 0,-0.421 0,0"
                 inkscape:connector-curvature="0" />
            </g>
            <g
               transform="translate(27.8715,24.4822)"
               id="g99">
              <path
                 id="path101"
                 style="fill:#aab8c2;fill-opacity:1;fill-rule:nonzero;stroke:none"
                 d="m 0,0 c 0.884,0.769 1.729,1.495 2.515,2.162 0.57,-0.403 1.262,-0.644 2.014,-0.644 1.933,0 3.5,1.567 3.5,3.5 0,1.743 -1.277,3.177 -2.945,3.444 -0.221,1.721 -1.674,3.056 -3.456,3.056 -1.933,0 -3.5,-1.567 -3.5,-3.5 0,-0.775 0.261,-1.485 0.687,-2.065 C -1.779,5.253 -2.418,4.508 -3.096,3.726 -1.795,2.855 -0.735,1.631 0,0"
                 inkscape:connector-curvature="0" />
            </g>
            <g
               transform="translate(3.5,26)"
               id="g103">
              <path
                 id="path105"
                 style="fill:#aab8c2;fill-opacity:1;fill-rule:nonzero;stroke:none"
                 d="M 0,0 C 0.775,0 1.485,0.26 2.065,0.687 2.863,0.008 3.726,-0.732 4.628,-1.518 5.363,0.113 6.424,1.337 7.725,2.208 7.046,2.99 6.408,3.736 5.813,4.435 6.24,5.015 6.5,5.725 6.5,6.5 6.5,8.433 4.933,10 3,10 1.222,10 -0.229,8.67 -0.454,6.954 -2.17,6.729 -3.5,5.277 -3.5,3.5 -3.5,1.567 -1.933,0 0,0"
                 inkscape:connector-curvature="0" />
            </g>
            <g
               transform="translate(32.4004,10)"
               id="g107">
              <path
                 id="path109"
                 style="fill:#aab8c2;fill-opacity:1;fill-rule:nonzero;stroke:none"
                 d="M 0,0 C -0.752,0 -1.444,-0.242 -2.014,-0.645 -2.966,0.164 -4.004,1.056 -5.093,2.009 -5.765,1.12 -6.612,0.485 -7.596,0.038 -7.476,-0.287 -7.4,-0.633 -7.4,-1 c 0,-0.421 -0.089,-0.821 -0.245,-1.185 0.685,-0.79 1.331,-1.544 1.931,-2.25 C -6.14,-5.015 -6.4,-5.725 -6.4,-6.5 c 0,-1.934 1.566,-3.5 3.5,-3.5 1.781,0 3.235,1.334 3.455,3.056 C 2.223,-6.677 3.5,-5.244 3.5,-3.5 3.5,-1.566 1.934,0 0,0"
                 inkscape:connector-curvature="0" />
            </g>
          </g>
        </g>
      </g>
    </g>
    <g
       transform="translate(30.0 42.0) rotate(276 15 15) scale(0.7333333333333333)"
       id="g111">
      <g
         transform="matrix(1.25,0,0,-1.25,0,45)"
         id="g113">
        <g
           id="g115">
          <g
             clip-path="url(#clipPath16)"
             id="g117">
            <g
               transform="translate(25,18.875)"
               id="g119">
              <path
                 id="path121"
                 style="fill:#ef9645;fill-opacity:1;fill-rule:nonzero;stroke:none"
                 d="m 0,0 -8,-0.021 c -1.104,0 -1.875,-0.75 -1.875,-1.854 0,-1.104 0.771,-1.854 1.875,-1.854 l 5.266,-0.021 c 0,0 0.88,0.104 0.88,-0.625 C -1.854,-4.651 -2.224,-5 -2.5,-5 -2.5,-5 -7,-4.792 -7.375,-11.875 -7.39,-12.151 -7.724,-12.5 -8,-12.5 c -0.276,0 -0.625,0.349 -0.625,0.625 0,3.01 1.396,5.938 2.867,6.824 -0.91,0 -1.711,0.051 -2.242,0.051 -1,0 -1.438,0.334 -1.438,0.333 -0.146,-0.231 -0.562,-1.27 -2.687,-1.27 -2.375,0 -3.021,2.362 -3.021,3.02 l 0,5.021 0.146,0.021 c 0,0.811 0.485,1.507 1.18,1.82 l -0.097,-6.653 c 0,-1.105 0.813,-2.084 1.917,-2.084 0.755,0 1.263,0.341 1.604,0.959 -0.458,0.526 -0.677,1.132 -0.677,1.885 0,0.886 0.318,1.795 0.927,2.344 l 0.042,2.708 0.104,0.021 c 0,0.811 0.485,1.507 1.18,1.82 L -8.875,2.125 -8.896,1.104 c 0.315,0.111 0.564,0.146 0.917,0.146 l 2.875,-0.021 0,2.917 0.104,-0.021 0,9 c 0,0.811 0.485,1.507 1.18,1.82 l -0.034,-13.66 3.646,0 L 0,1.125 c 0.922,0 1.723,-2 1.723,-2 0,0 0.002,-0.013 0.002,-0.015 C 1.481,-0.471 0.968,0 0,0" />
            </g>
            <g
               transform="translate(15,19.2217)"
               id="g123">
              <path
                 id="path125"
                 style="fill:#ffdc5d;fill-opacity:1;fill-rule:nonzero;stroke:none"
                 d="m 0,0 c -0.609,-0.549 -1,-1.336 -1,-2.222 0,-0.753 0.287,-1.432 0.745,-1.959 -0.341,-0.617 -0.99,-1.041 -1.745,-1.041 -1.104,0 -2,0.896 -2,2 l 0,6 c 0,0.293 0.067,0.57 0.18,0.82 0.313,0.695 1.009,1.18 1.82,1.18 1.104,0 2,-0.895 2,-2 l 0,-1 L 0,0 Z" />
            </g>
            <g
               transform="translate(6,30)"
               id="g127">
              <path
                 id="path129"
                 style="fill:#ffdc5d;fill-opacity:1;fill-rule:nonzero;stroke:none"
                 d="M 0,0 C 0,1.104 0.896,2 2,2 3.104,2 4,1.104 4,0 l 0,-9 0,-2 0,-3 c 0,-0.658 0.217,-1.262 0.578,-1.753 0.028,-0.037 0.061,-0.068 0.089,-0.102 0.104,-0.129 0.21,-0.255 0.332,-0.366 0.033,-0.027 0.066,-0.054 0.1,-0.082 0.119,-0.098 0.243,-0.188 0.377,-0.268 0.066,-0.039 0.131,-0.075 0.201,-0.109 0.139,-0.069 0.285,-0.125 0.435,-0.172 0.068,-0.02 0.131,-0.045 0.2,-0.061 C 6.534,-16.966 6.763,-17 7,-17 c 0.236,0 0.461,0.036 0.681,0.089 0.076,0.017 0.148,0.042 0.222,0.066 0.137,0.044 0.269,0.099 0.396,0.161 0.082,0.04 0.163,0.077 0.24,0.124 0.164,0.1 0.318,0.213 0.46,0.341 0.202,0.184 0.384,0.387 0.53,0.618 -10e-4,0.001 -0.002,0.002 -0.003,0.003 C 9.727,-15.713 10,-16 11,-16 l 2.537,0 c -1.808,-1.365 -3.037,-3.99 -3.037,-7 0,-0.276 0.224,-0.5 0.5,-0.5 0.276,0 0.5,0.224 0.5,0.5 0,3.859 2.187,7 4.875,7 l 0.125,0 c 0.276,0 0.5,0.224 0.5,0.5 0,0.276 -0.224,0.5 -0.5,0.5 l -1.5,0 -4,0 c -1.104,0 -2,0.896 -2,2 0,1.104 0.896,2 2,2 l 8,0 c 0.968,0 1.481,-0.596 1.725,-1.015 0.126,-0.216 0.185,-0.389 0.188,-0.4 L 22,-16 c 0.103,-0.335 0.479,-1.871 0.411,-2.191 C 22.411,-23 17.715,-28 12,-28 5.463,-28 0,-22.75 0,-16 0.008,-16.007 0,0 0,0" />
            </g>
            <g
               transform="translate(20,20)"
               id="g131">
              <path
                 id="path133"
                 style="fill:#ffdc5d;fill-opacity:1;fill-rule:nonzero;stroke:none"
                 d="M 0,0 -3,0 C -3.352,0 -3.685,-0.072 -4,-0.184 L -4,1 -4,3 c 0,0.293 0.067,0.569 0.18,0.82 C -3.507,4.515 -2.811,5 -2,5 -0.896,5 0,4.104 0,3 L 0,1 0,0 Z" />
            </g>
            <g
               transform="translate(21,20)"
               id="g135">
              <path
                 id="path137"
                 style="fill:#ffdc5d;fill-opacity:1;fill-rule:nonzero;stroke:none"
                 d="m 0,0 0,13 c 0,0.293 0.067,0.569 0.18,0.82 C 0.493,14.515 1.189,15 2,15 3.104,15 4,14.104 4,13 L 4,1 4,0 3,0 0,0 Z" />
            </g>
          </g>
        </g>
      </g>
    </g>
    <g
       transform="matrix(0.35250509,0.7917394,-0.7917394,0.35250509,116.68434,134.09464)"
       id="g139">
      <g
         transform="matrix(1.25,0,0,-1.25,0,45)"
         id="g141">
        <g
           id="g143">
          <g
             clip-path="url(#clipPath16)"
             id="g145">
            <g
               transform="translate(3.9233,13.0771)"
               id="g147">
              <path
                 id="path149"
                 style="fill:#66757f;fill-opacity:1;fill-rule:nonzero;stroke:none"
                 d="m 0,0 c -0.212,-0.511 -0.798,-0.751 -1.308,-0.539 -0.509,0.213 -0.751,0.798 -0.538,1.308 L 2.77,13.307 c 0.212,0.51 0.797,0.751 1.307,0.539 0.51,-0.213 0.751,-0.798 0.539,-1.308 L 0,0 Z"
                 inkscape:connector-curvature="0" />
            </g>
            <g
               transform="translate(13.9229,13.8457)"
               id="g151">
              <path
                 id="path153"
                 style="fill:#66757f;fill-opacity:1;fill-rule:nonzero;stroke:none"
                 d="m 0,0 c 0.212,-0.51 -0.029,-1.095 -0.539,-1.308 -0.509,-0.212 -1.095,0.029 -1.307,0.539 L -6.462,11.77 c -0.212,0.509 0.029,1.095 0.539,1.307 0.509,0.213 1.095,-0.029 1.307,-0.538 L 0,0 Z"
                 inkscape:connector-curvature="0" />
            </g>
            <g
               transform="translate(23.9238,13.0771)"
               id="g155">
              <path
                 id="path157"
                 style="fill:#66757f;fill-opacity:1;fill-rule:nonzero;stroke:none"
                 d="m 0,0 c -0.213,-0.511 -0.799,-0.751 -1.309,-0.539 -0.509,0.213 -0.75,0.798 -0.538,1.308 L 2.77,13.307 c 0.212,0.51 0.796,0.751 1.306,0.539 0.51,-0.213 0.752,-0.798 0.539,-1.308 L 0,0 Z"
                 inkscape:connector-curvature="0" />
            </g>
            <g
               transform="translate(33.9229,13.8457)"
               id="g159">
              <path
                 id="path161"
                 style="fill:#66757f;fill-opacity:1;fill-rule:nonzero;stroke:none"
                 d="m 0,0 c 0.212,-0.51 -0.028,-1.095 -0.538,-1.308 -0.51,-0.212 -1.096,0.029 -1.309,0.539 L -6.462,11.77 c -0.213,0.509 0.029,1.095 0.539,1.307 0.51,0.213 1.095,-0.029 1.307,-0.538 L 0,0 Z"
                 inkscape:connector-curvature="0" />
            </g>
            <g
               transform="translate(14.8569,14)"
               id="g163">
              <path
                 id="path165"
                 style="fill:#ffac33;fill-opacity:1;fill-rule:nonzero;stroke:none"
                 d="m 0,0 -13.714,0 c -0.631,0 -1.143,-0.511 -1.143,-1.143 0,-2.524 3.582,-4.571 8,-4.571 4.419,0 8,2.047 8,4.571 C 1.143,-0.511 0.631,0 0,0"
                 inkscape:connector-curvature="0" />
            </g>
            <g
               transform="translate(24,2)"
               id="g167">
              <path
                 id="path169"
                 style="fill:#ffac33;fill-opacity:1;fill-rule:nonzero;stroke:none"
                 d="m 0,0 -12,0 c -0.552,0 -1,0.447 -1,1 0,2.209 3.134,4 7,4 C -2.134,5 1,3.209 1,1 1,0.447 0.553,0 0,0"
                 inkscape:connector-curvature="0" />
            </g>
            <g
               transform="translate(34.8574,14)"
               id="g171">
              <path
                 id="path173"
                 style="fill:#ffac33;fill-opacity:1;fill-rule:nonzero;stroke:none"
                 d="m 0,0 -13.715,0 c -0.632,0 -1.142,-0.511 -1.142,-1.143 0,-2.524 3.581,-4.571 8,-4.571 4.418,0 8,2.047 8,4.571 C 1.143,-0.511 0.632,0 0,0"
                 inkscape:connector-curvature="0" />
            </g>
            <g
               transform="translate(19,33)"
               id="g175">
              <path
                 id="path177"
                 style="fill:#ffac33;fill-opacity:1;fill-rule:nonzero;stroke:none"
                 d="M 0,0 C 0,0.552 -0.447,1 -1,1 -1.552,1 -2,0.552 -2,0 l 0,-27 c 0,-0.553 0.448,-1 1,-1 0.553,0 1,0.447 1,1 L 0,0 Z"
                 inkscape:connector-curvature="0" />
            </g>
            <g
               transform="translate(20,32)"
               id="g179">
              <path
                 id="path181"
                 style="fill:#ffac33;fill-opacity:1;fill-rule:nonzero;stroke:none"
                 d="m 0,0 c 0,-1.104 -0.895,-2 -2,-2 -1.104,0 -2,0.896 -2,2 0,1.105 0.896,2 2,2 1.105,0 2,-0.895 2,-2"
                 inkscape:connector-curvature="0" />
            </g>
            <g
               transform="translate(10,26)"
               id="g183">
              <path
                 id="path185"
                 style="fill:#ffac33;fill-opacity:1;fill-rule:nonzero;stroke:none"
                 d="m 0,0 c 0,-1.104 -0.895,-2 -2,-2 -1.104,0 -2,0.896 -2,2 0,1.105 0.896,2 2,2 1.105,0 2,-0.895 2,-2"
                 inkscape:connector-curvature="0" />
            </g>
            <g
               transform="translate(30,26)"
               id="g187">
              <path
                 id="path189"
                 style="fill:#ffac33;fill-opacity:1;fill-rule:nonzero;stroke:none"
                 d="m 0,0 c 0,-1.104 -0.895,-2 -2,-2 -1.104,0 -2,0.896 -2,2 0,1.105 0.896,2 2,2 1.105,0 2,-0.895 2,-2"
                 inkscape:connector-curvature="0" />
            </g>
            <g
               transform="translate(28,26)"
               id="g191">
              <path
                 id="path193"
                 style="fill:#ffac33;fill-opacity:1;fill-rule:nonzero;stroke:none"
                 d="m 0,0 c 0,-1.104 0,0 -10,0 -10,0 -10,-1.104 -10,0 0,1.105 3,4 10,4 C -3,4 0,1.105 0,0"
                 inkscape:connector-curvature="0" />
            </g>
          </g>
        </g>
      </g>
    </g>
    <g
       transform="matrix(-0.05229345,-0.59771682,0.59771682,-0.05229345,51.15836,95.452528)"
       id="g195">
      <g
         transform="matrix(1.25,0,0,-1.25,0,45)"
         id="g197">
        <g
           id="g199">
          <g
             clip-path="url(#clipPath16)"
             id="g201">
            <g
               transform="translate(15.2241,21.0815)"
               id="g203">
              <path
                 id="path205"
                 style="fill:#662113;fill-opacity:1;fill-rule:nonzero;stroke:none"
                 d="M 0,0 C 0.005,-0.552 -0.439,-1.003 -0.991,-1.009 -1.543,-1.014 -1.995,-0.57 -2,-0.018 l -0.035,4 C -2.04,4.534 -1.596,4.986 -1.044,4.991 -0.492,4.996 -0.041,4.552 -0.036,4 L 0,0 Z"
                 inkscape:connector-curvature="0" />
            </g>
            <g
               transform="translate(19.6387,20.6348)"
               id="g207">
              <path
                 id="path209"
                 style="fill:#662113;fill-opacity:1;fill-rule:nonzero;stroke:none"
                 d="m 0,0 c -0.129,-0.537 -0.668,-0.869 -1.205,-0.741 -0.536,0.128 -0.869,0.667 -0.741,1.204 L -1.02,4.355 C -0.893,4.892 -0.353,5.223 0.184,5.096 0.722,4.968 1.054,4.429 0.926,3.892 L 0,0 Z"
                 inkscape:connector-curvature="0" />
            </g>
            <g
               transform="translate(23.6387,19.1177)"
               id="g211">
              <path
                 id="path213"
                 style="fill:#662113;fill-opacity:1;fill-rule:nonzero;stroke:none"
                 d="m 0,0 c -0.25,-0.493 -0.852,-0.69 -1.345,-0.441 -0.491,0.249 -0.689,0.85 -0.441,1.343 l 1.804,3.57 C 0.266,4.965 0.868,5.163 1.361,4.914 1.854,4.665 2.052,4.063 1.803,3.571 L 0,0 Z"
                 inkscape:connector-curvature="0" />
            </g>
            <g
               transform="translate(4.458,28.5708)"
               id="g215">
              <path
                 id="path217"
                 style="fill:#662113;fill-opacity:1;fill-rule:nonzero;stroke:none"
                 d="M 0,0 C -4.53,-0.32 -4.775,5.511 3.801,4.738 12.377,3.965 21.765,1.337 24.019,2.949 25.808,4.228 25.435,6.557 24.984,7.027 24.534,7.496 23.852,7.072 24.197,6.345 24.541,5.617 24.136,3.667 21.936,3.47 19.736,3.273 11.535,4.822 6.36,5.55 1.076,6.294 -3.171,5.925 -4.094,2.969 -5.014,0.022 -2.15,-0.903 -0.636,-1.047 0.878,-1.191 0,0 0,0"
                 inkscape:connector-curvature="0" />
            </g>
            <g
               transform="translate(33.3779,22.7544)"
               id="g219">
              <path
                 id="path221"
                 style="fill:#c16a4f;fill-opacity:1;fill-rule:nonzero;stroke:none"
                 d="M 0,0 C 1.704,-2.632 3.319,-5.982 1.338,-11.753 L 1.24,-12.039 0.939,-13.031 c -0.152,0.003 -0.481,-0.076 -0.799,-0.153 -0.94,-0.226 -2.226,-0.535 -3.018,0.117 -0.439,0.364 -0.644,0.959 -0.608,1.771 0.072,1.618 -1.647,5.997 -4.454,7.555 -2.879,1.598 -5.606,2.481 -8.628,2.545 -2.938,0.063 -9.646,-1.385 -11.81,-0.558 -3.477,1.328 -3.561,5.188 -3,6 2.813,4.062 12.806,4.631 20.123,3.238 C -6.765,6.629 -2.541,3.928 0,0"
                 inkscape:connector-curvature="0" />
            </g>
            <g
               transform="translate(26.877,5.5781)"
               id="g223">
              <path
                 id="path225"
                 style="fill:#662113;fill-opacity:1;fill-rule:nonzero;stroke:none"
                 d="m 0,0 c 1.081,0.979 2.108,2.463 2.619,3.779 0.253,0.65 0.375,1.236 0.365,1.743 -0.005,0.256 0.033,0.49 0.112,0.695 l 10e-4,0 C 3.243,6.594 3.684,7.367 3.914,7.02 5.596,4.512 7.197,6.487 7.6,6.282 7.854,6.153 7.996,5.877 7.956,5.596 7.803,4.537 6.191,-2.668 5.628,-4.12 L 5.579,-4.238 C 5.203,-5.089 4.506,-5.578 3.8,-5.487 3.468,-5.443 2.672,-5.195 2.453,-3.826 2.389,-3.414 2.262,-3.129 2.114,-3.064 1.974,-3.002 1.619,-3.055 1.081,-3.407 0.549,-3.757 -0.062,-3.748 -0.51,-3.385 -1.062,-2.938 -1.215,-2.083 -0.895,-1.254 -0.718,-0.801 -0.416,-0.379 0,0"
                 inkscape:connector-curvature="0" />
            </g>
          </g>
        </g>
        <g
           id="g227">
          <g
             clip-path="url(#clipPath48)"
             id="g46">
            <g
               transform="translate(24.3203,18.6982)"
               id="g230">
              <path
                 id="path232"
                 style="fill:#662113;fill-opacity:1;fill-rule:nonzero;stroke:none"
                 d="M 0,0 C -1.922,2.735 -17.601,-5.1 -22.32,4.302 -18.601,2.587 -11.694,5.166 -5.778,4.635 6.088,3.57 6.429,-5.499 6.471,-6.287 5.945,-12.089 0,0 0,0"
                 inkscape:connector-curvature="0" />
            </g>
            <g
               transform="translate(23.2188,27.4307)"
               id="g234">
              <path
                 id="path236"
                 style="fill:#662113;fill-opacity:1;fill-rule:nonzero;stroke:none"
                 d="M 0,0 C 1.053,1.03 3.189,2.242 4.807,2.277 6.422,2.313 4.43,4.578 2.726,3.748 1.592,3.249 -0.414,1.211 -1.025,0.066 -1.635,-1.078 -0.891,-0.87 0,0"
                 inkscape:connector-curvature="0" />
            </g>
            <g
               transform="translate(35.6836,22.2588)"
               id="g238">
              <path
                 id="path240"
                 style="fill:#662113;fill-opacity:1;fill-rule:nonzero;stroke:none"
                 d="M 0,0 C -2.289,1.22 -5.321,3.227 -7.51,2.143 -9.698,1.059 -8.488,2.61 -7.484,3.348 -5.861,4.54 -3.437,4.097 -2.298,3.046 -1.158,1.997 0,0 0,0"
                 inkscape:connector-curvature="0" />
            </g>
            <g
               transform="translate(37.9209,14.7832)"
               id="g242">
              <path
                 id="path244"
                 style="fill:#662113;fill-opacity:1;fill-rule:nonzero;stroke:none"
                 d="M 0,0 C -1.732,1.931 -3.894,4.855 -6.321,4.586 -8.748,4.318 -7.08,5.361 -5.884,5.71 -3.951,6.274 -1.825,5.027 -1.115,3.649 -0.404,2.273 0,0 0,0"
                 inkscape:connector-curvature="0" />
            </g>
          </g>
        </g>
        <g
           id="g246">
          <g
             clip-path="url(#clipPath72)"
             id="g70">
            <g
               transform="translate(29.9102,0.2832)"
               id="g76">
              <path
                 id="path78"
                 style="fill:#292f33;fill-opacity:1;fill-rule:nonzero;stroke:none"
                 d="M 0,0 C -1.687,2.303 2.174,7.969 -3.405,1.472 -5.373,-1.341 0,0 0,0"
                 inkscape:connector-curvature="0" />
            </g>
          </g>
        </g>
        <g
           id="g80">
          <g
             clip-path="url(#clipPath84)"
             id="g82">
            <g
               transform="translate(6.0835,29.2915)"
               id="g88">
              <path
                 id="path90"
                 style="fill:#c16a4f;fill-opacity:1;fill-rule:nonzero;stroke:none"
                 d="m 0,0 c -4.542,0 -4.375,5.833 4.125,4.458 8.501,-1.375 17.679,-4.657 20.042,-3.208 1.875,1.15 1.666,3.5 1.25,4 C 25.001,5.75 24.292,5.375 24.584,4.625 24.876,3.875 24.334,1.958 22.126,1.917 19.918,1.874 11.846,3.998 6.735,5.088 1.517,6.202 -2.747,6.134 -3.875,3.25 -5,0.375 -2.208,-0.75 -0.708,-1 0.792,-1.25 0,0 0,0"
                 inkscape:connector-curvature="0" />
            </g>
            <g
               transform="translate(8,27)"
               id="g92">
              <path
                 id="path94"
                 style="fill:#292f33;fill-opacity:1;fill-rule:nonzero;stroke:none"
                 d="m 0,0 c 0,-0.552 -0.448,-1 -1,-1 -0.552,0 -1,0.448 -1,1 0,0.552 0.448,1 1,1 0.552,0 1,-0.448 1,-1"
                 inkscape:connector-curvature="0" />
            </g>
            <g
               transform="translate(16.605,19.4736)"
               id="g96">
              <path
                 id="path98"
                 style="fill:#c16a4f;fill-opacity:1;fill-rule:nonzero;stroke:none"
                 d="m 0,0 c -0.069,-0.548 -0.57,-0.936 -1.118,-0.866 -0.547,0.069 -0.935,0.57 -0.866,1.117 L -1.48,4.22 c 0.069,0.548 0.569,0.935 1.117,0.866 C 0.185,5.017 0.573,4.516 0.503,3.968 L 0,0 Z"
                 inkscape:connector-curvature="0" />
            </g>
            <g
               transform="translate(20.5176,18.7793)"
               id="g100">
              <path
                 id="path102"
                 style="fill:#c16a4f;fill-opacity:1;fill-rule:nonzero;stroke:none"
                 d="m 0,0 c -0.161,-0.528 -0.72,-0.824 -1.249,-0.664 -0.527,0.162 -0.825,0.721 -0.663,1.249 l 1.17,3.825 c 0.161,0.529 0.72,0.825 1.249,0.664 C 1.034,4.913 1.332,4.354 1.17,3.825 L 0,0 Z"
                 inkscape:connector-curvature="0" />
            </g>
            <g
               transform="translate(24.0352,17.2979)"
               id="g104">
              <path
                 id="path106"
                 style="fill:#c16a4f;fill-opacity:1;fill-rule:nonzero;stroke:none"
                 d="m 0,0 c -0.289,-0.47 -0.904,-0.616 -1.376,-0.328 -0.47,0.29 -0.617,0.905 -0.327,1.376 L 0.393,4.455 C 0.682,4.926 1.297,5.072 1.768,4.783 2.238,4.494 2.386,3.878 2.096,3.407 L 0,0 Z"
                 inkscape:connector-curvature="0" />
            </g>
          </g>
        </g>
      </g>
    </g>
    <g
       transform="matrix(-0.42402405,-0.26495963,0.26495963,-0.42402405,151.95717,163.59298)"
       id="g263">
      <g
         transform="matrix(1.25,0,0,-1.25,0,47.5)"
         id="g265">
        <g
           id="g267">
          <g
             id="g269">
            <g
               transform="translate(36,19)"
               id="g271">
              <path
                 id="path273"
                 style="fill:#ffcc4d;fill-opacity:1;fill-rule:nonzero;stroke:none"
                 d="m 0,0 c 0,-9.389 -7.611,-17 -17,-17 -9.389,0 -17,7.611 -17,17 0,9.389 7.611,17 17,17 C -7.611,17 0,9.389 0,0"
                 inkscape:connector-curvature="0" />
            </g>
            <g
               transform="translate(19,15.1514)"
               id="g275">
              <path
                 id="path277"
                 style="fill:#664500;fill-opacity:1;fill-rule:nonzero;stroke:none"
                 d="m 0,0 c -2.966,0 -4.935,0.346 -7.369,0.819 -0.557,0.107 -1.638,0 -1.638,-1.637 0,-3.276 3.763,-7.37 9.007,-7.37 5.244,0 9.007,4.094 9.007,7.37 0,1.637 -1.082,1.745 -1.638,1.637 C 4.936,0.346 2.967,0 0,0"
                 inkscape:connector-curvature="0" />
            </g>
            <g
               transform="translate(17.6499,33.7192)"
               id="g279">
              <path
                 id="path281"
                 style="fill:#e75a70;fill-opacity:1;fill-rule:nonzero;stroke:none"
                 d="m 0,0 c -0.859,2.431 -3.524,3.707 -5.956,2.85 -1.476,-0.521 -2.521,-1.711 -2.928,-3.105 -1.191,0.83 -2.751,1.1 -4.224,0.581 -2.431,-0.858 -3.708,-3.525 -2.85,-5.956 0.122,-0.345 0.284,-0.663 0.472,-0.958 1.951,-3.582 7.588,-6.1 11.002,-6.131 2.636,2.167 5.446,7.664 4.717,11.677 C 0.195,-0.694 0.12,-0.344 0,0"
                 inkscape:connector-curvature="0" />
            </g>
            <g
               transform="translate(20.3496,33.7192)"
               id="g283">
              <path
                 id="path285"
                 style="fill:#e75a70;fill-opacity:1;fill-rule:nonzero;stroke:none"
                 d="m 0,0 c 0.859,2.431 3.525,3.707 5.956,2.85 1.477,-0.521 2.521,-1.711 2.929,-3.105 1.191,0.83 2.751,1.1 4.224,0.581 2.43,-0.858 3.707,-3.525 2.85,-5.956 -0.123,-0.345 -0.284,-0.663 -0.473,-0.958 -1.951,-3.582 -7.588,-6.1 -11.002,-6.131 -2.636,2.167 -5.445,7.664 -4.716,11.677 C -0.194,-0.694 -0.119,-0.344 0,0"
                 inkscape:connector-curvature="0" />
            </g>
          </g>
        </g>
      </g>
    </g>
    <g
       transform="matrix(0.09840063,-0.55805773,0.55805773,0.09840063,50.396288,117.98215)"
       id="g287">
      <g
         transform="matrix(1.25,0,0,-1.25,0,45)"
         id="g289">
        <g
           id="g291">
          <g
             clip-path="url(#clipPath16)"
             id="g293">
            <g
               transform="translate(9,4.5)"
               id="g295">
              <path
                 id="path297"
                 style="fill:#292f33;fill-opacity:1;fill-rule:nonzero;stroke:none"
                 d="M 0,0 C 0,-2.485 -2.015,-4.5 -4.5,-4.5 -6.985,-4.5 -9,-2.485 -9,0 -9,2.485 -6.985,4.5 -4.5,4.5 -2.015,4.5 0,2.485 0,0"
                 inkscape:connector-curvature="0" />
            </g>
            <g
               transform="translate(1.5,4.5)"
               id="g299">
              <path
                 id="path301"
                 style="fill:#dd2e44;fill-opacity:1;fill-rule:nonzero;stroke:none"
                 d="M 0,0 C 0,1.657 1.343,3 3,3 4.657,3 6,1.657 6,0 6,-1.657 4.657,-3 3,-3 1.343,-3 0,-1.657 0,0"
                 inkscape:connector-curvature="0" />
            </g>
            <g
               transform="translate(36,4.5)"
               id="g303">
              <path
                 id="path305"
                 style="fill:#292f33;fill-opacity:1;fill-rule:nonzero;stroke:none"
                 d="M 0,0 C 0,-2.485 -2.015,-4.5 -4.5,-4.5 -6.985,-4.5 -9,-2.485 -9,0 -9,2.485 -6.985,4.5 -4.5,4.5 -2.015,4.5 0,2.485 0,0"
                 inkscape:connector-curvature="0" />
            </g>
            <g
               transform="translate(28.5,4.5)"
               id="g307">
              <path
                 id="path309"
                 style="fill:#dd2e44;fill-opacity:1;fill-rule:nonzero;stroke:none"
                 d="M 0,0 C 0,1.657 1.343,3 3,3 4.657,3 6,1.657 6,0 6,-1.657 4.657,-3 3,-3 1.343,-3 0,-1.657 0,0"
                 inkscape:connector-curvature="0" />
            </g>
            <g
               transform="translate(31.5,3)"
               id="g311">
              <path
                 id="path313"
                 style="fill:#55acee;fill-opacity:1;fill-rule:nonzero;stroke:none"
                 d="m 0,0 -20,0 c -0.825,0 -1.5,0.675 -1.5,1.5 0,0.825 0.675,1.5 1.5,1.5 L 0,3 C 0.825,3 1.5,2.325 1.5,1.5 1.5,0.675 0.825,0 0,0"
                 inkscape:connector-curvature="0" />
            </g>
            <g
               transform="translate(26.0124,4.2539)"
               id="g315">
              <path
                 id="path317"
                 style="fill:#55acee;fill-opacity:1;fill-rule:nonzero;stroke:none"
                 d="m 0,0 c -0.004,0.082 -0.012,0.163 -0.012,0.246 0,3.038 2.462,5.5 5.5,5.5 1.21,0 2.325,-0.396 3.234,-1.058 l 0.89,1.205 C 8.454,6.74 7.032,7.246 5.488,7.246 c -3.866,0 -7,-3.134 -7,-7 0,-0.102 0.01,-0.201 0.015,-0.302 C -1,-0.038 -0.497,-0.019 0,0"
                 inkscape:connector-curvature="0" />
            </g>
            <g
               transform="translate(5.6287,9.8831)"
               id="g319">
              <path
                 id="path321"
                 style="fill:#55acee;fill-opacity:1;fill-rule:nonzero;stroke:none"
                 d="m 0,0 c 2.495,-0.52 4.369,-2.73 4.371,-5.378 l 3.5,-0.004 c 0,4.341 -3.074,7.962 -7.163,8.81 C 0.476,2.298 0.232,1.119 0,0"
                 inkscape:connector-curvature="0" />
            </g>
            <g
               transform="translate(4.3951,4.0023)"
               id="g323">
              <path
                 id="path325"
                 style="fill:#99aab5;fill-opacity:1;fill-rule:nonzero;stroke:none"
                 d="M 0,0 0,0 C -0.269,0.057 -0.442,0.324 -0.385,0.593 L 5.617,28.831 C 5.674,29.1 5.941,29.273 6.21,29.216 6.479,29.159 6.652,28.892 6.595,28.623 L 0.593,0.385 C 0.536,0.116 0.269,-0.057 0,0"
                 inkscape:connector-curvature="0" />
            </g>
            <g
               transform="translate(6.1235,9.7393)"
               id="g327">
              <path
                 id="path329"
                 style="fill:#55acee;fill-opacity:1;fill-rule:nonzero;stroke:none"
                 d="m 0,0 -0.978,0.208 c -0.538,0.114 -0.885,0.648 -0.77,1.186 l 1.247,5.869 c 0.114,0.538 0.648,0.884 1.186,0.77 L 1.663,7.825 C 2.201,7.711 2.548,7.177 2.434,6.639 L 1.186,0.77 C 1.072,0.232 0.538,-0.114 0,0"
                 inkscape:connector-curvature="0" />
            </g>
            <g
               transform="translate(9.2995,31.6764)"
               id="g331">
              <path
                 id="path333"
                 style="fill:#dd2e44;fill-opacity:1;fill-rule:nonzero;stroke:none"
                 d="M 0,0 -1.956,0.416 C -2.763,0.587 -3.283,1.388 -3.112,2.195 -2.94,3.002 -2.14,3.522 -1.333,3.35 L 0.624,2.934 C 1.431,2.763 1.951,1.962 1.779,1.155 1.608,0.348 0.807,-0.172 0,0"
                 inkscape:connector-curvature="0" />
            </g>
            <g
               transform="translate(10.8404,34.3248)"
               id="g335">
              <path
                 id="path337"
                 style="fill:#55acee;fill-opacity:1;fill-rule:nonzero;stroke:none"
                 d="m 0,0 c -0.807,0.172 -1.608,-0.348 -1.779,-1.155 l -1.352,-6.358 c -0.114,-0.538 0.233,-1.072 0.771,-1.186 l 0.978,-0.208 c 0.538,-0.115 1.072,0.232 1.186,0.77 l 1.351,6.358 C 1.327,-0.972 0.807,-0.172 0,0"
                 inkscape:connector-curvature="0" />
            </g>
            <g
               transform="translate(14.1053,30.6549)"
               id="g339">
              <path
                 id="path341"
                 style="fill:#dd2e44;fill-opacity:1;fill-rule:nonzero;stroke:none"
                 d="M 0,0 -2.934,0.624 C -3.741,0.795 -4.261,1.596 -4.09,2.403 -3.918,3.21 -3.118,3.73 -2.311,3.558 L 0.624,2.934 C 1.431,2.763 1.951,1.962 1.779,1.155 1.608,0.348 0.807,-0.172 0,0"
                 inkscape:connector-curvature="0" />
            </g>
            <g
               transform="translate(15.9034,31.8062)"
               id="g343">
              <path
                 id="path345"
                 style="fill:#ea596e;fill-opacity:1;fill-rule:nonzero;stroke:none"
                 d="m 0,0 c -0.172,-0.81 -0.969,-1.328 -1.779,-1.155 -0.81,0.172 -1.328,0.968 -1.155,1.779 0.172,0.81 0.968,1.327 1.779,1.155 C -0.345,1.607 0.172,0.81 0,0"
                 inkscape:connector-curvature="0" />
            </g>
            <g
               transform="translate(35.93,9.5397)"
               id="g72">
              <path
                 id="path74"
                 style="fill:#55acee;fill-opacity:1;fill-rule:nonzero;stroke:none"
                 d="m 0,0 c 0,-0.409 -0.331,-0.74 -0.74,-0.74 -0.409,0 -0.74,0.331 -0.74,0.74 0,0.409 0.331,0.74 0.74,0.74 C -0.331,0.74 0,0.409 0,0"
                 inkscape:connector-curvature="0" />
            </g>
          </g>
        </g>
      </g>
    </g>
    <g
       transform="matrix(0.81197505,-0.18745921,0.18745921,0.81197505,82.630243,68.47991)"
       id="g349">
      <g
         transform="matrix(1.25,0,0,-1.25,0,45)"
         id="g351">
        <g
           id="g353">
          <g
             clip-path="url(#clipPath16)"
             id="g355">
            <g
               transform="translate(12.375,29.6667)"
               id="g357">
              <path
                 id="path359"
                 style="fill:#7c533e;fill-opacity:1;fill-rule:nonzero;stroke:none"
                 d="m 0,0 c -1,-1 0.624,-0.666 1.624,-2.666 1,-2 4.001,-1 3,1 -0.211,0.422 -1.044,1.096 -1.731,1.604 0,0 0.586,0.687 0.274,1.416 C 2.854,2.083 0,0 0,0"
                 inkscape:connector-curvature="0" />
            </g>
            <g
               transform="translate(11.9783,33.7041)"
               id="g361">
              <path
                 id="path363"
                 style="fill:#7c533e;fill-opacity:1;fill-rule:nonzero;stroke:none"
                 d="m 0,0 c -1.54,-0.04 -2.756,-1.32 -2.717,-2.86 0.04,-1.541 1.321,-2.757 2.861,-2.717 1.54,0.04 2.756,1.32 2.716,2.86 C 2.821,-1.177 1.54,0.04 0,0"
                 inkscape:connector-curvature="0" />
            </g>
            <g
               transform="translate(19.9534,32.1458)"
               id="g365">
              <path
                 id="path367"
                 style="fill:#0b0200;fill-opacity:1;fill-rule:nonzero;stroke:none"
                 d="m 0,0 c -0.855,-0.237 -1.891,-0.562 -3.461,0.583 -1.121,0.818 -2.167,1.09 -4.369,0.608 -2.338,-0.511 -3.981,-2.233 -2.32,-2.708 0.725,-0.208 1.247,0.07 2.341,0.184 1.606,0.166 2.258,-1.189 3.814,-1.188 C -0.949,-2.518 1.276,0.354 0,0"
                 inkscape:connector-curvature="0" />
            </g>
            <g
               transform="translate(18.9995,20.0005)"
               id="g369">
              <path
                 id="path371"
                 style="fill:#664131;fill-opacity:1;fill-rule:nonzero;stroke:none"
                 d="m 0,0 c 0,0 -3,-1.999 -3,-3 0,-1.001 4,-4.001 5,-5.001 1,-1 3,-1 2,1 C 3,-5.001 0,0 0,0"
                 inkscape:connector-curvature="0" />
            </g>
            <g
               transform="translate(20.6338,12.9795)"
               id="g373">
              <path
                 id="path375"
                 style="fill:#a0041e;fill-opacity:1;fill-rule:nonzero;stroke:none"
                 d="m 0,0 c 0,0 1.173,-0.789 1.962,0.385 0.789,1.174 1.365,-1.771 1.365,-1.771 0,0 -2.559,-2.539 -4.521,-2.924 -1.963,-0.384 -1.174,0.789 -0.385,1.962 C -0.789,-1.174 0,0 0,0"
                 inkscape:connector-curvature="0" />
            </g>
            <g
               transform="translate(7.0005,2)"
               id="g377">
              <path
                 id="path379"
                 style="fill:#292f33;fill-opacity:1;fill-rule:nonzero;stroke:none"
                 d="m 0,0 c -2.761,0 -5,2.238 -5,5 0,2.762 2.239,5 5,5 C 2.761,10 5,7.762 5,5 5,2.238 2.761,0 0,0 m 0,12 c -3.866,0 -7,-3.134 -7,-7 0,-3.866 3.134,-7 7,-7 3.866,0 7,3.134 7,7 0,3.866 -3.134,7 -7,7"
                 inkscape:connector-curvature="0" />
            </g>
            <g
               transform="translate(29,2)"
               id="g381">
              <path
                 id="path383"
                 style="fill:#292f33;fill-opacity:1;fill-rule:nonzero;stroke:none"
                 d="m 0,0 c -2.761,0 -5,2.238 -5,5 0,2.762 2.239,5 5,5 C 2.762,10 5,7.762 5,5 5,2.238 2.762,0 0,0 m 0,12 c -3.865,0 -7,-3.134 -7,-7 0,-3.866 3.135,-7 7,-7 3.867,0 7,3.134 7,7 0,3.866 -3.133,7 -7,7"
                 inkscape:connector-curvature="0" />
            </g>
            <g
               transform="translate(22,16)"
               id="g385">
              <path
                 id="path387"
                 style="fill:#aab8c2;fill-opacity:1;fill-rule:nonzero;stroke:none"
                 d="M 0,0 C 0,0.553 -0.484,1 -1.083,1 L -11.917,1 C -12.515,1 -13,0.553 -13,0 c 0,-0.553 0.485,-1 1.083,-1 l 10.834,0 C -0.484,-1 0,-0.553 0,0"
                 inkscape:connector-curvature="0" />
            </g>
            <g
               transform="translate(30,7)"
               id="g389">
              <path
                 id="path391"
                 style="fill:#aab8c2;fill-opacity:1;fill-rule:nonzero;stroke:none"
                 d="m 0,0 c 0,0.553 -0.447,1 -1,1 l -11,0 c -0.552,0 -1,-0.447 -1,-1 0,-0.553 0.448,-1 1,-1 l 11,0 c 0.553,0 1,0.447 1,1"
                 inkscape:connector-curvature="0" />
            </g>
            <g
               transform="translate(21.2236,19)"
               id="g393">
              <path
                 id="path395"
                 style="fill:#aab8c2;fill-opacity:1;fill-rule:nonzero;stroke:none"
                 d="m 0,0 -4.165,-11.664 c -0.186,-0.52 0.085,-1.092 0.605,-1.277 0.111,-0.04 0.225,-0.059 0.336,-0.059 0.411,0 0.796,0.255 0.942,0.664 L 2.124,0 0,0 Z"
                 inkscape:connector-curvature="0" />
            </g>
            <g
               transform="translate(29.001,6)"
               id="g397">
              <path
                 id="path399"
                 style="fill:#aab8c2;fill-opacity:1;fill-rule:nonzero;stroke:none"
                 d="m 0,0 c -0.33,0 -0.654,0.164 -0.845,0.463 l -7,10.999 c -0.297,0.467 -0.159,1.085 0.307,1.381 0.467,0.297 1.084,0.159 1.381,-0.306 l 7,-11 C 1.14,1.071 1.002,0.453 0.536,0.156 0.369,0.051 0.184,0 0,0"
                 inkscape:connector-curvature="0" />
            </g>
            <g
               transform="translate(19,10.2656)"
               id="g401">
              <path
                 id="path403"
                 style="fill:#aab8c2;fill-opacity:1;fill-rule:nonzero;stroke:none"
                 d="M 0,0 -8.387,6.524 C -8.822,6.864 -9.45,6.785 -9.79,6.349 -10.129,5.912 -10.05,5.284 -9.614,4.945 l 9,-7 c 0.182,-0.142 0.398,-0.211 0.613,-0.211 L 0,-2.266 0,0 Z"
                 inkscape:connector-curvature="0" />
            </g>
            <g
               transform="translate(6.9995,6)"
               id="g405">
              <path
                 id="path407"
                 style="fill:#aab8c2;fill-opacity:1;fill-rule:nonzero;stroke:none"
                 d="M 0,0 C -0.104,0 -0.211,0.017 -0.316,0.052 -0.84,0.226 -1.124,0.792 -0.949,1.316 L 1.823,9.633 -1.6,12.201 c -0.442,0.331 -0.531,0.958 -0.2,1.4 0.331,0.44 0.957,0.531 1.4,0.199 L 4.177,10.367 0.949,0.684 C 0.809,0.265 0.419,0 0,0"
                 inkscape:connector-curvature="0" />
            </g>
            <g
               transform="translate(26.3828,17)"
               id="g409">
              <path
                 id="path411"
                 style="fill:#292f33;fill-opacity:1;fill-rule:nonzero;stroke:none"
                 d="m 0,0 c -0.03,0 -0.059,0.002 -0.089,0.006 l -5.672,0.708 c -0.372,0.047 -0.643,0.374 -0.62,0.748 0.024,0.374 0.333,0.664 0.707,0.665 0.041,0 4.068,0.018 5.989,1.299 C 0.565,3.594 0.898,3.583 1.14,3.4 1.379,3.215 1.477,2.899 1.381,2.612 L 0.672,0.485 C 0.575,0.192 0.302,0 0,0"
                 inkscape:connector-curvature="0" />
            </g>
            <g
               transform="translate(11,18)"
               id="g413">
              <path
                 id="path415"
                 style="fill:#292f33;fill-opacity:1;fill-rule:nonzero;stroke:none"
                 d="m 0,0 -5,0 c -0.552,0 -1,0.448 -1,1 0,0.552 0.448,1 1,1 L 0,2 C 0.552,2 1,1.552 1,1 1,0.448 0.552,0 0,0"
                 inkscape:connector-curvature="0" />
            </g>
            <g
               transform="translate(21.999,23.0005)"
               id="g417">
              <path
                 id="path82"
                 style="fill:#a0041e;fill-opacity:1;fill-rule:nonzero;stroke:none"
                 d="m 0,0 -3.999,-3 3,-3 L 0,0 Z"
                 inkscape:connector-curvature="0" />
            </g>
            <g
               transform="translate(19.999,19.0005)"
               id="g84">
              <path
                 id="path86"
                 style="fill:#7c533e;fill-opacity:1;fill-rule:nonzero;stroke:none"
                 d="m 0,0 c 0,0 -2,-3.001 -2,-4.001 0,-1 1,-4 1,-7 0,-3 2,-3 2,-2 0,1 1.581,5.419 0,7 C 0,-5.001 3,-2 3,-2 L 0,0 Z"
                 inkscape:connector-curvature="0" />
            </g>
            <g
               transform="translate(15.6845,22.7034)"
               id="g422">
              <path
                 id="path424"
                 style="fill:#7c533e;fill-opacity:1;fill-rule:nonzero;stroke:none"
                 d="m 0,0 -2.75,0.784 c -0.446,-1.957 -3.023,-4.486 -3.935,-4.486 -1,0 -2,0 -2,-1 0,-1 0,-1 2,-1 2,0 4,2 5,3 0.65,0.65 1.31,1.756 1.685,2.702"
                 inkscape:connector-curvature="0" />
            </g>
            <g
               transform="translate(21.999,23.0005)"
               id="g426">
              <path
                 id="path428"
                 style="fill:#be1931;fill-opacity:1;fill-rule:nonzero;stroke:none"
                 d="M 0,0 -3,-4 1,-7.001 C 1,-7.001 6,-2 6,0 6,2 3,3 3,3 L 0,0 Z"
                 inkscape:connector-curvature="0" />
            </g>
            <g
               transform="translate(20.9993,29.001)"
               id="g430">
              <path
                 id="path432"
                 style="fill:#dd2e44;fill-opacity:1;fill-rule:nonzero;stroke:none"
                 d="m 0,0 c -3,1 -5.585,0.414 -7,-1 -1,-1 -1,-2 -1,-4 0,-0.176 -0.03,-0.362 -0.073,-0.55 l 2.744,-0.784 C -5.127,-5.825 -5,-5.35 -5,-5 c 0,1 1,1 2,0 1,-1 2.001,-2 3.001,-2 1,0 6,4 6,4 C 3,-2 1.897,-0.632 0,0"
                 inkscape:connector-curvature="0" />
            </g>
            <g
               transform="translate(18.9995,7)"
               id="g434">
              <path
                 id="path436"
                 style="fill:#dd2e44;fill-opacity:1;fill-rule:nonzero;stroke:none"
                 d="m 0,0 c 0,0 1,-1 2,0 1,1 1,-2 1,-2 0,0 -3,-2 -5,-2 -2,0 -1,1 0,2 l 2,2 z"
                 inkscape:connector-curvature="0" />
            </g>
            <g
               transform="translate(10.9995,34.0005)"
               id="g438">
              <path
                 id="path440"
                 style="fill:#dd2e44;fill-opacity:1;fill-rule:nonzero;stroke:none"
                 d="m 0,0 c 2,1 6,0 4,-2 -1,-1 -7,-2 -7,-2 0,1 1,3 3,4"
                 inkscape:connector-curvature="0" />
            </g>
          </g>
        </g>
      </g>
    </g>
    <g
       transform="matrix(0.5663119,-0.41144968,0.41144968,0.5663119,107.85894,47.383795)"
       id="g442">
      <g
         transform="matrix(1.25,0,0,-1.25,0,45)"
         id="g444">
        <g
           id="g446">
          <g
             clip-path="url(#clipPath16)"
             id="g448">
            <g
               transform="translate(25.8193,25.2695)"
               id="g450">
              <path
                 id="path452"
                 style="fill:#66757f;fill-opacity:1;fill-rule:nonzero;stroke:none"
                 d="m 0,0 c -0.22,-0.132 -0.505,-0.061 -0.637,0.158 l -3.134,5.201 c -0.133,0.219 -0.063,0.504 0.157,0.636 l 0.061,0.038 c 0.22,0.132 0.505,0.062 0.637,-0.158 L 0.22,0.674 C 0.352,0.455 0.281,0.17 0.062,0.038 L 0,0 Z"
                 inkscape:connector-curvature="0" />
            </g>
            <g
               transform="translate(25.2695,25.8193)"
               id="g454">
              <path
                 id="path456"
                 style="fill:#66757f;fill-opacity:1;fill-rule:nonzero;stroke:none"
                 d="m 0,0 c -0.132,-0.219 -0.061,-0.504 0.158,-0.636 l 5.2,-3.135 c 0.22,-0.133 0.505,-0.063 0.637,0.157 l 0.037,0.062 c 0.133,0.219 0.063,0.504 -0.158,0.637 L 0.674,0.22 C 0.455,0.352 0.17,0.282 0.037,0.062 L 0,0 Z"
                 inkscape:connector-curvature="0" />
            </g>
            <g
               transform="translate(13.0488,3.8564)"
               id="g458">
              <path
                 id="path460"
                 style="fill:#be1931;fill-opacity:1;fill-rule:nonzero;stroke:none"
                 d="m 0,0 -3.536,4.95 -0.707,0.707 -4.949,3.535 c -0.391,0.391 -1.024,0.391 -1.414,0 l -2.122,-2.121 c -0.391,-0.39 -0.39,-1.023 0,-1.414 l 9.192,-9.192 c 0.391,-0.391 1.024,-0.391 1.415,0 L 0,-1.414 C 0.391,-1.023 0.391,-0.391 0,0"
                 inkscape:connector-curvature="0" />
            </g>
            <g
               transform="translate(23.2041,18.2534)"
               id="g462">
              <path
                 id="path464"
                 style="fill:#ccd6dd;fill-opacity:1;fill-rule:nonzero;stroke:none"
                 d="m 0,0 c -6.995,-6.994 -19.669,-15.557 -20.088,-15.137 -0.42,0.419 8.144,13.093 15.138,20.087 6.993,6.993 8.821,6.606 10.188,5.238 C 6.604,8.822 6.993,6.994 0,0"
                 inkscape:connector-curvature="0" />
            </g>
            <g
               transform="translate(32.0762,31.3682)"
               id="g466">
              <path
                 id="path468"
                 style="fill:#be1931;fill-opacity:1;fill-rule:nonzero;stroke:none"
                 d="m 0,0 c -0.977,-0.976 -1.927,-1.609 -2.122,-1.414 -0.195,0.195 0.438,1.145 1.414,2.122 C 0.268,1.684 1.219,2.317 1.414,2.122 1.609,1.926 0.976,0.977 0,0"
                 inkscape:connector-curvature="0" />
            </g>
            <g
               transform="translate(23.9443,18.9946)"
               id="g470">
              <path
                 id="path472"
                 style="fill:#ccd6dd;fill-opacity:1;fill-rule:nonzero;stroke:none"
                 d="M 0,0 C -0.781,-0.781 -2.048,-0.781 -2.828,0 L -4.95,2.121 c -0.781,0.781 -0.781,2.048 0,2.829 l 7.778,7.778 c 0.781,0.781 3.222,1.955 4.003,1.173 L 8.952,11.78 C 9.733,10.999 8.56,8.559 7.778,7.778 L 0,0 Z"
                 inkscape:connector-curvature="0" />
            </g>
            <g
               transform="translate(28.5264,32.7974)"
               id="g474">
              <path
                 id="path476"
                 style="fill:#226699;fill-opacity:1;fill-rule:nonzero;stroke:none"
                 d="m 0,0 4.271,-4.271 c 0.365,0.883 0.53,1.817 0.099,2.249 L 2.249,0.099 C 1.818,0.529 0.883,0.364 0,0"
                 inkscape:connector-curvature="0" />
            </g>
            <g
               transform="translate(32.5918,32.2671)"
               id="g478">
              <path
                 id="path480"
                 style="fill:#be1931;fill-opacity:1;fill-rule:nonzero;stroke:none"
                 d="M 0,0 C -0.196,-0.196 -1.145,0.437 -2.121,1.414 -3.098,2.39 -3.731,3.34 -3.535,3.535 -3.34,3.73 -2.391,3.097 -1.414,2.121 -0.437,1.145 0.195,0.195 0,0"
                 inkscape:connector-curvature="0" />
            </g>
            <g
               transform="translate(35.8232,29.0347)"
               id="g482">
              <path
                 id="path484"
                 style="fill:#be1931;fill-opacity:1;fill-rule:nonzero;stroke:none"
                 d="M 0,0 C -0.195,-0.195 -1.145,0.438 -2.121,1.414 -3.098,2.391 -3.731,3.34 -3.535,3.536 -3.34,3.731 -2.391,3.098 -1.414,2.121 -0.437,1.145 0.195,0.195 0,0"
                 inkscape:connector-curvature="0" />
            </g>
            <g
               transform="translate(24.5166,25.8921)"
               id="g486">
              <path
                 id="path488"
                 style="fill:#66757f;fill-opacity:1;fill-rule:nonzero;stroke:none"
                 d="M 0,0 1.375,-1.375 C 1.953,-1.953 2.489,-2.463 2.66,-3.121 l 0.061,0.061 c 0.944,0.945 0.944,2.477 0,3.422 L 1.738,1.344 c -0.944,0.945 -2.476,0.945 -3.422,0 l -0.06,-0.06 C -1.087,1.113 -0.577,0.577 0,0"
                 inkscape:connector-curvature="0" />
            </g>
            <g
               transform="translate(21.8311,29.6099)"
               id="g490">
              <path
                 id="path492"
                 style="fill:#292f33;fill-opacity:1;fill-rule:nonzero;stroke:none"
                 d="m 0,0 c -0.34,-0.34 -0.893,-0.34 -1.233,0 l -0.18,0.181 c -0.341,0.34 -0.341,0.893 -10e-4,1.233 l 1.596,1.595 c 0.339,0.341 0.892,0.341 1.233,0 l 0.18,-0.18 C 1.936,2.488 1.936,1.936 1.596,1.595 L 0,0 Z"
                 inkscape:connector-curvature="0" />
            </g>
            <g
               transform="translate(30.9902,20.3838)"
               id="g494">
              <path
                 id="path496"
                 style="fill:#292f33;fill-opacity:1;fill-rule:nonzero;stroke:none"
                 d="m 0,0 c -0.322,-0.322 -0.844,-0.322 -1.166,0 l -0.248,0.248 c -0.322,0.322 -0.322,0.844 0,1.166 l 1.662,1.663 c 0.322,0.321 0.844,0.321 1.166,0 L 1.662,2.828 c 0.322,-0.322 0.322,-0.844 0,-1.166 L 0,0 Z"
                 inkscape:connector-curvature="0" />
            </g>
            <g
               transform="translate(3.8652,8.7979)"
               id="g498">
              <path
                 id="path500"
                 style="fill:#ea596e;fill-opacity:1;fill-rule:nonzero;stroke:none"
                 d="m 0,0 -0.716,0.716 -1.423,1.423 c -0.385,0.385 -1.011,0.385 -1.397,0 L -3.553,2.122 c -0.385,-0.387 -0.385,-1.012 0,-1.397 l 1.423,-1.423 0.715,-0.716 0.699,-0.698 0.699,0.698 L 0,-1.397 0.698,-0.698 0,0 Z"
                 inkscape:connector-curvature="0" />
            </g>
            <g
               transform="translate(10.9277,1.7354)"
               id="g502">
              <path
                 id="path504"
                 style="fill:#ea596e;fill-opacity:1;fill-rule:nonzero;stroke:none"
                 d="m 0,0 -1.44,1.44 -0.682,0.681 -0.707,0.707 -1.414,-1.414 0.707,-0.707 0.681,-0.681 1.44,-1.44 c 0.392,-0.391 1.024,-0.391 1.415,0 0.391,0.391 0.391,1.023 0,1.414"
                 inkscape:connector-curvature="0" />
            </g>
            <g
               transform="translate(7.1191,6.5254)"
               id="g506">
              <path
                 id="path508"
                 style="fill:#be1931;fill-opacity:1;fill-rule:nonzero;stroke:none"
                 d="m 0,0 c -2.047,-2.047 -3.84,-3.573 -4.003,-3.409 -0.164,0.163 1.362,1.956 3.409,4.003 2.048,2.048 3.84,3.574 4.004,3.41 C 3.574,3.84 2.047,2.048 0,0"
                 inkscape:connector-curvature="0" />
            </g>
            <g
               transform="translate(35.1318,12.8271)"
               id="g510">
              <path
                 id="path512"
                 style="fill:#be1931;fill-opacity:1;fill-rule:nonzero;stroke:none"
                 d="m 0,0 -22.329,22.328 c -0.781,0.781 -2.047,0.781 -2.829,0 l -2.535,-2.95 8.226,-10.64 5.9,-5.899 L -2.95,-5.365 0,-2.828 C 0.781,-2.049 0.781,-0.781 0,0"
                 inkscape:connector-curvature="0" />
            </g>
            <g
               transform="translate(16.5249,25.5103)"
               id="g514">
              <path
                 id="path516"
                 style="fill:#ea596e;fill-opacity:1;fill-rule:nonzero;stroke:none"
                 d="M 0,0 -7.981,7.981 -9.086,6.695 -2.205,-2.205 0,0 Z"
                 inkscape:connector-curvature="0" />
            </g>
            <g
               transform="translate(33.4678,8.5674)"
               id="g518">
              <path
                 id="path520"
                 style="fill:#ea596e;fill-opacity:1;fill-rule:nonzero;stroke:none"
                 d="M 0,0 -8.457,8.458 -10.726,6.189 -1.286,-1.105 0,0 Z"
                 inkscape:connector-curvature="0" />
            </g>
          </g>
        </g>
      </g>
    </g>
    <g
       transform="matrix(0.38302222,-0.3213938,0.3213938,0.38302222,14.375089,99.826925)"
       id="g522">
      <g
         transform="matrix(1.25,0,0,-1.25,0,47.5)"
         id="g524">
        <g
           id="g526">
          <g
             clip-path="url(#clipPath16)"
             id="g528">
            <g
               transform="translate(36,19)"
               id="g530">
              <path
                 id="path532"
                 style="fill:#ffcc4d;fill-opacity:1;fill-rule:nonzero;stroke:none"
                 d="m 0,0 c 0,-9.389 -7.611,-17 -17,-17 -9.388,0 -17,7.611 -17,17 0,9.388 7.612,17 17,17 C -7.611,17 0,9.388 0,0"
                 inkscape:connector-curvature="0" />
            </g>
            <g
               transform="translate(22,11)"
               id="g534">
              <path
                 id="path536"
                 style="fill:#664500;fill-opacity:1;fill-rule:nonzero;stroke:none"
                 d="m 0,0 c 0,-1.657 -1.343,-3 -3,-3 -1.657,0 -3,1.343 -3,3 0,1.656 1.343,3 3,3 1.657,0 3,-1.344 3,-3"
                 inkscape:connector-curvature="0" />
            </g>
            <g
               transform="translate(18.3125,20.3882)"
               id="g538">
              <path
                 id="path540"
                 style="fill:#664500;fill-opacity:1;fill-rule:nonzero;stroke:none"
                 d="m 0,0 c -0.176,0.143 -0.427,0.147 -0.61,0.014 -0.013,-0.01 -1.261,-0.902 -3.702,-0.902 -2.441,0 -3.69,0.892 -3.701,0.9 -0.182,0.136 -0.434,0.133 -0.611,-0.009 -0.178,-0.142 -0.238,-0.386 -0.146,-0.594 0.061,-0.135 1.5,-3.297 4.458,-3.297 2.958,0 4.397,3.162 4.457,3.297 C 0.236,-0.384 0.176,-0.142 0,0"
                 inkscape:connector-curvature="0" />
            </g>
            <g
               transform="translate(28.3125,20.3882)"
               id="g542">
              <path
                 id="path544"
                 style="fill:#664500;fill-opacity:1;fill-rule:nonzero;stroke:none"
                 d="m 0,0 c -0.176,0.143 -0.426,0.148 -0.61,0.014 -0.012,-0.01 -1.261,-0.902 -3.702,-0.902 -2.441,0 -3.691,0.892 -3.701,0.9 -0.182,0.136 -0.433,0.133 -0.611,-0.009 -0.178,-0.142 -0.238,-0.386 -0.146,-0.594 0.06,-0.135 1.5,-3.297 4.458,-3.297 2.958,0 4.397,3.162 4.457,3.297 C 0.236,-0.384 0.177,-0.142 0,0"
                 inkscape:connector-curvature="0" />
            </g>
            <g
               transform="translate(16.9985,31.8691)"
               id="g546">
              <path
                 id="path548"
                 style="fill:#2a6797;fill-opacity:1;fill-rule:nonzero;stroke:none"
                 d="m 0,0 -2.003,0 c -0.432,0 -0.78,0.276 -0.78,0.756 0,0.479 0.348,0.755 0.78,0.755 l 3.922,0 c 0.156,0 0.563,-0.071 0.563,-0.539 0,-0.228 -0.047,-0.336 -0.179,-0.516 l -2.723,-3.814 2.279,0 c 0.432,0 0.779,-0.276 0.779,-0.756 0,-0.479 -0.347,-0.755 -0.779,-0.755 l -4.018,0 c -0.384,0 -0.708,0.192 -0.708,0.588 0,0.192 0.096,0.371 0.156,0.468 L 0,0 Z"
                 inkscape:connector-curvature="0" />
            </g>
            <g
               transform="translate(24.502,34.687)"
               id="g550">
              <path
                 id="path552"
                 style="fill:#2a6797;fill-opacity:1;fill-rule:nonzero;stroke:none"
                 d="m 0,0 -2.34,0 c -0.504,0 -0.91,0.322 -0.91,0.882 0,0.561 0.406,0.883 0.91,0.883 l 4.58,0 C 2.424,1.765 2.9,1.681 2.9,1.135 2.9,0.869 2.844,0.743 2.689,0.532 l -3.179,-4.454 2.662,0 c 0.504,0 0.91,-0.322 0.91,-0.883 0,-0.56 -0.406,-0.882 -0.91,-0.882 l -4.693,0 c -0.449,0 -0.827,0.224 -0.827,0.687 0,0.224 0.112,0.434 0.182,0.545 L 0,0 Z"
                 inkscape:connector-curvature="0" />
            </g>
            <g
               transform="translate(32.502,31.3101)"
               id="g554">
              <path
                 id="path556"
                 style="fill:#2a6797;fill-opacity:1;fill-rule:nonzero;stroke:none"
                 d="m 0,0 -3.008,0 c -0.648,0 -1.17,0.414 -1.17,1.134 0,0.72 0.522,1.135 1.17,1.135 l 5.889,0 c 0.234,0 0.846,-0.108 0.846,-0.811 0,-0.341 -0.073,-0.504 -0.27,-0.774 l -4.088,-5.726 3.422,0 c 0.647,0 1.17,-0.414 1.17,-1.134 0,-0.72 -0.523,-1.134 -1.17,-1.134 l -6.033,0 c -0.576,0 -1.062,0.288 -1.062,0.882 0,0.288 0.144,0.558 0.234,0.702 L 0,0 Z"
                 inkscape:connector-curvature="0" />
            </g>
          </g>
        </g>
      </g>
    </g>
    <g
       transform="matrix(0.93969262,-0.34202014,0.34202014,0.93969262,33.789448,132.63037)"
       id="g558">
      <g
         transform="matrix(1.25,0,0,-1.25,0,45)"
         id="g560">
        <g
           id="g562">
          <g
             clip-path="url(#clipPath16)"
             id="g564">
            <g
               transform="translate(30,12)"
               id="g566">
              <path
                 id="path568"
                 style="fill:#ffcc4d;fill-opacity:1;fill-rule:nonzero;stroke:none"
                 d="m 0,0 c 0,-6.628 -5.372,-12 -12,-12 -6.627,0 -12,5.372 -12,12 0,6.627 5.373,12 12,12 C -5.372,12 0,6.627 0,0"
                 inkscape:connector-curvature="0" />
            </g>
            <g
               transform="translate(13.5,24.2108)"
               id="g570">
              <path
                 id="path572"
                 style="fill:#f4900c;fill-opacity:1;fill-rule:nonzero;stroke:none"
                 d="M 0,0 C 0.386,0.441 1.647,-0.069 2,-0.461 2.353,-0.853 6.658,-1.352 6.5,-0.8 6,0.951 7.5,1.775 7.765,1.194 7.909,0.878 7.574,-0.368 7.733,-0.484 8.167,-0.8 8.671,-0.268 9.02,-0.461 9.633,-0.8 8.614,-2.3 8.614,-2.3 L 0.59,-3.011 c 0,0 -0.983,2.562 -0.59,3.011"
                 inkscape:connector-curvature="0" />
            </g>
            <g
               transform="translate(22.114,19.7)"
               id="g574">
              <path
                 id="path576"
                 style="fill:#f4900c;fill-opacity:1;fill-rule:nonzero;stroke:none"
                 d="m 0,0 c 0,-0.828 -1.842,-1.5 -4.114,-1.5 -2.272,0 -4.114,0.672 -4.114,1.5 0,0.828 1.842,1.5 4.114,1.5 C -1.842,1.5 0,0.828 0,0"
                 inkscape:connector-curvature="0" />
            </g>
            <g
               transform="translate(14.0833,29.1319)"
               id="g578">
              <path
                 id="path580"
                 style="fill:#da2f47;fill-opacity:1;fill-rule:nonzero;stroke:none"
                 d="m 0,0 c 0.56,-1.736 1.917,-7.132 0.56,-9.432 0.559,-0.868 1.678,-1.117 3.357,-1.117 l 0,11.417"
                 inkscape:connector-curvature="0" />
            </g>
            <g
               transform="translate(21.9167,29.1319)"
               id="g582">
              <path
                 id="path584"
                 style="fill:#da2f47;fill-opacity:1;fill-rule:nonzero;stroke:none"
                 d="m 0,0 c -0.56,-1.736 -1.917,-7.132 -0.56,-9.432 -0.559,-0.868 -1.678,-1.117 -3.357,-1.117 l 0,11.417"
                 inkscape:connector-curvature="0" />
            </g>
            <g
               transform="translate(15,31.5)"
               id="g586">
              <path
                 id="path588"
                 style="fill:#ea596e;fill-opacity:1;fill-rule:nonzero;stroke:none"
                 d="M 0,0 C 0,-1.381 -1.119,-2.5 -2.5,-2.5 -3.881,-2.5 -5,-1.381 -5,0 -5,1.381 -3.881,2.5 -2.5,2.5 -1.119,2.5 0,1.381 0,0"
                 inkscape:connector-curvature="0" />
            </g>
            <g
               transform="translate(13,29.5)"
               id="g590">
              <path
                 id="path592"
                 style="fill:#ea596e;fill-opacity:1;fill-rule:nonzero;stroke:none"
                 d="M 0,0 C 0,-1.381 -1.119,-2.5 -2.5,-2.5 -3.881,-2.5 -5,-1.381 -5,0 -5,1.381 -3.881,2.5 -2.5,2.5 -1.119,2.5 0,1.381 0,0"
                 inkscape:connector-curvature="0" />
            </g>
            <g
               transform="translate(20,32.5)"
               id="g594">
              <path
                 id="path596"
                 style="fill:#ea596e;fill-opacity:1;fill-rule:nonzero;stroke:none"
                 d="M 0,0 C 0,-0.828 -0.672,-1.5 -1.5,-1.5 -2.328,-1.5 -3,-0.828 -3,0 -3,0.828 -2.328,1.5 -1.5,1.5 -0.672,1.5 0,0.828 0,0"
                 inkscape:connector-curvature="0" />
            </g>
            <g
               id="g598">
              <g
                 id="g54" />
              <g
                 id="g601">
                <g
                   style="opacity:0.28999299"
                   id="g62"
                   clip-path="url(#clipPath56)">
                  <g
                     id="g604"
                     transform="translate(21.898,28.7917)">
                    <path
                       id="path606"
                       style="fill:#9d0522;fill-opacity:1;fill-rule:nonzero;stroke:none"
                       d="m 0,0 c 0.047,0.078 0.073,0.251 0.127,0.33 -1.354,0.324 -2.723,0.649 -2.754,0.649 -0.063,0 -7.063,-0.812 -7.25,-0.854 -0.182,-0.04 -0.042,0.625 -0.042,0.625 0,0 1.283,-2.435 2.584,-2.833 0.18,-0.056 0.476,-1.314 0.499,-1.929 0.624,0.018 1.006,0.176 1.584,0.637 0.375,-0.25 1.333,-0.417 1.812,0.083 0.402,-0.201 1.577,-0.411 2.667,0.36 C -0.647,-1.857 -0.245,-0.405 0,0"
                       inkscape:connector-curvature="0" />
                  </g>
                </g>
              </g>
            </g>
            <g
               transform="translate(18,30.5)"
               id="g608">
              <path
                 id="path610"
                 style="fill:#ccd6dd;fill-opacity:1;fill-rule:nonzero;stroke:none"
                 d="M 0,0 C 0,-1.381 -1.119,-2.5 -2.5,-2.5 -3.881,-2.5 -5,-1.381 -5,0 -5,1.381 -3.881,2.5 -2.5,2.5 -1.119,2.5 0,1.381 0,0"
                 inkscape:connector-curvature="0" />
            </g>
            <g
               transform="translate(18,33.5)"
               id="g612">
              <path
                 id="path614"
                 style="fill:#ea596e;fill-opacity:1;fill-rule:nonzero;stroke:none"
                 d="M 0,0 C 0,-1.381 -1.119,-2.5 -2.5,-2.5 -3.881,-2.5 -5,-1.381 -5,0 -5,1.381 -3.881,2.5 -2.5,2.5 -1.119,2.5 0,1.381 0,0"
                 inkscape:connector-curvature="0" />
            </g>
            <g
               transform="translate(18.125,29.2569)"
               id="g616">
              <path
                 id="path618"
                 style="fill:#ea596e;fill-opacity:1;fill-rule:nonzero;stroke:none"
                 d="m 0,0 c 0,-1.791 -1.452,-3.243 -3.243,-3.243 -1.791,0 -3.243,1.452 -3.243,3.243 0,1.791 1.452,3.243 3.243,3.243 C -1.452,3.243 0,1.791 0,0"
                 inkscape:connector-curvature="0" />
            </g>
            <g
               transform="translate(22,29.5)"
               id="g620">
              <path
                 id="path622"
                 style="fill:#ea596e;fill-opacity:1;fill-rule:nonzero;stroke:none"
                 d="M 0,0 C 0,-1.381 -1.119,-2.5 -2.5,-2.5 -3.881,-2.5 -5,-1.381 -5,0 -5,1.381 -3.881,2.5 -2.5,2.5 -1.119,2.5 0,1.381 0,0"
                 inkscape:connector-curvature="0" />
            </g>
            <g
               transform="translate(26,30.5)"
               id="g624">
              <path
                 id="path626"
                 style="fill:#ea596e;fill-opacity:1;fill-rule:nonzero;stroke:none"
                 d="M 0,0 C 0,-1.381 -1.119,-2.5 -2.5,-2.5 -3.881,-2.5 -5,-1.381 -5,0 -5,1.381 -3.881,2.5 -2.5,2.5 -1.119,2.5 0,1.381 0,0"
                 inkscape:connector-curvature="0" />
            </g>
            <g
               transform="translate(28,30)"
               id="g628">
              <path
                 id="path630"
                 style="fill:#ea596e;fill-opacity:1;fill-rule:nonzero;stroke:none"
                 d="m 0,0 c 0,-1.105 -0.895,-2 -2,-2 -1.105,0 -2,0.895 -2,2 0,1.105 0.895,2 2,2 1.105,0 2,-0.895 2,-2"
                 inkscape:connector-curvature="0" />
            </g>
            <g
               transform="translate(24,31.5)"
               id="g632">
              <path
                 id="path634"
                 style="fill:#ea596e;fill-opacity:1;fill-rule:nonzero;stroke:none"
                 d="M 0,0 C 0,-1.381 -1.119,-2.5 -2.5,-2.5 -3.881,-2.5 -5,-1.381 -5,0 -5,1.381 -3.881,2.5 -2.5,2.5 -1.119,2.5 0,1.381 0,0"
                 inkscape:connector-curvature="0" />
            </g>
            <g
               transform="translate(16,30.5)"
               id="g636">
              <path
                 id="path638"
                 style="fill:#f4abba;fill-opacity:1;fill-rule:nonzero;stroke:none"
                 d="M 0,0 C 0,-1.381 -1.119,-2.5 -2.5,-2.5 -3.881,-2.5 -5,-1.381 -5,0 -5,1.381 -3.881,2.5 -2.5,2.5 -1.119,2.5 0,1.381 0,0"
                 inkscape:connector-curvature="0" />
            </g>
            <g
               transform="translate(18,32.5)"
               id="g640">
              <path
                 id="path642"
                 style="fill:#f4abba;fill-opacity:1;fill-rule:nonzero;stroke:none"
                 d="M 0,0 C 0,-0.828 -0.672,-1.5 -1.5,-1.5 -2.328,-1.5 -3,-0.828 -3,0 -3,0.828 -2.328,1.5 -1.5,1.5 -0.672,1.5 0,0.828 0,0"
                 inkscape:connector-curvature="0" />
            </g>
            <g
               transform="translate(20,30.5)"
               id="g644">
              <path
                 id="path646"
                 style="fill:#f4abba;fill-opacity:1;fill-rule:nonzero;stroke:none"
                 d="M 0,0 C 0,-0.828 -0.672,-1.5 -1.5,-1.5 -2.328,-1.5 -3,-0.828 -3,0 -3,0.828 -2.328,1.5 -1.5,1.5 -0.672,1.5 0,0.828 0,0"
                 inkscape:connector-curvature="0" />
            </g>
            <g
               transform="translate(15.875,28.7917)"
               id="g108">
              <path
                 id="path110"
                 style="fill:#f4abba;fill-opacity:1;fill-rule:nonzero;stroke:none"
                 d="M 0,0 C 0,-0.829 -0.672,-1.5 -1.5,-1.5 -2.328,-1.5 -3,-0.829 -3,0 -3,0.828 -2.328,1.5 -1.5,1.5 -0.672,1.5 0,0.828 0,0"
                 inkscape:connector-curvature="0" />
            </g>
            <g
               transform="translate(11.8333,29.867)"
               id="g112">
              <path
                 id="path114"
                 style="fill:#f4abba;fill-opacity:1;fill-rule:nonzero;stroke:none"
                 d="m 0,0 c 0,-0.741 -0.6,-1.341 -1.341,-1.341 -0.741,0 -1.342,0.6 -1.342,1.341 0,0.741 0.601,1.341 1.342,1.341 C -0.6,1.341 0,0.741 0,0"
                 inkscape:connector-curvature="0" />
            </g>
            <g
               transform="translate(18.0617,29.7708)"
               id="g116">
              <path
                 id="path118"
                 style="fill:#f4abba;fill-opacity:1;fill-rule:nonzero;stroke:none"
                 d="M 0,0 C 0,-0.828 -0.672,-1.5 -1.5,-1.5 -2.328,-1.5 -3,-0.828 -3,0 -3,0.829 -2.328,1.5 -1.5,1.5 -0.672,1.5 0,0.829 0,0"
                 inkscape:connector-curvature="0" />
            </g>
            <g
               transform="translate(25,30.5)"
               id="g120">
              <path
                 id="path122"
                 style="fill:#f4abba;fill-opacity:1;fill-rule:nonzero;stroke:none"
                 d="M 0,0 C 0,-0.828 -0.672,-1.5 -1.5,-1.5 -2.328,-1.5 -3,-0.828 -3,0 -3,0.828 -2.328,1.5 -1.5,1.5 -0.672,1.5 0,0.828 0,0"
                 inkscape:connector-curvature="0" />
            </g>
            <g
               transform="translate(14.0833,21.4512)"
               id="g124">
              <path
                 id="path126"
                 style="fill:#ffcc4d;fill-opacity:1;fill-rule:nonzero;stroke:none"
                 d="M 0,0 C -0.197,0.46 0.011,1.555 0.548,1.137 1.085,0.719 0.789,-0.231 1.417,-0.24 2.044,-0.25 2.221,1.201 2.917,1.24 3.613,1.279 3.966,-0.211 4.417,-0.093 4.868,0.024 4.75,0.652 5.26,0.534 5.77,0.417 5.652,-0.62 6.175,-0.366 6.698,-0.113 6.69,1.277 7.25,1.337 7.809,1.397 7.468,0.111 8.031,0.46 8.593,0.809 8.506,0.026 7.941,-0.406 7.378,-0.838 4.735,-1.956 1.958,-1.24 -0.819,-0.525 0.197,-0.46 0,0"
                 inkscape:connector-curvature="0" />
            </g>
            <g
               transform="translate(22.6666,18)"
               id="g128">
              <path
                 id="path130"
                 style="fill:#ffcc4d;fill-opacity:1;fill-rule:nonzero;stroke:none"
                 d="m 0,0 -9.421,0 0,3.2 L 0.478,2.618 0,0 Z"
                 inkscape:connector-curvature="0" />
            </g>
            <g
               transform="translate(15,15)"
               id="g132">
              <path
                 id="path134"
                 style="fill:#664500;fill-opacity:1;fill-rule:nonzero;stroke:none"
                 d="M 0,0 C 0,-1.105 -0.672,-2 -1.5,-2 -2.329,-2 -3,-1.105 -3,0 -3,1.105 -2.329,2 -1.5,2 -0.672,2 0,1.105 0,0"
                 inkscape:connector-curvature="0" />
            </g>
            <g
               transform="translate(24,15.0001)"
               id="g136">
              <path
                 id="path138"
                 style="fill:#664500;fill-opacity:1;fill-rule:nonzero;stroke:none"
                 d="M 0,0 C 0,-1.105 -0.672,-2 -1.5,-2 -2.328,-2 -3,-1.105 -3,0 -3,1.104 -2.328,2 -1.5,2 -0.672,2 0,1.104 0,0"
                 inkscape:connector-curvature="0" />
            </g>
            <g
               transform="translate(21.5,6.7222)"
               id="g140">
              <path
                 id="path142"
                 style="fill:#664500;fill-opacity:1;fill-rule:nonzero;stroke:none"
                 d="M 0,0 C 0,-2.21 -1.568,-4 -3.5,-4 -5.433,-4 -7,-2.21 -7,0 -7,2.209 -5.433,4 -3.5,4 -1.568,4 0,2.209 0,0"
                 inkscape:connector-curvature="0" />
            </g>
          </g>
        </g>
      </g>
    </g>
    
  </g>
</svg>
