<?xml version="1.0" encoding="UTF-8" standalone="no"?>
<svg
   xmlns:dc="http://purl.org/dc/elements/1.1/"
   xmlns:cc="http://creativecommons.org/ns#"
   xmlns:rdf="http://www.w3.org/1999/02/22-rdf-syntax-ns#"
   xmlns:svg="http://www.w3.org/2000/svg"
   xmlns="http://www.w3.org/2000/svg"
   xmlns:sodipodi="http://sodipodi.sourceforge.net/DTD/sodipodi-0.dtd"
   xmlns:inkscape="http://www.inkscape.org/namespaces/inkscape"
   version="1.1"
   id="svg2"
   viewBox="0 0 200 200"
   height="200px"
   width="200px"
   inkscape:version="0.91 r13725"
   sodipodi:docname="30.svg">
  <metadata
     id="metadata583">
    <rdf:RDF>
      <cc:Work
         rdf:about="">
        <dc:format>image/svg+xml</dc:format>
        <dc:type
           rdf:resource="http://purl.org/dc/dcmitype/StillImage" />
      </cc:Work>
    </rdf:RDF>
  </metadata>
  <sodipodi:namedview
     pagecolor="#ffffff"
     bordercolor="#666666"
     borderopacity="1"
     objecttolerance="10"
     gridtolerance="10"
     guidetolerance="10"
     inkscape:pageopacity="0"
     inkscape:pageshadow="2"
     inkscape:window-width="1920"
     inkscape:window-height="1060"
     id="namedview581"
     showgrid="false"
     inkscape:zoom="3.337544"
     inkscape:cx="105.70288"
     inkscape:cy="115.79388"
     inkscape:window-x="0"
     inkscape:window-y="0"
     inkscape:window-maximized="1"
     inkscape:current-layer="layer1" />
  
    
    
    <defs id="defs6">

        <clipPath
           id="clipPath28"
           clipPathUnits="userSpaceOnUse">
          <path
             id="path30"
             d="M 4,36 C 0,36 0,32 0,32 L 0,32 0,4 C 0,0 4,0 4,0 l 0,0 28,0 c 4,0 4,4 4,4 l 0,0 0,28 c 0,4 -4,4 -4,4 l 0,0 -28,0 z" />
        </clipPath>


        <clipPath clipPathUnits="userSpaceOnUse" id="clipPath16-rugby">
            <path d="M 0,38 38,38 38,0 0,0 0,38 Z" id="path18"/>
        </clipPath>
        <clipPath clipPathUnits="userSpaceOnUse" id="clipPath28-rugby">
            <path d="M 9.254,28.746 C 2.09,21.582 -0.927,9.561 3.929,3.929 l 0,0 C 9.561,-0.927 21.582,2.09 28.746,9.254 l 0,0 c 7.164,7.164 11.229,17.088 5.324,24.816 l 0,0 c -1.886,1.627 -4.489,2.371 -7.387,2.37 l 0,0 c -5.752,0 -12.665,-2.93 -17.429,-7.694" id="path30"/>
        </clipPath>

        <clipPath clipPathUnits="userSpaceOnUse" id="clipPath16-carrot">
            <path d="M 0,36 36,36 36,0 0,0 0,36 Z" id="path18"/>
        </clipPath>
        <clipPath clipPathUnits="userSpaceOnUse" id="clipPath32-carrot">
            <path d="M 11.815,23.013 C 4.2,15.397 -1.265,2.86 0.502,1.093 l 0,0 c 1.768,-1.768 14.305,3.698 21.92,11.313 l 0,0 c 7.616,7.615 7.562,11.53 4.243,14.85 l 0,0 c -1.328,1.328 -2.752,2.133 -4.47,2.133 l 0,0 c -2.575,0 -5.812,-1.809 -10.38,-6.376" id="path34"/>
        </clipPath>

        <clipPath clipPathUnits="userSpaceOnUse" id="clipPath32-hat">
            <path d="m 5,33.666 c 0,-0.034 0.018,-0.067 0.022,-0.101 l 0,0 C 5.008,33.455 5,33.335 5,33.2 l 0,0 L 6.802,9.616 C 3.299,8.705 1,7.424 1,6 L 1,6 C 1,3.238 9.611,1 19,1 l 0,0 c 9.389,0 18,2.238 18,5 l 0,0 c 0,1.424 -2.298,2.705 -5.801,3.616 l 0,0 L 33,33.184 c 0,0.135 -0.008,0.263 -0.021,0.373 l 0,0 C 32.982,33.591 33,33.632 33,33.666 l 0,0 c 0,1.805 -6.268,3.267 -14,3.267 l 0,0 c -7.732,0 -14,-1.462 -14,-3.267" id="path34"/>
        </clipPath>


        <clipPath clipPathUnits="userSpaceOnUse" id="clipPath48-soccer">
            <path d="M 1,19 C 1,9.059 9.059,1 19,1 l 0,0 c 9.941,0 18,8.059 18,18 l 0,0 c 0,9.941 -8.059,18 -18,18 l 0,0 C 9.059,37 1,28.941 1,19" id="path50"/>
        </clipPath>

        <clipPath clipPathUnits="userSpaceOnUse" id="clipPath28-baguette">
            <path d="M 24.052,31.33 5.126,12.406 C 1.342,8.62 1.288,4.133 2.856,2.564 l 0,0 C 4.424,0.997 8.912,1.049 12.697,4.835 l 0,0 18.925,18.924 c 3.784,3.785 3.837,8.273 2.269,9.841 l 0,0 c -0.605,0.606 -1.647,0.969 -2.915,0.969 l 0,0 c -2.014,0 -4.602,-0.917 -6.924,-3.239" id="path30"/>
        </clipPath>
    </defs>



  <g
     id="layer1">
    <circle
       style="opacity:1;fill:white;stroke:black;stroke-width:1;stroke-miterlimit:4;stroke-dasharray:none;stroke-opacity:0.1"
       id="path4039-0-9"
       cx="100px"
       cy="100px"
       r="90px" />
    <g
       transform="matrix(-0.16632935,0.78251808,-0.78251808,-0.16632935,109.40149,24.053274)"
       id="g8">
      <g
         transform="matrix(1.25,0,0,-1.25,0,45)"
         id="g10">
        <g
           id="g12">
          <g
             clip-path="url(#clipPath16)"
             id="g14">
            <g
               transform="translate(19,16.5)"
               id="g20">
              <path
                 id="path22"
                 style="fill:#292f33;fill-opacity:1;fill-rule:nonzero;stroke:none"
                 d="m 0,0 c 1,-7.5 -1,-9.5 -1,-9.5 0,0 -2,2 -1,9.5 0.913,6.843 -2.687,9.159 1,9.159 3.688,0 0.088,-2.316 1,-9.159"
                 inkscape:connector-curvature="0" />
            </g>
            <g
               transform="translate(17.5894,25.7407)"
               id="g24">
              <path
                 id="path26"
                 style="fill:#292f33;fill-opacity:1;fill-rule:nonzero;stroke:none"
                 d="m 0,0 c 0.133,-0.242 0.045,-0.546 -0.197,-0.679 -0.242,-0.133 -0.546,-0.045 -0.679,0.197 l -2.651,4.819 c -0.134,0.242 -0.046,0.546 0.196,0.679 0.243,0.133 0.546,0.045 0.68,-0.197 L 0,0 Z"
                 inkscape:connector-curvature="0" />
            </g>
            <g
               transform="translate(18.4111,25.7407)"
               id="g28">
              <path
                 id="path18"
                 style="fill:#292f33;fill-opacity:1;fill-rule:nonzero;stroke:none"
                 d="m 0,0 c -0.133,-0.242 -0.045,-0.546 0.197,-0.679 0.242,-0.133 0.545,-0.045 0.679,0.197 L 3.527,4.337 C 3.66,4.579 3.572,4.883 3.33,5.016 3.088,5.149 2.785,5.061 2.651,4.819 L 0,0 Z"
                 inkscape:connector-curvature="0" />
            </g>
            <g
               transform="translate(18,17)"
               id="g32">
              <path
                 id="path34"
                 style="fill:#292f33;fill-opacity:1;fill-rule:nonzero;stroke:none"
                 d="m 0,0 c -9.962,0.477 -15.645,-0.835 -15,-9 0.727,-9.191 15,0 15,3 l 0,6 z"
                 inkscape:connector-curvature="0" />
            </g>
            <g
               transform="translate(8.1904,5.1025)"
               id="g36">
              <path
                 id="path38"
                 style="fill:#88c9f9;fill-opacity:1;fill-rule:nonzero;stroke:none"
                 d="m 0,0 c -1.744,0.001 -3.217,0.343 -3.65,2.438 -0.491,2.374 0.108,4.769 0.975,5.931 1.779,2.384 6.457,2.521 11.554,2.528 l 0,-5 C 8.879,5.493 8.015,4.081 5.931,2.497 3.874,0.934 1.658,0 0,0 Z"
                 inkscape:connector-curvature="0" />
            </g>
            <g
               transform="translate(5.5151,13.4717)"
               id="g40">
              <path
                 id="path42"
                 style="fill:#bbddf5;fill-opacity:1;fill-rule:nonzero;stroke:none"
                 d="m 0,0 c -0.302,-0.404 -0.516,-0.882 -0.652,-1.426 5.44,0.357 9.955,1.653 12.207,3.406 l 0,0.548 C 6.458,2.521 1.779,2.384 0,0"
                 inkscape:connector-curvature="0" />
            </g>
            <g
               transform="translate(9.3574,7.6035)"
               id="g44">
              <path
                 id="path46"
                 style="fill:#bbddf5;fill-opacity:1;fill-rule:nonzero;stroke:none"
                 d="m 0,0 c 0,-0.978 -0.792,-1.771 -1.77,-1.771 -0.979,0 -1.772,0.793 -1.772,1.771 0,0.979 0.793,1.771 1.772,1.771 C -0.792,1.771 0,0.979 0,0"
                 inkscape:connector-curvature="0" />
            </g>
            <g
               transform="translate(12.3813,7.9922)"
               id="g48">
              <path
                 id="path50"
                 style="fill:#bbddf5;fill-opacity:1;fill-rule:nonzero;stroke:none"
                 d="m 0,0 c 0,-0.718 -0.582,-1.301 -1.3,-1.301 -0.719,0 -1.301,0.583 -1.301,1.301 0,0.719 0.582,1.301 1.301,1.301 C -0.582,1.301 0,0.719 0,0"
                 inkscape:connector-curvature="0" />
            </g>
            <g
               transform="translate(14.5415,9.0332)"
               id="g52">
              <path
                 id="path54"
                 style="fill:#bbddf5;fill-opacity:1;fill-rule:nonzero;stroke:none"
                 d="m 0,0 c 0,-0.575 -0.466,-1.041 -1.042,-1.041 -0.575,0 -1.041,0.466 -1.041,1.041 0,0.575 0.466,1.042 1.041,1.042 C -0.466,1.042 0,0.575 0,0"
                 inkscape:connector-curvature="0" />
            </g>
            <g
               transform="translate(15.9414,10.0752)"
               id="g56">
              <path
                 id="path58"
                 style="fill:#bbddf5;fill-opacity:1;fill-rule:nonzero;stroke:none"
                 d="m 0,0 c 0,-0.387 -0.314,-0.7 -0.7,-0.7 -0.386,0 -0.7,0.313 -0.7,0.7 0,0.387 0.314,0.7 0.7,0.7 C -0.314,0.7 0,0.387 0,0"
                 inkscape:connector-curvature="0" />
            </g>
            <g
               transform="translate(17.974,17)"
               id="g60">
              <path
                 id="path62"
                 style="fill:#292f33;fill-opacity:1;fill-rule:nonzero;stroke:none"
                 d="M 0,0 C 9.962,0.477 15.645,-0.835 15,-9 14.273,-18.191 0,-9 0,-6 l 0,6 z"
                 inkscape:connector-curvature="0" />
            </g>
            <g
               transform="translate(27.7835,5.1025)"
               id="g64">
              <path
                 id="path66"
                 style="fill:#88c9f9;fill-opacity:1;fill-rule:nonzero;stroke:none"
                 d="M 0,0 C 1.744,0.001 3.217,0.343 3.65,2.438 4.141,4.812 3.542,7.207 2.675,8.369 0.896,10.753 -3.782,10.89 -8.879,10.897 l 0,-5 c 0,-0.404 0.864,-1.816 2.948,-3.4 C -3.874,0.934 -1.658,0 -0.001,0 L 0,0 Z"
                 inkscape:connector-curvature="0" />
            </g>
            <g
               transform="translate(30.4588,13.4717)"
               id="g68">
              <path
                 id="path70"
                 style="fill:#bbddf5;fill-opacity:1;fill-rule:nonzero;stroke:none"
                 d="m 0,0 c 0.302,-0.404 0.516,-0.882 0.652,-1.426 -5.44,0.357 -9.955,1.653 -12.207,3.406 l 0,0.548 C -6.458,2.521 -1.779,2.384 0,0"
                 inkscape:connector-curvature="0" />
            </g>
            <g
               transform="translate(26.6166,7.6035)"
               id="g72">
              <path
                 id="path74"
                 style="fill:#bbddf5;fill-opacity:1;fill-rule:nonzero;stroke:none"
                 d="m 0,0 c 0,-0.978 0.792,-1.771 1.77,-1.771 0.979,0 1.772,0.793 1.772,1.771 0,0.979 -0.793,1.771 -1.772,1.771 C 0.792,1.771 0,0.979 0,0"
                 inkscape:connector-curvature="0" />
            </g>
            <g
               transform="translate(23.5927,7.9922)"
               id="g76">
              <path
                 id="path78"
                 style="fill:#bbddf5;fill-opacity:1;fill-rule:nonzero;stroke:none"
                 d="M 0,0 C 0,-0.718 0.582,-1.301 1.3,-1.301 2.019,-1.301 2.601,-0.718 2.601,0 2.601,0.719 2.019,1.301 1.3,1.301 0.582,1.301 0,0.719 0,0"
                 inkscape:connector-curvature="0" />
            </g>
            <g
               transform="translate(21.4325,9.0332)"
               id="g80">
              <path
                 id="path82"
                 style="fill:#bbddf5;fill-opacity:1;fill-rule:nonzero;stroke:none"
                 d="m 0,0 c 0,-0.575 0.466,-1.041 1.042,-1.041 0.575,0 1.042,0.466 1.042,1.041 0,0.575 -0.467,1.042 -1.042,1.042 C 0.466,1.042 0,0.575 0,0"
                 inkscape:connector-curvature="0" />
            </g>
            <g
               transform="translate(20.0326,10.0752)"
               id="g84">
              <path
                 id="path86"
                 style="fill:#bbddf5;fill-opacity:1;fill-rule:nonzero;stroke:none"
                 d="M 0,0 C 0,-0.387 0.313,-0.7 0.7,-0.7 1.086,-0.7 1.4,-0.387 1.4,0 1.4,0.387 1.086,0.7 0.7,0.7 0.313,0.7 0,0.387 0,0"
                 inkscape:connector-curvature="0" />
            </g>
            <g
               transform="translate(18,22)"
               id="g88">
              <path
                 id="path90"
                 style="fill:#292f33;fill-opacity:1;fill-rule:nonzero;stroke:none"
                 d="M 0,0 C -4,7 -16.536,11.336 -17,10 -19,4.25 -14.413,-3.609 -12.545,-5.04 -10.001,-6.988 0,-7 0,-6 l 0,6 z"
                 inkscape:connector-curvature="0" />
            </g>
            <g
               transform="translate(5.3752,19.3847)"
               id="g92">
              <path
                 id="path94"
                 style="fill:#3b88c3;fill-opacity:1;fill-rule:nonzero;stroke:none"
                 d="M 0,0 C -0.834,1.195 -2.146,3.975 -2.405,8.615 0.07,8.481 8.517,7.923 11.685,2.343 l 0,-5.193 C 10.698,-3.161 8.704,-3.06 5.127,-2.663 1.55,-2.266 0.834,-1.194 0,0"
                 inkscape:connector-curvature="0" />
            </g>
            <g
               transform="translate(3.2225,25.6247)"
               id="g96">
              <path
                 id="path98"
                 style="fill:#55acee;fill-opacity:1;fill-rule:nonzero;stroke:none"
                 d="M 0,0 C 0.201,-1.329 0.48,-2.463 0.796,-3.394 8.704,-2.239 13.79,-6.371 13.79,-6.371 13.79,-6.371 10.708,-0.318 0,0"
                 inkscape:connector-curvature="0" />
            </g>
            <g
               transform="translate(16.9136,17.125)"
               id="g100">
              <path
                 id="path102"
                 style="fill:#55acee;fill-opacity:1;fill-rule:nonzero;stroke:none"
                 d="m 0,0 c 0,0 -4.096,4.624 -12.213,3.427 0.238,-0.486 0.471,-0.875 0.675,-1.167 0.084,-0.12 0.167,-0.239 0.251,-0.356 C -5.398,2.955 0,0 0,0"
                 inkscape:connector-curvature="0" />
            </g>
            <g
               transform="translate(17.974,22)"
               id="g104">
              <path
                 id="path106"
                 style="fill:#292f33;fill-opacity:1;fill-rule:nonzero;stroke:none"
                 d="M 0,0 C 4,7 16.536,11.336 17,10 19,4.25 14.413,-3.609 12.545,-5.04 10.001,-6.988 0,-7 0,-6 l 0,6 z"
                 inkscape:connector-curvature="0" />
            </g>
            <g
               transform="translate(30.5988,19.3847)"
               id="g108">
              <path
                 id="path110"
                 style="fill:#3b88c3;fill-opacity:1;fill-rule:nonzero;stroke:none"
                 d="M 0,0 C 0.834,1.195 2.146,3.975 2.405,8.615 -0.07,8.481 -8.517,7.923 -11.685,2.343 l 0,-5.193 c 0.987,-0.311 2.981,-0.21 6.558,0.187 C -1.55,-2.266 -0.834,-1.194 0,0"
                 inkscape:connector-curvature="0" />
            </g>
            <g
               transform="translate(32.7514,25.6247)"
               id="g112">
              <path
                 id="path114"
                 style="fill:#55acee;fill-opacity:1;fill-rule:nonzero;stroke:none"
                 d="m 0,0 c -0.201,-1.329 -0.48,-2.463 -0.796,-3.394 -7.908,1.155 -12.994,-2.977 -12.994,-2.977 0,0 3.082,6.053 13.79,6.371"
                 inkscape:connector-curvature="0" />
            </g>
            <g
               transform="translate(19.0604,17.125)"
               id="g116">
              <path
                 id="path118"
                 style="fill:#55acee;fill-opacity:1;fill-rule:nonzero;stroke:none"
                 d="M 0,0 C 0,0 4.096,4.624 12.213,3.427 11.975,2.941 11.742,2.552 11.538,2.26 11.455,2.14 11.371,2.021 11.287,1.904 5.398,2.955 0,0 0,0"
                 inkscape:connector-curvature="0" />
            </g>
          </g>
        </g>
      </g>
    </g>
    <g
       transform="matrix(0.67920701,0.16934533,-0.16934533,0.67920701,118.4884,129.22317)"
       id="g65">
      <g
         transform="matrix(1.25,0,0,-1.25,0,47.5)"
         id="g67">
        <g
           id="g69">
          <g
             clip-path="url(#clipPath16)"
             id="g71">
            <g
               transform="translate(35.4531,21.4272)"
               id="g73">
              <path
                 id="path75"
                 style="fill:#99aab5;fill-opacity:1;fill-rule:nonzero;stroke:none"
                 d="m 0,0 c -0.864,7.3 -5.729,10.447 -13.93,10.447 -0.39,0 -0.762,-0.017 -1.138,-0.031 -0.013,0.009 -0.023,0.021 -0.036,0.031 -4.694,3.521 -15.258,2.347 -17.604,-1.174 -3.256,-4.883 -1.174,-22.3 0,-24.646 1.173,-2.349 4.694,-3.521 5.867,-2.349 1.174,1.176 0,1.176 -1.173,3.521 -0.85,1.701 -0.466,5.86 0.255,8.471 0.028,-0.168 0.068,-0.322 0.1,-0.486 0.389,-2.871 1.992,-7.412 1.992,-9.744 0,-3.565 2.102,-4.108 4.695,-4.108 2.593,0 4.695,0.543 4.695,4.108 0,0.24 -0.008,0.462 -0.012,0.695 0.757,-0.065 1.535,-0.108 2.359,-0.108 0.497,0 0.977,0.016 1.449,0.04 -0.004,-0.209 -0.013,-0.411 -0.013,-0.627 0,-3.565 2.102,-4.108 4.694,-4.108 2.593,0 4.696,0.543 4.696,4.108 0,1.8 1.192,4.625 2.039,6.982 0.159,0.353 0.291,0.732 0.419,1.117 0.118,-1.308 0.193,-2.707 0.193,-4.207 0,-0.553 0.447,-1 1,-1 0.553,0 1,0.447 1,1 C 1.547,-6.916 0.775,-2.82 0,0"
                 inkscape:connector-curvature="0" />
            </g>
            <g
               transform="translate(20.3496,31.874)"
               id="g77">
              <path
                 id="path79"
                 style="fill:#66757f;fill-opacity:1;fill-rule:nonzero;stroke:none"
                 d="m 0,0 c 0,0 3.65,-5.515 0.65,-10.515 -3,-5 -7.837,-5 -11,-5 -2,0 -1,-2 0,-2 1.414,0 8.395,-1.211 12,6 C 4.65,-5.515 0,0 0,0"
                 inkscape:connector-curvature="0" />
            </g>
            <g
               transform="translate(9,22.8589)"
               id="g81">
              <path
                 id="path83"
                 style="fill:#292f33;fill-opacity:1;fill-rule:nonzero;stroke:none"
                 d="M 0,0 C 0,-0.829 -0.671,-1.5 -1.5,-1.5 -2.329,-1.5 -3,-0.829 -3,0 -3,0.829 -2.329,1.5 -1.5,1.5 -0.671,1.5 0,0.829 0,0"
                 inkscape:connector-curvature="0" />
            </g>
          </g>
        </g>
      </g>
    </g>
    <g
       transform="matrix(0,-0.5,0.5,0,51.496215,160.26367)"
       id="g85">
      <g
         transform="matrix(1.25,0,0,-1.25,0,45)"
         id="g87">
        <g
           id="g89">
          <g
             clip-path="url(#clipPath16)"
             id="g91">
            <g
               transform="translate(33.874,14.2793)"
               id="g93">
              <path
                 id="path95"
                 style="fill:#f4900c;fill-opacity:1;fill-rule:nonzero;stroke:none"
                 d="m 0,0 -6.909,4.226 -6.907,4.228 c -1.526,0.934 -4.001,0.934 -5.527,0 0,0 -5.527,-3.382 -6.908,-4.228 -1.382,-0.845 -0.691,-1.268 -2.072,-2.114 -1.382,-0.844 -2.072,-0.422 -3.454,-1.267 -1.383,-0.845 -1.526,-2.447 0,-3.382 l 6.907,-4.228 6.909,-4.227 c 1.525,-0.935 4.145,-0.848 5.524,0 1.383,0.845 0.693,1.266 2.074,2.114 1.381,0.844 2.071,0.422 3.454,1.266 C -5.526,-6.765 0,-3.385 0,-3.385 1.524,-2.45 1.525,-0.935 0,0"
                 inkscape:connector-curvature="0" />
            </g>
            <g
               transform="translate(35,14.4844)"
               id="g97">
              <path
                 id="path99"
                 style="fill:#f4900c;fill-opacity:1;fill-rule:nonzero;stroke:none"
                 d="M 0,0 -34,0.516 -34,-1.109 0.018,-1.901 0,0 Z"
                 inkscape:connector-curvature="0" />
            </g>
            <g
               transform="translate(35,15.4844)"
               id="g101">
              <path
                 id="path103"
                 style="fill:#f4900c;fill-opacity:1;fill-rule:nonzero;stroke:none"
                 d="M 0,0 -34,0.516 -34,-1.109 0.018,-1.901 0,0 Z"
                 inkscape:connector-curvature="0" />
            </g>
            <g
               transform="translate(33.873,17.2793)"
               id="g105">
              <path
                 id="path107"
                 style="fill:#ffac33;fill-opacity:1;fill-rule:nonzero;stroke:none"
                 d="m 0,0 -6.908,4.226 -6.907,4.228 c -1.526,0.934 -4.001,0.934 -5.527,0 0,0 -5.527,-3.382 -6.908,-4.228 -1.381,-0.845 -0.691,-1.268 -2.072,-2.114 -1.382,-0.844 -2.072,-0.422 -3.454,-1.267 -1.383,-0.845 -1.526,-2.447 0,-3.382 l 6.907,-4.228 6.909,-4.227 c 1.526,-0.935 4.145,-0.848 5.524,0 1.383,0.845 0.693,1.266 2.074,2.114 1.381,0.844 2.071,0.422 3.454,1.266 C -5.525,-6.765 0,-3.385 0,-3.385 1.525,-2.45 1.526,-0.935 0,0"
                 inkscape:connector-curvature="0" />
            </g>
            <g
               transform="translate(32.8496,16.4316)"
               id="g109">
              <path
                 id="path111"
                 style="fill:#ffd983;fill-opacity:1;fill-rule:nonzero;stroke:none"
                 d="m 0,0 -7.072,4.229 -7.071,4.227 c 0,0 -1.506,0.791 -2.828,0 0,0 -5.766,-3.447 -6.963,-4.162 -1.196,-0.716 -1.033,-1.464 -2.23,-2.179 -1.196,-0.715 -2.338,-0.553 -3.535,-1.267 -1.414,-0.847 0,-1.694 0,-1.694 l 7.071,-4.227 7.071,-4.228 c 0,0 1.414,-0.844 2.828,0 1.198,0.717 0.926,1.398 2.122,2.115 1.197,0.716 2.447,0.619 3.644,1.334 1.197,0.713 6.963,4.163 6.963,4.163 0,0 1.321,0.9 0,1.689"
                 inkscape:connector-curvature="0" />
            </g>
            <g
               transform="translate(7.9937,10.4336)"
               id="g113">
              <path
                 id="path115"
                 style="fill:#77b255;fill-opacity:1;fill-rule:nonzero;stroke:none"
                 d="M 0,0 C -0.925,-0.786 0.997,-3.518 3.249,-2.063 3.81,-3.172 7.205,-5.906 9.548,-2.165 10.033,-3.043 15.32,-4.413 16.423,0.079 16.601,0.68 10.395,1.964 7.063,1.944 5.224,1.934 1.745,1.484 0,0"
                 inkscape:connector-curvature="0" />
            </g>
            <g
               transform="translate(3.1626,18.2012)"
               id="g117">
              <path
                 id="path119"
                 style="fill:#77b255;fill-opacity:1;fill-rule:nonzero;stroke:none"
                 d="M 0,0 C -0.784,-0.737 -2.265,-2.22 -0.688,-4.439 0,-5.602 1.428,-6.358 1.618,-5.999 c 0.445,0.846 1.334,1.586 2.669,1.507 -0.017,0.301 -0.649,-2.733 1.577,-3.541 1.092,-0.396 2.265,0.238 3.6,1.638 2.137,2.243 7.582,1.196 9.11,0.609 1.547,-0.596 2.903,-0.985 2.498,-2.576 -0.089,-0.35 0.722,-0.654 1.548,-0.364 1.388,0.487 3.395,1.694 3.75,3.018 0.991,0.173 1.734,-0.102 2.305,-0.858 0.284,-0.373 1.254,-0.463 1.669,0.025 0.733,0.861 1.934,3.505 0.233,5.774 C 28.635,1.823 25.682,3.197 19.05,3.752 12.417,4.306 3.883,3.645 0,0"
                 inkscape:connector-curvature="0" />
            </g>
            <g
               transform="translate(31,10.959)"
               id="g121">
              <path
                 id="path123"
                 style="fill:#ffcc4d;fill-opacity:1;fill-rule:nonzero;stroke:none"
                 d="m 0,0 c 0,-0.529 -0.895,-0.959 -2,-0.959 l -22,0 c -1.104,0 -2,0.43 -2,0.959 l 0,10.551 c 0,0.53 0.896,0.49 2,0.49 l 22,0 c 1.105,0 2,0.04 2,-0.49 L 0,0 Z"
                 inkscape:connector-curvature="0" />
            </g>
            <g
               transform="translate(33.3105,16.0127)"
               id="g125">
              <path
                 id="path127"
                 style="fill:#be1931;fill-opacity:1;fill-rule:nonzero;stroke:none"
                 d="m 0,0 c 0,-2.768 -4.586,-5.013 -10.242,-5.013 -5.658,0 -10.243,2.245 -10.243,5.013 0,2.769 4.585,5.013 10.243,5.013 C -4.586,5.013 0,2.769 0,0"
                 inkscape:connector-curvature="0" />
            </g>
            <g
               transform="translate(33.874,20.2793)"
               id="g129">
              <path
                 id="path131"
                 style="fill:#f4900c;fill-opacity:1;fill-rule:nonzero;stroke:none"
                 d="m 0,0 -6.909,4.226 -6.907,4.228 c -1.526,0.934 -4.001,0.934 -5.527,0 0,0 -5.527,-3.382 -6.908,-4.228 -1.382,-0.845 -0.691,-1.268 -2.072,-2.114 -1.382,-0.844 -2.072,-0.422 -3.454,-1.267 -1.383,-0.845 -1.526,-2.447 0,-3.382 l 6.907,-4.228 6.909,-4.227 c 1.525,-0.935 4.145,-0.848 5.524,0 1.383,0.845 0.693,1.266 2.074,2.114 1.381,0.844 2.071,0.422 3.454,1.266 C -5.526,-6.765 0,-3.385 0,-3.385 1.524,-2.45 1.525,-0.935 0,0"
                 inkscape:connector-curvature="0" />
            </g>
            <g
               transform="translate(35,20.4844)"
               id="g133">
              <path
                 id="path135"
                 style="fill:#f4900c;fill-opacity:1;fill-rule:nonzero;stroke:none"
                 d="M 0,0 -34,0.516 -34,-1.109 0.018,-1.901 0,0 Z"
                 inkscape:connector-curvature="0" />
            </g>
            <g
               transform="translate(35,21.4844)"
               id="g137">
              <path
                 id="path139"
                 style="fill:#f4900c;fill-opacity:1;fill-rule:nonzero;stroke:none"
                 d="M 0,0 -34,0.516 -34,-1.109 0.018,-1.901 0,0 Z"
                 inkscape:connector-curvature="0" />
            </g>
            <g
               transform="translate(33.873,23.2793)"
               id="g141">
              <path
                 id="path143"
                 style="fill:#ffac33;fill-opacity:1;fill-rule:nonzero;stroke:none"
                 d="m 0,0 -6.908,4.226 -6.907,4.228 c -1.526,0.934 -4.001,0.934 -5.527,0 0,0 -5.527,-3.382 -6.908,-4.228 -1.381,-0.845 -0.691,-1.268 -2.072,-2.114 -1.382,-0.844 -2.072,-0.422 -3.454,-1.267 -1.383,-0.845 -1.526,-2.447 0,-3.382 l 6.907,-4.228 6.909,-4.227 c 1.526,-0.935 4.145,-0.848 5.524,0 1.383,0.845 0.693,1.266 2.074,2.114 1.381,0.844 2.071,0.422 3.454,1.266 C -5.525,-6.765 0,-3.385 0,-3.385 1.525,-2.45 1.526,-0.935 0,0"
                 inkscape:connector-curvature="0" />
            </g>
            <g
               transform="translate(32.8496,22.4316)"
               id="g145">
              <path
                 id="path147"
                 style="fill:#ffd983;fill-opacity:1;fill-rule:nonzero;stroke:none"
                 d="m 0,0 -7.072,4.229 -7.071,4.227 c 0,0 -1.506,0.791 -2.828,0 0,0 -5.766,-3.447 -6.963,-4.162 -1.196,-0.716 -1.033,-1.464 -2.23,-2.179 -1.196,-0.716 -2.338,-0.553 -3.535,-1.267 -1.414,-0.847 0,-1.694 0,-1.694 l 7.071,-4.227 7.071,-4.228 c 0,0 1.414,-0.844 2.828,0 1.198,0.717 0.926,1.398 2.122,2.115 1.197,0.716 2.447,0.619 3.644,1.334 1.197,0.713 6.963,4.163 6.963,4.163 0,0 1.321,0.9 0,1.689"
                 inkscape:connector-curvature="0" />
            </g>
          </g>
        </g>
      </g>
    </g>
    <g
       transform="matrix(-0.07886476,-0.56115191,0.56115191,-0.07886476,94.741145,139.10793)"
       id="g149">
      <g
         transform="matrix(1.25,0,0,-1.25,0,47.5)"
         id="g151">
        <g
           id="g153">
          <g
             clip-path="url(#clipPath16)"
             id="g155">
            <g
               transform="translate(35.0596,10.5928)"
               id="g157">
              <path
                 id="path159"
                 style="fill:#292f33;fill-opacity:1;fill-rule:nonzero;stroke:none"
                 d="m 0,0 -3.496,3.496 c -1.93,1.93 -5.06,1.93 -6.989,0 -0.719,-0.718 -1.167,-1.602 -1.352,-2.528 -5.765,1.078 -11.372,6.662 -11.721,11.653 0.948,0.176 1.854,0.628 2.587,1.36 1.93,1.931 1.93,5.061 0,6.991 l -3.495,3.495 c -1.93,1.93 -5.06,1.93 -6.99,0 C -41.941,13.981 -10.485,-17.475 0,-6.989 1.93,-5.06 1.93,-1.93 0,0"
                 inkscape:connector-curvature="0" />
            </g>
          </g>
        </g>
      </g>
    </g>
    <g
       transform="matrix(0.3631924,-0.71280522,0.71280522,0.3631924,15.443212,80.143129)"
       id="g161">
      <g
         transform="matrix(1.25,0,0,-1.25,0,45)"
         id="g163">
        <g
           id="g165">
          <g
             clip-path="url(#clipPath16)"
             id="g167">
            <g
               transform="translate(27.7852,16.0596)"
               id="g169">
              <path
                 id="path171"
                 style="fill:#f4900c;fill-opacity:1;fill-rule:nonzero;stroke:none"
                 d="m 0,0 c -0.311,-0.431 -0.665,-0.812 -1.04,-1.167 -1.274,0.985 -2.839,1.789 -4.745,2.107 -0.341,0.057 -0.654,0.126 -0.95,0.202 1.372,1.525 1.95,3.322 1.95,4.798 0,1.502 -0.314,2.816 -0.861,3.941 0.285,0.036 0.573,0.059 0.861,0.059 1.15,0 4.947,0.159 6,-3 C 2.011,4.553 1.625,2.254 0,0 m -9.785,-4.06 c -2.297,0 -4.476,0.394 -6.324,1.266 0.657,0.372 1.415,0.643 2.324,0.734 1.565,0.158 2.885,0.525 4,1.025 1.115,-0.5 2.435,-0.867 4,-1.025 0.909,-0.091 1.667,-0.362 2.324,-0.734 C -5.31,-3.666 -7.489,-4.06 -9.785,-4.06 M -19.57,0 c -1.625,2.254 -2.011,4.553 -1.215,6.94 1.053,3.159 4.849,3 6,3 0.288,0 0.575,-0.023 0.861,-0.059 -0.548,-1.125 -0.861,-2.439 -0.861,-3.941 0,-1.476 0.578,-3.273 1.95,-4.798 -0.297,-0.076 -0.609,-0.145 -0.95,-0.202 -1.907,-0.318 -3.471,-1.122 -4.745,-2.107 -0.375,0.355 -0.73,0.736 -1.04,1.167 m 9.785,2.733 c -1.422,1.471 -1,3.207 -1,3.207 0,0.708 0.381,1.415 1,2.034 0.619,-0.619 1,-1.326 1,-2.034 0,0 0.422,-1.736 -1,-3.207 m 17,1.207 c 0,8 -6,11 -12,11 -1.738,0 -3.472,-0.371 -5,-1.096 -1.529,0.725 -3.262,1.096 -5,1.096 -6,0 -12,-3 -12,-11 0,-3 1.314,-5.662 3,-8 0.433,-0.601 0.903,-1.146 1.4,-1.647 -0.357,-0.603 -0.617,-1.091 -0.779,-1.353 -0.621,-1 0.379,-2 1.379,-2 0.69,0 1.205,0.618 1.745,1.483 2.807,-1.756 6.277,-2.483 10.255,-2.483 3.977,0 7.448,0.727 10.255,2.483 0.54,-0.865 1.055,-1.483 1.745,-1.483 1,0 2,1 1.379,2 -0.163,0.262 -0.422,0.75 -0.78,1.353 0.497,0.501 0.967,1.046 1.401,1.647 1.685,2.338 3,5 3,8"
                 inkscape:connector-curvature="0" />
            </g>
            <g
               id="g173">
              <g
                 id="g26" />
              <g
                 id="g176">
                <g
                   style="opacity:0.5"
                   id="g34"
                   clip-path="url(#clipPath28)">
                  <g
                     id="g179"
                     transform="translate(11.751,13.2363)">
                    <path
                       id="path181"
                       style="fill:#662113;fill-opacity:1;fill-rule:nonzero;stroke:none"
                       d="M 0,0 C -0.794,-0.448 -1.78,-1.172 -2.376,-2.236 -3.064,-3.465 -3.594,-4.27 -3.96,-4.78 c 0.335,-0.207 0.679,-0.403 1.032,-0.581 0.353,0.692 0.878,1.653 1.552,2.687 0.768,1.179 1.902,1.912 2.489,2.238 C 0.732,-0.305 0.357,-0.166 0,0"
                       inkscape:connector-curvature="0" />
                  </g>
                </g>
              </g>
            </g>
            <g
               id="g183">
              <g
                 id="g42" />
              <g
                 id="g186">
                <g
                   style="opacity:0.5"
                   id="g50"
                   clip-path="url(#clipPath44)">
                  <g
                     id="g189"
                     transform="translate(23.4434,13.6699)">
                    <path
                       id="path191"
                       style="fill:#662113;fill-opacity:1;fill-rule:nonzero;stroke:none"
                       d="m 0,0 -0.005,-0.002 c 0.314,-0.114 0.611,-0.247 0.886,-0.402 -0.191,-0.09 -0.4,-0.154 -0.597,-0.234 0.565,-0.415 1.348,-1.092 1.96,-2.032 0.74,-1.136 1.377,-2.218 1.797,-2.952 0.26,0.14 0.52,0.278 0.77,0.435 0.188,-0.3 0.373,-0.568 0.562,-0.793 0,0 -0.562,0.793 -2.004,3.31 C 1.927,-0.152 0,0 0,0"
                       inkscape:connector-curvature="0" />
                  </g>
                </g>
              </g>
            </g>
            <g
               id="g193">
              <g
                 id="g58" />
              <g
                 id="g196">
                <g
                   style="opacity:0.5"
                   id="g66"
                   clip-path="url(#clipPath60)">
                  <g
                     id="g199"
                     transform="translate(21.0498,17.2012)">
                    <path
                       id="path201"
                       style="fill:#662113;fill-opacity:1;fill-rule:nonzero;stroke:none"
                       d="m 0,0 c 0.05,0.055 0.09,0.112 0.138,0.168 -0.569,-0.444 -1.34,-1.055 -2.024,-1.622 -0.357,-0.297 -0.762,-0.531 -1.161,-0.724 0.401,-0.179 0.839,-0.335 1.296,-0.477 0.523,0.293 1.157,0.698 1.701,1.204 0.561,0.52 0.892,0.92 1.081,1.23 C 1.003,-0.216 0.979,-0.206 0.95,-0.201 0.609,-0.145 0.297,-0.075 0,0"
                       inkscape:connector-curvature="0" />
                  </g>
                </g>
              </g>
            </g>
            <g
               id="g203">
              <g
                 id="g74" />
              <g
                 id="g206">
                <g
                   style="opacity:0.5"
                   id="g82"
                   clip-path="url(#clipPath76)">
                  <g
                     id="g209"
                     transform="translate(18.5835,23.2886)">
                    <path
                       id="path211"
                       style="fill:#662113;fill-opacity:1;fill-rule:nonzero;stroke:none"
                       d="M 0,0 C 0.732,0.612 2.127,1.524 3.951,1.669 3.841,1.994 3.717,2.307 3.575,2.604 2.992,2.514 2.19,2.355 1.417,2.086 0.54,1.781 -0.164,1.172 -0.581,0.743 -0.346,0.507 -0.159,0.256 0,0"
                       inkscape:connector-curvature="0" />
                  </g>
                </g>
              </g>
            </g>
            <g
               transform="translate(13,29)"
               id="g213">
              <path
                 id="path215"
                 style="fill:#ffe8b6;fill-opacity:1;fill-rule:nonzero;stroke:none"
                 d="m 0,0 c 0,-0.552 -0.448,-1 -1,-1 -0.552,0 -1,0.448 -1,1 0,0.552 0.448,1 1,1 0.552,0 1,-0.448 1,-1"
                 inkscape:connector-curvature="0" />
            </g>
            <g
               transform="translate(23,28)"
               id="g217">
              <path
                 id="path219"
                 style="fill:#ffe8b6;fill-opacity:1;fill-rule:nonzero;stroke:none"
                 d="m 0,0 c 0,-0.552 -0.447,-1 -1,-1 -0.553,0 -1,0.448 -1,1 0,0.552 0.447,1 1,1 0.553,0 1,-0.448 1,-1"
                 inkscape:connector-curvature="0" />
            </g>
            <g
               transform="translate(20,27)"
               id="g221">
              <path
                 id="path223"
                 style="fill:#ffe8b6;fill-opacity:1;fill-rule:nonzero;stroke:none"
                 d="m 0,0 c 0,-0.552 -0.447,-1 -1,-1 -0.553,0 -1,0.448 -1,1 0,0.552 0.447,1 1,1 0.553,0 1,-0.448 1,-1"
                 inkscape:connector-curvature="0" />
            </g>
            <g
               transform="translate(4,22)"
               id="g225">
              <path
                 id="path227"
                 style="fill:#ffe8b6;fill-opacity:1;fill-rule:nonzero;stroke:none"
                 d="m 0,0 c 0,-0.553 -0.447,-1 -1,-1 -0.553,0 -1,0.447 -1,1 0,0.553 0.447,1 1,1 0.553,0 1,-0.447 1,-1"
                 inkscape:connector-curvature="0" />
            </g>
            <g
               transform="translate(7,25)"
               id="g229">
              <path
                 id="path231"
                 style="fill:#ffe8b6;fill-opacity:1;fill-rule:nonzero;stroke:none"
                 d="m 0,0 c 0,-0.553 -0.447,-1 -1,-1 -0.553,0 -1,0.447 -1,1 0,0.553 0.447,1 1,1 0.553,0 1,-0.447 1,-1"
                 inkscape:connector-curvature="0" />
            </g>
            <g
               transform="translate(32,19)"
               id="g233">
              <path
                 id="path235"
                 style="fill:#ffe8b6;fill-opacity:1;fill-rule:nonzero;stroke:none"
                 d="m 0,0 c 0,-0.553 -0.447,-1 -1,-1 -0.553,0 -1,0.447 -1,1 0,0.553 0.447,1 1,1 0.553,0 1,-0.447 1,-1"
                 inkscape:connector-curvature="0" />
            </g>
            <g
               transform="translate(32,27)"
               id="g237">
              <path
                 id="path239"
                 style="fill:#ffe8b6;fill-opacity:1;fill-rule:nonzero;stroke:none"
                 d="m 0,0 c 0,-0.553 -0.447,-1 -1,-1 -0.553,0 -1,0.447 -1,1 0,0.553 0.447,1 1,1 0.553,0 1,-0.447 1,-1"
                 inkscape:connector-curvature="0" />
            </g>
            <g
               transform="translate(15,9)"
               id="g241">
              <path
                 id="path243"
                 style="fill:#ffe8b6;fill-opacity:1;fill-rule:nonzero;stroke:none"
                 d="m 0,0 c 0,-0.553 -0.447,-1 -1,-1 -0.553,0 -1,0.447 -1,1 0,0.553 0.447,1 1,1 0.553,0 1,-0.447 1,-1"
                 inkscape:connector-curvature="0" />
            </g>
            <g
               transform="translate(22,10)"
               id="g120">
              <path
                 id="path122"
                 style="fill:#ffe8b6;fill-opacity:1;fill-rule:nonzero;stroke:none"
                 d="m 0,0 c 0,-0.553 -0.447,-1 -1,-1 -0.553,0 -1,0.447 -1,1 0,0.553 0.447,1 1,1 0.553,0 1,-0.447 1,-1"
                 inkscape:connector-curvature="0" />
            </g>
            <g
               transform="translate(26,9)"
               id="g124">
              <path
                 id="path126"
                 style="fill:#ffe8b6;fill-opacity:1;fill-rule:nonzero;stroke:none"
                 d="m 0,0 c 0,-0.553 -0.447,-1 -1,-1 -0.553,0 -1,0.447 -1,1 0,0.553 0.447,1 1,1 0.553,0 1,-0.447 1,-1"
                 inkscape:connector-curvature="0" />
            </g>
            <g
               transform="translate(8,14)"
               id="g128">
              <path
                 id="path130"
                 style="fill:#ffe8b6;fill-opacity:1;fill-rule:nonzero;stroke:none"
                 d="m 0,0 c 0,-0.553 -0.447,-1 -1,-1 -0.553,0 -1,0.447 -1,1 0,0.553 0.447,1 1,1 0.553,0 1,-0.447 1,-1"
                 inkscape:connector-curvature="0" />
            </g>
          </g>
        </g>
      </g>
    </g>
    <g
       transform="matrix(0.82219091,0.36606298,-0.36606298,0.82219091,83.365697,51.650351)"
       id="g251">
      <g
         transform="matrix(1.25,0,0,-1.25,0,47.5)"
         id="g253">
        <g
           id="g255">
          <g
             clip-path="url(#clipPath16)"
             id="g257">
            <g
               transform="translate(37,12)"
               id="g259">
              <path
                 id="path261"
                 style="fill:#292f33;fill-opacity:1;fill-rule:nonzero;stroke:none"
                 d="m 0,0 c 0,0 0,-4 -4,-4 l -28,0 c 0,0 -4,0 -4,4 l 0,15 c 0,4 4,4 4,4 l 28,0 c 0,0 4,0 4,-4 L 0,0 Z"
                 inkscape:connector-curvature="0" />
            </g>
            <g
               transform="translate(5,25)"
               id="g263">
              <path
                 id="path265"
                 style="fill:#ccd6dd;fill-opacity:1;fill-rule:nonzero;stroke:none"
                 d="m 0,0 6,0 c 0,0 1,0 1,-1 l 0,-8 c 0,0 0,-1 -1,-1 l -6,0 c -1,0 -2,2 -2,5 0,3 1,5 2,5"
                 inkscape:connector-curvature="0" />
            </g>
          </g>
        </g>
        <g
           id="g267">
          <g
             clip-path="url(#clipPath32)"
             id="g30">
            <g
               transform="translate(19,20)"
               id="g270">
              <path
                 id="path272"
                 style="fill:#000000;fill-opacity:1;fill-rule:nonzero;stroke:none"
                 d="m 0,0 c 0,-3.865 -3.134,-7 -7,-7 -3.866,0 -7,3.135 -7,7 0,3.866 3.134,7 7,7 3.866,0 7,-3.134 7,-7"
                 inkscape:connector-curvature="0" />
            </g>
            <g
               transform="translate(15,20)"
               id="g274">
              <path
                 id="path276"
                 style="fill:#66757f;fill-opacity:1;fill-rule:nonzero;stroke:none"
                 d="m 0,0 c 0,-1.657 -1.343,-3 -3,-3 -1.657,0 -3,1.343 -3,3 0,1.657 1.343,3 3,3 1.657,0 3,-1.343 3,-3"
                 inkscape:connector-curvature="0" />
            </g>
          </g>
        </g>
        <g
           id="g278">
          <g
             clip-path="url(#clipPath48)"
             id="g46">
            <g
               transform="translate(33,25)"
               id="g281">
              <path
                 id="path283"
                 style="fill:#ccd6dd;fill-opacity:1;fill-rule:nonzero;stroke:none"
                 d="m 0,0 -6,0 c 0,0 -1,0 -1,-1 l 0,-8 c 0,0 0,-1 1,-1 l 6,0 c 1,0 2,2 2,5 0,3 -1,5 -2,5"
                 inkscape:connector-curvature="0" />
            </g>
          </g>
        </g>
        <g
           id="g285">
          <g
             clip-path="url(#clipPath60)"
             id="g287">
            <g
               transform="translate(33,20)"
               id="g289">
              <path
                 id="path291"
                 style="fill:#000000;fill-opacity:1;fill-rule:nonzero;stroke:none"
                 d="m 0,0 c 0,-3.867 -3.133,-7 -7,-7 -3.867,0 -7,3.133 -7,7 0,3.865 3.133,7 7,7 3.867,0 7,-3.135 7,-7"
                 inkscape:connector-curvature="0" />
            </g>
            <g
               transform="translate(29,20)"
               id="g293">
              <path
                 id="path295"
                 style="fill:#66757f;fill-opacity:1;fill-rule:nonzero;stroke:none"
                 d="m 0,0 c 0,-1.657 -1.344,-3 -3,-3 -1.656,0 -3,1.343 -3,3 0,1.657 1.344,3 3,3 1.656,0 3,-1.343 3,-3"
                 inkscape:connector-curvature="0" />
            </g>
          </g>
        </g>
        <g
           id="g297">
          <g
             clip-path="url(#clipPath76)"
             id="g299">
            <g
               transform="translate(14,23)"
               id="g301">
              <path
                 id="path303"
                 style="fill:#88c9f9;fill-opacity:1;fill-rule:nonzero;stroke:none"
                 d="m 0,0 c 0,0 0,1 1,1 l 8,0 c 0,0 1,0 1,-1 l 0,-6 c 0,0 0,-1 -1,-1 l -8,0 c 0,0 -1,0 -1,1 l 0,6 z"
                 inkscape:connector-curvature="0" />
            </g>
            <g
               transform="translate(35,11)"
               id="g305">
              <path
                 id="path307"
                 style="fill:#000000;fill-opacity:1;fill-rule:nonzero;stroke:none"
                 d="m 0,0 c 0,-0.553 -0.447,-1 -1,-1 l -30,0 c -0.552,0 -1,0.447 -1,1 0,0.553 0.448,1 1,1 L -1,1 C -0.447,1 0,0.553 0,0"
                 inkscape:connector-curvature="0" />
            </g>
          </g>
        </g>
      </g>
    </g>
    <g
       transform="matrix(-0.17364818,-0.98480775,0.98480775,-0.17364818,132.79476,143.86738)"
       id="g309">
      <g
         transform="matrix(1.25,0,0,-1.25,0,47.5)"
         id="g311">
        <g
           id="g313">
          <g
             clip-path="url(#clipPath16)"
             id="g315">
            <g
               transform="translate(36,19)"
               id="g317">
              <path
                 id="path319"
                 style="fill:#ffcc4d;fill-opacity:1;fill-rule:nonzero;stroke:none"
                 d="m 0,0 c 0,-9.389 -7.611,-17 -17,-17 -9.388,0 -17,7.611 -17,17 0,9.388 7.612,17 17,17 C -7.611,17 0,9.388 0,0"
                 inkscape:connector-curvature="0" />
            </g>
            <g
               transform="translate(29.457,19.2031)"
               id="g321">
              <path
                 id="path323"
                 style="fill:#664500;fill-opacity:1;fill-rule:nonzero;stroke:none"
                 d="m 0,0 c -0.059,0.135 -1.499,3.297 -4.457,3.297 -2.957,0 -4.397,-3.162 -4.457,-3.297 -0.092,-0.207 -0.032,-0.449 0.144,-0.591 0.175,-0.142 0.426,-0.147 0.611,-0.014 0.012,0.009 1.262,0.902 3.702,0.902 2.426,0 3.674,-0.881 3.702,-0.901 0.088,-0.066 0.194,-0.099 0.298,-0.099 0.11,0 0.221,0.037 0.312,0.109 C 0.032,-0.452 0.093,-0.208 0,0"
                 inkscape:connector-curvature="0" />
            </g>
            <g
               transform="translate(17.457,19.2031)"
               id="g325">
              <path
                 id="path327"
                 style="fill:#664500;fill-opacity:1;fill-rule:nonzero;stroke:none"
                 d="m 0,0 c -0.06,0.135 -1.499,3.297 -4.457,3.297 -2.957,0 -4.397,-3.162 -4.457,-3.297 -0.092,-0.207 -0.032,-0.449 0.144,-0.591 0.176,-0.142 0.427,-0.147 0.61,-0.014 0.013,0.009 1.262,0.902 3.703,0.902 2.426,0 3.674,-0.881 3.702,-0.901 0.088,-0.066 0.194,-0.099 0.298,-0.099 0.11,0 0.221,0.037 0.312,0.109 C 0.033,-0.452 0.092,-0.208 0,0"
                 inkscape:connector-curvature="0" />
            </g>
            <g
               transform="translate(19,15)"
               id="g329">
              <path
                 id="path331"
                 style="fill:#664500;fill-opacity:1;fill-rule:nonzero;stroke:none"
                 d="m 0,0 c -3.623,0 -6.027,0.422 -9,1 -0.679,0.131 -2,0 -2,-2 0,-4 4.595,-9 11,-9 6.404,0 11,5 11,9 C 11,1 9.679,1.132 9,1 6.027,0.422 3.623,0 0,0"
                 inkscape:connector-curvature="0" />
            </g>
            <g
               transform="translate(10,14)"
               id="g333">
              <path
                 id="path335"
                 style="fill:#ffffff;fill-opacity:1;fill-rule:nonzero;stroke:none"
                 d="m 0,0 c 0,0 3,-1 9,-1 6,0 9,1 9,1 0,0 -2,-4 -9,-4 -7,0 -9,4 -9,4"
                 inkscape:connector-curvature="0" />
            </g>
            <g
               transform="translate(36,26)"
               id="g337">
              <path
                 id="path339"
                 style="fill:#5dadec;fill-opacity:1;fill-rule:nonzero;stroke:none"
                 d="m 0,0 c 0,-2.762 -2.238,-5 -5,-5 -2.762,0 -5,2.238 -5,5 0,2.762 4,10 5,10 1,0 5,-7.238 5,-10"
                 inkscape:connector-curvature="0" />
            </g>
          </g>
        </g>
      </g>
    </g>
    <g
       transform="matrix(0.35267115,0.4854102,-0.4854102,0.35267115,81.809014,92.321094)"
       id="g341">
      <g
         transform="matrix(1.25,0,0,-1.25,0,45)"
         id="g343">
        <g
           id="g345">
          <g
             clip-path="url(#clipPath16)"
             id="g347">
            <g
               transform="translate(13.5,12.5109)"
               id="g349">
              <path
                 id="path351"
                 style="fill:#662113;fill-opacity:1;fill-rule:nonzero;stroke:none"
                 d="M 0,0 C 0,0 -1.103,-1.377 -0.737,-3.268 -0.512,-4.433 0.577,-5.635 2.038,-5.86 2.526,-5.936 2.764,-6.888 2.629,-7.588 2.476,-8.38 1.93,-9.49 1.63,-10.053 1.329,-10.617 0.74,-10.615 0.015,-11.266 -0.49,-11.72 -0.662,-12.511 0.202,-12.511 l 3.821,0 c 0.766,0 1.255,0.469 1.418,1.241 0.226,1.071 1.094,5.148 0.846,5.936 C 6.11,-4.77 5.51,-4.32 5.123,-3.231 4.836,-2.423 5.5,-0.263 5.5,-0.263 L 0,0 Z"
                 inkscape:connector-curvature="0" />
            </g>
            <g
               transform="translate(2.5397,13.1182)"
               id="g353">
              <path
                 id="path355"
                 style="fill:#662113;fill-opacity:1;fill-rule:nonzero;stroke:none"
                 d="m 0,0 c 0,0 0.797,0.724 1.344,0.937 0.547,0.214 2.554,0.058 3.065,0.165 0.511,0.106 1.363,0.97 1.363,0.97 0,0 2.144,-0.835 2.166,-1.04 0.023,-0.206 -1.439,-1.618 -1.76,-1.987 -0.321,-0.368 -2.316,0.537 -2.91,0.537 -0.594,0 -1.842,-0.534 -2.282,-0.783 -0.439,-0.249 -0.51,0.131 -0.261,0.404 0,0 -0.401,-0.49 -0.539,-0.31 -0.138,0.18 0.231,0.572 0.231,0.572 0,0 -0.345,-0.439 -0.535,-0.297 C -0.308,-0.689 -0.312,-0.376 0,0"
                 inkscape:connector-curvature="0" />
            </g>
            <g
               transform="translate(14.4155,29.3028)"
               id="g357">
              <path
                 id="path359"
                 style="fill:#662113;fill-opacity:1;fill-rule:nonzero;stroke:none"
                 d="m 0,0 c -0.233,-0.62 -0.831,-1.637 0.355,-1.72 1.185,-0.083 0.021,-1.248 -1.031,-1.323 -1.052,-0.075 -4.471,1.39 -4.095,2.254 0.376,0.864 1.88,1.803 3.044,1.578 C -0.563,0.563 0,0 0,0"
                 inkscape:connector-curvature="0" />
            </g>
            <g
               transform="translate(20.8125,30.5469)"
               id="g361">
              <path
                 id="path363"
                 style="fill:#f4900c;fill-opacity:1;fill-rule:nonzero;stroke:none"
                 d="m 0,0 c -0.078,-0.578 -0.234,-1 -0.344,-0.984 -0.109,0.015 -0.375,1.062 -0.375,1.062 0,0 -0.203,-1.156 -0.343,-1.14 C -1.203,-1.047 -1.344,0 -1.344,0 c 0,0 -0.234,-1.063 -0.39,-1.063 C -1.891,-1.062 -2.094,0 -2.094,0 c 0,0 -0.17,-1.052 -0.295,-1.067 -0.125,-0.016 -0.502,0.959 -0.502,0.959 0,0 -0.218,-0.986 -0.328,-0.986 -0.109,0 -0.422,0.986 -0.422,0.986 0,0 -0.187,-0.97 -0.281,-0.97 -0.094,0 -0.437,0.97 -0.437,0.97 0,0 -0.139,-1.04 -0.235,-1.064 -0.256,-0.062 -0.72,0.891 -0.72,0.891 0,0 0.218,-1.061 0.08,-1.079 -0.235,-0.032 -0.985,0.735 -0.985,0.735 0,0 0.953,0.953 1.719,1.109 0.766,0.157 4.016,0.782 4.391,0.641 C 0.266,0.984 0,0 0,0"
                 inkscape:connector-curvature="0" />
            </g>
            <g
               transform="translate(20.1757,27.8055)"
               id="g365">
              <path
                 id="path367"
                 style="fill:#f4900c;fill-opacity:1;fill-rule:nonzero;stroke:none"
                 d="M 0,0 C -0.137,0.567 -0.336,0.97 -0.444,0.944 -0.551,0.917 -0.575,-0.06 -0.575,-0.06 c 0,0 -0.453,1.037 -0.592,1.007 -0.138,-0.03 -0.061,-1.074 -0.061,-1.074 0,0 -0.452,1.021 -0.607,1.005 C -1.99,0.862 -1.927,-0.2 -1.927,-0.2 c 0,0 -0.522,1.093 -0.648,1.095 -0.126,0.003 -0.141,-1.067 -0.141,-1.067 0,0 -0.387,1.013 -0.496,1.001 -0.109,-0.011 -0.231,-1.108 -0.231,-1.108 0,0 -0.289,0.976 -0.383,0.966 -0.093,-0.01 -0.256,-1.016 -0.256,-1.016 0,0 -0.294,0.865 -0.39,0.886 -0.097,0.021 -0.221,-0.903 -0.221,-0.903 0,0 -0.289,0.683 -0.42,0.732 -0.131,0.049 -0.216,-0.879 -0.216,-0.879 0,0 0.125,-0.377 0.903,-0.453 0.778,-0.077 4.075,-0.363 4.433,-0.184 C 0.366,-0.952 0,0 0,0"
                 inkscape:connector-curvature="0" />
            </g>
            <g
               transform="translate(11.0346,28.5139)"
               id="g369">
              <path
                 id="path371"
                 style="fill:#ab7e59;fill-opacity:1;fill-rule:nonzero;stroke:none"
                 d="M 0,0 C 0.114,0.683 2.141,-0.338 2.554,-0.225 2.968,-0.113 4.62,1.54 5.071,1.578 5.522,1.615 9.542,1.69 9.992,1.916 10.443,2.141 10.18,3.907 9.767,4.395 9.354,4.884 7.889,5.973 6.161,6.161 4.433,6.349 3.231,6.386 2.667,6.687 2.104,6.987 0.864,7.1 0,6.687 -0.864,6.273 -3.944,5.785 -5.222,4.508 -6.499,3.231 -7.964,1.54 -8.302,-1.202 c -0.338,-2.742 0.516,-4.573 1.052,-5.582 0.393,-0.742 1.502,-3.509 1.765,-4.598 0.263,-1.09 1.846,-4.978 4.934,-5.88 3.089,-0.901 5.359,-2.648 8.177,-3.099 3.208,-0.513 9.091,0.188 12.096,2.067 3.005,1.878 4.47,3.794 4.47,6.31 0,2.517 -1.615,5.26 -3.869,5.335 -2.254,0.075 -0.789,-0.676 -0.113,-0.827 0.676,-0.15 1.991,-1.765 1.691,-3.193 -0.301,-1.427 -0.902,-2.517 -2.517,-2.554 -1.615,-0.038 -3.306,1.765 -4.208,2.968 -0.901,1.202 -4.958,3.339 -6.874,3.454 -1.916,0.114 -5.898,0.114 -6.386,1.316 -0.489,1.202 -0.376,1.804 -0.038,1.954 0.338,0.15 2.217,0.563 3.531,0.601 1.315,0.037 3.644,0.375 3.945,0.826 0.3,0.451 0.225,1.39 -0.113,1.428 -0.338,0.037 -2.442,-0.188 -3.043,-0.188 -0.601,0 -0.939,0.488 -1.578,0.301 C 3.982,-0.751 2.817,-1.465 2.329,-1.39 1.841,-1.315 -0.038,-0.225 0,0"
                 inkscape:connector-curvature="0" />
            </g>
            <g
               transform="translate(26.9516,9.7475)"
               id="g373">
              <path
                 id="path375"
                 style="fill:#8b5e3c;fill-opacity:1;fill-rule:nonzero;stroke:none"
                 d="m 0,0 c -2.693,-0.388 -7.846,0.466 -9.358,0.982 -1.512,0.516 -4.615,1.318 -6.801,1.781 -2.186,0.464 -3.884,2.299 -5.084,4.099 0.519,-1.484 2.069,-4.567 4.775,-5.357 3.089,-0.902 5.359,-2.648 8.177,-3.099 C -5.083,-2.107 0.8,-1.406 3.805,0.472 4.896,1.154 5.777,1.841 6.465,2.559 5.518,1.851 2.68,0.386 0,0"
                 inkscape:connector-curvature="0" />
            </g>
            <g
               transform="translate(12.8164,34.4318)"
               id="g377">
              <path
                 id="path379"
                 style="fill:#8b5e3c;fill-opacity:1;fill-rule:nonzero;stroke:none"
                 d="m 0,0 c 1.336,-0.208 0.203,-0.909 2.683,-0.904 0,0 -1.873,-1 -2.624,-1 -1.297,0 -1.568,0.644 -1.567,1.182 C -1.508,-0.238 -0.7,0.109 0,0"
                 inkscape:connector-curvature="0" />
            </g>
            <g
               transform="translate(13,33.5)"
               id="g381">
              <path
                 id="path383"
                 style="fill:#292f33;fill-opacity:1;fill-rule:nonzero;stroke:none"
                 d="M 0,0 C 0,-0.276 -0.224,-0.5 -0.5,-0.5 -0.776,-0.5 -1,-0.276 -1,0 -1,0.276 -0.776,0.5 -0.5,0.5 -0.224,0.5 0,0.276 0,0"
                 inkscape:connector-curvature="0" />
            </g>
            <g
               transform="translate(17.1319,11.2337)"
               id="g385">
              <path
                 id="path387"
                 style="fill:#ab7e59;fill-opacity:1;fill-rule:nonzero;stroke:none"
                 d="M 0,0 C 0,0 0.424,-1.503 1.796,-2.855 3.168,-4.207 5.917,-4.508 6.406,-4.583 6.894,-4.658 7.423,-4.846 7.648,-5.522 7.874,-6.198 8.299,-8.213 7.998,-8.776 7.697,-9.34 6.45,-9.654 6.111,-10.293 5.921,-10.65 5.428,-11.234 6.292,-11.234 l 4.576,0 c 0.766,0 0.954,0.603 0.954,1.392 0,0.789 0.263,2.066 -0.226,3.456 -0.488,1.39 -0.676,3.493 -1.502,3.719 -0.827,0.225 -2.142,2.479 -2.142,2.479 L 0,0 Z"
                 inkscape:connector-curvature="0" />
            </g>
            <g
               transform="translate(4.3548,9.2523)"
               id="g389">
              <path
                 id="path391"
                 style="fill:#ab7e59;fill-opacity:1;fill-rule:nonzero;stroke:none"
                 d="m 0,0 c 0,0 0.559,0.996 1.037,1.395 0.478,0.398 2.55,0.916 3.028,1.195 0.478,0.279 1.046,1.434 1.046,1.434 0,0 2.437,-0.119 2.528,-0.319 C 7.731,3.506 6.735,1.594 6.536,1.116 6.336,0.637 4.025,0.876 3.428,0.677 2.83,0.478 1.754,-0.478 1.396,-0.877 1.037,-1.275 0.838,-0.916 0.997,-0.558 c 0,0 -0.239,-0.628 -0.438,-0.493 -0.199,0.135 0.04,0.653 0.04,0.653 0,0 -0.199,-0.558 -0.438,-0.479 C -0.078,-0.797 -0.188,-0.483 0,0"
                 inkscape:connector-curvature="0" />
            </g>
            <g
               transform="translate(15.7104,20.337)"
               id="g393">
              <path
                 id="path395"
                 style="fill:#8b5e3c;fill-opacity:1;fill-rule:nonzero;stroke:none"
                 d="m 0,0 c 0,-0.318 -0.258,-0.576 -0.576,-0.576 -0.318,0 -0.576,0.258 -0.576,0.576 0,0.318 0.258,0.576 0.576,0.576 C -0.258,0.576 0,0.318 0,0"
                 inkscape:connector-curvature="0" />
            </g>
            <g
               transform="translate(18.7712,19.0734)"
               id="g397">
              <path
                 id="path399"
                 style="fill:#8b5e3c;fill-opacity:1;fill-rule:nonzero;stroke:none"
                 d="m 0,0 c 0,-0.453 -0.367,-0.82 -0.82,-0.82 -0.452,0 -0.819,0.367 -0.819,0.82 0,0.453 0.367,0.82 0.819,0.82 C -0.367,0.82 0,0.453 0,0"
                 inkscape:connector-curvature="0" />
            </g>
            <g
               transform="translate(17.1319,20.7451)"
               id="g401">
              <path
                 id="path403"
                 style="fill:#8b5e3c;fill-opacity:1;fill-rule:nonzero;stroke:none"
                 d="m 0,0 c 0,-0.241 -0.195,-0.436 -0.436,-0.436 -0.241,0 -0.436,0.195 -0.436,0.436 0,0.241 0.195,0.436 0.436,0.436 C -0.195,0.436 0,0.241 0,0"
                 inkscape:connector-curvature="0" />
            </g>
            <g
               transform="translate(20.0868,20.5054)"
               id="g405">
              <path
                 id="path407"
                 style="fill:#8b5e3c;fill-opacity:1;fill-rule:nonzero;stroke:none"
                 d="m 0,0 c 0,-0.228 -0.185,-0.412 -0.412,-0.412 -0.228,0 -0.413,0.184 -0.413,0.412 0,0.228 0.185,0.412 0.413,0.412 C -0.185,0.412 0,0.228 0,0"
                 inkscape:connector-curvature="0" />
            </g>
            <g
               transform="translate(22.6996,19.3307)"
               id="g409">
              <path
                 id="path411"
                 style="fill:#8b5e3c;fill-opacity:1;fill-rule:nonzero;stroke:none"
                 d="m 0,0 c 0,-0.421 -0.341,-0.762 -0.762,-0.762 -0.421,0 -0.763,0.341 -0.763,0.762 0,0.421 0.342,0.762 0.763,0.762 C -0.341,0.762 0,0.421 0,0"
                 inkscape:connector-curvature="0" />
            </g>
            <g
               transform="translate(25.5952,15.6776)"
               id="g413">
              <path
                 id="path415"
                 style="fill:#8b5e3c;fill-opacity:1;fill-rule:nonzero;stroke:none"
                 d="m 0,0 c 0,-0.27 -0.218,-0.488 -0.488,-0.488 -0.269,0 -0.488,0.218 -0.488,0.488 0,0.27 0.219,0.488 0.488,0.488 C -0.218,0.488 0,0.27 0,0"
                 inkscape:connector-curvature="0" />
            </g>
            <g
               transform="translate(21.0626,17.7658)"
               id="g417">
              <path
                 id="path419"
                 style="fill:#8b5e3c;fill-opacity:1;fill-rule:nonzero;stroke:none"
                 d="m 0,0 c 0,-0.27 -0.218,-0.488 -0.488,-0.488 -0.269,0 -0.488,0.218 -0.488,0.488 0,0.269 0.219,0.488 0.488,0.488 C -0.218,0.488 0,0.269 0,0"
                 inkscape:connector-curvature="0" />
            </g>
            <g
               transform="translate(25.4781,17.7658)"
               id="g421">
              <path
                 id="path423"
                 style="fill:#8b5e3c;fill-opacity:1;fill-rule:nonzero;stroke:none"
                 d="m 0,0 c 0,-0.27 -0.218,-0.488 -0.488,-0.488 -0.269,0 -0.488,0.218 -0.488,0.488 0,0.269 0.219,0.488 0.488,0.488 C -0.218,0.488 0,0.269 0,0"
                 inkscape:connector-curvature="0" />
            </g>
            <g
               transform="translate(23.9852,18.0195)"
               id="g425">
              <path
                 id="path427"
                 style="fill:#8b5e3c;fill-opacity:1;fill-rule:nonzero;stroke:none"
                 d="m 0,0 c 0,-0.399 -0.323,-0.722 -0.722,-0.722 -0.399,0 -0.722,0.323 -0.722,0.722 0,0.399 0.323,0.722 0.722,0.722 C -0.323,0.722 0,0.399 0,0"
                 inkscape:connector-curvature="0" />
            </g>
          </g>
        </g>
      </g>
    </g>
    <g
       transform="matrix(0.63092331,-0.05519864,0.05519864,0.63092331,78.54558,144.20462)"
       id="g429">
      <g
         transform="matrix(1.25,0,0,-1.25,0,47.5)"
         id="g431">
        <g
           id="g433">
          <g
             clip-path="url(#clipPath16)"
             id="g435">
            <g
               transform="translate(36.0664,1.9336)"
               id="g437">
              <path
                 id="path439"
                 style="fill:#ffac33;fill-opacity:1;fill-rule:nonzero;stroke:none"
                 d="m 0,0 c -0.766,-0.766 -2.006,-0.766 -2.771,0 l -20.097,20.096 c -0.766,0.766 -0.766,2.008 0,2.773 0.765,0.765 2.007,0.765 2.772,0 L 0,2.771 C 0.766,2.008 0.766,0.766 0,0"
                 inkscape:connector-curvature="0" />
            </g>
            <g
               transform="translate(28.7998,22.9199)"
               id="g441">
              <path
                 id="path443"
                 style="fill:#dd2e44;fill-opacity:1;fill-rule:nonzero;stroke:none"
                 d="m 0,0 c 0,-7.576 -6.142,-13.72 -13.72,-13.72 -7.577,0 -13.719,6.144 -13.719,13.72 0,7.578 6.142,13.72 13.719,13.72 C -6.142,13.72 0,7.578 0,0"
                 inkscape:connector-curvature="0" />
            </g>
            <g
               transform="translate(17.0859,22.1724)"
               id="g445">
              <path
                 id="path447"
                 style="fill:#f4900c;fill-opacity:1;fill-rule:nonzero;stroke:none"
                 d="m 0,0 c 0.161,0.086 0.288,0.211 0.376,0.356 -0.071,-0.565 -0.406,-1.09 -0.946,-1.378 -0.297,-0.158 -0.637,-0.19 -0.957,-0.093 -0.321,0.098 -0.585,0.314 -0.743,0.611 -0.209,0.393 -0.06,0.884 0.333,1.094 0.067,0.036 0.14,0.053 0.212,0.053 0.161,0 0.318,-0.087 0.399,-0.239 C -1.071,-0.074 -0.478,-0.256 0,0 m 1.325,-12.548 c -1.459,-0.092 -2.938,0.065 -4.379,0.503 -3.155,0.961 -5.748,3.092 -7.3,6.003 -1.217,2.282 -1.473,4.901 -0.719,7.375 0.752,2.474 2.424,4.508 4.706,5.724 1.781,0.95 3.822,1.15 5.752,0.561 C 1.314,7.032 2.899,5.728 3.848,3.948 4.582,2.571 4.736,0.99 4.281,-0.503 3.827,-1.997 2.819,-3.224 1.441,-3.959 0.385,-4.521 -0.826,-4.641 -1.971,-4.292 c -1.144,0.348 -2.085,1.123 -2.648,2.178 -0.879,1.648 -0.253,3.704 1.395,4.583 0.593,0.317 1.272,0.384 1.915,0.187 0.231,-0.07 0.447,-0.171 0.644,-0.3 -0.672,0.328 -1.486,0.34 -2.194,-0.037 -1.347,-0.718 -1.858,-2.399 -1.14,-3.746 0.404,-0.758 1.079,-1.313 1.901,-1.564 0.822,-0.25 1.692,-0.165 2.45,0.24 1.836,0.98 2.534,3.271 1.555,5.107 -0.562,1.055 -1.502,1.828 -2.645,2.175 -1.143,0.348 -2.353,0.23 -3.408,-0.332 -2.602,-1.388 -3.59,-4.633 -2.202,-7.236 0.809,-1.517 2.161,-2.629 3.806,-3.13 1.646,-0.5 3.388,-0.33 4.906,0.479 1.839,0.98 3.187,2.62 3.794,4.614 0.606,1.994 0.4,4.105 -0.58,5.945 -1.195,2.241 -3.193,3.883 -5.622,4.623 -2.432,0.74 -5.004,0.489 -7.245,-0.707 -2.744,-1.464 -4.754,-3.908 -5.66,-6.883 -0.905,-2.976 -0.598,-6.125 0.866,-8.869 0.917,-1.721 2.151,-3.202 3.623,-4.392 1.923,-1.028 4.12,-1.615 6.454,-1.615 1.152,0 2.263,0.157 3.331,0.424"
                 inkscape:connector-curvature="0" />
            </g>
            <g
               transform="translate(15.6558,22.498)"
               id="g449">
              <path
                 id="path451"
                 style="fill:#ffcc4d;fill-opacity:1;fill-rule:nonzero;stroke:none"
                 d="m 0,0 c -0.054,-0.143 -0.16,-0.255 -0.297,-0.318 -0.554,-0.249 -0.8,-0.9 -0.55,-1.453 0.119,-0.265 0.328,-0.458 0.576,-0.562 -0.202,0.016 -0.402,0.061 -0.597,0.134 -0.54,0.204 -0.969,0.606 -1.206,1.133 -0.166,0.366 -0.179,0.777 -0.036,1.154 0.142,0.376 0.423,0.676 0.791,0.841 0.129,0.059 0.267,0.088 0.405,0.088 0.118,0 0.236,-0.021 0.349,-0.064 C -0.318,0.859 -0.123,0.677 -0.014,0.436 0.049,0.296 0.053,0.142 0,0 m 9.859,6.003 c -1.569,3.473 -6.117,7.313 -11.772,7.935 -0.212,0.023 -0.422,0.033 -0.633,0.047 -3.6,-0.52 -6.743,-2.429 -8.871,-5.176 3.382,2.808 6.776,3.214 9.264,2.943 C 2.684,11.22 6.542,8.001 7.854,5.098 9.863,0.65 7.877,-4.604 3.43,-6.612 1.761,-7.367 -0.104,-7.425 -1.817,-6.777 c -1.715,0.646 -3.075,1.923 -3.829,3.594 -1.195,2.647 -0.015,5.774 2.632,6.97 2.007,0.906 4.38,0.01 5.286,-1.996 C 2.836,0.54 2.462,-0.9 1.45,-1.733 1.713,-1.463 1.92,-1.14 2.057,-0.777 2.318,-0.085 2.294,0.667 1.99,1.341 1.64,2.116 1.009,2.709 0.213,3.01 -0.584,3.311 -1.45,3.284 -2.224,2.933 -3.127,2.526 -3.817,1.792 -4.167,0.865 c -0.35,-0.927 -0.319,-1.934 0.089,-2.837 0.479,-1.061 1.343,-1.872 2.432,-2.284 1.09,-0.412 2.276,-0.373 3.336,0.105 2.599,1.174 3.76,4.246 2.586,6.847 -1.404,3.111 -5.083,4.497 -8.195,3.095 -3.752,-1.696 -5.425,-6.128 -3.731,-9.88 0.997,-2.206 2.792,-3.891 5.056,-4.745 1.041,-0.394 2.124,-0.59 3.205,-0.59 1.268,0 2.534,0.27 3.725,0.808 5.551,2.509 8.03,9.066 5.523,14.619"
                 inkscape:connector-curvature="0" />
            </g>
          </g>
        </g>
      </g>
    </g>
    <g
       transform="matrix(0.76708738,-0.32560927,0.32560927,0.76708738,123.95152,57.560964)"
       id="g453">
      <g
         transform="matrix(1.25,0,0,-1.25,0,45)"
         id="g455">
        <g
           id="g457">
          <g
             clip-path="url(#clipPath16)"
             id="g459">
            <g
               transform="translate(6.2031,14.3594)"
               id="g461">
              <path
                 id="path463"
                 style="fill:#ef9645;fill-opacity:1;fill-rule:nonzero;stroke:none"
                 d="M 0,0 C -0.078,-0.922 0.321,-1.198 0.946,-1.636 1.564,-2.068 5.329,1.231 6.561,1.733 7.792,2.235 19.348,4.682 18.847,6.916 18.346,9.151 14.853,9.481 12.164,9.025 9.473,8.569 4.326,6.203 2.821,4.926 1.317,3.648 0,0 0,0"
                 inkscape:connector-curvature="0" />
            </g>
            <g
               transform="translate(14.8252,12.8623)"
               id="g465">
              <path
                 id="path467"
                 style="fill:#ef9645;fill-opacity:1;fill-rule:nonzero;stroke:none"
                 d="m 0,0 c 0,0 -3.557,-1.155 -3.557,-4.155 0,-3 0.866,-4.693 1.277,-5.513 0.41,-0.82 1.687,-1.616 3.455,-0.851 2.052,0.889 -0.491,6.004 6,3.657 2.973,-1.075 6.058,-2.529 9.058,-1.529 2.846,0.949 3.942,4.529 3.942,6.529 0,4.093 -3,3 -4,2 -1,-1 -9,-3 -10,-3 C 5.175,-2.862 0,0 0,0"
                 inkscape:connector-curvature="0" />
            </g>
            <g
               transform="translate(19.3125,7.8125)"
               id="g469">
              <path
                 id="path471"
                 style="fill:#f9ca55;fill-opacity:1;fill-rule:nonzero;stroke:none"
                 d="m 0,0 c 0,0 -0.12,1.316 -1.375,1.469 -1.031,0.125 -2.656,-0.219 -3.5,-1.906 -0.844,-1.688 -2.344,-1.407 -2.281,-2.813 0.062,-1.406 0.5,-2.5 1.406,-2.781 0.906,-0.281 2.187,0.219 2.344,1.719 0.156,1.499 0.343,2.875 1.312,3.468 C -1.125,-0.25 0,0 0,0"
                 inkscape:connector-curvature="0" />
            </g>
            <g
               transform="translate(18,10)"
               id="g473">
              <path
                 id="path475"
                 style="fill:#ef9645;fill-opacity:1;fill-rule:nonzero;stroke:none"
                 d="m 0,0 c 0,0 -1,1 -3,1 -2,0 -6.664,-2.133 -5.25,-6.375 1,-3 3.844,-1.594 4.25,1.375 0.407,2.973 4,4 4,4"
                 inkscape:connector-curvature="0" />
            </g>
            <g
               transform="translate(17,10)"
               id="g477">
              <path
                 id="path479"
                 style="fill:#f9ca55;fill-opacity:1;fill-rule:nonzero;stroke:none"
                 d="m 0,0 c 0,0 -1,1 -3,1 -2,0 -4.885,-1.53 -5,-6 -0.094,-3.656 4.031,-2 4,1 -0.031,3 4,4 4,4"
                 inkscape:connector-curvature="0" />
            </g>
            <g
               transform="translate(5,9)"
               id="g481">
              <path
                 id="path483"
                 style="fill:#ef9645;fill-opacity:1;fill-rule:nonzero;stroke:none"
                 d="m 0,0 c 0,-3.297 0.457,-5.286 2.428,-4.947 3.269,0.562 2.029,4.614 4.889,5.754 2.078,0.827 5.102,0.629 8.02,-1.103 C 17.26,-1.437 16,3 14,4 12,5 6,4 5,4 4,4 0,0 0,0"
                 inkscape:connector-curvature="0" />
            </g>
            <g
               transform="translate(4.8423,8.8262)"
               id="g485">
              <path
                 id="path487"
                 style="fill:#f9ca55;fill-opacity:1;fill-rule:nonzero;stroke:none"
                 d="m 0,0 c -1.591,-2.665 -0.624,-5.42 2.158,-4.826 2.691,0.574 1.342,4.07 4,6 1.489,1.082 4.698,1.445 6.698,0.445 2,-1 2.302,1.555 0.302,2.555 -2,1 -8.54,0.025 -9.538,-0.037 C 1.71,4.018 0,0 0,0"
                 inkscape:connector-curvature="0" />
            </g>
            <g
               transform="translate(9.4185,6.8857)"
               id="g489">
              <path
                 id="path491"
                 style="fill:#3b88c3;fill-opacity:1;fill-rule:nonzero;stroke:none"
                 d="m 0,0 c -0.679,-0.778 -1.86,-0.859 -2.639,-0.18 l -0.195,0.171 c -0.779,0.679 -0.86,1.86 -0.18,2.638 l 22.521,25.817 c 0.679,0.779 1.861,0.86 2.639,0.181 l 0.195,-0.172 c 0.78,-0.679 0.86,-1.86 0.181,-2.638 L 0,0 Z"
                 inkscape:connector-curvature="0" />
            </g>
            <g
               transform="translate(10.4902,8.1143)"
               id="g493">
              <path
                 id="path495"
                 style="fill:#3b88c3;fill-opacity:1;fill-rule:nonzero;stroke:none"
                 d="m 0,0 c -2.36,-2.705 -8.313,-8.009 -9.067,-7.352 -0.754,0.658 3.693,7.276 6.052,9.981 2.36,2.706 1.661,0.542 2.494,-0.185 C 0.311,1.718 2.359,2.704 0,0"
                 inkscape:connector-curvature="0" />
            </g>
            <g
               transform="translate(6.6724,10.9736)"
               id="g497">
              <path
                 id="path499"
                 style="fill:#ef9645;fill-opacity:1;fill-rule:nonzero;stroke:none"
                 d="m 0,0 c 0,-1 2.421,-1.915 3.421,-0.915 1,1 3.341,2.227 6.419,0.941 7.203,-3.009 4.488,1 1.488,2 -3,1 -8,0 -9,0 C 1.328,2.026 0,0 0,0"
                 inkscape:connector-curvature="0" />
            </g>
            <g
               transform="translate(6.1948,13.957)"
               id="g501">
              <path
                 id="path503"
                 style="fill:#ffdc5d;fill-opacity:1;fill-rule:nonzero;stroke:none"
                 d="m 0,0 c -0.358,1.113 2.188,7.279 3.341,8.234 1.452,1.202 7.07,3.063 9.07,3.063 2,0 16.394,-7.254 16.394,-12.254 0,-5 -2,-5.625 -4.875,-6.406 -2.299,-0.625 -7.115,-0.242 -9.219,1.718 -1.843,1.719 -3.125,2.907 -4.906,3.688 -3.302,1.448 -5.503,-0.424 -6.503,-1.424 -2,-2 -5.768,0.159 -2.626,3.58 2.25,2.449 4.232,3.212 6.129,3.844 6,2 10,2 8,4 C 14.098,8.75 13.713,7.697 12.729,7.518 10.749,7.158 9.173,6.917 6.563,6.046 5.662,5.746 1.392,3.023 0,0"
                 inkscape:connector-curvature="0" />
            </g>
            <g
               transform="translate(13.1958,19.7246)"
               id="g505">
              <path
                 id="path507"
                 style="fill:#ef9645;fill-opacity:1;fill-rule:nonzero;stroke:none"
                 d="M 0,0 C 1.064,0.388 5.702,1.232 8.115,2.068 10.064,2.745 11.774,1.432 8.075,0.04 4.504,-1.303 0.795,-1.193 -1.909,-2.267 -2.932,-2.673 -3.819,-1.392 0,0"
                 inkscape:connector-curvature="0" />
            </g>
            <g
               transform="translate(22.4873,27.9766)"
               id="g509">
              <path
                 id="path511"
                 style="fill:#3b88c3;fill-opacity:1;fill-rule:nonzero;stroke:none"
                 d="m 0,0 c 0,0 -5.928,-6.795 -8.446,-9.661 2.254,0.927 4.27,0.751 6.198,1.885 1.927,1.133 2.806,2.342 5.73,5.694 C 4.567,-0.837 0,0 0,0"
                 inkscape:connector-curvature="0" />
            </g>
          </g>
        </g>
      </g>
    </g>
    <g
       transform="matrix(0.60001711,-0.36052665,0.36052665,0.60001711,101.73357,47.480551)"
       id="g513">
      <g
         transform="matrix(1.25,0,0,-1.25,0,45)"
         id="g515">
        <g
           id="g517">
          <g
             clip-path="url(#clipPath16)"
             id="g519">
            <g
               transform="translate(25,18.875)"
               id="g521">
              <path
                 id="path523"
                 style="fill:#ef9645;fill-opacity:1;fill-rule:nonzero;stroke:none"
                 d="m 0,0 -8,-0.021 c -1.104,0 -1.875,-0.75 -1.875,-1.854 0,-1.104 0.771,-1.854 1.875,-1.854 l 5.266,-0.021 c 0,0 0.88,0.104 0.88,-0.625 C -1.854,-4.651 -2.224,-5 -2.5,-5 -2.5,-5 -7,-4.792 -7.375,-11.875 -7.39,-12.151 -7.724,-12.5 -8,-12.5 c -0.276,0 -0.625,0.349 -0.625,0.625 0,3.01 1.396,5.938 2.867,6.824 -0.91,0 -1.711,0.051 -2.242,0.051 -1,0 -1.438,0.334 -1.438,0.333 -0.146,-0.231 -0.562,-1.27 -2.687,-1.27 -2.375,0 -3.021,2.362 -3.021,3.02 l 0,5.021 0.146,0.021 c 0,0.811 0.485,1.507 1.18,1.82 l -0.097,-6.653 c 0,-1.105 0.813,-2.084 1.917,-2.084 0.755,0 1.263,0.341 1.604,0.959 -0.458,0.526 -0.677,1.132 -0.677,1.885 0,0.886 0.318,1.795 0.927,2.344 l 0.042,2.708 0.104,0.021 c 0,0.811 0.485,1.507 1.18,1.82 L -8.875,2.125 -8.896,1.104 c 0.315,0.111 0.564,0.146 0.917,0.146 l 2.875,-0.021 0,2.917 0.104,-0.021 0,9 c 0,0.811 0.485,1.507 1.18,1.82 l -0.034,-13.66 3.646,0 L 0,1.125 c 0.922,0 1.723,-2 1.723,-2 0,0 0.002,-0.013 0.002,-0.015 C 1.481,-0.471 0.968,0 0,0"
                 inkscape:connector-curvature="0" />
            </g>
            <g
               transform="translate(15,19.2217)"
               id="g525">
              <path
                 id="path527"
                 style="fill:#ffdc5d;fill-opacity:1;fill-rule:nonzero;stroke:none"
                 d="m 0,0 c -0.609,-0.549 -1,-1.336 -1,-2.222 0,-0.753 0.287,-1.432 0.745,-1.959 -0.341,-0.617 -0.99,-1.041 -1.745,-1.041 -1.104,0 -2,0.896 -2,2 l 0,6 c 0,0.293 0.067,0.57 0.18,0.82 0.313,0.695 1.009,1.18 1.82,1.18 1.104,0 2,-0.895 2,-2 l 0,-1 L 0,0 Z"
                 inkscape:connector-curvature="0" />
            </g>
            <g
               transform="translate(6,30)"
               id="g529">
              <path
                 id="path531"
                 style="fill:#ffdc5d;fill-opacity:1;fill-rule:nonzero;stroke:none"
                 d="M 0,0 C 0,1.104 0.896,2 2,2 3.104,2 4,1.104 4,0 l 0,-9 0,-2 0,-3 c 0,-0.658 0.217,-1.262 0.578,-1.753 0.028,-0.037 0.061,-0.068 0.089,-0.102 0.104,-0.129 0.21,-0.255 0.332,-0.366 0.033,-0.027 0.066,-0.054 0.1,-0.082 0.119,-0.098 0.243,-0.188 0.377,-0.268 0.066,-0.039 0.131,-0.075 0.201,-0.109 0.139,-0.069 0.285,-0.125 0.435,-0.172 0.068,-0.02 0.131,-0.045 0.2,-0.061 C 6.534,-16.966 6.763,-17 7,-17 c 0.236,0 0.461,0.036 0.681,0.089 0.076,0.017 0.148,0.042 0.222,0.066 0.137,0.044 0.269,0.099 0.396,0.161 0.082,0.04 0.163,0.077 0.24,0.124 0.164,0.1 0.318,0.213 0.46,0.341 0.202,0.184 0.384,0.387 0.53,0.618 -10e-4,0.001 -0.002,0.002 -0.003,0.003 C 9.727,-15.713 10,-16 11,-16 l 2.537,0 c -1.808,-1.365 -3.037,-3.99 -3.037,-7 0,-0.276 0.224,-0.5 0.5,-0.5 0.276,0 0.5,0.224 0.5,0.5 0,3.859 2.187,7 4.875,7 l 0.125,0 c 0.276,0 0.5,0.224 0.5,0.5 0,0.276 -0.224,0.5 -0.5,0.5 l -1.5,0 -4,0 c -1.104,0 -2,0.896 -2,2 0,1.104 0.896,2 2,2 l 8,0 c 0.968,0 1.481,-0.596 1.725,-1.015 0.126,-0.216 0.185,-0.389 0.188,-0.4 L 22,-16 c 0.103,-0.335 0.479,-1.871 0.411,-2.191 C 22.411,-23 17.715,-28 12,-28 5.463,-28 0,-22.75 0,-16 0.008,-16.007 0,0 0,0"
                 inkscape:connector-curvature="0" />
            </g>
            <g
               transform="translate(20,20)"
               id="g533">
              <path
                 id="path535"
                 style="fill:#ffdc5d;fill-opacity:1;fill-rule:nonzero;stroke:none"
                 d="M 0,0 -3,0 C -3.352,0 -3.685,-0.072 -4,-0.184 L -4,1 -4,3 c 0,0.293 0.067,0.569 0.18,0.82 C -3.507,4.515 -2.811,5 -2,5 -0.896,5 0,4.104 0,3 L 0,1 0,0 Z"
                 inkscape:connector-curvature="0" />
            </g>
            <g
               transform="translate(21,20)"
               id="g537">
              <path
                 id="path539"
                 style="fill:#ffdc5d;fill-opacity:1;fill-rule:nonzero;stroke:none"
                 d="m 0,0 0,13 c 0,0.293 0.067,0.569 0.18,0.82 C 0.493,14.515 1.189,15 2,15 3.104,15 4,14.104 4,13 L 4,1 4,0 3,0 0,0 Z"
                 inkscape:connector-curvature="0" />
            </g>
          </g>
        </g>
      </g>
    </g>
    <g
       transform="matrix(-0.69969577,0.3878477,-0.3878477,-0.69969577,65.032316,122.34799)"
       id="g541">
      <g
         transform="matrix(1.25,0,0,-1.25,0,47.5)"
         id="g543">
        <g
           id="g545">
          <g
             clip-path="url(#clipPath16)"
             id="g547">
            <g
               transform="translate(28,4)"
               id="g549">
              <path
                 id="path551"
                 style="fill:#99aab5;fill-opacity:1;fill-rule:nonzero;stroke:none"
                 d="m 0,0 c 0,-2.209 -1.791,-3 -4,-3 l -10,0 c -2.209,0 -4,0.791 -4,3 0,2.209 3,7 3,13 0,6 12,6 12,0 C -3,7 0,2.209 0,0"
                 inkscape:connector-curvature="0" />
            </g>
          </g>
        </g>
        <g
           id="g553">
          <g
             clip-path="url(#clipPath28)"
             id="g555">
            <g
               transform="translate(19,37.6113)"
               id="g557">
              <path
                 id="path559"
                 style="fill:#dd2e44;fill-opacity:1;fill-rule:nonzero;stroke:none"
                 d="m 0,0 c -10.494,0 -19,-8.639 -19,-19.194 0,-2.332 1.891,-4.417 4.222,-4.417 l 29.555,0 c 2.332,0 4.223,2.085 4.223,4.417 C 19,-8.639 10.494,0 0,0"
                 inkscape:connector-curvature="0" />
            </g>
            <g
               transform="translate(8.7085,20.542)"
               id="g561">
              <path
                 id="path563"
                 style="fill:#f4abba;fill-opacity:1;fill-rule:nonzero;stroke:none"
                 d="m 0,0 c -3.4,0 -6.167,2.766 -6.167,6.167 0,3.4 2.767,6.166 6.167,6.166 3.4,0 6.167,-2.766 6.167,-6.166 C 6.167,2.766 3.4,0 0,0"
                 inkscape:connector-curvature="0" />
            </g>
            <g
               transform="translate(8.7085,33)"
               id="g565">
              <path
                 id="path567"
                 style="fill:#f4abba;fill-opacity:1;fill-rule:nonzero;stroke:none"
                 d="m 0,0 c -3.475,0 -6.292,-2.817 -6.292,-6.292 0,-3.474 2.817,-6.291 6.292,-6.291 3.475,0 6.292,2.817 6.292,6.291 C 6.292,-2.817 3.475,0 0,0 m 0,-0.25 c 3.331,0 6.042,-2.71 6.042,-6.042 0,-3.331 -2.711,-6.041 -6.042,-6.041 -3.331,0 -6.042,2.71 -6.042,6.041 0,3.332 2.711,6.042 6.042,6.042"
                 inkscape:connector-curvature="0" />
            </g>
            <g
               transform="translate(35.666,25.8115)"
               id="g569">
              <path
                 id="path571"
                 style="fill:#f4abba;fill-opacity:1;fill-rule:nonzero;stroke:none"
                 d="M 0,0 C -0.96,2.357 -2.404,4.455 -4.209,6.184 -6.674,6.16 -8.666,4.159 -8.666,1.688 c 0,-2.485 2.015,-4.5 4.5,-4.5 1.887,0 3.497,1.165 4.166,2.812"
                 inkscape:connector-curvature="0" />
            </g>
            <g
               transform="translate(27,21)"
               id="g573">
              <path
                 id="path575"
                 style="fill:#f4abba;fill-opacity:1;fill-rule:nonzero;stroke:none"
                 d="M 0,0 C 0,-2.485 -2.015,-4.5 -4.5,-4.5 -6.985,-4.5 -9,-2.485 -9,0 -9,2.485 -6.985,4.5 -4.5,4.5 -2.015,4.5 0,2.485 0,0"
                 inkscape:connector-curvature="0" />
            </g>
            <g
               transform="translate(24,32)"
               id="g577">
              <path
                 id="path579"
                 style="fill:#f4abba;fill-opacity:1;fill-rule:nonzero;stroke:none"
                 d="m 0,0 c 0,-1.656 -1.343,-3 -3,-3 -1.657,0 -3,1.344 -3,3 0,1.657 1.343,3 3,3 1.657,0 3,-1.343 3,-3"
                 inkscape:connector-curvature="0" />
            </g>
          </g>
        </g>
      </g>
    </g>
  </g>
</svg>
