<?xml version="1.0" encoding="UTF-8" standalone="no"?>
<svg
   xmlns:dc="http://purl.org/dc/elements/1.1/"
   xmlns:cc="http://creativecommons.org/ns#"
   xmlns:rdf="http://www.w3.org/1999/02/22-rdf-syntax-ns#"
   xmlns:svg="http://www.w3.org/2000/svg"
   xmlns="http://www.w3.org/2000/svg"
   xmlns:sodipodi="http://sodipodi.sourceforge.net/DTD/sodipodi-0.dtd"
   xmlns:inkscape="http://www.inkscape.org/namespaces/inkscape"
   version="1.1"
   id="svg2"
   viewBox="0 0 200 200"
   height="200px"
   width="200px"
   inkscape:version="0.91 r13725"
   sodipodi:docname="31.svg">
  <metadata
     id="metadata502">
    <rdf:RDF>
      <cc:Work
         rdf:about="">
        <dc:format>image/svg+xml</dc:format>
        <dc:type
           rdf:resource="http://purl.org/dc/dcmitype/StillImage" />
      </cc:Work>
    </rdf:RDF>
  </metadata>
  <sodipodi:namedview
     pagecolor="#ffffff"
     bordercolor="#666666"
     borderopacity="1"
     objecttolerance="10"
     gridtolerance="10"
     guidetolerance="10"
     inkscape:pageopacity="0"
     inkscape:pageshadow="2"
     inkscape:window-width="1920"
     inkscape:window-height="1060"
     id="namedview500"
     showgrid="false"
     inkscape:zoom="4.32"
     inkscape:cx="100"
     inkscape:cy="100"
     inkscape:window-x="0"
     inkscape:window-y="0"
     inkscape:window-maximized="1"
     inkscape:current-layer="layer1" />
  
    
    
    <defs id="defs6">

        <clipPath
           id="clipPath28"
           clipPathUnits="userSpaceOnUse">
          <path
             id="path30"
             d="M 4,36 C 0,36 0,32 0,32 L 0,32 0,4 C 0,0 4,0 4,0 l 0,0 28,0 c 4,0 4,4 4,4 l 0,0 0,28 c 0,4 -4,4 -4,4 l 0,0 -28,0 z" />
        </clipPath>


        <clipPath clipPathUnits="userSpaceOnUse" id="clipPath16-rugby">
            <path d="M 0,38 38,38 38,0 0,0 0,38 Z" id="path18"/>
        </clipPath>
        <clipPath clipPathUnits="userSpaceOnUse" id="clipPath28-rugby">
            <path d="M 9.254,28.746 C 2.09,21.582 -0.927,9.561 3.929,3.929 l 0,0 C 9.561,-0.927 21.582,2.09 28.746,9.254 l 0,0 c 7.164,7.164 11.229,17.088 5.324,24.816 l 0,0 c -1.886,1.627 -4.489,2.371 -7.387,2.37 l 0,0 c -5.752,0 -12.665,-2.93 -17.429,-7.694" id="path30"/>
        </clipPath>

        <clipPath clipPathUnits="userSpaceOnUse" id="clipPath16-carrot">
            <path d="M 0,36 36,36 36,0 0,0 0,36 Z" id="path18"/>
        </clipPath>
        <clipPath clipPathUnits="userSpaceOnUse" id="clipPath32-carrot">
            <path d="M 11.815,23.013 C 4.2,15.397 -1.265,2.86 0.502,1.093 l 0,0 c 1.768,-1.768 14.305,3.698 21.92,11.313 l 0,0 c 7.616,7.615 7.562,11.53 4.243,14.85 l 0,0 c -1.328,1.328 -2.752,2.133 -4.47,2.133 l 0,0 c -2.575,0 -5.812,-1.809 -10.38,-6.376" id="path34"/>
        </clipPath>

        <clipPath clipPathUnits="userSpaceOnUse" id="clipPath32-hat">
            <path d="m 5,33.666 c 0,-0.034 0.018,-0.067 0.022,-0.101 l 0,0 C 5.008,33.455 5,33.335 5,33.2 l 0,0 L 6.802,9.616 C 3.299,8.705 1,7.424 1,6 L 1,6 C 1,3.238 9.611,1 19,1 l 0,0 c 9.389,0 18,2.238 18,5 l 0,0 c 0,1.424 -2.298,2.705 -5.801,3.616 l 0,0 L 33,33.184 c 0,0.135 -0.008,0.263 -0.021,0.373 l 0,0 C 32.982,33.591 33,33.632 33,33.666 l 0,0 c 0,1.805 -6.268,3.267 -14,3.267 l 0,0 c -7.732,0 -14,-1.462 -14,-3.267" id="path34"/>
        </clipPath>


        <clipPath clipPathUnits="userSpaceOnUse" id="clipPath48-soccer">
            <path d="M 1,19 C 1,9.059 9.059,1 19,1 l 0,0 c 9.941,0 18,8.059 18,18 l 0,0 c 0,9.941 -8.059,18 -18,18 l 0,0 C 9.059,37 1,28.941 1,19" id="path50"/>
        </clipPath>

        <clipPath clipPathUnits="userSpaceOnUse" id="clipPath28-baguette">
            <path d="M 24.052,31.33 5.126,12.406 C 1.342,8.62 1.288,4.133 2.856,2.564 l 0,0 C 4.424,0.997 8.912,1.049 12.697,4.835 l 0,0 18.925,18.924 c 3.784,3.785 3.837,8.273 2.269,9.841 l 0,0 c -0.605,0.606 -1.647,0.969 -2.915,0.969 l 0,0 c -2.014,0 -4.602,-0.917 -6.924,-3.239" id="path30"/>
        </clipPath>
    </defs>



  <g
     id="layer1">
    <circle
       style="opacity:1;fill:white;stroke:black;stroke-width:1;stroke-miterlimit:4;stroke-dasharray:none;stroke-opacity:0.1"
       id="path4039-0-9"
       cx="100px"
       cy="100px"
       r="90px" />
    <g
       transform="matrix(0.78251808,0.16632935,-0.16632935,0.78251808,83.168684,140.1443)"
       id="g8">
      <g
         transform="matrix(1.25,0,0,-1.25,0,45)"
         id="g10">
        <g
           id="g12">
          <g
             clip-path="url(#clipPath16)"
             id="g14">
            <g
               transform="translate(6.2031,14.3594)"
               id="g20">
              <path
                 id="path22"
                 style="fill:#ef9645;fill-opacity:1;fill-rule:nonzero;stroke:none"
                 d="M 0,0 C -0.078,-0.922 0.321,-1.198 0.946,-1.636 1.564,-2.068 5.329,1.231 6.561,1.733 7.792,2.235 19.348,4.682 18.847,6.916 18.346,9.151 14.853,9.481 12.164,9.025 9.473,8.569 4.326,6.203 2.821,4.926 1.317,3.648 0,0 0,0"
                 inkscape:connector-curvature="0" />
            </g>
            <g
               transform="translate(14.8252,12.8623)"
               id="g24">
              <path
                 id="path26"
                 style="fill:#ef9645;fill-opacity:1;fill-rule:nonzero;stroke:none"
                 d="m 0,0 c 0,0 -3.557,-1.155 -3.557,-4.155 0,-3 0.866,-4.693 1.277,-5.513 0.41,-0.82 1.687,-1.616 3.455,-0.851 2.052,0.889 -0.491,6.004 6,3.657 2.973,-1.075 6.058,-2.529 9.058,-1.529 2.846,0.949 3.942,4.529 3.942,6.529 0,4.093 -3,3 -4,2 -1,-1 -9,-3 -10,-3 C 5.175,-2.862 0,0 0,0"
                 inkscape:connector-curvature="0" />
            </g>
            <g
               transform="translate(19.3125,7.8125)"
               id="g28">
              <path
                 id="path18"
                 style="fill:#f9ca55;fill-opacity:1;fill-rule:nonzero;stroke:none"
                 d="m 0,0 c 0,0 -0.12,1.316 -1.375,1.469 -1.031,0.125 -2.656,-0.219 -3.5,-1.906 -0.844,-1.688 -2.344,-1.407 -2.281,-2.813 0.062,-1.406 0.5,-2.5 1.406,-2.781 0.906,-0.281 2.187,0.219 2.344,1.719 0.156,1.499 0.343,2.875 1.312,3.468 C -1.125,-0.25 0,0 0,0"
                 inkscape:connector-curvature="0" />
            </g>
            <g
               transform="translate(18,10)"
               id="g32">
              <path
                 id="path34"
                 style="fill:#ef9645;fill-opacity:1;fill-rule:nonzero;stroke:none"
                 d="m 0,0 c 0,0 -1,1 -3,1 -2,0 -6.664,-2.133 -5.25,-6.375 1,-3 3.844,-1.594 4.25,1.375 0.407,2.973 4,4 4,4"
                 inkscape:connector-curvature="0" />
            </g>
            <g
               transform="translate(17,10)"
               id="g36">
              <path
                 id="path38"
                 style="fill:#f9ca55;fill-opacity:1;fill-rule:nonzero;stroke:none"
                 d="m 0,0 c 0,0 -1,1 -3,1 -2,0 -4.885,-1.53 -5,-6 -0.094,-3.656 4.031,-2 4,1 -0.031,3 4,4 4,4"
                 inkscape:connector-curvature="0" />
            </g>
            <g
               transform="translate(5,9)"
               id="g40">
              <path
                 id="path42"
                 style="fill:#ef9645;fill-opacity:1;fill-rule:nonzero;stroke:none"
                 d="m 0,0 c 0,-3.297 0.457,-5.286 2.428,-4.947 3.269,0.562 2.029,4.614 4.889,5.754 2.078,0.827 5.102,0.629 8.02,-1.103 C 17.26,-1.437 16,3 14,4 12,5 6,4 5,4 4,4 0,0 0,0"
                 inkscape:connector-curvature="0" />
            </g>
            <g
               transform="translate(4.8423,8.8262)"
               id="g44">
              <path
                 id="path46"
                 style="fill:#f9ca55;fill-opacity:1;fill-rule:nonzero;stroke:none"
                 d="m 0,0 c -1.591,-2.665 -0.624,-5.42 2.158,-4.826 2.691,0.574 1.342,4.07 4,6 1.489,1.082 4.698,1.445 6.698,0.445 2,-1 2.302,1.555 0.302,2.555 -2,1 -8.54,0.025 -9.538,-0.037 C 1.71,4.018 0,0 0,0"
                 inkscape:connector-curvature="0" />
            </g>
            <g
               transform="translate(9.4185,6.8857)"
               id="g48">
              <path
                 id="path50"
                 style="fill:#3b88c3;fill-opacity:1;fill-rule:nonzero;stroke:none"
                 d="m 0,0 c -0.679,-0.778 -1.86,-0.859 -2.639,-0.18 l -0.195,0.171 c -0.779,0.679 -0.86,1.86 -0.18,2.638 l 22.521,25.817 c 0.679,0.779 1.861,0.86 2.639,0.181 l 0.195,-0.172 c 0.78,-0.679 0.86,-1.86 0.181,-2.638 L 0,0 Z"
                 inkscape:connector-curvature="0" />
            </g>
            <g
               transform="translate(10.4902,8.1143)"
               id="g52">
              <path
                 id="path54"
                 style="fill:#3b88c3;fill-opacity:1;fill-rule:nonzero;stroke:none"
                 d="m 0,0 c -2.36,-2.705 -8.313,-8.009 -9.067,-7.352 -0.754,0.658 3.693,7.276 6.052,9.981 2.36,2.706 1.661,0.542 2.494,-0.185 C 0.311,1.718 2.359,2.704 0,0"
                 inkscape:connector-curvature="0" />
            </g>
            <g
               transform="translate(6.6724,10.9736)"
               id="g56">
              <path
                 id="path58"
                 style="fill:#ef9645;fill-opacity:1;fill-rule:nonzero;stroke:none"
                 d="m 0,0 c 0,-1 2.421,-1.915 3.421,-0.915 1,1 3.341,2.227 6.419,0.941 7.203,-3.009 4.488,1 1.488,2 -3,1 -8,0 -9,0 C 1.328,2.026 0,0 0,0"
                 inkscape:connector-curvature="0" />
            </g>
            <g
               transform="translate(6.1948,13.957)"
               id="g60">
              <path
                 id="path62"
                 style="fill:#ffdc5d;fill-opacity:1;fill-rule:nonzero;stroke:none"
                 d="m 0,0 c -0.358,1.113 2.188,7.279 3.341,8.234 1.452,1.202 7.07,3.063 9.07,3.063 2,0 16.394,-7.254 16.394,-12.254 0,-5 -2,-5.625 -4.875,-6.406 -2.299,-0.625 -7.115,-0.242 -9.219,1.718 -1.843,1.719 -3.125,2.907 -4.906,3.688 -3.302,1.448 -5.503,-0.424 -6.503,-1.424 -2,-2 -5.768,0.159 -2.626,3.58 2.25,2.449 4.232,3.212 6.129,3.844 6,2 10,2 8,4 C 14.098,8.75 13.713,7.697 12.729,7.518 10.749,7.158 9.173,6.917 6.563,6.046 5.662,5.746 1.392,3.023 0,0"
                 inkscape:connector-curvature="0" />
            </g>
            <g
               transform="translate(13.1958,19.7246)"
               id="g64">
              <path
                 id="path66"
                 style="fill:#ef9645;fill-opacity:1;fill-rule:nonzero;stroke:none"
                 d="M 0,0 C 1.064,0.388 5.702,1.232 8.115,2.068 10.064,2.745 11.774,1.432 8.075,0.04 4.504,-1.303 0.795,-1.193 -1.909,-2.267 -2.932,-2.673 -3.819,-1.392 0,0"
                 inkscape:connector-curvature="0" />
            </g>
            <g
               transform="translate(22.4873,27.9766)"
               id="g68">
              <path
                 id="path70"
                 style="fill:#3b88c3;fill-opacity:1;fill-rule:nonzero;stroke:none"
                 d="m 0,0 c 0,0 -5.928,-6.795 -8.446,-9.661 2.254,0.927 4.27,0.751 6.198,1.885 1.927,1.133 2.806,2.342 5.73,5.694 C 4.567,-0.837 0,0 0,0"
                 inkscape:connector-curvature="0" />
            </g>
          </g>
        </g>
      </g>
    </g>
    <g
       transform="matrix(-0.1873033,0.46359193,-0.46359193,-0.1873033,53.897227,87.155786)"
       id="g41">
      <g
         transform="matrix(1.25,0,0,-1.25,0,45)"
         id="g43">
        <g
           id="g45">
          <g
             clip-path="url(#clipPath16)"
             id="g47">
            <g
               transform="translate(11.5747,23.8018)"
               id="g49">
              <path
                 id="path51"
                 style="fill:#c1694f;fill-opacity:1;fill-rule:nonzero;stroke:none"
                 d="M 0,0 C -1.083,-0.411 -2.459,0.573 -3.076,2.197 -3.691,3.82 -3.313,5.469 -2.23,5.88 -1.148,6.291 0.229,5.307 0.845,3.684 1.461,2.06 1.082,0.411 0,0 M 2.731,4.399 C 1.522,7.585 -1.18,9.516 -3.304,8.71 -5.428,7.904 -6.17,4.668 -4.962,1.481 c 1.209,-3.186 3.911,-5.116 6.035,-4.31 2.124,0.806 2.866,4.042 1.658,7.228"
                 inkscape:connector-curvature="0" />
            </g>
            <g
               transform="translate(26.5049,25.999)"
               id="g53">
              <path
                 id="path55"
                 style="fill:#c1694f;fill-opacity:1;fill-rule:nonzero;stroke:none"
                 d="m 0,0 c -0.616,-1.624 -1.992,-2.608 -3.075,-2.197 -1.081,0.411 -1.461,2.06 -0.844,3.684 0.616,1.623 1.992,2.607 3.074,2.196 C 0.237,3.272 0.617,1.624 0,0 m 0.229,6.513 c -2.124,0.805 -4.827,-1.125 -6.036,-4.311 -1.208,-3.186 -0.465,-6.423 1.659,-7.228 2.125,-0.807 4.827,1.124 6.035,4.31 1.209,3.187 0.467,6.423 -1.658,7.229"
                 inkscape:connector-curvature="0" />
            </g>
            <g
               transform="translate(16.6299,4.2529)"
               id="g57">
              <path
                 id="path59"
                 style="fill:#272b2b;fill-opacity:1;fill-rule:nonzero;stroke:none"
                 d="m 0,0 c -2.057,0 -5.142,-0.971 -5.142,-3.027 0,-1.03 3.942,-1.143 6.085,-1.143 C 3.086,-4.17 1.029,0 1.029,0 L 0,0 Z"
                 inkscape:connector-curvature="0" />
            </g>
            <g
               transform="translate(18.5464,4.2529)"
               id="g61">
              <path
                 id="path63"
                 style="fill:#272b2b;fill-opacity:1;fill-rule:nonzero;stroke:none"
                 d="M 0,0 C 2.057,0 5.142,-0.971 5.142,-3.027 5.142,-4.057 1.201,-4.17 -0.942,-4.17 -3.085,-4.17 -1.028,0 -1.028,0 L 0,0 Z"
                 inkscape:connector-curvature="0" />
            </g>
            <g
               transform="translate(23.8291,26.7856)"
               id="g65">
              <path
                 id="path67"
                 style="fill:#c1694f;fill-opacity:1;fill-rule:nonzero;stroke:none"
                 d="m 0,0 c -1.028,1.028 -3.085,5.214 -2.057,6.214 l -4.113,0 -4.114,0 c 1.028,-1 -1.029,-5.186 -2.057,-6.214 -1.029,-1.028 -6.171,-2.079 -6.171,-8.25 0,-6.17 8.228,-13.38 9.256,-15.437 1.028,-1.028 3.086,-1.033 3.086,-1.033 0,0 2.057,-0.003 3.085,1.025 1.028,2.057 9.256,9.277 9.256,15.447 0,6.17 -5.143,7.22 -6.171,8.248"
                 inkscape:connector-curvature="0" />
            </g>
          </g>
        </g>
        <g
           id="g69">
          <g
             clip-path="url(#clipPath44)"
             id="g42">
            <path
               id="path48"
               style="fill:#272b2b;fill-opacity:1;fill-rule:nonzero;stroke:none"
               d="M 32,14 4,14 4,24 32,24 32,14 Z"
               inkscape:connector-curvature="0" />
          </g>
        </g>
        <g
           id="g50">
          <g
             clip-path="url(#clipPath54)"
             id="g74">
            <g
               transform="translate(18,33)"
               id="g58">
              <path
                 id="path60"
                 style="fill:#c1694f;fill-opacity:1;fill-rule:nonzero;stroke:none"
                 d="m 0,0 -4.455,0 c 0,-4 -0.859,-5.143 -1.887,-6.171"
                 inkscape:connector-curvature="0" />
            </g>
            <g
               transform="translate(17.6587,31.6421)"
               id="g62">
              <path
                 id="path64"
                 style="fill:#272b2b;fill-opacity:1;fill-rule:nonzero;stroke:none"
                 d="M 0,0 C 2.057,0 6.03,0.928 6.03,2.985 6.03,4.014 2.088,4.149 -0.054,4.149 -2.198,4.149 -0.141,0 -0.141,0 L 0,0 Z"
                 inkscape:connector-curvature="0" />
            </g>
            <g
               transform="translate(17.6587,31.6421)"
               id="g66">
              <path
                 id="path68"
                 style="fill:#272b2b;fill-opacity:1;fill-rule:nonzero;stroke:none"
                 d="m 0,0 c -2.057,0 -6.03,0.928 -6.03,2.985 0,1.029 3.942,1.164 6.084,1.164 C 2.198,4.149 0.141,0 0.141,0 L 0,0 Z"
                 inkscape:connector-curvature="0" />
            </g>
            <g
               transform="translate(13.0308,16)"
               id="g70">
              <path
                 id="path72"
                 style="fill:#c1694f;fill-opacity:1;fill-rule:nonzero;stroke:none"
                 d="m 0,0 -2.571,0 c -0.285,0 -0.514,0.216 -0.514,0.5 0,0.284 0.229,0.5 0.514,0.5 l 2.54,0 0,4 -4,0 0,-1 2.488,0 C -1.259,4 -1.029,3.784 -1.029,3.5 -1.029,3.216 -1.259,3 -1.543,3 L -3.968,3 C -4.51,3 -5.031,3.146 -5.031,3.771 l 0,1.314 C -5.031,5.812 -4.427,6 -4.143,6 L 0,6 C 0.699,6 0.969,5.521 0.969,5.085 l 0,-4.113 C 0.969,0.354 0.511,0 0,0"
                 inkscape:connector-curvature="0" />
            </g>
            <g
               transform="translate(27.0313,16)"
               id="g84">
              <path
                 id="path76"
                 style="fill:#c1694f;fill-opacity:1;fill-rule:nonzero;stroke:none"
                 d="m 0,0 -2.572,0 c -0.283,0 -0.514,0.216 -0.514,0.5 0,0.284 0.231,0.5 0.514,0.5 l 2.541,0 0,4 -4,0 0,-1 2.488,0 C -1.26,4 -1.029,3.784 -1.029,3.5 -1.029,3.216 -1.26,3 -1.543,3 L -3.969,3 C -4.51,3 -5.031,3.146 -5.031,3.771 l 0,1.314 C -5.031,5.812 -4.428,6 -4.143,6 L 0,6 C 0.698,6 0.969,5.521 0.969,5.085 l 0,-4.113 C 0.969,0.354 0.511,0 0,0"
                 inkscape:connector-curvature="0" />
            </g>
            <g
               transform="translate(20.0313,16)"
               id="g78">
              <path
                 id="path80"
                 style="fill:#c1694f;fill-opacity:1;fill-rule:nonzero;stroke:none"
                 d="m 0,0 -2.572,0 c -0.283,0 -0.514,0.216 -0.514,0.5 0,0.284 0.231,0.5 0.514,0.5 l 2.541,0 0,4 -4,0 0,-1 2.488,0 C -1.26,4 -1.029,3.784 -1.029,3.5 -1.029,3.216 -1.26,3 -1.543,3 L -3.969,3 C -4.51,3 -5.031,3.146 -5.031,3.771 l 0,1.314 C -5.031,5.812 -4.428,6 -4.143,6 L 0,6 C 0.698,6 0.969,5.521 0.969,5.085 l 0,-4.113 C 0.969,0.354 0.511,0 0,0"
                 inkscape:connector-curvature="0" />
            </g>
          </g>
        </g>
      </g>
    </g>
    <g
       transform="translate(64.5 16.5) rotate(40 15 15) scale(0.8333333333333334)"
       id="g89">
      <g
         transform="matrix(1.25,0,0,-1.25,0,45)"
         id="g91">
        <g
           id="g93">
          <g
             clip-path="url(#clipPath16)"
             id="g95">
            <g
               transform="translate(36,18)"
               id="g97">
              <path
                 id="path99"
                 style="fill:#ffcc4d;fill-opacity:1;fill-rule:nonzero;stroke:none"
                 d="m 0,0 c 0,-9.941 -8.059,-18 -18,-18 -9.94,0 -18,8.059 -18,18 0,9.94 8.06,18 18,18 C -8.059,18 0,9.94 0,0" />
            </g>
            <g
               transform="translate(30,22.5)"
               id="g101">
              <path
                 id="path103"
                 style="fill:#f5f8fa;fill-opacity:1;fill-rule:nonzero;stroke:none"
                 d="m 0,0 c 0,-3.037 -2.463,-5.5 -5.5,-5.5 -3.037,0 -5.5,2.463 -5.5,5.5 0,3.037 2.463,5.5 5.5,5.5 C -2.463,5.5 0,3.037 0,0" />
            </g>
            <g
               transform="translate(17,22.5)"
               id="g105">
              <path
                 id="path107"
                 style="fill:#f5f8fa;fill-opacity:1;fill-rule:nonzero;stroke:none"
                 d="m 0,0 c 0,-3.037 -2.463,-5.5 -5.5,-5.5 -3.037,0 -5.5,2.463 -5.5,5.5 0,3.037 2.463,5.5 5.5,5.5 C -2.463,5.5 0,3.037 0,0" />
            </g>
            <g
               transform="translate(14,25.5)"
               id="g109">
              <path
                 id="path111"
                 style="fill:#664500;fill-opacity:1;fill-rule:nonzero;stroke:none"
                 d="M 0,0 C 0,-1.381 -1.119,-2.5 -2.5,-2.5 -3.881,-2.5 -5,-1.381 -5,0 -5,1.38 -3.881,2.5 -2.5,2.5 -1.119,2.5 0,1.38 0,0" />
            </g>
            <g
               transform="translate(27,25.5)"
               id="g113">
              <path
                 id="path115"
                 style="fill:#664500;fill-opacity:1;fill-rule:nonzero;stroke:none"
                 d="M 0,0 C 0,-1.381 -1.119,-2.5 -2.5,-2.5 -3.881,-2.5 -5,-1.381 -5,0 -5,1.38 -3.881,2.5 -2.5,2.5 -1.119,2.5 0,1.38 0,0" />
            </g>
            <g
               transform="translate(23,9)"
               id="g117">
              <path
                 id="path119"
                 style="fill:#664500;fill-opacity:1;fill-rule:nonzero;stroke:none"
                 d="m 0,0 -10,0 c -0.552,0 -1,0.447 -1,1 0,0.553 0.448,1 1,1 L 0,2 C 0.553,2 1,1.553 1,1 1,0.447 0.553,0 0,0" />
            </g>
          </g>
        </g>
      </g>
    </g>
    <g
       transform="matrix(-0.10155779,0.82712179,-0.82712179,-0.10155779,82.781047,136.93985)"
       id="g121">
      <g
         transform="matrix(1.25,0,0,-1.25,0,45)"
         id="g123">
        <g
           id="g125">
          <g
             clip-path="url(#clipPath16)"
             id="g127">
            <g
               transform="translate(28.6885,15.6875)"
               id="g129">
              <path
                 id="path131"
                 style="fill:#6d6e71;fill-opacity:1;fill-rule:nonzero;stroke:none"
                 d="m 0,0 c 0,-5.904 -4.784,-10.688 -10.689,-10.688 -5.902,0 -10.688,4.784 -10.688,10.688 0,5.903 4.786,10.689 10.688,10.689 C -4.784,10.689 0,5.903 0,0"
                 inkscape:connector-curvature="0" />
            </g>
            <g
               transform="translate(26,2.5)"
               id="g133">
              <path
                 id="path135"
                 style="fill:#662113;fill-opacity:1;fill-rule:nonzero;stroke:none"
                 d="m 0,0 -16,0 c -1.665,0 -2.479,1.339 -2.763,2.31 l -2.664,0.055 c -0.153,0.003 -0.297,0.077 -0.389,0.2 -0.092,0.123 -0.123,0.282 -0.083,0.43 l 0.594,2.216 -2.446,0.651 c -0.152,0.041 -0.276,0.151 -0.335,0.296 -0.06,0.146 -0.046,0.311 0.035,0.446 l 1.198,1.993 -2.155,1.192 c -0.139,0.077 -0.234,0.216 -0.254,0.374 -0.02,0.157 0.036,0.316 0.151,0.426 l 1.729,1.647 -1.729,1.646 c -0.115,0.11 -0.171,0.267 -0.151,0.426 0.02,0.158 0.115,0.297 0.254,0.374 l 2.156,1.194 -1.2,1.994 c -0.08,0.134 -0.094,0.299 -0.034,0.445 0.059,0.146 0.183,0.255 0.335,0.296 l 2.446,0.65 -0.594,2.218 c -0.04,0.148 -0.009,0.307 0.083,0.43 0.092,0.123 0.236,0.196 0.39,0.199 l 2.574,0.054 0.058,2.302 c 0.004,0.149 0.074,0.289 0.192,0.381 0.118,0.092 0.271,0.127 0.416,0.094 l 2.521,-0.56 0.718,2.234 c 0.044,0.138 0.147,0.251 0.282,0.308 0.135,0.056 0.287,0.051 0.417,-0.014 l 2.284,-1.138 1.341,2.009 c 0.08,0.119 0.208,0.199 0.35,0.218 0.144,0.018 0.286,-0.025 0.394,-0.119 L -8,26.242 l 1.88,1.635 c 0.109,0.095 0.251,0.137 0.394,0.119 0.143,-0.019 0.27,-0.099 0.35,-0.219 l 1.34,-2.008 2.286,1.138 c 0.13,0.066 0.283,0.07 0.417,0.014 0.135,-0.057 0.237,-0.17 0.282,-0.308 l 0.716,-2.234 2.522,0.56 c 0.146,0.033 0.297,-0.002 0.416,-0.094 0.118,-0.092 0.188,-0.232 0.192,-0.381 L 2.853,22.162 5.427,22.108 C 5.58,22.105 5.724,22.031 5.815,21.909 5.908,21.786 5.939,21.627 5.898,21.479 L 5.304,19.261 7.753,18.611 C 7.905,18.57 8.029,18.461 8.089,18.315 8.148,18.169 8.135,18.004 8.054,17.87 L 6.853,15.876 9.008,14.682 C 9.148,14.605 9.241,14.466 9.262,14.308 9.282,14.149 9.226,13.991 9.11,13.882 L 7.381,12.236 9.11,10.589 C 9.226,10.479 9.282,10.32 9.262,10.163 9.241,10.005 9.148,9.866 9.008,9.789 L 6.854,8.597 8.054,6.604 C 8.135,6.469 8.148,6.304 8.089,6.158 8.029,6.013 7.905,5.903 7.754,5.862 L 5.304,5.211 5.898,2.995 C 5.939,2.847 5.908,2.689 5.816,2.565 5.724,2.442 5.58,2.368 5.427,2.365 L 2.764,2.31 C 2.48,1.339 1.665,0 0,0"
                 inkscape:connector-curvature="0" />
            </g>
            <g
               transform="translate(16.188,7.1758)"
               id="g137">
              <path
                 id="path139"
                 style="fill:#8a4b38;fill-opacity:1;fill-rule:nonzero;stroke:none"
                 d="m 0,0 c -0.022,0 -0.044,0.001 -0.066,0.004 -0.142,0.019 -0.27,0.099 -0.35,0.219 l -1.058,1.585 -1.804,-0.9 C -3.41,0.844 -3.561,0.838 -3.696,0.895 -3.83,0.951 -3.933,1.064 -3.978,1.203 L -4.542,2.96 -6.532,2.518 C -6.68,2.486 -6.831,2.521 -6.948,2.612 -7.066,2.704 -7.136,2.844 -7.14,2.993 L -7.185,4.797 -9.214,4.84 c -0.154,0.003 -0.297,0.077 -0.39,0.2 -0.092,0.122 -0.123,0.281 -0.083,0.43 l 0.465,1.732 -1.922,0.512 c -0.152,0.041 -0.276,0.15 -0.335,0.296 -0.059,0.145 -0.046,0.31 0.035,0.445 l 0.937,1.557 -1.689,0.934 c -0.139,0.077 -0.234,0.216 -0.254,0.373 -0.02,0.158 0.035,0.316 0.151,0.426 l 1.352,1.289 -1.352,1.287 c -0.115,0.11 -0.171,0.268 -0.151,0.426 0.02,0.158 0.115,0.296 0.254,0.374 l 1.689,0.935 -0.937,1.557 c -0.081,0.135 -0.094,0.3 -0.035,0.446 0.059,0.146 0.183,0.255 0.335,0.296 l 1.922,0.51 -0.465,1.735 c -0.04,0.148 -0.009,0.306 0.083,0.429 0.093,0.123 0.236,0.197 0.39,0.2 l 2.029,0.042 0.045,1.805 c 0.004,0.149 0.074,0.289 0.192,0.381 0.117,0.092 0.27,0.127 0.416,0.094 l 1.99,-0.442 0.564,1.756 c 0.045,0.139 0.148,0.252 0.282,0.308 0.136,0.056 0.287,0.052 0.418,-0.013 l 1.804,-0.9 1.058,1.584 c 0.08,0.119 0.208,0.199 0.35,0.218 0.144,0.021 0.286,-0.024 0.394,-0.119 l 1.484,-1.291 1.484,1.291 c 0.11,0.096 0.253,0.138 0.395,0.119 0.142,-0.019 0.269,-0.099 0.349,-0.218 l 1.057,-1.584 1.807,0.9 c 0.13,0.065 0.283,0.069 0.417,0.013 0.135,-0.057 0.237,-0.169 0.282,-0.308 l 0.562,-1.756 1.992,0.442 c 0.145,0.033 0.299,-0.002 0.416,-0.094 0.118,-0.092 0.188,-0.232 0.192,-0.382 l 0.045,-1.804 2.028,-0.042 c 0.154,-0.003 0.297,-0.077 0.389,-0.2 0.093,-0.123 0.123,-0.281 0.083,-0.43 l -0.465,-1.734 1.924,-0.51 c 0.152,-0.041 0.276,-0.15 0.336,-0.296 0.059,-0.146 0.046,-0.311 -0.035,-0.446 l -0.939,-1.558 1.689,-0.934 c 0.14,-0.078 0.233,-0.216 0.254,-0.374 0.02,-0.158 -0.036,-0.316 -0.152,-0.426 l -1.352,-1.287 1.352,-1.289 c 0.116,-0.11 0.172,-0.267 0.152,-0.426 -0.021,-0.157 -0.116,-0.296 -0.254,-0.373 L 14.132,10.012 15.07,8.455 C 15.151,8.32 15.164,8.155 15.105,8.01 15.045,7.864 14.921,7.755 14.77,7.714 L 12.845,7.202 13.31,5.47 C 13.35,5.321 13.32,5.163 13.228,5.04 13.135,4.917 12.992,4.843 12.838,4.84 L 10.81,4.797 10.765,2.993 C 10.761,2.844 10.691,2.704 10.573,2.612 10.456,2.521 10.302,2.486 10.157,2.518 L 8.165,2.96 7.603,1.203 C 7.558,1.064 7.456,0.951 7.321,0.895 7.187,0.837 7.037,0.842 6.904,0.908 L 5.098,1.808 4.04,0.223 C 3.96,0.103 3.833,0.023 3.691,0.004 3.549,-0.014 3.405,0.028 3.296,0.123 L 1.812,1.417 0.329,0.123 C 0.237,0.043 0.12,0 0,0"
                 inkscape:connector-curvature="0" />
            </g>
            <g
               transform="translate(13.5,8.9484)"
               id="g141">
              <path
                 id="path143"
                 style="fill:#8a4b38;fill-opacity:1;fill-rule:nonzero;stroke:none"
                 d="m 0,0 9,0 c 3.521,0 6.5,-2.575 6.5,-4.5 0,-1.65 -1.35,-2 -3,-2 l -16,0 c -1.65,0 -3,0.35 -3,2 0,1.925 2.99,4.5 6.5,4.5"
                 inkscape:connector-curvature="0" />
            </g>
            <g
               transform="translate(26.2217,13.2207)"
               id="g145">
              <path
                 id="path147"
                 style="fill:#d99e82;fill-opacity:1;fill-rule:nonzero;stroke:none"
                 d="m 0,0 c 0,-4.088 -3.68,-7.398 -8.222,-7.398 -4.541,0 -8.221,3.31 -8.221,7.398 0,4.087 3.68,7.4 8.221,7.4 C -3.68,7.4 0,4.087 0,0"
                 inkscape:connector-curvature="0" />
            </g>
            <g
               transform="translate(21.2891,9.5215)"
               id="g149">
              <path
                 id="path151"
                 style="fill:#e6e7e8;fill-opacity:1;fill-rule:nonzero;stroke:none"
                 d="m 0,0 c 0,-2.043 -1.473,-3.699 -3.289,-3.699 -1.817,0 -3.289,1.656 -3.289,3.699 0,2.043 1.472,3.699 3.289,3.699 C -1.473,3.699 0,2.043 0,0"
                 inkscape:connector-curvature="0" />
            </g>
            <g
               transform="translate(19.6445,8.2891)"
               id="g153">
              <path
                 id="path155"
                 style="fill:#231f20;fill-opacity:1;fill-rule:nonzero;stroke:none"
                 d="m 0,0 c 0,-0.908 -0.736,-1.645 -1.645,-1.645 -0.908,0 -1.644,0.737 -1.644,1.645 0,0.908 0.736,1.643 1.644,1.643 C -0.736,1.643 0,0.908 0,0"
                 inkscape:connector-curvature="0" />
            </g>
            <g
               transform="translate(14.7114,14.4551)"
               id="g157">
              <path
                 id="path159"
                 style="fill:#231f20;fill-opacity:1;fill-rule:nonzero;stroke:none"
                 d="m 0,0 c 0,-0.682 -0.552,-1.234 -1.233,-1.234 -0.681,0 -1.234,0.552 -1.234,1.234 0,0.68 0.553,1.232 1.234,1.232 C -0.552,1.232 0,0.68 0,0"
                 inkscape:connector-curvature="0" />
            </g>
            <g
               transform="translate(23.7549,14.4551)"
               id="g161">
              <path
                 id="path163"
                 style="fill:#231f20;fill-opacity:1;fill-rule:nonzero;stroke:none"
                 d="m 0,0 c 0,-0.682 -0.552,-1.234 -1.232,-1.234 -0.682,0 -1.234,0.552 -1.234,1.234 0,0.68 0.552,1.232 1.234,1.232 C -0.552,1.232 0,0.68 0,0"
                 inkscape:connector-curvature="0" />
            </g>
            <g
               transform="translate(11.4224,18.1543)"
               id="g165">
              <path
                 id="path167"
                 style="fill:#c1694f;fill-opacity:1;fill-rule:nonzero;stroke:none"
                 d="m 0,0 c 0,0 4.111,1.645 4.933,0 0.822,-1.645 1.645,-1.645 1.645,-1.645 l 0,4.934 C 6.578,3.289 0,3.289 0,0"
                 inkscape:connector-curvature="0" />
            </g>
            <g
               transform="translate(24.5771,18.1543)"
               id="g169">
              <path
                 id="path171"
                 style="fill:#c1694f;fill-opacity:1;fill-rule:nonzero;stroke:none"
                 d="m 0,0 c 0,0 -4.11,1.645 -4.933,0 -0.822,-1.645 -1.644,-1.645 -1.644,-1.645 l 0,4.934 c 0,0 6.577,0 6.577,-3.289"
                 inkscape:connector-curvature="0" />
            </g>
            <g
               transform="translate(12.2446,17.7437)"
               id="g173">
              <path
                 id="path175"
                 style="fill:#d99e82;fill-opacity:1;fill-rule:nonzero;stroke:none"
                 d="m 0,0 c 0,-1.136 -0.92,-2.056 -2.055,-2.056 -1.136,0 -2.056,0.92 -2.056,2.056 0,1.135 0.92,2.055 2.056,2.055 C -0.92,2.055 0,1.135 0,0"
                 inkscape:connector-curvature="0" />
            </g>
            <g
               transform="translate(27.8662,17.7437)"
               id="g177">
              <path
                 id="path179"
                 style="fill:#d99e82;fill-opacity:1;fill-rule:nonzero;stroke:none"
                 d="m 0,0 c 0,-1.136 -0.92,-2.056 -2.056,-2.056 -1.134,0 -2.055,0.92 -2.055,2.056 0,1.135 0.921,2.055 2.055,2.055 C -0.92,2.055 0,1.135 0,0"
                 inkscape:connector-curvature="0" />
            </g>
            <g
               transform="translate(11,1)"
               id="g72">
              <path
                 id="path74"
                 style="fill:#d99e82;fill-opacity:1;fill-rule:nonzero;stroke:none"
                 d="M 0,0 C -2,0 -2,4 2,4 6,4 6.062,0 4,0 L 0,0 Z"
                 inkscape:connector-curvature="0" />
            </g>
            <g
               transform="translate(21,1)"
               id="g76">
              <path
                 id="path78"
                 style="fill:#d99e82;fill-opacity:1;fill-rule:nonzero;stroke:none"
                 d="M 0,0 C -2,0 -2,4 2,4 6,4 6.062,0 4,0 L 0,0 Z"
                 inkscape:connector-curvature="0" />
            </g>
          </g>
        </g>
      </g>
    </g>
    <g
       transform="matrix(0.76084521,0.2472136,-0.2472136,0.76084521,79.267555,63.839638)"
       id="g185">
      <g
         transform="matrix(1.25,0,0,-1.25,0,47.5)"
         id="g187">
        <g
           id="g189">
          <g
             clip-path="url(#clipPath16)"
             id="g191">
            <g
               transform="translate(30.0488,29.9673)"
               id="g193">
              <path
                 id="path195"
                 style="fill:#ccd6dd;fill-opacity:1;fill-rule:nonzero;stroke:none"
                 d="m 0,0 c 4.423,-4.424 5.71,-21.367 1.289,-25.788 -4.425,-4.424 -12.185,-3.783 -16.607,0.64 -2.979,2.979 -3.834,10.952 0.589,15.377 C -10.305,-5.35 -4.423,4.423 0,0"
                 inkscape:connector-curvature="0" />
            </g>
            <g
               transform="translate(17.9897,3.8916)"
               id="g197">
              <path
                 id="path199"
                 style="fill:#ccd6dd;fill-opacity:1;fill-rule:nonzero;stroke:none"
                 d="m 0,0 c -2.175,-0.273 -5.546,2.28 -5.913,5.912 l -1.329,13.157 c -0.366,3.63 1.687,6.873 4.586,7.24 L 7.84,27.637 c 2.898,0.365 5.483,-1.666 5.912,-5.912 C 14.178,17.473 3.393,0.428 0,0"
                 inkscape:connector-curvature="0" />
            </g>
          </g>
        </g>
        <g
           id="g201">
          <g
             clip-path="url(#clipPath32)"
             id="g30">
            <g
               transform="translate(11.3491,10.5322)"
               id="g204">
              <path
                 id="path206"
                 style="fill:#99aab5;fill-opacity:1;fill-rule:nonzero;stroke:none"
                 d="m 0,0 c -2.174,-0.274 -5.548,2.282 -5.915,5.914 l -1.327,13.154 c -0.367,3.632 1.686,6.875 4.584,7.243 L 7.84,27.638 c 2.898,0.366 5.483,-1.665 5.912,-5.911 C 14.18,17.473 3.393,0.428 0,0"
                 inkscape:connector-curvature="0" />
            </g>
          </g>
        </g>
        <g
           id="g208">
          <g
             clip-path="url(#clipPath44)"
             id="g210">
            <g
               transform="translate(11.8501,14.7217)"
               id="g212">
              <path
                 id="path214"
                 style="fill:#ccd6dd;fill-opacity:1;fill-rule:nonzero;stroke:none"
                 d="m 0,0 c -1.613,-0.202 -4.115,1.693 -4.388,4.389 l -0.985,9.758 c -0.272,2.694 1.252,5.1 3.402,5.374 l 7.788,0.984 C 7.968,20.777 9.886,19.271 10.204,16.119 10.522,12.964 2.518,0.319 0,0"
                 inkscape:connector-curvature="0" />
            </g>
          </g>
        </g>
        <g
           id="g216">
          <g
             clip-path="url(#clipPath56)"
             id="g54">
            <g
               transform="translate(6.3511,20.2207)"
               id="g219">
              <path
                 id="path221"
                 style="fill:#99aab5;fill-opacity:1;fill-rule:nonzero;stroke:none"
                 d="m 0,0 c -1.612,-0.204 -4.114,1.693 -4.387,4.387 l -0.985,9.759 c -0.272,2.695 1.251,5.101 3.401,5.375 l 7.788,0.983 C 7.968,20.777 9.886,19.272 10.205,16.118 10.522,12.962 2.518,0.318 0,0"
                 inkscape:connector-curvature="0" />
            </g>
          </g>
        </g>
        <g
           id="g223">
          <g
             clip-path="url(#clipPath68)"
             id="g225">
            <g
               transform="translate(7.2471,24.1943)"
               id="g227">
              <path
                 id="path229"
                 style="fill:#ccd6dd;fill-opacity:1;fill-rule:nonzero;stroke:none"
                 d="m 0,0 c -0.993,-0.125 -2.533,1.043 -2.701,2.702 l -0.606,6.006 c -0.167,1.659 0.77,3.14 2.093,3.308 l 4.795,0.606 C 4.905,12.79 6.084,11.863 6.28,9.923 6.477,7.98 1.548,0.198 0,0"
                 inkscape:connector-curvature="0" />
            </g>
            <g
               transform="translate(31.6094,22.6035)"
               id="g231">
              <path
                 id="path233"
                 style="fill:#66757f;fill-opacity:1;fill-rule:nonzero;stroke:none"
                 d="m 0,0 c 0.801,-2.371 1.545,-11.57 -1.532,-15.543 -3.079,-3.972 -8.043,1.389 -5.312,6.205 C -4.114,-4.523 -0.809,2.396 0,0"
                 inkscape:connector-curvature="0" />
            </g>
          </g>
        </g>
      </g>
    </g>
    <g
       transform="matrix(0.29968527,-0.74174708,0.74174708,0.29968527,127.575,81.566437)"
       id="g235">
      <g
         transform="matrix(1.25,0,0,-1.25,0,47.5)"
         id="g237">
        <g
           id="g239">
          <g
             clip-path="url(#clipPath16)"
             id="g241">
            <g
               transform="translate(3.6968,24.6113)"
               id="g243">
              <path
                 id="path245"
                 style="fill:#414042;fill-opacity:1;fill-rule:nonzero;stroke:none"
                 d="m 0,0 c -0.391,-0.391 -0.391,-1.023 0,-1.414 0.391,-0.391 1.023,-0.391 1.414,0 l 9.192,9.192 c 0.391,0.39 0.391,1.023 0,1.414 -0.391,0.391 -1.023,0.391 -1.414,0 L 0,0 Z"
                 inkscape:connector-curvature="0" />
            </g>
            <g
               transform="translate(37,5)"
               id="g247">
              <path
                 id="path249"
                 style="fill:#99aab5;fill-opacity:1;fill-rule:nonzero;stroke:none"
                 d="m 0,0 c 0,-4 -4,-4 -4,-4 l -28,0 c 0,0 -4,0 -4,4 l 0,18 c 0,0 0,4 4,4 l 28,0 c 4,0 4,-4 4,-4 L 0,0 Z"
                 inkscape:connector-curvature="0" />
            </g>
            <g
               transform="translate(16.5605,33.9395)"
               id="g251">
              <path
                 id="path253"
                 style="fill:#414042;fill-opacity:1;fill-rule:nonzero;stroke:none"
                 d="m 0,0 c -0.391,-0.391 -1.023,-0.391 -1.414,0 l -0.707,0.707 c -0.391,0.391 -0.391,1.023 0,1.414 0.391,0.391 1.023,0.391 1.414,0 L 0,1.414 C 0.391,1.023 0.391,0.391 0,0"
                 inkscape:connector-curvature="0" />
            </g>
            <g
               transform="translate(34,18.5)"
               id="g255">
              <path
                 id="path257"
                 style="fill:#292f33;fill-opacity:1;fill-rule:nonzero;stroke:none"
                 d="m 0,0 c 0,-3.038 -2.462,-5.5 -5.5,-5.5 -3.038,0 -5.5,2.462 -5.5,5.5 0,3.038 2.462,5.5 5.5,5.5 C -2.462,5.5 0,3.038 0,0"
                 inkscape:connector-curvature="0" />
            </g>
            <g
               transform="translate(32,7.5)"
               id="g259">
              <path
                 id="path261"
                 style="fill:#292f33;fill-opacity:1;fill-rule:nonzero;stroke:none"
                 d="M 0,0 C 0,-1.934 -1.566,-3.5 -3.5,-3.5 -5.434,-3.5 -7,-1.934 -7,0 -7,1.934 -5.434,3.5 -3.5,3.5 -1.566,3.5 0,1.934 0,0"
                 inkscape:connector-curvature="0" />
            </g>
            <g
               transform="translate(32,18.5)"
               id="g263">
              <path
                 id="path265"
                 style="fill:#66757f;fill-opacity:1;fill-rule:nonzero;stroke:none"
                 d="M 0,0 C 0,-1.934 -1.566,-3.5 -3.5,-3.5 -5.434,-3.5 -7,-1.934 -7,0 -7,1.934 -5.434,3.5 -3.5,3.5 -1.566,3.5 0,1.934 0,0"
                 inkscape:connector-curvature="0" />
            </g>
            <g
               transform="translate(30,7.5)"
               id="g267">
              <path
                 id="path269"
                 style="fill:#66757f;fill-opacity:1;fill-rule:nonzero;stroke:none"
                 d="M 0,0 C 0,-0.829 -0.671,-1.5 -1.5,-1.5 -2.329,-1.5 -3,-0.829 -3,0 -3,0.829 -2.329,1.5 -1.5,1.5 -0.671,1.5 0,0.829 0,0"
                 inkscape:connector-curvature="0" />
            </g>
            <g
               transform="translate(13,11.5)"
               id="g271">
              <path
                 id="path273"
                 style="fill:#292f33;fill-opacity:1;fill-rule:nonzero;stroke:none"
                 d="M 0,0 C 0,-0.828 -0.671,-1.5 -1.5,-1.5 -2.329,-1.5 -3,-0.828 -3,0 -3,0.828 -2.329,1.5 -1.5,1.5 -0.671,1.5 0,0.828 0,0"
                 inkscape:connector-curvature="0" />
            </g>
            <g
               transform="translate(8,11.5)"
               id="g275">
              <path
                 id="path277"
                 style="fill:#292f33;fill-opacity:1;fill-rule:nonzero;stroke:none"
                 d="M 0,0 C 0,-0.828 -0.671,-1.5 -1.5,-1.5 -2.329,-1.5 -3,-0.828 -3,0 -3,0.828 -2.329,1.5 -1.5,1.5 -0.671,1.5 0,0.828 0,0"
                 inkscape:connector-curvature="0" />
            </g>
            <g
               transform="translate(13,16.5)"
               id="g279">
              <path
                 id="path281"
                 style="fill:#292f33;fill-opacity:1;fill-rule:nonzero;stroke:none"
                 d="M 0,0 C 0,-0.828 -0.671,-1.5 -1.5,-1.5 -2.329,-1.5 -3,-0.828 -3,0 -3,0.828 -2.329,1.5 -1.5,1.5 -0.671,1.5 0,0.828 0,0"
                 inkscape:connector-curvature="0" />
            </g>
            <g
               transform="translate(18,16.5)"
               id="g283">
              <path
                 id="path285"
                 style="fill:#292f33;fill-opacity:1;fill-rule:nonzero;stroke:none"
                 d="M 0,0 C 0,-0.828 -0.671,-1.5 -1.5,-1.5 -2.329,-1.5 -3,-0.828 -3,0 -3,0.828 -2.329,1.5 -1.5,1.5 -0.671,1.5 0,0.828 0,0"
                 inkscape:connector-curvature="0" />
            </g>
            <g
               transform="translate(18,11.5)"
               id="g287">
              <path
                 id="path289"
                 style="fill:#292f33;fill-opacity:1;fill-rule:nonzero;stroke:none"
                 d="M 0,0 C 0,-0.828 -0.671,-1.5 -1.5,-1.5 -2.329,-1.5 -3,-0.828 -3,0 -3,0.828 -2.329,1.5 -1.5,1.5 -0.671,1.5 0,0.828 0,0"
                 inkscape:connector-curvature="0" />
            </g>
            <g
               transform="translate(18,6.5)"
               id="g291">
              <path
                 id="path293"
                 style="fill:#292f33;fill-opacity:1;fill-rule:nonzero;stroke:none"
                 d="M 0,0 C 0,-0.828 -0.671,-1.5 -1.5,-1.5 -2.329,-1.5 -3,-0.828 -3,0 -3,0.828 -2.329,1.5 -1.5,1.5 -0.671,1.5 0,0.828 0,0"
                 inkscape:connector-curvature="0" />
            </g>
            <g
               transform="translate(8,6.5)"
               id="g295">
              <path
                 id="path297"
                 style="fill:#292f33;fill-opacity:1;fill-rule:nonzero;stroke:none"
                 d="M 0,0 C 0,-0.828 -0.671,-1.5 -1.5,-1.5 -2.329,-1.5 -3,-0.828 -3,0 -3,0.828 -2.329,1.5 -1.5,1.5 -0.671,1.5 0,0.828 0,0"
                 inkscape:connector-curvature="0" />
            </g>
            <g
               transform="translate(8,16.5)"
               id="g299">
              <path
                 id="path301"
                 style="fill:#292f33;fill-opacity:1;fill-rule:nonzero;stroke:none"
                 d="M 0,0 C 0,-0.828 -0.671,-1.5 -1.5,-1.5 -2.329,-1.5 -3,-0.828 -3,0 -3,0.828 -2.329,1.5 -1.5,1.5 -0.671,1.5 0,0.828 0,0"
                 inkscape:connector-curvature="0" />
            </g>
            <g
               transform="translate(13,21.5)"
               id="g80">
              <path
                 id="path82"
                 style="fill:#292f33;fill-opacity:1;fill-rule:nonzero;stroke:none"
                 d="M 0,0 C 0,-0.828 -0.671,-1.5 -1.5,-1.5 -2.329,-1.5 -3,-0.828 -3,0 -3,0.828 -2.329,1.5 -1.5,1.5 -0.671,1.5 0,0.828 0,0"
                 inkscape:connector-curvature="0" />
            </g>
            <g
               transform="translate(18,21.5)"
               id="g305">
              <path
                 id="path86"
                 style="fill:#292f33;fill-opacity:1;fill-rule:nonzero;stroke:none"
                 d="M 0,0 C 0,-0.828 -0.671,-1.5 -1.5,-1.5 -2.329,-1.5 -3,-0.828 -3,0 -3,0.828 -2.329,1.5 -1.5,1.5 -0.671,1.5 0,0.828 0,0"
                 inkscape:connector-curvature="0" />
            </g>
            <g
               transform="translate(8,21.5)"
               id="g88">
              <path
                 id="path90"
                 style="fill:#292f33;fill-opacity:1;fill-rule:nonzero;stroke:none"
                 d="M 0,0 C 0,-0.828 -0.671,-1.5 -1.5,-1.5 -2.329,-1.5 -3,-0.828 -3,0 -3,0.828 -2.329,1.5 -1.5,1.5 -0.671,1.5 0,0.828 0,0"
                 inkscape:connector-curvature="0" />
            </g>
            <g
               transform="translate(13,6.5)"
               id="g92">
              <path
                 id="path94"
                 style="fill:#292f33;fill-opacity:1;fill-rule:nonzero;stroke:none"
                 d="M 0,0 C 0,-0.828 -0.671,-1.5 -1.5,-1.5 -2.329,-1.5 -3,-0.828 -3,0 -3,0.828 -2.329,1.5 -1.5,1.5 -0.671,1.5 0,0.828 0,0"
                 inkscape:connector-curvature="0" />
            </g>
          </g>
        </g>
      </g>
    </g>
    <g
       transform="matrix(-0.04882953,-0.69829484,0.69829484,-0.04882953,54.147701,136.34314)"
       id="g312">
      <g
         transform="matrix(1.25,0,0,-1.25,0,47.5)"
         id="g314">
        <g
           id="g316">
          <g
             clip-path="url(#clipPath16)"
             id="g318">
            <g
               transform="translate(36,19)"
               id="g320">
              <path
                 id="path322"
                 style="fill:#ffcc4d;fill-opacity:1;fill-rule:nonzero;stroke:none"
                 d="m 0,0 c 0,-9.389 -7.611,-17 -17,-17 -9.388,0 -17,7.611 -17,17 0,9.388 7.612,17 17,17 C -7.611,17 0,9.388 0,0"
                 inkscape:connector-curvature="0" />
            </g>
            <g
               transform="translate(17.6641,26.457)"
               id="g324">
              <path
                 id="path326"
                 style="fill:#664500;fill-opacity:1;fill-rule:nonzero;stroke:none"
                 d="m 0,0 c -0.207,0.09 -0.451,0.03 -0.592,-0.148 -0.01,-0.012 -0.979,-1.202 -3.335,-1.844 -0.775,-0.212 -1.531,-0.319 -2.244,-0.319 -0.993,0 -1.559,0.212 -1.562,0.213 -0.21,0.084 -0.453,0.014 -0.587,-0.17 -0.135,-0.184 -0.128,-0.435 0.016,-0.611 0.071,-0.088 1.779,-2.148 4.124,-2.148 0.351,0 0.702,0.048 1.043,0.14 2.854,0.779 3.41,4.209 3.432,4.354 C 0.329,-0.309 0.207,-0.091 0,0"
                 inkscape:connector-curvature="0" />
            </g>
            <g
               transform="translate(28.6387,24.3022)"
               id="g328">
              <path
                 id="path330"
                 style="fill:#664500;fill-opacity:1;fill-rule:nonzero;stroke:none"
                 d="m 0,0 c -0.138,0.181 -0.38,0.245 -0.59,0.159 -0.006,-0.003 -0.633,-0.256 -1.737,-0.256 -0.661,0 -1.359,0.09 -2.073,0.266 C -6.77,0.751 -7.77,1.917 -7.777,1.927 -7.923,2.103 -8.165,2.16 -8.373,2.064 -8.58,1.969 -8.696,1.746 -8.656,1.522 c 0.026,-0.145 0.668,-3.56 3.539,-4.267 0.31,-0.076 0.629,-0.115 0.946,-0.115 2.397,0 4.099,2.159 4.17,2.252 C 0.138,-0.43 0.137,-0.18 0,0"
                 inkscape:connector-curvature="0" />
            </g>
            <g
               transform="translate(10.9985,27)"
               id="g332">
              <path
                 id="path334"
                 style="fill:#664500;fill-opacity:1;fill-rule:nonzero;stroke:none"
                 d="m 0,0 c -0.448,0 -0.855,0.303 -0.969,0.757 -0.134,0.535 0.19,1.077 0.724,1.212 0.036,0.01 3.593,0.962 5.352,4.478 C 5.354,6.941 5.953,7.143 6.449,6.895 6.943,6.648 7.143,6.047 6.896,5.553 4.715,1.191 0.425,0.075 0.244,0.03 0.162,0.009 0.081,0 0,0"
                 inkscape:connector-curvature="0" />
            </g>
            <g
               transform="translate(27,27)"
               id="g336">
              <path
                 id="path338"
                 style="fill:#664500;fill-opacity:1;fill-rule:nonzero;stroke:none"
                 d="m 0,0 c -0.08,0 -0.161,0.01 -0.242,0.03 -0.182,0.045 -4.472,1.161 -6.653,5.523 -0.247,0.494 -0.046,1.095 0.448,1.342 0.493,0.247 1.093,0.046 1.342,-0.448 C -3.348,2.93 0.21,1.979 0.246,1.969 0.779,1.832 1.104,1.289 0.968,0.754 0.853,0.302 0.447,0 0,0"
                 inkscape:connector-curvature="0" />
            </g>
            <g
               transform="translate(19,8.0352)"
               id="g340">
              <path
                 id="path342"
                 style="fill:#664500;fill-opacity:1;fill-rule:nonzero;stroke:none"
                 d="m 0,0 c -3.623,0 -6.027,-0.422 -9,-1 -0.679,-0.131 -2,0 -2,2 0,4 4.595,9 11,9 C 6.404,10 11,5 11,1 11,-1 9.679,-1.132 9,-1 6.027,-0.422 3.623,0 0,0"
                 inkscape:connector-curvature="0" />
            </g>
            <g
               transform="translate(10.9995,12)"
               id="g344">
              <path
                 id="path346"
                 style="fill:#ffffff;fill-opacity:1;fill-rule:nonzero;stroke:none"
                 d="m 0,0 c 0,0 3,1 8,1 5.001,0 8.001,-1 8.001,-1 0,0 -2,4 -8.001,4 C 2,4 0,0 0,0"
                 inkscape:connector-curvature="0" />
            </g>
          </g>
        </g>
      </g>
    </g>
    <g
       transform="matrix(0.63403768,-0.20601133,0.20601133,0.63403768,117.33964,137.42497)"
       id="g348">
      <g
         transform="matrix(1.25,0,0,-1.25,0,47.5)"
         id="g350">
        <g
           id="g352">
          <g
             clip-path="url(#clipPath16)"
             id="g354">
            <g
               transform="translate(10,21.4395)"
               id="g356">
              <path
                 id="path358"
                 style="fill:#9266cc;fill-opacity:1;fill-rule:nonzero;stroke:none"
                 d="M 0,0 C 0,4 2,8 0,10 -2,12 -3,8 -2,8 -0.586,8 0,6 -1,3 -2,0 0,-1 0,0"
                 inkscape:connector-curvature="0" />
            </g>
            <g
               transform="translate(6.125,21.4395)"
               id="g360">
              <path
                 id="path362"
                 style="fill:#9266cc;fill-opacity:1;fill-rule:nonzero;stroke:none"
                 d="M 0,0 C 0,4 2,8 0,10 -2,12 -3,8 -2,8 -0.586,8 0,6 -1,3 -2,0 0,-1 0,0"
                 inkscape:connector-curvature="0" />
            </g>
            <g
               transform="translate(37,2.0645)"
               id="g364">
              <path
                 id="path366"
                 style="fill:#aa8dd8;fill-opacity:1;fill-rule:nonzero;stroke:none"
                 d="m 0,0 c 0,-1 -1,-1 -2,-1 l -23,0 c -5,0 -7.272,3.09 -8,6 -1,4 2,11 0,12 -2,1 -3,1 -3,3 0,2 4.47,5.265 7,4 4,-2 2.767,-6.932 2,-10 -0.88,-3.521 1.115,-3.594 5,-5 C -17.061,7.213 -9.68,4.561 -8,4 -5,3 0,1 0,0"
                 inkscape:connector-curvature="0" />
            </g>
            <g
               transform="translate(11.9248,12.0645)"
               id="g368">
              <path
                 id="path370"
                 style="fill:#ffcc4d;fill-opacity:1;fill-rule:nonzero;stroke:none"
                 d="m 0,0 c 2.887,-1 3.849,-9 13.472,-9 6.377,0 8.66,5.479 8.66,11 0,5.523 -5.17,10 -11.547,10 C 4.208,12 -0.913,0.316 0,0"
                 inkscape:connector-curvature="0" />
            </g>
            <g
               transform="translate(25.9141,3.0625)"
               id="g372">
              <path
                 id="path374"
                 style="fill:#ffac33;fill-opacity:1;fill-rule:nonzero;stroke:none"
                 d="m 0,0 c 1.708,0 3.389,0.48 4.893,1.418 2.184,1.361 3.728,3.527 4.347,6.098 1.531,6.363 -2.206,12.834 -8.329,14.425 -7.392,1.923 -14.919,-2.769 -16.767,-10.455 -0.258,-1.072 0.369,-2.158 1.399,-2.425 1.027,-0.272 2.076,0.382 2.335,1.455 1.334,5.546 6.761,8.93 12.1,7.544 C 4.041,17.004 6.521,12.709 5.506,8.486 5.137,6.953 4.216,5.66 2.912,4.848 1.607,4.035 0.076,3.797 -1.398,4.182 c -1.081,0.279 -1.992,0.98 -2.565,1.972 -0.572,0.994 -0.74,2.159 -0.469,3.282 0.191,0.794 0.668,1.464 1.344,1.886 0.676,0.421 1.527,0.707 2.234,0.345 1.298,-0.665 1.298,-2.665 0.336,-3.665 -0.752,-0.781 1.604,-1.065 2.887,0 1.151,0.955 1.645,2.492 1.069,4.199 -0.582,1.724 -1.805,2.943 -3.358,3.347 -1.762,0.457 -3.59,0.176 -5.148,-0.797 C -6.625,13.78 -7.726,12.236 -8.166,10.404 -8.686,8.246 -8.365,6.006 -7.263,4.098 -6.16,2.188 -4.41,0.84 -2.332,0.301 -1.559,0.1 -0.776,0 0,0"
                 inkscape:connector-curvature="0" />
            </g>
          </g>
        </g>
      </g>
    </g>
    <g
       transform="matrix(-0.76522125,0.40687535,-0.40687535,-0.76522125,83.712213,73.785474)"
       id="g376">
      <g
         transform="matrix(1.25,0,0,-1.25,0,47.5)"
         id="g378">
        <g
           id="g380">
          <g
             clip-path="url(#clipPath16)"
             id="g382">
            <g
               transform="translate(19,5)"
               id="g384">
              <path
                 id="path386"
                 style="fill:#9aaab4;fill-opacity:1;fill-rule:nonzero;stroke:none"
                 d="m 0,0 c -4.418,0 -8,3.582 -8,8 0,4.418 3.582,8 8,8 C 4.418,16 8,12.418 8,8 8,3.582 4.418,0 0,0 M 0,20 C -6.627,20 -12,14.627 -12,8 -12,1.373 -6.627,-4 0,-4 6.627,-4 12,1.373 12,8 12,14.627 6.627,20 0,20"
                 inkscape:connector-curvature="0" />
            </g>
            <g
               transform="translate(30,32)"
               id="g388">
              <path
                 id="path390"
                 style="fill:#5dadec;fill-opacity:1;fill-rule:nonzero;stroke:none"
                 d="m 0,0 -4,5 -7,0 -7,0 -4,-5 11,-9 11,9 z"
                 inkscape:connector-curvature="0" />
            </g>
            <g
               transform="translate(30,32)"
               id="g392">
              <path
                 id="path394"
                 style="fill:#8ccaf7;fill-opacity:1;fill-rule:nonzero;stroke:none"
                 d="m 0,0 -4,5 -7,0 -7,0 -4,-5 11,0 11,0 z"
                 inkscape:connector-curvature="0" />
            </g>
            <g
               transform="translate(30,32)"
               id="g396">
              <path
                 id="path398"
                 style="fill:#5dadec;fill-opacity:1;fill-rule:nonzero;stroke:none"
                 d="m 0,0 -4,5 -6,0 -1,0 0,-5 1,0 10,0 z"
                 inkscape:connector-curvature="0" />
            </g>
            <g
               transform="translate(19,32)"
               id="g400">
              <path
                 id="path402"
                 style="fill:#8ccaf7;fill-opacity:1;fill-rule:nonzero;stroke:none"
                 d="M 0,0 11,0 0,-9 0,0 Z"
                 inkscape:connector-curvature="0" />
            </g>
            <g
               transform="translate(26,24)"
               id="g404">
              <path
                 id="path406"
                 style="fill:#9aaab4;fill-opacity:1;fill-rule:nonzero;stroke:none"
                 d="m 0,0 c 0,-1.657 -1.343,-3 -3,-3 l -8,0 c -1.657,0 -3,1.343 -3,3 0,1.657 1.343,3 3,3 l 8,0 C -1.343,3 0,1.657 0,0"
                 inkscape:connector-curvature="0" />
            </g>
          </g>
        </g>
      </g>
    </g>
    <g
       transform="matrix(0.59513866,0.21661276,-0.21661276,0.59513866,161.86825,84.144679)"
       id="g408">
      <g
         transform="matrix(1.25,0,0,-1.25,0,47.5)"
         id="g410">
        <g
           id="g412">
          <g
             clip-path="url(#clipPath16)"
             id="g414">
            <g
               transform="translate(35.751,15)"
               id="g416">
              <path
                 id="path418"
                 style="fill:#77b255;fill-opacity:1;fill-rule:nonzero;stroke:none"
                 d="m 0,0 c -3.382,0 -11.9,-3.549 -15.751,-7.158 l 0,12.158 c 0,0.553 -0.447,1 -1,1 -0.552,0 -1,-0.447 -1,-1 l 0,-12.341 C -21.504,-3.669 -30.26,0 -33.699,0 c -0.929,0 10.861,-13.992 15.948,-12.599 l 0,-0.401 c 0,-0.553 0.448,-1 1,-1 0.553,0 1,0.447 1,1 l 0,0.356 C -10.563,-13.638 0.917,0 0,0"
                 inkscape:connector-curvature="0" />
            </g>
            <g
               transform="translate(26,23.5835)"
               id="g420">
              <path
                 id="path422"
                 style="fill:#ea596e;fill-opacity:1;fill-rule:nonzero;stroke:none"
                 d="m 0,0 c 0,-6.351 -1.707,-9.583 -7,-9.583 -5.293,0 -7,3.232 -7,9.583 0,6.351 5,13.417 7,13.417 2,0 7,-7.066 7,-13.417"
                 inkscape:connector-curvature="0" />
            </g>
            <g
               transform="translate(23.7949,35)"
               id="g424">
              <path
                 id="path426"
                 style="fill:#f4abba;fill-opacity:1;fill-rule:nonzero;stroke:none"
                 d="M 0,0 C -0.48,0 -4.106,-14.271 -4.803,-19.279 -5.549,-14.271 -9.314,0 -9.795,0 c -1,0 -6,-9 -6,-13 0,-4 5.707,-8 11,-8 C 0.498,-21 6,-17 6,-13 6,-9 1,0 0,0"
                 inkscape:connector-curvature="0" />
            </g>
          </g>
        </g>
      </g>
    </g>
    <g
       transform="matrix(-0.9998477,-0.01745241,0.01745241,-0.9998477,154.94889,135.62061)"
       id="g428">
      <g
         transform="matrix(1.25,0,0,-1.25,0,47.5)"
         id="g430">
        <g
           id="g432">
          <g
             clip-path="url(#clipPath16)"
             id="g434">
            <g
               transform="translate(36,19)"
               id="g436">
              <path
                 id="path438"
                 style="fill:#ffcc4d;fill-opacity:1;fill-rule:nonzero;stroke:none"
                 d="m 0,0 c 0,-9.389 -7.611,-17 -17,-17 -9.388,0 -17,7.611 -17,17 0,9.388 7.612,17 17,17 C -7.611,17 0,9.388 0,0"
                 inkscape:connector-curvature="0" />
            </g>
            <g
               transform="translate(28.335,14.3711)"
               id="g440">
              <path
                 id="path442"
                 style="fill:#664500;fill-opacity:1;fill-rule:nonzero;stroke:none"
                 d="m 0,0 c -0.178,0.161 -0.444,0.171 -0.635,0.029 -0.039,-0.029 -3.922,-2.9 -8.7,-2.9 -4.766,0 -8.662,2.871 -8.7,2.9 -0.191,0.142 -0.457,0.13 -0.635,-0.029 -0.177,-0.16 -0.217,-0.424 -0.094,-0.628 0.129,-0.215 3.217,-5.243 9.429,-5.243 6.212,0 9.301,5.028 9.429,5.243 C 0.217,-0.423 0.178,-0.16 0,0"
                 inkscape:connector-curvature="0" />
            </g>
            <g
               transform="translate(19,30)"
               id="g444">
              <path
                 id="path446"
                 style="fill:#5dadec;fill-opacity:1;fill-rule:nonzero;stroke:none"
                 d="M 0,0 C -6.627,0 -12,0.567 -12,2.5 -12,4.433 -6.627,5 0,5 6.627,5 12,4.433 12,2.5 12,0.567 6.627,0 0,0 m 0,7 c -8.836,0 -16,-1.686 -16,-5 0,-3.313 7.164,-5 16,-5 8.836,0 16,1.687 16,5 0,3.314 -7.164,5 -16,5"
                 inkscape:connector-curvature="0" />
            </g>
            <g
               transform="translate(11.375,30.9375)"
               id="g448">
              <path
                 id="path450"
                 style="fill:#ffcc4d;fill-opacity:1;fill-rule:nonzero;stroke:none"
                 d="m 0,0 c -3.397,1.324 -2.5,1.991 -0.062,3.23 2.308,1.172 4.92,1.832 7.687,1.832 2.893,0 5.616,-0.722 8.001,-1.997 0.695,-0.372 1.432,-0.885 2.124,-1.346"
                 inkscape:connector-curvature="0" />
            </g>
            <g
               transform="translate(27,18)"
               id="g452">
              <path
                 id="path454"
                 style="fill:#664500;fill-opacity:1;fill-rule:nonzero;stroke:none"
                 d="M 0,0 C -0.419,0 -0.809,0.265 -0.948,0.684 -1.151,1.283 -1.967,3 -3,3 -4.062,3 -4.889,1.173 -5.052,0.684 -5.227,0.16 -5.788,-0.124 -6.316,0.052 -6.84,0.226 -7.123,0.792 -6.948,1.316 -6.823,1.693 -5.645,5 -3,5 -0.355,5 0.823,1.693 0.948,1.316 1.123,0.792 0.84,0.226 0.316,0.052 0.211,0.017 0.105,0 0,0"
                 inkscape:connector-curvature="0" />
            </g>
            <g
               transform="translate(17,18)"
               id="g456">
              <path
                 id="path458"
                 style="fill:#664500;fill-opacity:1;fill-rule:nonzero;stroke:none"
                 d="M 0,0 C -0.419,0 -0.809,0.265 -0.949,0.684 -1.152,1.283 -1.966,3 -3,3 -4.062,3 -4.888,1.173 -5.051,0.684 -5.226,0.16 -5.79,-0.124 -6.316,0.052 -6.84,0.226 -7.124,0.792 -6.949,1.316 -6.823,1.693 -5.645,5 -3,5 -0.355,5 0.823,1.693 0.949,1.316 1.124,0.792 0.84,0.226 0.316,0.052 0.211,0.017 0.105,0 0,0"
                 inkscape:connector-curvature="0" />
            </g>
          </g>
        </g>
      </g>
    </g>
    <g
       transform="matrix(-0.93205423,0.04884689,-0.04884689,-0.93205423,146.69041,64.685144)"
       id="g460">
      <g
         transform="matrix(1.25,0,0,-1.25,0,47.5)"
         id="g462">
        <g
           id="g464">
          <g
             clip-path="url(#clipPath16)"
             id="g466">
            <g
               transform="translate(35.1934,23.6709)"
               id="g468">
              <path
                 id="path470"
                 style="fill:#f4abba;fill-opacity:1;fill-rule:nonzero;stroke:none"
                 d="m 0,0 c 0.387,0.371 0.733,0.795 1.02,1.28 1.685,2.853 0.269,10.292 -0.592,10.8 -0.696,0.411 -5.53,-1.05 -8.246,-3.132 -2.499,1.497 -5.344,2.381 -8.375,2.381 -3.022,0 -5.856,-0.879 -8.349,-2.367 -2.721,2.075 -7.533,3.528 -8.227,3.118 -0.861,-0.508 -2.276,-7.947 -0.592,-10.8 0.278,-0.471 0.615,-0.884 0.989,-1.249 -1.156,-2.552 -1.821,-5.342 -1.821,-8.18 0,-9.99 8.01,-12.522 18,-12.522 9.989,0 18,2.532 18,12.522 C 1.807,-5.322 1.146,-2.543 0,0"
                 inkscape:connector-curvature="0" />
            </g>
            <g
               transform="translate(8.3979,31.0352)"
               id="g472">
              <path
                 id="path474"
                 style="fill:#ea596e;fill-opacity:1;fill-rule:nonzero;stroke:none"
                 d="M 0,0 C -2.166,1.268 -4.402,2.08 -4.8,1.845 -5.37,1.509 -5.883,-3.153 -5.151,-6.419 -3.879,-3.938 -2.112,-1.738 0,0"
                 inkscape:connector-curvature="0" />
            </g>
            <g
               transform="translate(34.7529,24.6157)"
               id="g476">
              <path
                 id="path478"
                 style="fill:#ea596e;fill-opacity:1;fill-rule:nonzero;stroke:none"
                 d="M 0,0 C 0.732,3.267 0.219,7.928 -0.351,8.265 -0.749,8.5 -2.985,7.687 -5.151,6.419 -3.038,4.682 -1.271,2.482 0,0"
                 inkscape:connector-curvature="0" />
            </g>
            <g
               transform="translate(29,13.875)"
               id="g480">
              <path
                 id="path482"
                 style="fill:#ea596e;fill-opacity:1;fill-rule:nonzero;stroke:none"
                 d="m 0,0 c 0,-4.487 -3.097,-9.375 -10,-9.375 -6.904,0 -10,4.888 -10,9.375 0,4.487 3.096,5.625 10,5.625 C -3.097,5.625 0,4.487 0,0"
                 inkscape:connector-curvature="0" />
            </g>
            <g
               transform="translate(16,12.4004)"
               id="g484">
              <path
                 id="path486"
                 style="fill:#662113;fill-opacity:1;fill-rule:nonzero;stroke:none"
                 d="M 0,0 C 0,-1.857 -0.34,-2.4 -1.5,-2.4 -2.66,-2.4 -3,-1.857 -3,0 -3,1.856 -2.66,2.399 -1.5,2.399 -0.34,2.399 0,1.856 0,0"
                 inkscape:connector-curvature="0" />
            </g>
            <g
               transform="translate(25,12.4004)"
               id="g488">
              <path
                 id="path490"
                 style="fill:#662113;fill-opacity:1;fill-rule:nonzero;stroke:none"
                 d="M 0,0 C 0,-1.857 -0.34,-2.4 -1.5,-2.4 -2.66,-2.4 -3,-1.857 -3,0 -3,1.856 -2.66,2.399 -1.5,2.399 -0.34,2.399 0,1.856 0,0"
                 inkscape:connector-curvature="0" />
            </g>
            <g
               transform="translate(10,20)"
               id="g492">
              <path
                 id="path494"
                 style="fill:#292f33;fill-opacity:1;fill-rule:nonzero;stroke:none"
                 d="m 0,0 c 0,-1.104 -0.896,-2 -2,-2 -1.104,0 -2,0.896 -2,2 0,1.104 0.896,2 2,2 1.104,0 2,-0.896 2,-2"
                 inkscape:connector-curvature="0" />
            </g>
            <g
               transform="translate(32,20)"
               id="g496">
              <path
                 id="path498"
                 style="fill:#292f33;fill-opacity:1;fill-rule:nonzero;stroke:none"
                 d="m 0,0 c 0,-1.104 -0.896,-2 -2,-2 -1.104,0 -2,0.896 -2,2 0,1.104 0.896,2 2,2 1.104,0 2,-0.896 2,-2"
                 inkscape:connector-curvature="0" />
            </g>
          </g>
        </g>
      </g>
    </g>
  </g>
</svg>
