<?xml version="1.0" encoding="UTF-8" standalone="no"?>
<svg
   xmlns:dc="http://purl.org/dc/elements/1.1/"
   xmlns:cc="http://creativecommons.org/ns#"
   xmlns:rdf="http://www.w3.org/1999/02/22-rdf-syntax-ns#"
   xmlns:svg="http://www.w3.org/2000/svg"
   xmlns="http://www.w3.org/2000/svg"
   xmlns:sodipodi="http://sodipodi.sourceforge.net/DTD/sodipodi-0.dtd"
   xmlns:inkscape="http://www.inkscape.org/namespaces/inkscape"
   version="1.1"
   id="svg2"
   viewBox="0 0 200 200"
   height="200px"
   width="200px"
   inkscape:version="0.91 r13725"
   sodipodi:docname="32.svg">
  <metadata
     id="metadata580">
    <rdf:RDF>
      <cc:Work
         rdf:about="">
        <dc:format>image/svg+xml</dc:format>
        <dc:type
           rdf:resource="http://purl.org/dc/dcmitype/StillImage" />
      </cc:Work>
    </rdf:RDF>
  </metadata>
  <sodipodi:namedview
     pagecolor="#ffffff"
     bordercolor="#666666"
     borderopacity="1"
     objecttolerance="10"
     gridtolerance="10"
     guidetolerance="10"
     inkscape:pageopacity="0"
     inkscape:pageshadow="2"
     inkscape:window-width="1920"
     inkscape:window-height="1060"
     id="namedview578"
     showgrid="false"
     inkscape:zoom="4.32"
     inkscape:cx="100"
     inkscape:cy="100"
     inkscape:window-x="0"
     inkscape:window-y="0"
     inkscape:window-maximized="1"
     inkscape:current-layer="layer1" />
  
    
    
    <defs id="defs6">

        <clipPath
           id="clipPath28"
           clipPathUnits="userSpaceOnUse">
          <path
             id="path30"
             d="M 4,36 C 0,36 0,32 0,32 L 0,32 0,4 C 0,0 4,0 4,0 l 0,0 28,0 c 4,0 4,4 4,4 l 0,0 0,28 c 0,4 -4,4 -4,4 l 0,0 -28,0 z" />
        </clipPath>


        <clipPath clipPathUnits="userSpaceOnUse" id="clipPath16-rugby">
            <path d="M 0,38 38,38 38,0 0,0 0,38 Z" id="path18"/>
        </clipPath>
        <clipPath clipPathUnits="userSpaceOnUse" id="clipPath28-rugby">
            <path d="M 9.254,28.746 C 2.09,21.582 -0.927,9.561 3.929,3.929 l 0,0 C 9.561,-0.927 21.582,2.09 28.746,9.254 l 0,0 c 7.164,7.164 11.229,17.088 5.324,24.816 l 0,0 c -1.886,1.627 -4.489,2.371 -7.387,2.37 l 0,0 c -5.752,0 -12.665,-2.93 -17.429,-7.694" id="path30"/>
        </clipPath>

        <clipPath clipPathUnits="userSpaceOnUse" id="clipPath16-carrot">
            <path d="M 0,36 36,36 36,0 0,0 0,36 Z" id="path18"/>
        </clipPath>
        <clipPath clipPathUnits="userSpaceOnUse" id="clipPath32-carrot">
            <path d="M 11.815,23.013 C 4.2,15.397 -1.265,2.86 0.502,1.093 l 0,0 c 1.768,-1.768 14.305,3.698 21.92,11.313 l 0,0 c 7.616,7.615 7.562,11.53 4.243,14.85 l 0,0 c -1.328,1.328 -2.752,2.133 -4.47,2.133 l 0,0 c -2.575,0 -5.812,-1.809 -10.38,-6.376" id="path34"/>
        </clipPath>

        <clipPath clipPathUnits="userSpaceOnUse" id="clipPath32-hat">
            <path d="m 5,33.666 c 0,-0.034 0.018,-0.067 0.022,-0.101 l 0,0 C 5.008,33.455 5,33.335 5,33.2 l 0,0 L 6.802,9.616 C 3.299,8.705 1,7.424 1,6 L 1,6 C 1,3.238 9.611,1 19,1 l 0,0 c 9.389,0 18,2.238 18,5 l 0,0 c 0,1.424 -2.298,2.705 -5.801,3.616 l 0,0 L 33,33.184 c 0,0.135 -0.008,0.263 -0.021,0.373 l 0,0 C 32.982,33.591 33,33.632 33,33.666 l 0,0 c 0,1.805 -6.268,3.267 -14,3.267 l 0,0 c -7.732,0 -14,-1.462 -14,-3.267" id="path34"/>
        </clipPath>


        <clipPath clipPathUnits="userSpaceOnUse" id="clipPath48-soccer">
            <path d="M 1,19 C 1,9.059 9.059,1 19,1 l 0,0 c 9.941,0 18,8.059 18,18 l 0,0 c 0,9.941 -8.059,18 -18,18 l 0,0 C 9.059,37 1,28.941 1,19" id="path50"/>
        </clipPath>

        <clipPath clipPathUnits="userSpaceOnUse" id="clipPath28-baguette">
            <path d="M 24.052,31.33 5.126,12.406 C 1.342,8.62 1.288,4.133 2.856,2.564 l 0,0 C 4.424,0.997 8.912,1.049 12.697,4.835 l 0,0 18.925,18.924 c 3.784,3.785 3.837,8.273 2.269,9.841 l 0,0 c -0.605,0.606 -1.647,0.969 -2.915,0.969 l 0,0 c -2.014,0 -4.602,-0.917 -6.924,-3.239" id="path30"/>
        </clipPath>
    </defs>



  <g
     id="layer1">
    <circle
       style="opacity:1;fill:white;stroke:black;stroke-width:1;stroke-miterlimit:4;stroke-dasharray:none;stroke-opacity:0.1"
       id="path4039-0-9"
       cx="100px"
       cy="100px"
       r="90px" />
    <g
       transform="translate(113.5 24.5) rotate(127 15 15) scale(0.7666666666666667)"
       id="g8">
      <g
         transform="matrix(1.25,0,0,-1.25,0,45)"
         id="g10">
        <g
           id="g12">
          <g
             clip-path="url(#clipPath16)"
             id="g14">
            <g
               transform="translate(26,8)"
               id="g20">
              <path
                 id="path22"
                 style="fill:#4289c1;fill-opacity:1;fill-rule:nonzero;stroke:none"
                 d="m 0,0 -16,0 c -2.484,0 -4.615,-1.51 -5.527,-3.661 C -21.893,-3.258 -22.416,-3 -23,-3 c -1.1,0 -2,-0.9 -2,-2 l 0,-3 31,0 0,2 C 6,-2.687 3.313,0 0,0" />
            </g>
            <g
               transform="translate(14,9)"
               id="g24">
              <path
                 id="path26"
                 style="fill:#2a6797;fill-opacity:1;fill-rule:nonzero;stroke:none"
                 d="M 0,0 8,0 C 8,0 9,-9 4,-9 -1,-9 0,0 0,0" />
            </g>
            <g
               transform="translate(33,16.9756)"
               id="g28">
              <path
                 id="path18"
                 style="fill:#292f33;fill-opacity:1;fill-rule:nonzero;stroke:none"
                 d="m 0,0 c 0,-1.949 -6.716,-3.529 -15,-3.529 -8.284,0 -15,1.58 -15,3.529 0,1.949 6.716,3.529 15,3.529 8.284,0 15,-1.58 15,-3.529" />
            </g>
            <g
               transform="translate(26.3395,18.4366)"
               id="g32">
              <path
                 id="path34"
                 style="fill:#ffdc5d;fill-opacity:1;fill-rule:nonzero;stroke:none"
                 d="m 0,0 c -0.809,3.6 -4.235,8.65 -8.339,8.65 -4.105,0 -7.531,-5.05 -8.34,-8.65 -0.836,-0.048 -1.494,-0.52 -1.494,-1.889 0,-1.448 0.734,-2.622 1.639,-2.622 0.015,0 0.028,0.006 0.043,0.007 1.064,-4.376 4.31,-8.013 8.152,-8.013 3.842,0 7.088,3.637 8.151,8.013 0.015,-0.001 0.028,-0.007 0.043,-0.007 0.905,0 1.639,1.174 1.639,2.622 C 1.494,-0.52 0.836,-0.048 0,0" />
            </g>
            <g
               transform="translate(14,15.2914)"
               id="g36">
              <path
                 id="path38"
                 style="fill:#662113;fill-opacity:1;fill-rule:nonzero;stroke:none"
                 d="m 0,0 0,0 c -0.55,0 -1,0.45 -1,1 l 0,1 c 0,0.55 0.45,1 1,1 L 0,3 C 0.55,3 1,2.55 1,2 L 1,1 C 1,0.45 0.55,0 0,0" />
            </g>
            <g
               transform="translate(22,15.2914)"
               id="g40">
              <path
                 id="path42"
                 style="fill:#662113;fill-opacity:1;fill-rule:nonzero;stroke:none"
                 d="m 0,0 0,0 c -0.55,0 -1,0.45 -1,1 l 0,1 c 0,0.55 0.45,1 1,1 L 0,3 C 0.55,3 1,2.55 1,2 L 1,1 C 1,0.45 0.55,0 0,0" />
            </g>
            <g
               transform="translate(18.75,14.1758)"
               id="g44">
              <path
                 id="path46"
                 style="fill:#c1694f;fill-opacity:1;fill-rule:nonzero;stroke:none"
                 d="m 0,0 -1.5,0 c -0.413,0 -0.75,0.337 -0.75,0.75 l 0,0 c 0,0.412 0.337,0.75 0.75,0.75 l 1.5,0 c 0.413,0 0.75,-0.338 0.75,-0.75 l 0,0 C 0.75,0.337 0.413,0 0,0" />
            </g>
            <g
               transform="translate(20.1667,10.9674)"
               id="g48">
              <path
                 id="path50"
                 style="fill:#c1694f;fill-opacity:1;fill-rule:nonzero;stroke:none"
                 d="m 0,0 -4.333,0 c -0.413,0 -0.75,0.338 -0.75,0.75 l 0,0.331 c 0,0.412 0.337,0.75 0.75,0.75 l 4.333,0 c 0.413,0 0.75,-0.338 0.75,-0.75 l 0,-0.331 C 0.75,0.338 0.413,0 0,0" />
            </g>
            <g
               transform="translate(20.6667,10.1295)"
               id="g52">
              <path
                 id="path54"
                 style="fill:#e6e7e8;fill-opacity:1;fill-rule:nonzero;stroke:none"
                 d="m 0,0 c -1.885,1.289 -2.667,0.911 -2.667,0.911 0,0 -0.781,0.378 -2.666,-0.911 -1.013,-0.692 -2.025,0.192 -2.745,1.057 0.748,0.276 1.684,0.623 2.675,0.819 1.83,-0.03 2.534,0.225 2.7,0.599 C -2.536,2.111 -1.828,1.877 -0.002,1.869 1.011,1.668 1.968,1.309 2.724,1.032 2.005,0.175 1.002,-0.685 0,0 M 5.757,8.024 C 5.95,8.116 6.105,8.248 6.206,8.423 6.621,9.141 5.987,10.282 4.791,10.972 3.596,11.663 2.291,11.641 1.876,10.923 1.462,10.206 2.096,9.065 3.291,8.374 3.81,8.075 4.345,7.918 4.823,7.885 4.531,7.361 4.333,6.412 4.333,5.317 4.333,4.254 4.519,3.326 4.796,2.793 4.388,2.809 3.843,2.397 3.506,2.029 2.797,2.768 1.665,3.578 0.386,3.831 -1.666,4.237 -2.515,3.445 -2.702,2.898 -2.884,3.445 -3.731,4.246 -5.792,3.838 -7.051,3.589 -8.166,2.8 -8.877,2.071 c -0.339,0.356 -0.86,0.737 -1.253,0.722 0.278,0.533 0.463,1.461 0.463,2.524 0,1.101 -0.2,2.053 -0.494,2.575 0.566,-0.064 1.274,0.091 1.952,0.482 1.196,0.691 1.83,1.832 1.415,2.549 -0.414,0.718 -1.719,0.74 -2.915,0.049 -1.195,-0.69 -1.829,-1.831 -1.415,-2.549 0.051,-0.087 0.115,-0.162 0.189,-0.229 -0.421,-0.353 -0.732,-1.501 -0.732,-2.877 0,-1.657 0.448,-3 1,-3 0.02,0 0.039,0.014 0.059,0.018 C -10.644,2.199 -10.667,2.033 -10.667,1.823 -10.667,0 -10,0 -10,0 c -0.667,-1.823 0.667,-3.66 0.667,-3.66 0,-2.735 2,-2.735 2,-2.735 0,-2.735 2.666,-1.823 2.666,-1.823 0.667,-0.912 2,-0.912 2,-0.912 0,0 1.334,0 2,0.912 0,0 2.667,-0.912 2.667,1.823 0,0 2,0 2,2.735 0,0 1.333,1.837 0.667,3.66 0,0 0.666,0 0.666,1.823 0,0.21 -0.022,0.376 -0.058,0.512 0.019,-0.004 0.038,-0.018 0.058,-0.018 0.553,0 1,1.343 1,3 0,1.2 -0.236,2.227 -0.576,2.707" />
            </g>
            <g
               transform="translate(25.7654,20.8431)"
               id="g56">
              <path
                 id="path58"
                 style="fill:#4289c1;fill-opacity:1;fill-rule:nonzero;stroke:none"
                 d="m 0,0 c -1.228,2.686 -6.972,15.157 -7.765,15.157 -0.794,0 -6.538,-12.471 -7.766,-15.157 -4.819,-0.844 -7.234,-2.438 -7.234,-3.843 6,2 11,2.443 15,2.443 4,0 9,-0.443 15,-2.443 C 7.235,-2.438 4.819,-0.844 0,0" />
            </g>
            <g
               transform="translate(5,0)"
               id="g60">
              <path
                 id="path62"
                 style="fill:#d99e82;fill-opacity:1;fill-rule:nonzero;stroke:none"
                 d="M 0,0 -2,0 -2,24.138 -3,28 1,28 0,24.138 0,0 Z" />
            </g>
            <g
               transform="translate(7,30)"
               id="g64">
              <path
                 id="path66"
                 style="fill:#55acee;fill-opacity:1;fill-rule:nonzero;stroke:none"
                 d="m 0,0 c 0,-1.657 -1.343,-3 -3,-3 -1.657,0 -3,1.343 -3,3 0,1.657 1.343,3 3,3 1.657,0 3,-1.343 3,-3" />
            </g>
            <g
               transform="translate(5,30.5)"
               id="g68">
              <path
                 id="path70"
                 style="fill:#b0f0ff;fill-opacity:1;fill-rule:nonzero;stroke:none"
                 d="M 0,0 C 0,-0.828 -0.672,-1.5 -1.5,-1.5 -2.328,-1.5 -3,-0.828 -3,0 -3,0.828 -2.328,1.5 -1.5,1.5 -0.672,1.5 0,0.828 0,0" />
            </g>
            <g
               transform="translate(7,5.5)"
               id="g72">
              <path
                 id="path74"
                 style="fill:#ffdc5d;fill-opacity:1;fill-rule:nonzero;stroke:none"
                 d="m 0,0 c 0,-1.933 -1.343,-3.5 -3,-3.5 -1.657,0 -3,1.567 -3,3.5 0,1.933 1.343,2.5 3,2.5 1.657,0 3,-0.567 3,-2.5" />
            </g>
          </g>
        </g>
      </g>
    </g>
    <g
       transform="translate(43.5 45.5) rotate(282 15 15) scale(0.5)"
       id="g42">
      <g
         transform="matrix(1.25,0,0,-1.25,0,45)"
         id="g45">
        <g
           id="g47">
          <g
             clip-path="url(#clipPath16)"
             id="g49">
            <g
               transform="translate(31,25)"
               id="g51">
              <path
                 id="path53"
                 style="fill:#ea596e;fill-opacity:1;fill-rule:nonzero;stroke:none"
                 d="m 0,0 c 0,6 -13,11 -13,11 l 0,-25 c 0,0 13,8 13,14" />
            </g>
            <g
               transform="translate(5.0024,25)"
               id="g55">
              <path
                 id="path57"
                 style="fill:#ea596e;fill-opacity:1;fill-rule:nonzero;stroke:none"
                 d="m 0,0 c 0,6 13,11 13,11 l 0,-25 C 13,-14 0,-6 0,0" />
            </g>
            <g
               transform="translate(27,25)"
               id="g59">
              <path
                 id="path61"
                 style="fill:#f4abba;fill-opacity:1;fill-rule:nonzero;stroke:none"
                 d="m 0,0 c 0,-3.833 -9,-12 -9,-12 0,0 -9,8.167 -9,12 0,5 9,11 9,11 0,0 9,-6 9,-11" />
            </g>
            <g
               transform="translate(13,20.1328)"
               id="g63">
              <path
                 id="path65"
                 style="fill:#be1931;fill-opacity:1;fill-rule:nonzero;stroke:none"
                 d="m 0,0 c 2.552,-4.254 -1.806,-9.096 -4.357,-8.245 -2.553,0.85 -3.403,-1.701 -0.851,-2.552 2.552,-0.85 8.051,0.396 11.059,3.402 0.85,0.851 1.701,0.851 1.701,0.851 L 0,0 Z" />
            </g>
            <g
               transform="translate(23,20.1328)"
               id="g67">
              <path
                 id="path69"
                 style="fill:#be1931;fill-opacity:1;fill-rule:nonzero;stroke:none"
                 d="m 0,0 c -2.552,-4.254 1.806,-9.096 4.357,-8.245 2.553,0.85 3.404,-1.701 0.851,-2.552 -2.552,-0.85 -8.052,0.396 -11.059,3.402 -0.85,0.851 -1.701,0.851 -1.701,0.851 L 0,0 Z" />
            </g>
            <g
               transform="translate(9,19)"
               id="g71">
              <path
                 id="path73"
                 style="fill:#ea596e;fill-opacity:1;fill-rule:nonzero;stroke:none"
                 d="m 0,0 c 2.552,-4.254 -1.369,-11.366 -3.921,-10.515 -2.552,0.851 -3.403,-1.702 -0.85,-2.552 2.552,-0.851 8.051,0.395 11.059,3.403 0.85,0.85 1.701,0.85 1.701,0.85 L 0,0 Z" />
            </g>
            <g
               transform="translate(26.9893,19)"
               id="g75">
              <path
                 id="path77"
                 style="fill:#ea596e;fill-opacity:1;fill-rule:nonzero;stroke:none"
                 d="m 0,0 c -2.553,-4.254 1.368,-11.366 3.921,-10.515 2.552,0.851 3.402,-1.702 0.85,-2.552 -2.552,-0.851 -8.051,0.395 -11.059,3.403 -0.851,0.85 -1.701,0.85 -1.701,0.85 L 0,0 Z" />
            </g>
            <g
               transform="translate(30.9209,3.6504)"
               id="g79">
              <path
                 id="path81"
                 style="fill:#f4abba;fill-opacity:1;fill-rule:nonzero;stroke:none"
                 d="m 0,0 c -2.322,-0.774 -6.921,5.35 -5.921,11.35 2,5 -4,7.482 -4,9.983 0,6.108 -2.031,9.735 -3.031,9.735 -1,0 -2.969,-3.627 -2.969,-9.735 0,-2.501 -6,-4.983 -4,-9.983 1,-6 -3.599,-12.124 -5.921,-11.35 -2.552,0.851 -3.403,-2.552 -0.85,-3.402 2.552,-0.851 7.068,0.533 10.208,3.402 1.862,1.702 3.563,1.702 3.563,1.702 0,0 1.701,0 3.564,-1.702 3.138,-2.869 7.656,-4.253 10.208,-3.402 C 3.402,-2.552 2.552,0.851 0,0" />
            </g>
            <g
               transform="translate(17,12.5)"
               id="g83">
              <path
                 id="path85"
                 style="fill:#292f33;fill-opacity:1;fill-rule:nonzero;stroke:none"
                 d="M 0,0 C 0,-1.381 -1.119,-2.5 -2.5,-2.5 -3.881,-2.5 -5,-1.381 -5,0 -5,1.381 -3.881,2.5 -2.5,2.5 -1.119,2.5 0,1.381 0,0" />
            </g>
            <g
               transform="translate(24,12.5)"
               id="g87">
              <path
                 id="path89"
                 style="fill:#292f33;fill-opacity:1;fill-rule:nonzero;stroke:none"
                 d="M 0,0 C 0,-1.381 -1.119,-2.5 -2.5,-2.5 -3.881,-2.5 -5,-1.381 -5,0 -5,1.381 -3.881,2.5 -2.5,2.5 -1.119,2.5 0,1.381 0,0" />
            </g>
          </g>
        </g>
      </g>
    </g>
    <g
       transform="matrix(-0.25085756,-0.6535063,0.6535063,-0.25085756,26.353294,104.16626)"
       id="g91">
      <g
         transform="matrix(1.25,0,0,-1.25,0,45)"
         id="g93">
        <g
           id="g95">
          <g
             clip-path="url(#clipPath16)"
             id="g97">
            <g
               transform="translate(28.6885,15.6875)"
               id="g99">
              <path
                 id="path101"
                 style="fill:#6d6e71;fill-opacity:1;fill-rule:nonzero;stroke:none"
                 d="m 0,0 c 0,-5.904 -4.784,-10.688 -10.689,-10.688 -5.902,0 -10.688,4.784 -10.688,10.688 0,5.903 4.786,10.689 10.688,10.689 C -4.784,10.689 0,5.903 0,0"
                 inkscape:connector-curvature="0" />
            </g>
            <g
               transform="translate(26,2.5)"
               id="g103">
              <path
                 id="path105"
                 style="fill:#662113;fill-opacity:1;fill-rule:nonzero;stroke:none"
                 d="m 0,0 -16,0 c -1.665,0 -2.479,1.339 -2.763,2.31 l -2.664,0.055 c -0.153,0.003 -0.297,0.077 -0.389,0.2 -0.092,0.123 -0.123,0.282 -0.083,0.43 l 0.594,2.216 -2.446,0.651 c -0.152,0.041 -0.276,0.151 -0.335,0.296 -0.06,0.146 -0.046,0.311 0.035,0.446 l 1.198,1.993 -2.155,1.192 c -0.139,0.077 -0.234,0.216 -0.254,0.374 -0.02,0.157 0.036,0.316 0.151,0.426 l 1.729,1.647 -1.729,1.646 c -0.115,0.11 -0.171,0.267 -0.151,0.426 0.02,0.158 0.115,0.297 0.254,0.374 l 2.156,1.194 -1.2,1.994 c -0.08,0.134 -0.094,0.299 -0.034,0.445 0.059,0.146 0.183,0.255 0.335,0.296 l 2.446,0.65 -0.594,2.218 c -0.04,0.148 -0.009,0.307 0.083,0.43 0.092,0.123 0.236,0.196 0.39,0.199 l 2.574,0.054 0.058,2.302 c 0.004,0.149 0.074,0.289 0.192,0.381 0.118,0.092 0.271,0.127 0.416,0.094 l 2.521,-0.56 0.718,2.234 c 0.044,0.138 0.147,0.251 0.282,0.308 0.135,0.056 0.287,0.051 0.417,-0.014 l 2.284,-1.138 1.341,2.009 c 0.08,0.119 0.208,0.199 0.35,0.218 0.144,0.018 0.286,-0.025 0.394,-0.119 L -8,26.242 l 1.88,1.635 c 0.109,0.095 0.251,0.137 0.394,0.119 0.143,-0.019 0.27,-0.099 0.35,-0.219 l 1.34,-2.008 2.286,1.138 c 0.13,0.066 0.283,0.07 0.417,0.014 0.135,-0.057 0.237,-0.17 0.282,-0.308 l 0.716,-2.234 2.522,0.56 c 0.146,0.033 0.297,-0.002 0.416,-0.094 0.118,-0.092 0.188,-0.232 0.192,-0.381 L 2.853,22.162 5.427,22.108 C 5.58,22.105 5.724,22.031 5.815,21.909 5.908,21.786 5.939,21.627 5.898,21.479 L 5.304,19.261 7.753,18.611 C 7.905,18.57 8.029,18.461 8.089,18.315 8.148,18.169 8.135,18.004 8.054,17.87 L 6.853,15.876 9.008,14.682 C 9.148,14.605 9.241,14.466 9.262,14.308 9.282,14.149 9.226,13.991 9.11,13.882 L 7.381,12.236 9.11,10.589 C 9.226,10.479 9.282,10.32 9.262,10.163 9.241,10.005 9.148,9.866 9.008,9.789 L 6.854,8.597 8.054,6.604 C 8.135,6.469 8.148,6.304 8.089,6.158 8.029,6.013 7.905,5.903 7.754,5.862 L 5.304,5.211 5.898,2.995 C 5.939,2.847 5.908,2.689 5.816,2.565 5.724,2.442 5.58,2.368 5.427,2.365 L 2.764,2.31 C 2.48,1.339 1.665,0 0,0"
                 inkscape:connector-curvature="0" />
            </g>
            <g
               transform="translate(16.188,7.1758)"
               id="g107">
              <path
                 id="path109"
                 style="fill:#8a4b38;fill-opacity:1;fill-rule:nonzero;stroke:none"
                 d="m 0,0 c -0.022,0 -0.044,0.001 -0.066,0.004 -0.142,0.019 -0.27,0.099 -0.35,0.219 l -1.058,1.585 -1.804,-0.9 C -3.41,0.844 -3.561,0.838 -3.696,0.895 -3.83,0.951 -3.933,1.064 -3.978,1.203 L -4.542,2.96 -6.532,2.518 C -6.68,2.486 -6.831,2.521 -6.948,2.612 -7.066,2.704 -7.136,2.844 -7.14,2.993 L -7.185,4.797 -9.214,4.84 c -0.154,0.003 -0.297,0.077 -0.39,0.2 -0.092,0.122 -0.123,0.281 -0.083,0.43 l 0.465,1.732 -1.922,0.512 c -0.152,0.041 -0.276,0.15 -0.335,0.296 -0.059,0.145 -0.046,0.31 0.035,0.445 l 0.937,1.557 -1.689,0.934 c -0.139,0.077 -0.234,0.216 -0.254,0.373 -0.02,0.158 0.035,0.316 0.151,0.426 l 1.352,1.289 -1.352,1.287 c -0.115,0.11 -0.171,0.268 -0.151,0.426 0.02,0.158 0.115,0.296 0.254,0.374 l 1.689,0.935 -0.937,1.557 c -0.081,0.135 -0.094,0.3 -0.035,0.446 0.059,0.146 0.183,0.255 0.335,0.296 l 1.922,0.51 -0.465,1.735 c -0.04,0.148 -0.009,0.306 0.083,0.429 0.093,0.123 0.236,0.197 0.39,0.2 l 2.029,0.042 0.045,1.805 c 0.004,0.149 0.074,0.289 0.192,0.381 0.117,0.092 0.27,0.127 0.416,0.094 l 1.99,-0.442 0.564,1.756 c 0.045,0.139 0.148,0.252 0.282,0.308 0.136,0.056 0.287,0.052 0.418,-0.013 l 1.804,-0.9 1.058,1.584 c 0.08,0.119 0.208,0.199 0.35,0.218 0.144,0.021 0.286,-0.024 0.394,-0.119 l 1.484,-1.291 1.484,1.291 c 0.11,0.096 0.253,0.138 0.395,0.119 0.142,-0.019 0.269,-0.099 0.349,-0.218 l 1.057,-1.584 1.807,0.9 c 0.13,0.065 0.283,0.069 0.417,0.013 0.135,-0.057 0.237,-0.169 0.282,-0.308 l 0.562,-1.756 1.992,0.442 c 0.145,0.033 0.299,-0.002 0.416,-0.094 0.118,-0.092 0.188,-0.232 0.192,-0.382 l 0.045,-1.804 2.028,-0.042 c 0.154,-0.003 0.297,-0.077 0.389,-0.2 0.093,-0.123 0.123,-0.281 0.083,-0.43 l -0.465,-1.734 1.924,-0.51 c 0.152,-0.041 0.276,-0.15 0.336,-0.296 0.059,-0.146 0.046,-0.311 -0.035,-0.446 l -0.939,-1.558 1.689,-0.934 c 0.14,-0.078 0.233,-0.216 0.254,-0.374 0.02,-0.158 -0.036,-0.316 -0.152,-0.426 l -1.352,-1.287 1.352,-1.289 c 0.116,-0.11 0.172,-0.267 0.152,-0.426 -0.021,-0.157 -0.116,-0.296 -0.254,-0.373 L 14.132,10.012 15.07,8.455 C 15.151,8.32 15.164,8.155 15.105,8.01 15.045,7.864 14.921,7.755 14.77,7.714 L 12.845,7.202 13.31,5.47 C 13.35,5.321 13.32,5.163 13.228,5.04 13.135,4.917 12.992,4.843 12.838,4.84 L 10.81,4.797 10.765,2.993 C 10.761,2.844 10.691,2.704 10.573,2.612 10.456,2.521 10.302,2.486 10.157,2.518 L 8.165,2.96 7.603,1.203 C 7.558,1.064 7.456,0.951 7.321,0.895 7.187,0.837 7.037,0.842 6.904,0.908 L 5.098,1.808 4.04,0.223 C 3.96,0.103 3.833,0.023 3.691,0.004 3.549,-0.014 3.405,0.028 3.296,0.123 L 1.812,1.417 0.329,0.123 C 0.237,0.043 0.12,0 0,0"
                 inkscape:connector-curvature="0" />
            </g>
            <g
               transform="translate(13.5,8.9484)"
               id="g111">
              <path
                 id="path113"
                 style="fill:#8a4b38;fill-opacity:1;fill-rule:nonzero;stroke:none"
                 d="m 0,0 9,0 c 3.521,0 6.5,-2.575 6.5,-4.5 0,-1.65 -1.35,-2 -3,-2 l -16,0 c -1.65,0 -3,0.35 -3,2 0,1.925 2.99,4.5 6.5,4.5"
                 inkscape:connector-curvature="0" />
            </g>
            <g
               transform="translate(26.2217,13.2207)"
               id="g115">
              <path
                 id="path117"
                 style="fill:#d99e82;fill-opacity:1;fill-rule:nonzero;stroke:none"
                 d="m 0,0 c 0,-4.088 -3.68,-7.398 -8.222,-7.398 -4.541,0 -8.221,3.31 -8.221,7.398 0,4.087 3.68,7.4 8.221,7.4 C -3.68,7.4 0,4.087 0,0"
                 inkscape:connector-curvature="0" />
            </g>
            <g
               transform="translate(21.2891,9.5215)"
               id="g119">
              <path
                 id="path121"
                 style="fill:#e6e7e8;fill-opacity:1;fill-rule:nonzero;stroke:none"
                 d="m 0,0 c 0,-2.043 -1.473,-3.699 -3.289,-3.699 -1.817,0 -3.289,1.656 -3.289,3.699 0,2.043 1.472,3.699 3.289,3.699 C -1.473,3.699 0,2.043 0,0"
                 inkscape:connector-curvature="0" />
            </g>
            <g
               transform="translate(19.6445,8.2891)"
               id="g123">
              <path
                 id="path125"
                 style="fill:#231f20;fill-opacity:1;fill-rule:nonzero;stroke:none"
                 d="m 0,0 c 0,-0.908 -0.736,-1.645 -1.645,-1.645 -0.908,0 -1.644,0.737 -1.644,1.645 0,0.908 0.736,1.643 1.644,1.643 C -0.736,1.643 0,0.908 0,0"
                 inkscape:connector-curvature="0" />
            </g>
            <g
               transform="translate(14.7114,14.4551)"
               id="g127">
              <path
                 id="path129"
                 style="fill:#231f20;fill-opacity:1;fill-rule:nonzero;stroke:none"
                 d="m 0,0 c 0,-0.682 -0.552,-1.234 -1.233,-1.234 -0.681,0 -1.234,0.552 -1.234,1.234 0,0.68 0.553,1.232 1.234,1.232 C -0.552,1.232 0,0.68 0,0"
                 inkscape:connector-curvature="0" />
            </g>
            <g
               transform="translate(23.7549,14.4551)"
               id="g131">
              <path
                 id="path133"
                 style="fill:#231f20;fill-opacity:1;fill-rule:nonzero;stroke:none"
                 d="m 0,0 c 0,-0.682 -0.552,-1.234 -1.232,-1.234 -0.682,0 -1.234,0.552 -1.234,1.234 0,0.68 0.552,1.232 1.234,1.232 C -0.552,1.232 0,0.68 0,0"
                 inkscape:connector-curvature="0" />
            </g>
            <g
               transform="translate(11.4224,18.1543)"
               id="g135">
              <path
                 id="path137"
                 style="fill:#c1694f;fill-opacity:1;fill-rule:nonzero;stroke:none"
                 d="m 0,0 c 0,0 4.111,1.645 4.933,0 0.822,-1.645 1.645,-1.645 1.645,-1.645 l 0,4.934 C 6.578,3.289 0,3.289 0,0"
                 inkscape:connector-curvature="0" />
            </g>
            <g
               transform="translate(24.5771,18.1543)"
               id="g139">
              <path
                 id="path141"
                 style="fill:#c1694f;fill-opacity:1;fill-rule:nonzero;stroke:none"
                 d="m 0,0 c 0,0 -4.11,1.645 -4.933,0 -0.822,-1.645 -1.644,-1.645 -1.644,-1.645 l 0,4.934 c 0,0 6.577,0 6.577,-3.289"
                 inkscape:connector-curvature="0" />
            </g>
            <g
               transform="translate(12.2446,17.7437)"
               id="g143">
              <path
                 id="path145"
                 style="fill:#d99e82;fill-opacity:1;fill-rule:nonzero;stroke:none"
                 d="m 0,0 c 0,-1.136 -0.92,-2.056 -2.055,-2.056 -1.136,0 -2.056,0.92 -2.056,2.056 0,1.135 0.92,2.055 2.056,2.055 C -0.92,2.055 0,1.135 0,0"
                 inkscape:connector-curvature="0" />
            </g>
            <g
               transform="translate(27.8662,17.7437)"
               id="g147">
              <path
                 id="path149"
                 style="fill:#d99e82;fill-opacity:1;fill-rule:nonzero;stroke:none"
                 d="m 0,0 c 0,-1.136 -0.92,-2.056 -2.056,-2.056 -1.134,0 -2.055,0.92 -2.055,2.056 0,1.135 0.921,2.055 2.055,2.055 C -0.92,2.055 0,1.135 0,0"
                 inkscape:connector-curvature="0" />
            </g>
            <g
               transform="translate(11,1)"
               id="g151">
              <path
                 id="path153"
                 style="fill:#d99e82;fill-opacity:1;fill-rule:nonzero;stroke:none"
                 d="M 0,0 C -2,0 -2,4 2,4 6,4 6.062,0 4,0 L 0,0 Z"
                 inkscape:connector-curvature="0" />
            </g>
            <g
               transform="translate(21,1)"
               id="g76">
              <path
                 id="path78"
                 style="fill:#d99e82;fill-opacity:1;fill-rule:nonzero;stroke:none"
                 d="M 0,0 C -2,0 -2,4 2,4 6,4 6.062,0 4,0 L 0,0 Z"
                 inkscape:connector-curvature="0" />
            </g>
          </g>
        </g>
      </g>
    </g>
    <g
       transform="matrix(-0.96431192,-0.06743126,0.06743126,-0.96431192,131.61156,161.42647)"
       id="g157">
      <g
         transform="matrix(1.25,0,0,-1.25,0,45)"
         id="g159">
        <g
           id="g161">
          <g
             clip-path="url(#clipPath16)"
             id="g163">
            <g
               transform="translate(27.8652,19.2485)"
               id="g165">
              <path
                 id="path167"
                 style="fill:#ccd6dd;fill-opacity:1;fill-rule:nonzero;stroke:none"
                 d="m 0,0 c 0,6.242 -4.411,9.988 -9.927,9.988 -5.516,0 -9.836,-3.746 -9.836,-9.988 0,-3.48 -0.102,-6.485 3.898,-7.89 l 0,-2.722 c 0,-1.034 0.966,-1.872 2,-1.872 1.035,0 2,0.838 2,1.872 l 0,1.97 0,-0.044 0,-1.926 c 0,-1.034 0.965,-1.872 1.999,-1.872 1.036,0 2.001,0.838 2.001,1.872 l 0,1.926 0,0.044 0,-1.97 c 0,-1.034 0.966,-1.872 2,-1.872 1.034,0 2,0.838 2,1.872 l 0,2.722 C 0.135,-6.485 0,-3.48 0,0"
                 inkscape:connector-curvature="0" />
            </g>
            <g
               transform="translate(16.75,20.4971)"
               id="g169">
              <path
                 id="path171"
                 style="fill:#292f33;fill-opacity:1;fill-rule:nonzero;stroke:none"
                 d="m 0,0 c 0,-1.724 0,-3.121 -3.121,-3.121 -3.121,0 -3.121,1.397 -3.121,3.121 0,1.724 1.397,3.121 3.121,3.121 C -1.398,3.121 0,1.724 0,0"
                 inkscape:connector-curvature="0" />
            </g>
            <g
               transform="translate(25.4883,20.4971)"
               id="g173">
              <path
                 id="path175"
                 style="fill:#292f33;fill-opacity:1;fill-rule:nonzero;stroke:none"
                 d="m 0,0 c 0,-1.724 0,-3.121 -3.121,-3.121 -3.12,0 -3.12,1.397 -3.12,3.121 0,1.724 1.396,3.121 3.12,3.121 C -1.396,3.121 0,1.724 0,0"
                 inkscape:connector-curvature="0" />
            </g>
            <g
               transform="translate(19.1865,14.8408)"
               id="g177">
              <path
                 id="path179"
                 style="fill:#292f33;fill-opacity:1;fill-rule:nonzero;stroke:none"
                 d="M 0,0 C -0.157,0.382 -0.626,0.662 -1.189,0.662 -1.75,0.662 -2.22,0.382 -2.376,0 c -0.395,-0.11 -0.685,-0.469 -0.685,-0.898 0,-0.517 0.419,-0.936 0.936,-0.936 0.409,0 0.753,0.263 0.88,0.628 0.019,0 0.037,-0.004 0.056,-0.004 0.02,0 0.038,0.004 0.057,0.004 0.128,-0.365 0.472,-0.628 0.88,-0.628 0.517,0 0.937,0.419 0.937,0.936 C 0.685,-0.469 0.394,-0.111 0,0"
                 inkscape:connector-curvature="0" />
            </g>
            <g
               transform="translate(10.9995,9)"
               id="g181">
              <path
                 id="path183"
                 style="fill:#aab8c2;fill-opacity:1;fill-rule:nonzero;stroke:none"
                 d="M 0,0 C 0,0.367 0.075,0.713 0.196,1.038 -0.789,1.485 -1.635,2.12 -2.307,3.008 -3.414,2.04 -4.47,1.133 -5.434,0.313 -6.015,0.74 -6.724,1 -7.499,1 c -1.934,0 -3.5,-1.566 -3.5,-3.5 0,-1.778 1.329,-3.229 3.045,-3.454 C -7.729,-7.671 -6.277,-9 -4.499,-9 c 1.933,0 3.5,1.566 3.5,3.5 0,0.775 -0.261,1.485 -0.687,2.065 0.6,0.706 1.246,1.46 1.931,2.25 C 0.088,-0.821 0,-0.421 0,0"
                 inkscape:connector-curvature="0" />
            </g>
            <g
               transform="translate(27.8715,24.4822)"
               id="g185">
              <path
                 id="path187"
                 style="fill:#aab8c2;fill-opacity:1;fill-rule:nonzero;stroke:none"
                 d="m 0,0 c 0.884,0.769 1.729,1.495 2.515,2.162 0.57,-0.403 1.262,-0.644 2.014,-0.644 1.933,0 3.5,1.567 3.5,3.5 0,1.743 -1.277,3.177 -2.945,3.444 -0.221,1.721 -1.674,3.056 -3.456,3.056 -1.933,0 -3.5,-1.567 -3.5,-3.5 0,-0.775 0.261,-1.485 0.687,-2.065 C -1.779,5.253 -2.418,4.508 -3.096,3.726 -1.795,2.855 -0.735,1.631 0,0"
                 inkscape:connector-curvature="0" />
            </g>
            <g
               transform="translate(3.5,26)"
               id="g189">
              <path
                 id="path191"
                 style="fill:#aab8c2;fill-opacity:1;fill-rule:nonzero;stroke:none"
                 d="M 0,0 C 0.775,0 1.485,0.26 2.065,0.687 2.863,0.008 3.726,-0.732 4.628,-1.518 5.363,0.113 6.424,1.337 7.725,2.208 7.046,2.99 6.408,3.736 5.813,4.435 6.24,5.015 6.5,5.725 6.5,6.5 6.5,8.433 4.933,10 3,10 1.222,10 -0.229,8.67 -0.454,6.954 -2.17,6.729 -3.5,5.277 -3.5,3.5 -3.5,1.567 -1.933,0 0,0"
                 inkscape:connector-curvature="0" />
            </g>
            <g
               transform="translate(32.4004,10)"
               id="g193">
              <path
                 id="path195"
                 style="fill:#aab8c2;fill-opacity:1;fill-rule:nonzero;stroke:none"
                 d="M 0,0 C -0.752,0 -1.444,-0.242 -2.014,-0.645 -2.966,0.164 -4.004,1.056 -5.093,2.009 -5.765,1.12 -6.612,0.485 -7.596,0.038 -7.476,-0.287 -7.4,-0.633 -7.4,-1 c 0,-0.421 -0.089,-0.821 -0.245,-1.185 0.685,-0.79 1.331,-1.544 1.931,-2.25 C -6.14,-5.015 -6.4,-5.725 -6.4,-6.5 c 0,-1.934 1.566,-3.5 3.5,-3.5 1.781,0 3.235,1.334 3.455,3.056 C 2.223,-6.677 3.5,-5.244 3.5,-3.5 3.5,-1.566 1.934,0 0,0"
                 inkscape:connector-curvature="0" />
            </g>
          </g>
        </g>
      </g>
    </g>
    <g
       transform="matrix(0.17542302,-0.57378285,0.57378285,0.17542302,26.038372,135.08863)"
       id="g197">
      <g
         transform="matrix(1.25,0,0,-1.25,0,47.5)"
         id="g199">
        <g
           id="g201">
          <g
             clip-path="url(#clipPath16)"
             id="g203">
            <g
               transform="translate(36,19)"
               id="g205">
              <path
                 id="path207"
                 style="fill:#ffcc4d;fill-opacity:1;fill-rule:nonzero;stroke:none"
                 d="m 0,0 c 0,-9.389 -7.611,-17 -17,-17 -9.389,0 -17,7.611 -17,17 0,9.389 7.611,17 17,17 C -7.611,17 0,9.389 0,0"
                 inkscape:connector-curvature="0" />
            </g>
            <g
               transform="translate(25.3271,13.3779)"
               id="g209">
              <path
                 id="path211"
                 style="fill:#664500;fill-opacity:1;fill-rule:nonzero;stroke:none"
                 d="m 0,0 c -0.153,0.132 -0.368,0.159 -0.551,0.069 l -4,-2 c -1.871,-0.935 -6.727,-0.947 -6.776,-0.947 l -10e-4,0 c -0.276,0 -0.499,-0.224 -0.499,-0.5 0,-0.184 0.1,-0.347 0.25,-0.433 l 0,0 10e-4,0 0,0 c 0.001,-10e-4 0.001,-10e-4 0.001,-10e-4 0.071,-0.041 0.153,-0.064 0.24,-0.066 l 0.008,0 7,0 c 2.658,0 4.089,2.186 4.474,3.342 C 0.211,-0.344 0.153,-0.133 0,0"
                 inkscape:connector-curvature="0" />
            </g>
            <g
               transform="translate(32.001,21)"
               id="g213">
              <path
                 id="path215"
                 style="fill:#664500;fill-opacity:1;fill-rule:nonzero;stroke:none"
                 d="M 0,0 C -0.305,0 -0.605,0.138 -0.801,0.4 -3.441,3.921 -6.862,3.999 -7.007,4 -7.557,4.006 -8.001,4.456 -7.998,5.005 -7.995,5.556 -7.551,6 -7.001,6 -6.817,6 -2.464,5.95 0.799,1.6 1.131,1.158 1.041,0.531 0.599,0.2 0.419,0.065 0.209,0 0,0"
                 inkscape:connector-curvature="0" />
            </g>
            <g
               transform="translate(5.999,21)"
               id="g217">
              <path
                 id="path219"
                 style="fill:#664500;fill-opacity:1;fill-rule:nonzero;stroke:none"
                 d="m 0,0 c -0.208,0 -0.419,0.065 -0.599,0.2 -0.442,0.331 -0.531,0.958 -0.2,1.4 3.262,4.35 7.616,4.4 7.8,4.4 0.552,0 1,-0.448 1,-1 C 8.001,4.449 7.556,4.002 7.005,4 6.85,3.998 3.437,3.914 0.801,0.4 0.604,0.138 0.304,0 0,0"
                 inkscape:connector-curvature="0" />
            </g>
            <g
               transform="translate(16.897,19.6035)"
               id="g221">
              <path
                 id="path223"
                 style="fill:#664500;fill-opacity:1;fill-rule:nonzero;stroke:none"
                 d="m 0,0 c 0.023,0.052 0.059,0.096 0.073,0.154 0.134,0.536 -0.192,1.079 -0.727,1.213 -0.181,0.045 -4.468,1.08 -7.798,-1.138 -0.459,-0.307 -0.583,-0.928 -0.277,-1.387 0.193,-0.289 0.51,-0.446 0.833,-0.446 0.19,0 0.383,0.055 0.554,0.168 1.092,0.73 2.362,0.995 3.468,1.062 -0.009,-0.077 -0.023,-0.151 -0.023,-0.23 0,-1.104 0.896,-2 2,-2 1.105,0 2,0.896 2,2 C 0.103,-0.392 0.061,-0.191 0,0"
                 inkscape:connector-curvature="0" />
            </g>
            <g
               transform="translate(28.8965,19.605)"
               id="g225">
              <path
                 id="path227"
                 style="fill:#664500;fill-opacity:1;fill-rule:nonzero;stroke:none"
                 d="M 0,0 C 0.023,0.052 0.059,0.095 0.073,0.152 0.208,0.689 -0.118,1.231 -0.654,1.365 -0.834,1.41 -5.12,2.445 -8.451,0.227 -8.911,-0.079 -9.035,-0.7 -8.729,-1.16 c 0.193,-0.289 0.51,-0.445 0.834,-0.445 0.19,0 0.382,0.055 0.553,0.168 1.092,0.729 2.362,0.994 3.469,1.06 -0.009,-0.076 -0.023,-0.15 -0.023,-0.228 0,-1.104 0.895,-2 2,-2 1.104,0 2,0.896 2,2 C 0.104,-0.393 0.062,-0.192 0,0"
                 inkscape:connector-curvature="0" />
            </g>
          </g>
        </g>
      </g>
    </g>
    <g
       transform="matrix(-0.0279196,0.79951266,-0.79951266,-0.0279196,90.77361,135.71782)"
       id="g229">
      <g
         transform="matrix(1.25,0,0,-1.25,0,45)"
         id="g231">
        <g
           id="g233">
          <g
             clip-path="url(#clipPath16)"
             id="g235">
            <g
               transform="translate(19,16.5)"
               id="g237">
              <path
                 id="path239"
                 style="fill:#292f33;fill-opacity:1;fill-rule:nonzero;stroke:none"
                 d="m 0,0 c 1,-7.5 -1,-9.5 -1,-9.5 0,0 -2,2 -1,9.5 0.913,6.843 -2.687,9.159 1,9.159 3.688,0 0.088,-2.316 1,-9.159"
                 inkscape:connector-curvature="0" />
            </g>
            <g
               transform="translate(17.5894,25.7407)"
               id="g241">
              <path
                 id="path243"
                 style="fill:#292f33;fill-opacity:1;fill-rule:nonzero;stroke:none"
                 d="m 0,0 c 0.133,-0.242 0.045,-0.546 -0.197,-0.679 -0.242,-0.133 -0.546,-0.045 -0.679,0.197 l -2.651,4.819 c -0.134,0.242 -0.046,0.546 0.196,0.679 0.243,0.133 0.546,0.045 0.68,-0.197 L 0,0 Z"
                 inkscape:connector-curvature="0" />
            </g>
            <g
               transform="translate(18.4111,25.7407)"
               id="g245">
              <path
                 id="path247"
                 style="fill:#292f33;fill-opacity:1;fill-rule:nonzero;stroke:none"
                 d="m 0,0 c -0.133,-0.242 -0.045,-0.546 0.197,-0.679 0.242,-0.133 0.545,-0.045 0.679,0.197 L 3.527,4.337 C 3.66,4.579 3.572,4.883 3.33,5.016 3.088,5.149 2.785,5.061 2.651,4.819 L 0,0 Z"
                 inkscape:connector-curvature="0" />
            </g>
            <g
               transform="translate(18,17)"
               id="g249">
              <path
                 id="path251"
                 style="fill:#292f33;fill-opacity:1;fill-rule:nonzero;stroke:none"
                 d="m 0,0 c -9.962,0.477 -15.645,-0.835 -15,-9 0.727,-9.191 15,0 15,3 l 0,6 z"
                 inkscape:connector-curvature="0" />
            </g>
            <g
               transform="translate(8.1904,5.1025)"
               id="g253">
              <path
                 id="path255"
                 style="fill:#88c9f9;fill-opacity:1;fill-rule:nonzero;stroke:none"
                 d="m 0,0 c -1.744,0.001 -3.217,0.343 -3.65,2.438 -0.491,2.374 0.108,4.769 0.975,5.931 1.779,2.384 6.457,2.521 11.554,2.528 l 0,-5 C 8.879,5.493 8.015,4.081 5.931,2.497 3.874,0.934 1.658,0 0,0 Z"
                 inkscape:connector-curvature="0" />
            </g>
            <g
               transform="translate(5.5151,13.4717)"
               id="g257">
              <path
                 id="path259"
                 style="fill:#bbddf5;fill-opacity:1;fill-rule:nonzero;stroke:none"
                 d="m 0,0 c -0.302,-0.404 -0.516,-0.882 -0.652,-1.426 5.44,0.357 9.955,1.653 12.207,3.406 l 0,0.548 C 6.458,2.521 1.779,2.384 0,0"
                 inkscape:connector-curvature="0" />
            </g>
            <g
               transform="translate(9.3574,7.6035)"
               id="g261">
              <path
                 id="path263"
                 style="fill:#bbddf5;fill-opacity:1;fill-rule:nonzero;stroke:none"
                 d="m 0,0 c 0,-0.978 -0.792,-1.771 -1.77,-1.771 -0.979,0 -1.772,0.793 -1.772,1.771 0,0.979 0.793,1.771 1.772,1.771 C -0.792,1.771 0,0.979 0,0"
                 inkscape:connector-curvature="0" />
            </g>
            <g
               transform="translate(12.3813,7.9922)"
               id="g265">
              <path
                 id="path267"
                 style="fill:#bbddf5;fill-opacity:1;fill-rule:nonzero;stroke:none"
                 d="m 0,0 c 0,-0.718 -0.582,-1.301 -1.3,-1.301 -0.719,0 -1.301,0.583 -1.301,1.301 0,0.719 0.582,1.301 1.301,1.301 C -0.582,1.301 0,0.719 0,0"
                 inkscape:connector-curvature="0" />
            </g>
            <g
               transform="translate(14.5415,9.0332)"
               id="g269">
              <path
                 id="path271"
                 style="fill:#bbddf5;fill-opacity:1;fill-rule:nonzero;stroke:none"
                 d="m 0,0 c 0,-0.575 -0.466,-1.041 -1.042,-1.041 -0.575,0 -1.041,0.466 -1.041,1.041 0,0.575 0.466,1.042 1.041,1.042 C -0.466,1.042 0,0.575 0,0"
                 inkscape:connector-curvature="0" />
            </g>
            <g
               transform="translate(15.9414,10.0752)"
               id="g273">
              <path
                 id="path275"
                 style="fill:#bbddf5;fill-opacity:1;fill-rule:nonzero;stroke:none"
                 d="m 0,0 c 0,-0.387 -0.314,-0.7 -0.7,-0.7 -0.386,0 -0.7,0.313 -0.7,0.7 0,0.387 0.314,0.7 0.7,0.7 C -0.314,0.7 0,0.387 0,0"
                 inkscape:connector-curvature="0" />
            </g>
            <g
               transform="translate(17.974,17)"
               id="g277">
              <path
                 id="path279"
                 style="fill:#292f33;fill-opacity:1;fill-rule:nonzero;stroke:none"
                 d="M 0,0 C 9.962,0.477 15.645,-0.835 15,-9 14.273,-18.191 0,-9 0,-6 l 0,6 z"
                 inkscape:connector-curvature="0" />
            </g>
            <g
               transform="translate(27.7835,5.1025)"
               id="g281">
              <path
                 id="path283"
                 style="fill:#88c9f9;fill-opacity:1;fill-rule:nonzero;stroke:none"
                 d="M 0,0 C 1.744,0.001 3.217,0.343 3.65,2.438 4.141,4.812 3.542,7.207 2.675,8.369 0.896,10.753 -3.782,10.89 -8.879,10.897 l 0,-5 c 0,-0.404 0.864,-1.816 2.948,-3.4 C -3.874,0.934 -1.658,0 -0.001,0 L 0,0 Z"
                 inkscape:connector-curvature="0" />
            </g>
            <g
               transform="translate(30.4588,13.4717)"
               id="g285">
              <path
                 id="path287"
                 style="fill:#bbddf5;fill-opacity:1;fill-rule:nonzero;stroke:none"
                 d="m 0,0 c 0.302,-0.404 0.516,-0.882 0.652,-1.426 -5.44,0.357 -9.955,1.653 -12.207,3.406 l 0,0.548 C -6.458,2.521 -1.779,2.384 0,0"
                 inkscape:connector-curvature="0" />
            </g>
            <g
               transform="translate(26.6166,7.6035)"
               id="g289">
              <path
                 id="path291"
                 style="fill:#bbddf5;fill-opacity:1;fill-rule:nonzero;stroke:none"
                 d="m 0,0 c 0,-0.978 0.792,-1.771 1.77,-1.771 0.979,0 1.772,0.793 1.772,1.771 0,0.979 -0.793,1.771 -1.772,1.771 C 0.792,1.771 0,0.979 0,0"
                 inkscape:connector-curvature="0" />
            </g>
            <g
               transform="translate(23.5927,7.9922)"
               id="g293">
              <path
                 id="path295"
                 style="fill:#bbddf5;fill-opacity:1;fill-rule:nonzero;stroke:none"
                 d="M 0,0 C 0,-0.718 0.582,-1.301 1.3,-1.301 2.019,-1.301 2.601,-0.718 2.601,0 2.601,0.719 2.019,1.301 1.3,1.301 0.582,1.301 0,0.719 0,0"
                 inkscape:connector-curvature="0" />
            </g>
            <g
               transform="translate(21.4325,9.0332)"
               id="g80">
              <path
                 id="path82"
                 style="fill:#bbddf5;fill-opacity:1;fill-rule:nonzero;stroke:none"
                 d="m 0,0 c 0,-0.575 0.466,-1.041 1.042,-1.041 0.575,0 1.042,0.466 1.042,1.041 0,0.575 -0.467,1.042 -1.042,1.042 C 0.466,1.042 0,0.575 0,0"
                 inkscape:connector-curvature="0" />
            </g>
            <g
               transform="translate(20.0326,10.0752)"
               id="g84">
              <path
                 id="path86"
                 style="fill:#bbddf5;fill-opacity:1;fill-rule:nonzero;stroke:none"
                 d="M 0,0 C 0,-0.387 0.313,-0.7 0.7,-0.7 1.086,-0.7 1.4,-0.387 1.4,0 1.4,0.387 1.086,0.7 0.7,0.7 0.313,0.7 0,0.387 0,0"
                 inkscape:connector-curvature="0" />
            </g>
            <g
               transform="translate(18,22)"
               id="g88">
              <path
                 id="path90"
                 style="fill:#292f33;fill-opacity:1;fill-rule:nonzero;stroke:none"
                 d="M 0,0 C -4,7 -16.536,11.336 -17,10 -19,4.25 -14.413,-3.609 -12.545,-5.04 -10.001,-6.988 0,-7 0,-6 l 0,6 z"
                 inkscape:connector-curvature="0" />
            </g>
            <g
               transform="translate(5.3752,19.3847)"
               id="g92">
              <path
                 id="path94"
                 style="fill:#3b88c3;fill-opacity:1;fill-rule:nonzero;stroke:none"
                 d="M 0,0 C -0.834,1.195 -2.146,3.975 -2.405,8.615 0.07,8.481 8.517,7.923 11.685,2.343 l 0,-5.193 C 10.698,-3.161 8.704,-3.06 5.127,-2.663 1.55,-2.266 0.834,-1.194 0,0"
                 inkscape:connector-curvature="0" />
            </g>
            <g
               transform="translate(3.2225,25.6247)"
               id="g96">
              <path
                 id="path98"
                 style="fill:#55acee;fill-opacity:1;fill-rule:nonzero;stroke:none"
                 d="M 0,0 C 0.201,-1.329 0.48,-2.463 0.796,-3.394 8.704,-2.239 13.79,-6.371 13.79,-6.371 13.79,-6.371 10.708,-0.318 0,0"
                 inkscape:connector-curvature="0" />
            </g>
            <g
               transform="translate(16.9136,17.125)"
               id="g100">
              <path
                 id="path102"
                 style="fill:#55acee;fill-opacity:1;fill-rule:nonzero;stroke:none"
                 d="m 0,0 c 0,0 -4.096,4.624 -12.213,3.427 0.238,-0.486 0.471,-0.875 0.675,-1.167 0.084,-0.12 0.167,-0.239 0.251,-0.356 C -5.398,2.955 0,0 0,0"
                 inkscape:connector-curvature="0" />
            </g>
            <g
               transform="translate(17.974,22)"
               id="g104">
              <path
                 id="path106"
                 style="fill:#292f33;fill-opacity:1;fill-rule:nonzero;stroke:none"
                 d="M 0,0 C 4,7 16.536,11.336 17,10 19,4.25 14.413,-3.609 12.545,-5.04 10.001,-6.988 0,-7 0,-6 l 0,6 z"
                 inkscape:connector-curvature="0" />
            </g>
            <g
               transform="translate(30.5988,19.3847)"
               id="g108">
              <path
                 id="path110"
                 style="fill:#3b88c3;fill-opacity:1;fill-rule:nonzero;stroke:none"
                 d="M 0,0 C 0.834,1.195 2.146,3.975 2.405,8.615 -0.07,8.481 -8.517,7.923 -11.685,2.343 l 0,-5.193 c 0.987,-0.311 2.981,-0.21 6.558,0.187 C -1.55,-2.266 -0.834,-1.194 0,0"
                 inkscape:connector-curvature="0" />
            </g>
            <g
               transform="translate(32.7514,25.6247)"
               id="g112">
              <path
                 id="path114"
                 style="fill:#55acee;fill-opacity:1;fill-rule:nonzero;stroke:none"
                 d="m 0,0 c -0.201,-1.329 -0.48,-2.463 -0.796,-3.394 -7.908,1.155 -12.994,-2.977 -12.994,-2.977 0,0 3.082,6.053 13.79,6.371"
                 inkscape:connector-curvature="0" />
            </g>
            <g
               transform="translate(19.0604,17.125)"
               id="g116">
              <path
                 id="path118"
                 style="fill:#55acee;fill-opacity:1;fill-rule:nonzero;stroke:none"
                 d="M 0,0 C 0,0 4.096,4.624 12.213,3.427 11.975,2.941 11.742,2.552 11.538,2.26 11.455,2.14 11.371,2.021 11.287,1.904 5.398,2.955 0,0 0,0"
                 inkscape:connector-curvature="0" />
            </g>
          </g>
        </g>
      </g>
    </g>
    <g
       transform="matrix(0.55214304,0.12747226,-0.12747226,0.55214304,68.601307,76.667591)"
       id="g317">
      <g
         transform="matrix(1.25,0,0,-1.25,0,47.5)"
         id="g319">
        <g
           id="g321">
          <g
             clip-path="url(#clipPath16)"
             id="g323">
            <g
               transform="translate(14,31)"
               id="g325">
              <path
                 id="path327"
                 style="fill:#ffcc4d;fill-opacity:1;fill-rule:nonzero;stroke:none"
                 d="m 0,0 c 0,-3.313 -2.687,-6 -6,-6 -3.313,0 -6,2.687 -6,6 0,3.313 2.687,6 6,6 3.313,0 6,-2.687 6,-6"
                 inkscape:connector-curvature="0" />
            </g>
            <g
               transform="translate(25,7)"
               id="g329">
              <path
                 id="path331"
                 style="fill:#ffcc4d;fill-opacity:1;fill-rule:nonzero;stroke:none"
                 d="m 0,0 c 0,-3.313 -2.687,-6 -6,-6 -3.313,0 -6,2.687 -6,6 0,3.313 2.687,6 6,6 3.313,0 6,-2.687 6,-6"
                 inkscape:connector-curvature="0" />
            </g>
            <g
               transform="translate(23,7)"
               id="g333">
              <path
                 id="path335"
                 style="fill:#dd2e44;fill-opacity:1;fill-rule:nonzero;stroke:none"
                 d="m 0,0 c 0,-2.209 -1.791,-4 -4,-4 -2.209,0 -4,1.791 -4,4 0,2.209 1.791,4 4,4 2.209,0 4,-1.791 4,-4"
                 inkscape:connector-curvature="0" />
            </g>
            <g
               transform="translate(36,31)"
               id="g337">
              <path
                 id="path339"
                 style="fill:#ffcc4d;fill-opacity:1;fill-rule:nonzero;stroke:none"
                 d="m 0,0 c 0,-3.313 -2.687,-6 -6,-6 -3.313,0 -6,2.687 -6,6 0,3.313 2.687,6 6,6 3.313,0 6,-2.687 6,-6"
                 inkscape:connector-curvature="0" />
            </g>
            <g
               transform="translate(12,31)"
               id="g341">
              <path
                 id="path343"
                 style="fill:#e6aaaa;fill-opacity:1;fill-rule:nonzero;stroke:none"
                 d="m 0,0 c 0,-2.209 -1.791,-4 -4,-4 -2.209,0 -4,1.791 -4,4 0,2.209 1.791,4 4,4 2.209,0 4,-1.791 4,-4"
                 inkscape:connector-curvature="0" />
            </g>
            <g
               transform="translate(34,31)"
               id="g345">
              <path
                 id="path347"
                 style="fill:#e6aaaa;fill-opacity:1;fill-rule:nonzero;stroke:none"
                 d="m 0,0 c 0,-2.209 -1.791,-4 -4,-4 -2.209,0 -4,1.791 -4,4 0,2.209 1.791,4 4,4 2.209,0 4,-1.791 4,-4"
                 inkscape:connector-curvature="0" />
            </g>
            <g
               transform="translate(35,15)"
               id="g349">
              <path
                 id="path351"
                 style="fill:#ffcc4d;fill-opacity:1;fill-rule:nonzero;stroke:none"
                 d="m 0,0 c 0,-7 -4.923,-7 -4.923,-7 l -22.154,0 c 0,0 -4.923,0 -4.923,7 0,0 1.231,22 16,22 C -1.23,22 0,0 0,0"
                 inkscape:connector-curvature="0" />
            </g>
            <g
               transform="translate(12,20)"
               id="g353">
              <path
                 id="path355"
                 style="fill:#272b2b;fill-opacity:1;fill-rule:nonzero;stroke:none"
                 d="M 0,0 C 0,0 0,2 2,2 4,2 4,0 4,0 l 0,-2 c 0,0 0,-2 -2,-2 -2,0 -2,2 -2,2 l 0,2 z"
                 inkscape:connector-curvature="0" />
            </g>
            <g
               transform="translate(22,20)"
               id="g357">
              <path
                 id="path359"
                 style="fill:#272b2b;fill-opacity:1;fill-rule:nonzero;stroke:none"
                 d="M 0,0 C 0,0 0,2 2,2 4,2 4,0 4,0 l 0,-2 c 0,0 0,-2 -2,-2 -2,0 -2,2 -2,2 l 0,2 z"
                 inkscape:connector-curvature="0" />
            </g>
            <g
               transform="translate(24.6777,14)"
               id="g361">
              <path
                 id="path363"
                 style="fill:#ffffff;fill-opacity:1;fill-rule:nonzero;stroke:none"
                 d="M 0,0 C -2.402,0 -4.501,-0.953 -5.678,-2.378 -6.855,-0.953 -8.955,0 -11.356,0 c -10.322,0 -10.279,-0.421 -10.322,-3.182 -0.087,-5.61 6.631,-6.9 10.322,-6.818 2.401,0.053 4.501,0.989 5.678,2.397 C -4.501,-9.011 -2.401,-9.947 0,-10 3.691,-10.082 10.409,-8.792 10.321,-3.182 10.278,-0.421 10.321,0 0,0"
                 inkscape:connector-curvature="0" />
            </g>
            <g
               transform="translate(34.6602,11.7578)"
               id="g365">
              <path
                 id="path367"
                 style="fill:#272b2b;fill-opacity:1;fill-rule:nonzero;stroke:none"
                 d="m 0,0 c 0.204,-0.279 0.333,-0.588 0.339,-0.939 0.03,-1.906 -0.745,-3.303 -1.915,-4.328 L -6.661,-5.758 0,0 Z"
                 inkscape:connector-curvature="0" />
            </g>
            <g
               transform="translate(16,12)"
               id="g369">
              <path
                 id="path371"
                 style="fill:#272b2b;fill-opacity:1;fill-rule:nonzero;stroke:none"
                 d="M 0,0 C -1,-1 2,-4 3,-4 4,-4 7,-1 6,0 5,1 1,1 0,0"
                 inkscape:connector-curvature="0" />
            </g>
            <g
               transform="translate(11,34)"
               id="g373">
              <path
                 id="path375"
                 style="fill:#272b2b;fill-opacity:1;fill-rule:nonzero;stroke:none"
                 d="m 0,0 c 2.667,-2 8,-4 8,-4 0,0 5.333,2 8,4 L 8,-1 0,0 Z"
                 inkscape:connector-curvature="0" />
            </g>
            <g
               transform="translate(19,35)"
               id="g377">
              <path
                 id="path379"
                 style="fill:#272b2b;fill-opacity:1;fill-rule:nonzero;stroke:none"
                 d="M 0,0 C 0,0 1.652,0.62 3.576,1.514 2.48,1.822 1.295,2 0,2 -1.295,2 -2.48,1.822 -3.576,1.514 -1.652,0.62 0,0 0,0"
                 inkscape:connector-curvature="0" />
            </g>
            <g
               transform="translate(12,28)"
               id="g381">
              <path
                 id="path383"
                 style="fill:#272b2b;fill-opacity:1;fill-rule:nonzero;stroke:none"
                 d="m 0,0 c 3,-2 7,-4 7,-4 0,0 4,2 7,4 L 7,-1 0,0 Z"
                 inkscape:connector-curvature="0" />
            </g>
            <g
               transform="translate(32.6445,25.7153)"
               id="g385">
              <path
                 id="path387"
                 style="fill:#272b2b;fill-opacity:1;fill-rule:nonzero;stroke:none"
                 d="M 0,0 -4.645,-3.715 1.361,-4.466 C 1.027,-3.064 0.584,-1.537 0,0"
                 inkscape:connector-curvature="0" />
            </g>
            <g
               transform="translate(34.5557,18.5557)"
               id="g389">
              <path
                 id="path391"
                 style="fill:#272b2b;fill-opacity:1;fill-rule:nonzero;stroke:none"
                 d="m 0,0 -5.556,-5.556 5.835,0 c 0.102,0.595 0.165,1.251 0.165,2 0,0 -0.081,1.43 -0.444,3.556"
                 inkscape:connector-curvature="0" />
            </g>
            <g
               transform="translate(3.4443,18.5557)"
               id="g393">
              <path
                 id="path395"
                 style="fill:#272b2b;fill-opacity:1;fill-rule:nonzero;stroke:none"
                 d="m 0,0 c -0.363,-2.126 -0.444,-3.556 -0.444,-3.556 0,-0.748 0.063,-1.405 0.165,-2 l 5.835,0 L 0,0 Z"
                 inkscape:connector-curvature="0" />
            </g>
            <g
               transform="translate(3.3389,11.7578)"
               id="g397">
              <path
                 id="path399"
                 style="fill:#272b2b;fill-opacity:1;fill-rule:nonzero;stroke:none"
                 d="m 0,0 c -0.204,-0.279 -0.333,-0.588 -0.339,-0.939 -0.03,-1.906 0.745,-3.303 1.916,-4.328 L 6.661,-5.758 0,0 Z"
                 inkscape:connector-curvature="0" />
            </g>
            <g
               transform="translate(10,22)"
               id="g401">
              <path
                 id="path403"
                 style="fill:#272b2b;fill-opacity:1;fill-rule:nonzero;stroke:none"
                 d="M 0,0 -4.644,3.715 C -5.229,2.178 -5.672,0.651 -6.005,-0.75 L 0,0 Z"
                 inkscape:connector-curvature="0" />
            </g>
          </g>
        </g>
      </g>
    </g>
    <g
       transform="matrix(-0.54735797,0.14666413,-0.14666413,-0.54735797,182.56562,107.46771)"
       id="g405">
      <g
         transform="matrix(1.25,0,0,-1.25,0,45)"
         id="g407">
        <g
           id="g409">
          <g
             clip-path="url(#clipPath16)"
             id="g411">
            <g
               transform="translate(36,18)"
               id="g413">
              <path
                 id="path415"
                 style="fill:#ffcc4d;fill-opacity:1;fill-rule:nonzero;stroke:none"
                 d="m 0,0 c 0,-9.941 -8.059,-18 -18,-18 -9.94,0 -18,8.059 -18,18 0,9.94 8.06,18 18,18 C -8.059,18 0,9.94 0,0"
                 inkscape:connector-curvature="0" />
            </g>
            <g
               transform="translate(14.0342,21.501)"
               id="g417">
              <path
                 id="path419"
                 style="fill:#664500;fill-opacity:1;fill-rule:nonzero;stroke:none"
                 d="M 0,0 C 0,-1.934 -1.119,-3.5 -2.5,-3.5 -3.881,-3.5 -5,-1.934 -5,0 -5,1.933 -3.881,3.5 -2.5,3.5 -1.119,3.5 0,1.933 0,0"
                 inkscape:connector-curvature="0" />
            </g>
            <g
               transform="translate(27.0342,21.501)"
               id="g421">
              <path
                 id="path423"
                 style="fill:#664500;fill-opacity:1;fill-rule:nonzero;stroke:none"
                 d="M 0,0 C 0,-1.934 -1.119,-3.5 -2.5,-3.5 -3.881,-3.5 -5,-1.934 -5,0 -5,1.933 -3.881,3.5 -2.5,3.5 -1.119,3.5 0,1.933 0,0"
                 inkscape:connector-curvature="0" />
            </g>
            <g
               transform="translate(25.001,8.9961)"
               id="g425">
              <path
                 id="path427"
                 style="fill:#664500;fill-opacity:1;fill-rule:nonzero;stroke:none"
                 d="m 0,0 -15.001,0 c -1,0 -1,1 -1,1 l 0,1 c 0,0 0,1.003 1,1.003 C -14.001,3.003 0,3 0,3 L 0,0 Z"
                 inkscape:connector-curvature="0" />
            </g>
            <path
               id="path36"
               style="fill:#9aaab4;fill-opacity:1;fill-rule:nonzero;stroke:none"
               d="m 14,7.999 -2,0 0,3 2,0 0,-3 z"
               inkscape:connector-curvature="0" />
            <path
               id="path430"
               style="fill:#9aaab4;fill-opacity:1;fill-rule:nonzero;stroke:none"
               d="m 16,12.999 -2,0 0,-3 2,0 0,3 z"
               inkscape:connector-curvature="0" />
            <path
               id="path40"
               style="fill:#9aaab4;fill-opacity:1;fill-rule:nonzero;stroke:none"
               d="m 12,12.999 -2,0 0,-3 2,0 0,3 z"
               inkscape:connector-curvature="0" />
            <path
               id="path433"
               style="fill:#9aaab4;fill-opacity:1;fill-rule:nonzero;stroke:none"
               d="m 17.999,7.999 -2,0 0,3 2,0 0,-3 z"
               inkscape:connector-curvature="0" />
            <path
               id="path44"
               style="fill:#9aaab4;fill-opacity:1;fill-rule:nonzero;stroke:none"
               d="m 20,12.999 -2.001,0 0,-3 2.001,0 0,3 z"
               inkscape:connector-curvature="0" />
            <path
               id="path436"
               style="fill:#9aaab4;fill-opacity:1;fill-rule:nonzero;stroke:none"
               d="m 22,7.999 -2,0 0,3 2,0 0,-3 z"
               inkscape:connector-curvature="0" />
            <path
               id="path48"
               style="fill:#9aaab4;fill-opacity:1;fill-rule:nonzero;stroke:none"
               d="m 24,12.999 -2,0 0,-3 2,0 0,3 z"
               inkscape:connector-curvature="0" />
            <g
               transform="translate(31.4834,3.8447)"
               id="g50">
              <path
                 id="path52"
                 style="fill:#99aab5;fill-opacity:1;fill-rule:nonzero;stroke:none"
                 d="M 0,0 2.308,4.186 -1.03,5.317 -2.645,2.248 0,0 Z m -5.172,7.493 c 0,0 0.265,0.964 1.231,0.699 L 3.771,6.071 c 0,0 0.964,-0.265 0.699,-1.23 -0.265,-0.964 -3.176,-6.314 -3.914,-6.984 -0.869,-0.787 -1.769,0.08 -1.769,0.08 0,0 -4.664,4.198 -5.285,4.735 -0.621,0.538 -0.373,1.275 -0.373,1.275 l 1.699,3.546 z"
                 inkscape:connector-curvature="0" />
            </g>
            <g
               transform="translate(24.8174,7.9482)"
               id="g54">
              <path
                 id="path56"
                 style="fill:#99aab5;fill-opacity:1;fill-rule:nonzero;stroke:none"
                 d="M 0,0 -1.754,0.839 -0.086,4.326 1.668,3.487 0,0 Z"
                 inkscape:connector-curvature="0" />
            </g>
          </g>
        </g>
      </g>
    </g>
    <g
       transform="matrix(0.35,-0.60621778,0.60621778,0.35,129.56518,140.29594)"
       id="g443">
      <g
         transform="matrix(1.25,0,0,-1.25,0,45)"
         id="g445">
        <g
           id="g447">
          <g
             clip-path="url(#clipPath16)"
             id="g449">
            <g
               transform="translate(27.2952,28.4738)"
               id="g451">
              <path
                 id="path453"
                 style="fill:#66757f;fill-opacity:1;fill-rule:nonzero;stroke:none"
                 d="m 0,0 c -1.152,3.054 -2.65,6.8 -8.298,6.915 -1.759,0.036 -1.521,-0.539 -0.347,-1.02 2.248,-0.922 -2.474,-5.438 4.759,-7.4 C 1.761,-3.036 1.152,-3.054 0,0"
                 inkscape:connector-curvature="0" />
            </g>
            <g
               transform="translate(36.004,32.097)"
               id="g455">
              <path
                 id="path457"
                 style="fill:#99aab5;fill-opacity:1;fill-rule:nonzero;stroke:none"
                 d="m 0,0 c -7.737,0 -14.41,-2.514 -18.105,-5.757 -4.875,-4.28 -5.38,-10.306 -14.034,-15.66 -2.847,-1.76 -0.423,-7.517 1.152,-9.618 1.908,-2.544 28.617,-0.238 30.987,8.777 L 0,0 Z"
                 inkscape:connector-curvature="0" />
            </g>
            <g
               transform="translate(8.6762,6.3477)"
               id="g459">
              <path
                 id="path461"
                 style="fill:#66757f;fill-opacity:1;fill-rule:nonzero;stroke:none"
                 d="m 0,0 c 1.011,-0.507 1.787,-1.051 1.318,-1.986 -0.469,-0.937 -1.173,-0.25 -2.184,0.257 -1.012,0.507 -2.286,0.018 -1.816,0.954 C -2.213,0.16 -1.012,0.507 0,0"
                 inkscape:connector-curvature="0" />
            </g>
            <g
               transform="translate(34.2021,29.6736)"
               id="g463">
              <path
                 id="path465"
                 style="fill:#66757f;fill-opacity:1;fill-rule:nonzero;stroke:none"
                 d="M 0,0 C 0.238,2.563 -2.178,4.999 -5.95,5.907 -7.635,6.312 -9.231,6.256 -8.295,5.429 -6.502,3.844 -8.377,1.422 -7.021,-1.695 -6.292,-3.369 -3.783,-5.449 -2.302,-5.516 -1.246,-5.564 -0.248,-2.668 0,0"
                 inkscape:connector-curvature="0" />
            </g>
            <g
               transform="translate(33.2467,29.6736)"
               id="g467">
              <path
                 id="path469"
                 style="fill:#99aab5;fill-opacity:1;fill-rule:nonzero;stroke:none"
                 d="M 0,0 C 0.238,2.563 -2.272,5.445 -6.17,6.007 -7.886,6.254 -8.457,5.92 -7.522,5.093 -5.728,3.508 -8.16,1.466 -6.804,-1.652 -6.076,-3.326 -3.41,-5.492 -1.929,-5.559 -0.873,-5.607 -0.248,-2.668 0,0"
                 inkscape:connector-curvature="0" />
            </g>
            <g
               transform="translate(2.6386,9.1021)"
               id="g471">
              <path
                 id="path473"
                 style="fill:#ccd6dd;fill-opacity:1;fill-rule:nonzero;stroke:none"
                 d="m 0,0 c -2.552,3.983 -3.626,11.971 -1.491,17.597 0.321,0.845 1.083,1.071 1.178,-0.13 C -0.132,15.185 2.104,10.634 7.653,6.499 8.894,5.575 1.94,-3.028 0,0"
                 inkscape:connector-curvature="0" />
            </g>
            <g
               transform="translate(13.2484,20.6131)"
               id="g475">
              <path
                 id="path477"
                 style="fill:#ccd6dd;fill-opacity:1;fill-rule:nonzero;stroke:none"
                 d="M 0,0 C -2.048,0.852 -3.609,3.189 -4.092,4.661 -4.669,6.419 -6.244,0.734 -3.24,-4.23 -2.034,-6.224 1.413,-0.588 0,0"
                 inkscape:connector-curvature="0" />
            </g>
            <g
               transform="translate(18.7886,14.9936)"
               id="g479">
              <path
                 id="path481"
                 style="fill:#292f33;fill-opacity:1;fill-rule:nonzero;stroke:none"
                 d="m 0,0 c 0,-1.105 -0.896,-2 -2,-2 -1.105,0 -2,0.895 -2,2 0,1.104 0.895,2 2,2 1.104,0 2,-0.896 2,-2"
                 inkscape:connector-curvature="0" />
            </g>
            <g
               transform="translate(30.2934,26.59)"
               id="g483">
              <path
                 id="path485"
                 style="fill:#e6aaaa;fill-opacity:1;fill-rule:nonzero;stroke:none"
                 d="M 0,0 C 1.331,-0.105 1.954,1.737 1.216,4.691 0.572,7.266 -3.036,7.938 -3.011,7.76 -2.986,7.581 -1.954,6.211 -2.997,4.821 -4.012,3.468 -1.65,0.13 0,0"
                 inkscape:connector-curvature="0" />
            </g>
          </g>
        </g>
      </g>
    </g>
    <g
       transform="translate(140.0 44.0) rotate(358 15 15) scale(0.6)"
       id="g487">
      <g
         transform="matrix(1.25,0,0,-1.25,0,47.5)"
         id="g489">
        <g
           id="g491">
          <g
             clip-path="url(#clipPath16)"
             id="g493">
            <g
               transform="translate(36,19)"
               id="g495">
              <path
                 id="path497"
                 style="fill:#ffcc4d;fill-opacity:1;fill-rule:nonzero;stroke:none"
                 d="m 0,0 c 0,-9.389 -7.611,-17 -17,-17 -9.388,0 -17,7.611 -17,17 0,9.388 7.612,17 17,17 C -7.611,17 0,9.388 0,0" />
            </g>
            <g
               transform="translate(15,20.5)"
               id="g499">
              <path
                 id="path501"
                 style="fill:#664500;fill-opacity:1;fill-rule:nonzero;stroke:none"
                 d="M 0,0 C 0,-1.934 -1.119,-3.5 -2.5,-3.5 -3.881,-3.5 -5,-1.934 -5,0 -5,1.933 -3.881,3.5 -2.5,3.5 -1.119,3.5 0,1.933 0,0" />
            </g>
            <g
               transform="translate(29.457,19.2031)"
               id="g503">
              <path
                 id="path505"
                 style="fill:#664500;fill-opacity:1;fill-rule:nonzero;stroke:none"
                 d="m 0,0 c -0.059,0.135 -1.499,3.297 -4.457,3.297 -2.957,0 -4.397,-3.162 -4.457,-3.297 -0.092,-0.207 -0.032,-0.449 0.144,-0.591 0.175,-0.142 0.426,-0.147 0.611,-0.014 0.012,0.009 1.262,0.902 3.702,0.902 2.426,0 3.674,-0.881 3.702,-0.901 0.088,-0.066 0.194,-0.099 0.298,-0.099 0.11,0 0.221,0.037 0.312,0.109 C 0.032,-0.452 0.093,-0.208 0,0" />
            </g>
            <g
               transform="translate(6.999,24.542)"
               id="g507">
              <path
                 id="path509"
                 style="fill:#664500;fill-opacity:1;fill-rule:nonzero;stroke:none"
                 d="m 0,0 c -0.208,0 -0.419,0.065 -0.599,0.2 -0.442,0.331 -0.531,0.958 -0.2,1.4 3.262,4.35 7.616,4.4 7.8,4.4 0.552,0 1,-0.448 1,-1 C 8.001,4.449 7.556,4.002 7.005,4 6.85,3.998 3.436,3.914 0.801,0.4 0.604,0.138 0.304,0 0,0" />
            </g>
            <g
               transform="translate(30.001,22.4165)"
               id="g511">
              <path
                 id="path513"
                 style="fill:#664500;fill-opacity:1;fill-rule:nonzero;stroke:none"
                 d="M 0,0 C -0.305,0 -0.605,0.138 -0.801,0.4 -3.393,3.856 -7.762,3.027 -7.805,3.02 -8.352,2.912 -8.873,3.263 -8.982,3.804 -9.09,4.345 -8.738,4.872 -8.197,4.98 -7.967,5.027 -2.54,6.052 0.799,1.6 1.131,1.158 1.041,0.531 0.599,0.2 0.419,0.065 0.209,0 0,0" />
            </g>
            <g
               transform="translate(24.2539,13.4229)"
               id="g515">
              <path
                 id="path517"
                 style="fill:#664500;fill-opacity:1;fill-rule:nonzero;stroke:none"
                 d="m 0,0 c -0.187,0.11 -0.432,0.087 -0.597,-0.06 -0.009,-0.007 -1.013,-0.863 -4.657,-0.863 -3.641,0 -4.645,0.854 -4.646,0.854 -0.16,0.16 -0.405,0.19 -0.601,0.082 -0.195,-0.112 -0.293,-0.339 -0.238,-0.557 0.011,-0.044 1.145,-4.379 5.485,-4.379 4.34,0 5.474,4.335 5.485,4.379 C 0.284,-0.331 0.187,-0.113 0,0" />
            </g>
          </g>
        </g>
      </g>
    </g>
    <g
       transform="matrix(-1,0,0,-1,143.28704,107.96296)"
       id="g519">
      <g
         transform="matrix(1.25,0,0,-1.25,0,47.5)"
         id="g521">
        <g
           id="g523">
          <g
             clip-path="url(#clipPath16)"
             id="g525">
            <g
               transform="translate(28.7461,9.2539)"
               id="g527">
              <path
                 id="path529"
                 style="fill:#3b88c3;fill-opacity:1;fill-rule:nonzero;stroke:none"
                 d="m 0,0 c -7.164,-7.164 -19.186,-10.181 -24.816,-5.324 -4.857,5.631 -1.84,17.652 5.324,24.816 7.164,7.164 19.185,10.181 24.816,5.324 C 11.229,17.088 7.164,7.164 0,0"
                 inkscape:connector-curvature="0" />
            </g>
          </g>
        </g>
        <g
           id="g531">
          <g
             clip-path="url(#clipPath28-rugby)"
             id="g26">
            <g
               transform="translate(36.834,29.6665)"
               id="g534">
              <path
                 id="path536"
                 style="fill:#ccd6dd;fill-opacity:1;fill-rule:nonzero;stroke:none"
                 d="m 0,0 c -0.334,-4.417 -9.334,-19.167 -24.417,-24.75 -1.167,-0.5 -1.084,-2 0.833,-2.167 1.917,-0.166 13.5,0.167 17.5,2.417 4,2.25 10.75,18.917 9,20.25 -1.75,1.333 4.416,7.75 3,6.417 C 4.5,0.833 0,0 0,0"
                 inkscape:connector-curvature="0" />
            </g>
            <g
               transform="translate(9.0835,9.166)"
               id="g538">
              <path
                 id="path540"
                 style="fill:#e1e8ed;fill-opacity:1;fill-rule:nonzero;stroke:none"
                 d="M 0,0 C 7.833,1.917 26.667,10.417 25.25,24.584 24.834,25.75 17.099,30.7 3.917,19.834 -3.667,13.584 -4.862,5.643 -4.333,0.917 -4.131,-0.896 -1.918,-0.47 0,0"
                 inkscape:connector-curvature="0" />
            </g>
          </g>
        </g>
      </g>
    </g>
    <g
       transform="matrix(0.42378272,-0.47065839,0.47065839,0.42378272,62.899202,45.036139)"
       id="g542">
      <g
         transform="matrix(1.25,0,0,-1.25,0,45)"
         id="g544">
        <g
           id="g546">
          <g
             clip-path="url(#clipPath16)"
             id="g548">
            <g
               transform="translate(33,15)"
               id="g550">
              <path
                 id="path552"
                 style="fill:#ffcc4d;fill-opacity:1;fill-rule:nonzero;stroke:none"
                 d="m 0,0 c 0,-8.284 -6.716,-15 -15,-15 -8.284,0 -15,6.716 -15,15 0,8.284 6.716,15 15,15 C -6.716,15 0,8.284 0,0"
                 inkscape:connector-curvature="0" />
            </g>
            <g
               transform="translate(25.6875,10.3945)"
               id="g554">
              <path
                 id="path556"
                 style="fill:#664500;fill-opacity:1;fill-rule:nonzero;stroke:none"
                 d="M 0,0 C -0.146,0.133 -0.366,0.141 -0.522,0.023 -0.555,0 -3.752,-2.365 -7.687,-2.365 c -3.925,0 -7.134,2.365 -7.165,2.388 -0.158,0.118 -0.377,0.108 -0.523,-0.023 -0.146,-0.132 -0.179,-0.35 -0.077,-0.518 0.105,-0.176 2.649,-4.317 7.765,-4.317 5.115,0 7.659,4.141 7.764,4.317 C 0.179,-0.349 0.146,-0.132 0,0"
                 inkscape:connector-curvature="0" />
            </g>
            <g
               transform="translate(14.7061,16.2354)"
               id="g558">
              <path
                 id="path560"
                 style="fill:#664500;fill-opacity:1;fill-rule:nonzero;stroke:none"
                 d="m 0,0 c 0,-1.593 -0.922,-2.883 -2.059,-2.883 -1.137,0 -2.059,1.29 -2.059,2.883 0,1.591 0.922,2.882 2.059,2.882 C -0.922,2.882 0,1.591 0,0"
                 inkscape:connector-curvature="0" />
            </g>
            <g
               transform="translate(25.4121,16.2354)"
               id="g562">
              <path
                 id="path564"
                 style="fill:#664500;fill-opacity:1;fill-rule:nonzero;stroke:none"
                 d="m 0,0 c 0,-1.593 -0.922,-2.883 -2.06,-2.883 -1.136,0 -2.058,1.29 -2.058,2.883 0,1.591 0.922,2.882 2.058,2.882 C -0.922,2.882 0,1.591 0,0"
                 inkscape:connector-curvature="0" />
            </g>
            <g
               transform="translate(32,29.8701)"
               id="g566">
              <path
                 id="path568"
                 style="fill:#664500;fill-opacity:1;fill-rule:nonzero;stroke:none"
                 d="M 0,0 C -1.19,-1.441 -3.182,-1.951 -5.076,-2.121 -5.394,-0.583 -6.759,5.13 -9.5,5.13 c -2.403,0 -3.269,-1.091 -4.5,-1.091 l 0,0 c -1.231,0 -2.097,1.091 -4.5,1.091 -2.741,0 -4.106,-5.713 -4.424,-7.251 -1.894,0.17 -3.886,0.68 -5.076,2.121 -2.153,2.606 -5,0.686 -3.558,-2.174 2.278,-4.517 7.788,-7.696 17.558,-7.696 9.769,0 15.279,3.179 17.558,7.696 C 5,0.686 2.153,2.606 0,0"
                 inkscape:connector-curvature="0" />
            </g>
            <g
               transform="translate(21.5,33)"
               id="g570">
              <path
                 id="path572"
                 style="fill:#825d0e;fill-opacity:1;fill-rule:nonzero;stroke:none"
                 d="m 0,0 c -1.869,0 -2.543,-0.964 -3.499,-0.964 l -0.002,0 C -4.457,-0.964 -5.131,0 -7,0 c -2.463,0 -3.5,-6.75 -3.5,-6.75 0,0 1.282,-2.25 7,-2.25 5.719,0 7,2.25 7,2.25 C 3.5,-6.75 2.463,0 0,0"
                 inkscape:connector-curvature="0" />
            </g>
            <g
               transform="translate(11,30)"
               id="g574">
              <path
                 id="path576"
                 style="fill:#664500;fill-opacity:1;fill-rule:nonzero;stroke:none"
                 d="m 0,0 c 0,0 2.074,-2 7,-2 4.927,0 7,2 7,2 l 0,-2 c 0,0 -2.222,-2 -7,-2 -4.778,0 -7,2 -7,2 l 0,2 z"
                 inkscape:connector-curvature="0" />
            </g>
          </g>
        </g>
      </g>
    </g>
  </g>
</svg>
