<?xml version="1.0" encoding="UTF-8" standalone="no"?>
<svg
   xmlns:dc="http://purl.org/dc/elements/1.1/"
   xmlns:cc="http://creativecommons.org/ns#"
   xmlns:rdf="http://www.w3.org/1999/02/22-rdf-syntax-ns#"
   xmlns:svg="http://www.w3.org/2000/svg"
   xmlns="http://www.w3.org/2000/svg"
   xmlns:sodipodi="http://sodipodi.sourceforge.net/DTD/sodipodi-0.dtd"
   xmlns:inkscape="http://www.inkscape.org/namespaces/inkscape"
   version="1.1"
   id="svg2"
   viewBox="0 0 200 200"
   height="200px"
   width="200px"
   inkscape:version="0.91 r13725"
   sodipodi:docname="33.svg">
  <metadata
     id="metadata410">
    <rdf:RDF>
      <cc:Work
         rdf:about="">
        <dc:format>image/svg+xml</dc:format>
        <dc:type
           rdf:resource="http://purl.org/dc/dcmitype/StillImage" />
      </cc:Work>
    </rdf:RDF>
  </metadata>
  <sodipodi:namedview
     pagecolor="#ffffff"
     bordercolor="#666666"
     borderopacity="1"
     objecttolerance="10"
     gridtolerance="10"
     guidetolerance="10"
     inkscape:pageopacity="0"
     inkscape:pageshadow="2"
     inkscape:window-width="1920"
     inkscape:window-height="1060"
     id="namedview408"
     showgrid="false"
     inkscape:zoom="4.72"
     inkscape:cx="117.83197"
     inkscape:cy="101.34869"
     inkscape:window-x="0"
     inkscape:window-y="0"
     inkscape:window-maximized="1"
     inkscape:current-layer="layer1" />
  
    
    
    <defs id="defs6">

        <clipPath
           id="clipPath28"
           clipPathUnits="userSpaceOnUse">
          <path
             id="path30"
             d="M 4,36 C 0,36 0,32 0,32 L 0,32 0,4 C 0,0 4,0 4,0 l 0,0 28,0 c 4,0 4,4 4,4 l 0,0 0,28 c 0,4 -4,4 -4,4 l 0,0 -28,0 z" />
        </clipPath>


        <clipPath clipPathUnits="userSpaceOnUse" id="clipPath16-rugby">
            <path d="M 0,38 38,38 38,0 0,0 0,38 Z" id="path18"/>
        </clipPath>
        <clipPath clipPathUnits="userSpaceOnUse" id="clipPath28-rugby">
            <path d="M 9.254,28.746 C 2.09,21.582 -0.927,9.561 3.929,3.929 l 0,0 C 9.561,-0.927 21.582,2.09 28.746,9.254 l 0,0 c 7.164,7.164 11.229,17.088 5.324,24.816 l 0,0 c -1.886,1.627 -4.489,2.371 -7.387,2.37 l 0,0 c -5.752,0 -12.665,-2.93 -17.429,-7.694" id="path30"/>
        </clipPath>

        <clipPath clipPathUnits="userSpaceOnUse" id="clipPath16-carrot">
            <path d="M 0,36 36,36 36,0 0,0 0,36 Z" id="path18"/>
        </clipPath>
        <clipPath clipPathUnits="userSpaceOnUse" id="clipPath32-carrot">
            <path d="M 11.815,23.013 C 4.2,15.397 -1.265,2.86 0.502,1.093 l 0,0 c 1.768,-1.768 14.305,3.698 21.92,11.313 l 0,0 c 7.616,7.615 7.562,11.53 4.243,14.85 l 0,0 c -1.328,1.328 -2.752,2.133 -4.47,2.133 l 0,0 c -2.575,0 -5.812,-1.809 -10.38,-6.376" id="path34"/>
        </clipPath>

        <clipPath clipPathUnits="userSpaceOnUse" id="clipPath32-hat">
            <path d="m 5,33.666 c 0,-0.034 0.018,-0.067 0.022,-0.101 l 0,0 C 5.008,33.455 5,33.335 5,33.2 l 0,0 L 6.802,9.616 C 3.299,8.705 1,7.424 1,6 L 1,6 C 1,3.238 9.611,1 19,1 l 0,0 c 9.389,0 18,2.238 18,5 l 0,0 c 0,1.424 -2.298,2.705 -5.801,3.616 l 0,0 L 33,33.184 c 0,0.135 -0.008,0.263 -0.021,0.373 l 0,0 C 32.982,33.591 33,33.632 33,33.666 l 0,0 c 0,1.805 -6.268,3.267 -14,3.267 l 0,0 c -7.732,0 -14,-1.462 -14,-3.267" id="path34"/>
        </clipPath>


        <clipPath clipPathUnits="userSpaceOnUse" id="clipPath48-soccer">
            <path d="M 1,19 C 1,9.059 9.059,1 19,1 l 0,0 c 9.941,0 18,8.059 18,18 l 0,0 c 0,9.941 -8.059,18 -18,18 l 0,0 C 9.059,37 1,28.941 1,19" id="path50"/>
        </clipPath>

        <clipPath clipPathUnits="userSpaceOnUse" id="clipPath28-baguette">
            <path d="M 24.052,31.33 5.126,12.406 C 1.342,8.62 1.288,4.133 2.856,2.564 l 0,0 C 4.424,0.997 8.912,1.049 12.697,4.835 l 0,0 18.925,18.924 c 3.784,3.785 3.837,8.273 2.269,9.841 l 0,0 c -0.605,0.606 -1.647,0.969 -2.915,0.969 l 0,0 c -2.014,0 -4.602,-0.917 -6.924,-3.239" id="path30"/>
        </clipPath>
    </defs>



  <g
     id="layer1">
    <circle
       style="opacity:1;fill:white;stroke:black;stroke-width:1;stroke-miterlimit:4;stroke-dasharray:none;stroke-opacity:0.1"
       id="path4039-0-9"
       cx="100px"
       cy="100px"
       r="90px" />
    <g
       transform="matrix(0.13891854,-0.7878462,0.7878462,0.13891854,136.76723,115.88773)"
       id="g8">
      <g
         transform="matrix(1.25,0,0,-1.25,0,47.5)"
         id="g10">
        <g
           id="g12">
          <g
             clip-path="url(#clipPath16)"
             id="g14">
            <g
               transform="translate(35.5391,3.5117)"
               id="g20">
              <path
                 id="path22"
                 style="fill:#662113;fill-opacity:1;fill-rule:nonzero;stroke:none"
                 d="m 0,0 c 0,0 1.18,-0.215 1.18,-1.256 0,-1.043 -1.042,-1.256 -2.084,-1.256 l -17.72,0 c -2.084,0 -5.915,4 -7.915,4 l -0.592,-4 -6.408,0 0,2.936 c 0,2.084 -0.881,2.285 -0.881,3.211 0,2.084 0.672,4.394 0.672,4.394 l 6.746,-0.31 9.463,-7.231 L 0,0 Z"
                 inkscape:connector-curvature="0" />
            </g>
            <g
               transform="translate(2.668,9.7187)"
               id="g24">
              <path
                 id="path26"
                 style="fill:#c1694f;fill-opacity:1;fill-rule:nonzero;stroke:none"
                 d="m 0,0 c 3.036,-0.731 6.332,-1.719 13.969,-5.379 0,0 2,-1.34 4.363,-1.34 l 14.539,0 c 0,0 1.18,0.257 1.18,2.424 0,1.084 -7.907,3.381 -10.27,4.465 -2.361,1.084 -6.445,6.316 -6.445,6.316 0,0 -0.17,-13.634 -7.258,-6.049 C 2.99,8.025 5.7,6.877 3.337,6.877 2.852,6.877 -0.401,5.57 -1.207,1.838 -1.322,1.305 -0.864,0.209 0,0"
                 inkscape:connector-curvature="0" />
            </g>
            <g
               transform="translate(3,15)"
               id="g28">
              <path
                 id="path18"
                 style="fill:#c1694f;fill-opacity:1;fill-rule:nonzero;stroke:none"
                 d="m 0,0 c 0,0 1,2 1,4 0,2 -1,17 -1,17 0,0 4.917,1 10,1 5.084,0 7,-1 7,-1 0,0 -6,-15 2,-23 2.55,-2.55 -2,-7 -2,-7 0,0 -1,-2 -4,0 C 10,-7 0,0 0,0"
                 inkscape:connector-curvature="0" />
            </g>
            <path
               id="path32"
               style="fill:#d99e82;fill-opacity:1;fill-rule:nonzero;stroke:none"
               d="m 11,17 -2,0 0,20 2,0 0,-20 z"
               inkscape:connector-curvature="0" />
          </g>
        </g>
      </g>
    </g>
    <g
       transform="matrix(0.72786718,-0.08937085,0.08937085,0.72786718,62.402412,24.736458)"
       id="g21">
      <g
         transform="matrix(1.25,0,0,-1.25,0,47.5)"
         id="g23">
        <g
           id="g25">
          <g
             clip-path="url(#clipPath16)"
             id="g27">
            <g
               transform="translate(24.9121,24.9131)"
               id="g29">
              <path
                 id="path31"
                 style="fill:#f18f26;fill-opacity:1;fill-rule:nonzero;stroke:none"
                 d="m 0,0 c -1.693,1.692 -3.594,2.587 -5.497,2.587 -1.626,0 -3.19,-0.668 -4.402,-1.88 -1.519,-1.519 -1.728,-2.39 -1.866,-2.966 -0.07,-0.295 -0.105,-0.421 -0.255,-0.57 -0.105,-0.106 -0.155,-0.256 -0.14,-0.406 0.015,-0.149 0.1,-0.286 0.225,-0.369 0.013,-0.009 0.324,-0.22 0.368,-0.651 0.039,-0.394 -0.13,-1.08 -1.16,-2.11 -0.629,-0.629 -1.252,-0.948 -1.85,-0.948 -0.981,0 -1.649,0.87 -1.653,0.876 -0.111,0.15 -0.295,0.227 -0.481,0.197 -0.185,-0.029 -0.337,-0.158 -0.396,-0.335 -0.221,-0.663 -0.251,-0.668 -0.535,-0.709 -0.59,-0.086 -1.578,-0.23 -3.624,-2.276 -1.675,-1.674 -2.265,-3.766 -1.708,-6.047 0.395,-1.618 1.408,-3.359 2.708,-4.66 1.408,-1.408 3.803,-2.912 6.301,-2.912 l 10e-4,0 c 1.654,0 3.136,0.643 4.405,1.912 2.046,2.046 2.189,3.034 2.275,3.624 0.041,0.285 0.046,0.314 0.709,0.535 0.178,0.059 0.307,0.212 0.336,0.396 0.03,0.184 -0.046,0.369 -0.196,0.481 -0.008,0.005 -0.805,0.619 -0.873,1.527 -0.047,0.638 0.27,1.302 0.944,1.975 0.963,0.963 1.622,1.166 2.005,1.166 0.504,0 0.746,-0.358 0.752,-0.367 0.08,-0.13 0.215,-0.216 0.368,-0.234 0.142,-0.016 0.302,0.035 0.411,0.143 0.149,0.15 0.275,0.185 0.57,0.255 0.576,0.139 1.446,0.348 2.965,1.867 C 2.994,-7.612 3.663,-3.664 0,0"
                 inkscape:connector-curvature="0" />
            </g>
            <g
               transform="translate(33,32.0005)"
               id="g33">
              <path
                 id="path35"
                 style="fill:#292f33;fill-opacity:1;fill-rule:nonzero;stroke:none"
                 d="M 0,0 -13.878,-15 -16,-12.879 -1,1 0,0 Z"
                 inkscape:connector-curvature="0" />
            </g>
            <g
               transform="translate(35.7041,34.3145)"
               id="g37">
              <path
                 id="path39"
                 style="fill:#f18f26;fill-opacity:1;fill-rule:nonzero;stroke:none"
                 d="m 0,0 c 0.437,-0.438 0.437,-1.155 -0.001,-1.592 l -3.187,-3.186 c -0.438,-0.438 -1.155,-0.438 -1.592,0 l -1.39,1.389 c -0.437,0.438 -0.437,1.155 0.001,1.593 l 3.187,3.186 c 0.438,0.437 1.155,0.437 1.592,-10e-4 L 0,0 Z"
                 inkscape:connector-curvature="0" />
            </g>
            <g
               transform="translate(35,29)"
               id="g32">
              <path
                 id="path34"
                 style="fill:#642116;fill-opacity:1;fill-rule:nonzero;stroke:none"
                 d="m 0,0 c 0,-0.552 -0.447,-1 -1,-1 -0.553,0 -1,0.448 -1,1 0,0.552 0.447,1 1,1 0.553,0 1,-0.448 1,-1"
                 inkscape:connector-curvature="0" />
            </g>
            <g
               transform="translate(37,31)"
               id="g36">
              <path
                 id="path38"
                 style="fill:#642116;fill-opacity:1;fill-rule:nonzero;stroke:none"
                 d="m 0,0 c 0,-0.553 -0.447,-1 -1,-1 -0.553,0 -1,0.447 -1,1 0,0.553 0.447,1 1,1 0.553,0 1,-0.447 1,-1"
                 inkscape:connector-curvature="0" />
            </g>
            <g
               transform="translate(30,34)"
               id="g40">
              <path
                 id="path42"
                 style="fill:#642116;fill-opacity:1;fill-rule:nonzero;stroke:none"
                 d="m 0,0 c 0,-0.553 -0.447,-1 -1,-1 -0.553,0 -1,0.447 -1,1 0,0.553 0.447,1 1,1 0.553,0 1,-0.447 1,-1"
                 inkscape:connector-curvature="0" />
            </g>
            <g
               transform="translate(32,36)"
               id="g44">
              <path
                 id="path46"
                 style="fill:#642116;fill-opacity:1;fill-rule:nonzero;stroke:none"
                 d="m 0,0 c 0,-0.553 -0.447,-1 -1,-1 -0.553,0 -1,0.447 -1,1 0,0.553 0.447,1 1,1 0.553,0 1,-0.447 1,-1"
                 inkscape:connector-curvature="0" />
            </g>
            <g
               transform="translate(3,5)"
               id="g48">
              <path
                 id="path50"
                 style="fill:#292f33;fill-opacity:1;fill-rule:nonzero;stroke:none"
                 d="M 0,0 4,5 C 4,5 4.999,5 6,4 7,3 7,2 7,2 L 2,-2 0,0 Z"
                 inkscape:connector-curvature="0" />
            </g>
            <g
               transform="translate(13.9995,10)"
               id="g52">
              <path
                 id="path54"
                 style="fill:#fee7b8;fill-opacity:1;fill-rule:nonzero;stroke:none"
                 d="m 0,0 c -0.256,0 -0.512,0.098 -0.707,0.293 l -3,3 c -0.391,0.391 -0.391,1.023 0,1.414 0.391,0.391 1.023,0.391 1.414,0 l 3,-3 C 1.098,1.316 1.098,0.684 0.707,0.293 0.512,0.098 0.256,0 0,0"
                 inkscape:connector-curvature="0" />
            </g>
          </g>
        </g>
      </g>
    </g>
    <g
       transform="matrix(-0.56632147,-0.01977638,0.01977638,-0.56632147,120.96737,176.90419)"
       id="g53">
      <g
         transform="matrix(1.25,0,0,-1.25,0,45)"
         id="g55">
        <g
           id="g57">
          <g
             clip-path="url(#clipPath16)"
             id="g59">
            <g
               transform="translate(27,7.5)"
               id="g61">
              <path
                 id="path63"
                 style="fill:#66757f;fill-opacity:1;fill-rule:nonzero;stroke:none"
                 d="M 0,0 C 0,0.828 -0.672,1.5 -1.5,1.5 -2.328,1.5 -3,0.828 -3,0 l 0,-0.5 c 0,0 0,-3 -3,-3 -3,0 -3,3 -3,3 l 0,25 0,0.5 c 0,0.829 -0.671,1.5 -1.5,1.5 -0.829,0 -1.5,-0.671 -1.5,-1.5 l 0,-25.5 c 0,0 0,-6 6,-6 6,0 6,6 6,6 L 0,0 Z"
                 inkscape:connector-curvature="0" />
            </g>
            <g
               transform="translate(16.5,32)"
               id="g65">
              <path
                 id="path67"
                 style="fill:#744eaa;fill-opacity:1;fill-rule:nonzero;stroke:none"
                 d="m 0,0 c -9.112,0 -16.5,-5.82 -16.5,-13 0,0 0,-2 1,-2 1,0 3,2 3,2 l 25,0 c 0,0 2,-2 3,-2 1,0 1,2 1,2 C 16.5,-5.82 9.112,0 0,0"
                 inkscape:connector-curvature="0" />
            </g>
            <g
               transform="translate(16.5,32)"
               id="g69">
              <path
                 id="path71"
                 style="fill:#9266cc;fill-opacity:1;fill-rule:nonzero;stroke:none"
                 d="m 0,0 c -6.903,0 -12.5,-5.82 -12.5,-13 0,0 0,-2 2,-2 2,0 5,2 5,2 l 11,0 c 0,0 3,-2 5,-2 2,0 2,2 2,2 C 12.5,-5.82 6.903,0 0,0"
                 inkscape:connector-curvature="0" />
            </g>
            <g
               transform="translate(16.5,32)"
               id="g73">
              <path
                 id="path75"
                 style="fill:#744eaa;fill-opacity:1;fill-rule:nonzero;stroke:none"
                 d="m 0,0 c -3.59,0 -5.5,-5.82 -5.5,-13 0,0 3,-2 5,-2 l 1,0 c 2,0 5,2 5,2 C 5.5,-5.82 3.59,0 0,0"
                 inkscape:connector-curvature="0" />
            </g>
          </g>
        </g>
      </g>
    </g>
    <g
       transform="translate(72.5 113.5) rotate(80 15 15) scale(0.8333333333333334)"
       id="g77">
      <g
         transform="matrix(1.25,0,0,-1.25,0,45)"
         id="g79">
        <g
           id="g81">
          <g
             clip-path="url(#clipPath16)"
             id="g83">
            <g
               transform="translate(15.2241,21.0815)"
               id="g85">
              <path
                 id="path87"
                 style="fill:#662113;fill-opacity:1;fill-rule:nonzero;stroke:none"
                 d="M 0,0 C 0.005,-0.552 -0.439,-1.003 -0.991,-1.009 -1.543,-1.014 -1.995,-0.57 -2,-0.018 l -0.035,4 C -2.04,4.534 -1.596,4.986 -1.044,4.991 -0.492,4.996 -0.041,4.552 -0.036,4 L 0,0 Z" />
            </g>
            <g
               transform="translate(19.6387,20.6348)"
               id="g89">
              <path
                 id="path91"
                 style="fill:#662113;fill-opacity:1;fill-rule:nonzero;stroke:none"
                 d="m 0,0 c -0.129,-0.537 -0.668,-0.869 -1.205,-0.741 -0.536,0.128 -0.869,0.667 -0.741,1.204 L -1.02,4.355 C -0.893,4.892 -0.353,5.223 0.184,5.096 0.722,4.968 1.054,4.429 0.926,3.892 L 0,0 Z" />
            </g>
            <g
               transform="translate(23.6387,19.1177)"
               id="g93">
              <path
                 id="path95"
                 style="fill:#662113;fill-opacity:1;fill-rule:nonzero;stroke:none"
                 d="m 0,0 c -0.25,-0.493 -0.852,-0.69 -1.345,-0.441 -0.491,0.249 -0.689,0.85 -0.441,1.343 l 1.804,3.57 C 0.266,4.965 0.868,5.163 1.361,4.914 1.854,4.665 2.052,4.063 1.803,3.571 L 0,0 Z" />
            </g>
            <g
               transform="translate(4.458,28.5708)"
               id="g97">
              <path
                 id="path99"
                 style="fill:#662113;fill-opacity:1;fill-rule:nonzero;stroke:none"
                 d="M 0,0 C -4.53,-0.32 -4.775,5.511 3.801,4.738 12.377,3.965 21.765,1.337 24.019,2.949 25.808,4.228 25.435,6.557 24.984,7.027 24.534,7.496 23.852,7.072 24.197,6.345 24.541,5.617 24.136,3.667 21.936,3.47 19.736,3.273 11.535,4.822 6.36,5.55 1.076,6.294 -3.171,5.925 -4.094,2.969 -5.014,0.022 -2.15,-0.903 -0.636,-1.047 0.878,-1.191 0,0 0,0" />
            </g>
            <g
               transform="translate(33.3779,22.7544)"
               id="g101">
              <path
                 id="path103"
                 style="fill:#c16a4f;fill-opacity:1;fill-rule:nonzero;stroke:none"
                 d="M 0,0 C 1.704,-2.632 3.319,-5.982 1.338,-11.753 L 1.24,-12.039 0.939,-13.031 c -0.152,0.003 -0.481,-0.076 -0.799,-0.153 -0.94,-0.226 -2.226,-0.535 -3.018,0.117 -0.439,0.364 -0.644,0.959 -0.608,1.771 0.072,1.618 -1.647,5.997 -4.454,7.555 -2.879,1.598 -5.606,2.481 -8.628,2.545 -2.938,0.063 -9.646,-1.385 -11.81,-0.558 -3.477,1.328 -3.561,5.188 -3,6 2.813,4.062 12.806,4.631 20.123,3.238 C -6.765,6.629 -2.541,3.928 0,0" />
            </g>
            <g
               transform="translate(26.877,5.5781)"
               id="g105">
              <path
                 id="path107"
                 style="fill:#662113;fill-opacity:1;fill-rule:nonzero;stroke:none"
                 d="m 0,0 c 1.081,0.979 2.108,2.463 2.619,3.779 0.253,0.65 0.375,1.236 0.365,1.743 -0.005,0.256 0.033,0.49 0.112,0.695 l 10e-4,0 C 3.243,6.594 3.684,7.367 3.914,7.02 5.596,4.512 7.197,6.487 7.6,6.282 7.854,6.153 7.996,5.877 7.956,5.596 7.803,4.537 6.191,-2.668 5.628,-4.12 L 5.579,-4.238 C 5.203,-5.089 4.506,-5.578 3.8,-5.487 3.468,-5.443 2.672,-5.195 2.453,-3.826 2.389,-3.414 2.262,-3.129 2.114,-3.064 1.974,-3.002 1.619,-3.055 1.081,-3.407 0.549,-3.757 -0.062,-3.748 -0.51,-3.385 -1.062,-2.938 -1.215,-2.083 -0.895,-1.254 -0.718,-0.801 -0.416,-0.379 0,0" />
            </g>
          </g>
        </g>
        <g
           id="g109">
          <g
             clip-path="url(#clipPath48)"
             id="g46">
            <g
               transform="translate(24.3203,18.6982)"
               id="g112">
              <path
                 id="path114"
                 style="fill:#662113;fill-opacity:1;fill-rule:nonzero;stroke:none"
                 d="M 0,0 C -1.922,2.735 -17.601,-5.1 -22.32,4.302 -18.601,2.587 -11.694,5.166 -5.778,4.635 6.088,3.57 6.429,-5.499 6.471,-6.287 5.945,-12.089 0,0 0,0" />
            </g>
            <g
               transform="translate(23.2188,27.4307)"
               id="g56">
              <path
                 id="path58"
                 style="fill:#662113;fill-opacity:1;fill-rule:nonzero;stroke:none"
                 d="M 0,0 C 1.053,1.03 3.189,2.242 4.807,2.277 6.422,2.313 4.43,4.578 2.726,3.748 1.592,3.249 -0.414,1.211 -1.025,0.066 -1.635,-1.078 -0.891,-0.87 0,0" />
            </g>
            <g
               transform="translate(35.6836,22.2588)"
               id="g60">
              <path
                 id="path62"
                 style="fill:#662113;fill-opacity:1;fill-rule:nonzero;stroke:none"
                 d="M 0,0 C -2.289,1.22 -5.321,3.227 -7.51,2.143 -9.698,1.059 -8.488,2.61 -7.484,3.348 -5.861,4.54 -3.437,4.097 -2.298,3.046 -1.158,1.997 0,0 0,0" />
            </g>
            <g
               transform="translate(37.9209,14.7832)"
               id="g64">
              <path
                 id="path66"
                 style="fill:#662113;fill-opacity:1;fill-rule:nonzero;stroke:none"
                 d="M 0,0 C -1.732,1.931 -3.894,4.855 -6.321,4.586 -8.748,4.318 -7.08,5.361 -5.884,5.71 -3.951,6.274 -1.825,5.027 -1.115,3.649 -0.404,2.273 0,0 0,0" />
            </g>
          </g>
        </g>
        <g
           id="g68">
          <g
             clip-path="url(#clipPath72)"
             id="g70">
            <g
               transform="translate(29.9102,0.2832)"
               id="g76">
              <path
                 id="path78"
                 style="fill:#292f33;fill-opacity:1;fill-rule:nonzero;stroke:none"
                 d="M 0,0 C -1.687,2.303 2.174,7.969 -3.405,1.472 -5.373,-1.341 0,0 0,0" />
            </g>
          </g>
        </g>
        <g
           id="g80">
          <g
             clip-path="url(#clipPath84)"
             id="g82">
            <g
               transform="translate(6.0835,29.2915)"
               id="g88">
              <path
                 id="path90"
                 style="fill:#c16a4f;fill-opacity:1;fill-rule:nonzero;stroke:none"
                 d="m 0,0 c -4.542,0 -4.375,5.833 4.125,4.458 8.501,-1.375 17.679,-4.657 20.042,-3.208 1.875,1.15 1.666,3.5 1.25,4 C 25.001,5.75 24.292,5.375 24.584,4.625 24.876,3.875 24.334,1.958 22.126,1.917 19.918,1.874 11.846,3.998 6.735,5.088 1.517,6.202 -2.747,6.134 -3.875,3.25 -5,0.375 -2.208,-0.75 -0.708,-1 0.792,-1.25 0,0 0,0" />
            </g>
            <g
               transform="translate(8,27)"
               id="g92">
              <path
                 id="path94"
                 style="fill:#292f33;fill-opacity:1;fill-rule:nonzero;stroke:none"
                 d="m 0,0 c 0,-0.552 -0.448,-1 -1,-1 -0.552,0 -1,0.448 -1,1 0,0.552 0.448,1 1,1 0.552,0 1,-0.448 1,-1" />
            </g>
            <g
               transform="translate(16.605,19.4736)"
               id="g96">
              <path
                 id="path98"
                 style="fill:#c16a4f;fill-opacity:1;fill-rule:nonzero;stroke:none"
                 d="m 0,0 c -0.069,-0.548 -0.57,-0.936 -1.118,-0.866 -0.547,0.069 -0.935,0.57 -0.866,1.117 L -1.48,4.22 c 0.069,0.548 0.569,0.935 1.117,0.866 C 0.185,5.017 0.573,4.516 0.503,3.968 L 0,0 Z" />
            </g>
            <g
               transform="translate(20.5176,18.7793)"
               id="g100">
              <path
                 id="path102"
                 style="fill:#c16a4f;fill-opacity:1;fill-rule:nonzero;stroke:none"
                 d="m 0,0 c -0.161,-0.528 -0.72,-0.824 -1.249,-0.664 -0.527,0.162 -0.825,0.721 -0.663,1.249 l 1.17,3.825 c 0.161,0.529 0.72,0.825 1.249,0.664 C 1.034,4.913 1.332,4.354 1.17,3.825 L 0,0 Z" />
            </g>
            <g
               transform="translate(24.0352,17.2979)"
               id="g104">
              <path
                 id="path106"
                 style="fill:#c16a4f;fill-opacity:1;fill-rule:nonzero;stroke:none"
                 d="m 0,0 c -0.289,-0.47 -0.904,-0.616 -1.376,-0.328 -0.47,0.29 -0.617,0.905 -0.327,1.376 L 0.393,4.455 C 0.682,4.926 1.297,5.072 1.768,4.783 2.238,4.494 2.386,3.878 2.096,3.407 L 0,0 Z" />
            </g>
          </g>
        </g>
      </g>
    </g>
    <g
       transform="matrix(-0.49017513,0.75480351,-0.75480351,-0.49017513,79.317441,92.953934)"
       id="g138">
      <g
         transform="matrix(1.25,0,0,-1.25,0,47.5)"
         id="g140">
        <g
           id="g142">
          <g
             clip-path="url(#clipPath16)"
             id="g144">
            <g
               transform="translate(35.0596,10.5928)"
               id="g146">
              <path
                 id="path148"
                 style="fill:#292f33;fill-opacity:1;fill-rule:nonzero;stroke:none"
                 d="m 0,0 -3.496,3.496 c -1.93,1.93 -5.06,1.93 -6.989,0 -0.719,-0.718 -1.167,-1.602 -1.352,-2.528 -5.765,1.078 -11.372,6.662 -11.721,11.653 0.948,0.176 1.854,0.628 2.587,1.36 1.93,1.931 1.93,5.061 0,6.991 l -3.495,3.495 c -1.93,1.93 -5.06,1.93 -6.99,0 C -41.941,13.981 -10.485,-17.475 0,-6.989 1.93,-5.06 1.93,-1.93 0,0"
                 inkscape:connector-curvature="0" />
            </g>
          </g>
        </g>
      </g>
    </g>
    <g
       transform="matrix(0.40855704,-0.34282006,0.34282006,0.40855704,93.867519,33.066402)"
       id="g150">
      <g
         transform="matrix(1.25,0,0,-1.25,0,45)"
         id="g152">
        <g
           id="g154">
          <g
             clip-path="url(#clipPath16)"
             id="g156">
            <g
               transform="translate(32.3252,25.0415)"
               id="g158">
              <path
                 id="path160"
                 style="fill:#662113;fill-opacity:1;fill-rule:nonzero;stroke:none"
                 d="M 0,0 C 0,0 2.315,-0.024 3.511,-1.177 3.175,3.794 1.407,7.072 -2.434,8.953 -5.574,10.072 -8.5,7.5 -8.5,7.5 c 0,0 0.862,1.99 2.19,2.746 -2.226,0.477 -4.869,0.712 -8.015,0.712 -3.136,0 -5.785,-0.226 -8.007,-0.7 1.342,-0.745 2.215,-2.758 2.215,-2.758 0,0 -3.014,2.656 -6.209,1.405 -3.778,-1.895 -5.518,-5.169 -5.841,-10.12 1.183,1.19 3.55,1.215 3.55,1.215 0,0 -3.813,-2.308 -3.425,-5.655 0.387,-2.947 1.394,-5.967 2.878,-8.722 -0.122,3.185 2.756,5.335 2.756,5.335 0,0 -2.492,-5.96 -0.581,-8.738 1.935,-2.542 4.313,-4.64 6.975,-5.916 -0.954,1.645 -0.135,3.044 -0.103,2.945 0.042,-0.125 0.459,-3.112 2.138,-3.743 1.178,-0.355 2.4,-0.548 3.654,-0.548 1.292,0 2.55,0.207 3.761,0.583 1.614,0.692 2.023,3.585 2.064,3.708 0.032,0.098 0.843,-1.287 -0.09,-2.92 2.706,1.308 5.118,3.463 7.065,6.073 1.698,2.846 -0.684,8.556 -0.684,8.556 0,0 2.85,-2.129 2.757,-5.288 1.556,2.907 2.585,6.105 2.911,9.2 C 3.424,-2.068 0,0 0,0"
                 inkscape:connector-curvature="0" />
            </g>
            <g
               transform="translate(13.8594,26.5049)"
               id="g162">
              <path
                 id="path164"
                 style="fill:#ffcc4d;fill-opacity:1;fill-rule:nonzero;stroke:none"
                 d="m 0,0 c 0.596,-2.392 0.16,-4.422 -2.232,-5.017 -2.392,-0.596 -6.363,-0.087 -6.958,2.304 -0.596,2.392 0.469,5.39 1.811,5.724 C -6.038,3.345 -0.595,2.392 0,0"
                 inkscape:connector-curvature="0" />
            </g>
            <g
               transform="translate(22.9629,8.0732)"
               id="g166">
              <path
                 id="path168"
                 style="fill:#ffcc4d;fill-opacity:1;fill-rule:nonzero;stroke:none"
                 d="m 0,0 c 0,-2.74 -2.222,-4.963 -4.963,-4.963 -2.741,0 -4.963,2.223 -4.963,4.963 0,2.741 2.222,4.964 4.963,4.964 C -2.222,4.964 0,2.741 0,0"
                 inkscape:connector-curvature="0" />
            </g>
            <g
               transform="translate(21.3086,8.0732)"
               id="g170">
              <path
                 id="path172"
                 style="fill:#dd2e44;fill-opacity:1;fill-rule:nonzero;stroke:none"
                 d="m 0,0 c 0,-1.827 -1.481,-3.309 -3.309,-3.309 -1.827,0 -3.308,1.482 -3.308,3.309 0,1.827 1.481,3.31 3.308,3.31 C -1.481,3.31 0,1.827 0,0"
                 inkscape:connector-curvature="0" />
            </g>
            <g
               transform="translate(11.0518,27.0034)"
               id="g174">
              <path
                 id="path176"
                 style="fill:#e6aaaa;fill-opacity:1;fill-rule:nonzero;stroke:none"
                 d="M 0,0 C 0.871,-1.393 0.447,-3.229 -0.946,-4.1 -2.339,-4.971 -3.554,-4.897 -4.424,-3.503 -5.295,-2.11 -4.61,0.627 -4.1,0.946 -3.59,1.265 -0.871,1.394 0,0"
                 inkscape:connector-curvature="0" />
            </g>
            <g
               transform="translate(22.1406,26.5049)"
               id="g178">
              <path
                 id="path180"
                 style="fill:#ffcc4d;fill-opacity:1;fill-rule:nonzero;stroke:none"
                 d="M 0,0 C -0.596,-2.392 -0.159,-4.422 2.232,-5.017 4.624,-5.613 8.595,-5.104 9.191,-2.713 9.786,-0.321 8.721,2.677 7.38,3.011 6.038,3.345 0.595,2.392 0,0"
                 inkscape:connector-curvature="0" />
            </g>
            <g
               transform="translate(24.9482,27.0034)"
               id="g182">
              <path
                 id="path184"
                 style="fill:#e6aaaa;fill-opacity:1;fill-rule:nonzero;stroke:none"
                 d="M 0,0 C -0.871,-1.393 -0.447,-3.229 0.945,-4.1 2.34,-4.971 3.554,-4.897 4.424,-3.503 5.295,-2.11 4.609,0.627 4.1,0.946 3.59,1.265 0.871,1.394 0,0"
                 inkscape:connector-curvature="0" />
            </g>
            <g
               transform="translate(18,28.875)"
               id="g186">
              <path
                 id="path188"
                 style="fill:#ffcc4d;fill-opacity:1;fill-rule:nonzero;stroke:none"
                 d="m 0,0 0,0 -0.001,0 -0.002,0 c -12.83,-0.001 -10.872,-4.958 -9.497,-11.542 1.375,-6.583 1.884,-8.333 1.884,-8.333 l 7.613,0 0.003,0 7.612,0 c 0,0 0.51,1.75 1.885,8.333 C 10.872,-4.958 12.829,-0.001 0,0"
                 inkscape:connector-curvature="0" />
            </g>
            <g
               transform="translate(12,20)"
               id="g190">
              <path
                 id="path192"
                 style="fill:#272b2b;fill-opacity:1;fill-rule:nonzero;stroke:none"
                 d="M 0,0 C 0,0 0,1.5 1.5,1.5 3,1.5 3,0 3,0 L 3,-1.5 C 3,-1.5 3,-3 1.5,-3 0,-3 0,-1.5 0,-1.5 L 0,0 Z"
                 inkscape:connector-curvature="0" />
            </g>
            <g
               transform="translate(21,20)"
               id="g194">
              <path
                 id="path196"
                 style="fill:#272b2b;fill-opacity:1;fill-rule:nonzero;stroke:none"
                 d="M 0,0 C 0,0 0,1.5 1.5,1.5 3,1.5 3,0 3,0 L 3,-1.5 C 3,-1.5 3,-3 1.5,-3 0,-3 0,-1.5 0,-1.5 L 0,0 Z"
                 inkscape:connector-curvature="0" />
            </g>
            <g
               transform="translate(20.168,14.4795)"
               id="g198">
              <path
                 id="path200"
                 style="fill:#ffe8b6;fill-opacity:1;fill-rule:nonzero;stroke:none"
                 d="M 0,0 C -1.598,0 -1.385,-0.848 -2.169,-2.113 -2.951,-0.848 -2.739,0 -4.337,0 c -6.865,0 -6.837,-0.375 -6.865,-2.828 -0.058,-4.987 2.802,-6.132 5.257,-6.06 1.597,0.048 2.994,0.88 3.777,2.131 0.783,-1.251 2.179,-2.083 3.776,-2.131 2.455,-0.072 5.316,1.073 5.257,6.06 C 6.837,-0.375 6.865,0 0,0"
                 inkscape:connector-curvature="0" />
            </g>
            <g
               transform="translate(14.5815,14.5889)"
               id="g202">
              <path
                 id="path204"
                 style="fill:#272b2b;fill-opacity:1;fill-rule:nonzero;stroke:none"
                 d="M 0,0 C -1.14,-0.232 2.279,-4.431 3.419,-4.431 4.558,-4.431 7.977,-0.232 6.837,0 5.698,0.232 1.139,0.232 0,0"
                 inkscape:connector-curvature="0" />
            </g>
            <g
               transform="translate(12,11.5)"
               id="g206">
              <path
                 id="path70"
                 style="fill:#d99e82;fill-opacity:1;fill-rule:nonzero;stroke:none"
                 d="M 0,0 C 0,-0.276 -0.224,-0.5 -0.5,-0.5 -0.776,-0.5 -1,-0.276 -1,0 -1,0.276 -0.776,0.5 -0.5,0.5 -0.224,0.5 0,0.276 0,0"
                 inkscape:connector-curvature="0" />
            </g>
            <g
               transform="translate(11,9.5)"
               id="g72">
              <path
                 id="path74"
                 style="fill:#d99e82;fill-opacity:1;fill-rule:nonzero;stroke:none"
                 d="M 0,0 C 0,-0.276 -0.224,-0.5 -0.5,-0.5 -0.776,-0.5 -1,-0.276 -1,0 -1,0.276 -0.776,0.5 -0.5,0.5 -0.224,0.5 0,0.276 0,0"
                 inkscape:connector-curvature="0" />
            </g>
            <g
               transform="translate(13,8.5)"
               id="g211">
              <path
                 id="path213"
                 style="fill:#d99e82;fill-opacity:1;fill-rule:nonzero;stroke:none"
                 d="M 0,0 C 0,-0.276 -0.224,-0.5 -0.5,-0.5 -0.776,-0.5 -1,-0.276 -1,0 -1,0.276 -0.776,0.5 -0.5,0.5 -0.224,0.5 0,0.276 0,0"
                 inkscape:connector-curvature="0" />
            </g>
            <g
               transform="translate(24,11.5)"
               id="g215">
              <path
                 id="path82"
                 style="fill:#d99e82;fill-opacity:1;fill-rule:nonzero;stroke:none"
                 d="M 0,0 C 0,-0.276 0.224,-0.5 0.5,-0.5 0.776,-0.5 1,-0.276 1,0 1,0.276 0.776,0.5 0.5,0.5 0.224,0.5 0,0.276 0,0"
                 inkscape:connector-curvature="0" />
            </g>
            <g
               transform="translate(25,9.5)"
               id="g84">
              <path
                 id="path86"
                 style="fill:#d99e82;fill-opacity:1;fill-rule:nonzero;stroke:none"
                 d="M 0,0 C 0,-0.276 0.224,-0.5 0.5,-0.5 0.776,-0.5 1,-0.276 1,0 1,0.276 0.776,0.5 0.5,0.5 0.224,0.5 0,0.276 0,0"
                 inkscape:connector-curvature="0" />
            </g>
            <g
               transform="translate(23,8.5)"
               id="g220">
              <path
                 id="path222"
                 style="fill:#d99e82;fill-opacity:1;fill-rule:nonzero;stroke:none"
                 d="M 0,0 C 0,-0.276 0.224,-0.5 0.5,-0.5 0.776,-0.5 1,-0.276 1,0 1,0.276 0.776,0.5 0.5,0.5 0.224,0.5 0,0.276 0,0"
                 inkscape:connector-curvature="0" />
            </g>
          </g>
        </g>
      </g>
    </g>
    <g
       transform="matrix(-0.77265321,0.31217216,-0.31217216,-0.77265321,165.48448,154.05985)"
       id="g224">
      <g
         transform="matrix(1.25,0,0,-1.25,0,47.5)"
         id="g226">
        <g
           id="g228">
          <g
             clip-path="url(#clipPath16)"
             id="g230">
            <g
               transform="translate(12.8403,29.3657)"
               id="g232">
              <path
                 id="path234"
                 style="fill:#dd2e44;fill-opacity:1;fill-rule:nonzero;stroke:none"
                 d="m 0,0 c -0.719,0 -2.295,-2.243 -3.567,-1.029 -0.44,0.42 1.817,1.279 1.727,2.017 -0.076,0.608 -2.843,1.52 -1.876,2.099 0.967,0.578 2.418,-0.841 3.513,-0.866 C 2.179,2.167 4.009,3.074 4.035,3.087 4.576,3.361 5.23,3.139 5.499,2.591 5.769,2.044 5.55,1.378 5.011,1.105 4.881,1.039 2.786,0 0,0"
                 inkscape:connector-curvature="0" />
            </g>
            <g
               transform="translate(28.8184,1)"
               id="g236">
              <path
                 id="path238"
                 style="fill:#77b255;fill-opacity:1;fill-rule:nonzero;stroke:none"
                 d="m 0,0 c -3.967,0 -8.182,2.912 -8.182,8.308 0,1.374 -0.889,1.661 -1.636,1.661 -0.746,0 -1.637,-0.287 -1.637,-1.661 0,-5.396 -4.215,-8.308 -8.182,-8.308 -3.966,0 -8.181,2.77 -8.181,8.308 0,13.292 14.181,15.127 14.181,13.292 0,-1.835 -7.636,1.108 -7.636,-12.185 0,-2.215 0.89,-2.769 1.636,-2.769 0.747,0 1.637,0.288 1.637,1.662 0,5.395 4.215,8.307 8.182,8.307 3.965,0 8.181,-2.912 8.181,-8.307 0,-1.374 0.89,-1.662 1.637,-1.662 0.747,0 1.636,0.288 1.636,1.662 l 0,16.615 c 0,3.855 -3.417,4.431 -5.454,4.431 0,0 -3.273,-1.108 -6.546,-1.108 -3.273,0 -4.364,2.596 -4.364,4.431 0,1.835 4.364,3.323 10.91,3.323 6.546,0 12,-4.451 12,-11.077 l 0,-16.615 C 8.182,2.912 3.966,0 0,0"
                 inkscape:connector-curvature="0" />
            </g>
            <g
               transform="translate(21,34)"
               id="g240">
              <path
                 id="path242"
                 style="fill:#292f33;fill-opacity:1;fill-rule:nonzero;stroke:none"
                 d="m 0,0 c 0,-0.552 -0.447,-1 -1,-1 -0.553,0 -1,0.448 -1,1 0,0.552 0.447,1 1,1 0.553,0 1,-0.448 1,-1"
                 inkscape:connector-curvature="0" />
            </g>
          </g>
        </g>
      </g>
    </g>
    <g
       transform="matrix(-0.1561945,-0.54471496,0.54471496,-0.1561945,38.063092,78.528062)"
       id="g244">
      <g
         transform="matrix(1.25,0,0,-1.25,0,47.5)"
         id="g246">
        <g
           id="g248">
          <g
             clip-path="url(#clipPath16)"
             id="g250">
            <g
               transform="translate(29,35.0005)"
               id="g252">
              <path
                 id="path254"
                 style="fill:#ffe8b6;fill-opacity:1;fill-rule:nonzero;stroke:none"
                 d="m 0,0 c 2.684,1.342 5,-4 3,-13 -1.106,-4.977 -5,-9 -9,-12 -4,-3 -11,1 -7,5 4,4 8,7 10,13 1.304,3.912 1,6 3,7"
                 inkscape:connector-curvature="0" />
            </g>
            <g
               transform="translate(32,29.0005)"
               id="g256">
              <path
                 id="path258"
                 style="fill:#ffd983;fill-opacity:1;fill-rule:nonzero;stroke:none"
                 d="m 0,0 c 0,-3 -1,-9 -4,-13 -3,-4 -7,-5 -4,-1 3,4 5,7 6,11 1,4 2,7 2,3"
                 inkscape:connector-curvature="0" />
            </g>
            <g
               transform="translate(23,17)"
               id="g260">
              <path
                 id="path262"
                 style="fill:#ffcc4d;fill-opacity:1;fill-rule:nonzero;stroke:none"
                 d="M 0,0 C -0.296,-0.592 1,3 -1,5 -1.169,4.832 -1.338,4.632 -1.521,4.407 -1.621,5.112 -2.113,5.557 -3,6 -5,7 -13.001,5 -7,5 -4,5 -3,3.001 -5,1 -5.292,0.709 -5.489,0.397 -5.623,0.089 -6.039,-0.258 -6.495,-0.621 -7,-1 c -2.263,-1.697 -5.84,-4.227 -10,-7 -3,-2 -4,-3 -4,-4 0,-3 9,-3 14,-1 5,2 10,7 10,7 l 4,4 C 4,2 0,0 0,0"
                 inkscape:connector-curvature="0" />
            </g>
            <g
               transform="translate(23,17)"
               id="g264">
              <path
                 id="path266"
                 style="fill:#ffe8b6;fill-opacity:1;fill-rule:nonzero;stroke:none"
                 d="m 0,0 c 0,0 1,5 -3,7 -4.001,2 -8,1 -11,-1 -3,-2 -2,-3.999 -3,-5 -1,-1 1,-2 3,0 2,2 8.315,4.895 11,4 3,-1 2,-2.999 3,-5"
                 inkscape:connector-curvature="0" />
            </g>
            <g
               transform="translate(27,18.0005)"
               id="g268">
              <path
                 id="path270"
                 style="fill:#a6d388;fill-opacity:1;fill-rule:nonzero;stroke:none"
                 d="m 0,0 c 3,0 8,-3 7,-9 -1,-6 -5,-7 -7,-7 l -4,0 c -2,0 -3,-1 -4,-1 -1,0 -2,2 0,2 2,0 4,0 5,1 1,1 5,0 5,6 0,3 -4,7 -6,7 0,0 2,1 4,1"
                 inkscape:connector-curvature="0" />
            </g>
            <g
               transform="translate(19.9995,2)"
               id="g272">
              <path
                 id="path274"
                 style="fill:#3e721d;fill-opacity:1;fill-rule:nonzero;stroke:none"
                 d="m 0,0 c 0,-0.553 -0.448,-1 -1,-1 -0.552,0 -1,0.447 -1,1 0,0.553 0.448,1 1,1 0.552,0 1,-0.447 1,-1"
                 inkscape:connector-curvature="0" />
            </g>
            <g
               transform="translate(27,18.0005)"
               id="g276">
              <path
                 id="path278"
                 style="fill:#ffcc4d;fill-opacity:1;fill-rule:nonzero;stroke:none"
                 d="m 0,0 c 3,0 8,-3 7,-9 -1,-6 -5,-7 -7,-7 l -4,0 c -2,0 0,1 1,2 1,1 5,0 5,6 0,3 -4,7 -6,7 0,0 2,1 4,1"
                 inkscape:connector-curvature="0" />
            </g>
            <g
               transform="translate(27,18.0005)"
               id="g280">
              <path
                 id="path282"
                 style="fill:#ffe8b6;fill-opacity:1;fill-rule:nonzero;stroke:none"
                 d="m 0,0 c 3,0 8,-3 7,-9 -1,-6 -5,-7 -7,-7 l -2,0 c -2,0 -1,1 0,2 1,1 4,0 4,6 0,3 -4,7 -6,7 0,0 2,1 4,1"
                 inkscape:connector-curvature="0" />
            </g>
            <g
               transform="translate(17.9995,16)"
               id="g284">
              <path
                 id="path286"
                 style="fill:#ffd983;fill-opacity:1;fill-rule:nonzero;stroke:none"
                 d="m 0,0 c 3,0 5,-1 3,-3 -1.581,-1.581 -6,-5 -10,-6 -4,-1 -8,-1 -5,1 3,2 9.764,8 12,8"
                 inkscape:connector-curvature="0" />
            </g>
            <g
               transform="translate(2.9995,6)"
               id="g288">
              <path
                 id="path290"
                 style="fill:#c1694f;fill-opacity:1;fill-rule:nonzero;stroke:none"
                 d="M 0,0 C 1,0 1,0 1,-0.667 1,-1.333 1,-2 0,-2 c -1,0 -1,1.333 -1,1.333 0,0 0,0.667 1,0.667"
                 inkscape:connector-curvature="0" />
            </g>
          </g>
        </g>
      </g>
    </g>
    <g
       transform="translate(43.5 107.5) rotate(88 15 15) scale(0.9666666666666667)"
       id="g292">
      <g
         transform="matrix(1.25,0,0,-1.25,0,47.5)"
         id="g294">
        <g
           id="g296">
          <g
             clip-path="url(#clipPath16)"
             id="g298">
            <g
               transform="translate(19.2412,27.3672)"
               id="g300">
              <path
                 id="path302"
                 style="fill:#5c913b;fill-opacity:1;fill-rule:nonzero;stroke:none"
                 d="M 0,0 C -0.277,3.307 2.17,4.72 2.17,4.72 -1.029,4.607 -2.724,1.895 -2.724,1.895 -3.476,3.194 -1.778,5.907 -0.555,6.614 -3.753,6.501 -4.225,4.494 -4.225,4.494 -5.728,7.095 -5.254,9.102 -5.254,9.102 -6.375,8.454 -7.021,6.989 -7.396,5.589 L -9.714,8.26 c -0.23,-1.046 0.156,-3.176 0.572,-4.962 -3.054,1.791 -5.902,0.151 -5.902,0.151 3.95,-1.187 5.45,-3.787 5.45,-3.787 0,0 -3.948,1.187 -5.645,-1.527 2.596,0.092 4.5,-0.499 5.856,-1.229 -1.163,-0.289 -3.145,0.236 -4.355,-1.371 0,0 3.198,0.113 3.851,-1.055 -2.172,-0.614 -3.574,-2.251 -3.574,-2.251 4.422,0.818 9.123,-1.668 9.123,-1.668 L 1.78,-5.907 C 0.751,-1.3 4.422,0.82 4.422,0.82 1.697,2.713 0,0 0,0" />
            </g>
            <g
               transform="translate(30.5605,14.1201)"
               id="g304">
              <path
                 id="path306"
                 style="fill:#ffac33;fill-opacity:1;fill-rule:nonzero;stroke:none"
                 d="m 0,0 c 2.488,-4.309 1.218,-9.7 -2.837,-12.041 -4.055,-2.341 -9.359,-0.746 -11.846,3.562 l -1.589,2.753 c -2.489,4.31 -1.218,9.699 2.837,12.04 4.055,2.342 9.359,0.747 11.846,-3.562 L 0,0 Z" />
            </g>
            <g
               transform="translate(28.7178,10.541)"
               id="g308">
              <path
                 id="path310"
                 style="fill:#ffcc4d;fill-opacity:1;fill-rule:nonzero;stroke:none"
                 d="M 0,0 -1.951,0.828 -1.123,2.778 0.828,1.951 0,0 Z m -1.656,-3.901 -1.95,0.827 0.828,1.952 1.95,-0.828 -0.828,-1.951 z m -1.657,-3.904 -1.951,0.828 0.828,1.952 1.952,-0.829 -0.829,-1.951 z m -4.197,6.388 0.828,1.952 1.952,-0.829 -0.829,-1.952 -1.951,0.829 z m 0.294,-4.73 -1.95,0.828 0.828,1.95 1.95,-0.829 -0.828,-1.949 z m -4.196,6.386 0.829,1.951 1.951,-0.827 -0.828,-1.952 -1.952,0.828 z m 0.295,-4.73 -1.951,0.827 0.828,1.951 1.951,-0.828 -0.828,-1.95 z m -4.196,6.386 0.828,1.952 1.951,-0.828 -0.828,-1.953 -1.951,0.829 z m 2.484,5.852 1.951,-0.828 -0.829,-1.949 -1.95,0.828 0.828,1.949 z m 3.902,-1.655 1.95,-0.828 -0.828,-1.951 -1.95,0.828 0.828,1.951 z M -7.271,9.994 -5.319,9.166 -6.148,7.214 -8.1,8.042 -7.271,9.994 Z m 4.197,-6.387 -0.828,-1.95 -1.952,0.827 0.829,1.952 1.951,-0.829 z m -0.294,4.731 1.95,-0.829 -0.828,-1.95 -1.951,0.828 0.829,1.951 z M 2.845,1.095 C 2.636,1.942 2.305,2.779 1.843,3.579 L 1.656,3.902 1.656,3.901 -0.295,4.729 0.329,6.2 0.254,6.331 c -2.025,3.51 -5.92,5.217 -9.486,4.466 l -0.819,-1.926 -1.884,0.799 c -3.28,-2.122 -4.567,-6.318 -3.262,-10.128 l 1.006,-0.427 -0.401,-0.946 c 0.055,-0.106 0.102,-0.212 0.162,-0.315 l 1.59,-2.753 c 0.685,-1.188 1.59,-2.161 2.617,-2.91 l 0.229,0.538 1.951,-0.828 -0.324,-0.763 c 0.665,-0.278 1.357,-0.465 2.06,-0.573 l 0.215,0.507 1.404,-0.594 c 1.144,0.047 2.28,0.335 3.342,0.882 l -0.016,0.007 0.828,1.951 1.188,-0.504 c 0.523,0.522 0.973,1.104 1.334,1.737 l -1.693,0.72 0.828,1.951 1.667,-0.707 c 0.191,0.7 0.301,1.426 0.316,2.167 l -1.155,0.49 0.828,1.951 0.066,-0.028 z" />
            </g>
          </g>
        </g>
      </g>
    </g>
    <g
       transform="matrix(-0.5999351,0.71497481,-0.71497481,-0.5999351,134.97994,81.320639)"
       id="g312">
      <g
         transform="matrix(1.25,0,0,-1.25,0,45)"
         id="g314">
        <g
           id="g316">
          <g
             clip-path="url(#clipPath16)"
             id="g318">
            <g
               transform="translate(33,15)"
               id="g320">
              <path
                 id="path322"
                 style="fill:#ffcc4d;fill-opacity:1;fill-rule:nonzero;stroke:none"
                 d="m 0,0 c 0,-8.284 -6.716,-15 -15,-15 -8.284,0 -15,6.716 -15,15 0,8.284 6.716,15 15,15 C -6.716,15 0,8.284 0,0"
                 inkscape:connector-curvature="0" />
            </g>
            <g
               transform="translate(25.6875,10.3945)"
               id="g324">
              <path
                 id="path326"
                 style="fill:#664500;fill-opacity:1;fill-rule:nonzero;stroke:none"
                 d="M 0,0 C -0.146,0.133 -0.366,0.141 -0.522,0.023 -0.555,0 -3.752,-2.365 -7.687,-2.365 c -3.925,0 -7.134,2.365 -7.165,2.388 -0.158,0.118 -0.377,0.108 -0.523,-0.023 -0.146,-0.132 -0.179,-0.35 -0.077,-0.518 0.105,-0.176 2.649,-4.317 7.765,-4.317 5.115,0 7.659,4.141 7.764,4.317 C 0.179,-0.349 0.146,-0.132 0,0"
                 inkscape:connector-curvature="0" />
            </g>
            <g
               transform="translate(14.7061,16.2354)"
               id="g328">
              <path
                 id="path330"
                 style="fill:#664500;fill-opacity:1;fill-rule:nonzero;stroke:none"
                 d="m 0,0 c 0,-1.593 -0.922,-2.883 -2.059,-2.883 -1.137,0 -2.059,1.29 -2.059,2.883 0,1.591 0.922,2.882 2.059,2.882 C -0.922,2.882 0,1.591 0,0"
                 inkscape:connector-curvature="0" />
            </g>
            <g
               transform="translate(25.4121,16.2354)"
               id="g332">
              <path
                 id="path334"
                 style="fill:#664500;fill-opacity:1;fill-rule:nonzero;stroke:none"
                 d="m 0,0 c 0,-1.593 -0.922,-2.883 -2.06,-2.883 -1.136,0 -2.058,1.29 -2.058,2.883 0,1.591 0.922,2.882 2.058,2.882 C -0.922,2.882 0,1.591 0,0"
                 inkscape:connector-curvature="0" />
            </g>
            <g
               transform="translate(32,29.8701)"
               id="g336">
              <path
                 id="path338"
                 style="fill:#664500;fill-opacity:1;fill-rule:nonzero;stroke:none"
                 d="M 0,0 C -1.19,-1.441 -3.182,-1.951 -5.076,-2.121 -5.394,-0.583 -6.759,5.13 -9.5,5.13 c -2.403,0 -3.269,-1.091 -4.5,-1.091 l 0,0 c -1.231,0 -2.097,1.091 -4.5,1.091 -2.741,0 -4.106,-5.713 -4.424,-7.251 -1.894,0.17 -3.886,0.68 -5.076,2.121 -2.153,2.606 -5,0.686 -3.558,-2.174 2.278,-4.517 7.788,-7.696 17.558,-7.696 9.769,0 15.279,3.179 17.558,7.696 C 5,0.686 2.153,2.606 0,0"
                 inkscape:connector-curvature="0" />
            </g>
            <g
               transform="translate(21.5,33)"
               id="g340">
              <path
                 id="path342"
                 style="fill:#825d0e;fill-opacity:1;fill-rule:nonzero;stroke:none"
                 d="m 0,0 c -1.869,0 -2.543,-0.964 -3.499,-0.964 l -0.002,0 C -4.457,-0.964 -5.131,0 -7,0 c -2.463,0 -3.5,-6.75 -3.5,-6.75 0,0 1.282,-2.25 7,-2.25 5.719,0 7,2.25 7,2.25 C 3.5,-6.75 2.463,0 0,0"
                 inkscape:connector-curvature="0" />
            </g>
            <g
               transform="translate(11,30)"
               id="g344">
              <path
                 id="path346"
                 style="fill:#664500;fill-opacity:1;fill-rule:nonzero;stroke:none"
                 d="m 0,0 c 0,0 2.074,-2 7,-2 4.927,0 7,2 7,2 l 0,-2 c 0,0 -2.222,-2 -7,-2 -4.778,0 -7,2 -7,2 l 0,2 z"
                 inkscape:connector-curvature="0" />
            </g>
          </g>
        </g>
      </g>
    </g>
    <g
       transform="matrix(0.50941614,0.52751585,-0.52751585,0.50941614,138.23463,28.298502)"
       id="g348">
      <g
         transform="matrix(1.25,0,0,-1.25,0,47.5)"
         id="g350">
        <g
           id="g352">
          <g
             clip-path="url(#clipPath16)"
             id="g354">
            <g
               transform="translate(29.0684,5.6445)"
               id="g356">
              <path
                 id="path358"
                 style="fill:#ffac33;fill-opacity:1;fill-rule:nonzero;stroke:none"
                 d="M 0,0 C -2.229,0 -8.468,-0.785 -10.068,-1.832 -11.669,-0.785 -17.908,0 -20.137,0 c -2.565,0 -1.161,-1.039 -1.161,-2.322 0,-1.282 -1.404,-2.323 1.161,-2.323 2.229,0 8.468,0.786 10.069,1.832 1.6,-1.046 7.839,-1.832 10.068,-1.832 2.565,0 1.161,1.041 1.161,2.323 C 1.161,-1.039 2.565,0 0,0"
                 inkscape:connector-curvature="0" />
            </g>
            <g
               transform="translate(32.7305,21.1338)"
               id="g360">
              <path
                 id="path362"
                 style="fill:#292f33;fill-opacity:1;fill-rule:nonzero;stroke:none"
                 d="m 0,0 c -1.25,2.499 -3.152,4.995 -4.942,6.723 -2.452,5.432 -6.03,9.143 -8.788,9.143 -2.759,0 -6.337,-3.71 -8.788,-9.142 C -24.309,4.995 -26.211,2.5 -27.461,0 c -2.438,-4.876 -3.116,-11.426 -2.078,-11.944 0.873,-0.437 2.324,1.551 4.208,5.082 0.268,-10.876 7.047,-10.95 11.601,-10.95 4.552,0 11.333,0.074 11.6,10.948 1.884,-3.529 3.335,-5.517 4.207,-5.08 C 3.115,-11.426 2.438,-4.876 0,0"
                 inkscape:connector-curvature="0" />
            </g>
            <g
               transform="translate(22.6748,30.0566)"
               id="g364">
              <path
                 id="path366"
                 style="fill:#f5f8fa;fill-opacity:1;fill-rule:nonzero;stroke:none"
                 d="m 0,0 c -0.85,-0.607 -2.172,-1.186 -3.675,-1.186 -1.503,0 -2.825,0.579 -3.675,1.186 -3.302,-2.137 -5.615,-7.061 -5.615,-12.799 0,-7.695 4.159,-13.935 9.29,-13.935 5.132,0 9.291,6.24 9.291,13.935 C 5.616,-7.061 3.303,-2.137 0,0"
                 inkscape:connector-curvature="0" />
            </g>
            <g
               transform="translate(29.4521,31)"
               id="g368">
              <path
                 id="path370"
                 style="fill:#ffac33;fill-opacity:1;fill-rule:nonzero;stroke:none"
                 d="m 0,0 -5.808,0 c -3.847,0 -4.644,0.78 -4.644,1.743 0,0.962 -0.364,1.741 3.483,1.741 C -1.161,3.484 1.161,0 0,0"
                 inkscape:connector-curvature="0" />
            </g>
            <g
               transform="translate(17.8389,33.5166)"
               id="g372">
              <path
                 id="path374"
                 style="fill:#f5f8fa;fill-opacity:1;fill-rule:nonzero;stroke:none"
                 d="m 0,0 c 0,-0.642 -0.52,-1.162 -1.161,-1.162 -0.642,0 -1.161,0.52 -1.161,1.162 0,0.641 0.519,1.161 1.161,1.161 C -0.52,1.161 0,0.641 0,0"
                 inkscape:connector-curvature="0" />
            </g>
          </g>
        </g>
      </g>
    </g>
    <g
       transform="matrix(0.5332521,-0.00930795,0.00930795,0.5332521,149.21507,56.230172)"
       id="g376">
      <g
         transform="matrix(1.25,0,0,-1.25,0,47.5)"
         id="g378">
        <g
           id="g380">
          <g
             clip-path="url(#clipPath16)"
             id="g382">
            <g
               transform="translate(19,5)"
               id="g384">
              <path
                 id="path386"
                 style="fill:#9aaab4;fill-opacity:1;fill-rule:nonzero;stroke:none"
                 d="m 0,0 c -4.418,0 -8,3.582 -8,8 0,4.418 3.582,8 8,8 C 4.418,16 8,12.418 8,8 8,3.582 4.418,0 0,0 M 0,20 C -6.627,20 -12,14.627 -12,8 -12,1.373 -6.627,-4 0,-4 6.627,-4 12,1.373 12,8 12,14.627 6.627,20 0,20"
                 inkscape:connector-curvature="0" />
            </g>
            <g
               transform="translate(30,32)"
               id="g388">
              <path
                 id="path390"
                 style="fill:#5dadec;fill-opacity:1;fill-rule:nonzero;stroke:none"
                 d="m 0,0 -4,5 -7,0 -7,0 -4,-5 11,-9 11,9 z"
                 inkscape:connector-curvature="0" />
            </g>
            <g
               transform="translate(30,32)"
               id="g392">
              <path
                 id="path394"
                 style="fill:#8ccaf7;fill-opacity:1;fill-rule:nonzero;stroke:none"
                 d="m 0,0 -4,5 -7,0 -7,0 -4,-5 11,0 11,0 z"
                 inkscape:connector-curvature="0" />
            </g>
            <g
               transform="translate(30,32)"
               id="g396">
              <path
                 id="path398"
                 style="fill:#5dadec;fill-opacity:1;fill-rule:nonzero;stroke:none"
                 d="m 0,0 -4,5 -6,0 -1,0 0,-5 1,0 10,0 z"
                 inkscape:connector-curvature="0" />
            </g>
            <g
               transform="translate(19,32)"
               id="g400">
              <path
                 id="path402"
                 style="fill:#8ccaf7;fill-opacity:1;fill-rule:nonzero;stroke:none"
                 d="M 0,0 11,0 0,-9 0,0 Z"
                 inkscape:connector-curvature="0" />
            </g>
            <g
               transform="translate(26,24)"
               id="g404">
              <path
                 id="path406"
                 style="fill:#9aaab4;fill-opacity:1;fill-rule:nonzero;stroke:none"
                 d="m 0,0 c 0,-1.657 -1.343,-3 -3,-3 l -8,0 c -1.657,0 -3,1.343 -3,3 0,1.657 1.343,3 3,3 l 8,0 C -1.343,3 0,1.657 0,0"
                 inkscape:connector-curvature="0" />
            </g>
          </g>
        </g>
      </g>
    </g>
  </g>
</svg>
