<?xml version="1.0" encoding="UTF-8" standalone="no"?>
<svg
   xmlns:dc="http://purl.org/dc/elements/1.1/"
   xmlns:cc="http://creativecommons.org/ns#"
   xmlns:rdf="http://www.w3.org/1999/02/22-rdf-syntax-ns#"
   xmlns:svg="http://www.w3.org/2000/svg"
   xmlns="http://www.w3.org/2000/svg"
   xmlns:sodipodi="http://sodipodi.sourceforge.net/DTD/sodipodi-0.dtd"
   xmlns:inkscape="http://www.inkscape.org/namespaces/inkscape"
   version="1.1"
   id="svg2"
   viewBox="0 0 200 200"
   height="200px"
   width="200px"
   inkscape:version="0.91 r13725"
   sodipodi:docname="36.svg">
  <metadata
     id="metadata450">
    <rdf:RDF>
      <cc:Work
         rdf:about="">
        <dc:format>image/svg+xml</dc:format>
        <dc:type
           rdf:resource="http://purl.org/dc/dcmitype/StillImage" />
      </cc:Work>
    </rdf:RDF>
  </metadata>
  <sodipodi:namedview
     pagecolor="#ffffff"
     bordercolor="#666666"
     borderopacity="1"
     objecttolerance="10"
     gridtolerance="10"
     guidetolerance="10"
     inkscape:pageopacity="0"
     inkscape:pageshadow="2"
     inkscape:window-width="1920"
     inkscape:window-height="1060"
     id="namedview448"
     showgrid="false"
     inkscape:zoom="4.72"
     inkscape:cx="118.44627"
     inkscape:cy="94.24036"
     inkscape:window-x="0"
     inkscape:window-y="0"
     inkscape:window-maximized="1"
     inkscape:current-layer="layer1" />
  
    
    
    <defs id="defs6">

        <clipPath
           id="clipPath28"
           clipPathUnits="userSpaceOnUse">
          <path
             id="path30"
             d="M 4,36 C 0,36 0,32 0,32 L 0,32 0,4 C 0,0 4,0 4,0 l 0,0 28,0 c 4,0 4,4 4,4 l 0,0 0,28 c 0,4 -4,4 -4,4 l 0,0 -28,0 z" />
        </clipPath>


        <clipPath clipPathUnits="userSpaceOnUse" id="clipPath16-rugby">
            <path d="M 0,38 38,38 38,0 0,0 0,38 Z" id="path18"/>
        </clipPath>
        <clipPath clipPathUnits="userSpaceOnUse" id="clipPath28-rugby">
            <path d="M 9.254,28.746 C 2.09,21.582 -0.927,9.561 3.929,3.929 l 0,0 C 9.561,-0.927 21.582,2.09 28.746,9.254 l 0,0 c 7.164,7.164 11.229,17.088 5.324,24.816 l 0,0 c -1.886,1.627 -4.489,2.371 -7.387,2.37 l 0,0 c -5.752,0 -12.665,-2.93 -17.429,-7.694" id="path30"/>
        </clipPath>

        <clipPath clipPathUnits="userSpaceOnUse" id="clipPath16-carrot">
            <path d="M 0,36 36,36 36,0 0,0 0,36 Z" id="path18"/>
        </clipPath>
        <clipPath clipPathUnits="userSpaceOnUse" id="clipPath32-carrot">
            <path d="M 11.815,23.013 C 4.2,15.397 -1.265,2.86 0.502,1.093 l 0,0 c 1.768,-1.768 14.305,3.698 21.92,11.313 l 0,0 c 7.616,7.615 7.562,11.53 4.243,14.85 l 0,0 c -1.328,1.328 -2.752,2.133 -4.47,2.133 l 0,0 c -2.575,0 -5.812,-1.809 -10.38,-6.376" id="path34"/>
        </clipPath>

        <clipPath clipPathUnits="userSpaceOnUse" id="clipPath32-hat">
            <path d="m 5,33.666 c 0,-0.034 0.018,-0.067 0.022,-0.101 l 0,0 C 5.008,33.455 5,33.335 5,33.2 l 0,0 L 6.802,9.616 C 3.299,8.705 1,7.424 1,6 L 1,6 C 1,3.238 9.611,1 19,1 l 0,0 c 9.389,0 18,2.238 18,5 l 0,0 c 0,1.424 -2.298,2.705 -5.801,3.616 l 0,0 L 33,33.184 c 0,0.135 -0.008,0.263 -0.021,0.373 l 0,0 C 32.982,33.591 33,33.632 33,33.666 l 0,0 c 0,1.805 -6.268,3.267 -14,3.267 l 0,0 c -7.732,0 -14,-1.462 -14,-3.267" id="path34"/>
        </clipPath>


        <clipPath clipPathUnits="userSpaceOnUse" id="clipPath48-soccer">
            <path d="M 1,19 C 1,9.059 9.059,1 19,1 l 0,0 c 9.941,0 18,8.059 18,18 l 0,0 c 0,9.941 -8.059,18 -18,18 l 0,0 C 9.059,37 1,28.941 1,19" id="path50"/>
        </clipPath>

        <clipPath clipPathUnits="userSpaceOnUse" id="clipPath28-baguette">
            <path d="M 24.052,31.33 5.126,12.406 C 1.342,8.62 1.288,4.133 2.856,2.564 l 0,0 C 4.424,0.997 8.912,1.049 12.697,4.835 l 0,0 18.925,18.924 c 3.784,3.785 3.837,8.273 2.269,9.841 l 0,0 c -0.605,0.606 -1.647,0.969 -2.915,0.969 l 0,0 c -2.014,0 -4.602,-0.917 -6.924,-3.239" id="path30"/>
        </clipPath>
    </defs>



  <g
     id="layer1">
    <circle
       style="opacity:1;fill:white;stroke:black;stroke-width:1;stroke-miterlimit:4;stroke-dasharray:none;stroke-opacity:0.1"
       id="path4039-0-9"
       cx="100px"
       cy="100px"
       r="90px" />
    <g
       transform="matrix(0.71985993,0.1399266,-0.1399266,0.71985993,61.358066,23.608373)"
       id="g8">
      <g
         transform="matrix(1.25,0,0,-1.25,0,45)"
         id="g10">
        <g
           id="g12">
          <g
             clip-path="url(#clipPath16)"
             id="g14">
            <g
               transform="translate(36,0)"
               id="g20">
              <path
                 id="path22"
                 style="fill:#77b255;fill-opacity:1;fill-rule:nonzero;stroke:none"
                 d="m 0,0 0,2 c 0,3.314 -2.686,6 -6,6 l -16,0 c -3.313,0 -6,-2.686 -6,-6 l 0,-2 28,0 z"
                 inkscape:connector-curvature="0" />
            </g>
            <g
               transform="translate(22,2)"
               id="g24">
              <path
                 id="path26"
                 style="fill:#3e721d;fill-opacity:1;fill-rule:nonzero;stroke:none"
                 d="M 0,0 C 0.767,0 5,3 5,6 L -5,6 C -5,3 -0.767,0 0,0"
                 inkscape:connector-curvature="0" />
            </g>
            <g
               transform="translate(17.6396,7.9619)"
               id="g28">
              <path
                 id="path18"
                 style="fill:#f3d2a2;fill-opacity:1;fill-rule:nonzero;stroke:none"
                 d="m 0,0 c 0,-2.846 8.72,-2.962 8.72,0 l 0,3.749 L 0,3.749 0,0 Z"
                 inkscape:connector-curvature="0" />
            </g>
            <g
               transform="translate(17.6318,10.0273)"
               id="g32">
              <path
                 id="path34"
                 style="fill:#e2c196;fill-opacity:1;fill-rule:nonzero;stroke:none"
                 d="m 0,0 c 1.216,-1.374 2.724,-1.746 4.364,-1.746 1.639,0 3.147,0.373 4.364,1.746 l 0,3.491 L 0,3.491 0,0 Z"
                 inkscape:connector-curvature="0" />
            </g>
            <g
               transform="translate(15.4443,20.0645)"
               id="g36">
              <path
                 id="path38"
                 style="fill:#f3d2a2;fill-opacity:1;fill-rule:nonzero;stroke:none"
                 d="m 0,0 c 0,-1.448 -0.734,-2.622 -1.639,-2.622 -0.905,0 -1.639,1.174 -1.639,2.622 0,1.448 0.734,2.623 1.639,2.623 C -0.734,2.623 0,1.448 0,0"
                 inkscape:connector-curvature="0" />
            </g>
            <g
               transform="translate(31.833,20.0645)"
               id="g40">
              <path
                 id="path42"
                 style="fill:#f3d2a2;fill-opacity:1;fill-rule:nonzero;stroke:none"
                 d="m 0,0 c 0,-1.448 -0.733,-2.622 -1.639,-2.622 -0.905,0 -1.638,1.174 -1.638,2.622 0,1.448 0.733,2.623 1.638,2.623 C -0.733,2.623 0,1.448 0,0"
                 inkscape:connector-curvature="0" />
            </g>
            <g
               transform="translate(13.4775,19.0405)"
               id="g44">
              <path
                 id="path46"
                 style="fill:#f3d2a2;fill-opacity:1;fill-rule:nonzero;stroke:none"
                 d="m 0,0 c 0,5.589 3.816,10.121 8.523,10.121 4.707,0 8.522,-4.532 8.522,-10.121 0,-5.589 -3.815,-10.121 -8.522,-10.121 C 3.816,-10.121 0,-5.589 0,0"
                 inkscape:connector-curvature="0" />
            </g>
            <g
               transform="translate(22,12.1982)"
               id="g48">
              <path
                 id="path50"
                 style="fill:#c1694f;fill-opacity:1;fill-rule:nonzero;stroke:none"
                 d="m 0,0 c -2.754,0 -3.6,0.705 -3.741,0.848 -0.256,0.256 -0.256,0.671 0,0.927 0.248,0.248 0.645,0.254 0.902,0.023 C -2.787,1.761 -2.118,1.311 0,1.311 c 2.2,0 2.836,0.485 2.842,0.49 C 3.098,2.056 3.499,2.044 3.755,1.786 4.011,1.53 3.997,1.104 3.741,0.848 3.6,0.705 2.754,0 0,0"
                 inkscape:connector-curvature="0" />
            </g>
            <g
               transform="translate(22,32.5205)"
               id="g52">
              <path
                 id="path54"
                 style="fill:#ffe51e;fill-opacity:1;fill-rule:nonzero;stroke:none"
                 d="m 0,0 c 5.648,0 9.178,-4.168 9.178,-7.641 0,-3.473 -0.706,-4.863 -1.412,-3.473 -0.706,1.389 -1.412,2.778 -1.412,2.778 0,0 -4.236,0 -5.648,1.39 0,0 2.118,-4.168 -2.118,0 0,0 0.706,-2.779 -3.53,0.694 0,0 -2.118,-1.389 -2.824,-4.862 -0.196,-0.964 -1.412,0 -1.412,3.473 C -9.178,-4.168 -6.354,0 0,0"
                 inkscape:connector-curvature="0" />
            </g>
            <g
               transform="translate(18,19)"
               id="g56">
              <path
                 id="path58"
                 style="fill:#662113;fill-opacity:1;fill-rule:nonzero;stroke:none"
                 d="m 0,0 0,0 c -0.55,0 -1,0.45 -1,1 l 0,1 C -1,2.55 -0.55,3 0,3 0.55,3 1,2.55 1,2 L 1,1 C 1,0.45 0.55,0 0,0"
                 inkscape:connector-curvature="0" />
            </g>
            <g
               transform="translate(26,19)"
               id="g60">
              <path
                 id="path62"
                 style="fill:#662113;fill-opacity:1;fill-rule:nonzero;stroke:none"
                 d="m 0,0 0,0 c -0.55,0 -1,0.45 -1,1 l 0,1 C -1,2.55 -0.55,3 0,3 0.55,3 1,2.55 1,2 L 1,1 C 1,0.45 0.55,0 0,0"
                 inkscape:connector-curvature="0" />
            </g>
            <g
               transform="translate(22.75,16.25)"
               id="g64">
              <path
                 id="path66"
                 style="fill:#c1694f;fill-opacity:1;fill-rule:nonzero;stroke:none"
                 d="m 0,0 -1.5,0 c -0.413,0 -0.75,0.337 -0.75,0.75 0,0.413 0.337,0.75 0.75,0.75 L 0,1.5 C 0.413,1.5 0.75,1.163 0.75,0.75 0.75,0.337 0.413,0 0,0"
                 inkscape:connector-curvature="0" />
            </g>
            <path
               id="path68"
               style="fill:#3b88c3;fill-opacity:1;fill-rule:nonzero;stroke:none"
               d="m 16,0 -3,0 0,8 3,0 0,-8 z"
               inkscape:connector-curvature="0" />
            <path
               id="path70"
               style="fill:#3b88c3;fill-opacity:1;fill-rule:nonzero;stroke:none"
               d="m 31,0 -3,0 0,8 3,0 0,-8 z"
               inkscape:connector-curvature="0" />
            <path
               id="path72"
               style="fill:#3b88c3;fill-opacity:1;fill-rule:nonzero;stroke:none"
               d="m 31,1 -17.875,0 0,-1 L 31,0 31,1 Z"
               inkscape:connector-curvature="0" />
            <g
               transform="translate(30,27.2002)"
               id="g74">
              <path
                 id="path76"
                 style="fill:#c1694f;fill-opacity:1;fill-rule:nonzero;stroke:none"
                 d="m 0,0 c 0,-1.32 -3.092,-2.2 -8,-2.2 -4.909,0 -8,0.88 -8,2.2 0,3.546 4,8.8 5.333,8.8 1.334,0 2.223,-1.76 2.667,-1.76 0.444,0 1.333,1.76 2.667,1.76 C -4,8.8 0,3.546 0,0"
                 inkscape:connector-curvature="0" />
            </g>
            <g
               transform="translate(35.9414,28)"
               id="g78">
              <path
                 id="path80"
                 style="fill:#c1694f;fill-opacity:1;fill-rule:nonzero;stroke:none"
                 d="m 0,0 c 0,-1.657 -3.5,-6 -14,-6 -10.5,0 -14,4.343 -14,6 0,1.657 6.82,1 14,1 7.18,0 14,0.657 14,-1"
                 inkscape:connector-curvature="0" />
            </g>
            <g
               transform="translate(30,27.2002)"
               id="g82">
              <path
                 id="path84"
                 style="fill:#292f33;fill-opacity:1;fill-rule:nonzero;stroke:none"
                 d="m 0,0 c 0,-1.32 -3.092,-2.2 -8,-2.2 -4.909,0 -8,0.88 -8,2.2 0,0.566 0.102,1.175 0.279,1.8 2.388,-2 13.054,-2 15.443,-0.005 C -0.102,1.172 0,0.564 0,0"
                 inkscape:connector-curvature="0" />
            </g>
            <g
               transform="translate(7,4.25)"
               id="g86">
              <path
                 id="path88"
                 style="fill:#c1694f;fill-opacity:1;fill-rule:nonzero;stroke:none"
                 d="M 0,0 C 0,0.69 -0.56,1.25 -1.25,1.25 -1.94,1.25 -2.5,0.69 -2.5,0 l 0,-4.25 2.5,0 L 0,0 Z"
                 inkscape:connector-curvature="0" />
            </g>
            <g
               transform="translate(10.0029,13.25)"
               id="g90">
              <path
                 id="path92"
                 style="fill:#66757f;fill-opacity:1;fill-rule:nonzero;stroke:none"
                 d="m 0,0 c 0,-2.35 -1.904,-4.253 -4.253,-4.253 -2.349,0 -4.253,1.903 -4.253,4.253 0,0.086 -1.497,0.084 -1.497,0 0,-3.176 2.575,-5.75 5.75,-5.75 3.175,0 5.75,2.574 5.75,5.75 C 1.497,0.084 0,0.086 0,0"
                 inkscape:connector-curvature="0" />
            </g>
            <g
               transform="translate(1.5,13.25)"
               id="g94">
              <path
                 id="path96"
                 style="fill:#66757f;fill-opacity:1;fill-rule:nonzero;stroke:none"
                 d="m 0,0 c 0,-0.414 -0.336,-0.75 -0.75,-0.75 -0.414,0 -0.75,0.336 -0.75,0.75 l 0,8.5 c 0,0.414 0.336,0.75 0.75,0.75 C -0.336,9.25 0,8.914 0,8.5 L 0,0 Z"
                 inkscape:connector-curvature="0" />
            </g>
            <g
               transform="translate(11.5,13.25)"
               id="g98">
              <path
                 id="path100"
                 style="fill:#66757f;fill-opacity:1;fill-rule:nonzero;stroke:none"
                 d="m 0,0 c 0,-0.414 -0.336,-0.75 -0.75,-0.75 -0.414,0 -0.75,0.336 -0.75,0.75 l 0,8.5 c 0,0.414 0.336,0.75 0.75,0.75 C -0.336,9.25 0,8.914 0,8.5 L 0,0 Z"
                 inkscape:connector-curvature="0" />
            </g>
            <g
               transform="translate(6.5,5)"
               id="g102">
              <path
                 id="path104"
                 style="fill:#66757f;fill-opacity:1;fill-rule:nonzero;stroke:none"
                 d="m 0,0 c 0,-0.414 -0.336,-0.75 -0.75,-0.75 -0.414,0 -0.75,0.336 -0.75,0.75 l 0,16.75 c 0,0.414 0.336,0.75 0.75,0.75 C -0.336,17.5 0,17.164 0,16.75 L 0,0 Z"
                 inkscape:connector-curvature="0" />
            </g>
          </g>
        </g>
      </g>
    </g>
    <g
       transform="matrix(0.35415551,-0.52505713,0.52505713,0.35415551,39.63417,153.86123)"
       id="g57">
      <g
         transform="matrix(1.25,0,0,-1.25,0,47.5)"
         id="g59">
        <g
           id="g61">
          <g
             clip-path="url(#clipPath16)"
             id="g63">
            <g
               transform="translate(23.4941,31.6558)"
               id="g65">
              <path
                 id="path67"
                 style="fill:#dd2e44;fill-opacity:1;fill-rule:nonzero;stroke:none"
                 d="m 0,0 c -0.687,0 -1.352,-0.066 -1.991,-0.177 -0.82,0.105 -2.74,0.231 -3.592,0.231 -8.472,0 -15.886,-3.177 -15.886,-14.298 0,-9.036 7.049,-16.361 16.976,-16.361 9.927,0 17.973,7.325 17.973,16.361 C 13.48,-2.995 4.096,0 0,0"
                 inkscape:connector-curvature="0" />
            </g>
            <g
               transform="translate(9.439,36.9087)"
               id="g69">
              <path
                 id="path71"
                 style="fill:#77b255;fill-opacity:1;fill-rule:nonzero;stroke:none"
                 d="m 0,0 c 1.637,-1.636 2.77,-2.266 3.274,-4.91 0.298,-1.564 2.266,-1.51 2.266,-1.51 0,0 -3.903,-1.764 -5.54,-3.4 0,0 4.91,1.636 6.547,1.636 0,0 3.273,-1.636 3.273,-3.273 0,0 0,3.273 -1.636,3.273 0,0 4.909,0 4.909,-3.273 0,0 0,4.911 -1.636,4.911 0,0 4.911,1.636 6.547,0 0,0 -1.685,1.72 -4.911,1.636 0,0 1.638,1.637 4.911,1.637 0,0 -5.288,1.511 -6.924,-1.763 0,0 -1.386,1.385 1.384,4.155 0,0 -4.28,-0.755 -4.28,-4.029 0,0 -1.552,0.039 -2.644,1.259 C 3.399,-1.259 0,0 0,0"
                 inkscape:connector-curvature="0" />
            </g>
          </g>
        </g>
      </g>
    </g>
    <g
       transform="matrix(0.59917772,0.03140157,-0.03140157,0.59917772,100.11068,90.167721)"
       id="g73">
      <g
         transform="matrix(1.25,0,0,-1.25,0,45)"
         id="g75">
        <g
           id="g77">
          <g
             clip-path="url(#clipPath16-carrot)"
             id="g79">
            <g
               transform="translate(31.0957,27.0674)"
               id="g81">
              <path
                 id="path83"
                 style="fill:#77b255;fill-opacity:1;fill-rule:nonzero;stroke:none"
                 d="m 0,0 c 3.535,2.122 4.408,8.32 3.701,7.613 0.707,0.707 -5.657,0 -7.778,-3.536 0,1.414 -1.414,7.071 -3.535,2.121 -2.122,-4.949 -1.415,-5.656 -1.415,-7.071 0,-1.414 2.829,-1.414 2.829,-1.414 0,0 -0.125,-2.704 1.29,-2.704 1.414,0 1.997,-0.583 6.946,1.538 C 6.988,-1.331 1.414,0 0,0"
                 inkscape:connector-curvature="0" />
            </g>
            <g
               transform="translate(22.4219,12.4062)"
               id="g85">
              <path
                 id="path87"
                 style="fill:#f4900c;fill-opacity:1;fill-rule:nonzero;stroke:none"
                 d="m 0,0 c -7.615,-7.615 -20.152,-13.081 -21.92,-11.313 -1.768,1.767 3.699,14.304 11.313,21.919 7.616,7.616 11.531,7.563 14.85,4.243 C 7.562,11.53 7.615,7.615 0,0"
                 inkscape:connector-curvature="0" />
            </g>
          </g>
        </g>
        <g
           id="g89">
          <g
             clip-path="url(#clipPath32-carrot)"
             id="g30">
            <g
               transform="translate(16.1465,29.46)"
               id="g92">
              <path
                 id="path94"
                 style="fill:#d67503;fill-opacity:1;fill-rule:nonzero;stroke:none"
                 d="M 0,0 C 2.292,-4.583 4.583,-6.875 5.729,-8.02 6.875,-9.166 0,-6.875 -2.291,-2.291 -4.583,2.292 0,0 0,0"
                 inkscape:connector-curvature="0" />
            </g>
            <g
               transform="translate(8.6611,21.3887)"
               id="g96">
              <path
                 id="path98"
                 style="fill:#d67503;fill-opacity:1;fill-rule:nonzero;stroke:none"
                 d="M 0,0 C 2.292,-4.584 4.583,-6.875 5.728,-8.021 6.874,-9.166 0,-6.875 -2.291,-2.291 -4.582,2.291 0,0 0,0"
                 inkscape:connector-curvature="0" />
            </g>
            <g
               transform="translate(25.209,12.9121)"
               id="g100">
              <path
                 id="path102"
                 style="fill:#d67503;fill-opacity:1;fill-rule:nonzero;stroke:none"
                 d="M 0,0 C -4.582,2.291 -6.874,4.582 -8.02,5.728 -9.165,6.875 -6.874,0 -2.291,-2.292 2.292,-4.583 0,0 0,0"
                 inkscape:connector-curvature="0" />
            </g>
            <g
               transform="translate(16.209,4.9121)"
               id="g104">
              <path
                 id="path106"
                 style="fill:#d67503;fill-opacity:1;fill-rule:nonzero;stroke:none"
                 d="M 0,0 C -4.582,2.291 -6.874,4.582 -8.02,5.728 -9.166,6.875 -6.874,0 -2.291,-2.292 2.292,-4.583 0,0 0,0"
                 inkscape:connector-curvature="0" />
            </g>
          </g>
        </g>
      </g>
    </g>
    <g
       transform="matrix(0.17542302,-0.57378285,0.57378285,0.17542302,21.846124,119.73018)"
       id="g108">
      <g
         transform="matrix(1.25,0,0,-1.25,0,47.5)"
         id="g110">
        <g
           id="g112">
          <g
             clip-path="url(#clipPath16)"
             id="g114">
            <g
               transform="translate(10,21.4395)"
               id="g116">
              <path
                 id="path118"
                 style="fill:#9266cc;fill-opacity:1;fill-rule:nonzero;stroke:none"
                 d="M 0,0 C 0,4 2,8 0,10 -2,12 -3,8 -2,8 -0.586,8 0,6 -1,3 -2,0 0,-1 0,0"
                 inkscape:connector-curvature="0" />
            </g>
            <g
               transform="translate(6.125,21.4395)"
               id="g120">
              <path
                 id="path122"
                 style="fill:#9266cc;fill-opacity:1;fill-rule:nonzero;stroke:none"
                 d="M 0,0 C 0,4 2,8 0,10 -2,12 -3,8 -2,8 -0.586,8 0,6 -1,3 -2,0 0,-1 0,0"
                 inkscape:connector-curvature="0" />
            </g>
            <g
               transform="translate(37,2.0645)"
               id="g124">
              <path
                 id="path126"
                 style="fill:#aa8dd8;fill-opacity:1;fill-rule:nonzero;stroke:none"
                 d="m 0,0 c 0,-1 -1,-1 -2,-1 l -23,0 c -5,0 -7.272,3.09 -8,6 -1,4 2,11 0,12 -2,1 -3,1 -3,3 0,2 4.47,5.265 7,4 4,-2 2.767,-6.932 2,-10 -0.88,-3.521 1.115,-3.594 5,-5 C -17.061,7.213 -9.68,4.561 -8,4 -5,3 0,1 0,0"
                 inkscape:connector-curvature="0" />
            </g>
            <g
               transform="translate(11.9248,12.0645)"
               id="g128">
              <path
                 id="path130"
                 style="fill:#ffcc4d;fill-opacity:1;fill-rule:nonzero;stroke:none"
                 d="m 0,0 c 2.887,-1 3.849,-9 13.472,-9 6.377,0 8.66,5.479 8.66,11 0,5.523 -5.17,10 -11.547,10 C 4.208,12 -0.913,0.316 0,0"
                 inkscape:connector-curvature="0" />
            </g>
            <g
               transform="translate(25.9141,3.0625)"
               id="g132">
              <path
                 id="path134"
                 style="fill:#ffac33;fill-opacity:1;fill-rule:nonzero;stroke:none"
                 d="m 0,0 c 1.708,0 3.389,0.48 4.893,1.418 2.184,1.361 3.728,3.527 4.347,6.098 1.531,6.363 -2.206,12.834 -8.329,14.425 -7.392,1.923 -14.919,-2.769 -16.767,-10.455 -0.258,-1.072 0.369,-2.158 1.399,-2.425 1.027,-0.272 2.076,0.382 2.335,1.455 1.334,5.546 6.761,8.93 12.1,7.544 C 4.041,17.004 6.521,12.709 5.506,8.486 5.137,6.953 4.216,5.66 2.912,4.848 1.607,4.035 0.076,3.797 -1.398,4.182 c -1.081,0.279 -1.992,0.98 -2.565,1.972 -0.572,0.994 -0.74,2.159 -0.469,3.282 0.191,0.794 0.668,1.464 1.344,1.886 0.676,0.421 1.527,0.707 2.234,0.345 1.298,-0.665 1.298,-2.665 0.336,-3.665 -0.752,-0.781 1.604,-1.065 2.887,0 1.151,0.955 1.645,2.492 1.069,4.199 -0.582,1.724 -1.805,2.943 -3.358,3.347 -1.762,0.457 -3.59,0.176 -5.148,-0.797 C -6.625,13.78 -7.726,12.236 -8.166,10.404 -8.686,8.246 -8.365,6.006 -7.263,4.098 -6.16,2.188 -4.41,0.84 -2.332,0.301 -1.559,0.1 -0.776,0 0,0"
                 inkscape:connector-curvature="0" />
            </g>
          </g>
        </g>
      </g>
    </g>
    <g
       transform="matrix(-0.10104418,0.96137117,-0.96137117,-0.10104418,100.6044,81.548404)"
       id="g136">
      <g
         transform="matrix(1.25,0,0,-1.25,0,45)"
         id="g138">
        <g
           id="g140">
          <g
             clip-path="url(#clipPath16)"
             id="g142">
            <g
               transform="translate(33.874,14.2793)"
               id="g144">
              <path
                 id="path146"
                 style="fill:#f4900c;fill-opacity:1;fill-rule:nonzero;stroke:none"
                 d="m 0,0 -6.909,4.226 -6.907,4.228 c -1.526,0.934 -4.001,0.934 -5.527,0 0,0 -5.527,-3.382 -6.908,-4.228 -1.382,-0.845 -0.691,-1.268 -2.072,-2.114 -1.382,-0.844 -2.072,-0.422 -3.454,-1.267 -1.383,-0.845 -1.526,-2.447 0,-3.382 l 6.907,-4.228 6.909,-4.227 c 1.525,-0.935 4.145,-0.848 5.524,0 1.383,0.845 0.693,1.266 2.074,2.114 1.381,0.844 2.071,0.422 3.454,1.266 C -5.526,-6.765 0,-3.385 0,-3.385 1.524,-2.45 1.525,-0.935 0,0"
                 inkscape:connector-curvature="0" />
            </g>
            <g
               transform="translate(35,14.4844)"
               id="g148">
              <path
                 id="path150"
                 style="fill:#f4900c;fill-opacity:1;fill-rule:nonzero;stroke:none"
                 d="M 0,0 -34,0.516 -34,-1.109 0.018,-1.901 0,0 Z"
                 inkscape:connector-curvature="0" />
            </g>
            <g
               transform="translate(35,15.4844)"
               id="g152">
              <path
                 id="path154"
                 style="fill:#f4900c;fill-opacity:1;fill-rule:nonzero;stroke:none"
                 d="M 0,0 -34,0.516 -34,-1.109 0.018,-1.901 0,0 Z"
                 inkscape:connector-curvature="0" />
            </g>
            <g
               transform="translate(33.873,17.2793)"
               id="g156">
              <path
                 id="path158"
                 style="fill:#ffac33;fill-opacity:1;fill-rule:nonzero;stroke:none"
                 d="m 0,0 -6.908,4.226 -6.907,4.228 c -1.526,0.934 -4.001,0.934 -5.527,0 0,0 -5.527,-3.382 -6.908,-4.228 -1.381,-0.845 -0.691,-1.268 -2.072,-2.114 -1.382,-0.844 -2.072,-0.422 -3.454,-1.267 -1.383,-0.845 -1.526,-2.447 0,-3.382 l 6.907,-4.228 6.909,-4.227 c 1.526,-0.935 4.145,-0.848 5.524,0 1.383,0.845 0.693,1.266 2.074,2.114 1.381,0.844 2.071,0.422 3.454,1.266 C -5.525,-6.765 0,-3.385 0,-3.385 1.525,-2.45 1.526,-0.935 0,0"
                 inkscape:connector-curvature="0" />
            </g>
            <g
               transform="translate(32.8496,16.4316)"
               id="g160">
              <path
                 id="path162"
                 style="fill:#ffd983;fill-opacity:1;fill-rule:nonzero;stroke:none"
                 d="m 0,0 -7.072,4.229 -7.071,4.227 c 0,0 -1.506,0.791 -2.828,0 0,0 -5.766,-3.447 -6.963,-4.162 -1.196,-0.716 -1.033,-1.464 -2.23,-2.179 -1.196,-0.715 -2.338,-0.553 -3.535,-1.267 -1.414,-0.847 0,-1.694 0,-1.694 l 7.071,-4.227 7.071,-4.228 c 0,0 1.414,-0.844 2.828,0 1.198,0.717 0.926,1.398 2.122,2.115 1.197,0.716 2.447,0.619 3.644,1.334 1.197,0.713 6.963,4.163 6.963,4.163 0,0 1.321,0.9 0,1.689"
                 inkscape:connector-curvature="0" />
            </g>
            <g
               transform="translate(7.9937,10.4336)"
               id="g164">
              <path
                 id="path166"
                 style="fill:#77b255;fill-opacity:1;fill-rule:nonzero;stroke:none"
                 d="M 0,0 C -0.925,-0.786 0.997,-3.518 3.249,-2.063 3.81,-3.172 7.205,-5.906 9.548,-2.165 10.033,-3.043 15.32,-4.413 16.423,0.079 16.601,0.68 10.395,1.964 7.063,1.944 5.224,1.934 1.745,1.484 0,0"
                 inkscape:connector-curvature="0" />
            </g>
            <g
               transform="translate(3.1626,18.2012)"
               id="g168">
              <path
                 id="path170"
                 style="fill:#77b255;fill-opacity:1;fill-rule:nonzero;stroke:none"
                 d="M 0,0 C -0.784,-0.737 -2.265,-2.22 -0.688,-4.439 0,-5.602 1.428,-6.358 1.618,-5.999 c 0.445,0.846 1.334,1.586 2.669,1.507 -0.017,0.301 -0.649,-2.733 1.577,-3.541 1.092,-0.396 2.265,0.238 3.6,1.638 2.137,2.243 7.582,1.196 9.11,0.609 1.547,-0.596 2.903,-0.985 2.498,-2.576 -0.089,-0.35 0.722,-0.654 1.548,-0.364 1.388,0.487 3.395,1.694 3.75,3.018 0.991,0.173 1.734,-0.102 2.305,-0.858 0.284,-0.373 1.254,-0.463 1.669,0.025 0.733,0.861 1.934,3.505 0.233,5.774 C 28.635,1.823 25.682,3.197 19.05,3.752 12.417,4.306 3.883,3.645 0,0"
                 inkscape:connector-curvature="0" />
            </g>
            <g
               transform="translate(31,10.959)"
               id="g172">
              <path
                 id="path174"
                 style="fill:#ffcc4d;fill-opacity:1;fill-rule:nonzero;stroke:none"
                 d="m 0,0 c 0,-0.529 -0.895,-0.959 -2,-0.959 l -22,0 c -1.104,0 -2,0.43 -2,0.959 l 0,10.551 c 0,0.53 0.896,0.49 2,0.49 l 22,0 c 1.105,0 2,0.04 2,-0.49 L 0,0 Z"
                 inkscape:connector-curvature="0" />
            </g>
            <g
               transform="translate(33.3105,16.0127)"
               id="g176">
              <path
                 id="path178"
                 style="fill:#be1931;fill-opacity:1;fill-rule:nonzero;stroke:none"
                 d="m 0,0 c 0,-2.768 -4.586,-5.013 -10.242,-5.013 -5.658,0 -10.243,2.245 -10.243,5.013 0,2.769 4.585,5.013 10.243,5.013 C -4.586,5.013 0,2.769 0,0"
                 inkscape:connector-curvature="0" />
            </g>
            <g
               transform="translate(33.874,20.2793)"
               id="g180">
              <path
                 id="path182"
                 style="fill:#f4900c;fill-opacity:1;fill-rule:nonzero;stroke:none"
                 d="m 0,0 -6.909,4.226 -6.907,4.228 c -1.526,0.934 -4.001,0.934 -5.527,0 0,0 -5.527,-3.382 -6.908,-4.228 -1.382,-0.845 -0.691,-1.268 -2.072,-2.114 -1.382,-0.844 -2.072,-0.422 -3.454,-1.267 -1.383,-0.845 -1.526,-2.447 0,-3.382 l 6.907,-4.228 6.909,-4.227 c 1.525,-0.935 4.145,-0.848 5.524,0 1.383,0.845 0.693,1.266 2.074,2.114 1.381,0.844 2.071,0.422 3.454,1.266 C -5.526,-6.765 0,-3.385 0,-3.385 1.524,-2.45 1.525,-0.935 0,0"
                 inkscape:connector-curvature="0" />
            </g>
            <g
               transform="translate(35,20.4844)"
               id="g184">
              <path
                 id="path186"
                 style="fill:#f4900c;fill-opacity:1;fill-rule:nonzero;stroke:none"
                 d="M 0,0 -34,0.516 -34,-1.109 0.018,-1.901 0,0 Z"
                 inkscape:connector-curvature="0" />
            </g>
            <g
               transform="translate(35,21.4844)"
               id="g188">
              <path
                 id="path190"
                 style="fill:#f4900c;fill-opacity:1;fill-rule:nonzero;stroke:none"
                 d="M 0,0 -34,0.516 -34,-1.109 0.018,-1.901 0,0 Z"
                 inkscape:connector-curvature="0" />
            </g>
            <g
               transform="translate(33.873,23.2793)"
               id="g68">
              <path
                 id="path193"
                 style="fill:#ffac33;fill-opacity:1;fill-rule:nonzero;stroke:none"
                 d="m 0,0 -6.908,4.226 -6.907,4.228 c -1.526,0.934 -4.001,0.934 -5.527,0 0,0 -5.527,-3.382 -6.908,-4.228 -1.381,-0.845 -0.691,-1.268 -2.072,-2.114 -1.382,-0.844 -2.072,-0.422 -3.454,-1.267 -1.383,-0.845 -1.526,-2.447 0,-3.382 l 6.907,-4.228 6.909,-4.227 c 1.526,-0.935 4.145,-0.848 5.524,0 1.383,0.845 0.693,1.266 2.074,2.114 1.381,0.844 2.071,0.422 3.454,1.266 C -5.525,-6.765 0,-3.385 0,-3.385 1.525,-2.45 1.526,-0.935 0,0"
                 inkscape:connector-curvature="0" />
            </g>
            <g
               transform="translate(32.8496,22.4316)"
               id="g72">
              <path
                 id="path74"
                 style="fill:#ffd983;fill-opacity:1;fill-rule:nonzero;stroke:none"
                 d="m 0,0 -7.072,4.229 -7.071,4.227 c 0,0 -1.506,0.791 -2.828,0 0,0 -5.766,-3.447 -6.963,-4.162 -1.196,-0.716 -1.033,-1.464 -2.23,-2.179 -1.196,-0.716 -2.338,-0.553 -3.535,-1.267 -1.414,-0.847 0,-1.694 0,-1.694 l 7.071,-4.227 7.071,-4.228 c 0,0 1.414,-0.844 2.828,0 1.198,0.717 0.926,1.398 2.122,2.115 1.197,0.716 2.447,0.619 3.644,1.334 1.197,0.713 6.963,4.163 6.963,4.163 0,0 1.321,0.9 0,1.689"
                 inkscape:connector-curvature="0" />
            </g>
          </g>
        </g>
      </g>
    </g>
    <g
       transform="matrix(-0.09386068,-0.592613,0.592613,-0.09386068,96.251531,48.238113)"
       id="g197">
      <g
         transform="matrix(1.25,0,0,-1.25,0,47.5)"
         id="g199">
        <g
           id="g201">
          <g
             clip-path="url(#clipPath16)"
             id="g203">
            <g
               transform="translate(29,10)"
               id="g205">
              <path
                 id="path207"
                 style="fill:#3e721d;fill-opacity:1;fill-rule:nonzero;stroke:none"
                 d="m 0,0 c -8,0 -8,-6 -8,-6 l 0,11 -4,0 0,-11 c 0,0 0,6 -8,6 -4,0 -7,2 -7,2 0,0 0,-9 9,-9 l 6,0 c 0,0 0,-2 2,-2 2,0 2,2 2,2 l 6,0 C 7,-7 7,2 7,2 7,2 4,0 0,0"
                 inkscape:connector-curvature="0" />
            </g>
            <g
               transform="translate(22.125,9.3379)"
               id="g209">
              <path
                 id="path211"
                 style="fill:#ffac33;fill-opacity:1;fill-rule:nonzero;stroke:none"
                 d="M 0,0 C -0.328,0 -0.651,0.097 -0.927,0.283 L -3.25,1.858 -5.572,0.283 C -5.849,0.097 -6.173,0 -6.501,0 -6.645,0 -6.788,0.018 -6.93,0.057 -7.392,0.18 -7.78,0.498 -7.99,0.931 L -9.214,3.458 -12.012,3.254 C -12.051,3.252 -12.091,3.25 -12.13,3.25 c -0.438,0 -0.86,0.174 -1.17,0.484 -0.34,0.342 -0.516,0.811 -0.482,1.288 l 0.201,2.8 -2.523,1.225 c -0.432,0.209 -0.751,0.598 -0.875,1.061 -0.125,0.464 -0.042,0.958 0.228,1.356 l 1.573,2.323 -1.573,2.322 c -0.27,0.398 -0.353,0.893 -0.228,1.358 0.124,0.462 0.443,0.85 0.875,1.06 l 2.523,1.224 -0.201,2.798 c -0.034,0.48 0.142,0.951 0.482,1.288 0.309,0.312 0.732,0.485 1.17,0.485 0.039,0 0.079,0 0.118,-0.003 l 2.798,-0.201 1.224,2.523 c 0.21,0.432 0.598,0.751 1.06,0.876 0.142,0.037 0.285,0.057 0.429,0.057 0.328,0 0.651,-0.098 0.929,-0.285 l 2.322,-1.574 2.323,1.574 c 0.276,0.187 0.599,0.285 0.927,0.285 0.144,0 0.29,-0.02 0.428,-0.057 0.465,-0.125 0.853,-0.444 1.062,-0.876 l 1.225,-2.523 2.8,0.201 c 0.037,0.003 0.078,0.003 0.116,0.003 0.437,0 0.858,-0.173 1.172,-0.485 0.338,-0.337 0.514,-0.808 0.48,-1.288 L 7.079,19.751 9.606,18.527 c 0.433,-0.21 0.751,-0.598 0.874,-1.06 0.124,-0.465 0.043,-0.96 -0.226,-1.358 l -1.575,-2.322 1.575,-2.323 c 0.269,-0.398 0.35,-0.892 0.226,-1.356 C 10.357,9.645 10.039,9.256 9.606,9.047 L 7.079,7.822 7.283,5.022 C 7.317,4.545 7.141,4.076 6.803,3.734 6.489,3.424 6.068,3.25 5.631,3.25 5.593,3.25 5.552,3.252 5.515,3.254 L 2.715,3.458 1.49,0.931 C 1.281,0.498 0.893,0.18 0.428,0.057 0.289,0.018 0.144,0 0,0"
                 inkscape:connector-curvature="0" />
            </g>
            <g
               transform="translate(26,23)"
               id="g213">
              <path
                 id="path215"
                 style="fill:#732700;fill-opacity:1;fill-rule:nonzero;stroke:none"
                 d="m 0,0 c 0,3.866 -3.135,7 -7,7 -3.866,0 -7,-3.134 -7,-7 0,-3.866 3.134,-7 7,-7 3.865,0 7,3.134 7,7"
                 inkscape:connector-curvature="0" />
            </g>
          </g>
        </g>
      </g>
    </g>
    <g
       transform="matrix(0.31779335,-0.62370457,0.62370457,0.31779335,75.494536,78.724732)"
       id="g217">
      <g
         transform="matrix(1.25,0,0,-1.25,0,47.5)"
         id="g219">
        <g
           id="g221">
          <g
             clip-path="url(#clipPath16)"
             id="g223">
            <g
               transform="translate(19.2412,27.3672)"
               id="g225">
              <path
                 id="path227"
                 style="fill:#5c913b;fill-opacity:1;fill-rule:nonzero;stroke:none"
                 d="M 0,0 C -0.277,3.307 2.17,4.72 2.17,4.72 -1.029,4.607 -2.724,1.895 -2.724,1.895 -3.476,3.194 -1.778,5.907 -0.555,6.614 -3.753,6.501 -4.225,4.494 -4.225,4.494 -5.728,7.095 -5.254,9.102 -5.254,9.102 -6.375,8.454 -7.021,6.989 -7.396,5.589 L -9.714,8.26 c -0.23,-1.046 0.156,-3.176 0.572,-4.962 -3.054,1.791 -5.902,0.151 -5.902,0.151 3.95,-1.187 5.45,-3.787 5.45,-3.787 0,0 -3.948,1.187 -5.645,-1.527 2.596,0.092 4.5,-0.499 5.856,-1.229 -1.163,-0.289 -3.145,0.236 -4.355,-1.371 0,0 3.198,0.113 3.851,-1.055 -2.172,-0.614 -3.574,-2.251 -3.574,-2.251 4.422,0.818 9.123,-1.668 9.123,-1.668 L 1.78,-5.907 C 0.751,-1.3 4.422,0.82 4.422,0.82 1.697,2.713 0,0 0,0"
                 inkscape:connector-curvature="0" />
            </g>
            <g
               transform="translate(30.5605,14.1201)"
               id="g229">
              <path
                 id="path231"
                 style="fill:#ffac33;fill-opacity:1;fill-rule:nonzero;stroke:none"
                 d="m 0,0 c 2.488,-4.309 1.218,-9.7 -2.837,-12.041 -4.055,-2.341 -9.359,-0.746 -11.846,3.562 l -1.589,2.753 c -2.489,4.31 -1.218,9.699 2.837,12.04 4.055,2.342 9.359,0.747 11.846,-3.562 L 0,0 Z"
                 inkscape:connector-curvature="0" />
            </g>
            <g
               transform="translate(28.7178,10.541)"
               id="g233">
              <path
                 id="path235"
                 style="fill:#ffcc4d;fill-opacity:1;fill-rule:nonzero;stroke:none"
                 d="M 0,0 -1.951,0.828 -1.123,2.778 0.828,1.951 0,0 Z m -1.656,-3.901 -1.95,0.827 0.828,1.952 1.95,-0.828 -0.828,-1.951 z m -1.657,-3.904 -1.951,0.828 0.828,1.952 1.952,-0.829 -0.829,-1.951 z m -4.197,6.388 0.828,1.952 1.952,-0.829 -0.829,-1.952 -1.951,0.829 z m 0.294,-4.73 -1.95,0.828 0.828,1.95 1.95,-0.829 -0.828,-1.949 z m -4.196,6.386 0.829,1.951 1.951,-0.827 -0.828,-1.952 -1.952,0.828 z m 0.295,-4.73 -1.951,0.827 0.828,1.951 1.951,-0.828 -0.828,-1.95 z m -4.196,6.386 0.828,1.952 1.951,-0.828 -0.828,-1.953 -1.951,0.829 z m 2.484,5.852 1.951,-0.828 -0.829,-1.949 -1.95,0.828 0.828,1.949 z m 3.902,-1.655 1.95,-0.828 -0.828,-1.951 -1.95,0.828 0.828,1.951 z M -7.271,9.994 -5.319,9.166 -6.148,7.214 -8.1,8.042 -7.271,9.994 Z m 4.197,-6.387 -0.828,-1.95 -1.952,0.827 0.829,1.952 1.951,-0.829 z m -0.294,4.731 1.95,-0.829 -0.828,-1.95 -1.951,0.828 0.829,1.951 z M 2.845,1.095 C 2.636,1.942 2.305,2.779 1.843,3.579 L 1.656,3.902 1.656,3.901 -0.295,4.729 0.329,6.2 0.254,6.331 c -2.025,3.51 -5.92,5.217 -9.486,4.466 l -0.819,-1.926 -1.884,0.799 c -3.28,-2.122 -4.567,-6.318 -3.262,-10.128 l 1.006,-0.427 -0.401,-0.946 c 0.055,-0.106 0.102,-0.212 0.162,-0.315 l 1.59,-2.753 c 0.685,-1.188 1.59,-2.161 2.617,-2.91 l 0.229,0.538 1.951,-0.828 -0.324,-0.763 c 0.665,-0.278 1.357,-0.465 2.06,-0.573 l 0.215,0.507 1.404,-0.594 c 1.144,0.047 2.28,0.335 3.342,0.882 l -0.016,0.007 0.828,1.951 1.188,-0.504 c 0.523,0.522 0.973,1.104 1.334,1.737 l -1.693,0.72 0.828,1.951 1.667,-0.707 c 0.191,0.7 0.301,1.426 0.316,2.167 l -1.155,0.49 0.828,1.951 0.066,-0.028 z"
                 inkscape:connector-curvature="0" />
            </g>
          </g>
        </g>
      </g>
    </g>
    <g
       transform="matrix(0.02908291,0.83282569,-0.83282569,0.02908291,60.797878,49.722933)"
       id="g237">
      <g
         transform="matrix(1.25,0,0,-1.25,0,45)"
         id="g239">
        <g
           id="g241">
          <g
             clip-path="url(#clipPath16)"
             id="g243">
            <g
               transform="translate(35,19)"
               id="g245">
              <path
                 id="path247"
                 style="fill:#ffcc4d;fill-opacity:1;fill-rule:nonzero;stroke:none"
                 d="m 0,0 c 0,-9.389 -7.611,-17 -17,-17 -9.388,0 -17,7.611 -17,17 0,9.388 7.612,17 17,17 C -7.611,17 0,9.388 0,0"
                 inkscape:connector-curvature="0" />
            </g>
            <g
               transform="translate(15,22.107)"
               id="g249">
              <path
                 id="path251"
                 style="fill:#664500;fill-opacity:1;fill-rule:nonzero;stroke:none"
                 d="M 0,0 C 0,-1.934 -1.119,-3.5 -2.5,-3.5 -3.881,-3.5 -5,-1.934 -5,0 -5,1.933 -3.881,3.5 -2.5,3.5 -1.119,3.5 0,1.933 0,0"
                 inkscape:connector-curvature="0" />
            </g>
            <g
               transform="translate(31,22.5)"
               id="g253">
              <path
                 id="path255"
                 style="fill:#f5f8fa;fill-opacity:1;fill-rule:nonzero;stroke:none"
                 d="m 0,0 c 0,-3.59 -2.91,-6.5 -6.5,-6.5 -3.59,0 -6.5,2.91 -6.5,6.5 0,3.59 2.91,6.5 6.5,6.5 C -2.91,6.5 0,3.59 0,0"
                 inkscape:connector-curvature="0" />
            </g>
            <g
               transform="translate(24.5,28)"
               id="g257">
              <path
                 id="path259"
                 style="fill:#67757f;fill-opacity:1;fill-rule:nonzero;stroke:none"
                 d="m 0,0 c -3.032,0 -5.5,-2.467 -5.5,-5.5 0,-3.033 2.468,-5.5 5.5,-5.5 3.032,0 5.5,2.467 5.5,5.5 C 5.5,-2.467 3.032,0 0,0 m 0,-13 c -4.136,0 -7.5,3.364 -7.5,7.5 C -7.5,-1.364 -4.136,2 0,2 4.136,2 7.5,-1.364 7.5,-5.5 7.5,-9.636 4.136,-13 0,-13"
                 inkscape:connector-curvature="0" />
            </g>
            <g
               transform="translate(15.001,26.6069)"
               id="g261">
              <path
                 id="path263"
                 style="fill:#664500;fill-opacity:1;fill-rule:nonzero;stroke:none"
                 d="m 0,0 c -0.304,0 -0.604,0.138 -0.801,0.4 -0.935,1.247 -1.915,1.916 -2.911,1.987 -1.313,0.089 -2.383,-0.895 -2.582,-1.094 -0.391,-0.391 -1.023,-0.391 -1.414,0 -0.391,0.391 -0.391,1.023 0,1.414 0.431,0.431 2.011,1.828 4.137,1.674 C -1.97,4.268 -0.5,3.332 0.799,1.6 1.13,1.158 1.041,0.531 0.599,0.2 0.419,0.065 0.208,0 0,0"
                 inkscape:connector-curvature="0" />
            </g>
            <g
               transform="translate(32,1)"
               id="g265">
              <path
                 id="path267"
                 style="fill:#292f33;fill-opacity:1;fill-rule:nonzero;stroke:none"
                 d="m 0,0 c -0.553,0 -1,0.447 -1,1 l 0,20 c 0,0.552 0.447,1 1,1 0.553,0 1,-0.448 1,-1 L 1,1 C 1,0.447 0.553,0 0,0"
                 inkscape:connector-curvature="0" />
            </g>
            <g
               transform="translate(34,22)"
               id="g269">
              <path
                 id="path271"
                 style="fill:#67757f;fill-opacity:1;fill-rule:nonzero;stroke:none"
                 d="m 0,0 c 0,-1.105 -0.895,-2 -2,-2 -1.105,0 -2,0.895 -2,2 0,1.105 0.895,2 2,2 1.105,0 2,-0.895 2,-2"
                 inkscape:connector-curvature="0" />
            </g>
            <g
               transform="translate(20.999,9)"
               id="g273">
              <path
                 id="path275"
                 style="fill:#664500;fill-opacity:1;fill-rule:nonzero;stroke:none"
                 d="m 0,0 c -0.15,0 -0.303,0.034 -0.446,0.105 -1.718,0.86 -3.388,0.86 -5.106,0 -0.494,-0.246 -1.095,-0.046 -1.342,0.448 -0.247,0.494 -0.046,1.094 0.448,1.342 2.286,1.142 4.606,1.142 6.894,0 C 0.942,1.647 1.143,1.047 0.896,0.553 0.72,0.202 0.367,0 0,0"
                 inkscape:connector-curvature="0" />
            </g>
            <g
               transform="translate(27.4907,27.112)"
               id="g277">
              <path
                 id="path279"
                 style="fill:#bdddf4;fill-opacity:1;fill-rule:nonzero;stroke:none"
                 d="m 0,0 c -0.861,0.56 -1.887,0.888 -2.991,0.888 -3.037,0 -5.5,-2.462 -5.5,-5.5 0,-1.104 0.329,-2.129 0.888,-2.991 L 0,0 Z"
                 inkscape:connector-curvature="0" />
            </g>
            <g
               transform="translate(22.153,17.5316)"
               id="g281">
              <path
                 id="path283"
                 style="fill:#bdddf4;fill-opacity:1;fill-rule:nonzero;stroke:none"
                 d="m 0,0 c 0.713,-0.337 1.506,-0.532 2.347,-0.532 3.038,0 5.5,2.463 5.5,5.5 0,0.841 -0.194,1.635 -0.532,2.347 L 0,0 Z"
                 inkscape:connector-curvature="0" />
            </g>
          </g>
        </g>
      </g>
    </g>
    <g
       transform="matrix(0.78715774,-0.43632866,0.43632866,0.78715774,72.244153,137.00878)"
       id="g285">
      <g
         transform="matrix(1.25,0,0,-1.25,0,47.5)"
         id="g287">
        <g
           id="g289">
          <g
             clip-path="url(#clipPath16)"
             id="g291">
            <g
               transform="translate(36,19)"
               id="g293">
              <path
                 id="path295"
                 style="fill:#ffcc4d;fill-opacity:1;fill-rule:nonzero;stroke:none"
                 d="m 0,0 c 0,-9.389 -7.611,-17 -17,-17 -9.388,0 -17,7.611 -17,17 0,9.388 7.612,17 17,17 C -7.611,17 0,9.388 0,0"
                 inkscape:connector-curvature="0" />
            </g>
            <g
               transform="translate(22,11)"
               id="g297">
              <path
                 id="path299"
                 style="fill:#664500;fill-opacity:1;fill-rule:nonzero;stroke:none"
                 d="m 0,0 c 0,-1.657 -1.343,-3 -3,-3 -1.657,0 -3,1.343 -3,3 0,1.656 1.343,3 3,3 1.657,0 3,-1.344 3,-3"
                 inkscape:connector-curvature="0" />
            </g>
            <g
               transform="translate(18.3125,20.3882)"
               id="g301">
              <path
                 id="path303"
                 style="fill:#664500;fill-opacity:1;fill-rule:nonzero;stroke:none"
                 d="m 0,0 c -0.176,0.143 -0.427,0.147 -0.61,0.014 -0.013,-0.01 -1.261,-0.902 -3.702,-0.902 -2.441,0 -3.69,0.892 -3.701,0.9 -0.182,0.136 -0.434,0.133 -0.611,-0.009 -0.178,-0.142 -0.238,-0.386 -0.146,-0.594 0.061,-0.135 1.5,-3.297 4.458,-3.297 2.958,0 4.397,3.162 4.457,3.297 C 0.236,-0.384 0.176,-0.142 0,0"
                 inkscape:connector-curvature="0" />
            </g>
            <g
               transform="translate(28.3125,20.3882)"
               id="g305">
              <path
                 id="path307"
                 style="fill:#664500;fill-opacity:1;fill-rule:nonzero;stroke:none"
                 d="m 0,0 c -0.176,0.143 -0.426,0.148 -0.61,0.014 -0.012,-0.01 -1.261,-0.902 -3.702,-0.902 -2.441,0 -3.691,0.892 -3.701,0.9 -0.182,0.136 -0.433,0.133 -0.611,-0.009 -0.178,-0.142 -0.238,-0.386 -0.146,-0.594 0.06,-0.135 1.5,-3.297 4.458,-3.297 2.958,0 4.397,3.162 4.457,3.297 C 0.236,-0.384 0.177,-0.142 0,0"
                 inkscape:connector-curvature="0" />
            </g>
            <g
               transform="translate(16.9985,31.8691)"
               id="g309">
              <path
                 id="path311"
                 style="fill:#2a6797;fill-opacity:1;fill-rule:nonzero;stroke:none"
                 d="m 0,0 -2.003,0 c -0.432,0 -0.78,0.276 -0.78,0.756 0,0.479 0.348,0.755 0.78,0.755 l 3.922,0 c 0.156,0 0.563,-0.071 0.563,-0.539 0,-0.228 -0.047,-0.336 -0.179,-0.516 l -2.723,-3.814 2.279,0 c 0.432,0 0.779,-0.276 0.779,-0.756 0,-0.479 -0.347,-0.755 -0.779,-0.755 l -4.018,0 c -0.384,0 -0.708,0.192 -0.708,0.588 0,0.192 0.096,0.371 0.156,0.468 L 0,0 Z"
                 inkscape:connector-curvature="0" />
            </g>
            <g
               transform="translate(24.502,34.687)"
               id="g313">
              <path
                 id="path315"
                 style="fill:#2a6797;fill-opacity:1;fill-rule:nonzero;stroke:none"
                 d="m 0,0 -2.34,0 c -0.504,0 -0.91,0.322 -0.91,0.882 0,0.561 0.406,0.883 0.91,0.883 l 4.58,0 C 2.424,1.765 2.9,1.681 2.9,1.135 2.9,0.869 2.844,0.743 2.689,0.532 l -3.179,-4.454 2.662,0 c 0.504,0 0.91,-0.322 0.91,-0.883 0,-0.56 -0.406,-0.882 -0.91,-0.882 l -4.693,0 c -0.449,0 -0.827,0.224 -0.827,0.687 0,0.224 0.112,0.434 0.182,0.545 L 0,0 Z"
                 inkscape:connector-curvature="0" />
            </g>
            <g
               transform="translate(32.502,31.3101)"
               id="g317">
              <path
                 id="path319"
                 style="fill:#2a6797;fill-opacity:1;fill-rule:nonzero;stroke:none"
                 d="m 0,0 -3.008,0 c -0.648,0 -1.17,0.414 -1.17,1.134 0,0.72 0.522,1.135 1.17,1.135 l 5.889,0 c 0.234,0 0.846,-0.108 0.846,-0.811 0,-0.341 -0.073,-0.504 -0.27,-0.774 l -4.088,-5.726 3.422,0 c 0.647,0 1.17,-0.414 1.17,-1.134 0,-0.72 -0.523,-1.134 -1.17,-1.134 l -6.033,0 c -0.576,0 -1.062,0.288 -1.062,0.882 0,0.288 0.144,0.558 0.234,0.702 L 0,0 Z"
                 inkscape:connector-curvature="0" />
            </g>
          </g>
        </g>
      </g>
    </g>
    <g
       transform="matrix(-0.38567257,0.45962667,-0.45962667,-0.38567257,180.56468,96.727419)"
       id="g321">
      <g
         transform="matrix(1.25,0,0,-1.25,0,45)"
         id="g323">
        <g
           id="g325">
          <g
             clip-path="url(#clipPath16)"
             id="g327">
            <g
               transform="translate(36,18)"
               id="g329">
              <path
                 id="path331"
                 style="fill:#ffcc4d;fill-opacity:1;fill-rule:nonzero;stroke:none"
                 d="m 0,0 c 0,-9.941 -8.059,-18 -18,-18 -9.94,0 -18,8.059 -18,18 0,9.94 8.06,18 18,18 C -8.059,18 0,9.94 0,0"
                 inkscape:connector-curvature="0" />
            </g>
            <g
               transform="translate(14.0342,21.501)"
               id="g333">
              <path
                 id="path335"
                 style="fill:#664500;fill-opacity:1;fill-rule:nonzero;stroke:none"
                 d="M 0,0 C 0,-1.934 -1.119,-3.5 -2.5,-3.5 -3.881,-3.5 -5,-1.934 -5,0 -5,1.933 -3.881,3.5 -2.5,3.5 -1.119,3.5 0,1.933 0,0"
                 inkscape:connector-curvature="0" />
            </g>
            <g
               transform="translate(27.0342,21.501)"
               id="g337">
              <path
                 id="path339"
                 style="fill:#664500;fill-opacity:1;fill-rule:nonzero;stroke:none"
                 d="M 0,0 C 0,-1.934 -1.119,-3.5 -2.5,-3.5 -3.881,-3.5 -5,-1.934 -5,0 -5,1.933 -3.881,3.5 -2.5,3.5 -1.119,3.5 0,1.933 0,0"
                 inkscape:connector-curvature="0" />
            </g>
            <g
               transform="translate(25.001,8.9961)"
               id="g341">
              <path
                 id="path343"
                 style="fill:#664500;fill-opacity:1;fill-rule:nonzero;stroke:none"
                 d="m 0,0 -15.001,0 c -1,0 -1,1 -1,1 l 0,1 c 0,0 0,1.003 1,1.003 C -14.001,3.003 0,3 0,3 L 0,0 Z"
                 inkscape:connector-curvature="0" />
            </g>
            <path
               id="path36"
               style="fill:#9aaab4;fill-opacity:1;fill-rule:nonzero;stroke:none"
               d="m 14,7.999 -2,0 0,3 2,0 0,-3 z"
               inkscape:connector-curvature="0" />
            <path
               id="path346"
               style="fill:#9aaab4;fill-opacity:1;fill-rule:nonzero;stroke:none"
               d="m 16,12.999 -2,0 0,-3 2,0 0,3 z"
               inkscape:connector-curvature="0" />
            <path
               id="path40"
               style="fill:#9aaab4;fill-opacity:1;fill-rule:nonzero;stroke:none"
               d="m 12,12.999 -2,0 0,-3 2,0 0,3 z"
               inkscape:connector-curvature="0" />
            <path
               id="path349"
               style="fill:#9aaab4;fill-opacity:1;fill-rule:nonzero;stroke:none"
               d="m 17.999,7.999 -2,0 0,3 2,0 0,-3 z"
               inkscape:connector-curvature="0" />
            <path
               id="path44"
               style="fill:#9aaab4;fill-opacity:1;fill-rule:nonzero;stroke:none"
               d="m 20,12.999 -2.001,0 0,-3 2.001,0 0,3 z"
               inkscape:connector-curvature="0" />
            <path
               id="path352"
               style="fill:#9aaab4;fill-opacity:1;fill-rule:nonzero;stroke:none"
               d="m 22,7.999 -2,0 0,3 2,0 0,-3 z"
               inkscape:connector-curvature="0" />
            <path
               id="path48"
               style="fill:#9aaab4;fill-opacity:1;fill-rule:nonzero;stroke:none"
               d="m 24,12.999 -2,0 0,-3 2,0 0,3 z"
               inkscape:connector-curvature="0" />
            <g
               transform="translate(31.4834,3.8447)"
               id="g50">
              <path
                 id="path52"
                 style="fill:#99aab5;fill-opacity:1;fill-rule:nonzero;stroke:none"
                 d="M 0,0 2.308,4.186 -1.03,5.317 -2.645,2.248 0,0 Z m -5.172,7.493 c 0,0 0.265,0.964 1.231,0.699 L 3.771,6.071 c 0,0 0.964,-0.265 0.699,-1.23 -0.265,-0.964 -3.176,-6.314 -3.914,-6.984 -0.869,-0.787 -1.769,0.08 -1.769,0.08 0,0 -4.664,4.198 -5.285,4.735 -0.621,0.538 -0.373,1.275 -0.373,1.275 l 1.699,3.546 z"
                 inkscape:connector-curvature="0" />
            </g>
            <g
               transform="translate(24.8174,7.9482)"
               id="g54">
              <path
                 id="path56"
                 style="fill:#99aab5;fill-opacity:1;fill-rule:nonzero;stroke:none"
                 d="M 0,0 -1.754,0.839 -0.086,4.326 1.668,3.487 0,0 Z"
                 inkscape:connector-curvature="0" />
            </g>
          </g>
        </g>
      </g>
    </g>
    <g
       transform="matrix(-0.04710236,-0.89876658,0.89876658,-0.04710236,125.69543,158.06109)"
       id="g359">
      <g
         transform="matrix(1.25,0,0,-1.25,0,47.5)"
         id="g361">
        <g
           id="g363">
          <g
             clip-path="url(#clipPath16)"
             id="g365">
            <g
               transform="translate(20.6016,4.6709)"
               id="g367">
              <path
                 id="path369"
                 style="fill:#77b255;fill-opacity:1;fill-rule:nonzero;stroke:none"
                 d="M 0,0 C 6.509,-6.506 17.254,7.669 15.72,7.669 8.052,7.669 -6.506,6.508 0,0"
                 inkscape:connector-curvature="0" />
            </g>
            <g
               transform="translate(16.6445,3.6279)"
               id="g371">
              <path
                 id="path373"
                 style="fill:#77b255;fill-opacity:1;fill-rule:nonzero;stroke:none"
                 d="M 0,0 C -6.032,-6.032 -15.715,7.109 -14.292,7.109 -7.182,7.109 6.035,6.034 0,0"
                 inkscape:connector-curvature="0" />
            </g>
            <g
               transform="translate(35.6133,21.2461)"
               id="g375">
              <path
                 id="path377"
                 style="fill:#f4abba;fill-opacity:1;fill-rule:nonzero;stroke:none"
                 d="m 0,0 c -0.052,0.901 -0.175,2.585 -1.398,4.227 -1.161,1.549 -3.805,3.371 -5.535,2.585 0.516,1.676 -0.263,4.125 -1.191,5.49 -1.179,1.737 -4.262,3.843 -8.146,3.027 -1.754,-0.37 -4.18,-2.036 -4.632,-3.865 -1.18,1.472 -4.221,1.675 -6.015,1.222 -2.025,-0.511 -3.153,-1.777 -3.739,-2.461 l 0.004,0.005 c -0.01,-0.01 -0.02,-0.024 -0.03,-0.034 -0.007,-0.009 -0.02,-0.024 -0.027,-0.033 -0.583,-0.689 -1.656,-1.994 -1.847,-4.074 -0.193,-2.146 0.75,-5.832 3.026,-6.042 0.149,-0.014 0.323,-0.031 0.513,-0.051 -2.27,-0.098 -3.572,-3.654 -3.594,-5.8 -0.023,-2.101 0.926,-3.506 1.443,-4.243 l -0.003,0.004 c 0.008,-0.01 0.019,-0.024 0.025,-0.036 0.007,-0.011 0.02,-0.024 0.026,-0.036 0.523,-0.733 1.525,-2.094 3.515,-2.777 1.958,-0.669 5.553,-0.656 6.566,1.237 -0.273,-2.244 3.028,-4.077 5.17,-4.439 2.115,-0.358 3.71,0.358 4.55,0.753 l -0.005,-0.003 c 0.012,0.008 0.028,0.015 0.041,0.021 0.011,0.005 0.028,0.013 0.041,0.019 0.838,0.401 2.397,1.178 3.462,3.04 0.728,1.283 1.269,3.404 0.951,5.015 0.064,-0.043 0.136,-0.089 0.192,-0.127 1.826,-1.224 4.63,1.119 5.705,2.938 C 0.111,-2.675 0,-0.012 0,0"
                 inkscape:connector-curvature="0" />
            </g>
            <g
               transform="translate(28.542,23.4585)"
               id="g379">
              <path
                 id="path381"
                 style="fill:#ea596e;fill-opacity:1;fill-rule:nonzero;stroke:none"
                 d="m 0,0 c -1.786,0.997 -4.874,0.434 -6.792,-0.308 -0.266,0.468 -0.621,0.875 -1.051,1.196 1.393,1.607 3.527,4.593 1.468,6.362 -2.191,1.883 -3.74,-2.154 -3.575,-5.605 -0.068,0.003 -0.132,0.02 -0.2,0.02 -1.02,0 -1.94,-0.402 -2.632,-1.045 -1.402,2.277 -3.943,4.244 -5.314,2.392 -1.482,-2.002 1.149,-3.153 4.222,-4.199 -0.09,-0.329 -0.154,-0.668 -0.154,-1.026 0,-0.456 0.093,-0.887 0.237,-1.293 -2.54,-0.733 -6.236,-2.718 -4.209,-4.911 2.121,-2.295 4.471,1.239 5.603,3.053 0.635,-0.454 1.407,-0.727 2.247,-0.727 0.224,0 0.441,0.029 0.655,0.066 -0.109,-4.802 1.443,-7.07 4.036,-5.892 2.295,1.043 -0.137,5.299 -1.781,7.166 0.316,0.362 0.564,0.779 0.729,1.241 C 0.497,-6.054 2.078,-1.159 0,0"
                 inkscape:connector-curvature="0" />
            </g>
            <g
               transform="translate(18.707,19.541)"
               id="g383">
              <path
                 id="path385"
                 style="fill:#be1931;fill-opacity:1;fill-rule:nonzero;stroke:none"
                 d="m 0,0 c -0.679,0 -0.668,0.562 -0.832,1.25 -0.532,2.234 -2.381,6.309 -4.601,9.163 -0.508,0.654 -0.39,1.596 0.264,2.105 0.654,0.508 1.596,0.391 2.105,-0.263 C -0.625,9.119 0.199,4.851 0.918,1.834 1.109,1.028 1.155,0.233 0.349,0.042 0.232,0.014 0.115,0 0,0"
                 inkscape:connector-curvature="0" />
            </g>
            <g
               transform="translate(16.9043,31.6729)"
               id="g387">
              <path
                 id="path389"
                 style="fill:#ffcc4d;fill-opacity:1;fill-rule:nonzero;stroke:none"
                 d="m 0,0 c 0.498,-0.684 0.079,-1.838 -0.936,-2.578 l -0.475,-0.346 c -1.016,-0.74 -2.242,-0.785 -2.741,-0.101 l -2.781,3.816 c -0.498,0.684 -0.079,1.838 0.937,2.578 l 0.475,0.346 c 1.015,0.74 2.242,0.785 2.74,0.101 L 0,0 Z"
                 inkscape:connector-curvature="0" />
            </g>
          </g>
        </g>
      </g>
    </g>
    <g
       transform="matrix(-0.93358043,0.35836795,-0.35836795,-0.93358043,170.4216,76.87395)"
       id="g391">
      <g
         transform="matrix(1.25,0,0,-1.25,0,47.5)"
         id="g393">
        <g
           transform="translate(7,14)"
           id="g395">
          <path
             id="path14"
             style="fill:#ccd6dd;fill-opacity:1;fill-rule:nonzero;stroke:none"
             d="m 0,0 -5,3 2,-6 -1,-2 6,-5 7,-2 3,11 -12,1 z"
             inkscape:connector-curvature="0" />
        </g>
        <g
           transform="translate(32,14)"
           id="g16">
          <path
             id="path399"
             style="fill:#ccd6dd;fill-opacity:1;fill-rule:nonzero;stroke:none"
             d="m 0,0 5,3 -2,-6 1,-2 -6,-5 -7,-2 -3,11 12,1 z"
             inkscape:connector-curvature="0" />
        </g>
        <g
           id="g401">
          <g
             clip-path="url(#clipPath24)"
             id="g22">
            <g
               transform="translate(12,30)"
               id="g404">
              <path
                 id="path406"
                 style="fill:#66757f;fill-opacity:1;fill-rule:nonzero;stroke:none"
                 d="M 0,0 C 0,-3.866 -3.032,-7 -6.771,-7 -10.51,-7 -7.899,7 -7.899,7 -7.899,7 0,3.866 0,0"
                 inkscape:connector-curvature="0" />
            </g>
            <g
               transform="translate(25,7)"
               id="g408">
              <path
                 id="path410"
                 style="fill:#66757f;fill-opacity:1;fill-rule:nonzero;stroke:none"
                 d="m 0,0 c 0,-3.313 -2.687,-6 -6,-6 -3.313,0 -6,2.687 -6,6 0,3.313 2.687,6 6,6 3.313,0 6,-2.687 6,-6"
                 inkscape:connector-curvature="0" />
            </g>
            <g
               transform="translate(23,7)"
               id="g412">
              <path
                 id="path414"
                 style="fill:#dd2e44;fill-opacity:1;fill-rule:nonzero;stroke:none"
                 d="m 0,0 c 0,-2.209 -1.791,-4 -4,-4 -2.209,0 -4,1.791 -4,4 0,2.209 1.791,4 4,4 2.209,0 4,-1.791 4,-4"
                 inkscape:connector-curvature="0" />
            </g>
            <g
               transform="translate(32.7705,23)"
               id="g416">
              <path
                 id="path418"
                 style="fill:#66757f;fill-opacity:1;fill-rule:nonzero;stroke:none"
                 d="m 0,0 c -3.739,0 -6.771,3.134 -6.771,7 0,3.866 7.9,7 7.9,7 C 1.129,14 3.739,0 0,0"
                 inkscape:connector-curvature="0" />
            </g>
            <g
               transform="translate(10,29)"
               id="g420">
              <path
                 id="path422"
                 style="fill:#e6aaaa;fill-opacity:1;fill-rule:nonzero;stroke:none"
                 d="m 0,0 c 0,-2.209 -1.791,-4 -4,-4 -2.209,0 0,8 0,8 0,0 4,-1.791 4,-4"
                 inkscape:connector-curvature="0" />
            </g>
            <g
               transform="translate(32,25)"
               id="g424">
              <path
                 id="path426"
                 style="fill:#e6aaaa;fill-opacity:1;fill-rule:nonzero;stroke:none"
                 d="M 0,0 C -2.209,0 -4,1.791 -4,4 -4,6.209 0,8 0,8 0,8 2.209,0 0,0"
                 inkscape:connector-curvature="0" />
            </g>
            <g
               transform="translate(35,15)"
               id="g428">
              <path
                 id="path430"
                 style="fill:#66757f;fill-opacity:1;fill-rule:nonzero;stroke:none"
                 d="m 0,0 c 0,-7 -6.923,-7 -6.923,-7 l -18.154,0 c 0,0 -6.923,0 -6.923,7 0,0 1.231,19 16,19 C -1.23,19 0,0 0,0"
                 inkscape:connector-curvature="0" />
            </g>
            <g
               transform="translate(12,20)"
               id="g432">
              <path
                 id="path434"
                 style="fill:#272b2b;fill-opacity:1;fill-rule:nonzero;stroke:none"
                 d="M 0,0 C 0,0 0,2 2,2 4,2 4,0 4,0 l 0,-2 c 0,0 0,-2 -2,-2 -2,0 -2,2 -2,2 l 0,2 z"
                 inkscape:connector-curvature="0" />
            </g>
            <g
               transform="translate(22,20)"
               id="g436">
              <path
                 id="path438"
                 style="fill:#272b2b;fill-opacity:1;fill-rule:nonzero;stroke:none"
                 d="M 0,0 C 0,0 0,2 2,2 4,2 4,0 4,0 l 0,-2 c 0,0 0,-2 -2,-2 -2,0 -2,2 -2,2 l 0,2 z"
                 inkscape:connector-curvature="0" />
            </g>
            <g
               transform="translate(33.7148,12.8379)"
               id="g440">
              <path
                 id="path442"
                 style="fill:#ccd6dd;fill-opacity:1;fill-rule:nonzero;stroke:none"
                 d="M 0,0 1.229,3.162 -1.399,0.496 c -0.388,0.1 -0.823,0.191 -1.316,0.27 l 0,4.396 -2.518,-4.121 c -1.101,0.076 -2.351,0.121 -3.804,0.121 -3.483,0 -1.003,-4.451 -5.762,-4.949 -4.759,0.498 -2.28,4.949 -5.762,4.949 -1.38,0 -2.582,-0.04 -3.643,-0.108 l -2.511,4.108 0,-4.366 c -0.509,-0.077 -0.947,-0.169 -1.348,-0.267 l -2.596,2.633 1.203,-3.093 c -1.689,-0.778 -1.502,-1.864 -0.427,-2.907 5.999,-5.818 9,-6 9.322,-6 2.46,0 4.603,0.998 5.762,2.481 1.159,-1.483 3.303,-2.481 5.762,-2.481 0.322,0 3.323,0.182 9.322,6 C 1.329,-1.825 1.532,-0.772 0,0"
                 inkscape:connector-curvature="0" />
            </g>
            <g
               transform="translate(16,12)"
               id="g444">
              <path
                 id="path446"
                 style="fill:#272b2b;fill-opacity:1;fill-rule:nonzero;stroke:none"
                 d="M 0,0 C -1,-1 0,-4 3,-4 6,-4 7,-1 6,0 5,1 1,1 0,0"
                 inkscape:connector-curvature="0" />
            </g>
          </g>
        </g>
      </g>
    </g>
  </g>
</svg>
