<?xml version="1.0" encoding="UTF-8" standalone="no"?>
<svg
   xmlns:dc="http://purl.org/dc/elements/1.1/"
   xmlns:cc="http://creativecommons.org/ns#"
   xmlns:rdf="http://www.w3.org/1999/02/22-rdf-syntax-ns#"
   xmlns:svg="http://www.w3.org/2000/svg"
   xmlns="http://www.w3.org/2000/svg"
   xmlns:sodipodi="http://sodipodi.sourceforge.net/DTD/sodipodi-0.dtd"
   xmlns:inkscape="http://www.inkscape.org/namespaces/inkscape"
   version="1.1"
   id="svg2"
   viewBox="0 0 200 200"
   height="200px"
   width="200px"
   inkscape:version="0.91 r13725"
   sodipodi:docname="39.svg">
  <metadata
     id="metadata465">
    <rdf:RDF>
      <cc:Work
         rdf:about="">
        <dc:format>image/svg+xml</dc:format>
        <dc:type
           rdf:resource="http://purl.org/dc/dcmitype/StillImage" />
      </cc:Work>
    </rdf:RDF>
  </metadata>
  <sodipodi:namedview
     pagecolor="#ffffff"
     bordercolor="#666666"
     borderopacity="1"
     objecttolerance="10"
     gridtolerance="10"
     guidetolerance="10"
     inkscape:pageopacity="0"
     inkscape:pageshadow="2"
     inkscape:window-width="1920"
     inkscape:window-height="1060"
     id="namedview463"
     showgrid="false"
     inkscape:zoom="3.337544"
     inkscape:cx="48.489915"
     inkscape:cy="108.22762"
     inkscape:window-x="0"
     inkscape:window-y="0"
     inkscape:window-maximized="1"
     inkscape:current-layer="layer1" />
  <defs
     id="defs6">
    <clipPath
       id="clipPath28"
       clipPathUnits="userSpaceOnUse">
      <path
         id="path30"
         d="M 4,36 C 0,36 0,32 0,32 L 0,32 0,4 C 0,0 4,0 4,0 l 0,0 28,0 c 4,0 4,4 4,4 l 0,0 0,28 c 0,4 -4,4 -4,4 l 0,0 -28,0 z" />
    </clipPath>
    <clipPath
       clipPathUnits="userSpaceOnUse"
       id="clipPath16-rugby">
      <path
         d="M 0,38 38,38 38,0 0,0 0,38 Z"
         id="path18" />
    </clipPath>
    <clipPath
       clipPathUnits="userSpaceOnUse"
       id="clipPath28-rugby">
      <path
         d="M 9.254,28.746 C 2.09,21.582 -0.927,9.561 3.929,3.929 l 0,0 C 9.561,-0.927 21.582,2.09 28.746,9.254 l 0,0 c 7.164,7.164 11.229,17.088 5.324,24.816 l 0,0 c -1.886,1.627 -4.489,2.371 -7.387,2.37 l 0,0 c -5.752,0 -12.665,-2.93 -17.429,-7.694"
         id="path11" />
    </clipPath>
    <clipPath
       clipPathUnits="userSpaceOnUse"
       id="clipPath16-carrot">
      <path
         d="M 0,36 36,36 36,0 0,0 0,36 Z"
         id="path14" />
    </clipPath>
    <clipPath
       clipPathUnits="userSpaceOnUse"
       id="clipPath32-carrot">
      <path
         d="M 11.815,23.013 C 4.2,15.397 -1.265,2.86 0.502,1.093 l 0,0 c 1.768,-1.768 14.305,3.698 21.92,11.313 l 0,0 c 7.616,7.615 7.562,11.53 4.243,14.85 l 0,0 c -1.328,1.328 -2.752,2.133 -4.47,2.133 l 0,0 c -2.575,0 -5.812,-1.809 -10.38,-6.376"
         id="path34" />
    </clipPath>
    <clipPath
       clipPathUnits="userSpaceOnUse"
       id="clipPath32-hat">
      <path
         d="m 5,33.666 c 0,-0.034 0.018,-0.067 0.022,-0.101 l 0,0 C 5.008,33.455 5,33.335 5,33.2 l 0,0 L 6.802,9.616 C 3.299,8.705 1,7.424 1,6 L 1,6 C 1,3.238 9.611,1 19,1 l 0,0 c 9.389,0 18,2.238 18,5 l 0,0 c 0,1.424 -2.298,2.705 -5.801,3.616 l 0,0 L 33,33.184 c 0,0.135 -0.008,0.263 -0.021,0.373 l 0,0 C 32.982,33.591 33,33.632 33,33.666 l 0,0 c 0,1.805 -6.268,3.267 -14,3.267 l 0,0 c -7.732,0 -14,-1.462 -14,-3.267"
         id="path19" />
    </clipPath>
    <clipPath
       clipPathUnits="userSpaceOnUse"
       id="clipPath48-soccer">
      <path
         d="M 1,19 C 1,9.059 9.059,1 19,1 l 0,0 c 9.941,0 18,8.059 18,18 l 0,0 c 0,9.941 -8.059,18 -18,18 l 0,0 C 9.059,37 1,28.941 1,19"
         id="path50" />
    </clipPath>
    <clipPath
       clipPathUnits="userSpaceOnUse"
       id="clipPath28-baguette">
      <path
         d="M 24.052,31.33 5.126,12.406 C 1.342,8.62 1.288,4.133 2.856,2.564 l 0,0 C 4.424,0.997 8.912,1.049 12.697,4.835 l 0,0 18.925,18.924 c 3.784,3.785 3.837,8.273 2.269,9.841 l 0,0 c -0.605,0.606 -1.647,0.969 -2.915,0.969 l 0,0 c -2.014,0 -4.602,-0.917 -6.924,-3.239"
         id="path24" />
    </clipPath>
  </defs>
  <g
     id="layer1">
    <circle
       style="opacity:1;fill:white;stroke:black;stroke-width:1;stroke-miterlimit:4;stroke-dasharray:none;stroke-opacity:0.1"
       id="path4039-0-9"
       cx="100px"
       cy="100px"
       r="90px" />
    <g
       transform="matrix(-0.45282575,-0.39363542,0.39363542,-0.45282575,90.985435,150.9479)"
       id="g8">
      <g
         transform="matrix(1.25,0,0,-1.25,0,45)"
         id="g10">
        <g
           id="g12">
          <g
             clip-path="url(#clipPath16)"
             id="g14">
            <g
               transform="translate(6.5,3)"
               id="g20">
              <path
                 id="path22"
                 style="fill:#99aab5;fill-opacity:1;fill-rule:nonzero;stroke:none"
                 d="M 0,0 C -1.933,0 -3.5,1.567 -3.5,3.5 -3.5,5.433 -1.933,7 0,7 1.933,7 3.5,5.433 3.5,3.5 3.5,1.567 1.933,0 0,0 M 0,9 C -3.038,9 -5.5,6.537 -5.5,3.5 -5.5,0.463 -3.038,-2 0,-2 3.038,-2 5.5,0.463 5.5,3.5 5.5,6.537 3.038,9 0,9"
                 inkscape:connector-curvature="0" />
            </g>
            <g
               transform="translate(29.5,3)"
               id="g24">
              <path
                 id="path26"
                 style="fill:#99aab5;fill-opacity:1;fill-rule:nonzero;stroke:none"
                 d="M 0,0 C -1.934,0 -3.5,1.567 -3.5,3.5 -3.5,5.433 -1.934,7 0,7 1.934,7 3.5,5.433 3.5,3.5 3.5,1.567 1.934,0 0,0 M 0,9 C -3.037,9 -5.5,6.537 -5.5,3.5 -5.5,0.463 -3.037,-2 0,-2 3.037,-2 5.5,0.463 5.5,3.5 5.5,6.537 3.037,9 0,9"
                 inkscape:connector-curvature="0" />
            </g>
            <g
               transform="translate(6.5,2.0859)"
               id="g28">
              <path
                 id="path35"
                 style="fill:#292f33;fill-opacity:1;fill-rule:nonzero;stroke:none"
                 d="M 0,0 C -2.485,0 -4.5,2.015 -4.5,4.5 -4.5,6.985 -2.485,9 0,9 2.485,9 4.5,6.985 4.5,4.5 4.5,2.015 2.485,0 0,0 M 0,11 C -3.59,11 -6.5,8.09 -6.5,4.5 -6.5,0.91 -3.59,-2 0,-2 3.59,-2 6.5,0.91 6.5,4.5 6.5,8.09 3.59,11 0,11"
                 inkscape:connector-curvature="0" />
            </g>
            <g
               transform="translate(29.5,2.0859)"
               id="g32">
              <path
                 id="path38"
                 style="fill:#292f33;fill-opacity:1;fill-rule:nonzero;stroke:none"
                 d="M 0,0 C -2.485,0 -4.5,2.015 -4.5,4.5 -4.5,6.985 -2.485,9 0,9 2.485,9 4.5,6.985 4.5,4.5 4.5,2.015 2.485,0 0,0 M 0,11 C -3.59,11 -6.5,8.09 -6.5,4.5 -6.5,0.91 -3.59,-2 0,-2 3.59,-2 6.5,0.91 6.5,4.5 6.5,8.09 3.59,11 0,11"
                 inkscape:connector-curvature="0" />
            </g>
            <g
               transform="translate(7.0015,8.9492)"
               id="g36">
              <path
                 id="path41"
                 style="fill:#77b255;fill-opacity:1;fill-rule:nonzero;stroke:none"
                 d="m 0,0 c -2,-4 0.999,-2.587 1.999,-0.587 0.905,1.811 3.444,2.429 4.66,0.375 -0.952,3.05 -3.798,5.263 -7.16,5.263 -1.374,0 -2.657,-0.375 -3.764,-1.02 C -1.433,3.865 1.1,2.2 0,0"
                 inkscape:connector-curvature="0" />
            </g>
            <g
               transform="translate(30,7)"
               id="g40">
              <path
                 id="path42"
                 style="fill:#99aab5;fill-opacity:1;fill-rule:nonzero;stroke:none"
                 d="m 0,0 c 0,-0.553 -0.447,-1 -1,-1 l -9,0 c -0.553,0 -1,0.447 -1,1 0,0.553 0.447,1 1,1 l 9,0 C -0.447,1 0,0.553 0,0"
                 inkscape:connector-curvature="0" />
            </g>
            <g
               transform="translate(29.9229,5.6943)"
               id="g44">
              <path
                 id="path46"
                 style="fill:#99aab5;fill-opacity:1;fill-rule:nonzero;stroke:none"
                 d="m 0,0 c -0.433,-0.344 -1.062,-0.272 -1.405,0.161 l -5.601,7.045 c -0.344,0.433 -0.271,1.062 0.16,1.405 0.433,0.344 1.062,0.273 1.406,-0.161 L 0.16,1.405 C 0.504,0.973 0.432,0.344 0,0"
                 inkscape:connector-curvature="0" />
            </g>
            <g
               transform="translate(12.4629,15.6328)"
               id="g48">
              <path
                 id="path48"
                 style="fill:#ccd6dd;fill-opacity:1;fill-rule:nonzero;stroke:none"
                 d="m 0,0 c 0.466,-0.297 0.602,-0.915 0.304,-1.381 l -4.849,-7.582 c -0.298,-0.465 -0.915,-0.601 -1.381,-0.303 -0.466,0.297 -0.602,0.915 -0.304,1.381 l 4.849,7.582 C -1.083,0.162 -0.465,0.299 0,0"
                 inkscape:connector-curvature="0" />
            </g>
            <g
               transform="translate(10.5293,18.6323)"
               id="g52">
              <path
                 id="path54"
                 style="fill:#77b255;fill-opacity:1;fill-rule:nonzero;stroke:none"
                 d="m 0,0 c -0.811,-0.585 -4.529,-1.632 -1.529,-3.632 3,-2 5.093,-4.125 5.093,-6 0,-2.665 -0.656,-4 0.907,-4 l 7,0 c 0,0 -1,4 2,7 3,3 5,2 8,3 1.897,0.633 4,2 4,3 0,1 0,2 -2,1 -2,-1 -1,-1.551 -3,-0.551 -2,1 -3.16,-0.449 -4.16,-0.449 -1,0 -7.615,-1.68 -8.62,0.049 C 7.138,0.368 5.905,1.368 4.087,1.368 2.769,1.368 0.971,0.7 0,0"
                 inkscape:connector-curvature="0" />
            </g>
            <g
               transform="translate(21,7)"
               id="g56">
              <path
                 id="path58"
                 style="fill:#66757f;fill-opacity:1;fill-rule:nonzero;stroke:none"
                 d="m 0,0 c 0,-1.104 -0.895,-2 -2,-2 -1.104,0 -1.999,0.896 -1.999,2 0,1.105 0.895,2 1.999,2 1.105,0 2,-0.895 2,-2"
                 inkscape:connector-curvature="0" />
            </g>
            <g
               transform="translate(36.1982,8.9746)"
               id="g60">
              <path
                 id="path62"
                 style="fill:#ccd6dd;fill-opacity:1;fill-rule:nonzero;stroke:none"
                 d="m 0,0 -9.277,-3.732 -1.119,2.783 9.277,3.732 L 0,0 Z"
                 inkscape:connector-curvature="0" />
            </g>
            <g
               transform="translate(35.8252,9.9023)"
               id="g64">
              <path
                 id="path66"
                 style="fill:#ffffff;fill-opacity:1;fill-rule:nonzero;stroke:none"
                 d="M 0,0 -9.277,-3.732 -9.65,-2.805 -0.373,0.928 0,0 Z"
                 inkscape:connector-curvature="0" />
            </g>
            <g
               transform="translate(36.1982,8.9746)"
               id="g68">
              <path
                 id="path70"
                 style="fill:#66757f;fill-opacity:1;fill-rule:nonzero;stroke:none"
                 d="M 0,0 -9.277,-3.732 -9.65,-2.805 -0.373,0.928 0,0 Z"
                 inkscape:connector-curvature="0" />
            </g>
            <g
               transform="translate(19,17.8628)"
               id="g72">
              <path
                 id="path74"
                 style="fill:#292f33;fill-opacity:1;fill-rule:nonzero;stroke:none"
                 d="m 0,0 c 1.366,-0.385 5.645,0.007 6.802,0.098 1.157,0.09 1.594,-0.452 0,-1.25 C 5,-2.053 1.187,-4.313 0,-4.777 -0.998,-5.168 -4.5,-3.566 -4.917,-3.081 -5.333,-2.595 -1.172,0.33 0,0"
                 inkscape:connector-curvature="0" />
            </g>
            <g
               transform="translate(34,19)"
               id="g76">
              <path
                 id="path78"
                 style="fill:#292f33;fill-opacity:1;fill-rule:nonzero;stroke:none"
                 d="M 0,0 C -1.549,-0.04 -3,0 -4,0 -5,0 -5.158,-1.102 -2.451,-1.102 0.256,-1.102 0,0 0,0"
                 inkscape:connector-curvature="0" />
            </g>
            <g
               transform="translate(3.7363,19.0425)"
               id="g80">
              <path
                 id="path82"
                 style="fill:#77b255;fill-opacity:1;fill-rule:nonzero;stroke:none"
                 d="M 0,0 C 0,1.465 4.456,5.134 3.975,4.476 2.825,2.903 3.485,1 5.462,1 7.438,1 8.17,-5.519 5.264,-4.042 2.357,-2.566 0,-0.719 0,0"
                 inkscape:connector-curvature="0" />
            </g>
            <g
               transform="translate(8.606,25.4307)"
               id="g84">
              <path
                 id="path86"
                 style="fill:#ccd6dd;fill-opacity:1;fill-rule:nonzero;stroke:none"
                 d="M 0,0 C 0.704,-0.61 0.345,-1.692 -1.045,-3.485 -2.436,-5.279 -4.627,-6.006 -3.404,-4.027 -2.181,-2.048 0,0 0,0"
                 inkscape:connector-curvature="0" />
            </g>
            <g
               transform="translate(10.5293,18.6323)"
               id="g88">
              <path
                 id="path90"
                 style="fill:#66757f;fill-opacity:1;fill-rule:nonzero;stroke:none"
                 d="m 0,0 c -0.19,-0.476 -0.73,-0.706 -1.206,-0.516 l -0.134,0.054 c -0.476,0.191 -0.707,0.73 -0.516,1.206 l 0.797,1.991 c 0.191,0.476 0.73,0.707 1.206,0.517 L 0.282,3.197 C 0.757,3.007 0.988,2.467 0.798,1.992 L 0,0 Z"
                 inkscape:connector-curvature="0" />
            </g>
            <g
               transform="translate(12.9106,22.0093)"
               id="g92">
              <path
                 id="path94"
                 style="fill:#292f33;fill-opacity:1;fill-rule:nonzero;stroke:none"
                 d="m 0,0 c 0.094,-0.26 -0.04,-0.546 -0.3,-0.64 l -1.882,-0.679 c -0.259,-0.094 -0.545,0.04 -0.639,0.3 -0.094,0.26 0.04,0.546 0.3,0.641 L -0.64,0.301 C -0.38,0.394 -0.094,0.26 0,0"
                 inkscape:connector-curvature="0" />
            </g>
          </g>
        </g>
      </g>
    </g>
    <g
       transform="matrix(-0.3125849,-0.73640388,0.73640388,-0.3125849,136.77648,108.264)"
       id="g53">
      <g
         transform="matrix(1.25,0,0,-1.25,0,47.5)"
         id="g55">
        <g
           id="g57">
          <g
             clip-path="url(#clipPath16)"
             id="g59">
            <g
               transform="translate(37,29.999)"
               id="g61">
              <path
                 id="path63"
                 style="fill:#3b88c3;fill-opacity:1;fill-rule:nonzero;stroke:none"
                 d="m 0,0 c -2,-3 -2,1 -5,-2 -3,2 -3,-3 -6,0 0.899,-2.699 3.419,-4.574 6.1,-4.926 -0.277,-1.789 0.202,-3.946 -2.1,-6.073 -2.008,-1.857 -3.023,-0.312 -8,2.999 -3,1.996 -5,4 -10,3 -5.883,-1.177 -11,-5.999 -11,-7.999 0,-2 3,-13.969 21,-13.969 2,0 5.243,0.664 8,2.969 5.955,4.978 5.882,15.349 4.58,19.456 C -0.64,-5.416 0,-2.393 0,0"
                 inkscape:connector-curvature="0" />
            </g>
            <g
               transform="translate(31.2139,5.1875)"
               id="g65">
              <path
                 id="path67"
                 style="fill:#55acee;fill-opacity:1;fill-rule:nonzero;stroke:none"
                 d="m 0,0 c 0.149,0.165 0.289,0.338 0.429,0.511 1.879,2.35 2.902,5.348 3.355,8.29 -1.999,-4.996 -3.006,-9.988 -13.998,-9.988 -11,0 -15,13 -20,11 0,-2.001 3,-13.969 21,-13.969 2,0 5.243,0.664 8,2.969 0.318,0.265 0.612,0.553 0.9,0.848 C -0.208,-0.228 -0.103,-0.115 0,0"
                 inkscape:connector-curvature="0" />
            </g>
            <g
               transform="translate(9,15.5)"
               id="g69">
              <path
                 id="path71"
                 style="fill:#292f33;fill-opacity:1;fill-rule:nonzero;stroke:none"
                 d="M 0,0 C 0,-0.828 -0.671,-1.5 -1.5,-1.5 -2.329,-1.5 -3,-0.828 -3,0 -3,0.828 -2.329,1.5 -1.5,1.5 -0.671,1.5 0,0.828 0,0"
                 inkscape:connector-curvature="0" />
            </g>
          </g>
        </g>
      </g>
    </g>
    <g
       transform="matrix(0.2419219,0.97029573,-0.97029573,0.2419219,106.61842,25.007652)"
       id="g73">
      <g
         transform="matrix(1.25,0,0,-1.25,0,47.5)"
         id="g75">
        <g
           id="g77">
          <g
             clip-path="url(#clipPath16)"
             id="g79">
            <g
               transform="translate(6,32)"
               id="g81">
              <path
                 id="path83"
                 style="fill:#ffac33;fill-opacity:1;fill-rule:nonzero;stroke:none"
                 d="M 0,0 6,0 C 7.104,0 8,0.104 8,-1 L 8,1 C 8,2.104 7.104,3 6,3 l -8,0 c -2,0 -3.583,-2.125 -3,-5 0,0 1.791,-9.375 1.917,-9.958 C -2.75,-13.5 -0.958,-15 0.958,-15 l 6.959,0 C 9.021,-15 8,-13.104 8,-12 l 0,2 c 0,-1.104 -0.896,-2 -2,-2 l -4,0 c -1.104,0 -1.833,1.042 -2,2 -0.167,0.958 -1.583,7.333 -1.583,7.333 C -1.917,-0.75 -1.104,0 0,0"
                 inkscape:connector-curvature="0" />
            </g>
            <g
               transform="translate(31.8125,32)"
               id="g85">
              <path
                 id="path87"
                 style="fill:#ffac33;fill-opacity:1;fill-rule:nonzero;stroke:none"
                 d="m 0,0 -6,0 c -1.104,0 -2.813,0.104 -2.813,-1 l 0,2 c 0,1.104 1.709,2 2.813,2 l 8,0 c 2,0 3.584,-2.125 3,-5 0,0 -1.633,-9.419 -1.771,-10 -0.354,-1.5 -2.042,-3 -4,-3 l -7.145,0 c -1.105,0 -0.897,1.896 -0.897,3 l 0,2 c 0,-1.104 1.709,-2 2.813,-2 l 4,0 c 1.104,0 1.834,1.042 2,2 0.166,0.958 1.584,7.333 1.584,7.333 C 1.916,-0.75 1.104,0 0,0"
                 inkscape:connector-curvature="0" />
            </g>
            <g
               transform="translate(21.709,15)"
               id="g89">
              <path
                 id="path91"
                 style="fill:#ffac33;fill-opacity:1;fill-rule:nonzero;stroke:none"
                 d="m 0,0 c 0,6.958 -2.709,0 -2.709,0 0,0 -3,6.958 -3,0 C -5.709,-6.958 -9,-10 -9,-10 l 6.291,0 6,0 C 3.291,-10 0,-6.958 0,0"
                 inkscape:connector-curvature="0" />
            </g>
            <g
               transform="translate(30,30.4233)"
               id="g93">
              <path
                 id="path95"
                 style="fill:#ffcc4d;fill-opacity:1;fill-rule:nonzero;stroke:none"
                 d="m 0,0 c 0,-6.775 -6.77,-18.192 -11,-18.192 -4.231,0 -11,11.417 -11,18.192 0,5.195 1,6.319 3,6.319 1.374,0 6.025,0.027 8,0.027 1.391,0 5.914,0.002 7,0.002 2.917,0 4,-0.685 4,-6.348"
                 inkscape:connector-curvature="0" />
            </g>
            <g
               transform="translate(28,4)"
               id="g97">
              <path
                 id="path99"
                 style="fill:#c1694f;fill-opacity:1;fill-rule:nonzero;stroke:none"
                 d="m 0,0 c 0,-1.104 0.104,-2 -1,-2 l -16,0 c -1.104,0 -1,0.896 -1,2 l 0,1 c 0,1.104 1.042,2 2.083,2 L -2,3 C -0.958,3 0,2.104 0,1 L 0,0 Z"
                 inkscape:connector-curvature="0" />
            </g>
            <g
               transform="translate(30,2.375)"
               id="g101">
              <path
                 id="path103"
                 style="fill:#c1694f;fill-opacity:1;fill-rule:nonzero;stroke:none"
                 d="m 0,0 c 0,-0.76 0.042,-1.375 -1.375,-1.375 l -19.25,0 C -21.917,-1.375 -22,-0.76 -22,0 l 0,0.25 c 0,0.76 0.616,1.375 1.375,1.375 l 19.25,0 C -0.615,1.625 0,1.01 0,0.25 L 0,0 Z"
                 inkscape:connector-curvature="0" />
            </g>
          </g>
        </g>
      </g>
    </g>
    <g
       transform="matrix(-0.87326615,0.21772971,-0.21772971,-0.87326615,66.574559,119.10328)"
       id="g105">
      <g
         transform="matrix(1.25,0,0,-1.25,0,45)"
         id="g107">
        <g
           id="g109">
          <g
             clip-path="url(#clipPath16)"
             id="g111">
            <g
               transform="translate(5.001,8)"
               id="g113">
              <path
                 id="path115"
                 style="fill:#f7dece;fill-opacity:1;fill-rule:nonzero;stroke:none"
                 d="m 0,0 c -0.367,0 -0.72,0.202 -0.896,0.553 -0.247,0.494 -0.046,1.094 0.448,1.342 l 5.544,2.772 0.917,5.498 c 0.091,0.543 0.605,0.912 1.151,0.821 0.544,-0.09 0.912,-0.606 0.821,-1.151 l -1,-5.999 C 6.933,3.521 6.732,3.249 6.446,3.105 l -6,-3 C 0.303,0.034 0.15,0 0,0"
                 inkscape:connector-curvature="0" />
            </g>
            <g
               transform="translate(30.999,8)"
               id="g117">
              <path
                 id="path119"
                 style="fill:#f7dece;fill-opacity:1;fill-rule:nonzero;stroke:none"
                 d="m 0,0 c -0.15,0 -0.303,0.034 -0.446,0.105 l -6,3 c -0.286,0.144 -0.487,0.416 -0.539,0.731 l -1,5.999 c -0.091,0.545 0.277,1.061 0.822,1.151 0.543,0.091 1.06,-0.277 1.15,-0.821 L -5.097,4.667 0.448,1.895 C 0.942,1.647 1.143,1.047 0.896,0.553 0.72,0.202 0.367,0 0,0"
                 inkscape:connector-curvature="0" />
            </g>
            <g
               transform="translate(23,4.25)"
               id="g121">
              <path
                 id="path123"
                 style="fill:#4289c1;fill-opacity:1;fill-rule:nonzero;stroke:none"
                 d="m 0,0 c 0,0 0,-1.25 -5,-1.25 -5,0 -5,1.25 -5,1.25 l 0,5.5 10,0 L 0,0 Z"
                 inkscape:connector-curvature="0" />
            </g>
            <g
               transform="translate(18.9997,36)"
               id="g125">
              <path
                 id="path127"
                 style="fill:#292f33;fill-opacity:1;fill-rule:nonzero;stroke:none"
                 d="M 0,0 C -1.264,0 -2.435,-0.393 -3.402,-1.061 -3.598,-1.031 -3.795,-1 -4,-1 -6.208,-1 -8,-2.791 -8,-5 l 0,-4 c 0,-3.866 3.134,-7 7,-7 3.867,0 7,3.134 7,7 l 0,2.999 C 6,-2.686 3.314,0 0,0"
                 inkscape:connector-curvature="0" />
            </g>
            <g
               transform="translate(23,21)"
               id="g129">
              <path
                 id="path131"
                 style="fill:#9268ca;fill-opacity:1;fill-rule:nonzero;stroke:none"
                 d="m 0,0 -3,0 -2,0 -2,0 -3,0 c -2.563,0 -2.458,-4 -2.458,-4 l 2.458,0 0,-9 5,0 5,0 0,9 2.458,0 c 0,0 0.105,4 -2.458,4"
                 inkscape:connector-curvature="0" />
            </g>
            <g
               transform="translate(16.0002,25)"
               id="g133">
              <path
                 id="path135"
                 style="fill:#f7dece;fill-opacity:1;fill-rule:nonzero;stroke:none"
                 d="m 0,0 0,-4 c 0,-1.104 0.896,-2 2,-2 1.105,0 2,0.896 2,2 L 4,0 0,0 Z"
                 inkscape:connector-curvature="0" />
            </g>
            <g
               transform="translate(16.0002,33)"
               id="g137">
              <path
                 id="path139"
                 style="fill:#f7dece;fill-opacity:1;fill-rule:nonzero;stroke:none"
                 d="M 0,0 0,0 C 0,0 -0.011,-3.285 -3,-3.894 L -3,-6 l 0,0 c 0,-2.763 2.238,-5 4.999,-5 C 4.761,-11 7,-8.763 7,-6 l 0,0 0,2.032 C 0.019,-3.644 0,0 0,0"
                 inkscape:connector-curvature="0" />
            </g>
            <g
               transform="translate(20.0002,24)"
               id="g141">
              <path
                 id="path143"
                 style="fill:#df1f32;fill-opacity:1;fill-rule:nonzero;stroke:none"
                 d="m 0,0 -2,0 -2,0 c 0,0 0,-1 2,-1 2,0 2,1 2,1"
                 inkscape:connector-curvature="0" />
            </g>
            <g
               transform="translate(16.0002,27.5)"
               id="g145">
              <path
                 id="path147"
                 style="fill:#662113;fill-opacity:1;fill-rule:nonzero;stroke:none"
                 d="M 0,0 C 0,-0.276 -0.224,-0.5 -0.5,-0.5 -0.776,-0.5 -1,-0.276 -1,0 -1,0.276 -0.776,0.5 -0.5,0.5 -0.224,0.5 0,0.276 0,0"
                 inkscape:connector-curvature="0" />
            </g>
            <g
               transform="translate(21.0002,27.5)"
               id="g149">
              <path
                 id="path151"
                 style="fill:#662113;fill-opacity:1;fill-rule:nonzero;stroke:none"
                 d="M 0,0 C 0,-0.276 -0.224,-0.5 -0.5,-0.5 -0.776,-0.5 -1,-0.276 -1,0 -1,0.276 -0.776,0.5 -0.5,0.5 -0.224,0.5 0,0.276 0,0"
                 inkscape:connector-curvature="0" />
            </g>
            <g
               transform="translate(17.0002,26)"
               id="g153">
              <path
                 id="path155"
                 style="fill:#c1694f;fill-opacity:1;fill-rule:nonzero;stroke:none"
                 d="M 0,0 1,0 2,0 C 2,0 2,-1 1,-1 0,-1 0,0 0,0"
                 inkscape:connector-curvature="0" />
            </g>
            <g
               transform="translate(8.4173,1.444)"
               id="g157">
              <path
                 id="path159"
                 style="fill:#f7dece;fill-opacity:1;fill-rule:nonzero;stroke:none"
                 d="m 0,0 c 0.308,-0.769 1.181,-1.142 1.95,-0.834 l 12.395,3.803 c 0,0 3.49,-0.701 3.351,1.294 C 17.589,5.783 15.11,6.508 13.229,5.754 11.348,5 0.834,1.95 0.834,1.95 0.065,1.642 -0.308,0.769 0,0"
                 inkscape:connector-curvature="0" />
            </g>
            <g
               transform="translate(25.7557,5.3924)"
               id="g161">
              <path
                 id="path163"
                 style="fill:#eec2ad;fill-opacity:1;fill-rule:nonzero;stroke:none"
                 d="m 0,0 c -0.212,0.689 -2.021,0.422 -2.456,0.303 -0.435,-0.12 -12.469,-3.845 -13.453,-4.16 -0.924,-0.296 -0.364,-1.06 0.087,-1.027 0.033,0.009 0.067,0.01 0.099,0.021 l 11.768,3.586 c 0.877,0.274 1.884,0.166 2.719,0.244 0.395,0.037 0.802,0.166 0.876,0.202 C -0.193,-0.755 0.151,-0.491 0,0"
                 inkscape:connector-curvature="0" />
            </g>
            <g
               transform="translate(27.5827,1.444)"
               id="g165">
              <path
                 id="path167"
                 style="fill:#f7dece;fill-opacity:1;fill-rule:nonzero;stroke:none"
                 d="m 0,0 c -0.308,-0.769 -1.181,-1.142 -1.95,-0.834 l -12.395,3.803 c 0,0 -3.49,-0.701 -3.351,1.294 0.107,1.52 2.586,2.245 4.467,1.491 C -11.348,5 -0.834,1.95 -0.834,1.95 -0.065,1.642 0.308,0.769 0,0"
                 inkscape:connector-curvature="0" />
            </g>
            <g
               transform="translate(10.2443,5.3924)"
               id="g169">
              <path
                 id="path171"
                 style="fill:#eec2ad;fill-opacity:1;fill-rule:nonzero;stroke:none"
                 d="m 0,0 c 0.212,0.689 2.021,0.422 2.456,0.303 0.435,-0.12 12.469,-3.845 13.453,-4.16 0.924,-0.296 0.364,-1.06 -0.087,-1.027 -0.033,0.009 -0.067,0.01 -0.099,0.021 L 3.955,-1.277 C 3.078,-1.003 2.071,-1.111 1.236,-1.033 0.841,-0.996 0.434,-0.867 0.36,-0.831 0.193,-0.755 -0.151,-0.491 0,0"
                 inkscape:connector-curvature="0" />
            </g>
          </g>
        </g>
      </g>
    </g>
    <g
       transform="matrix(0.84772792,0.18019013,-0.18019013,0.84772792,25.978632,44.310247)"
       id="g173">
      <g
         transform="matrix(1.25,0,0,-1.25,0,45)"
         id="g175">
        <g
           id="g177">
          <g
             clip-path="url(#clipPath16)"
             id="g179">
            <g
               transform="translate(33.2031,22.6992)"
               id="g181">
              <path
                 id="path183"
                 style="fill:#e1e8ed;fill-opacity:1;fill-rule:nonzero;stroke:none"
                 d="m 0,0 -21.213,-21.214 -10.607,10.607 21.214,21.213 c 1.952,1.953 5.91,1.161 8.838,-1.768 C 1.161,5.909 1.952,1.952 0,0"
                 inkscape:connector-curvature="0" />
            </g>
          </g>
        </g>
        <g
           id="g185">
          <g
             clip-path="url(#clipPath28)"
             id="g26">
            <g
               transform="translate(1.3828,12.0918)"
               id="g188">
              <path
                 id="path190"
                 style="fill:#99aab5;fill-opacity:1;fill-rule:nonzero;stroke:none"
                 d="M 0,0 24.749,24.749 30.305,19.193 5.556,-5.556 0,0 Z"
                 inkscape:connector-curvature="0" />
            </g>
          </g>
        </g>
        <g
           id="g192">
          <g
             clip-path="url(#clipPath40)"
             id="g38">
            <g
               transform="translate(10.2217,10.3242)"
               id="g195">
              <path
                 id="path197"
                 style="fill:#66757f;fill-opacity:1;fill-rule:nonzero;stroke:none"
                 d="M 0,0 C -2.928,2.929 -6.886,3.721 -8.839,1.768 -10.792,-0.186 -10,-4.143 -7.071,-7.07 -4.142,-10 -0.185,-10.791 1.768,-8.839 3.721,-6.886 2.929,-2.93 0,0"
                 inkscape:connector-curvature="0" />
            </g>
            <g
               transform="translate(31.6797,31.2764)"
               id="g199">
              <path
                 id="path201"
                 style="fill:#ccd6dd;fill-opacity:1;fill-rule:nonzero;stroke:none"
                 d="M 0,0 C 2.722,-2.898 3.419,-6.682 1.523,-8.577 L -19.69,-29.791 c 1.953,1.953 1.161,5.909 -1.768,8.839 l -3.889,3.889 L -4.134,4.15 0.008,0.009 0,0 Z"
                 inkscape:connector-curvature="0" />
            </g>
            <g
               transform="translate(33.0938,32.6904)"
               id="g203">
              <path
                 id="path205"
                 style="fill:#e1e8ed;fill-opacity:1;fill-rule:nonzero;stroke:none"
                 d="M 0,0 C 2.722,-2.898 3.42,-6.682 1.523,-8.577 L -19.69,-29.79 c 1.953,1.952 1.162,5.909 -1.768,8.838 l -2.475,2.475 L -2.72,2.736 0.008,0.009 0,0 Z"
                 inkscape:connector-curvature="0" />
            </g>
            <g
               transform="translate(2.2104,10.9971)"
               id="g207">
              <path
                 id="path209"
                 style="fill:#99aab5;fill-opacity:1;fill-rule:nonzero;stroke:none"
                 d="m 0,0 c -1.402,-1.401 -0.838,-4.371 1.281,-6.759 1.916,-2.158 4.948,-4.008 7.187,-2.123 0.761,0.633 1.163,1.608 1.146,2.735 -0.028,1.974 -1.298,4.193 -3.313,5.79 -0.324,0.258 -0.788,0.2 -1.054,-0.121 C 4.99,-0.803 5.044,-1.274 5.369,-1.531 7.015,-2.836 8.093,-4.657 8.114,-6.169 8.121,-6.643 8.02,-7.299 7.502,-7.735 c -1.513,-1.274 -3.917,0.64 -5.099,1.97 -1.675,1.888 -2.052,3.994 -1.342,4.704 0.183,0.184 0.411,0.232 0.695,0.148 0.877,-0.262 2,-1.662 2.534,-4.205 0.085,-0.406 0.483,-0.666 0.888,-0.581 0.405,0.086 0.665,0.483 0.579,0.888 C 5.168,-2.001 3.799,0.042 2.185,0.524 1.371,0.767 0.576,0.575 0,0"
                 inkscape:connector-curvature="0" />
            </g>
            <g
               transform="translate(28.4316,31.7139)"
               id="g211">
              <path
                 id="path213"
                 style="fill:#99aab5;fill-opacity:1;fill-rule:nonzero;stroke:none"
                 d="M 0,0 C -0.02,-0.019 -0.038,-0.038 -0.055,-0.06 -0.315,-0.382 -0.264,-0.854 0.058,-1.114 0.089,-1.139 3.157,-3.653 3.314,-6.931 3.335,-7.344 3.688,-7.663 4.1,-7.643 4.515,-7.622 4.833,-7.27 4.814,-6.857 4.623,-2.897 1.146,-0.063 0.997,0.055 0.696,0.297 0.267,0.268 0,0"
                 inkscape:connector-curvature="0" />
            </g>
            <g
               transform="translate(26.3096,29.5928)"
               id="g215">
              <path
                 id="path217"
                 style="fill:#99aab5;fill-opacity:1;fill-rule:nonzero;stroke:none"
                 d="M 0,0 C -0.019,-0.019 -0.037,-0.038 -0.055,-0.06 -0.314,-0.382 -0.263,-0.854 0.059,-1.114 0.09,-1.139 3.158,-3.653 3.315,-6.931 3.336,-7.345 3.688,-7.663 4.101,-7.643 4.515,-7.622 4.833,-7.271 4.814,-6.857 4.623,-2.898 1.146,-0.064 0.998,0.055 0.697,0.297 0.268,0.268 0,0"
                 inkscape:connector-curvature="0" />
            </g>
            <g
               transform="translate(17.8242,21.1074)"
               id="g219">
              <path
                 id="path221"
                 style="fill:#99aab5;fill-opacity:1;fill-rule:nonzero;stroke:none"
                 d="m 0,0 c -0.019,-0.019 -0.037,-0.038 -0.054,-0.06 -0.26,-0.322 -0.209,-0.794 0.113,-1.054 0.031,-0.025 3.099,-2.539 3.256,-5.817 0.021,-0.413 0.373,-0.732 0.786,-0.712 0.414,0.022 0.732,0.372 0.713,0.786 C 4.623,-2.898 1.146,-0.064 0.998,0.055 0.697,0.297 0.268,0.268 0,0"
                 inkscape:connector-curvature="0" />
            </g>
            <g
               transform="translate(12.875,16.1582)"
               id="g223">
              <path
                 id="path225"
                 style="fill:#99aab5;fill-opacity:1;fill-rule:nonzero;stroke:none"
                 d="m 0,0 c -0.019,-0.02 -0.038,-0.039 -0.055,-0.061 -0.26,-0.322 -0.208,-0.794 0.113,-1.054 0.032,-0.025 3.1,-2.539 3.257,-5.817 0.02,-0.413 0.373,-0.732 0.786,-0.711 0.414,0.02 0.732,0.372 0.713,0.786 C 4.623,-2.898 1.146,-0.064 0.998,0.055 0.697,0.296 0.267,0.268 0,0"
                 inkscape:connector-curvature="0" />
            </g>
            <g
               transform="translate(24.7754,16.4609)"
               id="g227">
              <path
                 id="path229"
                 style="fill:#5dadec;fill-opacity:1;fill-rule:nonzero;stroke:none"
                 d="M 0,0 C 1.296,1.348 3.49,3.383 3.756,3.661 4.369,4.303 2.215,9.133 0.454,10.515 0.068,10.817 -0.405,10.572 -0.608,10.364 -2.104,8.833 -3.291,7.645 -4.285,6.656 -4.517,6.426 -4.65,6.005 -4.324,5.704 -3.257,4.72 -1.338,2.28 -0.796,0.041 -0.732,-0.219 -0.269,-0.281 0,0"
                 inkscape:connector-curvature="0" />
            </g>
          </g>
        </g>
      </g>
    </g>
    <g
       transform="matrix(-0.63890841,0.48145202,-0.48145202,-0.63890841,151.00676,153.34549)"
       id="g231">
      <g
         transform="matrix(1.25,0,0,-1.25,0,45)"
         id="g233">
        <g
           id="g235">
          <g
             clip-path="url(#clipPath16)"
             id="g237">
            <g
               transform="translate(33,15)"
               id="g239">
              <path
                 id="path241"
                 style="fill:#ffcc4d;fill-opacity:1;fill-rule:nonzero;stroke:none"
                 d="m 0,0 c 0,-8.284 -6.716,-15 -15,-15 -8.284,0 -15,6.716 -15,15 0,8.284 6.716,15 15,15 C -6.716,15 0,8.284 0,0"
                 inkscape:connector-curvature="0" />
            </g>
            <g
               transform="translate(25.6875,10.3945)"
               id="g243">
              <path
                 id="path245"
                 style="fill:#664500;fill-opacity:1;fill-rule:nonzero;stroke:none"
                 d="M 0,0 C -0.146,0.133 -0.366,0.141 -0.522,0.023 -0.555,0 -3.752,-2.365 -7.687,-2.365 c -3.925,0 -7.134,2.365 -7.165,2.388 -0.158,0.118 -0.377,0.108 -0.523,-0.023 -0.146,-0.132 -0.179,-0.35 -0.077,-0.518 0.105,-0.176 2.649,-4.317 7.765,-4.317 5.115,0 7.659,4.141 7.764,4.317 C 0.179,-0.349 0.146,-0.132 0,0"
                 inkscape:connector-curvature="0" />
            </g>
            <g
               transform="translate(14.7061,16.2354)"
               id="g247">
              <path
                 id="path249"
                 style="fill:#664500;fill-opacity:1;fill-rule:nonzero;stroke:none"
                 d="m 0,0 c 0,-1.593 -0.922,-2.883 -2.059,-2.883 -1.137,0 -2.059,1.29 -2.059,2.883 0,1.591 0.922,2.882 2.059,2.882 C -0.922,2.882 0,1.591 0,0"
                 inkscape:connector-curvature="0" />
            </g>
            <g
               transform="translate(25.4121,16.2354)"
               id="g251">
              <path
                 id="path253"
                 style="fill:#664500;fill-opacity:1;fill-rule:nonzero;stroke:none"
                 d="m 0,0 c 0,-1.593 -0.922,-2.883 -2.06,-2.883 -1.136,0 -2.058,1.29 -2.058,2.883 0,1.591 0.922,2.882 2.058,2.882 C -0.922,2.882 0,1.591 0,0"
                 inkscape:connector-curvature="0" />
            </g>
            <g
               transform="translate(32,29.8701)"
               id="g255">
              <path
                 id="path257"
                 style="fill:#664500;fill-opacity:1;fill-rule:nonzero;stroke:none"
                 d="M 0,0 C -1.19,-1.441 -3.182,-1.951 -5.076,-2.121 -5.394,-0.583 -6.759,5.13 -9.5,5.13 c -2.403,0 -3.269,-1.091 -4.5,-1.091 l 0,0 c -1.231,0 -2.097,1.091 -4.5,1.091 -2.741,0 -4.106,-5.713 -4.424,-7.251 -1.894,0.17 -3.886,0.68 -5.076,2.121 -2.153,2.606 -5,0.686 -3.558,-2.174 2.278,-4.517 7.788,-7.696 17.558,-7.696 9.769,0 15.279,3.179 17.558,7.696 C 5,0.686 2.153,2.606 0,0"
                 inkscape:connector-curvature="0" />
            </g>
            <g
               transform="translate(21.5,33)"
               id="g259">
              <path
                 id="path261"
                 style="fill:#825d0e;fill-opacity:1;fill-rule:nonzero;stroke:none"
                 d="m 0,0 c -1.869,0 -2.543,-0.964 -3.499,-0.964 l -0.002,0 C -4.457,-0.964 -5.131,0 -7,0 c -2.463,0 -3.5,-6.75 -3.5,-6.75 0,0 1.282,-2.25 7,-2.25 5.719,0 7,2.25 7,2.25 C 3.5,-6.75 2.463,0 0,0"
                 inkscape:connector-curvature="0" />
            </g>
            <g
               transform="translate(11,30)"
               id="g263">
              <path
                 id="path265"
                 style="fill:#664500;fill-opacity:1;fill-rule:nonzero;stroke:none"
                 d="m 0,0 c 0,0 2.074,-2 7,-2 4.927,0 7,2 7,2 l 0,-2 c 0,0 -2.222,-2 -7,-2 -4.778,0 -7,2 -7,2 l 0,2 z"
                 inkscape:connector-curvature="0" />
            </g>
          </g>
        </g>
      </g>
    </g>
    <g
       transform="matrix(0.31666667,-0.54848276,0.54848276,0.31666667,33.496372,139.69833)"
       id="g267">
      <g
         transform="matrix(1.25,0,0,-1.25,0,47.5)"
         id="g269">
        <g
           id="g271">
          <g
             clip-path="url(#clipPath16)"
             id="g273">
            <g
               transform="translate(35.5391,5.5117)"
               id="g275">
              <path
                 id="path277"
                 style="fill:#292f33;fill-opacity:1;fill-rule:nonzero;stroke:none"
                 d="m 0,0 c 0,0 1.18,-0.215 1.18,-1.256 0,-1.043 -1.042,-1.256 -2.084,-1.256 l -17.72,0 c -2.084,0 -2.084,3.34 -5.212,9.594 -3.127,6.255 -6.253,2.001 -6.253,2.001 l -1.042,-12.595 -2.408,0 0,13.936 c 0,2.084 -0.881,4.285 -0.881,5.211 0,2.084 0.672,4.395 0.672,4.395 L -27.002,17.719 0,0 Z"
                 inkscape:connector-curvature="0" />
            </g>
            <g
               transform="translate(2.668,23.7192)"
               id="g279">
              <path
                 id="path281"
                 style="fill:#9266cc;fill-opacity:1;fill-rule:nonzero;stroke:none"
                 d="m 0,0 c 3.036,-0.732 10.291,-3.88 13.969,-17.379 0,0 0,-1.34 2.363,-1.34 l 16.539,0 c 0,0 1.18,0.257 1.18,2.424 0,1.084 -5.907,3.38 -8.27,4.464 -2.361,1.084 -4.445,4.317 -4.445,4.317 0,0 -4.17,-1.635 -11.258,5.952 C 2.99,6.025 5.7,8.876 3.337,8.876 2.852,8.876 -0.401,5.569 -1.207,1.838 -1.322,1.305 -0.864,0.208 0,0"
                 inkscape:connector-curvature="0" />
            </g>
          </g>
        </g>
      </g>
    </g>
    <g
       transform="matrix(0.74659356,0.21408226,-0.21408226,0.74659356,108.37319,81.293117)"
       id="g283">
      <g
         transform="matrix(1.25,0,0,-1.25,0,45)"
         id="g285">
        <g
           id="g287">
          <g
             clip-path="url(#clipPath16)"
             id="g289">
            <g
               transform="translate(25,18.875)"
               id="g291">
              <path
                 id="path293"
                 style="fill:#ef9645;fill-opacity:1;fill-rule:nonzero;stroke:none"
                 d="m 0,0 -8,-0.021 c -1.104,0 -1.875,-0.75 -1.875,-1.854 0,-1.104 0.771,-1.854 1.875,-1.854 l 5.266,-0.021 c 0,0 0.88,0.104 0.88,-0.625 C -1.854,-4.651 -2.224,-5 -2.5,-5 -2.5,-5 -7,-4.792 -7.375,-11.875 -7.39,-12.151 -7.724,-12.5 -8,-12.5 c -0.276,0 -0.625,0.349 -0.625,0.625 0,3.01 1.396,5.938 2.867,6.824 -0.91,0 -1.711,0.051 -2.242,0.051 -1,0 -1.438,0.334 -1.438,0.333 -0.146,-0.231 -0.562,-1.27 -2.687,-1.27 -2.375,0 -3.021,2.362 -3.021,3.02 l 0,5.021 0.146,0.021 c 0,0.811 0.485,1.507 1.18,1.82 l -0.097,-6.653 c 0,-1.105 0.813,-2.084 1.917,-2.084 0.755,0 1.263,0.341 1.604,0.959 -0.458,0.526 -0.677,1.132 -0.677,1.885 0,0.886 0.318,1.795 0.927,2.344 l 0.042,2.708 0.104,0.021 c 0,0.811 0.485,1.507 1.18,1.82 L -8.875,2.125 -8.896,1.104 c 0.315,0.111 0.564,0.146 0.917,0.146 l 2.875,-0.021 0,2.917 0.104,-0.021 0,9 c 0,0.811 0.485,1.507 1.18,1.82 l -0.034,-13.66 3.646,0 L 0,1.125 c 0.922,0 1.723,-2 1.723,-2 0,0 0.002,-0.013 0.002,-0.015 C 1.481,-0.471 0.968,0 0,0"
                 inkscape:connector-curvature="0" />
            </g>
            <g
               transform="translate(15,19.2217)"
               id="g295">
              <path
                 id="path297"
                 style="fill:#ffdc5d;fill-opacity:1;fill-rule:nonzero;stroke:none"
                 d="m 0,0 c -0.609,-0.549 -1,-1.336 -1,-2.222 0,-0.753 0.287,-1.432 0.745,-1.959 -0.341,-0.617 -0.99,-1.041 -1.745,-1.041 -1.104,0 -2,0.896 -2,2 l 0,6 c 0,0.293 0.067,0.57 0.18,0.82 0.313,0.695 1.009,1.18 1.82,1.18 1.104,0 2,-0.895 2,-2 l 0,-1 L 0,0 Z"
                 inkscape:connector-curvature="0" />
            </g>
            <g
               transform="translate(6,30)"
               id="g299">
              <path
                 id="path301"
                 style="fill:#ffdc5d;fill-opacity:1;fill-rule:nonzero;stroke:none"
                 d="M 0,0 C 0,1.104 0.896,2 2,2 3.104,2 4,1.104 4,0 l 0,-9 0,-2 0,-3 c 0,-0.658 0.217,-1.262 0.578,-1.753 0.028,-0.037 0.061,-0.068 0.089,-0.102 0.104,-0.129 0.21,-0.255 0.332,-0.366 0.033,-0.027 0.066,-0.054 0.1,-0.082 0.119,-0.098 0.243,-0.188 0.377,-0.268 0.066,-0.039 0.131,-0.075 0.201,-0.109 0.139,-0.069 0.285,-0.125 0.435,-0.172 0.068,-0.02 0.131,-0.045 0.2,-0.061 C 6.534,-16.966 6.763,-17 7,-17 c 0.236,0 0.461,0.036 0.681,0.089 0.076,0.017 0.148,0.042 0.222,0.066 0.137,0.044 0.269,0.099 0.396,0.161 0.082,0.04 0.163,0.077 0.24,0.124 0.164,0.1 0.318,0.213 0.46,0.341 0.202,0.184 0.384,0.387 0.53,0.618 -10e-4,0.001 -0.002,0.002 -0.003,0.003 C 9.727,-15.713 10,-16 11,-16 l 2.537,0 c -1.808,-1.365 -3.037,-3.99 -3.037,-7 0,-0.276 0.224,-0.5 0.5,-0.5 0.276,0 0.5,0.224 0.5,0.5 0,3.859 2.187,7 4.875,7 l 0.125,0 c 0.276,0 0.5,0.224 0.5,0.5 0,0.276 -0.224,0.5 -0.5,0.5 l -1.5,0 -4,0 c -1.104,0 -2,0.896 -2,2 0,1.104 0.896,2 2,2 l 8,0 c 0.968,0 1.481,-0.596 1.725,-1.015 0.126,-0.216 0.185,-0.389 0.188,-0.4 L 22,-16 c 0.103,-0.335 0.479,-1.871 0.411,-2.191 C 22.411,-23 17.715,-28 12,-28 5.463,-28 0,-22.75 0,-16 0.008,-16.007 0,0 0,0"
                 inkscape:connector-curvature="0" />
            </g>
            <g
               transform="translate(20,20)"
               id="g303">
              <path
                 id="path305"
                 style="fill:#ffdc5d;fill-opacity:1;fill-rule:nonzero;stroke:none"
                 d="M 0,0 -3,0 C -3.352,0 -3.685,-0.072 -4,-0.184 L -4,1 -4,3 c 0,0.293 0.067,0.569 0.18,0.82 C -3.507,4.515 -2.811,5 -2,5 -0.896,5 0,4.104 0,3 L 0,1 0,0 Z"
                 inkscape:connector-curvature="0" />
            </g>
            <g
               transform="translate(21,20)"
               id="g307">
              <path
                 id="path309"
                 style="fill:#ffdc5d;fill-opacity:1;fill-rule:nonzero;stroke:none"
                 d="m 0,0 0,13 c 0,0.293 0.067,0.569 0.18,0.82 C 0.493,14.515 1.189,15 2,15 3.104,15 4,14.104 4,13 L 4,1 4,0 3,0 0,0 Z"
                 inkscape:connector-curvature="0" />
            </g>
          </g>
        </g>
      </g>
    </g>
    <g
       transform="matrix(-0.36939689,-0.47280645,0.47280645,-0.36939689,75.42233,179.24222)"
       id="g311">
      <g
         transform="matrix(1.25,0,0,-1.25,0,47.5)"
         id="g313">
        <g
           id="g315">
          <g
             clip-path="url(#clipPath16)"
             id="g317">
            <g
               transform="translate(10,21.4395)"
               id="g319">
              <path
                 id="path321"
                 style="fill:#9266cc;fill-opacity:1;fill-rule:nonzero;stroke:none"
                 d="M 0,0 C 0,4 2,8 0,10 -2,12 -3,8 -2,8 -0.586,8 0,6 -1,3 -2,0 0,-1 0,0"
                 inkscape:connector-curvature="0" />
            </g>
            <g
               transform="translate(6.125,21.4395)"
               id="g323">
              <path
                 id="path325"
                 style="fill:#9266cc;fill-opacity:1;fill-rule:nonzero;stroke:none"
                 d="M 0,0 C 0,4 2,8 0,10 -2,12 -3,8 -2,8 -0.586,8 0,6 -1,3 -2,0 0,-1 0,0"
                 inkscape:connector-curvature="0" />
            </g>
            <g
               transform="translate(37,2.0645)"
               id="g327">
              <path
                 id="path329"
                 style="fill:#aa8dd8;fill-opacity:1;fill-rule:nonzero;stroke:none"
                 d="m 0,0 c 0,-1 -1,-1 -2,-1 l -23,0 c -5,0 -7.272,3.09 -8,6 -1,4 2,11 0,12 -2,1 -3,1 -3,3 0,2 4.47,5.265 7,4 4,-2 2.767,-6.932 2,-10 -0.88,-3.521 1.115,-3.594 5,-5 C -17.061,7.213 -9.68,4.561 -8,4 -5,3 0,1 0,0"
                 inkscape:connector-curvature="0" />
            </g>
            <g
               transform="translate(11.9248,12.0645)"
               id="g331">
              <path
                 id="path333"
                 style="fill:#ffcc4d;fill-opacity:1;fill-rule:nonzero;stroke:none"
                 d="m 0,0 c 2.887,-1 3.849,-9 13.472,-9 6.377,0 8.66,5.479 8.66,11 0,5.523 -5.17,10 -11.547,10 C 4.208,12 -0.913,0.316 0,0"
                 inkscape:connector-curvature="0" />
            </g>
            <g
               transform="translate(25.9141,3.0625)"
               id="g335">
              <path
                 id="path337"
                 style="fill:#ffac33;fill-opacity:1;fill-rule:nonzero;stroke:none"
                 d="m 0,0 c 1.708,0 3.389,0.48 4.893,1.418 2.184,1.361 3.728,3.527 4.347,6.098 1.531,6.363 -2.206,12.834 -8.329,14.425 -7.392,1.923 -14.919,-2.769 -16.767,-10.455 -0.258,-1.072 0.369,-2.158 1.399,-2.425 1.027,-0.272 2.076,0.382 2.335,1.455 1.334,5.546 6.761,8.93 12.1,7.544 C 4.041,17.004 6.521,12.709 5.506,8.486 5.137,6.953 4.216,5.66 2.912,4.848 1.607,4.035 0.076,3.797 -1.398,4.182 c -1.081,0.279 -1.992,0.98 -2.565,1.972 -0.572,0.994 -0.74,2.159 -0.469,3.282 0.191,0.794 0.668,1.464 1.344,1.886 0.676,0.421 1.527,0.707 2.234,0.345 1.298,-0.665 1.298,-2.665 0.336,-3.665 -0.752,-0.781 1.604,-1.065 2.887,0 1.151,0.955 1.645,2.492 1.069,4.199 -0.582,1.724 -1.805,2.943 -3.358,3.347 -1.762,0.457 -3.59,0.176 -5.148,-0.797 C -6.625,13.78 -7.726,12.236 -8.166,10.404 -8.686,8.246 -8.365,6.006 -7.263,4.098 -6.16,2.188 -4.41,0.84 -2.332,0.301 -1.559,0.1 -0.776,0 0,0"
                 inkscape:connector-curvature="0" />
            </g>
          </g>
        </g>
      </g>
    </g>
    <g
       transform="matrix(-0.89945174,-0.03140955,0.03140955,-0.89945174,159.46548,66.212841)"
       id="g339">
      <g
         transform="matrix(1.25,0,0,-1.25,0,45)"
         id="g341">
        <g
           id="g343">
          <g
             clip-path="url(#clipPath16)"
             id="g345">
            <g
               transform="translate(23.1064,30.0288)"
               id="g347">
              <path
                 id="path349"
                 style="fill:#dd2e44;fill-opacity:1;fill-rule:nonzero;stroke:none"
                 d="m 0,0 c -5.491,5.491 -14.722,6.492 -19.799,1.414 -5.077,-5.077 -4.077,-14.308 1.414,-19.799 3.554,-3.554 7.785,-4.324 11.706,-3.058 l -0.014,-0.013 c 0,0 0.053,0.022 0.13,0.052 0.263,0.088 0.526,0.179 0.787,0.284 0.698,0.239 1.734,0.558 2.942,0.806 1.848,0.38 3.541,-1.606 4.955,-3.021 1.414,-1.414 4.242,-5.657 4.949,-6.364 0.707,-0.707 1.414,0 2.122,0.707 l 0.708,0.707 0.707,0.707 c 0.707,0.708 1.414,1.415 0.707,2.122 -0.707,0.707 -4.951,3.536 -6.365,4.95 -1.414,1.414 -3.4,3.107 -3.02,4.955 0.198,0.965 0.441,1.815 0.653,2.481 C 4.556,-8.849 4.118,-4.119 0,0"
                 inkscape:connector-curvature="0" />
            </g>
            <g
               transform="translate(15.564,8.3447)"
               id="g351">
              <path
                 id="path353"
                 style="fill:#d99e82;fill-opacity:1;fill-rule:nonzero;stroke:none"
                 d="M 0,0 C 0.289,0.07 0.578,0.148 0.864,0.241 L 0.849,0.229 c 0,0 0.053,0.021 0.13,0.051 0.264,0.088 0.527,0.179 0.788,0.284 0.697,0.239 1.734,0.558 2.942,0.806 1.847,0.38 3.541,-1.606 4.955,-3.02 1.414,-1.414 4.242,-5.658 4.949,-6.365 0.707,-0.707 1.414,0 2.122,0.707 l 0.707,0.707 0.707,0.708 c 0.707,0.707 1.414,1.414 0.707,2.122 -0.707,0.707 -4.95,3.535 -6.364,4.949 -1.414,1.414 -3.401,3.107 -3.021,4.955 0.198,0.965 0.442,1.815 0.654,2.481 0.357,0.764 0.632,1.543 0.824,2.334 L 0,0 Z"
                 inkscape:connector-curvature="0" />
            </g>
            <g
               transform="translate(33.7129,2.4512)"
               id="g355">
              <path
                 id="path357"
                 style="fill:#ffcc4d;fill-opacity:1;fill-rule:nonzero;stroke:none"
                 d="m 0,0 -1.414,-1.414 -12.022,12.021 1.415,1.414 L 0,0 Z"
                 inkscape:connector-curvature="0" />
            </g>
          </g>
        </g>
      </g>
    </g>
    <g
       transform="matrix(-0.29088577,-0.52477182,0.52477182,-0.29088577,153.90894,141.70136)"
       id="g363">
      <g
         transform="matrix(1.25,0,0,-1.25,0,45)"
         id="g365">
        <g
           id="g367">
          <g
             clip-path="url(#clipPath16)"
             id="g369">
            <g
               transform="translate(21.2793,31.7202)"
               id="g371">
              <path
                 id="path373"
                 style="fill:#c1694f;fill-opacity:1;fill-rule:nonzero;stroke:none"
                 d="m 0,0 c -8.999,0 -10.5,-1.5 -13,-4 -2.5,-2.5 -4,-4 -4,-13 0,-11.18 -2,-14 -1,-14 1,0 3,2 3,4 0,2 -1.999,13 5.001,20 L -10,-7 c 7,7 18,5 20,5 2,0 4,2 4,3 C 14,2 11.181,0 0,0"
                 inkscape:connector-curvature="0" />
            </g>
            <g
               transform="translate(29.5,6.2207)"
               id="g375">
              <path
                 id="path377"
                 style="fill:#d99e82;fill-opacity:1;fill-rule:nonzero;stroke:none"
                 d="m 0,0 c 0,-0.276 -0.224,-0.5 -0.5,-0.5 l -25.22,0 c -0.277,0 -0.5,0.224 -0.5,0.5 0,0.276 0.223,0.5 0.5,0.5 l 25.22,0 C -0.224,0.5 0,0.276 0,0"
                 inkscape:connector-curvature="0" />
            </g>
            <g
               transform="translate(29.7793,6.5)"
               id="g379">
              <path
                 id="path381"
                 style="fill:#d99e82;fill-opacity:1;fill-rule:nonzero;stroke:none"
                 d="m 0,0 c -0.277,0 -0.5,0.225 -0.5,0.5 l 0,25.221 c 0,0.277 0.223,0.5 0.5,0.5 0.275,0 0.5,-0.224 0.5,-0.5 L 0.5,0.5 C 0.5,0.225 0.275,0 0,0"
                 inkscape:connector-curvature="0" />
            </g>
            <g
               transform="translate(0,36)"
               id="g383">
              <path
                 id="path385"
                 style="fill:#99aab5;fill-opacity:1;fill-rule:nonzero;stroke:none"
                 d="M 0,0 2.793,-8.52 4.93,-4.955 8.45,-2.863 0,0 Z"
                 inkscape:connector-curvature="0" />
            </g>
            <g
               transform="translate(26.0869,8.6074)"
               id="g387">
              <path
                 id="path389"
                 style="fill:#dd2e44;fill-opacity:1;fill-rule:nonzero;stroke:none"
                 d="m 0,0 c 0.364,-1.896 0,-3.564 -0.812,-3.719 -0.814,-0.156 -1.77,1.256 -2.133,3.155 C -3.31,1.334 -2.946,3 -2.133,3.156 -1.319,3.313 -0.364,1.898 0,0"
                 inkscape:connector-curvature="0" />
            </g>
            <g
               transform="translate(26.5684,7.5352)"
               id="g391">
              <path
                 id="path393"
                 style="fill:#f4900c;fill-opacity:1;fill-rule:nonzero;stroke:none"
                 d="M 0,0 C 0.365,-1.898 0,-3.564 -0.812,-3.721 -1.626,-3.877 -2.581,-2.463 -2.944,-0.566 -3.31,1.334 -2.945,3 -2.133,3.154 -1.319,3.311 -0.363,1.898 0,0"
                 inkscape:connector-curvature="0" />
            </g>
            <g
               transform="translate(27.958,6.1465)"
               id="g395">
              <path
                 id="path397"
                 style="fill:#a0041e;fill-opacity:1;fill-rule:nonzero;stroke:none"
                 d="m 0,0 c 0.364,-1.898 0,-3.564 -0.812,-3.721 -0.814,-0.156 -1.77,1.256 -2.133,3.155 -0.365,1.898 0,3.564 0.812,3.72 C -1.319,3.311 -0.363,1.898 0,0"
                 inkscape:connector-curvature="0" />
            </g>
            <g
               transform="translate(29.3721,4.7324)"
               id="g399">
              <path
                 id="path401"
                 style="fill:#dd2e44;fill-opacity:1;fill-rule:nonzero;stroke:none"
                 d="m 0,0 c 0.365,-1.898 0,-3.566 -0.812,-3.721 -0.814,-0.156 -1.77,1.256 -2.133,3.155 -0.365,1.898 0,3.564 0.812,3.72 C -1.319,3.311 -0.363,1.896 0,0"
                 inkscape:connector-curvature="0" />
            </g>
            <g
               transform="translate(27.3926,9.9131)"
               id="g403">
              <path
                 id="path405"
                 style="fill:#dd2e44;fill-opacity:1;fill-rule:nonzero;stroke:none"
                 d="M 0,0 C 1.897,-0.364 3.564,0 3.719,0.812 3.875,1.626 2.463,2.582 0.564,2.945 -1.334,3.31 -3,2.946 -3.156,2.133 -3.313,1.319 -1.898,0.364 0,0"
                 inkscape:connector-curvature="0" />
            </g>
            <g
               transform="translate(28.4648,9.4316)"
               id="g407">
              <path
                 id="path409"
                 style="fill:#f4900c;fill-opacity:1;fill-rule:nonzero;stroke:none"
                 d="M 0,0 C 1.898,-0.365 3.564,0 3.721,0.812 3.877,1.626 2.463,2.581 0.566,2.944 -1.334,3.31 -3,2.945 -3.154,2.133 -3.311,1.319 -1.898,0.363 0,0"
                 inkscape:connector-curvature="0" />
            </g>
            <g
               transform="translate(29.8535,8.042)"
               id="g411">
              <path
                 id="path413"
                 style="fill:#a0041e;fill-opacity:1;fill-rule:nonzero;stroke:none"
                 d="M 0,0 C 1.898,-0.364 3.564,0 3.721,0.812 3.877,1.626 2.465,2.582 0.566,2.945 -1.332,3.31 -2.998,2.945 -3.154,2.133 -3.311,1.319 -1.898,0.363 0,0"
                 inkscape:connector-curvature="0" />
            </g>
            <g
               transform="translate(31.2676,6.6279)"
               id="g415">
              <path
                 id="path417"
                 style="fill:#dd2e44;fill-opacity:1;fill-rule:nonzero;stroke:none"
                 d="M 0,0 C 1.898,-0.365 3.566,0 3.721,0.812 3.877,1.626 2.465,2.582 0.566,2.945 -1.332,3.31 -2.998,2.945 -3.154,2.133 -3.311,1.319 -1.896,0.363 0,0"
                 inkscape:connector-curvature="0" />
            </g>
            <g
               transform="translate(30.3848,7)"
               id="g419">
              <path
                 id="path421"
                 style="fill:#ccd6dd;fill-opacity:1;fill-rule:nonzero;stroke:none"
                 d="m 0,0 c 0.382,-0.382 0.382,-1.002 0,-1.385 -0.383,-0.382 -1.003,-0.382 -1.385,0 L -26.249,23.48 c -0.382,0.382 -0.381,1.002 0,1.384 0.382,0.382 1.002,0.382 1.384,0 L 0,0 Z"
                 inkscape:connector-curvature="0" />
            </g>
          </g>
        </g>
      </g>
    </g>
    <g
       transform="matrix(-0.05813039,-0.83130338,0.83130338,-0.05813039,61.60938,117.67045)"
       id="g423">
      <g
         transform="matrix(1.25,0,0,-1.25,0,47.5)"
         id="g425">
        <g
           id="g427">
          <g
             clip-path="url(#clipPath16)"
             id="g429">
            <g
               transform="translate(9,10)"
               id="g431">
              <path
                 id="path433"
                 style="fill:#66757f;fill-opacity:1;fill-rule:nonzero;stroke:none"
                 d="m 0,0 c 0,0 -2,-4 -2,-6 0,-2 4,-3 12,-3 8,0 12,1 12,3 0,2 -2,6 -2,6 L 0,0 Z"
                 inkscape:connector-curvature="0" />
            </g>
            <g
               transform="translate(10,31)"
               id="g435">
              <path
                 id="path437"
                 style="fill:#66757f;fill-opacity:1;fill-rule:nonzero;stroke:none"
                 d="m 0,0 c -3,0 -3,-1 -4,-10 -0.994,-8.945 0,-10 4,-10 2,0 2,20 0,20"
                 inkscape:connector-curvature="0" />
            </g>
            <g
               transform="translate(28,31)"
               id="g439">
              <path
                 id="path441"
                 style="fill:#66757f;fill-opacity:1;fill-rule:nonzero;stroke:none"
                 d="M 0,0 C 3,0 3,-1 4,-10 4.994,-18.945 4,-20 0,-20 -2,-20 -2,0 0,0"
                 inkscape:connector-curvature="0" />
            </g>
            <g
               transform="translate(9,34)"
               id="g443">
              <path
                 id="path445"
                 style="fill:#ccd6dd;fill-opacity:1;fill-rule:nonzero;stroke:none"
                 d="m 0,0 c 0,0 1,3 10,3 9,0 10,-3 10,-3 0,0 1,-6 1,-14 0,-8 -1,-14 -1,-14 0,0 -1,-2 -10,-2 -9,0 -10,2 -10,2 0,0 -1,3 -1,14 0,11 1,14 1,14"
                 inkscape:connector-curvature="0" />
            </g>
            <g
               transform="translate(29,29)"
               id="g447">
              <path
                 id="path449"
                 style="fill:#66757f;fill-opacity:1;fill-rule:nonzero;stroke:none"
                 d="m 0,0 c 0,1 -3,4 -10,4 -7,0 -10,-3 -10,-4 0,-0.807 4.548,-1.612 6.311,-1.894 C -13.001,-4.548 -13,-10 -13,-10 c 0.805,3.218 0.315,7.079 0.093,8.467 C -12.705,-0.942 -12.059,0 -10,0 c 3,0 3,-2 3,-2 l 0.002,0 c -0.234,-1.657 -0.565,-5.089 0.162,-8 0,0 0.002,5.491 0.697,8.134 C -4.273,-1.562 0,-0.782 0,0"
                 inkscape:connector-curvature="0" />
            </g>
            <g
               transform="translate(15,17)"
               id="g451">
              <path
                 id="path453"
                 style="fill:#66757f;fill-opacity:1;fill-rule:nonzero;stroke:none"
                 d="M 0,0 C 0,1 2,3 4,3 6,3 8,1 8,0 8,-1 7,-1 4,-1 1,-1 0,-1 0,0"
                 inkscape:connector-curvature="0" />
            </g>
            <g
               transform="translate(13,13)"
               id="g455">
              <path
                 id="path457"
                 style="fill:#66757f;fill-opacity:1;fill-rule:nonzero;stroke:none"
                 d="M 0,0 C 0,0 2,2 6,2 10,2 12,0 12,0 12,0 10,1 6,1 2,1 0,0 0,0"
                 inkscape:connector-curvature="0" />
            </g>
            <g
               transform="translate(13,11)"
               id="g459">
              <path
                 id="path461"
                 style="fill:#66757f;fill-opacity:1;fill-rule:nonzero;stroke:none"
                 d="M 0,0 C 0,1 2,2 6,2 10,2 12,1 12,0 12,-1 11,-1 6,-1 1,-1 0,-1 0,0"
                 inkscape:connector-curvature="0" />
            </g>
          </g>
        </g>
      </g>
    </g>
  </g>
</svg>
