<?xml version="1.0" encoding="UTF-8" standalone="no"?>
<svg
   xmlns:dc="http://purl.org/dc/elements/1.1/"
   xmlns:cc="http://creativecommons.org/ns#"
   xmlns:rdf="http://www.w3.org/1999/02/22-rdf-syntax-ns#"
   xmlns:svg="http://www.w3.org/2000/svg"
   xmlns="http://www.w3.org/2000/svg"
   xmlns:sodipodi="http://sodipodi.sourceforge.net/DTD/sodipodi-0.dtd"
   xmlns:inkscape="http://www.inkscape.org/namespaces/inkscape"
   version="1.1"
   id="svg2"
   viewBox="0 0 200 200"
   height="200px"
   width="200px"
   inkscape:version="0.91 r13725"
   sodipodi:docname="40.svg">
  <metadata
     id="metadata537">
    <rdf:RDF>
      <cc:Work
         rdf:about="">
        <dc:format>image/svg+xml</dc:format>
        <dc:type
           rdf:resource="http://purl.org/dc/dcmitype/StillImage" />
      </cc:Work>
    </rdf:RDF>
  </metadata>
  <sodipodi:namedview
     pagecolor="#ffffff"
     bordercolor="#666666"
     borderopacity="1"
     objecttolerance="10"
     gridtolerance="10"
     guidetolerance="10"
     inkscape:pageopacity="0"
     inkscape:pageshadow="2"
     inkscape:window-width="1920"
     inkscape:window-height="1060"
     id="namedview535"
     showgrid="false"
     inkscape:zoom="3.337544"
     inkscape:cx="129.33674"
     inkscape:cy="95.800347"
     inkscape:window-x="0"
     inkscape:window-y="0"
     inkscape:window-maximized="1"
     inkscape:current-layer="layer1" />
  
    
    
    <defs id="defs6">

        <clipPath
           id="clipPath28"
           clipPathUnits="userSpaceOnUse">
          <path
             id="path30"
             d="M 4,36 C 0,36 0,32 0,32 L 0,32 0,4 C 0,0 4,0 4,0 l 0,0 28,0 c 4,0 4,4 4,4 l 0,0 0,28 c 0,4 -4,4 -4,4 l 0,0 -28,0 z" />
        </clipPath>


        <clipPath clipPathUnits="userSpaceOnUse" id="clipPath16-rugby">
            <path d="M 0,38 38,38 38,0 0,0 0,38 Z" id="path18"/>
        </clipPath>
        <clipPath clipPathUnits="userSpaceOnUse" id="clipPath28-rugby">
            <path d="M 9.254,28.746 C 2.09,21.582 -0.927,9.561 3.929,3.929 l 0,0 C 9.561,-0.927 21.582,2.09 28.746,9.254 l 0,0 c 7.164,7.164 11.229,17.088 5.324,24.816 l 0,0 c -1.886,1.627 -4.489,2.371 -7.387,2.37 l 0,0 c -5.752,0 -12.665,-2.93 -17.429,-7.694" id="path30"/>
        </clipPath>

        <clipPath clipPathUnits="userSpaceOnUse" id="clipPath16-carrot">
            <path d="M 0,36 36,36 36,0 0,0 0,36 Z" id="path18"/>
        </clipPath>
        <clipPath clipPathUnits="userSpaceOnUse" id="clipPath32-carrot">
            <path d="M 11.815,23.013 C 4.2,15.397 -1.265,2.86 0.502,1.093 l 0,0 c 1.768,-1.768 14.305,3.698 21.92,11.313 l 0,0 c 7.616,7.615 7.562,11.53 4.243,14.85 l 0,0 c -1.328,1.328 -2.752,2.133 -4.47,2.133 l 0,0 c -2.575,0 -5.812,-1.809 -10.38,-6.376" id="path34"/>
        </clipPath>

        <clipPath clipPathUnits="userSpaceOnUse" id="clipPath32-hat">
            <path d="m 5,33.666 c 0,-0.034 0.018,-0.067 0.022,-0.101 l 0,0 C 5.008,33.455 5,33.335 5,33.2 l 0,0 L 6.802,9.616 C 3.299,8.705 1,7.424 1,6 L 1,6 C 1,3.238 9.611,1 19,1 l 0,0 c 9.389,0 18,2.238 18,5 l 0,0 c 0,1.424 -2.298,2.705 -5.801,3.616 l 0,0 L 33,33.184 c 0,0.135 -0.008,0.263 -0.021,0.373 l 0,0 C 32.982,33.591 33,33.632 33,33.666 l 0,0 c 0,1.805 -6.268,3.267 -14,3.267 l 0,0 c -7.732,0 -14,-1.462 -14,-3.267" id="path34"/>
        </clipPath>


        <clipPath clipPathUnits="userSpaceOnUse" id="clipPath48-soccer">
            <path d="M 1,19 C 1,9.059 9.059,1 19,1 l 0,0 c 9.941,0 18,8.059 18,18 l 0,0 c 0,9.941 -8.059,18 -18,18 l 0,0 C 9.059,37 1,28.941 1,19" id="path50"/>
        </clipPath>

        <clipPath clipPathUnits="userSpaceOnUse" id="clipPath28-baguette">
            <path d="M 24.052,31.33 5.126,12.406 C 1.342,8.62 1.288,4.133 2.856,2.564 l 0,0 C 4.424,0.997 8.912,1.049 12.697,4.835 l 0,0 18.925,18.924 c 3.784,3.785 3.837,8.273 2.269,9.841 l 0,0 c -0.605,0.606 -1.647,0.969 -2.915,0.969 l 0,0 c -2.014,0 -4.602,-0.917 -6.924,-3.239" id="path30"/>
        </clipPath>
    </defs>



  <g
     id="layer1">
    <circle
       style="opacity:1;fill:white;stroke:black;stroke-width:1;stroke-miterlimit:4;stroke-dasharray:none;stroke-opacity:0.1"
       id="path4039-0-9"
       cx="100px"
       cy="100px"
       r="90px" />
    <g
       transform="matrix(-0.69282032,-0.4,0.4,-0.69282032,159.12642,93.183187)"
       id="g8">
      <g
         transform="matrix(1.25,0,0,-1.25,0,45)"
         id="g10">
        <g
           id="g12">
          <g
             clip-path="url(#clipPath16)"
             id="g14">
            <g
               transform="translate(30,12)"
               id="g20">
              <path
                 id="path22"
                 style="fill:#ffcc4d;fill-opacity:1;fill-rule:nonzero;stroke:none"
                 d="m 0,0 c 0,-6.628 -5.372,-12 -12,-12 -6.627,0 -12,5.372 -12,12 0,6.627 5.373,12 12,12 C -5.372,12 0,6.627 0,0"
                 inkscape:connector-curvature="0" />
            </g>
            <g
               transform="translate(13.5,24.2108)"
               id="g24">
              <path
                 id="path26"
                 style="fill:#f4900c;fill-opacity:1;fill-rule:nonzero;stroke:none"
                 d="M 0,0 C 0.386,0.441 1.647,-0.069 2,-0.461 2.353,-0.853 6.658,-1.352 6.5,-0.8 6,0.951 7.5,1.775 7.765,1.194 7.909,0.878 7.574,-0.368 7.733,-0.484 8.167,-0.8 8.671,-0.268 9.02,-0.461 9.633,-0.8 8.614,-2.3 8.614,-2.3 L 0.59,-3.011 c 0,0 -0.983,2.562 -0.59,3.011"
                 inkscape:connector-curvature="0" />
            </g>
            <g
               transform="translate(22.114,19.7)"
               id="g28">
              <path
                 id="path18"
                 style="fill:#f4900c;fill-opacity:1;fill-rule:nonzero;stroke:none"
                 d="m 0,0 c 0,-0.828 -1.842,-1.5 -4.114,-1.5 -2.272,0 -4.114,0.672 -4.114,1.5 0,0.828 1.842,1.5 4.114,1.5 C -1.842,1.5 0,0.828 0,0"
                 inkscape:connector-curvature="0" />
            </g>
            <g
               transform="translate(14.0833,29.1319)"
               id="g32">
              <path
                 id="path34"
                 style="fill:#da2f47;fill-opacity:1;fill-rule:nonzero;stroke:none"
                 d="m 0,0 c 0.56,-1.736 1.917,-7.132 0.56,-9.432 0.559,-0.868 1.678,-1.117 3.357,-1.117 l 0,11.417"
                 inkscape:connector-curvature="0" />
            </g>
            <g
               transform="translate(21.9167,29.1319)"
               id="g36">
              <path
                 id="path38"
                 style="fill:#da2f47;fill-opacity:1;fill-rule:nonzero;stroke:none"
                 d="m 0,0 c -0.56,-1.736 -1.917,-7.132 -0.56,-9.432 -0.559,-0.868 -1.678,-1.117 -3.357,-1.117 l 0,11.417"
                 inkscape:connector-curvature="0" />
            </g>
            <g
               transform="translate(15,31.5)"
               id="g40">
              <path
                 id="path42"
                 style="fill:#ea596e;fill-opacity:1;fill-rule:nonzero;stroke:none"
                 d="M 0,0 C 0,-1.381 -1.119,-2.5 -2.5,-2.5 -3.881,-2.5 -5,-1.381 -5,0 -5,1.381 -3.881,2.5 -2.5,2.5 -1.119,2.5 0,1.381 0,0"
                 inkscape:connector-curvature="0" />
            </g>
            <g
               transform="translate(13,29.5)"
               id="g44">
              <path
                 id="path46"
                 style="fill:#ea596e;fill-opacity:1;fill-rule:nonzero;stroke:none"
                 d="M 0,0 C 0,-1.381 -1.119,-2.5 -2.5,-2.5 -3.881,-2.5 -5,-1.381 -5,0 -5,1.381 -3.881,2.5 -2.5,2.5 -1.119,2.5 0,1.381 0,0"
                 inkscape:connector-curvature="0" />
            </g>
            <g
               transform="translate(20,32.5)"
               id="g48">
              <path
                 id="path50"
                 style="fill:#ea596e;fill-opacity:1;fill-rule:nonzero;stroke:none"
                 d="M 0,0 C 0,-0.828 -0.672,-1.5 -1.5,-1.5 -2.328,-1.5 -3,-0.828 -3,0 -3,0.828 -2.328,1.5 -1.5,1.5 -0.672,1.5 0,0.828 0,0"
                 inkscape:connector-curvature="0" />
            </g>
            <g
               id="g52">
              <g
                 id="g54" />
              <g
                 id="g60">
                <g
                   style="opacity:0.28999299"
                   id="g62"
                   clip-path="url(#clipPath56)">
                  <g
                     id="g64"
                     transform="translate(21.898,28.7917)">
                    <path
                       id="path66"
                       style="fill:#9d0522;fill-opacity:1;fill-rule:nonzero;stroke:none"
                       d="m 0,0 c 0.047,0.078 0.073,0.251 0.127,0.33 -1.354,0.324 -2.723,0.649 -2.754,0.649 -0.063,0 -7.063,-0.812 -7.25,-0.854 -0.182,-0.04 -0.042,0.625 -0.042,0.625 0,0 1.283,-2.435 2.584,-2.833 0.18,-0.056 0.476,-1.314 0.499,-1.929 0.624,0.018 1.006,0.176 1.584,0.637 0.375,-0.25 1.333,-0.417 1.812,0.083 0.402,-0.201 1.577,-0.411 2.667,0.36 C -0.647,-1.857 -0.245,-0.405 0,0"
                       inkscape:connector-curvature="0" />
                  </g>
                </g>
              </g>
            </g>
            <g
               transform="translate(18,30.5)"
               id="g68">
              <path
                 id="path70"
                 style="fill:#ccd6dd;fill-opacity:1;fill-rule:nonzero;stroke:none"
                 d="M 0,0 C 0,-1.381 -1.119,-2.5 -2.5,-2.5 -3.881,-2.5 -5,-1.381 -5,0 -5,1.381 -3.881,2.5 -2.5,2.5 -1.119,2.5 0,1.381 0,0"
                 inkscape:connector-curvature="0" />
            </g>
            <g
               transform="translate(18,33.5)"
               id="g72">
              <path
                 id="path74"
                 style="fill:#ea596e;fill-opacity:1;fill-rule:nonzero;stroke:none"
                 d="M 0,0 C 0,-1.381 -1.119,-2.5 -2.5,-2.5 -3.881,-2.5 -5,-1.381 -5,0 -5,1.381 -3.881,2.5 -2.5,2.5 -1.119,2.5 0,1.381 0,0"
                 inkscape:connector-curvature="0" />
            </g>
            <g
               transform="translate(18.125,29.2569)"
               id="g76">
              <path
                 id="path78"
                 style="fill:#ea596e;fill-opacity:1;fill-rule:nonzero;stroke:none"
                 d="m 0,0 c 0,-1.791 -1.452,-3.243 -3.243,-3.243 -1.791,0 -3.243,1.452 -3.243,3.243 0,1.791 1.452,3.243 3.243,3.243 C -1.452,3.243 0,1.791 0,0"
                 inkscape:connector-curvature="0" />
            </g>
            <g
               transform="translate(22,29.5)"
               id="g80">
              <path
                 id="path82"
                 style="fill:#ea596e;fill-opacity:1;fill-rule:nonzero;stroke:none"
                 d="M 0,0 C 0,-1.381 -1.119,-2.5 -2.5,-2.5 -3.881,-2.5 -5,-1.381 -5,0 -5,1.381 -3.881,2.5 -2.5,2.5 -1.119,2.5 0,1.381 0,0"
                 inkscape:connector-curvature="0" />
            </g>
            <g
               transform="translate(26,30.5)"
               id="g84">
              <path
                 id="path86"
                 style="fill:#ea596e;fill-opacity:1;fill-rule:nonzero;stroke:none"
                 d="M 0,0 C 0,-1.381 -1.119,-2.5 -2.5,-2.5 -3.881,-2.5 -5,-1.381 -5,0 -5,1.381 -3.881,2.5 -2.5,2.5 -1.119,2.5 0,1.381 0,0"
                 inkscape:connector-curvature="0" />
            </g>
            <g
               transform="translate(28,30)"
               id="g88">
              <path
                 id="path90"
                 style="fill:#ea596e;fill-opacity:1;fill-rule:nonzero;stroke:none"
                 d="m 0,0 c 0,-1.105 -0.895,-2 -2,-2 -1.105,0 -2,0.895 -2,2 0,1.105 0.895,2 2,2 1.105,0 2,-0.895 2,-2"
                 inkscape:connector-curvature="0" />
            </g>
            <g
               transform="translate(24,31.5)"
               id="g92">
              <path
                 id="path94"
                 style="fill:#ea596e;fill-opacity:1;fill-rule:nonzero;stroke:none"
                 d="M 0,0 C 0,-1.381 -1.119,-2.5 -2.5,-2.5 -3.881,-2.5 -5,-1.381 -5,0 -5,1.381 -3.881,2.5 -2.5,2.5 -1.119,2.5 0,1.381 0,0"
                 inkscape:connector-curvature="0" />
            </g>
            <g
               transform="translate(16,30.5)"
               id="g96">
              <path
                 id="path98"
                 style="fill:#f4abba;fill-opacity:1;fill-rule:nonzero;stroke:none"
                 d="M 0,0 C 0,-1.381 -1.119,-2.5 -2.5,-2.5 -3.881,-2.5 -5,-1.381 -5,0 -5,1.381 -3.881,2.5 -2.5,2.5 -1.119,2.5 0,1.381 0,0"
                 inkscape:connector-curvature="0" />
            </g>
            <g
               transform="translate(18,32.5)"
               id="g100">
              <path
                 id="path102"
                 style="fill:#f4abba;fill-opacity:1;fill-rule:nonzero;stroke:none"
                 d="M 0,0 C 0,-0.828 -0.672,-1.5 -1.5,-1.5 -2.328,-1.5 -3,-0.828 -3,0 -3,0.828 -2.328,1.5 -1.5,1.5 -0.672,1.5 0,0.828 0,0"
                 inkscape:connector-curvature="0" />
            </g>
            <g
               transform="translate(20,30.5)"
               id="g104">
              <path
                 id="path106"
                 style="fill:#f4abba;fill-opacity:1;fill-rule:nonzero;stroke:none"
                 d="M 0,0 C 0,-0.828 -0.672,-1.5 -1.5,-1.5 -2.328,-1.5 -3,-0.828 -3,0 -3,0.828 -2.328,1.5 -1.5,1.5 -0.672,1.5 0,0.828 0,0"
                 inkscape:connector-curvature="0" />
            </g>
            <g
               transform="translate(15.875,28.7917)"
               id="g108">
              <path
                 id="path110"
                 style="fill:#f4abba;fill-opacity:1;fill-rule:nonzero;stroke:none"
                 d="M 0,0 C 0,-0.829 -0.672,-1.5 -1.5,-1.5 -2.328,-1.5 -3,-0.829 -3,0 -3,0.828 -2.328,1.5 -1.5,1.5 -0.672,1.5 0,0.828 0,0"
                 inkscape:connector-curvature="0" />
            </g>
            <g
               transform="translate(11.8333,29.867)"
               id="g112">
              <path
                 id="path114"
                 style="fill:#f4abba;fill-opacity:1;fill-rule:nonzero;stroke:none"
                 d="m 0,0 c 0,-0.741 -0.6,-1.341 -1.341,-1.341 -0.741,0 -1.342,0.6 -1.342,1.341 0,0.741 0.601,1.341 1.342,1.341 C -0.6,1.341 0,0.741 0,0"
                 inkscape:connector-curvature="0" />
            </g>
            <g
               transform="translate(18.0617,29.7708)"
               id="g116">
              <path
                 id="path118"
                 style="fill:#f4abba;fill-opacity:1;fill-rule:nonzero;stroke:none"
                 d="M 0,0 C 0,-0.828 -0.672,-1.5 -1.5,-1.5 -2.328,-1.5 -3,-0.828 -3,0 -3,0.829 -2.328,1.5 -1.5,1.5 -0.672,1.5 0,0.829 0,0"
                 inkscape:connector-curvature="0" />
            </g>
            <g
               transform="translate(25,30.5)"
               id="g120">
              <path
                 id="path122"
                 style="fill:#f4abba;fill-opacity:1;fill-rule:nonzero;stroke:none"
                 d="M 0,0 C 0,-0.828 -0.672,-1.5 -1.5,-1.5 -2.328,-1.5 -3,-0.828 -3,0 -3,0.828 -2.328,1.5 -1.5,1.5 -0.672,1.5 0,0.828 0,0"
                 inkscape:connector-curvature="0" />
            </g>
            <g
               transform="translate(14.0833,21.4512)"
               id="g124">
              <path
                 id="path126"
                 style="fill:#ffcc4d;fill-opacity:1;fill-rule:nonzero;stroke:none"
                 d="M 0,0 C -0.197,0.46 0.011,1.555 0.548,1.137 1.085,0.719 0.789,-0.231 1.417,-0.24 2.044,-0.25 2.221,1.201 2.917,1.24 3.613,1.279 3.966,-0.211 4.417,-0.093 4.868,0.024 4.75,0.652 5.26,0.534 5.77,0.417 5.652,-0.62 6.175,-0.366 6.698,-0.113 6.69,1.277 7.25,1.337 7.809,1.397 7.468,0.111 8.031,0.46 8.593,0.809 8.506,0.026 7.941,-0.406 7.378,-0.838 4.735,-1.956 1.958,-1.24 -0.819,-0.525 0.197,-0.46 0,0"
                 inkscape:connector-curvature="0" />
            </g>
            <g
               transform="translate(22.6666,18)"
               id="g128">
              <path
                 id="path130"
                 style="fill:#ffcc4d;fill-opacity:1;fill-rule:nonzero;stroke:none"
                 d="m 0,0 -9.421,0 0,3.2 L 0.478,2.618 0,0 Z"
                 inkscape:connector-curvature="0" />
            </g>
            <g
               transform="translate(15,15)"
               id="g132">
              <path
                 id="path134"
                 style="fill:#664500;fill-opacity:1;fill-rule:nonzero;stroke:none"
                 d="M 0,0 C 0,-1.105 -0.672,-2 -1.5,-2 -2.329,-2 -3,-1.105 -3,0 -3,1.105 -2.329,2 -1.5,2 -0.672,2 0,1.105 0,0"
                 inkscape:connector-curvature="0" />
            </g>
            <g
               transform="translate(24,15.0001)"
               id="g136">
              <path
                 id="path138"
                 style="fill:#664500;fill-opacity:1;fill-rule:nonzero;stroke:none"
                 d="M 0,0 C 0,-1.105 -0.672,-2 -1.5,-2 -2.328,-2 -3,-1.105 -3,0 -3,1.104 -2.328,2 -1.5,2 -0.672,2 0,1.104 0,0"
                 inkscape:connector-curvature="0" />
            </g>
            <g
               transform="translate(21.5,6.7222)"
               id="g140">
              <path
                 id="path142"
                 style="fill:#664500;fill-opacity:1;fill-rule:nonzero;stroke:none"
                 d="M 0,0 C 0,-2.21 -1.568,-4 -3.5,-4 -5.433,-4 -7,-2.21 -7,0 -7,2.209 -5.433,4 -3.5,4 -1.568,4 0,2.209 0,0"
                 inkscape:connector-curvature="0" />
            </g>
          </g>
        </g>
      </g>
    </g>
    <g
       transform="matrix(0.20791169,0.9781476,-0.9781476,0.20791169,77.733101,40.699649)"
       id="g74">
      <g
         transform="matrix(1.25,0,0,-1.25,0,45)"
         id="g77">
        <g
           id="g79">
          <g
             clip-path="url(#clipPath16)"
             id="g81">
            <g
               transform="translate(26,8)"
               id="g83">
              <path
                 id="path85"
                 style="fill:#4289c1;fill-opacity:1;fill-rule:nonzero;stroke:none"
                 d="m 0,0 -16,0 c -2.484,0 -4.615,-1.51 -5.527,-3.661 C -21.893,-3.258 -22.416,-3 -23,-3 c -1.1,0 -2,-0.9 -2,-2 l 0,-3 31,0 0,2 C 6,-2.687 3.313,0 0,0"
                 inkscape:connector-curvature="0" />
            </g>
            <g
               transform="translate(14,9)"
               id="g87">
              <path
                 id="path89"
                 style="fill:#2a6797;fill-opacity:1;fill-rule:nonzero;stroke:none"
                 d="M 0,0 8,0 C 8,0 9,-9 4,-9 -1,-9 0,0 0,0"
                 inkscape:connector-curvature="0" />
            </g>
            <g
               transform="translate(33,16.9756)"
               id="g91">
              <path
                 id="path93"
                 style="fill:#292f33;fill-opacity:1;fill-rule:nonzero;stroke:none"
                 d="m 0,0 c 0,-1.949 -6.716,-3.529 -15,-3.529 -8.284,0 -15,1.58 -15,3.529 0,1.949 6.716,3.529 15,3.529 8.284,0 15,-1.58 15,-3.529"
                 inkscape:connector-curvature="0" />
            </g>
            <g
               transform="translate(26.3395,18.4366)"
               id="g95">
              <path
                 id="path97"
                 style="fill:#ffdc5d;fill-opacity:1;fill-rule:nonzero;stroke:none"
                 d="m 0,0 c -0.809,3.6 -4.235,8.65 -8.339,8.65 -4.105,0 -7.531,-5.05 -8.34,-8.65 -0.836,-0.048 -1.494,-0.52 -1.494,-1.889 0,-1.448 0.734,-2.622 1.639,-2.622 0.015,0 0.028,0.006 0.043,0.007 1.064,-4.376 4.31,-8.013 8.152,-8.013 3.842,0 7.088,3.637 8.151,8.013 0.015,-0.001 0.028,-0.007 0.043,-0.007 0.905,0 1.639,1.174 1.639,2.622 C 1.494,-0.52 0.836,-0.048 0,0"
                 inkscape:connector-curvature="0" />
            </g>
            <g
               transform="translate(14,15.2914)"
               id="g99">
              <path
                 id="path101"
                 style="fill:#662113;fill-opacity:1;fill-rule:nonzero;stroke:none"
                 d="m 0,0 0,0 c -0.55,0 -1,0.45 -1,1 l 0,1 c 0,0.55 0.45,1 1,1 L 0,3 C 0.55,3 1,2.55 1,2 L 1,1 C 1,0.45 0.55,0 0,0"
                 inkscape:connector-curvature="0" />
            </g>
            <g
               transform="translate(22,15.2914)"
               id="g103">
              <path
                 id="path105"
                 style="fill:#662113;fill-opacity:1;fill-rule:nonzero;stroke:none"
                 d="m 0,0 0,0 c -0.55,0 -1,0.45 -1,1 l 0,1 c 0,0.55 0.45,1 1,1 L 0,3 C 0.55,3 1,2.55 1,2 L 1,1 C 1,0.45 0.55,0 0,0"
                 inkscape:connector-curvature="0" />
            </g>
            <g
               transform="translate(18.75,14.1758)"
               id="g107">
              <path
                 id="path109"
                 style="fill:#c1694f;fill-opacity:1;fill-rule:nonzero;stroke:none"
                 d="m 0,0 -1.5,0 c -0.413,0 -0.75,0.337 -0.75,0.75 l 0,0 c 0,0.412 0.337,0.75 0.75,0.75 l 1.5,0 c 0.413,0 0.75,-0.338 0.75,-0.75 l 0,0 C 0.75,0.337 0.413,0 0,0"
                 inkscape:connector-curvature="0" />
            </g>
            <g
               transform="translate(20.1667,10.9674)"
               id="g111">
              <path
                 id="path113"
                 style="fill:#c1694f;fill-opacity:1;fill-rule:nonzero;stroke:none"
                 d="m 0,0 -4.333,0 c -0.413,0 -0.75,0.338 -0.75,0.75 l 0,0.331 c 0,0.412 0.337,0.75 0.75,0.75 l 4.333,0 c 0.413,0 0.75,-0.338 0.75,-0.75 l 0,-0.331 C 0.75,0.338 0.413,0 0,0"
                 inkscape:connector-curvature="0" />
            </g>
            <g
               transform="translate(20.6667,10.1295)"
               id="g115">
              <path
                 id="path54"
                 style="fill:#e6e7e8;fill-opacity:1;fill-rule:nonzero;stroke:none"
                 d="m 0,0 c -1.885,1.289 -2.667,0.911 -2.667,0.911 0,0 -0.781,0.378 -2.666,-0.911 -1.013,-0.692 -2.025,0.192 -2.745,1.057 0.748,0.276 1.684,0.623 2.675,0.819 1.83,-0.03 2.534,0.225 2.7,0.599 C -2.536,2.111 -1.828,1.877 -0.002,1.869 1.011,1.668 1.968,1.309 2.724,1.032 2.005,0.175 1.002,-0.685 0,0 M 5.757,8.024 C 5.95,8.116 6.105,8.248 6.206,8.423 6.621,9.141 5.987,10.282 4.791,10.972 3.596,11.663 2.291,11.641 1.876,10.923 1.462,10.206 2.096,9.065 3.291,8.374 3.81,8.075 4.345,7.918 4.823,7.885 4.531,7.361 4.333,6.412 4.333,5.317 4.333,4.254 4.519,3.326 4.796,2.793 4.388,2.809 3.843,2.397 3.506,2.029 2.797,2.768 1.665,3.578 0.386,3.831 -1.666,4.237 -2.515,3.445 -2.702,2.898 -2.884,3.445 -3.731,4.246 -5.792,3.838 -7.051,3.589 -8.166,2.8 -8.877,2.071 c -0.339,0.356 -0.86,0.737 -1.253,0.722 0.278,0.533 0.463,1.461 0.463,2.524 0,1.101 -0.2,2.053 -0.494,2.575 0.566,-0.064 1.274,0.091 1.952,0.482 1.196,0.691 1.83,1.832 1.415,2.549 -0.414,0.718 -1.719,0.74 -2.915,0.049 -1.195,-0.69 -1.829,-1.831 -1.415,-2.549 0.051,-0.087 0.115,-0.162 0.189,-0.229 -0.421,-0.353 -0.732,-1.501 -0.732,-2.877 0,-1.657 0.448,-3 1,-3 0.02,0 0.039,0.014 0.059,0.018 C -10.644,2.199 -10.667,2.033 -10.667,1.823 -10.667,0 -10,0 -10,0 c -0.667,-1.823 0.667,-3.66 0.667,-3.66 0,-2.735 2,-2.735 2,-2.735 0,-2.735 2.666,-1.823 2.666,-1.823 0.667,-0.912 2,-0.912 2,-0.912 0,0 1.334,0 2,0.912 0,0 2.667,-0.912 2.667,1.823 0,0 2,0 2,2.735 0,0 1.333,1.837 0.667,3.66 0,0 0.666,0 0.666,1.823 0,0.21 -0.022,0.376 -0.058,0.512 0.019,-0.004 0.038,-0.018 0.058,-0.018 0.553,0 1,1.343 1,3 0,1.2 -0.236,2.227 -0.576,2.707"
                 inkscape:connector-curvature="0" />
            </g>
            <g
               transform="translate(25.7654,20.8431)"
               id="g56">
              <path
                 id="path58"
                 style="fill:#4289c1;fill-opacity:1;fill-rule:nonzero;stroke:none"
                 d="m 0,0 c -1.228,2.686 -6.972,15.157 -7.765,15.157 -0.794,0 -6.538,-12.471 -7.766,-15.157 -4.819,-0.844 -7.234,-2.438 -7.234,-3.843 6,2 11,2.443 15,2.443 4,0 9,-0.443 15,-2.443 C 7.235,-2.438 4.819,-0.844 0,0"
                 inkscape:connector-curvature="0" />
            </g>
            <g
               transform="translate(5,0)"
               id="g121">
              <path
                 id="path62"
                 style="fill:#d99e82;fill-opacity:1;fill-rule:nonzero;stroke:none"
                 d="M 0,0 -2,0 -2,24.138 -3,28 1,28 0,24.138 0,0 Z"
                 inkscape:connector-curvature="0" />
            </g>
            <g
               transform="translate(7,30)"
               id="g125">
              <path
                 id="path127"
                 style="fill:#55acee;fill-opacity:1;fill-rule:nonzero;stroke:none"
                 d="m 0,0 c 0,-1.657 -1.343,-3 -3,-3 -1.657,0 -3,1.343 -3,3 0,1.657 1.343,3 3,3 1.657,0 3,-1.343 3,-3"
                 inkscape:connector-curvature="0" />
            </g>
            <g
               transform="translate(5,30.5)"
               id="g129">
              <path
                 id="path131"
                 style="fill:#b0f0ff;fill-opacity:1;fill-rule:nonzero;stroke:none"
                 d="M 0,0 C 0,-0.828 -0.672,-1.5 -1.5,-1.5 -2.328,-1.5 -3,-0.828 -3,0 -3,0.828 -2.328,1.5 -1.5,1.5 -0.672,1.5 0,0.828 0,0"
                 inkscape:connector-curvature="0" />
            </g>
            <g
               transform="translate(7,5.5)"
               id="g133">
              <path
                 id="path135"
                 style="fill:#ffdc5d;fill-opacity:1;fill-rule:nonzero;stroke:none"
                 d="m 0,0 c 0,-1.933 -1.343,-3.5 -3,-3.5 -1.657,0 -3,1.567 -3,3.5 0,1.933 1.343,2.5 3,2.5 1.657,0 3,-0.567 3,-2.5"
                 inkscape:connector-curvature="0" />
            </g>
          </g>
        </g>
      </g>
    </g>
    <g
       transform="matrix(0.61379852,0.65821833,-0.65821833,0.61379852,69.835788,117.50577)"
       id="g137">
      <g
         transform="matrix(1.25,0,0,-1.25,0,45)"
         id="g139">
        <g
           id="g141">
          <g
             clip-path="url(#clipPath16)"
             id="g143">
            <g
               transform="translate(13.2344,16.3242)"
               id="g145">
              <path
                 id="path147"
                 style="fill:#ad743d;fill-opacity:1;fill-rule:nonzero;stroke:none"
                 d="M 0,0 C -1.243,1.243 -4.97,0 -6.211,2.488 -6.998,4.06 -9.939,1.243 -8.697,-1.246 -7.455,-3.73 -3.728,-3.73 -1.243,-2.488 1.242,-1.246 0,0 0,0"
                 inkscape:connector-curvature="0" />
            </g>
            <g
               transform="translate(10.4668,33.1802)"
               id="g149">
              <path
                 id="path151"
                 style="fill:#ad743d;fill-opacity:1;fill-rule:nonzero;stroke:none"
                 d="m 0,0 c -4.694,-1.399 -9.492,-7.219 -9.345,-8.397 0.148,-1.177 0.342,-2.638 6.571,-3.656 1.104,-0.18 3.995,-1.835 4.4,-5.779 0.657,-6.411 4.157,-11.098 8.251,-15.192 1.607,0 1.666,-0.156 3.443,-0.156 1.781,0 3.679,2.41 4.602,4.673 2.844,6.974 2.029,15.707 -5.506,19.83 C 9.427,-7.041 7.205,-6.825 7.087,-5.64 6.953,-4.262 5.869,-1.941 3.276,-0.312 3.72,0.997 2.791,2.474 2.16,2.528 1.528,2.582 0.136,1.49 0,0"
                 inkscape:connector-curvature="0" />
            </g>
          </g>
        </g>
        <g
           id="g153">
          <g
             clip-path="url(#clipPath32)"
             id="g30">
            <g
               transform="translate(2.1836,22.0332)"
               id="g156">
              <path
                 id="path158"
                 style="fill:#d99e82;fill-opacity:1;fill-rule:nonzero;stroke:none"
                 d="M 0,0 C 0.629,5.908 3.746,8.413 6.202,8.232 7.696,8.122 8.338,6.585 8.46,5.507 13.666,4.736 12.399,-1.222 9.141,-1.312 10.518,-2.69 19.28,-8.263 17.902,-15.148 16.525,-22.033 11.016,-22.033 8.263,-19.28 5.509,-16.524 0,0 0,0"
                 inkscape:connector-curvature="0" />
            </g>
          </g>
        </g>
        <g
           id="g160">
          <g
             clip-path="url(#clipPath44)"
             id="g42">
            <g
               transform="translate(9.0693,26.5405)"
               id="g163">
              <path
                 id="path165"
                 style="fill:#292f33;fill-opacity:1;fill-rule:nonzero;stroke:none"
                 d="m 0,0 c 0,-0.76 -0.617,-1.376 -1.377,-1.376 -0.761,0 -1.377,0.616 -1.377,1.376 0,0.761 0.616,1.377 1.377,1.377 C -0.617,1.377 0,0.761 0,0"
                 inkscape:connector-curvature="0" />
            </g>
            <g
               transform="translate(6.2603,15.8535)"
               id="g167">
              <path
                 id="path169"
                 style="fill:#662113;fill-opacity:1;fill-rule:nonzero;stroke:none"
                 d="m 0,0 c 0.304,-1.49 -0.383,-4.295 -1.874,-4.6 -1.489,-0.303 -3.22,2.007 -3.523,3.496 C -5.702,0.387 -4.74,1.843 -3.25,2.15 -1.759,2.455 -0.305,1.49 0,0"
                 inkscape:connector-curvature="0" />
            </g>
            <g
               transform="translate(21.2539,22.4355)"
               id="g171">
              <path
                 id="path173"
                 style="fill:#662113;fill-opacity:1;fill-rule:nonzero;stroke:none"
                 d="M 0,0 C 4.065,-3.341 6.158,-7.296 5.402,-12.37 5.084,-14.514 6.232,-15.303 7.09,-13.272 7.688,-11.85 8.025,-3.385 1.04,1.039 -0.818,2.216 -0.921,0.756 0,0"
                 inkscape:connector-curvature="0" />
            </g>
            <g
               transform="translate(13.9072,14.625)"
               id="g175">
              <path
                 id="path177"
                 style="fill:#ad743d;fill-opacity:1;fill-rule:nonzero;stroke:none"
                 d="m 0,0 c -1.635,1.061 -5.388,-1.148 -7.309,1.259 -1.215,1.523 -3.753,-2.209 -1.832,-4.615 1.922,-2.406 5.962,-1.543 8.368,0.377 C 1.634,-1.058 0,0 0,0"
                 inkscape:connector-curvature="0" />
            </g>
            <g
               transform="translate(24.625,0)"
               id="g179">
              <path
                 id="path181"
                 style="fill:#ad743d;fill-opacity:1;fill-rule:nonzero;stroke:none"
                 d="m 0,0 -10.928,0 c -2.754,0 -2.754,4.132 1.378,4.132 l 3.634,0 C -3.161,4.132 0,0 0,0"
                 inkscape:connector-curvature="0" />
            </g>
            <g
               transform="translate(16.5352,7.3838)"
               id="g183">
              <path
                 id="path185"
                 style="fill:#ad743d;fill-opacity:1;fill-rule:nonzero;stroke:none"
                 d="M 0,0 C 0.371,3.555 2.87,6.21 5.586,5.931 8.301,5.647 10.199,2.533 9.83,-1.021 9.46,-4.58 6.959,-7.234 4.246,-6.955 1.53,-6.672 -0.369,-3.559 0,0"
                 inkscape:connector-curvature="0" />
            </g>
            <g
               transform="translate(23.0117,0.9922)"
               id="g187">
              <path
                 id="path189"
                 style="fill:#ad743d;fill-opacity:1;fill-rule:nonzero;stroke:none"
                 d="m 0,0 c 1.653,0.338 4.956,1.516 6.815,9.035 0.648,2.613 1.373,6.272 -0.827,11.216 -1.875,4.218 -1.084,5.128 0.737,3.766 1.58,-1.184 1.948,-2.708 2.158,-4.928 0.154,0.462 0.377,1.046 0.264,2.153 3.65,-2.056 3.65,-6.749 2.25,-11.167 0.385,0.386 0.828,1.301 1.023,2.159 C 13.706,6.444 9.846,-0.292 2.916,-0.905 -1.064,-1.339 0,0 0,0"
                 inkscape:connector-curvature="0" />
            </g>
          </g>
        </g>
      </g>
    </g>
    <g
       transform="matrix(0.9242502,-0.12989489,0.12989489,0.9242502,121.63491,109.26007)"
       id="g191">
      <g
         transform="matrix(1.25,0,0,-1.25,0,47.5)"
         id="g193">
        <g
           id="g195">
          <g
             clip-path="url(#clipPath16)"
             id="g197">
            <g
               transform="translate(35.0596,10.5928)"
               id="g199">
              <path
                 id="path201"
                 style="fill:#292f33;fill-opacity:1;fill-rule:nonzero;stroke:none"
                 d="m 0,0 -3.496,3.496 c -1.93,1.93 -5.06,1.93 -6.989,0 -0.719,-0.718 -1.167,-1.602 -1.352,-2.528 -5.765,1.078 -11.372,6.662 -11.721,11.653 0.948,0.176 1.854,0.628 2.587,1.36 1.93,1.931 1.93,5.061 0,6.991 l -3.495,3.495 c -1.93,1.93 -5.06,1.93 -6.99,0 C -41.941,13.981 -10.485,-17.475 0,-6.989 1.93,-5.06 1.93,-1.93 0,0"
                 inkscape:connector-curvature="0" />
            </g>
          </g>
        </g>
      </g>
    </g>
    <g
       transform="matrix(0.30266033,-0.59400435,0.59400435,0.30266033,20.113312,119.54389)"
       id="g203">
      <g
         transform="matrix(1.25,0,0,-1.25,0,47.5)"
         id="g205">
        <g
           id="g207">
          <g
             clip-path="url(#clipPath16)"
             id="g209">
            <g
               transform="translate(25.8799,3.9033)"
               id="g211">
              <path
                 id="path213"
                 style="fill:#ffac33;fill-opacity:1;fill-rule:nonzero;stroke:none"
                 d="m 0,0 c -0.098,0.18 -0.25,0.302 -0.418,0.391 -1.597,1.706 -0.462,3.707 -0.462,3.707 0,0.552 1,2 0,2 l -1,-1 c -1,-1 -1,-4 -1,-4 l -2,0 c -0.553,0 -1,-0.448 -1,-1 0,-0.553 0.447,-1 1,-1 l 1.108,0 -0.222,-0.12 c -0.486,-0.263 -0.667,-0.87 -0.404,-1.356 0.262,-0.486 0.869,-0.667 1.355,-0.404 l 2.639,1.427 C 0.082,-1.093 0.263,-0.486 0,0"
                 inkscape:connector-curvature="0" />
            </g>
            <g
               transform="translate(18.8799,3.9033)"
               id="g215">
              <path
                 id="path217"
                 style="fill:#ffac33;fill-opacity:1;fill-rule:nonzero;stroke:none"
                 d="m 0,0 c -0.097,0.18 -0.25,0.302 -0.417,0.391 -1.597,1.706 -0.463,3.707 -0.463,3.707 0,0.552 1,2 0,2 l -1,-1 c -1,-1 -1,-4 -1,-4 l -2,0 c -0.553,0 -1,-0.448 -1,-1 0,-0.553 0.447,-1 1,-1 l 1.108,0 -0.222,-0.12 c -0.486,-0.263 -0.667,-0.87 -0.404,-1.356 0.262,-0.486 0.869,-0.667 1.355,-0.404 l 2.639,1.427 C 0.082,-1.093 0.263,-0.486 0,0"
                 inkscape:connector-curvature="0" />
            </g>
            <g
               transform="translate(8.5156,27)"
               id="g219">
              <path
                 id="path221"
                 style="fill:#ffac33;fill-opacity:1;fill-rule:nonzero;stroke:none"
                 d="M 0,0 C 0,-1.104 -1.119,-2 -2.5,-2 -3.881,-2 -6,-1 -6,0 -6,1 -3.881,2 -2.5,2 -1.119,2 0,1.104 0,0"
                 inkscape:connector-curvature="0" />
            </g>
            <g
               transform="translate(14.5156,35)"
               id="g223">
              <path
                 id="path225"
                 style="fill:#dd2e44;fill-opacity:1;fill-rule:nonzero;stroke:none"
                 d="m 0,0 c -2,1 -3,-1 -3,-1 0,0 0,3 -3,3 -3,0 -3,-3 -3,-3 0,0 -3,0.938 -3,-2 0,-1.482 1.101,-2.411 2.484,-2.387 l 0,-4.613 c 0,-1 0.264,-3 -0.736,-4 -1,-1 -2.485,-4 0.515,-4 3,0 3,4 3,7 1,-1 4,-1 4,4 0,0.867 -0.213,1.512 -0.55,2 L -2,-5 c 4,0 4,4 2,5"
                 inkscape:connector-curvature="0" />
            </g>
            <g
               transform="translate(33.5156,28)"
               id="g227">
              <path
                 id="path229"
                 style="fill:#e1e8ed;fill-opacity:1;fill-rule:nonzero;stroke:none"
                 d="m 0,0 c 4,-10 0,-22 -13,-22 -7.732,0 -13,6 -14,11 -1.177,5.883 -1,8 -1,12 0,2.738 2.118,4.824 5,4 7,-2 5,-10 12,-10 10,0 8.23,11.923 11,5"
                 inkscape:connector-curvature="0" />
            </g>
            <g
               transform="translate(9.5156,29)"
               id="g231">
              <path
                 id="path233"
                 style="fill:#292f33;fill-opacity:1;fill-rule:nonzero;stroke:none"
                 d="m 0,0 c 0,-0.552 -0.447,-1 -1,-1 -0.553,0 -1,0.448 -1,1 0,0.552 0.447,1 1,1 0.553,0 1,-0.448 1,-1"
                 inkscape:connector-curvature="0" />
            </g>
          </g>
        </g>
      </g>
    </g>
    <g
       transform="matrix(0.06499698,-0.52935795,0.52935795,0.06499698,77.01064,42.367343)"
       id="g235">
      <g
         transform="matrix(1.25,0,0,-1.25,0,47.5)"
         id="g237">
        <g
           id="g239">
          <g
             clip-path="url(#clipPath16)"
             id="g241">
            <g
               transform="translate(20.6016,4.6709)"
               id="g243">
              <path
                 id="path245"
                 style="fill:#77b255;fill-opacity:1;fill-rule:nonzero;stroke:none"
                 d="M 0,0 C 6.509,-6.506 17.254,7.669 15.72,7.669 8.052,7.669 -6.506,6.508 0,0"
                 inkscape:connector-curvature="0" />
            </g>
            <g
               transform="translate(16.6445,3.6279)"
               id="g247">
              <path
                 id="path249"
                 style="fill:#77b255;fill-opacity:1;fill-rule:nonzero;stroke:none"
                 d="M 0,0 C -6.032,-6.032 -15.715,7.109 -14.292,7.109 -7.182,7.109 6.035,6.034 0,0"
                 inkscape:connector-curvature="0" />
            </g>
            <g
               transform="translate(35.6133,21.2461)"
               id="g251">
              <path
                 id="path253"
                 style="fill:#f4abba;fill-opacity:1;fill-rule:nonzero;stroke:none"
                 d="m 0,0 c -0.052,0.901 -0.175,2.585 -1.398,4.227 -1.161,1.549 -3.805,3.371 -5.535,2.585 0.516,1.676 -0.263,4.125 -1.191,5.49 -1.179,1.737 -4.262,3.843 -8.146,3.027 -1.754,-0.37 -4.18,-2.036 -4.632,-3.865 -1.18,1.472 -4.221,1.675 -6.015,1.222 -2.025,-0.511 -3.153,-1.777 -3.739,-2.461 l 0.004,0.005 c -0.01,-0.01 -0.02,-0.024 -0.03,-0.034 -0.007,-0.009 -0.02,-0.024 -0.027,-0.033 -0.583,-0.689 -1.656,-1.994 -1.847,-4.074 -0.193,-2.146 0.75,-5.832 3.026,-6.042 0.149,-0.014 0.323,-0.031 0.513,-0.051 -2.27,-0.098 -3.572,-3.654 -3.594,-5.8 -0.023,-2.101 0.926,-3.506 1.443,-4.243 l -0.003,0.004 c 0.008,-0.01 0.019,-0.024 0.025,-0.036 0.007,-0.011 0.02,-0.024 0.026,-0.036 0.523,-0.733 1.525,-2.094 3.515,-2.777 1.958,-0.669 5.553,-0.656 6.566,1.237 -0.273,-2.244 3.028,-4.077 5.17,-4.439 2.115,-0.358 3.71,0.358 4.55,0.753 l -0.005,-0.003 c 0.012,0.008 0.028,0.015 0.041,0.021 0.011,0.005 0.028,0.013 0.041,0.019 0.838,0.401 2.397,1.178 3.462,3.04 0.728,1.283 1.269,3.404 0.951,5.015 0.064,-0.043 0.136,-0.089 0.192,-0.127 1.826,-1.224 4.63,1.119 5.705,2.938 C 0.111,-2.675 0,-0.012 0,0"
                 inkscape:connector-curvature="0" />
            </g>
            <g
               transform="translate(28.542,23.4585)"
               id="g255">
              <path
                 id="path257"
                 style="fill:#ea596e;fill-opacity:1;fill-rule:nonzero;stroke:none"
                 d="m 0,0 c -1.786,0.997 -4.874,0.434 -6.792,-0.308 -0.266,0.468 -0.621,0.875 -1.051,1.196 1.393,1.607 3.527,4.593 1.468,6.362 -2.191,1.883 -3.74,-2.154 -3.575,-5.605 -0.068,0.003 -0.132,0.02 -0.2,0.02 -1.02,0 -1.94,-0.402 -2.632,-1.045 -1.402,2.277 -3.943,4.244 -5.314,2.392 -1.482,-2.002 1.149,-3.153 4.222,-4.199 -0.09,-0.329 -0.154,-0.668 -0.154,-1.026 0,-0.456 0.093,-0.887 0.237,-1.293 -2.54,-0.733 -6.236,-2.718 -4.209,-4.911 2.121,-2.295 4.471,1.239 5.603,3.053 0.635,-0.454 1.407,-0.727 2.247,-0.727 0.224,0 0.441,0.029 0.655,0.066 -0.109,-4.802 1.443,-7.07 4.036,-5.892 2.295,1.043 -0.137,5.299 -1.781,7.166 0.316,0.362 0.564,0.779 0.729,1.241 C 0.497,-6.054 2.078,-1.159 0,0"
                 inkscape:connector-curvature="0" />
            </g>
            <g
               transform="translate(18.707,19.541)"
               id="g259">
              <path
                 id="path261"
                 style="fill:#be1931;fill-opacity:1;fill-rule:nonzero;stroke:none"
                 d="m 0,0 c -0.679,0 -0.668,0.562 -0.832,1.25 -0.532,2.234 -2.381,6.309 -4.601,9.163 -0.508,0.654 -0.39,1.596 0.264,2.105 0.654,0.508 1.596,0.391 2.105,-0.263 C -0.625,9.119 0.199,4.851 0.918,1.834 1.109,1.028 1.155,0.233 0.349,0.042 0.232,0.014 0.115,0 0,0"
                 inkscape:connector-curvature="0" />
            </g>
            <g
               transform="translate(16.9043,31.6729)"
               id="g263">
              <path
                 id="path265"
                 style="fill:#ffcc4d;fill-opacity:1;fill-rule:nonzero;stroke:none"
                 d="m 0,0 c 0.498,-0.684 0.079,-1.838 -0.936,-2.578 l -0.475,-0.346 c -1.016,-0.74 -2.242,-0.785 -2.741,-0.101 l -2.781,3.816 c -0.498,0.684 -0.079,1.838 0.937,2.578 l 0.475,0.346 c 1.015,0.74 2.242,0.785 2.74,0.101 L 0,0 Z"
                 inkscape:connector-curvature="0" />
            </g>
          </g>
        </g>
      </g>
    </g>
    <g
       transform="matrix(0.30590743,-0.43688109,0.43688109,0.30590743,145.00037,107.39158)"
       id="g267">
      <g
         transform="matrix(1.25,0,0,-1.25,0,47.5)"
         id="g269">
        <g
           id="g271">
          <g
             clip-path="url(#clipPath16)"
             id="g273">
            <g
               transform="translate(6,32)"
               id="g275">
              <path
                 id="path277"
                 style="fill:#ffac33;fill-opacity:1;fill-rule:nonzero;stroke:none"
                 d="M 0,0 6,0 C 7.104,0 8,0.104 8,-1 L 8,1 C 8,2.104 7.104,3 6,3 l -8,0 c -2,0 -3.583,-2.125 -3,-5 0,0 1.791,-9.375 1.917,-9.958 C -2.75,-13.5 -0.958,-15 0.958,-15 l 6.959,0 C 9.021,-15 8,-13.104 8,-12 l 0,2 c 0,-1.104 -0.896,-2 -2,-2 l -4,0 c -1.104,0 -1.833,1.042 -2,2 -0.167,0.958 -1.583,7.333 -1.583,7.333 C -1.917,-0.75 -1.104,0 0,0"
                 inkscape:connector-curvature="0" />
            </g>
            <g
               transform="translate(31.8125,32)"
               id="g279">
              <path
                 id="path281"
                 style="fill:#ffac33;fill-opacity:1;fill-rule:nonzero;stroke:none"
                 d="m 0,0 -6,0 c -1.104,0 -2.813,0.104 -2.813,-1 l 0,2 c 0,1.104 1.709,2 2.813,2 l 8,0 c 2,0 3.584,-2.125 3,-5 0,0 -1.633,-9.419 -1.771,-10 -0.354,-1.5 -2.042,-3 -4,-3 l -7.145,0 c -1.105,0 -0.897,1.896 -0.897,3 l 0,2 c 0,-1.104 1.709,-2 2.813,-2 l 4,0 c 1.104,0 1.834,1.042 2,2 0.166,0.958 1.584,7.333 1.584,7.333 C 1.916,-0.75 1.104,0 0,0"
                 inkscape:connector-curvature="0" />
            </g>
            <g
               transform="translate(21.709,15)"
               id="g283">
              <path
                 id="path285"
                 style="fill:#ffac33;fill-opacity:1;fill-rule:nonzero;stroke:none"
                 d="m 0,0 c 0,6.958 -2.709,0 -2.709,0 0,0 -3,6.958 -3,0 C -5.709,-6.958 -9,-10 -9,-10 l 6.291,0 6,0 C 3.291,-10 0,-6.958 0,0"
                 inkscape:connector-curvature="0" />
            </g>
            <g
               transform="translate(30,30.4233)"
               id="g287">
              <path
                 id="path289"
                 style="fill:#ffcc4d;fill-opacity:1;fill-rule:nonzero;stroke:none"
                 d="m 0,0 c 0,-6.775 -6.77,-18.192 -11,-18.192 -4.231,0 -11,11.417 -11,18.192 0,5.195 1,6.319 3,6.319 1.374,0 6.025,0.027 8,0.027 1.391,0 5.914,0.002 7,0.002 2.917,0 4,-0.685 4,-6.348"
                 inkscape:connector-curvature="0" />
            </g>
            <g
               transform="translate(28,4)"
               id="g291">
              <path
                 id="path293"
                 style="fill:#c1694f;fill-opacity:1;fill-rule:nonzero;stroke:none"
                 d="m 0,0 c 0,-1.104 0.104,-2 -1,-2 l -16,0 c -1.104,0 -1,0.896 -1,2 l 0,1 c 0,1.104 1.042,2 2.083,2 L -2,3 C -0.958,3 0,2.104 0,1 L 0,0 Z"
                 inkscape:connector-curvature="0" />
            </g>
            <g
               transform="translate(30,2.375)"
               id="g295">
              <path
                 id="path297"
                 style="fill:#c1694f;fill-opacity:1;fill-rule:nonzero;stroke:none"
                 d="m 0,0 c 0,-0.76 0.042,-1.375 -1.375,-1.375 l -19.25,0 C -21.917,-1.375 -22,-0.76 -22,0 l 0,0.25 c 0,0.76 0.616,1.375 1.375,1.375 l 19.25,0 C -0.615,1.625 0,1.01 0,0.25 L 0,0 Z"
                 inkscape:connector-curvature="0" />
            </g>
          </g>
        </g>
      </g>
    </g>
    <g
       transform="matrix(-0.33608455,0.68907544,-0.68907544,-0.33608455,133.98472,89.103114)"
       id="g299">
      <g
         transform="matrix(1.25,0,0,-1.25,0,45)"
         id="g301">
        <g
           id="g303">
          <g
             clip-path="url(#clipPath16)"
             id="g305">
            <g
               transform="translate(36,18)"
               id="g307">
              <path
                 id="path309"
                 style="fill:#ffcc4d;fill-opacity:1;fill-rule:nonzero;stroke:none"
                 d="m 0,0 c 0,-9.941 -8.059,-18 -18,-18 -9.94,0 -18,8.059 -18,18 0,9.94 8.06,18 18,18 C -8.059,18 0,9.94 0,0"
                 inkscape:connector-curvature="0" />
            </g>
            <g
               transform="translate(30,22.5)"
               id="g311">
              <path
                 id="path313"
                 style="fill:#f5f8fa;fill-opacity:1;fill-rule:nonzero;stroke:none"
                 d="m 0,0 c 0,-3.037 -2.463,-5.5 -5.5,-5.5 -3.037,0 -5.5,2.463 -5.5,5.5 0,3.037 2.463,5.5 5.5,5.5 C -2.463,5.5 0,3.037 0,0"
                 inkscape:connector-curvature="0" />
            </g>
            <g
               transform="translate(17,22.5)"
               id="g315">
              <path
                 id="path317"
                 style="fill:#f5f8fa;fill-opacity:1;fill-rule:nonzero;stroke:none"
                 d="m 0,0 c 0,-3.037 -2.463,-5.5 -5.5,-5.5 -3.037,0 -5.5,2.463 -5.5,5.5 0,3.037 2.463,5.5 5.5,5.5 C -2.463,5.5 0,3.037 0,0"
                 inkscape:connector-curvature="0" />
            </g>
            <g
               transform="translate(14,25.5)"
               id="g319">
              <path
                 id="path321"
                 style="fill:#664500;fill-opacity:1;fill-rule:nonzero;stroke:none"
                 d="M 0,0 C 0,-1.381 -1.119,-2.5 -2.5,-2.5 -3.881,-2.5 -5,-1.381 -5,0 -5,1.38 -3.881,2.5 -2.5,2.5 -1.119,2.5 0,1.38 0,0"
                 inkscape:connector-curvature="0" />
            </g>
            <g
               transform="translate(27,25.5)"
               id="g323">
              <path
                 id="path325"
                 style="fill:#664500;fill-opacity:1;fill-rule:nonzero;stroke:none"
                 d="M 0,0 C 0,-1.381 -1.119,-2.5 -2.5,-2.5 -3.881,-2.5 -5,-1.381 -5,0 -5,1.38 -3.881,2.5 -2.5,2.5 -1.119,2.5 0,1.38 0,0"
                 inkscape:connector-curvature="0" />
            </g>
            <g
               transform="translate(23,9)"
               id="g327">
              <path
                 id="path329"
                 style="fill:#664500;fill-opacity:1;fill-rule:nonzero;stroke:none"
                 d="m 0,0 -10,0 c -0.552,0 -1,0.447 -1,1 0,0.553 0.448,1 1,1 L 0,2 C 0.553,2 1,1.553 1,1 1,0.447 0.553,0 0,0"
                 inkscape:connector-curvature="0" />
            </g>
          </g>
        </g>
      </g>
    </g>
    <g
       transform="matrix(0.15246857,-0.71730824,0.71730824,0.15246857,105.05226,56.186845)"
       id="g331">
      <g
         transform="matrix(1.25,0,0,-1.25,0,45)"
         id="g333">
        <g
           id="g335">
          <g
             clip-path="url(#clipPath16)"
             id="g337">
            <g
               transform="translate(23.2832,12.7246)"
               id="g339">
              <path
                 id="path341"
                 style="fill:#e1e8ed;fill-opacity:1;fill-rule:nonzero;stroke:none"
                 d="m 0,0 c 0,0 1.374,-1.635 2.733,-10.047 0.143,-0.883 0.202,-1.775 0.217,-2.678 l 9.767,0 0,28.553 c -4.387,3.472 -10.4,4.188 -17.678,1.757 0,0 -5.408,3 -6.147,3.74 -0.719,0.719 -1.857,1.555 -1.235,-0.35 0.364,-1.113 0.764,-2.373 2.359,-4.862 -3.436,-2.036 -4.513,-4.68 -8.558,-13.342 -3.089,-6.616 -4.662,-8.764 -3.805,-11.292 1.13,-3.337 5.316,-5.595 8.844,-3.021 1.919,1.4 2.246,3.913 6.225,6.223 C -3.624,-5.255 0,-3.716 0,0"
                 inkscape:connector-curvature="0" />
            </g>
            <g
               transform="translate(36,29.9878)"
               id="g343">
              <path
                 id="path345"
                 style="fill:#292f33;fill-opacity:1;fill-rule:nonzero;stroke:none"
                 d="M 0,0 C -8.335,5.711 -21.646,4.539 -20.091,-0.178 -10.49,1.684 -4.23,-1.719 0,-7.346 L 0,0 Z"
                 inkscape:connector-curvature="0" />
            </g>
            <g
               transform="translate(19.6631,30.2373)"
               id="g347">
              <path
                 id="path349"
                 style="fill:#292f33;fill-opacity:1;fill-rule:nonzero;stroke:none"
                 d="m 0,0 c -2.878,-0.233 -7.28,-1.765 -9.42,-4.137 0,0 -0.005,5.317 3.69,5.783 C 0.441,2.425 0.078,1.284 0.078,1.284 L 0,0 Z"
                 inkscape:connector-curvature="0" />
            </g>
            <g
               transform="translate(16.3569,34.9438)"
               id="g351">
              <path
                 id="path353"
                 style="fill:#e1e8ed;fill-opacity:1;fill-rule:nonzero;stroke:none"
                 d="M 0,0 C 0.558,-1.155 4.006,-1.79 5.056,-6.029 6.107,-10.269 1.922,-8.979 0.7,-6.884 -0.662,-4.551 -1.128,-2.723 -1.167,-1.206 -1.188,-0.404 -1.128,2.333 0,0"
                 inkscape:connector-curvature="0" />
            </g>
            <g
               transform="translate(16.5962,33.1616)"
               id="g355">
              <path
                 id="path357"
                 style="fill:#66757f;fill-opacity:1;fill-rule:nonzero;stroke:none"
                 d="M 0,0 C 1.103,-0.968 2.448,-2.472 2.65,-3.955 2.852,-5.438 1.525,-4.943 0.914,-3.583 0.302,-2.224 0.161,-0.804 -0.22,-0.35 -0.6,0.104 0,0 0,0"
                 inkscape:connector-curvature="0" />
            </g>
            <g
               transform="translate(16.9399,20.4746)"
               id="g359">
              <path
                 id="path361"
                 style="fill:#292f33;fill-opacity:1;fill-rule:nonzero;stroke:none"
                 d="m 0,0 c 0,-0.687 -0.557,-1.244 -1.245,-1.244 -0.687,0 -1.244,0.557 -1.244,1.244 0,0.687 0.557,1.245 1.244,1.245 C -0.557,1.245 0,0.687 0,0"
                 inkscape:connector-curvature="0" />
            </g>
            <g
               transform="translate(10.3545,26.0757)"
               id="g363">
              <path
                 id="path365"
                 style="fill:#e1e8ed;fill-opacity:1;fill-rule:nonzero;stroke:none"
                 d="m 0,0 c -0.033,0.018 -0.075,0.015 -0.111,0.024 -1.543,-2.032 -2.921,-5.102 -5.49,-10.604 -1.356,-2.903 -2.42,-4.946 -3.116,-6.538 1.628,-0.225 3.285,1.443 3.946,3.272 0.673,1.866 3.215,5.652 4.926,7.778 C 1.867,-3.941 1.716,-0.924 0,0"
                 inkscape:connector-curvature="0" />
            </g>
            <g
               transform="translate(28.1875,29.6875)"
               id="g367">
              <path
                 id="path369"
                 style="fill:#292f33;fill-opacity:1;fill-rule:nonzero;stroke:none"
                 d="m 0,0 c 0,0 -2.296,-6.947 -2.302,-8.947 -0.011,-3.803 -2.686,-7.801 -2.686,-7.801 l 1.342,-3.422 c 0,0 3.25,3.04 3.937,10.228 0.571,5.972 2.566,7.666 2.566,7.666 L 0,0 Z"
                 inkscape:connector-curvature="0" />
            </g>
            <g
               transform="translate(34.0625,26.5625)"
               id="g371">
              <path
                 id="path373"
                 style="fill:#292f33;fill-opacity:1;fill-rule:nonzero;stroke:none"
                 d="M 0,0 C 0,0 -3.006,-3.635 -4.062,-9.563 -5.5,-17.625 -8.92,-19.309 -8.92,-19.309 l 0.482,-2.441 c 0,0 5.282,3.056 6.632,9.115 1.619,7.26 3.743,8.714 3.743,8.714 L 0,0 Z"
                 inkscape:connector-curvature="0" />
            </g>
            <g
               transform="translate(3.25,12.5625)"
               id="g375">
              <path
                 id="path377"
                 style="fill:#292f33;fill-opacity:1;fill-rule:nonzero;stroke:none"
                 d="m 0,0 c 0.687,0.714 3.017,-3.808 4.53,-4.884 1.589,-1.13 5.469,-0.934 5.7,-2.162 -1.667,-1.704 -2.762,-4.272 -4.84,-4.988 -2.077,-0.716 -5.71,-0.677 -7.238,2.647 -1.527,3.325 -0.402,4.7 0.223,6.137 C -1,-1.812 -0.167,-0.312 0,0"
                 inkscape:connector-curvature="0" />
            </g>
            <g
               transform="translate(4.2217,6.083)"
               id="g379">
              <path
                 id="path381"
                 style="fill:#66757f;fill-opacity:1;fill-rule:nonzero;stroke:none"
                 d="m 0,0 c 0,-0.881 -0.532,-1.594 -1.187,-1.594 -0.654,0 -1.186,0.713 -1.186,1.594 0,0.882 0.532,1.596 1.186,1.596 C -0.532,1.596 0,0.882 0,0"
                 inkscape:connector-curvature="0" />
            </g>
            <g
               transform="translate(25.9541,3.0547)"
               id="g383">
              <path
                 id="path385"
                 style="fill:#292f33;fill-opacity:1;fill-rule:nonzero;stroke:none"
                 d="m 0,0 c 0,0 4.608,1.57 6.108,3.383 1.5,1.812 3.938,5.562 3.938,5.562 l 0,-6.375 c 0,0 -1.188,-1.625 -3.688,-2.937 C 4.773,-1.199 0.267,-2.618 0.267,-2.618 L 0,0 Z"
                 inkscape:connector-curvature="0" />
            </g>
            <g
               transform="translate(25.0098,29.9204)"
               id="g387">
              <path
                 id="path389"
                 style="fill:#292f33;fill-opacity:1;fill-rule:nonzero;stroke:none"
                 d="m 0,0 c 0,0 -0.947,-2.92 -1.197,-5.92 -0.25,-3 -1.125,-4.875 -1.938,-6.188 0.313,4.25 -0.687,5.875 -0.125,8.125 0.563,2.25 0.87,4.32 0.87,4.32 0,0 0.63,0.368 1.255,0.305 C -0.51,0.58 0,0 0,0"
                 inkscape:connector-curvature="0" />
            </g>
            <g
               transform="translate(4.7534,15.4961)"
               id="g391">
              <path
                 id="path393"
                 style="fill:#292f33;fill-opacity:1;fill-rule:nonzero;stroke:none"
                 d="m 0,0 c 0,0 3.934,0.379 5.747,-0.871 1.812,-1.25 5.331,-7.323 5.331,-7.323 L 9.944,-8.947 c 0,0 -1.697,4.638 -4.76,6.076 -3.062,1.437 -6,1.187 -6,1.187 L 0,0 Z"
                 inkscape:connector-curvature="0" />
            </g>
            <g
               transform="translate(5.605,17.3218)"
               id="g395">
              <path
                 id="path397"
                 style="fill:#292f33;fill-opacity:1;fill-rule:nonzero;stroke:none"
                 d="m 0,0 c 0,0 5.516,0.358 6.958,-1.509 2.75,-3.563 3.831,-5.01 4.446,-8.349 l 1.785,0.307 C 12.395,-6.634 10.583,-1.447 7.27,0.741 3.958,2.928 1.02,2.428 1.02,2.428 L 0,0 Z"
                 inkscape:connector-curvature="0" />
            </g>
            <g
               transform="translate(17.875,23.3125)"
               id="g399">
              <path
                 id="path401"
                 style="fill:#292f33;fill-opacity:1;fill-rule:nonzero;stroke:none"
                 d="M 0,0 C -0.625,-0.687 2,-3.313 1.125,-5.5 0.25,-7.687 0.75,-10.75 1.25,-12.125 c 0.5,-1.375 1.26,-2.839 1.26,-2.839 l 1.622,1.146 c 0,0 -0.257,1.505 -1.007,3.693 -0.75,2.188 -0.687,2.25 -0.375,4.438 C 3.063,-3.5 0.625,0.687 0,0"
                 inkscape:connector-curvature="0" />
            </g>
            <g
               transform="translate(15.0454,29.1714)"
               id="g403">
              <path
                 id="path405"
                 style="fill:#292f33;fill-opacity:1;fill-rule:nonzero;stroke:none"
                 d="m 0,0 c 0,0 1.142,-2.046 1.08,-3.046 -0.063,-1 -0.063,-2.688 -0.625,-3.063 -0.563,-0.375 -0.813,2 -1.188,3.063 -0.375,1.062 -1.064,2.257 -1.064,2.257 0,0 1.468,1.429 1.797,0.789"
                 inkscape:connector-curvature="0" />
            </g>
            <g
               transform="translate(11.501,27.3809)"
               id="g407">
              <path
                 id="path409"
                 style="fill:#292f33;fill-opacity:1;fill-rule:nonzero;stroke:none"
                 d="m 0,0 c 0,0 1.793,-1.398 1.73,-2.398 -0.062,-1 1.144,-2.608 0.581,-2.983 -0.562,-0.375 -1.937,1.25 -2.312,2.313 -0.375,1.062 -1.257,1.787 -1.257,1.787 0,0 0.929,1.921 1.258,1.281"
                 inkscape:connector-curvature="0" />
            </g>
            <g
               transform="translate(8.9375,24.1875)"
               id="g411">
              <path
                 id="path413"
                 style="fill:#292f33;fill-opacity:1;fill-rule:nonzero;stroke:none"
                 d="m 0,0 c 0,0 1.522,-0.981 1.937,-1.75 0.416,-0.768 2.111,-1.387 1.938,-1.875 -0.173,-0.488 -1.977,0.098 -2.688,0.75 -0.71,0.652 -2.345,0.579 -2.345,0.579 L 0,0 Z"
                 inkscape:connector-curvature="0" />
            </g>
          </g>
        </g>
      </g>
    </g>
    <g
       transform="matrix(0.32400733,-0.69483597,0.69483597,0.32400733,46.573679,107.65421)"
       id="g415">
      <g
         transform="matrix(1.25,0,0,-1.25,0,47.5)"
         id="g417">
        <g
           id="g419">
          <g
             clip-path="url(#clipPath16)"
             id="g421">
            <g
               transform="translate(26,2)"
               id="g423">
              <path
                 id="path425"
                 style="fill:#292f33;fill-opacity:1;fill-rule:nonzero;stroke:none"
                 d="M 0,0 C -2.75,0 -2,6 -2,6 -2,7.104 0.646,8 1.75,8 2.854,8 5,8.104 5,7 5,7 2.75,0 0,0"
                 inkscape:connector-curvature="0" />
            </g>
            <g
               transform="translate(29,1)"
               id="g427">
              <path
                 id="path429"
                 style="fill:#66757f;fill-opacity:1;fill-rule:nonzero;stroke:none"
                 d="M 0,0 C -2.75,0 -2,6 -2,6 -2,7.104 0.646,8 1.75,8 2.854,8 5,8.104 5,7 5,7 2.75,0 0,0"
                 inkscape:connector-curvature="0" />
            </g>
            <g
               transform="translate(15,2)"
               id="g431">
              <path
                 id="path433"
                 style="fill:#292f33;fill-opacity:1;fill-rule:nonzero;stroke:none"
                 d="m 0,0 c -2.75,0 -4,6 -4,6 0,1.104 2.646,2 3.75,2 C 0.854,8 3,8.104 3,7 3,7 2.75,0 0,0"
                 inkscape:connector-curvature="0" />
            </g>
            <g
               transform="translate(18,1)"
               id="g435">
              <path
                 id="path437"
                 style="fill:#66757f;fill-opacity:1;fill-rule:nonzero;stroke:none"
                 d="m 0,0 c -2.75,0 -4,6 -4,6 0,1.104 2.646,2 3.75,2 C 0.854,8 3,8.104 3,7 3,7 2.75,0 0,0"
                 inkscape:connector-curvature="0" />
            </g>
            <g
               transform="translate(36.75,15.6162)"
               id="g439">
              <path
                 id="path441"
                 style="fill:#e1e8ed;fill-opacity:1;fill-rule:nonzero;stroke:none"
                 d="M 0,0 C 0,-7.782 -4.495,-11.408 -14.519,-11.408 -24.542,-11.408 -28,-7.782 -28,0 c 0,7.783 3.458,11.407 13.481,11.407 C -4.495,11.407 0,7.783 0,0"
                 inkscape:connector-curvature="0" />
            </g>
            <g
               transform="translate(18,19.333)"
               id="g443">
              <path
                 id="path445"
                 style="fill:#99aab5;fill-opacity:1;fill-rule:nonzero;stroke:none"
                 d="m 0,0 c 0,-9.333 -4.655,-11.333 -8.958,-11.333 -4.304,0 -7.042,6.64 -7.042,11.333 0,4.694 2.738,5.667 7.042,5.667 C -4.655,5.667 0,4.694 0,0"
                 inkscape:connector-curvature="0" />
            </g>
            <g
               transform="translate(7,16.5)"
               id="g447">
              <path
                 id="path449"
                 style="fill:#292f33;fill-opacity:1;fill-rule:nonzero;stroke:none"
                 d="M 0,0 C 0,-0.828 -0.671,-1.5 -1.5,-1.5 -2.329,-1.5 -3,-0.828 -3,0 -3,0.828 -2.329,1.5 -1.5,1.5 -0.671,1.5 0,0.828 0,0"
                 inkscape:connector-curvature="0" />
            </g>
            <g
               transform="translate(16.75,24.25)"
               id="g451">
              <path
                 id="path453"
                 style="fill:#e1e8ed;fill-opacity:1;fill-rule:nonzero;stroke:none"
                 d="m 0,0 c -1.75,-3.25 -2.128,-2.606 -7.128,-4.606 -3.077,-1.231 -8.622,-0.894 -8.622,3.856 0,1.933 3.687,2.5 7,2.5 C -5.437,1.75 1.659,3.082 0,0"
                 inkscape:connector-curvature="0" />
            </g>
            <g
               transform="translate(17,23.3042)"
               id="g455">
              <path
                 id="path457"
                 style="fill:#ffcc4d;fill-opacity:1;fill-rule:nonzero;stroke:none"
                 d="m 0,0 c 3.353,-2.427 5.43,-6.139 3.724,-11.089 -1.368,-3.967 -6.817,-3.116 -9.617,-1.127 -2.798,1.988 -2.642,4.792 -1.733,6.291 0.909,1.497 4.158,1.228 6.024,-0.097 0.934,-0.663 0.288,-1.56 -0.72,-1.068 -2.292,1.118 -3.037,-1.444 -1.246,-2.882 1.265,-1.016 3.274,-1.049 3.655,1.01 0.671,3.629 -3.505,6.274 -7.465,5.301 C -5,-2.304 -2.839,2.055 0,0"
                 inkscape:connector-curvature="0" />
            </g>
          </g>
        </g>
      </g>
    </g>
    <g
       transform="matrix(0.93276477,0.03257286,-0.03257286,0.93276477,86.731116,133.45915)"
       id="g459">
      <g
         transform="matrix(1.25,0,0,-1.25,0,47.5)"
         id="g461">
        <g
           id="g463">
          <g
             clip-path="url(#clipPath16)"
             id="g465">
            <g
               transform="translate(37,35)"
               id="g467">
              <path
                 id="path469"
                 style="fill:#aa8ed6;fill-opacity:1;fill-rule:nonzero;stroke:none"
                 d="M 0,0 C 0,0.809 -0.487,1.538 -1.234,1.848 -1.984,2.158 -2.842,1.987 -3.414,1.414 -4.3,0.528 -7.411,-2 -10,-2 c -10e-4,0 -0.002,0 -0.004,0 -2.384,1.273 -5.104,2 -7.996,2 -2.892,0 -5.612,-0.727 -7.996,-2 -0.002,0 -0.003,0 -0.004,0 -2.58,0 -5.631,2.466 -6.586,3.414 -0.571,0.572 -1.433,0.744 -2.179,0.434 C -35.513,1.538 -36,0.809 -36,0 c 0,-2.384 0.795,-6.229 3.359,-8.391 C -34.13,-10.918 -35,-13.854 -35,-17 c 0,-9.389 7.612,-17 17,-17 9.389,0 17,7.611 17,17 0,3.146 -0.87,6.082 -2.359,8.609 C -0.795,-6.229 0,-2.384 0,0"
                 inkscape:connector-curvature="0" />
            </g>
            <g
               transform="translate(28.335,11.3711)"
               id="g471">
              <path
                 id="path473"
                 style="fill:#553986;fill-opacity:1;fill-rule:nonzero;stroke:none"
                 d="m 0,0 c -0.178,0.161 -0.444,0.171 -0.635,0.029 -0.039,-0.029 -3.922,-2.9 -8.7,-2.9 -4.766,0 -8.662,2.871 -8.7,2.9 -0.191,0.142 -0.457,0.13 -0.635,-0.029 -0.177,-0.16 -0.217,-0.424 -0.094,-0.628 0.129,-0.215 3.217,-5.243 9.429,-5.243 6.212,0 9.301,5.028 9.429,5.243 C 0.217,-0.423 0.178,-0.16 0,0"
                 inkscape:connector-curvature="0" />
            </g>
            <g
               transform="translate(16.707,18.707)"
               id="g475">
              <path
                 id="path477"
                 style="fill:#553986;fill-opacity:1;fill-rule:nonzero;stroke:none"
                 d="m 0,0 c -3.255,3.255 -8.486,3.293 -8.707,3.293 -0.552,0 -0.999,-0.447 -0.999,-0.999 -0.001,-0.551 0.446,-1 0.998,-1.001 0.029,0 1.925,-0.022 3.983,-0.737 -0.593,-0.64 -0.982,-1.634 -0.982,-2.763 0,-1.934 1.119,-3.5 2.5,-3.5 1.381,0 2.5,1.566 2.5,3.5 0,0.174 -0.019,0.34 -0.037,0.507 0.013,0 0.025,-0.007 0.037,-0.007 0.256,0 0.512,0.098 0.707,0.293 0.391,0.391 0.391,1.023 0,1.414"
                 inkscape:connector-curvature="0" />
            </g>
            <g
               transform="translate(30,22)"
               id="g479">
              <path
                 id="path481"
                 style="fill:#553986;fill-opacity:1;fill-rule:nonzero;stroke:none"
                 d="m 0,0 c -0.221,0 -5.451,-0.038 -8.707,-3.293 -0.391,-0.391 -0.391,-1.023 0,-1.414 C -8.512,-4.902 -8.256,-5 -8,-5 c 0.013,0 0.024,0.007 0.036,0.007 C -7.98,-5.16 -8,-5.326 -8,-5.5 -8,-7.434 -6.881,-9 -5.5,-9 c 1.381,0 2.5,1.566 2.5,3.5 0,1.129 -0.389,2.123 -0.982,2.763 C -1.924,-2.022 -0.028,-2 0.002,-2 0.553,-1.999 1,-1.55 0.999,-0.999 0.998,-0.447 0.552,0 0,0"
                 inkscape:connector-curvature="0" />
            </g>
          </g>
        </g>
      </g>
    </g>
    <g
       transform="matrix(0.53333333,0,0,0.53333333,92.644661,49.977291)"
       id="g483">
      <g
         transform="matrix(1.25,0,0,-1.25,0,47.5)"
         id="g485">
        <g
           id="g487">
          <g
             clip-path="url(#clipPath16)"
             id="g489">
            <g
               transform="translate(3.4717,30.4277)"
               id="g491">
              <path
                 id="path493"
                 style="fill:#5c913b;fill-opacity:1;fill-rule:nonzero;stroke:none"
                 d="m 0,0 c -0.943,-2.125 -1.472,-4.466 -1.472,-6.928 0,-9.665 8.059,-17.5 18,-17.5 7.746,0 14.33,4.767 16.868,11.441 L 0,0 Z"
                 inkscape:connector-curvature="0" />
            </g>
            <g
               transform="translate(5.3315,29.7046)"
               id="g495">
              <path
                 id="path497"
                 style="fill:#ffe8b6;fill-opacity:1;fill-rule:nonzero;stroke:none"
                 d="m 0,0 c -0.853,-1.902 -1.332,-3.998 -1.332,-6.205 0,-8.59 7.164,-15.555 16,-15.555 6.905,0 12.77,4.26 15.013,10.218 L 0,0 Z"
                 inkscape:connector-curvature="0" />
            </g>
            <g
               transform="translate(7.1909,28.9814)"
               id="g499">
              <path
                 id="path501"
                 style="fill:#dd2e44;fill-opacity:1;fill-rule:nonzero;stroke:none"
                 d="m 0,0 c -0.761,-1.678 -1.191,-3.53 -1.191,-5.481 0,-7.518 6.268,-13.612 14,-13.612 6.063,0 11.21,3.753 13.156,8.995 L 0,0 Z"
                 inkscape:connector-curvature="0" />
            </g>
            <g
               transform="translate(10.916,22.7227)"
               id="g503">
              <path
                 id="path505"
                 style="fill:#000000;fill-opacity:1;fill-rule:nonzero;stroke:none"
                 d="m 0,0 c -0.307,-0.46 -0.741,-0.708 -0.971,-0.555 -0.23,0.154 -0.168,0.65 0.139,1.11 0.307,0.46 0.741,0.708 0.971,0.554 C 0.369,0.956 0.307,0.46 0,0"
                 inkscape:connector-curvature="0" />
            </g>
            <g
               transform="translate(16.916,21.7227)"
               id="g507">
              <path
                 id="path509"
                 style="fill:#000000;fill-opacity:1;fill-rule:nonzero;stroke:none"
                 d="m 0,0 c -0.307,-0.46 -0.741,-0.708 -0.971,-0.555 -0.23,0.154 -0.168,0.65 0.139,1.11 0.307,0.46 0.741,0.708 0.971,0.554 C 0.369,0.956 0.307,0.46 0,0"
                 inkscape:connector-curvature="0" />
            </g>
            <g
               transform="translate(21.998,17.0449)"
               id="g511">
              <path
                 id="path513"
                 style="fill:#000000;fill-opacity:1;fill-rule:nonzero;stroke:none"
                 d="m 0,0 c 0.05,-0.551 -0.132,-1.016 -0.406,-1.041 -0.276,-0.025 -0.538,0.4 -0.588,0.951 -0.051,0.551 0.132,1.016 0.406,1.04 C -0.312,0.977 -0.05,0.552 0,0"
                 inkscape:connector-curvature="0" />
            </g>
            <g
               transform="translate(12.998,19.0449)"
               id="g515">
              <path
                 id="path517"
                 style="fill:#000000;fill-opacity:1;fill-rule:nonzero;stroke:none"
                 d="m 0,0 c 0.05,-0.551 -0.132,-1.016 -0.406,-1.041 -0.276,-0.025 -0.538,0.4 -0.588,0.951 -0.05,0.551 0.132,1.016 0.406,1.04 C -0.312,0.977 -0.05,0.552 0,0"
                 inkscape:connector-curvature="0" />
            </g>
            <g
               transform="translate(16.8994,13.6992)"
               id="g519">
              <path
                 id="path521"
                 style="fill:#000000;fill-opacity:1;fill-rule:nonzero;stroke:none"
                 d="m 0,0 c -0.333,-0.441 -0.78,-0.663 -1,-0.497 -0.222,0.166 -0.129,0.658 0.204,1.099 0.334,0.441 0.781,0.663 1,0.497 C 0.426,0.933 0.334,0.441 0,0"
                 inkscape:connector-curvature="0" />
            </g>
            <g
               transform="translate(24.9355,13.2451)"
               id="g523">
              <path
                 id="path525"
                 style="fill:#000000;fill-opacity:1;fill-rule:nonzero;stroke:none"
                 d="m 0,0 c 0.272,-0.481 0.299,-0.979 0.06,-1.115 -0.242,-0.137 -0.657,0.142 -0.929,0.624 -0.274,0.48 -0.299,0.978 -0.059,1.115 C -0.687,0.762 -0.273,0.482 0,0"
                 inkscape:connector-curvature="0" />
            </g>
            <g
               transform="translate(17.918,18.2734)"
               id="g527">
              <path
                 id="path529"
                 style="fill:#000000;fill-opacity:1;fill-rule:nonzero;stroke:none"
                 d="M 0,0 C 0.303,-0.463 0.362,-0.958 0.131,-1.109 -0.1,-1.262 -0.532,-1.01 -0.835,-0.547 -1.138,-0.085 -1.196,0.411 -0.966,0.562 -0.735,0.715 -0.303,0.464 0,0"
                 inkscape:connector-curvature="0" />
            </g>
            <g
               transform="translate(26.8994,16.6992)"
               id="g531">
              <path
                 id="path533"
                 style="fill:#000000;fill-opacity:1;fill-rule:nonzero;stroke:none"
                 d="m 0,0 c -0.333,-0.441 -0.78,-0.663 -1.001,-0.497 -0.221,0.166 -0.129,0.658 0.205,1.099 0.333,0.442 0.78,0.663 1,0.497 C 0.426,0.933 0.335,0.441 0,0"
                 inkscape:connector-curvature="0" />
            </g>
          </g>
        </g>
      </g>
    </g>
  </g>
</svg>
