<?xml version="1.0" encoding="UTF-8" standalone="no"?>
<svg
   xmlns:dc="http://purl.org/dc/elements/1.1/"
   xmlns:cc="http://creativecommons.org/ns#"
   xmlns:rdf="http://www.w3.org/1999/02/22-rdf-syntax-ns#"
   xmlns:svg="http://www.w3.org/2000/svg"
   xmlns="http://www.w3.org/2000/svg"
   xmlns:sodipodi="http://sodipodi.sourceforge.net/DTD/sodipodi-0.dtd"
   xmlns:inkscape="http://www.inkscape.org/namespaces/inkscape"
   version="1.1"
   id="svg2"
   viewBox="0 0 200 200"
   height="200px"
   width="200px"
   inkscape:version="0.91 r13725"
   sodipodi:docname="41.svg">
  <metadata
     id="metadata548">
    <rdf:RDF>
      <cc:Work
         rdf:about="">
        <dc:format>image/svg+xml</dc:format>
        <dc:type
           rdf:resource="http://purl.org/dc/dcmitype/StillImage" />
      </cc:Work>
    </rdf:RDF>
  </metadata>
  <sodipodi:namedview
     pagecolor="#ffffff"
     bordercolor="#666666"
     borderopacity="1"
     objecttolerance="10"
     gridtolerance="10"
     guidetolerance="10"
     inkscape:pageopacity="0"
     inkscape:pageshadow="2"
     inkscape:window-width="1920"
     inkscape:window-height="1060"
     id="namedview546"
     showgrid="false"
     inkscape:zoom="3.337544"
     inkscape:cx="131.5172"
     inkscape:cy="81.895575"
     inkscape:window-x="0"
     inkscape:window-y="0"
     inkscape:window-maximized="1"
     inkscape:current-layer="layer1" />
  
    
    
    <defs id="defs6">

        <clipPath
           id="clipPath28"
           clipPathUnits="userSpaceOnUse">
          <path
             id="path30"
             d="M 4,36 C 0,36 0,32 0,32 L 0,32 0,4 C 0,0 4,0 4,0 l 0,0 28,0 c 4,0 4,4 4,4 l 0,0 0,28 c 0,4 -4,4 -4,4 l 0,0 -28,0 z" />
        </clipPath>


        <clipPath clipPathUnits="userSpaceOnUse" id="clipPath16-rugby">
            <path d="M 0,38 38,38 38,0 0,0 0,38 Z" id="path18"/>
        </clipPath>
        <clipPath clipPathUnits="userSpaceOnUse" id="clipPath28-rugby">
            <path d="M 9.254,28.746 C 2.09,21.582 -0.927,9.561 3.929,3.929 l 0,0 C 9.561,-0.927 21.582,2.09 28.746,9.254 l 0,0 c 7.164,7.164 11.229,17.088 5.324,24.816 l 0,0 c -1.886,1.627 -4.489,2.371 -7.387,2.37 l 0,0 c -5.752,0 -12.665,-2.93 -17.429,-7.694" id="path30"/>
        </clipPath>

        <clipPath clipPathUnits="userSpaceOnUse" id="clipPath16-carrot">
            <path d="M 0,36 36,36 36,0 0,0 0,36 Z" id="path18"/>
        </clipPath>
        <clipPath clipPathUnits="userSpaceOnUse" id="clipPath32-carrot">
            <path d="M 11.815,23.013 C 4.2,15.397 -1.265,2.86 0.502,1.093 l 0,0 c 1.768,-1.768 14.305,3.698 21.92,11.313 l 0,0 c 7.616,7.615 7.562,11.53 4.243,14.85 l 0,0 c -1.328,1.328 -2.752,2.133 -4.47,2.133 l 0,0 c -2.575,0 -5.812,-1.809 -10.38,-6.376" id="path34"/>
        </clipPath>

        <clipPath clipPathUnits="userSpaceOnUse" id="clipPath32-hat">
            <path d="m 5,33.666 c 0,-0.034 0.018,-0.067 0.022,-0.101 l 0,0 C 5.008,33.455 5,33.335 5,33.2 l 0,0 L 6.802,9.616 C 3.299,8.705 1,7.424 1,6 L 1,6 C 1,3.238 9.611,1 19,1 l 0,0 c 9.389,0 18,2.238 18,5 l 0,0 c 0,1.424 -2.298,2.705 -5.801,3.616 l 0,0 L 33,33.184 c 0,0.135 -0.008,0.263 -0.021,0.373 l 0,0 C 32.982,33.591 33,33.632 33,33.666 l 0,0 c 0,1.805 -6.268,3.267 -14,3.267 l 0,0 c -7.732,0 -14,-1.462 -14,-3.267" id="path34"/>
        </clipPath>


        <clipPath clipPathUnits="userSpaceOnUse" id="clipPath48-soccer">
            <path d="M 1,19 C 1,9.059 9.059,1 19,1 l 0,0 c 9.941,0 18,8.059 18,18 l 0,0 c 0,9.941 -8.059,18 -18,18 l 0,0 C 9.059,37 1,28.941 1,19" id="path50"/>
        </clipPath>

        <clipPath clipPathUnits="userSpaceOnUse" id="clipPath28-baguette">
            <path d="M 24.052,31.33 5.126,12.406 C 1.342,8.62 1.288,4.133 2.856,2.564 l 0,0 C 4.424,0.997 8.912,1.049 12.697,4.835 l 0,0 18.925,18.924 c 3.784,3.785 3.837,8.273 2.269,9.841 l 0,0 c -0.605,0.606 -1.647,0.969 -2.915,0.969 l 0,0 c -2.014,0 -4.602,-0.917 -6.924,-3.239" id="path30"/>
        </clipPath>
    </defs>



  <g
     id="layer1">
    <circle
       style="opacity:1;fill:white;stroke:black;stroke-width:1;stroke-miterlimit:4;stroke-dasharray:none;stroke-opacity:0.1"
       id="path4039-0-9"
       cx="100px"
       cy="100px"
       r="90px" />
    <g
       transform="matrix(-0.37735479,-0.32802951,0.32802951,-0.37735479,135.87484,58.069856)"
       id="g8">
      <g
         transform="matrix(1.25,0,0,-1.25,0,47.5)"
         id="g10">
        <g
           id="g12">
          <g
             clip-path="url(#clipPath16)"
             id="g14">
            <g
               transform="translate(36,19)"
               id="g20">
              <path
                 id="path22"
                 style="fill:#ffcc4d;fill-opacity:1;fill-rule:nonzero;stroke:none"
                 d="m 0,0 c 0,-9.389 -7.611,-17 -17,-17 -9.388,0 -17,7.611 -17,17 0,9.388 7.612,17 17,17 C -7.611,17 0,9.388 0,0"
                 inkscape:connector-curvature="0" />
            </g>
            <g
               transform="translate(15,20.5)"
               id="g24">
              <path
                 id="path26"
                 style="fill:#664500;fill-opacity:1;fill-rule:nonzero;stroke:none"
                 d="M 0,0 C 0,-1.934 -1.119,-3.5 -2.5,-3.5 -3.881,-3.5 -5,-1.934 -5,0 -5,1.933 -3.881,3.5 -2.5,3.5 -1.119,3.5 0,1.933 0,0"
                 inkscape:connector-curvature="0" />
            </g>
            <g
               transform="translate(29.457,19.2031)"
               id="g28">
              <path
                 id="path18"
                 style="fill:#664500;fill-opacity:1;fill-rule:nonzero;stroke:none"
                 d="m 0,0 c -0.059,0.135 -1.499,3.297 -4.457,3.297 -2.957,0 -4.397,-3.162 -4.457,-3.297 -0.092,-0.207 -0.032,-0.449 0.144,-0.591 0.175,-0.142 0.426,-0.147 0.611,-0.014 0.012,0.009 1.262,0.902 3.702,0.902 2.426,0 3.674,-0.881 3.702,-0.901 0.088,-0.066 0.194,-0.099 0.298,-0.099 0.11,0 0.221,0.037 0.312,0.109 C 0.032,-0.452 0.093,-0.208 0,0"
                 inkscape:connector-curvature="0" />
            </g>
            <g
               transform="translate(6.999,24.542)"
               id="g32">
              <path
                 id="path34"
                 style="fill:#664500;fill-opacity:1;fill-rule:nonzero;stroke:none"
                 d="m 0,0 c -0.208,0 -0.419,0.065 -0.599,0.2 -0.442,0.331 -0.531,0.958 -0.2,1.4 3.262,4.35 7.616,4.4 7.8,4.4 0.552,0 1,-0.448 1,-1 C 8.001,4.449 7.556,4.002 7.005,4 6.85,3.998 3.436,3.914 0.801,0.4 0.604,0.138 0.304,0 0,0"
                 inkscape:connector-curvature="0" />
            </g>
            <g
               transform="translate(30.001,22.4165)"
               id="g36">
              <path
                 id="path38"
                 style="fill:#664500;fill-opacity:1;fill-rule:nonzero;stroke:none"
                 d="M 0,0 C -0.305,0 -0.605,0.138 -0.801,0.4 -3.393,3.856 -7.762,3.027 -7.805,3.02 -8.352,2.912 -8.873,3.263 -8.982,3.804 -9.09,4.345 -8.738,4.872 -8.197,4.98 -7.967,5.027 -2.54,6.052 0.799,1.6 1.131,1.158 1.041,0.531 0.599,0.2 0.419,0.065 0.209,0 0,0"
                 inkscape:connector-curvature="0" />
            </g>
            <g
               transform="translate(24.2539,13.4229)"
               id="g40">
              <path
                 id="path42"
                 style="fill:#664500;fill-opacity:1;fill-rule:nonzero;stroke:none"
                 d="m 0,0 c -0.187,0.11 -0.432,0.087 -0.597,-0.06 -0.009,-0.007 -1.013,-0.863 -4.657,-0.863 -3.641,0 -4.645,0.854 -4.646,0.854 -0.16,0.16 -0.405,0.19 -0.601,0.082 -0.195,-0.112 -0.293,-0.339 -0.238,-0.557 0.011,-0.044 1.145,-4.379 5.485,-4.379 4.34,0 5.474,4.335 5.485,4.379 C 0.284,-0.331 0.187,-0.113 0,0"
                 inkscape:connector-curvature="0" />
            </g>
          </g>
        </g>
      </g>
    </g>
    <g
       transform="translate(28.5 65.5) rotate(71 15 15) scale(0.8333333333333334)"
       id="g26">
      <g
         transform="matrix(1.25,0,0,-1.25,0,45)"
         id="g29">
        <g
           id="g31">
          <g
             clip-path="url(#clipPath16)"
             id="g33">
            <g
               transform="translate(5.001,8)"
               id="g35">
              <path
                 id="path37"
                 style="fill:#f7dece;fill-opacity:1;fill-rule:nonzero;stroke:none"
                 d="m 0,0 c -0.367,0 -0.72,0.202 -0.896,0.553 -0.247,0.494 -0.046,1.094 0.448,1.342 l 5.544,2.772 0.917,5.498 c 0.091,0.543 0.605,0.912 1.151,0.821 0.544,-0.09 0.912,-0.606 0.821,-1.151 l -1,-5.999 C 6.933,3.521 6.732,3.249 6.446,3.105 l -6,-3 C 0.303,0.034 0.15,0 0,0" />
            </g>
            <g
               transform="translate(30.999,8)"
               id="g39">
              <path
                 id="path41"
                 style="fill:#f7dece;fill-opacity:1;fill-rule:nonzero;stroke:none"
                 d="m 0,0 c -0.15,0 -0.303,0.034 -0.446,0.105 l -6,3 c -0.286,0.144 -0.487,0.416 -0.539,0.731 l -1,5.999 c -0.091,0.545 0.277,1.061 0.822,1.151 0.543,0.091 1.06,-0.277 1.15,-0.821 L -5.097,4.667 0.448,1.895 C 0.942,1.647 1.143,1.047 0.896,0.553 0.72,0.202 0.367,0 0,0" />
            </g>
            <g
               transform="translate(23,4.25)"
               id="g43">
              <path
                 id="path45"
                 style="fill:#4289c1;fill-opacity:1;fill-rule:nonzero;stroke:none"
                 d="m 0,0 c 0,0 0,-1.25 -5,-1.25 -5,0 -5,1.25 -5,1.25 l 0,5.5 10,0 L 0,0 Z" />
            </g>
            <g
               transform="translate(18.9997,36)"
               id="g47">
              <path
                 id="path49"
                 style="fill:#292f33;fill-opacity:1;fill-rule:nonzero;stroke:none"
                 d="M 0,0 C -1.264,0 -2.435,-0.393 -3.402,-1.061 -3.598,-1.031 -3.795,-1 -4,-1 -6.208,-1 -8,-2.791 -8,-5 l 0,-4 c 0,-3.866 3.134,-7 7,-7 3.867,0 7,3.134 7,7 l 0,2.999 C 6,-2.686 3.314,0 0,0" />
            </g>
            <g
               transform="translate(23,21)"
               id="g51">
              <path
                 id="path53"
                 style="fill:#9268ca;fill-opacity:1;fill-rule:nonzero;stroke:none"
                 d="m 0,0 -3,0 -2,0 -2,0 -3,0 c -2.563,0 -2.458,-4 -2.458,-4 l 2.458,0 0,-9 5,0 5,0 0,9 2.458,0 c 0,0 0.105,4 -2.458,4" />
            </g>
            <g
               transform="translate(16.0002,25)"
               id="g55">
              <path
                 id="path57"
                 style="fill:#f7dece;fill-opacity:1;fill-rule:nonzero;stroke:none"
                 d="m 0,0 0,-4 c 0,-1.104 0.896,-2 2,-2 1.105,0 2,0.896 2,2 L 4,0 0,0 Z" />
            </g>
            <g
               transform="translate(16.0002,33)"
               id="g44">
              <path
                 id="path46"
                 style="fill:#f7dece;fill-opacity:1;fill-rule:nonzero;stroke:none"
                 d="M 0,0 0,0 C 0,0 -0.011,-3.285 -3,-3.894 L -3,-6 l 0,0 c 0,-2.763 2.238,-5 4.999,-5 C 4.761,-11 7,-8.763 7,-6 l 0,0 0,2.032 C 0.019,-3.644 0,0 0,0" />
            </g>
            <g
               transform="translate(20.0002,24)"
               id="g48">
              <path
                 id="path50"
                 style="fill:#df1f32;fill-opacity:1;fill-rule:nonzero;stroke:none"
                 d="m 0,0 -2,0 -2,0 c 0,0 0,-1 2,-1 2,0 2,1 2,1" />
            </g>
            <g
               transform="translate(16.0002,27.5)"
               id="g52">
              <path
                 id="path54"
                 style="fill:#662113;fill-opacity:1;fill-rule:nonzero;stroke:none"
                 d="M 0,0 C 0,-0.276 -0.224,-0.5 -0.5,-0.5 -0.776,-0.5 -1,-0.276 -1,0 -1,0.276 -0.776,0.5 -0.5,0.5 -0.224,0.5 0,0.276 0,0" />
            </g>
            <g
               transform="translate(21.0002,27.5)"
               id="g56">
              <path
                 id="path58"
                 style="fill:#662113;fill-opacity:1;fill-rule:nonzero;stroke:none"
                 d="M 0,0 C 0,-0.276 -0.224,-0.5 -0.5,-0.5 -0.776,-0.5 -1,-0.276 -1,0 -1,0.276 -0.776,0.5 -0.5,0.5 -0.224,0.5 0,0.276 0,0" />
            </g>
            <g
               transform="translate(17.0002,26)"
               id="g60">
              <path
                 id="path62"
                 style="fill:#c1694f;fill-opacity:1;fill-rule:nonzero;stroke:none"
                 d="M 0,0 1,0 2,0 C 2,0 2,-1 1,-1 0,-1 0,0 0,0" />
            </g>
            <g
               transform="translate(8.4173,1.444)"
               id="g64">
              <path
                 id="path66"
                 style="fill:#f7dece;fill-opacity:1;fill-rule:nonzero;stroke:none"
                 d="m 0,0 c 0.308,-0.769 1.181,-1.142 1.95,-0.834 l 12.395,3.803 c 0,0 3.49,-0.701 3.351,1.294 C 17.589,5.783 15.11,6.508 13.229,5.754 11.348,5 0.834,1.95 0.834,1.95 0.065,1.642 -0.308,0.769 0,0" />
            </g>
            <g
               transform="translate(25.7557,5.3924)"
               id="g68">
              <path
                 id="path70"
                 style="fill:#eec2ad;fill-opacity:1;fill-rule:nonzero;stroke:none"
                 d="m 0,0 c -0.212,0.689 -2.021,0.422 -2.456,0.303 -0.435,-0.12 -12.469,-3.845 -13.453,-4.16 -0.924,-0.296 -0.364,-1.06 0.087,-1.027 0.033,0.009 0.067,0.01 0.099,0.021 l 11.768,3.586 c 0.877,0.274 1.884,0.166 2.719,0.244 0.395,0.037 0.802,0.166 0.876,0.202 C -0.193,-0.755 0.151,-0.491 0,0" />
            </g>
            <g
               transform="translate(27.5827,1.444)"
               id="g72">
              <path
                 id="path74"
                 style="fill:#f7dece;fill-opacity:1;fill-rule:nonzero;stroke:none"
                 d="m 0,0 c -0.308,-0.769 -1.181,-1.142 -1.95,-0.834 l -12.395,3.803 c 0,0 -3.49,-0.701 -3.351,1.294 0.107,1.52 2.586,2.245 4.467,1.491 C -11.348,5 -0.834,1.95 -0.834,1.95 -0.065,1.642 0.308,0.769 0,0" />
            </g>
            <g
               transform="translate(10.2443,5.3924)"
               id="g76">
              <path
                 id="path78"
                 style="fill:#eec2ad;fill-opacity:1;fill-rule:nonzero;stroke:none"
                 d="m 0,0 c 0.212,0.689 2.021,0.422 2.456,0.303 0.435,-0.12 12.469,-3.845 13.453,-4.16 0.924,-0.296 0.364,-1.06 -0.087,-1.027 -0.033,0.009 -0.067,0.01 -0.099,0.021 L 3.955,-1.277 C 3.078,-1.003 2.071,-1.111 1.236,-1.033 0.841,-0.996 0.434,-0.867 0.36,-0.831 0.193,-0.755 -0.151,-0.491 0,0" />
            </g>
          </g>
        </g>
      </g>
    </g>
    <g
       transform="matrix(-0.66552959,0.50151252,-0.50151252,-0.66552959,132.3007,171.21976)"
       id="g77">
      <g
         transform="matrix(1.25,0,0,-1.25,0,45)"
         id="g79">
        <g
           id="g81">
          <g
             clip-path="url(#clipPath16)"
             id="g83">
            <g
               transform="translate(33.874,14.2793)"
               id="g85">
              <path
                 id="path87"
                 style="fill:#f4900c;fill-opacity:1;fill-rule:nonzero;stroke:none"
                 d="m 0,0 -6.909,4.226 -6.907,4.228 c -1.526,0.934 -4.001,0.934 -5.527,0 0,0 -5.527,-3.382 -6.908,-4.228 -1.382,-0.845 -0.691,-1.268 -2.072,-2.114 -1.382,-0.844 -2.072,-0.422 -3.454,-1.267 -1.383,-0.845 -1.526,-2.447 0,-3.382 l 6.907,-4.228 6.909,-4.227 c 1.525,-0.935 4.145,-0.848 5.524,0 1.383,0.845 0.693,1.266 2.074,2.114 1.381,0.844 2.071,0.422 3.454,1.266 C -5.526,-6.765 0,-3.385 0,-3.385 1.524,-2.45 1.525,-0.935 0,0"
                 inkscape:connector-curvature="0" />
            </g>
            <g
               transform="translate(35,14.4844)"
               id="g89">
              <path
                 id="path91"
                 style="fill:#f4900c;fill-opacity:1;fill-rule:nonzero;stroke:none"
                 d="M 0,0 -34,0.516 -34,-1.109 0.018,-1.901 0,0 Z"
                 inkscape:connector-curvature="0" />
            </g>
            <g
               transform="translate(35,15.4844)"
               id="g93">
              <path
                 id="path95"
                 style="fill:#f4900c;fill-opacity:1;fill-rule:nonzero;stroke:none"
                 d="M 0,0 -34,0.516 -34,-1.109 0.018,-1.901 0,0 Z"
                 inkscape:connector-curvature="0" />
            </g>
            <g
               transform="translate(33.873,17.2793)"
               id="g97">
              <path
                 id="path99"
                 style="fill:#ffac33;fill-opacity:1;fill-rule:nonzero;stroke:none"
                 d="m 0,0 -6.908,4.226 -6.907,4.228 c -1.526,0.934 -4.001,0.934 -5.527,0 0,0 -5.527,-3.382 -6.908,-4.228 -1.381,-0.845 -0.691,-1.268 -2.072,-2.114 -1.382,-0.844 -2.072,-0.422 -3.454,-1.267 -1.383,-0.845 -1.526,-2.447 0,-3.382 l 6.907,-4.228 6.909,-4.227 c 1.526,-0.935 4.145,-0.848 5.524,0 1.383,0.845 0.693,1.266 2.074,2.114 1.381,0.844 2.071,0.422 3.454,1.266 C -5.525,-6.765 0,-3.385 0,-3.385 1.525,-2.45 1.526,-0.935 0,0"
                 inkscape:connector-curvature="0" />
            </g>
            <g
               transform="translate(32.8496,16.4316)"
               id="g101">
              <path
                 id="path103"
                 style="fill:#ffd983;fill-opacity:1;fill-rule:nonzero;stroke:none"
                 d="m 0,0 -7.072,4.229 -7.071,4.227 c 0,0 -1.506,0.791 -2.828,0 0,0 -5.766,-3.447 -6.963,-4.162 -1.196,-0.716 -1.033,-1.464 -2.23,-2.179 -1.196,-0.715 -2.338,-0.553 -3.535,-1.267 -1.414,-0.847 0,-1.694 0,-1.694 l 7.071,-4.227 7.071,-4.228 c 0,0 1.414,-0.844 2.828,0 1.198,0.717 0.926,1.398 2.122,2.115 1.197,0.716 2.447,0.619 3.644,1.334 1.197,0.713 6.963,4.163 6.963,4.163 0,0 1.321,0.9 0,1.689"
                 inkscape:connector-curvature="0" />
            </g>
            <g
               transform="translate(7.9937,10.4336)"
               id="g105">
              <path
                 id="path107"
                 style="fill:#77b255;fill-opacity:1;fill-rule:nonzero;stroke:none"
                 d="M 0,0 C -0.925,-0.786 0.997,-3.518 3.249,-2.063 3.81,-3.172 7.205,-5.906 9.548,-2.165 10.033,-3.043 15.32,-4.413 16.423,0.079 16.601,0.68 10.395,1.964 7.063,1.944 5.224,1.934 1.745,1.484 0,0"
                 inkscape:connector-curvature="0" />
            </g>
            <g
               transform="translate(3.1626,18.2012)"
               id="g109">
              <path
                 id="path111"
                 style="fill:#77b255;fill-opacity:1;fill-rule:nonzero;stroke:none"
                 d="M 0,0 C -0.784,-0.737 -2.265,-2.22 -0.688,-4.439 0,-5.602 1.428,-6.358 1.618,-5.999 c 0.445,0.846 1.334,1.586 2.669,1.507 -0.017,0.301 -0.649,-2.733 1.577,-3.541 1.092,-0.396 2.265,0.238 3.6,1.638 2.137,2.243 7.582,1.196 9.11,0.609 1.547,-0.596 2.903,-0.985 2.498,-2.576 -0.089,-0.35 0.722,-0.654 1.548,-0.364 1.388,0.487 3.395,1.694 3.75,3.018 0.991,0.173 1.734,-0.102 2.305,-0.858 0.284,-0.373 1.254,-0.463 1.669,0.025 0.733,0.861 1.934,3.505 0.233,5.774 C 28.635,1.823 25.682,3.197 19.05,3.752 12.417,4.306 3.883,3.645 0,0"
                 inkscape:connector-curvature="0" />
            </g>
            <g
               transform="translate(31,10.959)"
               id="g113">
              <path
                 id="path115"
                 style="fill:#ffcc4d;fill-opacity:1;fill-rule:nonzero;stroke:none"
                 d="m 0,0 c 0,-0.529 -0.895,-0.959 -2,-0.959 l -22,0 c -1.104,0 -2,0.43 -2,0.959 l 0,10.551 c 0,0.53 0.896,0.49 2,0.49 l 22,0 c 1.105,0 2,0.04 2,-0.49 L 0,0 Z"
                 inkscape:connector-curvature="0" />
            </g>
            <g
               transform="translate(33.3105,16.0127)"
               id="g117">
              <path
                 id="path119"
                 style="fill:#be1931;fill-opacity:1;fill-rule:nonzero;stroke:none"
                 d="m 0,0 c 0,-2.768 -4.586,-5.013 -10.242,-5.013 -5.658,0 -10.243,2.245 -10.243,5.013 0,2.769 4.585,5.013 10.243,5.013 C -4.586,5.013 0,2.769 0,0"
                 inkscape:connector-curvature="0" />
            </g>
            <g
               transform="translate(33.874,20.2793)"
               id="g121">
              <path
                 id="path123"
                 style="fill:#f4900c;fill-opacity:1;fill-rule:nonzero;stroke:none"
                 d="m 0,0 -6.909,4.226 -6.907,4.228 c -1.526,0.934 -4.001,0.934 -5.527,0 0,0 -5.527,-3.382 -6.908,-4.228 -1.382,-0.845 -0.691,-1.268 -2.072,-2.114 -1.382,-0.844 -2.072,-0.422 -3.454,-1.267 -1.383,-0.845 -1.526,-2.447 0,-3.382 l 6.907,-4.228 6.909,-4.227 c 1.525,-0.935 4.145,-0.848 5.524,0 1.383,0.845 0.693,1.266 2.074,2.114 1.381,0.844 2.071,0.422 3.454,1.266 C -5.526,-6.765 0,-3.385 0,-3.385 1.524,-2.45 1.525,-0.935 0,0"
                 inkscape:connector-curvature="0" />
            </g>
            <g
               transform="translate(35,20.4844)"
               id="g125">
              <path
                 id="path127"
                 style="fill:#f4900c;fill-opacity:1;fill-rule:nonzero;stroke:none"
                 d="M 0,0 -34,0.516 -34,-1.109 0.018,-1.901 0,0 Z"
                 inkscape:connector-curvature="0" />
            </g>
            <g
               transform="translate(35,21.4844)"
               id="g129">
              <path
                 id="path131"
                 style="fill:#f4900c;fill-opacity:1;fill-rule:nonzero;stroke:none"
                 d="M 0,0 -34,0.516 -34,-1.109 0.018,-1.901 0,0 Z"
                 inkscape:connector-curvature="0" />
            </g>
            <g
               transform="translate(33.873,23.2793)"
               id="g133">
              <path
                 id="path135"
                 style="fill:#ffac33;fill-opacity:1;fill-rule:nonzero;stroke:none"
                 d="m 0,0 -6.908,4.226 -6.907,4.228 c -1.526,0.934 -4.001,0.934 -5.527,0 0,0 -5.527,-3.382 -6.908,-4.228 -1.381,-0.845 -0.691,-1.268 -2.072,-2.114 -1.382,-0.844 -2.072,-0.422 -3.454,-1.267 -1.383,-0.845 -1.526,-2.447 0,-3.382 l 6.907,-4.228 6.909,-4.227 c 1.526,-0.935 4.145,-0.848 5.524,0 1.383,0.845 0.693,1.266 2.074,2.114 1.381,0.844 2.071,0.422 3.454,1.266 C -5.525,-6.765 0,-3.385 0,-3.385 1.525,-2.45 1.526,-0.935 0,0"
                 inkscape:connector-curvature="0" />
            </g>
            <g
               transform="translate(32.8496,22.4316)"
               id="g137">
              <path
                 id="path139"
                 style="fill:#ffd983;fill-opacity:1;fill-rule:nonzero;stroke:none"
                 d="m 0,0 -7.072,4.229 -7.071,4.227 c 0,0 -1.506,0.791 -2.828,0 0,0 -5.766,-3.447 -6.963,-4.162 -1.196,-0.716 -1.033,-1.464 -2.23,-2.179 -1.196,-0.716 -2.338,-0.553 -3.535,-1.267 -1.414,-0.847 0,-1.694 0,-1.694 l 7.071,-4.227 7.071,-4.228 c 0,0 1.414,-0.844 2.828,0 1.198,0.717 0.926,1.398 2.122,2.115 1.197,0.716 2.447,0.619 3.644,1.334 1.197,0.713 6.963,4.163 6.963,4.163 0,0 1.321,0.9 0,1.689"
                 inkscape:connector-curvature="0" />
            </g>
          </g>
        </g>
      </g>
    </g>
    <g
       transform="matrix(0.29088577,0.52477182,-0.52477182,0.29088577,110.12028,37.818401)"
       id="g141">
      <g
         transform="matrix(1.25,0,0,-1.25,0,45)"
         id="g143">
        <g
           id="g145">
          <g
             clip-path="url(#clipPath16)"
             id="g147">
            <g
               transform="translate(15.6597,29.1563)"
               id="g149">
              <path
                 id="path151"
                 style="fill:#3e721d;fill-opacity:1;fill-rule:nonzero;stroke:none"
                 d="M 0,0 C 0.485,2.03 0.384,3.139 -0.553,3.677 -1.49,4.214 -0.217,6.342 1.424,4.469 3.065,2.596 2.852,0.851 2.085,-0.383 1.319,-1.618 -0.249,-1.043 0,0"
                 inkscape:connector-curvature="0" />
            </g>
            <g
               transform="translate(15.1802,26.2046)"
               id="g153">
              <path
                 id="path155"
                 style="fill:#3e721d;fill-opacity:1;fill-rule:nonzero;stroke:none"
                 d="m 0,0 c -0.916,-1.877 -1.699,-2.668 -2.764,-2.487 -1.064,0.18 -1.434,-2.271 1.023,-1.868 2.457,0.402 3.402,1.885 3.595,3.326 C 2.047,0.411 0.471,0.964 0,0"
                 inkscape:connector-curvature="0" />
            </g>
            <g
               transform="translate(26.5156,19.9443)"
               id="g157">
              <path
                 id="path159"
                 style="fill:#3e721d;fill-opacity:1;fill-rule:nonzero;stroke:none"
                 d="m 0,0 c -2.072,1.377 -5.382,-1.43 -5.699,-2.28 -0.318,-0.85 1.72,-3.461 1.145,-4.94 -0.577,-1.476 1.142,-1.768 1.92,-0.491 0.779,1.278 0.304,3.612 0.157,4.169 -0.149,0.557 2.189,1.219 3.67,0.037 C 2.676,-4.686 0.871,-0.58 0,0"
                 inkscape:connector-curvature="0" />
            </g>
            <g
               transform="translate(27.584,20.7622)"
               id="g161">
              <path
                 id="path163"
                 style="fill:#3e721d;fill-opacity:1;fill-rule:nonzero;stroke:none"
                 d="M 0,0 C -1.546,1.949 0.975,5.482 1.794,5.87 2.615,6.257 4.366,5.467 5.791,6.164 7.215,6.861 7.536,5.31 6.441,4.29 5.214,3.148 4.2,2.956 3.322,2.765 2.759,2.643 3.29,0.732 3.314,-1.206 3.336,-3.004 0.65,-0.82 0,0"
                 inkscape:connector-curvature="0" />
            </g>
            <g
               transform="translate(15.3193,32.833)"
               id="g165">
              <path
                 id="path167"
                 style="fill:#3e721d;fill-opacity:1;fill-rule:nonzero;stroke:none"
                 d="m 0,0 c 0,-0.4 -0.324,-0.724 -0.724,-0.724 -0.399,0 -0.723,0.324 -0.723,0.724 0,0.399 0.324,0.724 0.723,0.724 C -0.324,0.724 0,0.399 0,0"
                 inkscape:connector-curvature="0" />
            </g>
            <g
               transform="translate(12.3198,23.9365)"
               id="g169">
              <path
                 id="path171"
                 style="fill:#3e721d;fill-opacity:1;fill-rule:nonzero;stroke:none"
                 d="m 0,0 c 0,-0.399 -0.324,-0.724 -0.724,-0.724 -0.399,0 -0.724,0.325 -0.724,0.724 0,0.399 0.325,0.724 0.724,0.724 C -0.324,0.724 0,0.399 0,0"
                 inkscape:connector-curvature="0" />
            </g>
            <g
               transform="translate(12.022,22.2593)"
               id="g173">
              <path
                 id="path175"
                 style="fill:#3e721d;fill-opacity:1;fill-rule:nonzero;stroke:none"
                 d="m 0,0 c 0,-0.4 -0.324,-0.724 -0.724,-0.724 -0.4,0 -0.724,0.324 -0.724,0.724 0,0.399 0.324,0.724 0.724,0.724 C -0.324,0.724 0,0.399 0,0"
                 inkscape:connector-curvature="0" />
            </g>
            <g
               transform="translate(13.4692,21.5352)"
               id="g177">
              <path
                 id="path179"
                 style="fill:#3e721d;fill-opacity:1;fill-rule:nonzero;stroke:none"
                 d="m 0,0 c 0,-0.4 -0.324,-0.724 -0.724,-0.724 -0.399,0 -0.723,0.324 -0.723,0.724 0,0.4 0.324,0.724 0.723,0.724 C -0.324,0.724 0,0.4 0,0"
                 inkscape:connector-curvature="0" />
            </g>
            <g
               transform="translate(22.0439,12.6865)"
               id="g181">
              <path
                 id="path183"
                 style="fill:#3e721d;fill-opacity:1;fill-rule:nonzero;stroke:none"
                 d="m 0,0 c 0.128,-0.378 -0.073,-0.791 -0.452,-0.92 -0.377,-0.129 -0.789,0.075 -0.918,0.453 -0.129,0.378 0.072,0.79 0.45,0.919 C -0.541,0.581 -0.129,0.378 0,0"
                 inkscape:connector-curvature="0" />
            </g>
            <g
               transform="translate(22.8164,11.4189)"
               id="g185">
              <path
                 id="path187"
                 style="fill:#3e721d;fill-opacity:1;fill-rule:nonzero;stroke:none"
                 d="m 0,0 c 0.128,-0.378 -0.073,-0.79 -0.452,-0.919 -0.377,-0.128 -0.789,0.074 -0.918,0.452 -0.129,0.377 0.073,0.79 0.451,0.918 C -0.54,0.581 -0.129,0.378 0,0"
                 inkscape:connector-curvature="0" />
            </g>
            <g
               transform="translate(24.4434,11.6592)"
               id="g189">
              <path
                 id="path191"
                 style="fill:#3e721d;fill-opacity:1;fill-rule:nonzero;stroke:none"
                 d="m 0,0 c 0.13,-0.377 -0.073,-0.79 -0.452,-0.919 -0.376,-0.129 -0.788,0.074 -0.917,0.451 -0.129,0.378 0.073,0.791 0.45,0.919 C -0.54,0.581 -0.128,0.378 0,0"
                 inkscape:connector-curvature="0" />
            </g>
            <g
               transform="translate(34.2461,27.4106)"
               id="g193">
              <path
                 id="path195"
                 style="fill:#3e721d;fill-opacity:1;fill-rule:nonzero;stroke:none"
                 d="m 0,0 c 0,-0.399 -0.325,-0.724 -0.725,-0.724 -0.399,0 -0.723,0.325 -0.723,0.724 0,0.4 0.324,0.725 0.723,0.725 C -0.325,0.725 0,0.4 0,0"
                 inkscape:connector-curvature="0" />
            </g>
            <g
               transform="translate(35.75,26.6865)"
               id="g197">
              <path
                 id="path199"
                 style="fill:#3e721d;fill-opacity:1;fill-rule:nonzero;stroke:none"
                 d="m 0,0 c 0,-0.399 -0.324,-0.724 -0.725,-0.724 -0.398,0 -0.722,0.325 -0.722,0.724 0,0.399 0.324,0.724 0.722,0.724 C -0.324,0.724 0,0.399 0,0"
                 inkscape:connector-curvature="0" />
            </g>
            <g
               transform="translate(35.4043,24.9697)"
               id="g201">
              <path
                 id="path203"
                 style="fill:#3e721d;fill-opacity:1;fill-rule:nonzero;stroke:none"
                 d="m 0,0 c 0,-0.399 -0.324,-0.724 -0.725,-0.724 -0.399,0 -0.723,0.325 -0.723,0.724 0,0.399 0.324,0.724 0.723,0.724 C -0.324,0.724 0,0.399 0,0"
                 inkscape:connector-curvature="0" />
            </g>
            <g
               transform="translate(15.5122,34.3818)"
               id="g205">
              <path
                 id="path207"
                 style="fill:#3e721d;fill-opacity:1;fill-rule:nonzero;stroke:none"
                 d="m 0,0 c 0,-0.399 -0.324,-0.724 -0.724,-0.724 -0.4,0 -0.724,0.325 -0.724,0.724 0,0.4 0.324,0.724 0.724,0.724 C -0.324,0.724 0,0.4 0,0"
                 inkscape:connector-curvature="0" />
            </g>
            <g
               transform="translate(17.0835,34.8506)"
               id="g80">
              <path
                 id="path82"
                 style="fill:#3e721d;fill-opacity:1;fill-rule:nonzero;stroke:none"
                 d="m 0,0 c 0,-0.4 -0.324,-0.724 -0.724,-0.724 -0.399,0 -0.723,0.324 -0.723,0.724 0,0.399 0.324,0.724 0.723,0.724 C -0.324,0.724 0,0.399 0,0"
                 inkscape:connector-curvature="0" />
            </g>
            <g
               transform="translate(0.2085,30.3481)"
               id="g84">
              <path
                 id="path86"
                 style="fill:#3e721d;fill-opacity:1;fill-rule:nonzero;stroke:none"
                 d="m 0,0 c 0.264,1.053 4.656,4.723 8.641,4.034 2.024,-0.351 2.942,-3.354 5.102,-3.429 11.29,-0.389 22.272,-11.138 18.847,-21.391 -1.505,-4.506 -5.618,-8.797 -15.461,-5.001 -1.955,0.754 -3.97,1.986 -7.824,1.227 -2.852,-0.563 -3.149,-3.159 -2.803,-4.497 0.272,-1.048 -0.161,-1.582 -0.7,-0.759 -1.226,1.868 -1.317,4.348 0.642,5.956 3.912,3.211 9.248,1.284 13.138,0.059 6.481,-2.044 9.917,3.651 6.345,10.315 -3.503,6.54 -9.812,8.324 -14.005,8.817 C 10.754,-4.532 8.283,-6.718 6.555,-6.412 2.935,-5.769 -0.19,-0.764 0,0"
                 inkscape:connector-curvature="0" />
            </g>
            <g
               transform="translate(0.2085,30.3481)"
               id="g88">
              <path
                 id="path90"
                 style="fill:#77b255;fill-opacity:1;fill-rule:nonzero;stroke:none"
                 d="m 0,0 c 0.264,1.053 4.656,4.723 8.641,4.034 2.024,-0.351 2.942,-3.354 5.102,-3.429 11.29,-0.389 22.272,-11.138 18.847,-21.391 -1.505,-4.506 -5.618,-8.797 -15.461,-5.001 -1.955,0.754 -3.97,1.986 -7.824,1.227 -2.852,-0.563 -3.149,-3.159 -2.803,-4.497 0.134,-0.516 0.098,-0.906 -0.039,-1.073 -0.921,1.282 -1.362,4.34 0.662,5.865 3.539,2.667 8.568,0.131 13.301,-1.042 10.251,-2.541 12.183,7.995 7.908,14.875 C 23.147,-2.084 6.792,-0.098 0,0"
                 inkscape:connector-curvature="0" />
            </g>
            <g
               transform="translate(8,33)"
               id="g92">
              <path
                 id="path94"
                 style="fill:#292f33;fill-opacity:1;fill-rule:nonzero;stroke:none"
                 d="m 0,0 c 0,-0.552 -0.448,-1 -1,-1 -0.552,0 -1,0.448 -1,1 0,0.552 0.448,1 1,1 0.552,0 1,-0.448 1,-1"
                 inkscape:connector-curvature="0" />
            </g>
            <g
               transform="translate(7,26)"
               id="g96">
              <path
                 id="path98"
                 style="fill:#292f33;fill-opacity:1;fill-rule:nonzero;stroke:none"
                 d="m 0,0 c 0,-0.552 -0.448,-1 -1,-1 -0.552,0 -1,0.448 -1,1 0,0.552 0.448,1 1,1 0.552,0 1,-0.448 1,-1"
                 inkscape:connector-curvature="0" />
            </g>
          </g>
        </g>
      </g>
    </g>
    <g
       transform="matrix(0.59088465,0.10418891,-0.10418891,0.59088465,150.50271,102.98985)"
       id="g219">
      <g
         transform="matrix(1.25,0,0,-1.25,0,47.5)"
         id="g221">
        <g
           id="g223">
          <g
             clip-path="url(#clipPath16)"
             id="g225">
            <g
               transform="translate(10.8423,17.0781)"
               id="g227">
              <path
                 id="path229"
                 style="fill:#77b255;fill-opacity:1;fill-rule:nonzero;stroke:none"
                 d="m 0,0 c 0,-9.842 6.575,-9.673 5.158,-10.078 -7,-2 -8.804,7.618 -9.464,7.618 -2.378,0 -5.536,0.423 -5.536,2.46 0,2.039 2.46,4.922 6.151,4.922 C -1.312,4.922 0,2.039 0,0"
                 inkscape:connector-curvature="0" />
            </g>
            <g
               transform="translate(37,8.3623)"
               id="g231">
              <path
                 id="path233"
                 style="fill:#77b255;fill-opacity:1;fill-rule:nonzero;stroke:none"
                 d="m 0,0 c 0,-1.104 -3.518,0.741 -5,0 -2,-1 -2,0.896 -2,2 0,1.104 1.343,1 3,1 1.657,0 4,-1.896 4,-3"
                 inkscape:connector-curvature="0" />
            </g>
            <g
               transform="translate(17.7148,3.8574)"
               id="g235">
              <path
                 id="path237"
                 style="fill:#77b255;fill-opacity:1;fill-rule:nonzero;stroke:none"
                 d="m 0,0 c 0,-2.761 -1.279,-2.857 -2.857,-2.857 -1.579,0 -2.858,0.096 -2.858,2.857 0,0.489 0.085,1.029 0.234,1.587 0.69,2.59 2.754,5.556 4.052,5.556 C 0.149,7.143 0,2.761 0,0"
                 inkscape:connector-curvature="0" />
            </g>
            <g
               transform="translate(26.2861,3.8574)"
               id="g239">
              <path
                 id="path241"
                 style="fill:#77b255;fill-opacity:1;fill-rule:nonzero;stroke:none"
                 d="m 0,0 c 0,-2.761 1.278,-2.857 2.856,-2.857 1.579,0 2.858,0.096 2.858,2.857 0,0.489 -0.085,1.029 -0.235,1.587 C 4.789,4.177 2.726,7.143 1.428,7.143 -0.15,7.143 0,2.761 0,0"
                 inkscape:connector-curvature="0" />
            </g>
            <g
               transform="translate(33,10)"
               id="g243">
              <path
                 id="path245"
                 style="fill:#3e721d;fill-opacity:1;fill-rule:nonzero;stroke:none"
                 d="m 0,0 c 0,-4 -5.149,-4 -11.5,-4 -6.351,0 -11.5,0 -11.5,4 0,6.627 5.149,12 11.5,12 C -5.149,12 0,6.627 0,0"
                 inkscape:connector-curvature="0" />
            </g>
            <g
               transform="translate(7,19)"
               id="g247">
              <path
                 id="path249"
                 style="fill:#292f33;fill-opacity:1;fill-rule:nonzero;stroke:none"
                 d="m 0,0 c 0,-0.553 -0.448,-1 -1,-1 -0.552,0 -1,0.447 -1,1 0,0.553 0.448,1 1,1 0.552,0 1,-0.447 1,-1"
                 inkscape:connector-curvature="0" />
            </g>
            <g
               transform="translate(24.667,11.9004)"
               id="g251">
              <path
                 id="path253"
                 style="fill:#5c913b;fill-opacity:1;fill-rule:nonzero;stroke:none"
                 d="m 0,0 c 0,-3.591 -1.418,-3.9 -3.167,-3.9 -1.749,0 -3.166,0.309 -3.166,3.9 0,3.59 1.417,8.1 3.166,8.1 C -1.418,8.1 0,3.59 0,0"
                 inkscape:connector-curvature="0" />
            </g>
            <g
               transform="translate(31,13)"
               id="g255">
              <path
                 id="path257"
                 style="fill:#5c913b;fill-opacity:1;fill-rule:nonzero;stroke:none"
                 d="m 0,0 c 0.871,-3.482 -0.784,-4 -2.533,-4 -1.749,0 -2.533,-0.69 -2.533,2.9 0,3.59 -1.117,6.5 0.632,6.5 C -2.685,5.4 -1,4 0,0"
                 inkscape:connector-curvature="0" />
            </g>
            <g
               transform="translate(17.0669,11.9004)"
               id="g259">
              <path
                 id="path261"
                 style="fill:#5c913b;fill-opacity:1;fill-rule:nonzero;stroke:none"
                 d="m 0,0 c 0,-3.591 -0.785,-2.9 -2.534,-2.9 -1.749,0 -3.403,0.517 -2.533,4 1,4 3.251,5.4 5,5.4 C 1.683,6.5 0,3.59 0,0"
                 inkscape:connector-curvature="0" />
            </g>
          </g>
        </g>
      </g>
    </g>
    <g
       transform="matrix(0.18019013,-0.84772792,0.84772792,0.18019013,45.703433,168.43726)"
       id="g263">
      <g
         transform="matrix(1.25,0,0,-1.25,0,47.5)"
         id="g265">
        <g
           id="g267">
          <g
             clip-path="url(#clipPath16)"
             id="g269">
            <g
               transform="translate(26,2)"
               id="g271">
              <path
                 id="path273"
                 style="fill:#292f33;fill-opacity:1;fill-rule:nonzero;stroke:none"
                 d="M 0,0 C -2.75,0 -2,6 -2,6 -2,7.104 0.646,8 1.75,8 2.854,8 5,8.104 5,7 5,7 2.75,0 0,0"
                 inkscape:connector-curvature="0" />
            </g>
            <g
               transform="translate(29,1)"
               id="g275">
              <path
                 id="path277"
                 style="fill:#66757f;fill-opacity:1;fill-rule:nonzero;stroke:none"
                 d="M 0,0 C -2.75,0 -2,6 -2,6 -2,7.104 0.646,8 1.75,8 2.854,8 5,8.104 5,7 5,7 2.75,0 0,0"
                 inkscape:connector-curvature="0" />
            </g>
            <g
               transform="translate(15,2)"
               id="g279">
              <path
                 id="path281"
                 style="fill:#292f33;fill-opacity:1;fill-rule:nonzero;stroke:none"
                 d="m 0,0 c -2.75,0 -4,6 -4,6 0,1.104 2.646,2 3.75,2 C 0.854,8 3,8.104 3,7 3,7 2.75,0 0,0"
                 inkscape:connector-curvature="0" />
            </g>
            <g
               transform="translate(18,1)"
               id="g283">
              <path
                 id="path285"
                 style="fill:#66757f;fill-opacity:1;fill-rule:nonzero;stroke:none"
                 d="m 0,0 c -2.75,0 -4,6 -4,6 0,1.104 2.646,2 3.75,2 C 0.854,8 3,8.104 3,7 3,7 2.75,0 0,0"
                 inkscape:connector-curvature="0" />
            </g>
            <g
               transform="translate(36.75,15.6162)"
               id="g287">
              <path
                 id="path289"
                 style="fill:#e1e8ed;fill-opacity:1;fill-rule:nonzero;stroke:none"
                 d="M 0,0 C 0,-7.782 -4.495,-11.408 -14.519,-11.408 -24.542,-11.408 -28,-7.782 -28,0 c 0,7.783 3.458,11.407 13.481,11.407 C -4.495,11.407 0,7.783 0,0"
                 inkscape:connector-curvature="0" />
            </g>
            <g
               transform="translate(18,19.333)"
               id="g291">
              <path
                 id="path293"
                 style="fill:#99aab5;fill-opacity:1;fill-rule:nonzero;stroke:none"
                 d="m 0,0 c 0,-9.333 -4.655,-11.333 -8.958,-11.333 -4.304,0 -7.042,6.64 -7.042,11.333 0,4.694 2.738,5.667 7.042,5.667 C -4.655,5.667 0,4.694 0,0"
                 inkscape:connector-curvature="0" />
            </g>
            <g
               transform="translate(7,16.5)"
               id="g295">
              <path
                 id="path297"
                 style="fill:#292f33;fill-opacity:1;fill-rule:nonzero;stroke:none"
                 d="M 0,0 C 0,-0.828 -0.671,-1.5 -1.5,-1.5 -2.329,-1.5 -3,-0.828 -3,0 -3,0.828 -2.329,1.5 -1.5,1.5 -0.671,1.5 0,0.828 0,0"
                 inkscape:connector-curvature="0" />
            </g>
            <g
               transform="translate(16.75,24.25)"
               id="g299">
              <path
                 id="path301"
                 style="fill:#e1e8ed;fill-opacity:1;fill-rule:nonzero;stroke:none"
                 d="m 0,0 c -1.75,-3.25 -2.128,-2.606 -7.128,-4.606 -3.077,-1.231 -8.622,-0.894 -8.622,3.856 0,1.933 3.687,2.5 7,2.5 C -5.437,1.75 1.659,3.082 0,0"
                 inkscape:connector-curvature="0" />
            </g>
            <g
               transform="translate(17,23.3042)"
               id="g303">
              <path
                 id="path305"
                 style="fill:#ffcc4d;fill-opacity:1;fill-rule:nonzero;stroke:none"
                 d="m 0,0 c 3.353,-2.427 5.43,-6.139 3.724,-11.089 -1.368,-3.967 -6.817,-3.116 -9.617,-1.127 -2.798,1.988 -2.642,4.792 -1.733,6.291 0.909,1.497 4.158,1.228 6.024,-0.097 0.934,-0.663 0.288,-1.56 -0.72,-1.068 -2.292,1.118 -3.037,-1.444 -1.246,-2.882 1.265,-1.016 3.274,-1.049 3.655,1.01 0.671,3.629 -3.505,6.274 -7.465,5.301 C -5,-2.304 -2.839,2.055 0,0"
                 inkscape:connector-curvature="0" />
            </g>
          </g>
        </g>
      </g>
    </g>
    <g
       transform="matrix(0.02965704,-0.56589007,0.56589007,0.02965704,69.645736,100.60841)"
       id="g307">
      <g
         transform="matrix(1.25,0,0,-1.25,0,47.5)"
         id="g309">
        <g
           id="g311">
          <g
             clip-path="url(#clipPath16)"
             id="g313">
            <g
               transform="translate(37,19)"
               id="g315">
              <path
                 id="path317"
                 style="fill:#f5f8fa;fill-opacity:1;fill-rule:nonzero;stroke:none"
                 d="m 0,0 c 0,-9.941 -8.059,-18 -18,-18 -9.941,0 -18,8.059 -18,18 0,9.941 8.059,18 18,18 C -8.059,18 0,9.941 0,0"
                 inkscape:connector-curvature="0" />
            </g>
            <g
               transform="translate(19,26)"
               id="g319">
              <path
                 id="path321"
                 style="fill:#ccd6dd;fill-opacity:1;fill-rule:nonzero;stroke:none"
                 d="m 0,0 c -0.552,0 -1,0.448 -1,1 l 0,7 C -1,8.552 -0.552,9 0,9 0.552,9 1,8.552 1,8 L 1,1 C 1,0.448 0.552,0 0,0"
                 inkscape:connector-curvature="0" />
            </g>
            <g
               transform="translate(12.417,21.4995)"
               id="g323">
              <path
                 id="path325"
                 style="fill:#ccd6dd;fill-opacity:1;fill-rule:nonzero;stroke:none"
                 d="M 0,0 C -0.1,0 -0.202,0.015 -0.302,0.047 L -8.343,2.588 C -8.87,2.755 -9.162,3.317 -8.996,3.843 -8.83,4.37 -8.265,4.662 -7.741,4.496 L 0.301,1.954 C 0.828,1.788 1.12,1.226 0.953,0.699 0.818,0.273 0.424,0 0,0"
                 inkscape:connector-curvature="0" />
            </g>
            <g
               transform="translate(26.042,21.791)"
               id="g327">
              <path
                 id="path329"
                 style="fill:#ccd6dd;fill-opacity:1;fill-rule:nonzero;stroke:none"
                 d="m 0,0 c -0.434,0 -0.833,0.285 -0.96,0.722 -0.154,0.53 0.151,1.085 0.682,1.239 l 6.75,1.958 C 7.003,4.073 7.557,3.767 7.71,3.238 7.864,2.707 7.559,2.152 7.028,1.999 L 0.278,0.04 C 0.186,0.013 0.092,0 0,0"
                 inkscape:connector-curvature="0" />
            </g>
            <g
               transform="translate(28.043,6.833)"
               id="g331">
              <path
                 id="path333"
                 style="fill:#ccd6dd;fill-opacity:1;fill-rule:nonzero;stroke:none"
                 d="m 0,0 c -0.306,0 -0.606,0.14 -0.803,0.403 l -5.459,7.333 c -0.33,0.443 -0.238,1.07 0.205,1.399 0.443,0.331 1.07,0.238 1.399,-0.205 L 0.801,1.597 C 1.131,1.154 1.039,0.527 0.596,0.198 0.417,0.064 0.207,0 0,0"
                 inkscape:connector-curvature="0" />
            </g>
            <g
               transform="translate(9.749,6.916)"
               id="g335">
              <path
                 id="path337"
                 style="fill:#ccd6dd;fill-opacity:1;fill-rule:nonzero;stroke:none"
                 d="M 0,0 C -0.197,0 -0.396,0.058 -0.57,0.179 -1.023,0.494 -1.135,1.117 -0.82,1.57 L 4.305,8.945 C 4.62,9.399 5.243,9.512 5.697,9.196 6.15,8.881 6.262,8.258 5.947,7.805 L 0.822,0.43 C 0.628,0.149 0.316,0 0,0"
                 inkscape:connector-curvature="0" />
            </g>
          </g>
        </g>
        <g
           id="g339">
          <g
             clip-path="url(#clipPath48-soccer)"
             id="g46">
            <g
               transform="translate(4.4995,9.9375)"
               id="g342">
              <path
                 id="path344"
                 style="fill:#ccd6dd;fill-opacity:1;fill-rule:nonzero;stroke:none"
                 d="m 0,0 c -0.44,0 -0.844,0.293 -0.965,0.738 l -2.187,8.063 c -0.145,0.532 0.17,1.082 0.703,1.227 0.535,0.14 1.083,-0.171 1.227,-0.704 L 0.966,1.262 C 1.11,0.729 0.795,0.18 0.262,0.035 0.175,0.011 0.086,0 0,0"
                 inkscape:connector-curvature="0" />
            </g>
            <g
               transform="translate(23,3)"
               id="g346">
              <path
                 id="path348"
                 style="fill:#ccd6dd;fill-opacity:1;fill-rule:nonzero;stroke:none"
                 d="m 0,0 -9,0 c -0.552,0 -1,0.447 -1,1 0,0.553 0.448,1 1,1 L 0,2 C 0.553,2 1,1.553 1,1 1,0.447 0.553,0 0,0"
                 inkscape:connector-curvature="0" />
            </g>
            <g
               transform="translate(33.126,9.875)"
               id="g350">
              <path
                 id="path352"
                 style="fill:#ccd6dd;fill-opacity:1;fill-rule:nonzero;stroke:none"
                 d="m 0,0 c -0.079,0 -0.16,0.009 -0.24,0.029 -0.536,0.132 -0.864,0.674 -0.732,1.21 l 2.125,8.625 c 0.133,0.536 0.679,0.862 1.21,0.732 0.536,-0.132 0.865,-0.674 0.732,-1.21 L 0.97,0.761 C 0.857,0.305 0.449,0 0,0"
                 inkscape:connector-curvature="0" />
            </g>
            <g
               transform="translate(31.3115,29.3125)"
               id="g354">
              <path
                 id="path356"
                 style="fill:#ccd6dd;fill-opacity:1;fill-rule:nonzero;stroke:none"
                 d="m 0,0 c -0.17,0 -0.342,0.043 -0.5,0.134 l -7.563,4.375 c -0.477,0.277 -0.641,0.888 -0.364,1.367 0.276,0.478 0.886,0.643 1.366,0.365 L 0.502,1.866 C 0.979,1.589 1.144,0.978 0.866,0.499 0.682,0.179 0.346,0 0,0"
                 inkscape:connector-curvature="0" />
            </g>
            <g
               transform="translate(6.501,29.3125)"
               id="g358">
              <path
                 id="path360"
                 style="fill:#ccd6dd;fill-opacity:1;fill-rule:nonzero;stroke:none"
                 d="m 0,0 c -0.312,0 -0.618,0.145 -0.813,0.417 -0.322,0.449 -0.22,1.074 0.229,1.395 L 5.604,6.25 C 6.053,6.572 6.677,6.469 6.999,6.021 7.321,5.571 7.218,4.947 6.77,4.625 L 0.582,0.187 C 0.405,0.061 0.202,0 0,0"
                 inkscape:connector-curvature="0" />
            </g>
            <g
               transform="translate(26.4932,23.4839)"
               id="g362">
              <path
                 id="path364"
                 style="fill:#292f33;fill-opacity:1;fill-rule:nonzero;stroke:none"
                 d="M 0,0 -7.208,5.083 C -7.556,5.328 -8.022,5.327 -8.37,5.077 l -7.167,-5.167 c -0.343,-0.247 -0.493,-0.684 -0.375,-1.091 l 2.5,-8.582 c 0.124,-0.427 0.516,-0.721 0.96,-0.721 l 8.959,0 c 0.43,0 0.81,0.275 0.948,0.681 l 2.917,8.667 C 0.513,-0.717 0.361,-0.255 0,0"
                 inkscape:connector-curvature="0" />
            </g>
            <g
               transform="translate(7.7744,31.6323)"
               id="g366">
              <path
                 id="path368"
                 style="fill:#292f33;fill-opacity:1;fill-rule:nonzero;stroke:none"
                 d="m 0,0 c -0.19,0.233 -0.474,0.368 -0.774,0.368 l -3,0 c -0.217,0 -0.427,-0.071 -0.601,-0.201 l -4,-3 c -0.251,-0.188 -0.399,-0.484 -0.399,-0.799 l 0,-7.584 c 0,-0.292 0.128,-0.57 0.35,-0.76 l 2.291,-1.958 c 0.183,-0.156 0.414,-0.24 0.65,-0.24 0.058,0 0.117,0.005 0.175,0.015 0.294,0.052 0.55,0.234 0.697,0.494 l 3.375,6 c 0.05,0.091 0.087,0.189 0.108,0.291 l 1.334,6.542 C 0.266,-0.538 0.19,-0.232 0,0"
                 inkscape:connector-curvature="0" />
            </g>
            <g
               transform="translate(24.7354,38.1484)"
               id="g370">
              <path
                 id="path372"
                 style="fill:#292f33;fill-opacity:1;fill-rule:nonzero;stroke:none"
                 d="m 0,0 c -0.077,0.378 -0.437,0.634 -0.811,0.598 l -10.292,-1.042 c -0.293,-0.03 -0.52,-0.174 -0.614,-0.453 -0.08,-0.174 -0.858,-1.6 -1.384,-2.557 -0.117,-0.213 -0.124,-0.471 -0.017,-0.69 0.106,-0.219 0.313,-0.372 0.553,-0.412 l 6.375,-1.041 c 0.04,-0.007 0.081,-0.01 0.121,-0.01 0.041,0 0.082,0.003 0.122,0.01 l 6.084,1 c 0.2,0.033 0.38,0.146 0.495,0.314 0.116,0.168 0.158,0.375 0.118,0.575 L 0,0 Z"
                 inkscape:connector-curvature="0" />
            </g>
            <g
               transform="translate(38.6973,20.3589)"
               id="g374">
              <path
                 id="path376"
                 style="fill:#292f33;fill-opacity:1;fill-rule:nonzero;stroke:none"
                 d="m 0,0 -4.083,10.333 c -0.106,0.271 -0.36,0.457 -0.65,0.475 l -3.334,0.209 c -0.229,0.013 -0.455,-0.076 -0.61,-0.249 -0.152,-0.173 -0.218,-0.402 -0.175,-0.63 L -7.685,3.94 c 0.017,-0.086 0.048,-0.148 0.093,-0.224 1.492,-2.504 3.153,-5.301 3.381,-5.781 0.024,-0.084 0.063,-0.08 0.114,-0.151 0.141,-0.196 0.372,-0.143 0.613,-0.143 l 0.006,0 c 0.249,0 0.375,-0.155 3.181,1.619 C 0.008,-0.547 0.133,-0.335 0,0"
                 inkscape:connector-curvature="0" />
            </g>
            <g
               transform="translate(15.3491,4.168)"
               id="g378">
              <path
                 id="path380"
                 style="fill:#292f33;fill-opacity:1;fill-rule:nonzero;stroke:none"
                 d="m 0,0 -4.5,5 c -0.06,0.066 -0.131,0.122 -0.211,0.163 -5.885,3.069 -5.994,3.106 -6.066,3.13 -0.077,0.025 -0.16,0.039 -0.241,0.039 -0.677,0 -0.75,-0.092 -1.645,-3.956 -0.012,-0.05 -0.019,-0.102 -0.02,-0.154 l -0.083,-4.125 c -0.005,-0.273 0.138,-0.527 0.374,-0.663 l 7.333,-4.25 c 0.118,-0.069 0.247,-0.102 0.376,-0.102 0.18,0 0.358,0.064 0.498,0.189 l 4.125,3.667 C 0.09,-0.93 0.18,-0.743 0.191,-0.544 0.202,-0.345 0.133,-0.148 0,0"
                 inkscape:connector-curvature="0" />
            </g>
            <g
               transform="translate(34.9941,8.5557)"
               id="g382">
              <path
                 id="path384"
                 style="fill:#292f33;fill-opacity:1;fill-rule:nonzero;stroke:none"
                 d="M 0,0 -1.209,3.209 C -1.282,3.401 -1.431,3.556 -1.62,3.636 -1.81,3.716 -2.025,3.714 -2.212,3.631 L -8.295,0.964 C -8.401,0.918 -8.495,0.848 -8.569,0.759 l -4.25,-5.083 c -0.129,-0.155 -0.191,-0.353 -0.172,-0.552 0.019,-0.2 0.117,-0.384 0.272,-0.51 4.791,-3.92 4.892,-3.92 5.225,-3.92 0.279,0 0.384,0 6.484,3.867 0.183,0.116 0.307,0.304 0.34,0.518 L 0.039,-0.38 C 0.059,-0.252 0.045,-0.121 0,0"
                 inkscape:connector-curvature="0" />
            </g>
          </g>
        </g>
      </g>
    </g>
    <g
       transform="matrix(-0.49017513,-0.75480351,0.75480351,-0.49017513,43.232296,148.86781)"
       id="g386">
      <g
         transform="matrix(1.25,0,0,-1.25,0,47.5)"
         id="g388">
        <g
           id="g390">
          <g
             clip-path="url(#clipPath16)"
             id="g392">
            <g
               transform="translate(36,19)"
               id="g394">
              <path
                 id="path396"
                 style="fill:#ffcc4d;fill-opacity:1;fill-rule:nonzero;stroke:none"
                 d="m 0,0 c 0,-9.389 -7.611,-17 -17,-17 -9.388,0 -17,7.611 -17,17 0,9.388 7.612,17 17,17 C -7.611,17 0,9.388 0,0"
                 inkscape:connector-curvature="0" />
            </g>
            <g
               transform="translate(28.335,14.3711)"
               id="g398">
              <path
                 id="path400"
                 style="fill:#664500;fill-opacity:1;fill-rule:nonzero;stroke:none"
                 d="m 0,0 c -0.178,0.161 -0.444,0.171 -0.635,0.029 -0.039,-0.029 -3.922,-2.9 -8.7,-2.9 -4.766,0 -8.662,2.871 -8.7,2.9 -0.191,0.142 -0.457,0.13 -0.635,-0.029 -0.177,-0.16 -0.217,-0.424 -0.094,-0.628 0.129,-0.215 3.217,-5.243 9.429,-5.243 6.212,0 9.301,5.028 9.429,5.243 C 0.217,-0.423 0.178,-0.16 0,0"
                 inkscape:connector-curvature="0" />
            </g>
            <g
               transform="translate(19,30)"
               id="g402">
              <path
                 id="path404"
                 style="fill:#5dadec;fill-opacity:1;fill-rule:nonzero;stroke:none"
                 d="M 0,0 C -6.627,0 -12,0.567 -12,2.5 -12,4.433 -6.627,5 0,5 6.627,5 12,4.433 12,2.5 12,0.567 6.627,0 0,0 m 0,7 c -8.836,0 -16,-1.686 -16,-5 0,-3.313 7.164,-5 16,-5 8.836,0 16,1.687 16,5 0,3.314 -7.164,5 -16,5"
                 inkscape:connector-curvature="0" />
            </g>
            <g
               transform="translate(11.375,30.9375)"
               id="g406">
              <path
                 id="path408"
                 style="fill:#ffcc4d;fill-opacity:1;fill-rule:nonzero;stroke:none"
                 d="m 0,0 c -3.397,1.324 -2.5,1.991 -0.062,3.23 2.308,1.172 4.92,1.832 7.687,1.832 2.893,0 5.616,-0.722 8.001,-1.997 0.695,-0.372 1.432,-0.885 2.124,-1.346"
                 inkscape:connector-curvature="0" />
            </g>
            <g
               transform="translate(27,18)"
               id="g410">
              <path
                 id="path412"
                 style="fill:#664500;fill-opacity:1;fill-rule:nonzero;stroke:none"
                 d="M 0,0 C -0.419,0 -0.809,0.265 -0.948,0.684 -1.151,1.283 -1.967,3 -3,3 -4.062,3 -4.889,1.173 -5.052,0.684 -5.227,0.16 -5.788,-0.124 -6.316,0.052 -6.84,0.226 -7.123,0.792 -6.948,1.316 -6.823,1.693 -5.645,5 -3,5 -0.355,5 0.823,1.693 0.948,1.316 1.123,0.792 0.84,0.226 0.316,0.052 0.211,0.017 0.105,0 0,0"
                 inkscape:connector-curvature="0" />
            </g>
            <g
               transform="translate(17,18)"
               id="g414">
              <path
                 id="path416"
                 style="fill:#664500;fill-opacity:1;fill-rule:nonzero;stroke:none"
                 d="M 0,0 C -0.419,0 -0.809,0.265 -0.949,0.684 -1.152,1.283 -1.966,3 -3,3 -4.062,3 -4.888,1.173 -5.051,0.684 -5.226,0.16 -5.79,-0.124 -6.316,0.052 -6.84,0.226 -7.124,0.792 -6.949,1.316 -6.823,1.693 -5.645,5 -3,5 -0.355,5 0.823,1.693 0.949,1.316 1.124,0.792 0.84,0.226 0.316,0.052 0.211,0.017 0.105,0 0,0"
                 inkscape:connector-curvature="0" />
            </g>
          </g>
        </g>
      </g>
    </g>
    <g
       transform="matrix(0.6365318,0.68259679,-0.68259679,0.6365318,117.68734,81.204261)"
       id="g418">
      <g
         transform="matrix(1.25,0,0,-1.25,0,47.5)"
         id="g420">
        <g
           id="g422">
          <g
             clip-path="url(#clipPath16)"
             id="g424">
            <g
               transform="translate(21,17)"
               id="g426">
              <path
                 id="path428"
                 style="fill:#9aaab4;fill-opacity:1;fill-rule:nonzero;stroke:none"
                 d="m 0,0 c 0,-1.657 -1.343,-3 -3,-3 -1.657,0 -3,1.343 -3,3 0,1.657 1.343,3 3,3 1.657,0 3,-1.343 3,-3"
                 inkscape:connector-curvature="0" />
            </g>
            <g
               transform="translate(20.2354,19.9414)"
               id="g430">
              <path
                 id="path432"
                 style="fill:#da2f47;fill-opacity:1;fill-rule:nonzero;stroke:none"
                 d="m 0,0 c -0.259,-0.485 -0.868,-0.671 -1.353,-0.412 l -12.354,6.588 c -0.485,0.259 -0.67,0.867 -0.411,1.353 l 2.823,5.295 c 0.259,0.485 0.868,0.67 1.353,0.411 L 2.411,6.647 C 2.896,6.389 3.082,5.78 2.823,5.294 L 0,0 Z"
                 inkscape:connector-curvature="0" />
            </g>
            <g
               transform="translate(32.1768,14.707)"
               id="g434">
              <path
                 id="path436"
                 style="fill:#da2f47;fill-opacity:1;fill-rule:nonzero;stroke:none"
                 d="m 0,0 c -0.259,-0.485 -0.868,-0.671 -1.354,-0.412 l -9.705,5.176 c -0.485,0.258 -0.67,0.868 -0.412,1.353 l 1.882,3.529 c 0.259,0.485 0.868,0.67 1.354,0.412 L 1.47,4.882 C 1.955,4.623 2.141,4.014 1.882,3.528 L 0,0 Z"
                 inkscape:connector-curvature="0" />
            </g>
            <g
               transform="translate(22,19)"
               id="g438">
              <path
                 id="path440"
                 style="fill:#bb1a34;fill-opacity:1;fill-rule:nonzero;stroke:none"
                 d="M 0,0 -1.765,0.941 1.059,6.235 2.823,5.295 0,0 Z"
                 inkscape:connector-curvature="0" />
            </g>
            <g
               transform="translate(33.4707,12.8828)"
               id="g442">
              <path
                 id="path444"
                 style="fill:#9d0522;fill-opacity:1;fill-rule:nonzero;stroke:none"
                 d="M 0,0 -3.529,1.882 -0.706,7.177 2.823,5.294 0,0 Z"
                 inkscape:connector-curvature="0" />
            </g>
            <g
               transform="translate(9.2944,29.1763)"
               id="g446">
              <path
                 id="path448"
                 style="fill:#292f33;fill-opacity:1;fill-rule:nonzero;stroke:none"
                 d="M 0,0 1.882,3.53 1.001,4 C 1,4 1,4 1,4 L -3.412,6.353 C -3.897,6.612 -4.506,6.427 -4.765,5.941 L -7.588,0.646 c -0.259,-0.485 -0.074,-1.094 0.411,-1.353 l 3.529,-1.881 1.766,-0.942 0.47,0.882 c 0,0 0,0 0,0.001 L 0,0 Z"
                 inkscape:connector-curvature="0" />
            </g>
            <g
               transform="translate(24,12)"
               id="g450">
              <path
                 id="path452"
                 style="fill:#292f33;fill-opacity:1;fill-rule:nonzero;stroke:none"
                 d="m 0,0 c 0,-1.104 -0.896,-2 -2,-2 l -8,0 c -1.104,0 -2,0.896 -2,2 0,1.104 0.896,2 2,2 l 8,0 C -0.896,2 0,1.104 0,0"
                 inkscape:connector-curvature="0" />
            </g>
            <g
               transform="translate(10.4673,1)"
               id="g454">
              <path
                 id="path456"
                 style="fill:#9aaab4;fill-opacity:1;fill-rule:nonzero;stroke:none"
                 d="m 0,0 3.344,7.152 c 0.468,1 0.036,2.192 -0.965,2.659 -1,0.468 -2.191,0.037 -2.658,-0.965 L -4.416,0 0,0 Z"
                 inkscape:connector-curvature="0" />
            </g>
            <g
               transform="translate(25.5322,1)"
               id="g458">
              <path
                 id="path460"
                 style="fill:#9aaab4;fill-opacity:1;fill-rule:nonzero;stroke:none"
                 d="M 0,0 4.416,0 0.279,8.846 C -0.187,9.848 -1.379,10.279 -2.379,9.811 -3.38,9.344 -3.812,8.152 -3.344,7.152 L 0,0 Z"
                 inkscape:connector-curvature="0" />
            </g>
            <g
               transform="translate(20,1)"
               id="g462">
              <path
                 id="path464"
                 style="fill:#9aaab4;fill-opacity:1;fill-rule:nonzero;stroke:none"
                 d="m 0,0 0,8 c 0,1.104 -0.896,2 -2,2 -1.104,0 -2,-0.896 -2,-2 l 0,-8 4,0 z"
                 inkscape:connector-curvature="0" />
            </g>
          </g>
        </g>
      </g>
    </g>
    <g
       transform="matrix(-0.27351179,0.6443534,-0.6443534,-0.27351179,162.64394,141.26134)"
       id="g466">
      <g
         transform="matrix(1.25,0,0,-1.25,0,47.5)"
         id="g468">
        <g
           id="g470">
          <g
             clip-path="url(#clipPath16)"
             id="g472">
            <g
               transform="translate(36,18)"
               id="g474">
              <path
                 id="path476"
                 style="fill:#f4900c;fill-opacity:1;fill-rule:nonzero;stroke:none"
                 d="M 0,0 C 0,2.063 -0.367,4.039 -1.04,5.868 -1.5,0.479 -4.373,-2.289 -7.375,-1 c -2.813,1.208 -0.917,5.917 -0.777,8.164 0.236,3.809 -0.012,8.169 -6.931,11.794 2.875,-5.5 0.333,-8.916 -2.334,-9.125 -2.958,-0.23 -5.666,2.542 -4.666,7.042 -3.238,-2.386 -3.333,-6.402 -2.334,-9 C -23.375,5.167 -24.458,2.917 -27,2.667 -29.839,2.387 -31.417,5.708 -29.962,11 -32.48,8.035 -34,4.195 -34,0 c 0,-9.389 7.611,-17 17,-17 9.389,0 17,7.611 17,17"
                 inkscape:connector-curvature="0" />
            </g>
          </g>
        </g>
        <g
           id="g478">
          <g
             clip-path="url(#clipPath28)"
             id="g480">
            <g
               transform="translate(31,7)"
               id="g482">
              <path
                 id="path484"
                 style="fill:#ffcc4d;fill-opacity:1;fill-rule:nonzero;stroke:none"
                 d="m 0,0 c 0,2.187 -0.584,4.236 -1.605,6.001 0.147,-3.084 -2.562,-4.293 -4.02,-3.709 -2.105,0.843 -1.541,2.291 -2.083,5.291 -0.542,3 -2.625,5.084 -5.709,6 2.25,-6.333 -1.247,-8.667 -3.08,-9.084 C -18.369,4.073 -20.25,4.5 -20.465,8.506 -22.648,6.332 -24,3.324 -24,0 c 0,-6.627 5.373,-12 12,-12 6.627,0 12,5.373 12,12"
                 inkscape:connector-curvature="0" />
            </g>
          </g>
        </g>
      </g>
    </g>
    <g
       transform="matrix(-0.19381141,0.53249249,-0.53249249,-0.19381141,88.051807,41.115232)"
       id="g486">
      <g
         transform="matrix(1.25,0,0,-1.25,0,47.5)"
         id="g488">
        <g
           id="g490">
          <g
             clip-path="url(#clipPath16)"
             id="g492">
            <g
               transform="translate(37,12)"
               id="g494">
              <path
                 id="path496"
                 style="fill:#c1694f;fill-opacity:1;fill-rule:nonzero;stroke:none"
                 d="m 0,0 c 0,-4 -8.059,-11 -18,-11 -9.941,0 -18,7 -18,11 0,19 17,25 18,25 1,0 18,-6 18,-25"
                 inkscape:connector-curvature="0" />
            </g>
            <g
               transform="translate(4.0015,7.6152)"
               id="g498">
              <path
                 id="path500"
                 style="fill:#a95233;fill-opacity:1;fill-rule:nonzero;stroke:none"
                 d="m 0,0 c -0.05,0 -0.1,0.004 -0.15,0.012 -0.546,0.082 -0.922,0.591 -0.84,1.136 0.134,0.895 3.43,21.969 15.535,28.128 0.493,0.252 1.094,0.054 1.345,-0.438 0.25,-0.492 0.054,-1.094 -0.438,-1.344 C 4.266,21.802 1.019,1.06 0.987,0.852 0.913,0.355 0.486,0 0,0"
                 inkscape:connector-curvature="0" />
            </g>
            <g
               transform="translate(33.999,7.6152)"
               id="g502">
              <path
                 id="path504"
                 style="fill:#a95233;fill-opacity:1;fill-rule:nonzero;stroke:none"
                 d="m 0,0 c -0.486,0 -0.913,0.355 -0.988,0.852 -0.032,0.208 -3.278,20.95 -14.465,26.642 -0.492,0.25 -0.688,0.852 -0.437,1.344 0.25,0.492 0.854,0.69 1.344,0.438 C -2.439,23.117 0.855,2.043 0.99,1.148 1.072,0.603 0.696,0.094 0.149,0.012 0.1,0.004 0.049,0 0,0"
                 inkscape:connector-curvature="0" />
            </g>
            <g
               transform="translate(13.001,4)"
               id="g506">
              <path
                 id="path508"
                 style="fill:#a95233;fill-opacity:1;fill-rule:nonzero;stroke:none"
                 d="M 0,0 C -0.018,0 -0.036,0 -0.054,0.001 -0.605,0.03 -1.029,0.502 -1,1.053 -0.946,2.052 0.356,25.597 5.176,32.569 5.491,33.023 6.114,33.136 6.567,32.823 7.022,32.508 7.136,31.886 6.821,31.431 2.322,24.923 1.01,1.186 0.998,0.947 0.969,0.413 0.528,0 0,0"
                 inkscape:connector-curvature="0" />
            </g>
            <g
               transform="translate(24.999,4)"
               id="g510">
              <path
                 id="path512"
                 style="fill:#a95233;fill-opacity:1;fill-rule:nonzero;stroke:none"
                 d="m 0,0 c -0.527,0 -0.969,0.413 -0.998,0.947 -0.013,0.239 -1.324,23.976 -5.824,30.484 -0.314,0.455 -0.2,1.077 0.254,1.392 0.456,0.314 1.079,0.2 1.391,-0.254 C -0.357,25.597 0.946,2.052 1,1.053 1.029,0.502 0.605,0.031 0.054,0.001 0.036,0 0.018,0 0,0"
                 inkscape:connector-curvature="0" />
            </g>
            <g
               transform="translate(37,12)"
               id="g514">
              <path
                 id="path516"
                 style="fill:#662113;fill-opacity:1;fill-rule:nonzero;stroke:none"
                 d="m 0,0 c 0,-4 -8.059,-11 -18,-11 -9.941,0 -18,7 -18,11 3,-4 10,-7 18,-7 8,0 15,3 18,7"
                 inkscape:connector-curvature="0" />
            </g>
          </g>
        </g>
      </g>
    </g>
    <g
       transform="matrix(0.10104418,-0.96137117,0.96137117,0.10104418,131.71357,99.846117)"
       id="g518">
      <g
         transform="matrix(1.25,0,0,-1.25,0,47.5)"
         id="g520">
        <g
           id="g522">
          <g
             clip-path="url(#clipPath16)"
             id="g524">
            <g
               transform="translate(29.0684,5.6445)"
               id="g526">
              <path
                 id="path528"
                 style="fill:#ffac33;fill-opacity:1;fill-rule:nonzero;stroke:none"
                 d="M 0,0 C -2.229,0 -8.468,-0.785 -10.068,-1.832 -11.669,-0.785 -17.908,0 -20.137,0 c -2.565,0 -1.161,-1.039 -1.161,-2.322 0,-1.282 -1.404,-2.323 1.161,-2.323 2.229,0 8.468,0.786 10.069,1.832 1.6,-1.046 7.839,-1.832 10.068,-1.832 2.565,0 1.161,1.041 1.161,2.323 C 1.161,-1.039 2.565,0 0,0"
                 inkscape:connector-curvature="0" />
            </g>
            <g
               transform="translate(32.7305,21.1338)"
               id="g530">
              <path
                 id="path532"
                 style="fill:#292f33;fill-opacity:1;fill-rule:nonzero;stroke:none"
                 d="m 0,0 c -1.25,2.499 -3.152,4.995 -4.942,6.723 -2.452,5.432 -6.03,9.143 -8.788,9.143 -2.759,0 -6.337,-3.71 -8.788,-9.142 C -24.309,4.995 -26.211,2.5 -27.461,0 c -2.438,-4.876 -3.116,-11.426 -2.078,-11.944 0.873,-0.437 2.324,1.551 4.208,5.082 0.268,-10.876 7.047,-10.95 11.601,-10.95 4.552,0 11.333,0.074 11.6,10.948 1.884,-3.529 3.335,-5.517 4.207,-5.08 C 3.115,-11.426 2.438,-4.876 0,0"
                 inkscape:connector-curvature="0" />
            </g>
            <g
               transform="translate(22.6748,30.0566)"
               id="g534">
              <path
                 id="path536"
                 style="fill:#f5f8fa;fill-opacity:1;fill-rule:nonzero;stroke:none"
                 d="m 0,0 c -0.85,-0.607 -2.172,-1.186 -3.675,-1.186 -1.503,0 -2.825,0.579 -3.675,1.186 -3.302,-2.137 -5.615,-7.061 -5.615,-12.799 0,-7.695 4.159,-13.935 9.29,-13.935 5.132,0 9.291,6.24 9.291,13.935 C 5.616,-7.061 3.303,-2.137 0,0"
                 inkscape:connector-curvature="0" />
            </g>
            <g
               transform="translate(29.4521,31)"
               id="g538">
              <path
                 id="path540"
                 style="fill:#ffac33;fill-opacity:1;fill-rule:nonzero;stroke:none"
                 d="m 0,0 -5.808,0 c -3.847,0 -4.644,0.78 -4.644,1.743 0,0.962 -0.364,1.741 3.483,1.741 C -1.161,3.484 1.161,0 0,0"
                 inkscape:connector-curvature="0" />
            </g>
            <g
               transform="translate(17.8389,33.5166)"
               id="g542">
              <path
                 id="path544"
                 style="fill:#f5f8fa;fill-opacity:1;fill-rule:nonzero;stroke:none"
                 d="m 0,0 c 0,-0.642 -0.52,-1.162 -1.161,-1.162 -0.642,0 -1.161,0.52 -1.161,1.162 0,0.641 0.519,1.161 1.161,1.161 C -0.52,1.161 0,0.641 0,0"
                 inkscape:connector-curvature="0" />
            </g>
          </g>
        </g>
      </g>
    </g>
  </g>
</svg>
