<?xml version="1.0" encoding="UTF-8" standalone="no"?>
<svg
   xmlns:dc="http://purl.org/dc/elements/1.1/"
   xmlns:cc="http://creativecommons.org/ns#"
   xmlns:rdf="http://www.w3.org/1999/02/22-rdf-syntax-ns#"
   xmlns:svg="http://www.w3.org/2000/svg"
   xmlns="http://www.w3.org/2000/svg"
   xmlns:sodipodi="http://sodipodi.sourceforge.net/DTD/sodipodi-0.dtd"
   xmlns:inkscape="http://www.inkscape.org/namespaces/inkscape"
   version="1.1"
   id="svg2"
   viewBox="0 0 200 200"
   height="200px"
   width="200px"
   inkscape:version="0.91 r13725"
   sodipodi:docname="44.svg">
  <metadata
     id="metadata623">
    <rdf:RDF>
      <cc:Work
         rdf:about="">
        <dc:format>image/svg+xml</dc:format>
        <dc:type
           rdf:resource="http://purl.org/dc/dcmitype/StillImage" />
      </cc:Work>
    </rdf:RDF>
  </metadata>
  <sodipodi:namedview
     pagecolor="#ffffff"
     bordercolor="#666666"
     borderopacity="1"
     objecttolerance="10"
     gridtolerance="10"
     guidetolerance="10"
     inkscape:pageopacity="0"
     inkscape:pageshadow="2"
     inkscape:window-width="1920"
     inkscape:window-height="1060"
     id="namedview621"
     showgrid="false"
     inkscape:zoom="3.337544"
     inkscape:cx="135.04568"
     inkscape:cy="61.824068"
     inkscape:window-x="0"
     inkscape:window-y="0"
     inkscape:window-maximized="1"
     inkscape:current-layer="layer1" />
  
    
    
    <defs id="defs6">

        <clipPath
           id="clipPath28"
           clipPathUnits="userSpaceOnUse">
          <path
             id="path30"
             d="M 4,36 C 0,36 0,32 0,32 L 0,32 0,4 C 0,0 4,0 4,0 l 0,0 28,0 c 4,0 4,4 4,4 l 0,0 0,28 c 0,4 -4,4 -4,4 l 0,0 -28,0 z" />
        </clipPath>


        <clipPath clipPathUnits="userSpaceOnUse" id="clipPath16-rugby">
            <path d="M 0,38 38,38 38,0 0,0 0,38 Z" id="path18"/>
        </clipPath>
        <clipPath clipPathUnits="userSpaceOnUse" id="clipPath28-rugby">
            <path d="M 9.254,28.746 C 2.09,21.582 -0.927,9.561 3.929,3.929 l 0,0 C 9.561,-0.927 21.582,2.09 28.746,9.254 l 0,0 c 7.164,7.164 11.229,17.088 5.324,24.816 l 0,0 c -1.886,1.627 -4.489,2.371 -7.387,2.37 l 0,0 c -5.752,0 -12.665,-2.93 -17.429,-7.694" id="path30"/>
        </clipPath>

        <clipPath clipPathUnits="userSpaceOnUse" id="clipPath16-carrot">
            <path d="M 0,36 36,36 36,0 0,0 0,36 Z" id="path18"/>
        </clipPath>
        <clipPath clipPathUnits="userSpaceOnUse" id="clipPath32-carrot">
            <path d="M 11.815,23.013 C 4.2,15.397 -1.265,2.86 0.502,1.093 l 0,0 c 1.768,-1.768 14.305,3.698 21.92,11.313 l 0,0 c 7.616,7.615 7.562,11.53 4.243,14.85 l 0,0 c -1.328,1.328 -2.752,2.133 -4.47,2.133 l 0,0 c -2.575,0 -5.812,-1.809 -10.38,-6.376" id="path34"/>
        </clipPath>

        <clipPath clipPathUnits="userSpaceOnUse" id="clipPath32-hat">
            <path d="m 5,33.666 c 0,-0.034 0.018,-0.067 0.022,-0.101 l 0,0 C 5.008,33.455 5,33.335 5,33.2 l 0,0 L 6.802,9.616 C 3.299,8.705 1,7.424 1,6 L 1,6 C 1,3.238 9.611,1 19,1 l 0,0 c 9.389,0 18,2.238 18,5 l 0,0 c 0,1.424 -2.298,2.705 -5.801,3.616 l 0,0 L 33,33.184 c 0,0.135 -0.008,0.263 -0.021,0.373 l 0,0 C 32.982,33.591 33,33.632 33,33.666 l 0,0 c 0,1.805 -6.268,3.267 -14,3.267 l 0,0 c -7.732,0 -14,-1.462 -14,-3.267" id="path34"/>
        </clipPath>


        <clipPath clipPathUnits="userSpaceOnUse" id="clipPath48-soccer">
            <path d="M 1,19 C 1,9.059 9.059,1 19,1 l 0,0 c 9.941,0 18,8.059 18,18 l 0,0 c 0,9.941 -8.059,18 -18,18 l 0,0 C 9.059,37 1,28.941 1,19" id="path50"/>
        </clipPath>

        <clipPath clipPathUnits="userSpaceOnUse" id="clipPath28-baguette">
            <path d="M 24.052,31.33 5.126,12.406 C 1.342,8.62 1.288,4.133 2.856,2.564 l 0,0 C 4.424,0.997 8.912,1.049 12.697,4.835 l 0,0 18.925,18.924 c 3.784,3.785 3.837,8.273 2.269,9.841 l 0,0 c -0.605,0.606 -1.647,0.969 -2.915,0.969 l 0,0 c -2.014,0 -4.602,-0.917 -6.924,-3.239" id="path30"/>
        </clipPath>
    </defs>



  <g
     id="layer1">
    <circle
       style="opacity:1;fill:white;stroke:black;stroke-width:1;stroke-miterlimit:4;stroke-dasharray:none;stroke-opacity:0.1"
       id="path4039-0-9"
       cx="100"
       cy="101.49811"
       r="90" />
    <g
       transform="matrix(-0.20619316,0.59882843,-0.59882843,-0.20619316,84.982197,43.110963)"
       id="g8">
      <g
         transform="matrix(1.25,0,0,-1.25,0,47.5)"
         id="g10">
        <g
           id="g12">
          <g
             clip-path="url(#clipPath16)"
             id="g14">
            <g
               transform="translate(24.9121,24.9131)"
               id="g20">
              <path
                 id="path22"
                 style="fill:#f18f26;fill-opacity:1;fill-rule:nonzero;stroke:none"
                 d="m 0,0 c -1.693,1.692 -3.594,2.587 -5.497,2.587 -1.626,0 -3.19,-0.668 -4.402,-1.88 -1.519,-1.519 -1.728,-2.39 -1.866,-2.966 -0.07,-0.295 -0.105,-0.421 -0.255,-0.57 -0.105,-0.106 -0.155,-0.256 -0.14,-0.406 0.015,-0.149 0.1,-0.286 0.225,-0.369 0.013,-0.009 0.324,-0.22 0.368,-0.651 0.039,-0.394 -0.13,-1.08 -1.16,-2.11 -0.629,-0.629 -1.252,-0.948 -1.85,-0.948 -0.981,0 -1.649,0.87 -1.653,0.876 -0.111,0.15 -0.295,0.227 -0.481,0.197 -0.185,-0.029 -0.337,-0.158 -0.396,-0.335 -0.221,-0.663 -0.251,-0.668 -0.535,-0.709 -0.59,-0.086 -1.578,-0.23 -3.624,-2.276 -1.675,-1.674 -2.265,-3.766 -1.708,-6.047 0.395,-1.618 1.408,-3.359 2.708,-4.66 1.408,-1.408 3.803,-2.912 6.301,-2.912 l 10e-4,0 c 1.654,0 3.136,0.643 4.405,1.912 2.046,2.046 2.189,3.034 2.275,3.624 0.041,0.285 0.046,0.314 0.709,0.535 0.178,0.059 0.307,0.212 0.336,0.396 0.03,0.184 -0.046,0.369 -0.196,0.481 -0.008,0.005 -0.805,0.619 -0.873,1.527 -0.047,0.638 0.27,1.302 0.944,1.975 0.963,0.963 1.622,1.166 2.005,1.166 0.504,0 0.746,-0.358 0.752,-0.367 0.08,-0.13 0.215,-0.216 0.368,-0.234 0.142,-0.016 0.302,0.035 0.411,0.143 0.149,0.15 0.275,0.185 0.57,0.255 0.576,0.139 1.446,0.348 2.965,1.867 C 2.994,-7.612 3.663,-3.664 0,0"
                 inkscape:connector-curvature="0" />
            </g>
            <g
               transform="translate(33,32.0005)"
               id="g24">
              <path
                 id="path26"
                 style="fill:#292f33;fill-opacity:1;fill-rule:nonzero;stroke:none"
                 d="M 0,0 -13.878,-15 -16,-12.879 -1,1 0,0 Z"
                 inkscape:connector-curvature="0" />
            </g>
            <g
               transform="translate(35.7041,34.3145)"
               id="g28">
              <path
                 id="path18"
                 style="fill:#f18f26;fill-opacity:1;fill-rule:nonzero;stroke:none"
                 d="m 0,0 c 0.437,-0.438 0.437,-1.155 -0.001,-1.592 l -3.187,-3.186 c -0.438,-0.438 -1.155,-0.438 -1.592,0 l -1.39,1.389 c -0.437,0.438 -0.437,1.155 0.001,1.593 l 3.187,3.186 c 0.438,0.437 1.155,0.437 1.592,-10e-4 L 0,0 Z"
                 inkscape:connector-curvature="0" />
            </g>
            <g
               transform="translate(35,29)"
               id="g32">
              <path
                 id="path34"
                 style="fill:#642116;fill-opacity:1;fill-rule:nonzero;stroke:none"
                 d="m 0,0 c 0,-0.552 -0.447,-1 -1,-1 -0.553,0 -1,0.448 -1,1 0,0.552 0.447,1 1,1 0.553,0 1,-0.448 1,-1"
                 inkscape:connector-curvature="0" />
            </g>
            <g
               transform="translate(37,31)"
               id="g36">
              <path
                 id="path38"
                 style="fill:#642116;fill-opacity:1;fill-rule:nonzero;stroke:none"
                 d="m 0,0 c 0,-0.553 -0.447,-1 -1,-1 -0.553,0 -1,0.447 -1,1 0,0.553 0.447,1 1,1 0.553,0 1,-0.447 1,-1"
                 inkscape:connector-curvature="0" />
            </g>
            <g
               transform="translate(30,34)"
               id="g40">
              <path
                 id="path42"
                 style="fill:#642116;fill-opacity:1;fill-rule:nonzero;stroke:none"
                 d="m 0,0 c 0,-0.553 -0.447,-1 -1,-1 -0.553,0 -1,0.447 -1,1 0,0.553 0.447,1 1,1 0.553,0 1,-0.447 1,-1"
                 inkscape:connector-curvature="0" />
            </g>
            <g
               transform="translate(32,36)"
               id="g44">
              <path
                 id="path46"
                 style="fill:#642116;fill-opacity:1;fill-rule:nonzero;stroke:none"
                 d="m 0,0 c 0,-0.553 -0.447,-1 -1,-1 -0.553,0 -1,0.447 -1,1 0,0.553 0.447,1 1,1 0.553,0 1,-0.447 1,-1"
                 inkscape:connector-curvature="0" />
            </g>
            <g
               transform="translate(3,5)"
               id="g48">
              <path
                 id="path50"
                 style="fill:#292f33;fill-opacity:1;fill-rule:nonzero;stroke:none"
                 d="M 0,0 4,5 C 4,5 4.999,5 6,4 7,3 7,2 7,2 L 2,-2 0,0 Z"
                 inkscape:connector-curvature="0" />
            </g>
            <g
               transform="translate(13.9995,10)"
               id="g52">
              <path
                 id="path54"
                 style="fill:#fee7b8;fill-opacity:1;fill-rule:nonzero;stroke:none"
                 d="m 0,0 c -0.256,0 -0.512,0.098 -0.707,0.293 l -3,3 c -0.391,0.391 -0.391,1.023 0,1.414 0.391,0.391 1.023,0.391 1.414,0 l 3,-3 C 1.098,1.316 1.098,0.684 0.707,0.293 0.512,0.098 0.256,0 0,0"
                 inkscape:connector-curvature="0" />
            </g>
          </g>
        </g>
      </g>
    </g>
    <g
       transform="matrix(0.47280645,-0.36939689,0.36939689,0.47280645,61.933563,158.29091)"
       id="g33">
      <g
         transform="matrix(1.25,0,0,-1.25,0,45)"
         id="g35">
        <g
           id="g37">
          <g
             clip-path="url(#clipPath16)"
             id="g39">
            <g
               transform="translate(9,4.5)"
               id="g41">
              <path
                 id="path43"
                 style="fill:#292f33;fill-opacity:1;fill-rule:nonzero;stroke:none"
                 d="M 0,0 C 0,-2.485 -2.015,-4.5 -4.5,-4.5 -6.985,-4.5 -9,-2.485 -9,0 -9,2.485 -6.985,4.5 -4.5,4.5 -2.015,4.5 0,2.485 0,0"
                 inkscape:connector-curvature="0" />
            </g>
            <g
               transform="translate(1.5,4.5)"
               id="g45">
              <path
                 id="path47"
                 style="fill:#dd2e44;fill-opacity:1;fill-rule:nonzero;stroke:none"
                 d="M 0,0 C 0,1.657 1.343,3 3,3 4.657,3 6,1.657 6,0 6,-1.657 4.657,-3 3,-3 1.343,-3 0,-1.657 0,0"
                 inkscape:connector-curvature="0" />
            </g>
            <g
               transform="translate(36,4.5)"
               id="g49">
              <path
                 id="path51"
                 style="fill:#292f33;fill-opacity:1;fill-rule:nonzero;stroke:none"
                 d="M 0,0 C 0,-2.485 -2.015,-4.5 -4.5,-4.5 -6.985,-4.5 -9,-2.485 -9,0 -9,2.485 -6.985,4.5 -4.5,4.5 -2.015,4.5 0,2.485 0,0"
                 inkscape:connector-curvature="0" />
            </g>
            <g
               transform="translate(28.5,4.5)"
               id="g53">
              <path
                 id="path55"
                 style="fill:#dd2e44;fill-opacity:1;fill-rule:nonzero;stroke:none"
                 d="M 0,0 C 0,1.657 1.343,3 3,3 4.657,3 6,1.657 6,0 6,-1.657 4.657,-3 3,-3 1.343,-3 0,-1.657 0,0"
                 inkscape:connector-curvature="0" />
            </g>
            <g
               transform="translate(31.5,3)"
               id="g57">
              <path
                 id="path59"
                 style="fill:#55acee;fill-opacity:1;fill-rule:nonzero;stroke:none"
                 d="m 0,0 -20,0 c -0.825,0 -1.5,0.675 -1.5,1.5 0,0.825 0.675,1.5 1.5,1.5 L 0,3 C 0.825,3 1.5,2.325 1.5,1.5 1.5,0.675 0.825,0 0,0"
                 inkscape:connector-curvature="0" />
            </g>
            <g
               transform="translate(26.0124,4.2539)"
               id="g61">
              <path
                 id="path63"
                 style="fill:#55acee;fill-opacity:1;fill-rule:nonzero;stroke:none"
                 d="m 0,0 c -0.004,0.082 -0.012,0.163 -0.012,0.246 0,3.038 2.462,5.5 5.5,5.5 1.21,0 2.325,-0.396 3.234,-1.058 l 0.89,1.205 C 8.454,6.74 7.032,7.246 5.488,7.246 c -3.866,0 -7,-3.134 -7,-7 0,-0.102 0.01,-0.201 0.015,-0.302 C -1,-0.038 -0.497,-0.019 0,0"
                 inkscape:connector-curvature="0" />
            </g>
            <g
               transform="translate(5.6287,9.8831)"
               id="g65">
              <path
                 id="path67"
                 style="fill:#55acee;fill-opacity:1;fill-rule:nonzero;stroke:none"
                 d="m 0,0 c 2.495,-0.52 4.369,-2.73 4.371,-5.378 l 3.5,-0.004 c 0,4.341 -3.074,7.962 -7.163,8.81 C 0.476,2.298 0.232,1.119 0,0"
                 inkscape:connector-curvature="0" />
            </g>
            <g
               transform="translate(4.3951,4.0023)"
               id="g69">
              <path
                 id="path71"
                 style="fill:#99aab5;fill-opacity:1;fill-rule:nonzero;stroke:none"
                 d="M 0,0 0,0 C -0.269,0.057 -0.442,0.324 -0.385,0.593 L 5.617,28.831 C 5.674,29.1 5.941,29.273 6.21,29.216 6.479,29.159 6.652,28.892 6.595,28.623 L 0.593,0.385 C 0.536,0.116 0.269,-0.057 0,0"
                 inkscape:connector-curvature="0" />
            </g>
            <g
               transform="translate(6.1235,9.7393)"
               id="g73">
              <path
                 id="path75"
                 style="fill:#55acee;fill-opacity:1;fill-rule:nonzero;stroke:none"
                 d="m 0,0 -0.978,0.208 c -0.538,0.114 -0.885,0.648 -0.77,1.186 l 1.247,5.869 c 0.114,0.538 0.648,0.884 1.186,0.77 L 1.663,7.825 C 2.201,7.711 2.548,7.177 2.434,6.639 L 1.186,0.77 C 1.072,0.232 0.538,-0.114 0,0"
                 inkscape:connector-curvature="0" />
            </g>
            <g
               transform="translate(9.2995,31.6764)"
               id="g56">
              <path
                 id="path58"
                 style="fill:#dd2e44;fill-opacity:1;fill-rule:nonzero;stroke:none"
                 d="M 0,0 -1.956,0.416 C -2.763,0.587 -3.283,1.388 -3.112,2.195 -2.94,3.002 -2.14,3.522 -1.333,3.35 L 0.624,2.934 C 1.431,2.763 1.951,1.962 1.779,1.155 1.608,0.348 0.807,-0.172 0,0"
                 inkscape:connector-curvature="0" />
            </g>
            <g
               transform="translate(10.8404,34.3248)"
               id="g60">
              <path
                 id="path62"
                 style="fill:#55acee;fill-opacity:1;fill-rule:nonzero;stroke:none"
                 d="m 0,0 c -0.807,0.172 -1.608,-0.348 -1.779,-1.155 l -1.352,-6.358 c -0.114,-0.538 0.233,-1.072 0.771,-1.186 l 0.978,-0.208 c 0.538,-0.115 1.072,0.232 1.186,0.77 l 1.351,6.358 C 1.327,-0.972 0.807,-0.172 0,0"
                 inkscape:connector-curvature="0" />
            </g>
            <g
               transform="translate(14.1053,30.6549)"
               id="g64">
              <path
                 id="path66"
                 style="fill:#dd2e44;fill-opacity:1;fill-rule:nonzero;stroke:none"
                 d="M 0,0 -2.934,0.624 C -3.741,0.795 -4.261,1.596 -4.09,2.403 -3.918,3.21 -3.118,3.73 -2.311,3.558 L 0.624,2.934 C 1.431,2.763 1.951,1.962 1.779,1.155 1.608,0.348 0.807,-0.172 0,0"
                 inkscape:connector-curvature="0" />
            </g>
            <g
               transform="translate(15.9034,31.8062)"
               id="g68">
              <path
                 id="path70"
                 style="fill:#ea596e;fill-opacity:1;fill-rule:nonzero;stroke:none"
                 d="m 0,0 c -0.172,-0.81 -0.969,-1.328 -1.779,-1.155 -0.81,0.172 -1.328,0.968 -1.155,1.779 0.172,0.81 0.968,1.327 1.779,1.155 C -0.345,1.607 0.172,0.81 0,0"
                 inkscape:connector-curvature="0" />
            </g>
            <g
               transform="translate(35.93,9.5397)"
               id="g72">
              <path
                 id="path74"
                 style="fill:#55acee;fill-opacity:1;fill-rule:nonzero;stroke:none"
                 d="m 0,0 c 0,-0.409 -0.331,-0.74 -0.74,-0.74 -0.409,0 -0.74,0.331 -0.74,0.74 0,0.409 0.331,0.74 0.74,0.74 C -0.331,0.74 0,0.409 0,0"
                 inkscape:connector-curvature="0" />
            </g>
          </g>
        </g>
      </g>
    </g>
    <g
       transform="matrix(-0.60376766,0.52484722,-0.52484722,-0.60376766,155.74563,46.89187)"
       id="g87">
      <g
         transform="matrix(1.25,0,0,-1.25,0,45)"
         id="g89">
        <g
           id="g91">
          <g
             clip-path="url(#clipPath16)"
             id="g93">
            <g
               transform="translate(13.5,12.5109)"
               id="g95">
              <path
                 id="path97"
                 style="fill:#662113;fill-opacity:1;fill-rule:nonzero;stroke:none"
                 d="M 0,0 C 0,0 -1.103,-1.377 -0.737,-3.268 -0.512,-4.433 0.577,-5.635 2.038,-5.86 2.526,-5.936 2.764,-6.888 2.629,-7.588 2.476,-8.38 1.93,-9.49 1.63,-10.053 1.329,-10.617 0.74,-10.615 0.015,-11.266 -0.49,-11.72 -0.662,-12.511 0.202,-12.511 l 3.821,0 c 0.766,0 1.255,0.469 1.418,1.241 0.226,1.071 1.094,5.148 0.846,5.936 C 6.11,-4.77 5.51,-4.32 5.123,-3.231 4.836,-2.423 5.5,-0.263 5.5,-0.263 L 0,0 Z"
                 inkscape:connector-curvature="0" />
            </g>
            <g
               transform="translate(2.5397,13.1182)"
               id="g99">
              <path
                 id="path101"
                 style="fill:#662113;fill-opacity:1;fill-rule:nonzero;stroke:none"
                 d="m 0,0 c 0,0 0.797,0.724 1.344,0.937 0.547,0.214 2.554,0.058 3.065,0.165 0.511,0.106 1.363,0.97 1.363,0.97 0,0 2.144,-0.835 2.166,-1.04 0.023,-0.206 -1.439,-1.618 -1.76,-1.987 -0.321,-0.368 -2.316,0.537 -2.91,0.537 -0.594,0 -1.842,-0.534 -2.282,-0.783 -0.439,-0.249 -0.51,0.131 -0.261,0.404 0,0 -0.401,-0.49 -0.539,-0.31 -0.138,0.18 0.231,0.572 0.231,0.572 0,0 -0.345,-0.439 -0.535,-0.297 C -0.308,-0.689 -0.312,-0.376 0,0"
                 inkscape:connector-curvature="0" />
            </g>
            <g
               transform="translate(14.4155,29.3028)"
               id="g103">
              <path
                 id="path105"
                 style="fill:#662113;fill-opacity:1;fill-rule:nonzero;stroke:none"
                 d="m 0,0 c -0.233,-0.62 -0.831,-1.637 0.355,-1.72 1.185,-0.083 0.021,-1.248 -1.031,-1.323 -1.052,-0.075 -4.471,1.39 -4.095,2.254 0.376,0.864 1.88,1.803 3.044,1.578 C -0.563,0.563 0,0 0,0"
                 inkscape:connector-curvature="0" />
            </g>
            <g
               transform="translate(20.8125,30.5469)"
               id="g107">
              <path
                 id="path109"
                 style="fill:#f4900c;fill-opacity:1;fill-rule:nonzero;stroke:none"
                 d="m 0,0 c -0.078,-0.578 -0.234,-1 -0.344,-0.984 -0.109,0.015 -0.375,1.062 -0.375,1.062 0,0 -0.203,-1.156 -0.343,-1.14 C -1.203,-1.047 -1.344,0 -1.344,0 c 0,0 -0.234,-1.063 -0.39,-1.063 C -1.891,-1.062 -2.094,0 -2.094,0 c 0,0 -0.17,-1.052 -0.295,-1.067 -0.125,-0.016 -0.502,0.959 -0.502,0.959 0,0 -0.218,-0.986 -0.328,-0.986 -0.109,0 -0.422,0.986 -0.422,0.986 0,0 -0.187,-0.97 -0.281,-0.97 -0.094,0 -0.437,0.97 -0.437,0.97 0,0 -0.139,-1.04 -0.235,-1.064 -0.256,-0.062 -0.72,0.891 -0.72,0.891 0,0 0.218,-1.061 0.08,-1.079 -0.235,-0.032 -0.985,0.735 -0.985,0.735 0,0 0.953,0.953 1.719,1.109 0.766,0.157 4.016,0.782 4.391,0.641 C 0.266,0.984 0,0 0,0"
                 inkscape:connector-curvature="0" />
            </g>
            <g
               transform="translate(20.1757,27.8055)"
               id="g111">
              <path
                 id="path113"
                 style="fill:#f4900c;fill-opacity:1;fill-rule:nonzero;stroke:none"
                 d="M 0,0 C -0.137,0.567 -0.336,0.97 -0.444,0.944 -0.551,0.917 -0.575,-0.06 -0.575,-0.06 c 0,0 -0.453,1.037 -0.592,1.007 -0.138,-0.03 -0.061,-1.074 -0.061,-1.074 0,0 -0.452,1.021 -0.607,1.005 C -1.99,0.862 -1.927,-0.2 -1.927,-0.2 c 0,0 -0.522,1.093 -0.648,1.095 -0.126,0.003 -0.141,-1.067 -0.141,-1.067 0,0 -0.387,1.013 -0.496,1.001 -0.109,-0.011 -0.231,-1.108 -0.231,-1.108 0,0 -0.289,0.976 -0.383,0.966 -0.093,-0.01 -0.256,-1.016 -0.256,-1.016 0,0 -0.294,0.865 -0.39,0.886 -0.097,0.021 -0.221,-0.903 -0.221,-0.903 0,0 -0.289,0.683 -0.42,0.732 -0.131,0.049 -0.216,-0.879 -0.216,-0.879 0,0 0.125,-0.377 0.903,-0.453 0.778,-0.077 4.075,-0.363 4.433,-0.184 C 0.366,-0.952 0,0 0,0"
                 inkscape:connector-curvature="0" />
            </g>
            <g
               transform="translate(11.0346,28.5139)"
               id="g115">
              <path
                 id="path117"
                 style="fill:#ab7e59;fill-opacity:1;fill-rule:nonzero;stroke:none"
                 d="M 0,0 C 0.114,0.683 2.141,-0.338 2.554,-0.225 2.968,-0.113 4.62,1.54 5.071,1.578 5.522,1.615 9.542,1.69 9.992,1.916 10.443,2.141 10.18,3.907 9.767,4.395 9.354,4.884 7.889,5.973 6.161,6.161 4.433,6.349 3.231,6.386 2.667,6.687 2.104,6.987 0.864,7.1 0,6.687 -0.864,6.273 -3.944,5.785 -5.222,4.508 -6.499,3.231 -7.964,1.54 -8.302,-1.202 c -0.338,-2.742 0.516,-4.573 1.052,-5.582 0.393,-0.742 1.502,-3.509 1.765,-4.598 0.263,-1.09 1.846,-4.978 4.934,-5.88 3.089,-0.901 5.359,-2.648 8.177,-3.099 3.208,-0.513 9.091,0.188 12.096,2.067 3.005,1.878 4.47,3.794 4.47,6.31 0,2.517 -1.615,5.26 -3.869,5.335 -2.254,0.075 -0.789,-0.676 -0.113,-0.827 0.676,-0.15 1.991,-1.765 1.691,-3.193 -0.301,-1.427 -0.902,-2.517 -2.517,-2.554 -1.615,-0.038 -3.306,1.765 -4.208,2.968 -0.901,1.202 -4.958,3.339 -6.874,3.454 -1.916,0.114 -5.898,0.114 -6.386,1.316 -0.489,1.202 -0.376,1.804 -0.038,1.954 0.338,0.15 2.217,0.563 3.531,0.601 1.315,0.037 3.644,0.375 3.945,0.826 0.3,0.451 0.225,1.39 -0.113,1.428 -0.338,0.037 -2.442,-0.188 -3.043,-0.188 -0.601,0 -0.939,0.488 -1.578,0.301 C 3.982,-0.751 2.817,-1.465 2.329,-1.39 1.841,-1.315 -0.038,-0.225 0,0"
                 inkscape:connector-curvature="0" />
            </g>
            <g
               transform="translate(26.9516,9.7475)"
               id="g119">
              <path
                 id="path121"
                 style="fill:#8b5e3c;fill-opacity:1;fill-rule:nonzero;stroke:none"
                 d="m 0,0 c -2.693,-0.388 -7.846,0.466 -9.358,0.982 -1.512,0.516 -4.615,1.318 -6.801,1.781 -2.186,0.464 -3.884,2.299 -5.084,4.099 0.519,-1.484 2.069,-4.567 4.775,-5.357 3.089,-0.902 5.359,-2.648 8.177,-3.099 C -5.083,-2.107 0.8,-1.406 3.805,0.472 4.896,1.154 5.777,1.841 6.465,2.559 5.518,1.851 2.68,0.386 0,0"
                 inkscape:connector-curvature="0" />
            </g>
            <g
               transform="translate(12.8164,34.4318)"
               id="g123">
              <path
                 id="path125"
                 style="fill:#8b5e3c;fill-opacity:1;fill-rule:nonzero;stroke:none"
                 d="m 0,0 c 1.336,-0.208 0.203,-0.909 2.683,-0.904 0,0 -1.873,-1 -2.624,-1 -1.297,0 -1.568,0.644 -1.567,1.182 C -1.508,-0.238 -0.7,0.109 0,0"
                 inkscape:connector-curvature="0" />
            </g>
            <g
               transform="translate(13,33.5)"
               id="g127">
              <path
                 id="path129"
                 style="fill:#292f33;fill-opacity:1;fill-rule:nonzero;stroke:none"
                 d="M 0,0 C 0,-0.276 -0.224,-0.5 -0.5,-0.5 -0.776,-0.5 -1,-0.276 -1,0 -1,0.276 -0.776,0.5 -0.5,0.5 -0.224,0.5 0,0.276 0,0"
                 inkscape:connector-curvature="0" />
            </g>
            <g
               transform="translate(17.1319,11.2337)"
               id="g131">
              <path
                 id="path133"
                 style="fill:#ab7e59;fill-opacity:1;fill-rule:nonzero;stroke:none"
                 d="M 0,0 C 0,0 0.424,-1.503 1.796,-2.855 3.168,-4.207 5.917,-4.508 6.406,-4.583 6.894,-4.658 7.423,-4.846 7.648,-5.522 7.874,-6.198 8.299,-8.213 7.998,-8.776 7.697,-9.34 6.45,-9.654 6.111,-10.293 5.921,-10.65 5.428,-11.234 6.292,-11.234 l 4.576,0 c 0.766,0 0.954,0.603 0.954,1.392 0,0.789 0.263,2.066 -0.226,3.456 -0.488,1.39 -0.676,3.493 -1.502,3.719 -0.827,0.225 -2.142,2.479 -2.142,2.479 L 0,0 Z"
                 inkscape:connector-curvature="0" />
            </g>
            <g
               transform="translate(4.3548,9.2523)"
               id="g135">
              <path
                 id="path137"
                 style="fill:#ab7e59;fill-opacity:1;fill-rule:nonzero;stroke:none"
                 d="m 0,0 c 0,0 0.559,0.996 1.037,1.395 0.478,0.398 2.55,0.916 3.028,1.195 0.478,0.279 1.046,1.434 1.046,1.434 0,0 2.437,-0.119 2.528,-0.319 C 7.731,3.506 6.735,1.594 6.536,1.116 6.336,0.637 4.025,0.876 3.428,0.677 2.83,0.478 1.754,-0.478 1.396,-0.877 1.037,-1.275 0.838,-0.916 0.997,-0.558 c 0,0 -0.239,-0.628 -0.438,-0.493 -0.199,0.135 0.04,0.653 0.04,0.653 0,0 -0.199,-0.558 -0.438,-0.479 C -0.078,-0.797 -0.188,-0.483 0,0"
                 inkscape:connector-curvature="0" />
            </g>
            <g
               transform="translate(15.7104,20.337)"
               id="g139">
              <path
                 id="path141"
                 style="fill:#8b5e3c;fill-opacity:1;fill-rule:nonzero;stroke:none"
                 d="m 0,0 c 0,-0.318 -0.258,-0.576 -0.576,-0.576 -0.318,0 -0.576,0.258 -0.576,0.576 0,0.318 0.258,0.576 0.576,0.576 C -0.258,0.576 0,0.318 0,0"
                 inkscape:connector-curvature="0" />
            </g>
            <g
               transform="translate(18.7712,19.0734)"
               id="g143">
              <path
                 id="path145"
                 style="fill:#8b5e3c;fill-opacity:1;fill-rule:nonzero;stroke:none"
                 d="m 0,0 c 0,-0.453 -0.367,-0.82 -0.82,-0.82 -0.452,0 -0.819,0.367 -0.819,0.82 0,0.453 0.367,0.82 0.819,0.82 C -0.367,0.82 0,0.453 0,0"
                 inkscape:connector-curvature="0" />
            </g>
            <g
               transform="translate(17.1319,20.7451)"
               id="g147">
              <path
                 id="path149"
                 style="fill:#8b5e3c;fill-opacity:1;fill-rule:nonzero;stroke:none"
                 d="m 0,0 c 0,-0.241 -0.195,-0.436 -0.436,-0.436 -0.241,0 -0.436,0.195 -0.436,0.436 0,0.241 0.195,0.436 0.436,0.436 C -0.195,0.436 0,0.241 0,0"
                 inkscape:connector-curvature="0" />
            </g>
            <g
               transform="translate(20.0868,20.5054)"
               id="g76">
              <path
                 id="path78"
                 style="fill:#8b5e3c;fill-opacity:1;fill-rule:nonzero;stroke:none"
                 d="m 0,0 c 0,-0.228 -0.185,-0.412 -0.412,-0.412 -0.228,0 -0.413,0.184 -0.413,0.412 0,0.228 0.185,0.412 0.413,0.412 C -0.185,0.412 0,0.228 0,0"
                 inkscape:connector-curvature="0" />
            </g>
            <g
               transform="translate(22.6996,19.3307)"
               id="g80">
              <path
                 id="path82"
                 style="fill:#8b5e3c;fill-opacity:1;fill-rule:nonzero;stroke:none"
                 d="m 0,0 c 0,-0.421 -0.341,-0.762 -0.762,-0.762 -0.421,0 -0.763,0.341 -0.763,0.762 0,0.421 0.342,0.762 0.763,0.762 C -0.341,0.762 0,0.421 0,0"
                 inkscape:connector-curvature="0" />
            </g>
            <g
               transform="translate(25.5952,15.6776)"
               id="g84">
              <path
                 id="path86"
                 style="fill:#8b5e3c;fill-opacity:1;fill-rule:nonzero;stroke:none"
                 d="m 0,0 c 0,-0.27 -0.218,-0.488 -0.488,-0.488 -0.269,0 -0.488,0.218 -0.488,0.488 0,0.27 0.219,0.488 0.488,0.488 C -0.218,0.488 0,0.27 0,0"
                 inkscape:connector-curvature="0" />
            </g>
            <g
               transform="translate(21.0626,17.7658)"
               id="g88">
              <path
                 id="path90"
                 style="fill:#8b5e3c;fill-opacity:1;fill-rule:nonzero;stroke:none"
                 d="m 0,0 c 0,-0.27 -0.218,-0.488 -0.488,-0.488 -0.269,0 -0.488,0.218 -0.488,0.488 0,0.269 0.219,0.488 0.488,0.488 C -0.218,0.488 0,0.269 0,0"
                 inkscape:connector-curvature="0" />
            </g>
            <g
               transform="translate(25.4781,17.7658)"
               id="g92">
              <path
                 id="path94"
                 style="fill:#8b5e3c;fill-opacity:1;fill-rule:nonzero;stroke:none"
                 d="m 0,0 c 0,-0.27 -0.218,-0.488 -0.488,-0.488 -0.269,0 -0.488,0.218 -0.488,0.488 0,0.269 0.219,0.488 0.488,0.488 C -0.218,0.488 0,0.269 0,0"
                 inkscape:connector-curvature="0" />
            </g>
            <g
               transform="translate(23.9852,18.0195)"
               id="g96">
              <path
                 id="path98"
                 style="fill:#8b5e3c;fill-opacity:1;fill-rule:nonzero;stroke:none"
                 d="m 0,0 c 0,-0.399 -0.323,-0.722 -0.722,-0.722 -0.399,0 -0.722,0.323 -0.722,0.722 0,0.399 0.323,0.722 0.722,0.722 C -0.323,0.722 0,0.399 0,0"
                 inkscape:connector-curvature="0" />
            </g>
          </g>
        </g>
      </g>
    </g>
    <g
       transform="matrix(-0.73723684,0.51621879,-0.51621879,-0.73723684,83.150808,88.086283)"
       id="g163">
      <g
         transform="matrix(1.25,0,0,-1.25,0,47.5)"
         id="g165">
        <g
           id="g167">
          <g
             clip-path="url(#clipPath16)"
             id="g169">
            <g
               transform="translate(28,17)"
               id="g171">
              <path
                 id="path173"
                 style="fill:#ffcc4d;fill-opacity:1;fill-rule:nonzero;stroke:none"
                 d="m 0,0 c 0,-1.657 -4.03,-3 -9,-3 -4.97,0 -9,1.343 -9,3 0,1.657 4.03,3 9,3 4.97,0 9,-1.343 9,-3"
                 inkscape:connector-curvature="0" />
            </g>
            <g
               transform="translate(18.1816,14)"
               id="g175">
              <path
                 id="path177"
                 style="fill:#ffcc4d;fill-opacity:1;fill-rule:nonzero;stroke:none"
                 d="m 0,0 -7.363,0 c 0,0 1.352,-6.5 2.35,-9.752 C -4.014,-13.006 -0.408,-13 0.41,-13 2.045,-13 4.834,-13.006 5.832,-9.752 6.828,-6.5 9.001,0 9.001,0 L 0,0 Z"
                 inkscape:connector-curvature="0" />
            </g>
          </g>
        </g>
        <g
           id="g179">
          <g
             clip-path="url(#clipPath32)"
             id="g30">
            <g
               transform="translate(27.1826,12.5)"
               id="g182">
              <path
                 id="path184"
                 style="fill:#ffac33;fill-opacity:1;fill-rule:nonzero;stroke:none"
                 d="m 0,0 c 0,-1.657 -2.76,-3.5 -8.183,-3.5 -5.422,0 -8.181,1.843 -8.181,3.5 0,1.657 2.759,3 8.181,3 C -2.76,3 0,1.657 0,0"
                 inkscape:connector-curvature="0" />
            </g>
          </g>
        </g>
        <g
           id="g186">
          <g
             clip-path="url(#clipPath44)"
             id="g42">
            <g
               transform="translate(10,17)"
               id="g189">
              <path
                 id="path191"
                 style="fill:#ffcc4d;fill-opacity:1;fill-rule:nonzero;stroke:none"
                 d="m 0,0 0,-3 c 0,-1.657 4.03,-3 9,-3 4.97,0 9,1.343 9,3 L 18,0 0,0 Z"
                 inkscape:connector-curvature="0" />
            </g>
            <g
               transform="translate(27.1826,16.5)"
               id="g193">
              <path
                 id="path195"
                 style="fill:#f4900c;fill-opacity:1;fill-rule:nonzero;stroke:none"
                 d="m 0,0 c 0,-1.381 -3.664,-2.5 -8.183,-2.5 -4.519,0 -8.181,1.119 -8.181,2.5 0,1.381 3.662,2.5 8.181,2.5 C -3.664,2.5 0,1.381 0,0"
                 inkscape:connector-curvature="0" />
            </g>
            <g
               transform="translate(29.375,19.8501)"
               id="g197">
              <path
                 id="path199"
                 style="fill:#ffe8b6;fill-opacity:1;fill-rule:nonzero;stroke:none"
                 d="m 0,0 c 0,2.405 -1.949,4.354 -4.354,4.354 -2.405,0 -14.188,-4.803 -14.188,-7.208 0,-2.404 8.084,-2.329 13.751,-1.371 C -2.42,-3.825 0,-2.405 0,0"
                 inkscape:connector-curvature="0" />
            </g>
            <g
               transform="translate(27.6436,26.0342)"
               id="g201">
              <path
                 id="path203"
                 style="fill:#ffe8b6;fill-opacity:1;fill-rule:nonzero;stroke:none"
                 d="m 0,0 c -1.014,2.432 -3.868,3.606 -6.374,2.623 l -10.21,-4.008 0.001,-10e-4 c -1.794,-0.705 -3.061,-2.409 -3.061,-4.402 0,-2.623 2.192,-4.75 4.895,-4.75 6.145,0 12.417,4.183 12.417,4.183 C 0.014,-4.896 1.014,-2.432 0,0"
                 inkscape:connector-curvature="0" />
            </g>
            <g
               transform="translate(25.5088,30.501)"
               id="g205">
              <path
                 id="path207"
                 style="fill:#ffe8b6;fill-opacity:1;fill-rule:nonzero;stroke:none"
                 d="m 0,0 c -0.781,1.784 -2.982,2.646 -4.915,1.924 l -7.874,-2.939 10e-4,-0.002 c -1.384,-0.517 -2.36,-1.767 -2.36,-3.23 0,-1.924 1.69,-3.484 3.774,-3.484 4.74,0 9.575,3.068 9.575,3.068 C 0.011,-3.592 0.782,-1.784 0,0"
                 inkscape:connector-curvature="0" />
            </g>
            <g
               transform="translate(21.6943,32.0791)"
               id="g209">
              <path
                 id="path211"
                 style="fill:#ffe8b6;fill-opacity:1;fill-rule:nonzero;stroke:none"
                 d="m 0,0 c 0,0 0.593,1.781 -1.781,1.781 -3.562,0 -5.771,-0.845 -5.771,-0.845 l 0,-0.001 c -0.808,-0.327 -1.379,-1.119 -1.379,-2.044 0,-1.219 0.988,-2.206 2.206,-2.206 2.769,0 5.597,1.942 5.597,1.942 C -0.072,-0.695 0,0 0,0"
                 inkscape:connector-curvature="0" />
            </g>
            <g
               transform="translate(17.9824,36.8613)"
               id="g213">
              <path
                 id="path215"
                 style="fill:#ffe8b6;fill-opacity:1;fill-rule:nonzero;stroke:none"
                 d="M 0,0 C 1.781,-2.375 4.156,-1.177 4.751,-2.959 5.313,-4.648 3.562,-5.333 3.562,-5.333 l -4.749,0 c 0,0 -1.782,3.552 1.187,5.333"
                 inkscape:connector-curvature="0" />
            </g>
          </g>
        </g>
        <g
           id="g217">
          <g
             clip-path="url(#clipPath80)"
             id="g78">
            <g
               transform="translate(10.167,24.6211)"
               id="g220">
              <path
                 id="path222"
                 style="fill:#ffd983;fill-opacity:1;fill-rule:nonzero;stroke:none"
                 d="m 0,0 c 3.417,0 9.708,1.125 16.5,5.833 2.103,1.458 3.667,-0.875 2,-2.458 C 16.833,1.792 4.417,-4.042 0.167,-3.25 -4.083,-2.458 0,0 0,0"
                 inkscape:connector-curvature="0" />
            </g>
          </g>
        </g>
        <g
           id="g224">
          <g
             clip-path="url(#clipPath92)"
             id="g90">
            <g
               transform="translate(7.792,18.6626)"
               id="g227">
              <path
                 id="path229"
                 style="fill:#ffd983;fill-opacity:1;fill-rule:nonzero;stroke:none"
                 d="M 0,0 C 1.542,-0.708 5.458,-0.583 7.958,0.125 10.458,0.833 19.208,3.667 20.5,6.792 21.792,9.917 23.333,7.375 22.958,5 22.583,2.625 11.792,-6.458 6.667,-5.375 1.542,-4.292 -1.667,-4.583 -2,-2.792 -2.333,-1 0,0 0,0"
                 inkscape:connector-curvature="0" />
            </g>
          </g>
        </g>
        <g
           id="g100">
          <g
             clip-path="url(#clipPath104)"
             id="g102">
            <g
               transform="translate(12.5,30.4546)"
               id="g108">
              <path
                 id="path110"
                 style="fill:#ffd983;fill-opacity:1;fill-rule:nonzero;stroke:none"
                 d="M 0,0 C 2.417,-0.25 10.333,2.292 10.5,4.375 10.667,6.458 12.125,2.625 11.625,1.958 11.125,1.292 1.667,-3.75 -1.75,-1.542 -5.167,0.667 0,0 0,0"
                 inkscape:connector-curvature="0" />
            </g>
          </g>
        </g>
      </g>
    </g>
    <g
       transform="matrix(-0.51854497,-0.51854497,0.51854497,-0.51854497,130.29583,172.10071)"
       id="g235">
      <g
         transform="matrix(1.25,0,0,-1.25,0,47.5)"
         id="g237">
        <g
           id="g239">
          <g
             clip-path="url(#clipPath16)"
             id="g241">
            <g
               transform="translate(37,10)"
               id="g243">
              <path
                 id="path245"
                 style="fill:#ccd6dd;fill-opacity:1;fill-rule:nonzero;stroke:none"
                 d="m 0,0 c 0,-2.209 -1.791,-4 -4,-4 l -28,0 c -2.209,0 -4,1.791 -4,4 l 0,18 c 0,2.209 1.791,4 4,4 l 28,0 c 2.209,0 4,-1.791 4,-4 L 0,0 Z"
                 inkscape:connector-curvature="0" />
            </g>
            <g
               transform="translate(12.9492,19.3643)"
               id="g247">
              <path
                 id="path249"
                 style="fill:#99aab5;fill-opacity:1;fill-rule:nonzero;stroke:none"
                 d="m 0,0 -11.313,-11.313 c -0.026,-0.028 -0.037,-0.063 -0.06,-0.091 0.34,-0.571 0.814,-1.043 1.385,-1.384 0.029,0.023 0.063,0.033 0.09,0.059 L 1.416,-1.414 c 0.39,0.391 0.39,1.022 0,1.414 C 1.023,0.391 0.392,0.391 0,0"
                 inkscape:connector-curvature="0" />
            </g>
            <g
               transform="translate(36.4229,7.96)"
               id="g251">
              <path
                 id="path253"
                 style="fill:#99aab5;fill-opacity:1;fill-rule:nonzero;stroke:none"
                 d="m 0,0 c -0.021,0.028 -0.033,0.063 -0.06,0.09 l -11.312,11.314 c -0.392,0.391 -1.024,0.391 -1.415,0 -0.391,-0.391 -0.391,-1.023 0,-1.414 L -1.474,-1.324 c 0.027,-0.027 0.062,-0.037 0.09,-0.06 C -0.813,-1.044 -0.34,-0.57 0,0"
                 inkscape:connector-curvature="0" />
            </g>
            <g
               transform="translate(33,32)"
               id="g255">
              <path
                 id="path257"
                 style="fill:#99aab5;fill-opacity:1;fill-rule:nonzero;stroke:none"
                 d="m 0,0 -28,0 c -2.209,0 -4,-1.791 -4,-4 l 0,-1.03 14.527,-14.495 c 1.895,-1.894 4.989,-1.894 6.885,0 L 4,-5.009 4,-4 C 4,-1.791 2.209,0 0,0"
                 inkscape:connector-curvature="0" />
            </g>
            <g
               transform="translate(33,32)"
               id="g259">
              <path
                 id="path261"
                 style="fill:#e1e8ed;fill-opacity:1;fill-rule:nonzero;stroke:none"
                 d="m 0,0 -28,0 c -1.588,0 -2.949,-0.934 -3.595,-2.275 l 14.766,-14.767 c 1.561,-1.562 4.096,-1.562 5.657,0 L 3.595,-2.275 C 2.949,-0.934 1.589,0 0,0"
                 inkscape:connector-curvature="0" />
            </g>
            <g
               transform="translate(28,20.2202)"
               id="g263">
              <path
                 id="path265"
                 style="fill:#e75a70;fill-opacity:1;fill-rule:nonzero;stroke:none"
                 d="m 0,0 c 0,2.754 -2.232,4.987 -4.986,4.987 -1.672,0 -3.148,-0.826 -4.053,-2.087 -0.906,1.261 -2.381,2.087 -4.051,2.087 -2.754,0 -4.987,-2.233 -4.987,-4.987 0,-0.391 0.05,-0.769 0.134,-1.133 0.693,-4.302 5.476,-8.841 8.904,-10.087 3.428,1.246 8.212,5.785 8.904,10.086 C -0.05,-0.769 0,-0.391 0,0"
                 inkscape:connector-curvature="0" />
            </g>
          </g>
        </g>
      </g>
    </g>
    <g
       transform="matrix(-0.59919603,-0.29224743,0.29224743,-0.59919603,98.400666,106.48851)"
       id="g267">
      <g
         transform="matrix(1.25,0,0,-1.25,0,45)"
         id="g269">
        <g
           id="g271">
          <g
             clip-path="url(#clipPath16)"
             id="g273">
            <g
               transform="translate(14.8487,18.4514)"
               id="g275">
              <path
                 id="path277"
                 style="fill:#ef9645;fill-opacity:1;fill-rule:nonzero;stroke:none"
                 d="m 0,0 c 0.274,-1.01 -0.334,-2.049 -1.36,-2.322 l -0.247,-0.065 c -1.026,-0.27 -2.079,0.33 -2.353,1.341 l -3.714,13.659 c -0.471,1.642 -0.147,3.184 1.279,3.601 l 0.449,0.102 c 1.025,0.271 1.625,-0.423 1.899,-1.434 L 0,0 Z"
                 inkscape:connector-curvature="0" />
            </g>
            <g
               transform="translate(21.7875,17.5486)"
               id="g279">
              <path
                 id="path281"
                 style="fill:#ef9645;fill-opacity:1;fill-rule:nonzero;stroke:none"
                 d="m 0,0 c -0.192,-1.075 -1.233,-1.794 -2.325,-1.604 l -0.087,0.015 c -1.091,0.189 -1.819,1.215 -1.627,2.29 l 2.685,15.01 c 0.193,1.076 0.713,1.814 1.805,1.625 l 0.241,-0.073 c 2.77,-0.657 1.621,-4.337 1.993,-2.254 L 0,0 Z"
                 inkscape:connector-curvature="0" />
            </g>
            <g
               transform="translate(11.1357,16.9619)"
               id="g283">
              <path
                 id="path285"
                 style="fill:#ffdc5d;fill-opacity:1;fill-rule:nonzero;stroke:none"
                 d="m 0,0 c 0.259,-0.967 -0.314,-1.961 -1.281,-2.221 l -0.363,-0.096 c -0.966,-0.259 -1.96,0.314 -2.219,1.281 l -3.203,11.953 c -0.259,0.967 0.315,1.962 1.282,2.221 l 0.361,0.096 c 0.967,0.26 1.961,-0.314 2.221,-1.281 L 0,0 Z"
                 inkscape:connector-curvature="0" />
            </g>
            <g
               transform="translate(15.6904,19.2822)"
               id="g287">
              <path
                 id="path289"
                 style="fill:#ffdc5d;fill-opacity:1;fill-rule:nonzero;stroke:none"
                 d="m 0,0 c 0.269,-1 -0.325,-2.028 -1.325,-2.296 l -0.242,-0.065 c -1,-0.268 -2.029,0.326 -2.296,1.326 l -3.948,14.73 c -0.268,1 0.326,2.029 1.326,2.296 l 0.242,0.065 c 1,0.268 2.028,-0.326 2.297,-1.326 L 0,0 Z"
                 inkscape:connector-curvature="0" />
            </g>
            <g
               transform="translate(20.6836,18.0781)"
               id="g291">
              <path
                 id="path293"
                 style="fill:#ffdc5d;fill-opacity:1;fill-rule:nonzero;stroke:none"
                 d="m 0,0 c -0.18,-1.02 -1.152,-1.701 -2.172,-1.521 l -0.246,0.044 c -1.02,0.179 -1.701,1.152 -1.521,2.171 l 2.648,15.018 c 0.18,1.019 1.152,1.701 2.172,1.521 L 1.127,17.19 C 2.146,17.011 2.828,16.037 2.648,15.018 L 0,0 Z"
                 inkscape:connector-curvature="0" />
            </g>
            <g
               transform="translate(25.5859,17.0869)"
               id="g295">
              <path
                 id="path297"
                 style="fill:#ffdc5d;fill-opacity:1;fill-rule:nonzero;stroke:none"
                 d="m 0,0 c -0.168,-0.952 -1.074,-1.588 -2.027,-1.42 l -0.493,0.087 c -0.952,0.168 -1.586,1.075 -1.419,2.027 l 2.518,14.28 c 0.168,0.951 1.075,1.588 2.026,1.42 L 1.099,16.307 C 2.051,16.139 2.686,15.23 2.518,14.279 L 0,0 Z"
                 inkscape:connector-curvature="0" />
            </g>
            <g
               transform="translate(28.9268,8.6406)"
               id="g299">
              <path
                 id="path301"
                 style="fill:#ffdc5d;fill-opacity:1;fill-rule:nonzero;stroke:none"
                 d="M 0,0 C -0.523,-0.903 -1.677,-1.213 -2.581,-0.691 L -2.773,-0.58 C -3.677,-0.059 -3.986,1.097 -3.464,2 l 5.609,9.718 c 0.523,0.903 1.678,1.214 2.582,0.692 L 4.919,12.299 C 5.823,11.777 6.132,10.621 5.61,9.718 L 0,0 Z"
                 inkscape:connector-curvature="0" />
            </g>
            <g
               transform="translate(6.1826,19.9932)"
               id="g303">
              <path
                 id="path305"
                 style="fill:#ffdc5d;fill-opacity:1;fill-rule:nonzero;stroke:none"
                 d="m 0,0 c 0.4,-1.493 -0.183,-5.186 -0.183,-7.993 0,-2.808 2.125,-12 12,-12 9.875,0 10.5,8.234 12,10.666 1.5,2.432 -0.833,6.375 -2,4.375 -1.167,-2 -2.933,-1.163 -2.333,2.375 0.601,3.539 -3.12,5.465 -3.635,2.544 C 15.411,-2.51 14.411,-1.786 14.994,0.88 15.577,3.547 11.48,4.3 10.817,0.673 10.33,-1.993 9.365,-0.219 8.966,1.311 8.567,2.84 4.482,2.974 5.015,0.602 5.776,-2.785 5.01,-3.465 3.901,0.673 3.198,3.297 0,0 0,0"
                 inkscape:connector-curvature="0" />
            </g>
            <g
               transform="translate(26.459,13.9854)"
               id="g307">
              <path
                 id="path309"
                 style="fill:#ef9645;fill-opacity:1;fill-rule:nonzero;stroke:none"
                 d="M 0,0 C 0.023,0.002 0.046,0.008 0.069,0.011 -0.319,0.079 -0.644,0.45 -0.804,1.117 -2.721,0.869 -5.39,0.404 -7.459,-1.619 c -2.556,-2.499 -2.992,-5.2 -2.971,-7.007 0.016,-1.457 0.812,-2.146 1.045,0.012 C -9.084,-5.819 -7.037,-0.574 0,0"
                 inkscape:connector-curvature="0" />
            </g>
          </g>
        </g>
      </g>
    </g>
    <g
       transform="matrix(0.03373618,0.9660778,-0.9660778,0.03373618,71.146932,99.296621)"
       id="g311">
      <g
         transform="matrix(1.25,0,0,-1.25,0,45)"
         id="g313">
        <g
           id="g315">
          <g
             clip-path="url(#clipPath16)"
             id="g317">
            <g
               transform="translate(23.2832,12.7246)"
               id="g319">
              <path
                 id="path321"
                 style="fill:#e1e8ed;fill-opacity:1;fill-rule:nonzero;stroke:none"
                 d="m 0,0 c 0,0 1.374,-1.635 2.733,-10.047 0.143,-0.883 0.202,-1.775 0.217,-2.678 l 9.767,0 0,28.553 c -4.387,3.472 -10.4,4.188 -17.678,1.757 0,0 -5.408,3 -6.147,3.74 -0.719,0.719 -1.857,1.555 -1.235,-0.35 0.364,-1.113 0.764,-2.373 2.359,-4.862 -3.436,-2.036 -4.513,-4.68 -8.558,-13.342 -3.089,-6.616 -4.662,-8.764 -3.805,-11.292 1.13,-3.337 5.316,-5.595 8.844,-3.021 1.919,1.4 2.246,3.913 6.225,6.223 C -3.624,-5.255 0,-3.716 0,0"
                 inkscape:connector-curvature="0" />
            </g>
            <g
               transform="translate(36,29.9878)"
               id="g323">
              <path
                 id="path325"
                 style="fill:#292f33;fill-opacity:1;fill-rule:nonzero;stroke:none"
                 d="M 0,0 C -8.335,5.711 -21.646,4.539 -20.091,-0.178 -10.49,1.684 -4.23,-1.719 0,-7.346 L 0,0 Z"
                 inkscape:connector-curvature="0" />
            </g>
            <g
               transform="translate(19.6631,30.2373)"
               id="g327">
              <path
                 id="path329"
                 style="fill:#292f33;fill-opacity:1;fill-rule:nonzero;stroke:none"
                 d="m 0,0 c -2.878,-0.233 -7.28,-1.765 -9.42,-4.137 0,0 -0.005,5.317 3.69,5.783 C 0.441,2.425 0.078,1.284 0.078,1.284 L 0,0 Z"
                 inkscape:connector-curvature="0" />
            </g>
            <g
               transform="translate(16.3569,34.9438)"
               id="g331">
              <path
                 id="path333"
                 style="fill:#e1e8ed;fill-opacity:1;fill-rule:nonzero;stroke:none"
                 d="M 0,0 C 0.558,-1.155 4.006,-1.79 5.056,-6.029 6.107,-10.269 1.922,-8.979 0.7,-6.884 -0.662,-4.551 -1.128,-2.723 -1.167,-1.206 -1.188,-0.404 -1.128,2.333 0,0"
                 inkscape:connector-curvature="0" />
            </g>
            <g
               transform="translate(16.5962,33.1616)"
               id="g335">
              <path
                 id="path337"
                 style="fill:#66757f;fill-opacity:1;fill-rule:nonzero;stroke:none"
                 d="M 0,0 C 1.103,-0.968 2.448,-2.472 2.65,-3.955 2.852,-5.438 1.525,-4.943 0.914,-3.583 0.302,-2.224 0.161,-0.804 -0.22,-0.35 -0.6,0.104 0,0 0,0"
                 inkscape:connector-curvature="0" />
            </g>
            <g
               transform="translate(16.9399,20.4746)"
               id="g339">
              <path
                 id="path341"
                 style="fill:#292f33;fill-opacity:1;fill-rule:nonzero;stroke:none"
                 d="m 0,0 c 0,-0.687 -0.557,-1.244 -1.245,-1.244 -0.687,0 -1.244,0.557 -1.244,1.244 0,0.687 0.557,1.245 1.244,1.245 C -0.557,1.245 0,0.687 0,0"
                 inkscape:connector-curvature="0" />
            </g>
            <g
               transform="translate(10.3545,26.0757)"
               id="g343">
              <path
                 id="path345"
                 style="fill:#e1e8ed;fill-opacity:1;fill-rule:nonzero;stroke:none"
                 d="m 0,0 c -0.033,0.018 -0.075,0.015 -0.111,0.024 -1.543,-2.032 -2.921,-5.102 -5.49,-10.604 -1.356,-2.903 -2.42,-4.946 -3.116,-6.538 1.628,-0.225 3.285,1.443 3.946,3.272 0.673,1.866 3.215,5.652 4.926,7.778 C 1.867,-3.941 1.716,-0.924 0,0"
                 inkscape:connector-curvature="0" />
            </g>
            <g
               transform="translate(28.1875,29.6875)"
               id="g347">
              <path
                 id="path349"
                 style="fill:#292f33;fill-opacity:1;fill-rule:nonzero;stroke:none"
                 d="m 0,0 c 0,0 -2.296,-6.947 -2.302,-8.947 -0.011,-3.803 -2.686,-7.801 -2.686,-7.801 l 1.342,-3.422 c 0,0 3.25,3.04 3.937,10.228 0.571,5.972 2.566,7.666 2.566,7.666 L 0,0 Z"
                 inkscape:connector-curvature="0" />
            </g>
            <g
               transform="translate(34.0625,26.5625)"
               id="g351">
              <path
                 id="path353"
                 style="fill:#292f33;fill-opacity:1;fill-rule:nonzero;stroke:none"
                 d="M 0,0 C 0,0 -3.006,-3.635 -4.062,-9.563 -5.5,-17.625 -8.92,-19.309 -8.92,-19.309 l 0.482,-2.441 c 0,0 5.282,3.056 6.632,9.115 1.619,7.26 3.743,8.714 3.743,8.714 L 0,0 Z"
                 inkscape:connector-curvature="0" />
            </g>
            <g
               transform="translate(3.25,12.5625)"
               id="g355">
              <path
                 id="path357"
                 style="fill:#292f33;fill-opacity:1;fill-rule:nonzero;stroke:none"
                 d="m 0,0 c 0.687,0.714 3.017,-3.808 4.53,-4.884 1.589,-1.13 5.469,-0.934 5.7,-2.162 -1.667,-1.704 -2.762,-4.272 -4.84,-4.988 -2.077,-0.716 -5.71,-0.677 -7.238,2.647 -1.527,3.325 -0.402,4.7 0.223,6.137 C -1,-1.812 -0.167,-0.312 0,0"
                 inkscape:connector-curvature="0" />
            </g>
            <g
               transform="translate(4.2217,6.083)"
               id="g359">
              <path
                 id="path361"
                 style="fill:#66757f;fill-opacity:1;fill-rule:nonzero;stroke:none"
                 d="m 0,0 c 0,-0.881 -0.532,-1.594 -1.187,-1.594 -0.654,0 -1.186,0.713 -1.186,1.594 0,0.882 0.532,1.596 1.186,1.596 C -0.532,1.596 0,0.882 0,0"
                 inkscape:connector-curvature="0" />
            </g>
            <g
               transform="translate(25.9541,3.0547)"
               id="g363">
              <path
                 id="path365"
                 style="fill:#292f33;fill-opacity:1;fill-rule:nonzero;stroke:none"
                 d="m 0,0 c 0,0 4.608,1.57 6.108,3.383 1.5,1.812 3.938,5.562 3.938,5.562 l 0,-6.375 c 0,0 -1.188,-1.625 -3.688,-2.937 C 4.773,-1.199 0.267,-2.618 0.267,-2.618 L 0,0 Z"
                 inkscape:connector-curvature="0" />
            </g>
            <g
               transform="translate(25.0098,29.9204)"
               id="g367">
              <path
                 id="path369"
                 style="fill:#292f33;fill-opacity:1;fill-rule:nonzero;stroke:none"
                 d="m 0,0 c 0,0 -0.947,-2.92 -1.197,-5.92 -0.25,-3 -1.125,-4.875 -1.938,-6.188 0.313,4.25 -0.687,5.875 -0.125,8.125 0.563,2.25 0.87,4.32 0.87,4.32 0,0 0.63,0.368 1.255,0.305 C -0.51,0.58 0,0 0,0"
                 inkscape:connector-curvature="0" />
            </g>
            <g
               transform="translate(4.7534,15.4961)"
               id="g371">
              <path
                 id="path373"
                 style="fill:#292f33;fill-opacity:1;fill-rule:nonzero;stroke:none"
                 d="m 0,0 c 0,0 3.934,0.379 5.747,-0.871 1.812,-1.25 5.331,-7.323 5.331,-7.323 L 9.944,-8.947 c 0,0 -1.697,4.638 -4.76,6.076 -3.062,1.437 -6,1.187 -6,1.187 L 0,0 Z"
                 inkscape:connector-curvature="0" />
            </g>
            <g
               transform="translate(5.605,17.3218)"
               id="g375">
              <path
                 id="path377"
                 style="fill:#292f33;fill-opacity:1;fill-rule:nonzero;stroke:none"
                 d="m 0,0 c 0,0 5.516,0.358 6.958,-1.509 2.75,-3.563 3.831,-5.01 4.446,-8.349 l 1.785,0.307 C 12.395,-6.634 10.583,-1.447 7.27,0.741 3.958,2.928 1.02,2.428 1.02,2.428 L 0,0 Z"
                 inkscape:connector-curvature="0" />
            </g>
            <g
               transform="translate(17.875,23.3125)"
               id="g379">
              <path
                 id="path381"
                 style="fill:#292f33;fill-opacity:1;fill-rule:nonzero;stroke:none"
                 d="M 0,0 C -0.625,-0.687 2,-3.313 1.125,-5.5 0.25,-7.687 0.75,-10.75 1.25,-12.125 c 0.5,-1.375 1.26,-2.839 1.26,-2.839 l 1.622,1.146 c 0,0 -0.257,1.505 -1.007,3.693 -0.75,2.188 -0.687,2.25 -0.375,4.438 C 3.063,-3.5 0.625,0.687 0,0"
                 inkscape:connector-curvature="0" />
            </g>
            <g
               transform="translate(15.0454,29.1714)"
               id="g383">
              <path
                 id="path385"
                 style="fill:#292f33;fill-opacity:1;fill-rule:nonzero;stroke:none"
                 d="m 0,0 c 0,0 1.142,-2.046 1.08,-3.046 -0.063,-1 -0.063,-2.688 -0.625,-3.063 -0.563,-0.375 -0.813,2 -1.188,3.063 -0.375,1.062 -1.064,2.257 -1.064,2.257 0,0 1.468,1.429 1.797,0.789"
                 inkscape:connector-curvature="0" />
            </g>
            <g
               transform="translate(11.501,27.3809)"
               id="g387">
              <path
                 id="path389"
                 style="fill:#292f33;fill-opacity:1;fill-rule:nonzero;stroke:none"
                 d="m 0,0 c 0,0 1.793,-1.398 1.73,-2.398 -0.062,-1 1.144,-2.608 0.581,-2.983 -0.562,-0.375 -1.937,1.25 -2.312,2.313 -0.375,1.062 -1.257,1.787 -1.257,1.787 0,0 0.929,1.921 1.258,1.281"
                 inkscape:connector-curvature="0" />
            </g>
            <g
               transform="translate(8.9375,24.1875)"
               id="g391">
              <path
                 id="path393"
                 style="fill:#292f33;fill-opacity:1;fill-rule:nonzero;stroke:none"
                 d="m 0,0 c 0,0 1.522,-0.981 1.937,-1.75 0.416,-0.768 2.111,-1.387 1.938,-1.875 -0.173,-0.488 -1.977,0.098 -2.688,0.75 -0.71,0.652 -2.345,0.579 -2.345,0.579 L 0,0 Z"
                 inkscape:connector-curvature="0" />
            </g>
          </g>
        </g>
      </g>
    </g>
    <g
       transform="translate(151.0 85.0) rotate(181 15 15) scale(0.5333333333333333)"
       id="g395">
      <g
         transform="matrix(1.25,0,0,-1.25,0,45)"
         id="g397">
        <g
           id="g399">
          <g
             clip-path="url(#clipPath16)"
             id="g401">
            <g
               transform="translate(35,19)"
               id="g403">
              <path
                 id="path405"
                 style="fill:#ffcc4d;fill-opacity:1;fill-rule:nonzero;stroke:none"
                 d="m 0,0 c 0,-9.389 -7.611,-17 -17,-17 -9.388,0 -17,7.611 -17,17 0,9.388 7.612,17 17,17 C -7.611,17 0,9.388 0,0" />
            </g>
            <g
               transform="translate(15,22.107)"
               id="g407">
              <path
                 id="path409"
                 style="fill:#664500;fill-opacity:1;fill-rule:nonzero;stroke:none"
                 d="M 0,0 C 0,-1.934 -1.119,-3.5 -2.5,-3.5 -3.881,-3.5 -5,-1.934 -5,0 -5,1.933 -3.881,3.5 -2.5,3.5 -1.119,3.5 0,1.933 0,0" />
            </g>
            <g
               transform="translate(31,22.5)"
               id="g411">
              <path
                 id="path413"
                 style="fill:#f5f8fa;fill-opacity:1;fill-rule:nonzero;stroke:none"
                 d="m 0,0 c 0,-3.59 -2.91,-6.5 -6.5,-6.5 -3.59,0 -6.5,2.91 -6.5,6.5 0,3.59 2.91,6.5 6.5,6.5 C -2.91,6.5 0,3.59 0,0" />
            </g>
            <g
               transform="translate(24.5,28)"
               id="g415">
              <path
                 id="path417"
                 style="fill:#67757f;fill-opacity:1;fill-rule:nonzero;stroke:none"
                 d="m 0,0 c -3.032,0 -5.5,-2.467 -5.5,-5.5 0,-3.033 2.468,-5.5 5.5,-5.5 3.032,0 5.5,2.467 5.5,5.5 C 5.5,-2.467 3.032,0 0,0 m 0,-13 c -4.136,0 -7.5,3.364 -7.5,7.5 C -7.5,-1.364 -4.136,2 0,2 4.136,2 7.5,-1.364 7.5,-5.5 7.5,-9.636 4.136,-13 0,-13" />
            </g>
            <g
               transform="translate(15.001,26.6069)"
               id="g419">
              <path
                 id="path421"
                 style="fill:#664500;fill-opacity:1;fill-rule:nonzero;stroke:none"
                 d="m 0,0 c -0.304,0 -0.604,0.138 -0.801,0.4 -0.935,1.247 -1.915,1.916 -2.911,1.987 -1.313,0.089 -2.383,-0.895 -2.582,-1.094 -0.391,-0.391 -1.023,-0.391 -1.414,0 -0.391,0.391 -0.391,1.023 0,1.414 0.431,0.431 2.011,1.828 4.137,1.674 C -1.97,4.268 -0.5,3.332 0.799,1.6 1.13,1.158 1.041,0.531 0.599,0.2 0.419,0.065 0.208,0 0,0" />
            </g>
            <g
               transform="translate(32,1)"
               id="g423">
              <path
                 id="path425"
                 style="fill:#292f33;fill-opacity:1;fill-rule:nonzero;stroke:none"
                 d="m 0,0 c -0.553,0 -1,0.447 -1,1 l 0,20 c 0,0.552 0.447,1 1,1 0.553,0 1,-0.448 1,-1 L 1,1 C 1,0.447 0.553,0 0,0" />
            </g>
            <g
               transform="translate(34,22)"
               id="g427">
              <path
                 id="path429"
                 style="fill:#67757f;fill-opacity:1;fill-rule:nonzero;stroke:none"
                 d="m 0,0 c 0,-1.105 -0.895,-2 -2,-2 -1.105,0 -2,0.895 -2,2 0,1.105 0.895,2 2,2 1.105,0 2,-0.895 2,-2" />
            </g>
            <g
               transform="translate(20.999,9)"
               id="g431">
              <path
                 id="path433"
                 style="fill:#664500;fill-opacity:1;fill-rule:nonzero;stroke:none"
                 d="m 0,0 c -0.15,0 -0.303,0.034 -0.446,0.105 -1.718,0.86 -3.388,0.86 -5.106,0 -0.494,-0.246 -1.095,-0.046 -1.342,0.448 -0.247,0.494 -0.046,1.094 0.448,1.342 2.286,1.142 4.606,1.142 6.894,0 C 0.942,1.647 1.143,1.047 0.896,0.553 0.72,0.202 0.367,0 0,0" />
            </g>
            <g
               transform="translate(27.4907,27.112)"
               id="g435">
              <path
                 id="path437"
                 style="fill:#bdddf4;fill-opacity:1;fill-rule:nonzero;stroke:none"
                 d="m 0,0 c -0.861,0.56 -1.887,0.888 -2.991,0.888 -3.037,0 -5.5,-2.462 -5.5,-5.5 0,-1.104 0.329,-2.129 0.888,-2.991 L 0,0 Z" />
            </g>
            <g
               transform="translate(22.153,17.5316)"
               id="g439">
              <path
                 id="path441"
                 style="fill:#bdddf4;fill-opacity:1;fill-rule:nonzero;stroke:none"
                 d="m 0,0 c 0.713,-0.337 1.506,-0.532 2.347,-0.532 3.038,0 5.5,2.463 5.5,5.5 0,0.841 -0.194,1.635 -0.532,2.347 L 0,0 Z" />
            </g>
          </g>
        </g>
      </g>
    </g>
    <g
       transform="matrix(-0.68936543,-0.12155372,0.12155372,-0.68936543,104.1655,53.670783)"
       id="g443">
      <g
         transform="matrix(1.25,0,0,-1.25,0,47.5)"
         id="g445">
        <g
           id="g447">
          <g
             clip-path="url(#clipPath16)"
             id="g449">
            <g
               transform="translate(3.9995,17.5)"
               id="g451">
              <path
                 id="path453"
                 style="fill:#f4900c;fill-opacity:1;fill-rule:nonzero;stroke:none"
                 d="M 0,0 C 0,9.112 7.387,16.5 16.5,16.5 25.613,16.5 33,9.112 33,0 33,-9.113 25.613,-16.5 16.5,-16.5 7.387,-16.5 0,-9.113 0,0"
                 inkscape:connector-curvature="0" />
            </g>
            <g
               transform="translate(12.4136,29.4146)"
               id="g455">
              <path
                 id="path457"
                 style="fill:#662113;fill-opacity:1;fill-rule:nonzero;stroke:none"
                 d="m 0,0 c -0.267,0.267 -0.797,0.197 -1.355,-0.12 -3.3,2.732 -8.653,3.652 -8.895,3.692 -0.546,0.09 -1.059,-0.277 -1.15,-0.821 -0.091,-0.544 0.276,-1.06 0.821,-1.151 0.053,-0.01 4.933,-0.854 7.821,-3.16 -0.275,-0.525 -0.324,-1.015 -0.07,-1.268 0.39,-0.391 1.34,-0.074 2.121,0.707 C 0.074,-1.34 0.391,-0.39 0,0"
                 inkscape:connector-curvature="0" />
            </g>
            <g
               transform="translate(22,36.0005)"
               id="g459">
              <path
                 id="path461"
                 style="fill:#5c913b;fill-opacity:1;fill-rule:nonzero;stroke:none"
                 d="M 0,0 C 0,0 -3.106,-4.318 -7.021,-5.273 -10,-6 -13.959,-6.07 -14.354,-5.151 c -0.394,0.919 1.572,3.937 4.969,5.393 C -5.988,1.698 0,0 0,0"
                 inkscape:connector-curvature="0" />
            </g>
          </g>
        </g>
      </g>
    </g>
    <g
       transform="matrix(-0.13708907,0.54983424,-0.54983424,-0.13708907,143.76926,88.581962)"
       id="g463">
      <g
         transform="matrix(1.25,0,0,-1.25,0,47.5)"
         id="g465">
        <g
           id="g467">
          <g
             clip-path="url(#clipPath16)"
             id="g469">
            <g
               transform="translate(37,12)"
               id="g471">
              <path
                 id="path473"
                 style="fill:#c1694f;fill-opacity:1;fill-rule:nonzero;stroke:none"
                 d="m 0,0 c 0,-4 -8.059,-11 -18,-11 -9.941,0 -18,7 -18,11 0,19 17,25 18,25 1,0 18,-6 18,-25"
                 inkscape:connector-curvature="0" />
            </g>
            <g
               transform="translate(4.0015,7.6152)"
               id="g475">
              <path
                 id="path477"
                 style="fill:#a95233;fill-opacity:1;fill-rule:nonzero;stroke:none"
                 d="m 0,0 c -0.05,0 -0.1,0.004 -0.15,0.012 -0.546,0.082 -0.922,0.591 -0.84,1.136 0.134,0.895 3.43,21.969 15.535,28.128 0.493,0.252 1.094,0.054 1.345,-0.438 0.25,-0.492 0.054,-1.094 -0.438,-1.344 C 4.266,21.802 1.019,1.06 0.987,0.852 0.913,0.355 0.486,0 0,0"
                 inkscape:connector-curvature="0" />
            </g>
            <g
               transform="translate(33.999,7.6152)"
               id="g479">
              <path
                 id="path481"
                 style="fill:#a95233;fill-opacity:1;fill-rule:nonzero;stroke:none"
                 d="m 0,0 c -0.486,0 -0.913,0.355 -0.988,0.852 -0.032,0.208 -3.278,20.95 -14.465,26.642 -0.492,0.25 -0.688,0.852 -0.437,1.344 0.25,0.492 0.854,0.69 1.344,0.438 C -2.439,23.117 0.855,2.043 0.99,1.148 1.072,0.603 0.696,0.094 0.149,0.012 0.1,0.004 0.049,0 0,0"
                 inkscape:connector-curvature="0" />
            </g>
            <g
               transform="translate(13.001,4)"
               id="g483">
              <path
                 id="path485"
                 style="fill:#a95233;fill-opacity:1;fill-rule:nonzero;stroke:none"
                 d="M 0,0 C -0.018,0 -0.036,0 -0.054,0.001 -0.605,0.03 -1.029,0.502 -1,1.053 -0.946,2.052 0.356,25.597 5.176,32.569 5.491,33.023 6.114,33.136 6.567,32.823 7.022,32.508 7.136,31.886 6.821,31.431 2.322,24.923 1.01,1.186 0.998,0.947 0.969,0.413 0.528,0 0,0"
                 inkscape:connector-curvature="0" />
            </g>
            <g
               transform="translate(24.999,4)"
               id="g487">
              <path
                 id="path489"
                 style="fill:#a95233;fill-opacity:1;fill-rule:nonzero;stroke:none"
                 d="m 0,0 c -0.527,0 -0.969,0.413 -0.998,0.947 -0.013,0.239 -1.324,23.976 -5.824,30.484 -0.314,0.455 -0.2,1.077 0.254,1.392 0.456,0.314 1.079,0.2 1.391,-0.254 C -0.357,25.597 0.946,2.052 1,1.053 1.029,0.502 0.605,0.031 0.054,0.001 0.036,0 0.018,0 0,0"
                 inkscape:connector-curvature="0" />
            </g>
            <g
               transform="translate(37,12)"
               id="g491">
              <path
                 id="path493"
                 style="fill:#662113;fill-opacity:1;fill-rule:nonzero;stroke:none"
                 d="m 0,0 c 0,-4 -8.059,-11 -18,-11 -9.941,0 -18,7 -18,11 3,-4 10,-7 18,-7 8,0 15,3 18,7"
                 inkscape:connector-curvature="0" />
            </g>
          </g>
        </g>
      </g>
    </g>
    <g
       transform="matrix(0.1199739,0.51966403,-0.51966403,0.1199739,167.39057,60.609426)"
       id="g495">
      <g
         transform="matrix(1.25,0,0,-1.25,0,45)"
         id="g497">
        <g
           id="g499">
          <g
             clip-path="url(#clipPath16)"
             id="g501">
            <g
               transform="translate(28.6885,15.6875)"
               id="g503">
              <path
                 id="path505"
                 style="fill:#6d6e71;fill-opacity:1;fill-rule:nonzero;stroke:none"
                 d="m 0,0 c 0,-5.904 -4.784,-10.688 -10.689,-10.688 -5.902,0 -10.688,4.784 -10.688,10.688 0,5.903 4.786,10.689 10.688,10.689 C -4.784,10.689 0,5.903 0,0"
                 inkscape:connector-curvature="0" />
            </g>
            <g
               transform="translate(26,2.5)"
               id="g507">
              <path
                 id="path509"
                 style="fill:#662113;fill-opacity:1;fill-rule:nonzero;stroke:none"
                 d="m 0,0 -16,0 c -1.665,0 -2.479,1.339 -2.763,2.31 l -2.664,0.055 c -0.153,0.003 -0.297,0.077 -0.389,0.2 -0.092,0.123 -0.123,0.282 -0.083,0.43 l 0.594,2.216 -2.446,0.651 c -0.152,0.041 -0.276,0.151 -0.335,0.296 -0.06,0.146 -0.046,0.311 0.035,0.446 l 1.198,1.993 -2.155,1.192 c -0.139,0.077 -0.234,0.216 -0.254,0.374 -0.02,0.157 0.036,0.316 0.151,0.426 l 1.729,1.647 -1.729,1.646 c -0.115,0.11 -0.171,0.267 -0.151,0.426 0.02,0.158 0.115,0.297 0.254,0.374 l 2.156,1.194 -1.2,1.994 c -0.08,0.134 -0.094,0.299 -0.034,0.445 0.059,0.146 0.183,0.255 0.335,0.296 l 2.446,0.65 -0.594,2.218 c -0.04,0.148 -0.009,0.307 0.083,0.43 0.092,0.123 0.236,0.196 0.39,0.199 l 2.574,0.054 0.058,2.302 c 0.004,0.149 0.074,0.289 0.192,0.381 0.118,0.092 0.271,0.127 0.416,0.094 l 2.521,-0.56 0.718,2.234 c 0.044,0.138 0.147,0.251 0.282,0.308 0.135,0.056 0.287,0.051 0.417,-0.014 l 2.284,-1.138 1.341,2.009 c 0.08,0.119 0.208,0.199 0.35,0.218 0.144,0.018 0.286,-0.025 0.394,-0.119 L -8,26.242 l 1.88,1.635 c 0.109,0.095 0.251,0.137 0.394,0.119 0.143,-0.019 0.27,-0.099 0.35,-0.219 l 1.34,-2.008 2.286,1.138 c 0.13,0.066 0.283,0.07 0.417,0.014 0.135,-0.057 0.237,-0.17 0.282,-0.308 l 0.716,-2.234 2.522,0.56 c 0.146,0.033 0.297,-0.002 0.416,-0.094 0.118,-0.092 0.188,-0.232 0.192,-0.381 L 2.853,22.162 5.427,22.108 C 5.58,22.105 5.724,22.031 5.815,21.909 5.908,21.786 5.939,21.627 5.898,21.479 L 5.304,19.261 7.753,18.611 C 7.905,18.57 8.029,18.461 8.089,18.315 8.148,18.169 8.135,18.004 8.054,17.87 L 6.853,15.876 9.008,14.682 C 9.148,14.605 9.241,14.466 9.262,14.308 9.282,14.149 9.226,13.991 9.11,13.882 L 7.381,12.236 9.11,10.589 C 9.226,10.479 9.282,10.32 9.262,10.163 9.241,10.005 9.148,9.866 9.008,9.789 L 6.854,8.597 8.054,6.604 C 8.135,6.469 8.148,6.304 8.089,6.158 8.029,6.013 7.905,5.903 7.754,5.862 L 5.304,5.211 5.898,2.995 C 5.939,2.847 5.908,2.689 5.816,2.565 5.724,2.442 5.58,2.368 5.427,2.365 L 2.764,2.31 C 2.48,1.339 1.665,0 0,0"
                 inkscape:connector-curvature="0" />
            </g>
            <g
               transform="translate(16.188,7.1758)"
               id="g511">
              <path
                 id="path513"
                 style="fill:#8a4b38;fill-opacity:1;fill-rule:nonzero;stroke:none"
                 d="m 0,0 c -0.022,0 -0.044,0.001 -0.066,0.004 -0.142,0.019 -0.27,0.099 -0.35,0.219 l -1.058,1.585 -1.804,-0.9 C -3.41,0.844 -3.561,0.838 -3.696,0.895 -3.83,0.951 -3.933,1.064 -3.978,1.203 L -4.542,2.96 -6.532,2.518 C -6.68,2.486 -6.831,2.521 -6.948,2.612 -7.066,2.704 -7.136,2.844 -7.14,2.993 L -7.185,4.797 -9.214,4.84 c -0.154,0.003 -0.297,0.077 -0.39,0.2 -0.092,0.122 -0.123,0.281 -0.083,0.43 l 0.465,1.732 -1.922,0.512 c -0.152,0.041 -0.276,0.15 -0.335,0.296 -0.059,0.145 -0.046,0.31 0.035,0.445 l 0.937,1.557 -1.689,0.934 c -0.139,0.077 -0.234,0.216 -0.254,0.373 -0.02,0.158 0.035,0.316 0.151,0.426 l 1.352,1.289 -1.352,1.287 c -0.115,0.11 -0.171,0.268 -0.151,0.426 0.02,0.158 0.115,0.296 0.254,0.374 l 1.689,0.935 -0.937,1.557 c -0.081,0.135 -0.094,0.3 -0.035,0.446 0.059,0.146 0.183,0.255 0.335,0.296 l 1.922,0.51 -0.465,1.735 c -0.04,0.148 -0.009,0.306 0.083,0.429 0.093,0.123 0.236,0.197 0.39,0.2 l 2.029,0.042 0.045,1.805 c 0.004,0.149 0.074,0.289 0.192,0.381 0.117,0.092 0.27,0.127 0.416,0.094 l 1.99,-0.442 0.564,1.756 c 0.045,0.139 0.148,0.252 0.282,0.308 0.136,0.056 0.287,0.052 0.418,-0.013 l 1.804,-0.9 1.058,1.584 c 0.08,0.119 0.208,0.199 0.35,0.218 0.144,0.021 0.286,-0.024 0.394,-0.119 l 1.484,-1.291 1.484,1.291 c 0.11,0.096 0.253,0.138 0.395,0.119 0.142,-0.019 0.269,-0.099 0.349,-0.218 l 1.057,-1.584 1.807,0.9 c 0.13,0.065 0.283,0.069 0.417,0.013 0.135,-0.057 0.237,-0.169 0.282,-0.308 l 0.562,-1.756 1.992,0.442 c 0.145,0.033 0.299,-0.002 0.416,-0.094 0.118,-0.092 0.188,-0.232 0.192,-0.382 l 0.045,-1.804 2.028,-0.042 c 0.154,-0.003 0.297,-0.077 0.389,-0.2 0.093,-0.123 0.123,-0.281 0.083,-0.43 l -0.465,-1.734 1.924,-0.51 c 0.152,-0.041 0.276,-0.15 0.336,-0.296 0.059,-0.146 0.046,-0.311 -0.035,-0.446 l -0.939,-1.558 1.689,-0.934 c 0.14,-0.078 0.233,-0.216 0.254,-0.374 0.02,-0.158 -0.036,-0.316 -0.152,-0.426 l -1.352,-1.287 1.352,-1.289 c 0.116,-0.11 0.172,-0.267 0.152,-0.426 -0.021,-0.157 -0.116,-0.296 -0.254,-0.373 L 14.132,10.012 15.07,8.455 C 15.151,8.32 15.164,8.155 15.105,8.01 15.045,7.864 14.921,7.755 14.77,7.714 L 12.845,7.202 13.31,5.47 C 13.35,5.321 13.32,5.163 13.228,5.04 13.135,4.917 12.992,4.843 12.838,4.84 L 10.81,4.797 10.765,2.993 C 10.761,2.844 10.691,2.704 10.573,2.612 10.456,2.521 10.302,2.486 10.157,2.518 L 8.165,2.96 7.603,1.203 C 7.558,1.064 7.456,0.951 7.321,0.895 7.187,0.837 7.037,0.842 6.904,0.908 L 5.098,1.808 4.04,0.223 C 3.96,0.103 3.833,0.023 3.691,0.004 3.549,-0.014 3.405,0.028 3.296,0.123 L 1.812,1.417 0.329,0.123 C 0.237,0.043 0.12,0 0,0"
                 inkscape:connector-curvature="0" />
            </g>
            <g
               transform="translate(13.5,8.9484)"
               id="g515">
              <path
                 id="path517"
                 style="fill:#8a4b38;fill-opacity:1;fill-rule:nonzero;stroke:none"
                 d="m 0,0 9,0 c 3.521,0 6.5,-2.575 6.5,-4.5 0,-1.65 -1.35,-2 -3,-2 l -16,0 c -1.65,0 -3,0.35 -3,2 0,1.925 2.99,4.5 6.5,4.5"
                 inkscape:connector-curvature="0" />
            </g>
            <g
               transform="translate(26.2217,13.2207)"
               id="g519">
              <path
                 id="path521"
                 style="fill:#d99e82;fill-opacity:1;fill-rule:nonzero;stroke:none"
                 d="m 0,0 c 0,-4.088 -3.68,-7.398 -8.222,-7.398 -4.541,0 -8.221,3.31 -8.221,7.398 0,4.087 3.68,7.4 8.221,7.4 C -3.68,7.4 0,4.087 0,0"
                 inkscape:connector-curvature="0" />
            </g>
            <g
               transform="translate(21.2891,9.5215)"
               id="g523">
              <path
                 id="path525"
                 style="fill:#e6e7e8;fill-opacity:1;fill-rule:nonzero;stroke:none"
                 d="m 0,0 c 0,-2.043 -1.473,-3.699 -3.289,-3.699 -1.817,0 -3.289,1.656 -3.289,3.699 0,2.043 1.472,3.699 3.289,3.699 C -1.473,3.699 0,2.043 0,0"
                 inkscape:connector-curvature="0" />
            </g>
            <g
               transform="translate(19.6445,8.2891)"
               id="g527">
              <path
                 id="path529"
                 style="fill:#231f20;fill-opacity:1;fill-rule:nonzero;stroke:none"
                 d="m 0,0 c 0,-0.908 -0.736,-1.645 -1.645,-1.645 -0.908,0 -1.644,0.737 -1.644,1.645 0,0.908 0.736,1.643 1.644,1.643 C -0.736,1.643 0,0.908 0,0"
                 inkscape:connector-curvature="0" />
            </g>
            <g
               transform="translate(14.7114,14.4551)"
               id="g531">
              <path
                 id="path533"
                 style="fill:#231f20;fill-opacity:1;fill-rule:nonzero;stroke:none"
                 d="m 0,0 c 0,-0.682 -0.552,-1.234 -1.233,-1.234 -0.681,0 -1.234,0.552 -1.234,1.234 0,0.68 0.553,1.232 1.234,1.232 C -0.552,1.232 0,0.68 0,0"
                 inkscape:connector-curvature="0" />
            </g>
            <g
               transform="translate(23.7549,14.4551)"
               id="g535">
              <path
                 id="path537"
                 style="fill:#231f20;fill-opacity:1;fill-rule:nonzero;stroke:none"
                 d="m 0,0 c 0,-0.682 -0.552,-1.234 -1.232,-1.234 -0.682,0 -1.234,0.552 -1.234,1.234 0,0.68 0.552,1.232 1.234,1.232 C -0.552,1.232 0,0.68 0,0"
                 inkscape:connector-curvature="0" />
            </g>
            <g
               transform="translate(11.4224,18.1543)"
               id="g539">
              <path
                 id="path541"
                 style="fill:#c1694f;fill-opacity:1;fill-rule:nonzero;stroke:none"
                 d="m 0,0 c 0,0 4.111,1.645 4.933,0 0.822,-1.645 1.645,-1.645 1.645,-1.645 l 0,4.934 C 6.578,3.289 0,3.289 0,0"
                 inkscape:connector-curvature="0" />
            </g>
            <g
               transform="translate(24.5771,18.1543)"
               id="g543">
              <path
                 id="path545"
                 style="fill:#c1694f;fill-opacity:1;fill-rule:nonzero;stroke:none"
                 d="m 0,0 c 0,0 -4.11,1.645 -4.933,0 -0.822,-1.645 -1.644,-1.645 -1.644,-1.645 l 0,4.934 c 0,0 6.577,0 6.577,-3.289"
                 inkscape:connector-curvature="0" />
            </g>
            <g
               transform="translate(12.2446,17.7437)"
               id="g547">
              <path
                 id="path549"
                 style="fill:#d99e82;fill-opacity:1;fill-rule:nonzero;stroke:none"
                 d="m 0,0 c 0,-1.136 -0.92,-2.056 -2.055,-2.056 -1.136,0 -2.056,0.92 -2.056,2.056 0,1.135 0.92,2.055 2.056,2.055 C -0.92,2.055 0,1.135 0,0"
                 inkscape:connector-curvature="0" />
            </g>
            <g
               transform="translate(27.8662,17.7437)"
               id="g551">
              <path
                 id="path553"
                 style="fill:#d99e82;fill-opacity:1;fill-rule:nonzero;stroke:none"
                 d="m 0,0 c 0,-1.136 -0.92,-2.056 -2.056,-2.056 -1.134,0 -2.055,0.92 -2.055,2.056 0,1.135 0.921,2.055 2.055,2.055 C -0.92,2.055 0,1.135 0,0"
                 inkscape:connector-curvature="0" />
            </g>
            <g
               transform="translate(11,1)"
               id="g555">
              <path
                 id="path557"
                 style="fill:#d99e82;fill-opacity:1;fill-rule:nonzero;stroke:none"
                 d="M 0,0 C -2,0 -2,4 2,4 6,4 6.062,0 4,0 L 0,0 Z"
                 inkscape:connector-curvature="0" />
            </g>
            <g
               transform="translate(21,1)"
               id="g559">
              <path
                 id="path561"
                 style="fill:#d99e82;fill-opacity:1;fill-rule:nonzero;stroke:none"
                 d="M 0,0 C -2,0 -2,4 2,4 6,4 6.062,0 4,0 L 0,0 Z"
                 inkscape:connector-curvature="0" />
            </g>
          </g>
        </g>
      </g>
    </g>
    <g
       transform="matrix(-0.55230291,0.23443868,-0.23443868,-0.55230291,116.99466,138.89089)"
       id="g563">
      <g
         transform="matrix(1.25,0,0,-1.25,0,45)"
         id="g565">
        <g
           id="g567">
          <g
             clip-path="url(#clipPath16)"
             id="g569">
            <g
               transform="translate(33.2031,22.6992)"
               id="g571">
              <path
                 id="path573"
                 style="fill:#e1e8ed;fill-opacity:1;fill-rule:nonzero;stroke:none"
                 d="m 0,0 -21.213,-21.214 -10.607,10.607 21.214,21.213 c 1.952,1.953 5.91,1.161 8.838,-1.768 C 1.161,5.909 1.952,1.952 0,0"
                 inkscape:connector-curvature="0" />
            </g>
          </g>
        </g>
        <g
           id="g575">
          <g
             clip-path="url(#clipPath28)"
             id="g26">
            <g
               transform="translate(1.3828,12.0918)"
               id="g578">
              <path
                 id="path580"
                 style="fill:#99aab5;fill-opacity:1;fill-rule:nonzero;stroke:none"
                 d="M 0,0 24.749,24.749 30.305,19.193 5.556,-5.556 0,0 Z"
                 inkscape:connector-curvature="0" />
            </g>
          </g>
        </g>
        <g
           id="g582">
          <g
             clip-path="url(#clipPath40)"
             id="g38">
            <g
               transform="translate(10.2217,10.3242)"
               id="g585">
              <path
                 id="path587"
                 style="fill:#66757f;fill-opacity:1;fill-rule:nonzero;stroke:none"
                 d="M 0,0 C -2.928,2.929 -6.886,3.721 -8.839,1.768 -10.792,-0.186 -10,-4.143 -7.071,-7.07 -4.142,-10 -0.185,-10.791 1.768,-8.839 3.721,-6.886 2.929,-2.93 0,0"
                 inkscape:connector-curvature="0" />
            </g>
            <g
               transform="translate(31.6797,31.2764)"
               id="g589">
              <path
                 id="path591"
                 style="fill:#ccd6dd;fill-opacity:1;fill-rule:nonzero;stroke:none"
                 d="M 0,0 C 2.722,-2.898 3.419,-6.682 1.523,-8.577 L -19.69,-29.791 c 1.953,1.953 1.161,5.909 -1.768,8.839 l -3.889,3.889 L -4.134,4.15 0.008,0.009 0,0 Z"
                 inkscape:connector-curvature="0" />
            </g>
            <g
               transform="translate(33.0938,32.6904)"
               id="g593">
              <path
                 id="path595"
                 style="fill:#e1e8ed;fill-opacity:1;fill-rule:nonzero;stroke:none"
                 d="M 0,0 C 2.722,-2.898 3.42,-6.682 1.523,-8.577 L -19.69,-29.79 c 1.953,1.952 1.162,5.909 -1.768,8.838 l -2.475,2.475 L -2.72,2.736 0.008,0.009 0,0 Z"
                 inkscape:connector-curvature="0" />
            </g>
            <g
               transform="translate(2.2104,10.9971)"
               id="g597">
              <path
                 id="path599"
                 style="fill:#99aab5;fill-opacity:1;fill-rule:nonzero;stroke:none"
                 d="m 0,0 c -1.402,-1.401 -0.838,-4.371 1.281,-6.759 1.916,-2.158 4.948,-4.008 7.187,-2.123 0.761,0.633 1.163,1.608 1.146,2.735 -0.028,1.974 -1.298,4.193 -3.313,5.79 -0.324,0.258 -0.788,0.2 -1.054,-0.121 C 4.99,-0.803 5.044,-1.274 5.369,-1.531 7.015,-2.836 8.093,-4.657 8.114,-6.169 8.121,-6.643 8.02,-7.299 7.502,-7.735 c -1.513,-1.274 -3.917,0.64 -5.099,1.97 -1.675,1.888 -2.052,3.994 -1.342,4.704 0.183,0.184 0.411,0.232 0.695,0.148 0.877,-0.262 2,-1.662 2.534,-4.205 0.085,-0.406 0.483,-0.666 0.888,-0.581 0.405,0.086 0.665,0.483 0.579,0.888 C 5.168,-2.001 3.799,0.042 2.185,0.524 1.371,0.767 0.576,0.575 0,0"
                 inkscape:connector-curvature="0" />
            </g>
            <g
               transform="translate(28.4316,31.7139)"
               id="g601">
              <path
                 id="path603"
                 style="fill:#99aab5;fill-opacity:1;fill-rule:nonzero;stroke:none"
                 d="M 0,0 C -0.02,-0.019 -0.038,-0.038 -0.055,-0.06 -0.315,-0.382 -0.264,-0.854 0.058,-1.114 0.089,-1.139 3.157,-3.653 3.314,-6.931 3.335,-7.344 3.688,-7.663 4.1,-7.643 4.515,-7.622 4.833,-7.27 4.814,-6.857 4.623,-2.897 1.146,-0.063 0.997,0.055 0.696,0.297 0.267,0.268 0,0"
                 inkscape:connector-curvature="0" />
            </g>
            <g
               transform="translate(26.3096,29.5928)"
               id="g605">
              <path
                 id="path607"
                 style="fill:#99aab5;fill-opacity:1;fill-rule:nonzero;stroke:none"
                 d="M 0,0 C -0.019,-0.019 -0.037,-0.038 -0.055,-0.06 -0.314,-0.382 -0.263,-0.854 0.059,-1.114 0.09,-1.139 3.158,-3.653 3.315,-6.931 3.336,-7.345 3.688,-7.663 4.101,-7.643 4.515,-7.622 4.833,-7.271 4.814,-6.857 4.623,-2.898 1.146,-0.064 0.998,0.055 0.697,0.297 0.268,0.268 0,0"
                 inkscape:connector-curvature="0" />
            </g>
            <g
               transform="translate(17.8242,21.1074)"
               id="g609">
              <path
                 id="path611"
                 style="fill:#99aab5;fill-opacity:1;fill-rule:nonzero;stroke:none"
                 d="m 0,0 c -0.019,-0.019 -0.037,-0.038 -0.054,-0.06 -0.26,-0.322 -0.209,-0.794 0.113,-1.054 0.031,-0.025 3.099,-2.539 3.256,-5.817 0.021,-0.413 0.373,-0.732 0.786,-0.712 0.414,0.022 0.732,0.372 0.713,0.786 C 4.623,-2.898 1.146,-0.064 0.998,0.055 0.697,0.297 0.268,0.268 0,0"
                 inkscape:connector-curvature="0" />
            </g>
            <g
               transform="translate(12.875,16.1582)"
               id="g613">
              <path
                 id="path615"
                 style="fill:#99aab5;fill-opacity:1;fill-rule:nonzero;stroke:none"
                 d="m 0,0 c -0.019,-0.02 -0.038,-0.039 -0.055,-0.061 -0.26,-0.322 -0.208,-0.794 0.113,-1.054 0.032,-0.025 3.1,-2.539 3.257,-5.817 0.02,-0.413 0.373,-0.732 0.786,-0.711 0.414,0.02 0.732,0.372 0.713,0.786 C 4.623,-2.898 1.146,-0.064 0.998,0.055 0.697,0.296 0.267,0.268 0,0"
                 inkscape:connector-curvature="0" />
            </g>
            <g
               transform="translate(24.7754,16.4609)"
               id="g617">
              <path
                 id="path619"
                 style="fill:#5dadec;fill-opacity:1;fill-rule:nonzero;stroke:none"
                 d="M 0,0 C 1.296,1.348 3.49,3.383 3.756,3.661 4.369,4.303 2.215,9.133 0.454,10.515 0.068,10.817 -0.405,10.572 -0.608,10.364 -2.104,8.833 -3.291,7.645 -4.285,6.656 -4.517,6.426 -4.65,6.005 -4.324,5.704 -3.257,4.72 -1.338,2.28 -0.796,0.041 -0.732,-0.219 -0.269,-0.281 0,0"
                 inkscape:connector-curvature="0" />
            </g>
          </g>
        </g>
      </g>
    </g>
  </g>
</svg>
