<?xml version="1.0" encoding="UTF-8" standalone="no"?>
<svg
   xmlns:dc="http://purl.org/dc/elements/1.1/"
   xmlns:cc="http://creativecommons.org/ns#"
   xmlns:rdf="http://www.w3.org/1999/02/22-rdf-syntax-ns#"
   xmlns:svg="http://www.w3.org/2000/svg"
   xmlns="http://www.w3.org/2000/svg"
   xmlns:sodipodi="http://sodipodi.sourceforge.net/DTD/sodipodi-0.dtd"
   xmlns:inkscape="http://www.inkscape.org/namespaces/inkscape"
   version="1.1"
   id="svg2"
   viewBox="0 0 200 200"
   height="200px"
   width="200px"
   inkscape:version="0.91 r13725"
   sodipodi:docname="52.svg">
  <metadata
     id="metadata522">
    <rdf:RDF>
      <cc:Work
         rdf:about="">
        <dc:format>image/svg+xml</dc:format>
        <dc:type
           rdf:resource="http://purl.org/dc/dcmitype/StillImage" />
      </cc:Work>
    </rdf:RDF>
  </metadata>
  <sodipodi:namedview
     pagecolor="#ffffff"
     bordercolor="#666666"
     borderopacity="1"
     objecttolerance="10"
     gridtolerance="10"
     guidetolerance="10"
     inkscape:pageopacity="0"
     inkscape:pageshadow="2"
     inkscape:window-width="1920"
     inkscape:window-height="1060"
     id="namedview520"
     showgrid="false"
     inkscape:zoom="4.32"
     inkscape:cx="100"
     inkscape:cy="100"
     inkscape:window-x="0"
     inkscape:window-y="0"
     inkscape:window-maximized="1"
     inkscape:current-layer="layer1" />
  
    
    
    <defs id="defs6">

        <clipPath
           id="clipPath28"
           clipPathUnits="userSpaceOnUse">
          <path
             id="path30"
             d="M 4,36 C 0,36 0,32 0,32 L 0,32 0,4 C 0,0 4,0 4,0 l 0,0 28,0 c 4,0 4,4 4,4 l 0,0 0,28 c 0,4 -4,4 -4,4 l 0,0 -28,0 z" />
        </clipPath>


        <clipPath clipPathUnits="userSpaceOnUse" id="clipPath16-rugby">
            <path d="M 0,38 38,38 38,0 0,0 0,38 Z" id="path18"/>
        </clipPath>
        <clipPath clipPathUnits="userSpaceOnUse" id="clipPath28-rugby">
            <path d="M 9.254,28.746 C 2.09,21.582 -0.927,9.561 3.929,3.929 l 0,0 C 9.561,-0.927 21.582,2.09 28.746,9.254 l 0,0 c 7.164,7.164 11.229,17.088 5.324,24.816 l 0,0 c -1.886,1.627 -4.489,2.371 -7.387,2.37 l 0,0 c -5.752,0 -12.665,-2.93 -17.429,-7.694" id="path30"/>
        </clipPath>

        <clipPath clipPathUnits="userSpaceOnUse" id="clipPath16-carrot">
            <path d="M 0,36 36,36 36,0 0,0 0,36 Z" id="path18"/>
        </clipPath>
        <clipPath clipPathUnits="userSpaceOnUse" id="clipPath32-carrot">
            <path d="M 11.815,23.013 C 4.2,15.397 -1.265,2.86 0.502,1.093 l 0,0 c 1.768,-1.768 14.305,3.698 21.92,11.313 l 0,0 c 7.616,7.615 7.562,11.53 4.243,14.85 l 0,0 c -1.328,1.328 -2.752,2.133 -4.47,2.133 l 0,0 c -2.575,0 -5.812,-1.809 -10.38,-6.376" id="path34"/>
        </clipPath>

        <clipPath clipPathUnits="userSpaceOnUse" id="clipPath32-hat">
            <path d="m 5,33.666 c 0,-0.034 0.018,-0.067 0.022,-0.101 l 0,0 C 5.008,33.455 5,33.335 5,33.2 l 0,0 L 6.802,9.616 C 3.299,8.705 1,7.424 1,6 L 1,6 C 1,3.238 9.611,1 19,1 l 0,0 c 9.389,0 18,2.238 18,5 l 0,0 c 0,1.424 -2.298,2.705 -5.801,3.616 l 0,0 L 33,33.184 c 0,0.135 -0.008,0.263 -0.021,0.373 l 0,0 C 32.982,33.591 33,33.632 33,33.666 l 0,0 c 0,1.805 -6.268,3.267 -14,3.267 l 0,0 c -7.732,0 -14,-1.462 -14,-3.267" id="path34"/>
        </clipPath>


        <clipPath clipPathUnits="userSpaceOnUse" id="clipPath48-soccer">
            <path d="M 1,19 C 1,9.059 9.059,1 19,1 l 0,0 c 9.941,0 18,8.059 18,18 l 0,0 c 0,9.941 -8.059,18 -18,18 l 0,0 C 9.059,37 1,28.941 1,19" id="path50"/>
        </clipPath>

        <clipPath clipPathUnits="userSpaceOnUse" id="clipPath28-baguette">
            <path d="M 24.052,31.33 5.126,12.406 C 1.342,8.62 1.288,4.133 2.856,2.564 l 0,0 C 4.424,0.997 8.912,1.049 12.697,4.835 l 0,0 18.925,18.924 c 3.784,3.785 3.837,8.273 2.269,9.841 l 0,0 c -0.605,0.606 -1.647,0.969 -2.915,0.969 l 0,0 c -2.014,0 -4.602,-0.917 -6.924,-3.239" id="path30"/>
        </clipPath>
    </defs>



  <g
     id="layer1">
    <circle
       style="opacity:1;fill:white;stroke:black;stroke-width:1;stroke-miterlimit:4;stroke-dasharray:none;stroke-opacity:0.1"
       id="path4039-0-9"
       cx="100px"
       cy="100px"
       r="90px" />
    <g
       transform="matrix(-0.0975599,-0.92822044,0.92822044,-0.0975599,61.798247,115.2265)"
       id="g8">
      <g
         transform="matrix(1.25,0,0,-1.25,0,47.5)"
         id="g10">
        <g
           id="g12">
          <g
             clip-path="url(#clipPath16)"
             id="g14">
            <g
               transform="translate(35.5391,3.5117)"
               id="g20">
              <path
                 id="path22"
                 style="fill:#662113;fill-opacity:1;fill-rule:nonzero;stroke:none"
                 d="m 0,0 c 0,0 1.18,-0.215 1.18,-1.256 0,-1.043 -1.042,-1.256 -2.084,-1.256 l -17.72,0 c -2.084,0 -5.915,4 -7.915,4 l -0.592,-4 -6.408,0 0,2.936 c 0,2.084 -0.881,2.285 -0.881,3.211 0,2.084 0.672,4.394 0.672,4.394 l 6.746,-0.31 9.463,-7.231 L 0,0 Z"
                 inkscape:connector-curvature="0" />
            </g>
            <g
               transform="translate(2.668,9.7187)"
               id="g24">
              <path
                 id="path26"
                 style="fill:#c1694f;fill-opacity:1;fill-rule:nonzero;stroke:none"
                 d="m 0,0 c 3.036,-0.731 6.332,-1.719 13.969,-5.379 0,0 2,-1.34 4.363,-1.34 l 14.539,0 c 0,0 1.18,0.257 1.18,2.424 0,1.084 -7.907,3.381 -10.27,4.465 -2.361,1.084 -6.445,6.316 -6.445,6.316 0,0 -0.17,-13.634 -7.258,-6.049 C 2.99,8.025 5.7,6.877 3.337,6.877 2.852,6.877 -0.401,5.57 -1.207,1.838 -1.322,1.305 -0.864,0.209 0,0"
                 inkscape:connector-curvature="0" />
            </g>
            <g
               transform="translate(3,15)"
               id="g28">
              <path
                 id="path18"
                 style="fill:#c1694f;fill-opacity:1;fill-rule:nonzero;stroke:none"
                 d="m 0,0 c 0,0 1,2 1,4 0,2 -1,17 -1,17 0,0 4.917,1 10,1 5.084,0 7,-1 7,-1 0,0 -6,-15 2,-23 2.55,-2.55 -2,-7 -2,-7 0,0 -1,-2 -4,0 C 10,-7 0,0 0,0"
                 inkscape:connector-curvature="0" />
            </g>
            <path
               id="path32"
               style="fill:#d99e82;fill-opacity:1;fill-rule:nonzero;stroke:none"
               d="m 11,17 -2,0 0,20 2,0 0,-20 z"
               inkscape:connector-curvature="0" />
          </g>
        </g>
      </g>
    </g>
    <g
       transform="matrix(-0.68944,-0.57850885,0.57850885,-0.68944,148.97848,149.151)"
       id="g21">
      <g
         transform="matrix(1.25,0,0,-1.25,0,45)"
         id="g23">
        <g
           id="g25">
          <g
             clip-path="url(#clipPath16)"
             id="g27">
            <g
               transform="translate(31,25)"
               id="g29">
              <path
                 id="path31"
                 style="fill:#ea596e;fill-opacity:1;fill-rule:nonzero;stroke:none"
                 d="m 0,0 c 0,6 -13,11 -13,11 l 0,-25 c 0,0 13,8 13,14"
                 inkscape:connector-curvature="0" />
            </g>
            <g
               transform="translate(5.0024,25)"
               id="g33">
              <path
                 id="path35"
                 style="fill:#ea596e;fill-opacity:1;fill-rule:nonzero;stroke:none"
                 d="m 0,0 c 0,6 13,11 13,11 l 0,-25 C 13,-14 0,-6 0,0"
                 inkscape:connector-curvature="0" />
            </g>
            <g
               transform="translate(27,25)"
               id="g37">
              <path
                 id="path39"
                 style="fill:#f4abba;fill-opacity:1;fill-rule:nonzero;stroke:none"
                 d="m 0,0 c 0,-3.833 -9,-12 -9,-12 0,0 -9,8.167 -9,12 0,5 9,11 9,11 0,0 9,-6 9,-11"
                 inkscape:connector-curvature="0" />
            </g>
            <g
               transform="translate(13,20.1328)"
               id="g32">
              <path
                 id="path34"
                 style="fill:#be1931;fill-opacity:1;fill-rule:nonzero;stroke:none"
                 d="m 0,0 c 2.552,-4.254 -1.806,-9.096 -4.357,-8.245 -2.553,0.85 -3.403,-1.701 -0.851,-2.552 2.552,-0.85 8.051,0.396 11.059,3.402 0.85,0.851 1.701,0.851 1.701,0.851 L 0,0 Z"
                 inkscape:connector-curvature="0" />
            </g>
            <g
               transform="translate(23,20.1328)"
               id="g36">
              <path
                 id="path38"
                 style="fill:#be1931;fill-opacity:1;fill-rule:nonzero;stroke:none"
                 d="m 0,0 c -2.552,-4.254 1.806,-9.096 4.357,-8.245 2.553,0.85 3.404,-1.701 0.851,-2.552 -2.552,-0.85 -8.052,0.396 -11.059,3.402 -0.85,0.851 -1.701,0.851 -1.701,0.851 L 0,0 Z"
                 inkscape:connector-curvature="0" />
            </g>
            <g
               transform="translate(9,19)"
               id="g40">
              <path
                 id="path42"
                 style="fill:#ea596e;fill-opacity:1;fill-rule:nonzero;stroke:none"
                 d="m 0,0 c 2.552,-4.254 -1.369,-11.366 -3.921,-10.515 -2.552,0.851 -3.403,-1.702 -0.85,-2.552 2.552,-0.851 8.051,0.395 11.059,3.403 0.85,0.85 1.701,0.85 1.701,0.85 L 0,0 Z"
                 inkscape:connector-curvature="0" />
            </g>
            <g
               transform="translate(26.9893,19)"
               id="g44">
              <path
                 id="path46"
                 style="fill:#ea596e;fill-opacity:1;fill-rule:nonzero;stroke:none"
                 d="m 0,0 c -2.553,-4.254 1.368,-11.366 3.921,-10.515 2.552,0.851 3.402,-1.702 0.85,-2.552 -2.552,-0.851 -8.051,0.395 -11.059,3.403 -0.851,0.85 -1.701,0.85 -1.701,0.85 L 0,0 Z"
                 inkscape:connector-curvature="0" />
            </g>
            <g
               transform="translate(30.9209,3.6504)"
               id="g48">
              <path
                 id="path50"
                 style="fill:#f4abba;fill-opacity:1;fill-rule:nonzero;stroke:none"
                 d="m 0,0 c -2.322,-0.774 -6.921,5.35 -5.921,11.35 2,5 -4,7.482 -4,9.983 0,6.108 -2.031,9.735 -3.031,9.735 -1,0 -2.969,-3.627 -2.969,-9.735 0,-2.501 -6,-4.983 -4,-9.983 1,-6 -3.599,-12.124 -5.921,-11.35 -2.552,0.851 -3.403,-2.552 -0.85,-3.402 2.552,-0.851 7.068,0.533 10.208,3.402 1.862,1.702 3.563,1.702 3.563,1.702 0,0 1.701,0 3.564,-1.702 3.138,-2.869 7.656,-4.253 10.208,-3.402 C 3.402,-2.552 2.552,0.851 0,0"
                 inkscape:connector-curvature="0" />
            </g>
            <g
               transform="translate(17,12.5)"
               id="g52">
              <path
                 id="path54"
                 style="fill:#292f33;fill-opacity:1;fill-rule:nonzero;stroke:none"
                 d="M 0,0 C 0,-1.381 -1.119,-2.5 -2.5,-2.5 -3.881,-2.5 -5,-1.381 -5,0 -5,1.381 -3.881,2.5 -2.5,2.5 -1.119,2.5 0,1.381 0,0"
                 inkscape:connector-curvature="0" />
            </g>
            <g
               transform="translate(24,12.5)"
               id="g56">
              <path
                 id="path58"
                 style="fill:#292f33;fill-opacity:1;fill-rule:nonzero;stroke:none"
                 d="M 0,0 C 0,-1.381 -1.119,-2.5 -2.5,-2.5 -3.881,-2.5 -5,-1.381 -5,0 -5,1.381 -3.881,2.5 -2.5,2.5 -1.119,2.5 0,1.381 0,0"
                 inkscape:connector-curvature="0" />
            </g>
          </g>
        </g>
      </g>
    </g>
    <g
       transform="matrix(-0.33863364,0.79777087,-0.79777087,-0.33863364,125.66854,148.65525)"
       id="g55">
      <g
         transform="matrix(1.25,0,0,-1.25,0,47.5)"
         id="g57">
        <g
           id="g59">
          <g
             clip-path="url(#clipPath16)"
             id="g61">
            <g
               transform="translate(37,35)"
               id="g63">
              <path
                 id="path65"
                 style="fill:#aa8ed6;fill-opacity:1;fill-rule:nonzero;stroke:none"
                 d="M 0,0 C 0,0.809 -0.487,1.538 -1.234,1.848 -1.984,2.158 -2.842,1.987 -3.414,1.414 -4.3,0.528 -7.411,-2 -10,-2 c -10e-4,0 -0.002,0 -0.004,0 -2.384,1.273 -5.104,2 -7.996,2 -2.892,0 -5.612,-0.727 -7.996,-2 -0.002,0 -0.003,0 -0.004,0 -2.58,0 -5.631,2.466 -6.586,3.414 -0.571,0.572 -1.433,0.744 -2.179,0.434 C -35.513,1.538 -36,0.809 -36,0 c 0,-2.384 0.795,-6.229 3.359,-8.391 C -34.13,-10.918 -35,-13.854 -35,-17 c 0,-9.389 7.612,-17 17,-17 9.389,0 17,7.611 17,17 0,3.146 -0.87,6.082 -2.359,8.609 C -0.795,-6.229 0,-2.384 0,0"
                 inkscape:connector-curvature="0" />
            </g>
            <g
               transform="translate(28.335,11.3711)"
               id="g67">
              <path
                 id="path69"
                 style="fill:#553986;fill-opacity:1;fill-rule:nonzero;stroke:none"
                 d="m 0,0 c -0.178,0.161 -0.444,0.171 -0.635,0.029 -0.039,-0.029 -3.922,-2.9 -8.7,-2.9 -4.766,0 -8.662,2.871 -8.7,2.9 -0.191,0.142 -0.457,0.13 -0.635,-0.029 -0.177,-0.16 -0.217,-0.424 -0.094,-0.628 0.129,-0.215 3.217,-5.243 9.429,-5.243 6.212,0 9.301,5.028 9.429,5.243 C 0.217,-0.423 0.178,-0.16 0,0"
                 inkscape:connector-curvature="0" />
            </g>
            <g
               transform="translate(16.707,18.707)"
               id="g71">
              <path
                 id="path73"
                 style="fill:#553986;fill-opacity:1;fill-rule:nonzero;stroke:none"
                 d="m 0,0 c -3.255,3.255 -8.486,3.293 -8.707,3.293 -0.552,0 -0.999,-0.447 -0.999,-0.999 -0.001,-0.551 0.446,-1 0.998,-1.001 0.029,0 1.925,-0.022 3.983,-0.737 -0.593,-0.64 -0.982,-1.634 -0.982,-2.763 0,-1.934 1.119,-3.5 2.5,-3.5 1.381,0 2.5,1.566 2.5,3.5 0,0.174 -0.019,0.34 -0.037,0.507 0.013,0 0.025,-0.007 0.037,-0.007 0.256,0 0.512,0.098 0.707,0.293 0.391,0.391 0.391,1.023 0,1.414"
                 inkscape:connector-curvature="0" />
            </g>
            <g
               transform="translate(30,22)"
               id="g75">
              <path
                 id="path77"
                 style="fill:#553986;fill-opacity:1;fill-rule:nonzero;stroke:none"
                 d="m 0,0 c -0.221,0 -5.451,-0.038 -8.707,-3.293 -0.391,-0.391 -0.391,-1.023 0,-1.414 C -8.512,-4.902 -8.256,-5 -8,-5 c 0.013,0 0.024,0.007 0.036,0.007 C -7.98,-5.16 -8,-5.326 -8,-5.5 -8,-7.434 -6.881,-9 -5.5,-9 c 1.381,0 2.5,1.566 2.5,3.5 0,1.129 -0.389,2.123 -0.982,2.763 C -1.924,-2.022 -0.028,-2 0.002,-2 0.553,-1.999 1,-1.55 0.999,-0.999 0.998,-0.447 0.552,0 0,0"
                 inkscape:connector-curvature="0" />
            </g>
          </g>
        </g>
      </g>
    </g>
    <g
       transform="matrix(0.11576545,0.6565385,-0.6565385,0.11576545,159.55628,36.975013)"
       id="g79">
      <g
         transform="matrix(1.25,0,0,-1.25,0,45)"
         id="g81">
        <g
           id="g83">
          <g
             clip-path="url(#clipPath16)"
             id="g85">
            <g
               transform="translate(18,1)"
               id="g87">
              <path
                 id="path89"
                 style="fill:#ccd6dd;fill-opacity:1;fill-rule:nonzero;stroke:none"
                 d="m 0,0 c -14.958,0 -17,14 -17,18 l 34,0 C 17,16 15.042,0 0,0"
                 inkscape:connector-curvature="0" />
            </g>
            <g
               transform="translate(35,18.9443)"
               id="g91">
              <path
                 id="path93"
                 style="fill:#66757f;fill-opacity:1;fill-rule:nonzero;stroke:none"
                 d="m 0,0 c 0,-5.216 -7.611,-9.444 -17,-9.444 -9.389,0 -17,4.228 -17,9.444 0,5.216 7.611,8.444 17,8.444 C -7.611,8.444 0,5.216 0,0"
                 inkscape:connector-curvature="0" />
            </g>
            <g
               transform="translate(2.7085,17.125)"
               id="g95">
              <path
                 id="path97"
                 style="fill:#77b255;fill-opacity:1;fill-rule:nonzero;stroke:none"
                 d="M 0,0 C -0.808,1.161 -2.333,3.5 -0.708,7 0,8.833 1.471,10.027 1.667,9.458 2.125,8.125 3.042,6.958 4.417,7.083 4.399,6.61 3.748,11.392 6.042,12.667 c 1.125,0.625 2.333,-0.375 3.708,-2.584 2.202,-3.536 7.811,-1.884 9.385,-0.958 1.594,0.938 2.991,1.552 2.574,4.063 -0.092,0.55 0.743,1.029 1.594,0.573 1.431,-0.766 3.498,-2.671 3.864,-4.761 1.02,-0.271 1.786,0.163 2.375,1.354 0.292,0.59 1.292,0.729 1.719,-0.041 0.754,-1.356 1.992,-5.526 0.24,-9.105 -2,-4.083 -5.042,-6.25 -11.875,-7.125 C 12.792,-6.792 4,-5.75 0,0"
                 inkscape:connector-curvature="0" />
            </g>
            <g
               transform="translate(19.417,25.854)"
               id="g99">
              <path
                 id="path101"
                 style="fill:#5c913b;fill-opacity:1;fill-rule:nonzero;stroke:none"
                 d="m 0,0 c 0,-2.105 -1.81,-3.813 -4.042,-3.813 -2.232,0 -4.042,1.708 -4.042,3.813 0,2.105 1.81,3.813 4.042,3.813 C -1.81,3.813 0,2.105 0,0"
                 inkscape:connector-curvature="0" />
            </g>
            <g
               transform="translate(18.417,25.8535)"
               id="g103">
              <path
                 id="path105"
                 style="fill:#c6e5b3;fill-opacity:1;fill-rule:nonzero;stroke:none"
                 d="m 0,0 c 0,-1.585 -1.362,-2.869 -3.042,-2.869 -1.68,0 -3.042,1.284 -3.042,2.869 0,1.585 1.362,2.87 3.042,2.87 C -1.362,2.87 0,1.585 0,0"
                 inkscape:connector-curvature="0" />
            </g>
            <g
               transform="translate(10.459,21.5)"
               id="g107">
              <path
                 id="path109"
                 style="fill:#292f33;fill-opacity:1;fill-rule:nonzero;stroke:none"
                 d="m 0,0 c 0,-1.104 -1.026,-2 -2.292,-2 -1.266,0 -2.292,0.896 -2.292,2 0,1.105 1.026,2 2.292,2 C -1.026,2 0,1.105 0,0"
                 inkscape:connector-curvature="0" />
            </g>
            <g
               transform="translate(17.5244,20.8179)"
               id="g111">
              <path
                 id="path113"
                 style="fill:#dd2e44;fill-opacity:1;fill-rule:nonzero;stroke:none"
                 d="m 0,0 c 1.267,-2.388 -2.104,-0.951 -4.614,-2.284 -2.51,-1.332 -3.209,-4.928 -4.477,-2.541 -1.267,2.388 -0.26,5.405 2.25,6.737 C -4.331,3.244 -1.268,2.388 0,0"
                 inkscape:connector-curvature="0" />
            </g>
            <g
               transform="translate(26.459,23.5)"
               id="g115">
              <path
                 id="path117"
                 style="fill:#292f33;fill-opacity:1;fill-rule:nonzero;stroke:none"
                 d="m 0,0 c 0,-1.104 -1.026,-2 -2.292,-2 -1.266,0 -2.292,0.896 -2.292,2 0,1.105 1.026,2 2.292,2 C -1.026,2 0,1.105 0,0"
                 inkscape:connector-curvature="0" />
            </g>
            <g
               transform="translate(29.1172,15.8711)"
               id="g119">
              <path
                 id="path121"
                 style="fill:#9266cc;fill-opacity:1;fill-rule:nonzero;stroke:none"
                 d="M 0,0 C -1.564,-1.48 -1.178,1.412 -2.734,3.056 -4.292,4.7 -7.2,4.471 -5.638,5.952 -4.074,7.434 -1.544,7.301 0.013,5.658 1.569,4.015 1.563,1.481 0,0"
                 inkscape:connector-curvature="0" />
            </g>
            <g
               transform="translate(28.1172,14.8711)"
               id="g123">
              <path
                 id="path125"
                 style="fill:#e1e8ed;fill-opacity:1;fill-rule:nonzero;stroke:none"
                 d="M 0,0 C -1.564,-1.48 -1.178,1.412 -2.734,3.057 -4.292,4.7 -7.2,4.471 -5.638,5.952 -4.074,7.434 -1.544,7.301 0.013,5.658 1.569,4.015 1.563,1.481 0,0"
                 inkscape:connector-curvature="0" />
            </g>
            <g
               transform="translate(24.0127,16.0723)"
               id="g60">
              <path
                 id="path62"
                 style="fill:#dd2e44;fill-opacity:1;fill-rule:nonzero;stroke:none"
                 d="m 0,0 c 0.781,-2.063 -1.798,-0.555 -3.966,-1.377 -2.166,-0.821 -3.099,-3.658 -3.881,-1.597 -0.781,2.06 0.343,4.398 2.509,5.219 C -3.171,3.066 -0.781,2.06 0,0"
                 inkscape:connector-curvature="0" />
            </g>
            <g
               transform="translate(8.9585,16.916)"
               id="g64">
              <path
                 id="path66"
                 style="fill:#ea596e;fill-opacity:1;fill-rule:nonzero;stroke:none"
                 d="M 0,0 C -0.167,1.542 2.834,8.418 8.167,2.417 6.917,2.209 3.875,2.209 2.5,0.292 1.125,-1.624 -0.125,0.084 0,0"
                 inkscape:connector-curvature="0" />
            </g>
            <g
               transform="translate(4.917,16.291)"
               id="g68">
              <path
                 id="path70"
                 style="fill:#a6d388;fill-opacity:1;fill-rule:nonzero;stroke:none"
                 d="M 0,0 C -0.728,0.971 1.75,3.209 3.625,1.293 4.417,2.251 8.333,4.167 9.792,0 10.458,0.75 15.917,0.917 16,-3.708 16.041,-4.333 9.705,-4.214 6.458,-3.458 4.667,-3.041 1.375,-1.833 0,0"
                 inkscape:connector-curvature="0" />
            </g>
            <g
               transform="translate(26,13.542)"
               id="g72">
              <path
                 id="path74"
                 style="fill:#a6d388;fill-opacity:1;fill-rule:nonzero;stroke:none"
                 d="M 0,0 C -1.167,-0.315 0.793,5.125 4.459,4.208 4.584,5.208 5.375,8.5 7.667,7.916 7.75,6.958 7.708,2.084 0,0"
                 inkscape:connector-curvature="0" />
            </g>
          </g>
        </g>
      </g>
    </g>
    <g
       transform="matrix(0.49969541,0.01744975,-0.01744975,0.49969541,27.106704,94.281941)"
       id="g135">
      <g
         transform="matrix(1.25,0,0,-1.25,0,45)"
         id="g137">
        <g
           id="g139">
          <g
             clip-path="url(#clipPath16)"
             id="g141">
            <g
               transform="translate(13.5,12.5109)"
               id="g143">
              <path
                 id="path145"
                 style="fill:#662113;fill-opacity:1;fill-rule:nonzero;stroke:none"
                 d="M 0,0 C 0,0 -1.103,-1.377 -0.737,-3.268 -0.512,-4.433 0.577,-5.635 2.038,-5.86 2.526,-5.936 2.764,-6.888 2.629,-7.588 2.476,-8.38 1.93,-9.49 1.63,-10.053 1.329,-10.617 0.74,-10.615 0.015,-11.266 -0.49,-11.72 -0.662,-12.511 0.202,-12.511 l 3.821,0 c 0.766,0 1.255,0.469 1.418,1.241 0.226,1.071 1.094,5.148 0.846,5.936 C 6.11,-4.77 5.51,-4.32 5.123,-3.231 4.836,-2.423 5.5,-0.263 5.5,-0.263 L 0,0 Z"
                 inkscape:connector-curvature="0" />
            </g>
            <g
               transform="translate(2.5397,13.1182)"
               id="g147">
              <path
                 id="path149"
                 style="fill:#662113;fill-opacity:1;fill-rule:nonzero;stroke:none"
                 d="m 0,0 c 0,0 0.797,0.724 1.344,0.937 0.547,0.214 2.554,0.058 3.065,0.165 0.511,0.106 1.363,0.97 1.363,0.97 0,0 2.144,-0.835 2.166,-1.04 0.023,-0.206 -1.439,-1.618 -1.76,-1.987 -0.321,-0.368 -2.316,0.537 -2.91,0.537 -0.594,0 -1.842,-0.534 -2.282,-0.783 -0.439,-0.249 -0.51,0.131 -0.261,0.404 0,0 -0.401,-0.49 -0.539,-0.31 -0.138,0.18 0.231,0.572 0.231,0.572 0,0 -0.345,-0.439 -0.535,-0.297 C -0.308,-0.689 -0.312,-0.376 0,0"
                 inkscape:connector-curvature="0" />
            </g>
            <g
               transform="translate(14.4155,29.3028)"
               id="g151">
              <path
                 id="path153"
                 style="fill:#662113;fill-opacity:1;fill-rule:nonzero;stroke:none"
                 d="m 0,0 c -0.233,-0.62 -0.831,-1.637 0.355,-1.72 1.185,-0.083 0.021,-1.248 -1.031,-1.323 -1.052,-0.075 -4.471,1.39 -4.095,2.254 0.376,0.864 1.88,1.803 3.044,1.578 C -0.563,0.563 0,0 0,0"
                 inkscape:connector-curvature="0" />
            </g>
            <g
               transform="translate(20.8125,30.5469)"
               id="g155">
              <path
                 id="path157"
                 style="fill:#f4900c;fill-opacity:1;fill-rule:nonzero;stroke:none"
                 d="m 0,0 c -0.078,-0.578 -0.234,-1 -0.344,-0.984 -0.109,0.015 -0.375,1.062 -0.375,1.062 0,0 -0.203,-1.156 -0.343,-1.14 C -1.203,-1.047 -1.344,0 -1.344,0 c 0,0 -0.234,-1.063 -0.39,-1.063 C -1.891,-1.062 -2.094,0 -2.094,0 c 0,0 -0.17,-1.052 -0.295,-1.067 -0.125,-0.016 -0.502,0.959 -0.502,0.959 0,0 -0.218,-0.986 -0.328,-0.986 -0.109,0 -0.422,0.986 -0.422,0.986 0,0 -0.187,-0.97 -0.281,-0.97 -0.094,0 -0.437,0.97 -0.437,0.97 0,0 -0.139,-1.04 -0.235,-1.064 -0.256,-0.062 -0.72,0.891 -0.72,0.891 0,0 0.218,-1.061 0.08,-1.079 -0.235,-0.032 -0.985,0.735 -0.985,0.735 0,0 0.953,0.953 1.719,1.109 0.766,0.157 4.016,0.782 4.391,0.641 C 0.266,0.984 0,0 0,0"
                 inkscape:connector-curvature="0" />
            </g>
            <g
               transform="translate(20.1757,27.8055)"
               id="g159">
              <path
                 id="path161"
                 style="fill:#f4900c;fill-opacity:1;fill-rule:nonzero;stroke:none"
                 d="M 0,0 C -0.137,0.567 -0.336,0.97 -0.444,0.944 -0.551,0.917 -0.575,-0.06 -0.575,-0.06 c 0,0 -0.453,1.037 -0.592,1.007 -0.138,-0.03 -0.061,-1.074 -0.061,-1.074 0,0 -0.452,1.021 -0.607,1.005 C -1.99,0.862 -1.927,-0.2 -1.927,-0.2 c 0,0 -0.522,1.093 -0.648,1.095 -0.126,0.003 -0.141,-1.067 -0.141,-1.067 0,0 -0.387,1.013 -0.496,1.001 -0.109,-0.011 -0.231,-1.108 -0.231,-1.108 0,0 -0.289,0.976 -0.383,0.966 -0.093,-0.01 -0.256,-1.016 -0.256,-1.016 0,0 -0.294,0.865 -0.39,0.886 -0.097,0.021 -0.221,-0.903 -0.221,-0.903 0,0 -0.289,0.683 -0.42,0.732 -0.131,0.049 -0.216,-0.879 -0.216,-0.879 0,0 0.125,-0.377 0.903,-0.453 0.778,-0.077 4.075,-0.363 4.433,-0.184 C 0.366,-0.952 0,0 0,0"
                 inkscape:connector-curvature="0" />
            </g>
            <g
               transform="translate(11.0346,28.5139)"
               id="g163">
              <path
                 id="path165"
                 style="fill:#ab7e59;fill-opacity:1;fill-rule:nonzero;stroke:none"
                 d="M 0,0 C 0.114,0.683 2.141,-0.338 2.554,-0.225 2.968,-0.113 4.62,1.54 5.071,1.578 5.522,1.615 9.542,1.69 9.992,1.916 10.443,2.141 10.18,3.907 9.767,4.395 9.354,4.884 7.889,5.973 6.161,6.161 4.433,6.349 3.231,6.386 2.667,6.687 2.104,6.987 0.864,7.1 0,6.687 -0.864,6.273 -3.944,5.785 -5.222,4.508 -6.499,3.231 -7.964,1.54 -8.302,-1.202 c -0.338,-2.742 0.516,-4.573 1.052,-5.582 0.393,-0.742 1.502,-3.509 1.765,-4.598 0.263,-1.09 1.846,-4.978 4.934,-5.88 3.089,-0.901 5.359,-2.648 8.177,-3.099 3.208,-0.513 9.091,0.188 12.096,2.067 3.005,1.878 4.47,3.794 4.47,6.31 0,2.517 -1.615,5.26 -3.869,5.335 -2.254,0.075 -0.789,-0.676 -0.113,-0.827 0.676,-0.15 1.991,-1.765 1.691,-3.193 -0.301,-1.427 -0.902,-2.517 -2.517,-2.554 -1.615,-0.038 -3.306,1.765 -4.208,2.968 -0.901,1.202 -4.958,3.339 -6.874,3.454 -1.916,0.114 -5.898,0.114 -6.386,1.316 -0.489,1.202 -0.376,1.804 -0.038,1.954 0.338,0.15 2.217,0.563 3.531,0.601 1.315,0.037 3.644,0.375 3.945,0.826 0.3,0.451 0.225,1.39 -0.113,1.428 -0.338,0.037 -2.442,-0.188 -3.043,-0.188 -0.601,0 -0.939,0.488 -1.578,0.301 C 3.982,-0.751 2.817,-1.465 2.329,-1.39 1.841,-1.315 -0.038,-0.225 0,0"
                 inkscape:connector-curvature="0" />
            </g>
            <g
               transform="translate(26.9516,9.7475)"
               id="g167">
              <path
                 id="path169"
                 style="fill:#8b5e3c;fill-opacity:1;fill-rule:nonzero;stroke:none"
                 d="m 0,0 c -2.693,-0.388 -7.846,0.466 -9.358,0.982 -1.512,0.516 -4.615,1.318 -6.801,1.781 -2.186,0.464 -3.884,2.299 -5.084,4.099 0.519,-1.484 2.069,-4.567 4.775,-5.357 3.089,-0.902 5.359,-2.648 8.177,-3.099 C -5.083,-2.107 0.8,-1.406 3.805,0.472 4.896,1.154 5.777,1.841 6.465,2.559 5.518,1.851 2.68,0.386 0,0"
                 inkscape:connector-curvature="0" />
            </g>
            <g
               transform="translate(12.8164,34.4318)"
               id="g171">
              <path
                 id="path173"
                 style="fill:#8b5e3c;fill-opacity:1;fill-rule:nonzero;stroke:none"
                 d="m 0,0 c 1.336,-0.208 0.203,-0.909 2.683,-0.904 0,0 -1.873,-1 -2.624,-1 -1.297,0 -1.568,0.644 -1.567,1.182 C -1.508,-0.238 -0.7,0.109 0,0"
                 inkscape:connector-curvature="0" />
            </g>
            <g
               transform="translate(13,33.5)"
               id="g175">
              <path
                 id="path177"
                 style="fill:#292f33;fill-opacity:1;fill-rule:nonzero;stroke:none"
                 d="M 0,0 C 0,-0.276 -0.224,-0.5 -0.5,-0.5 -0.776,-0.5 -1,-0.276 -1,0 -1,0.276 -0.776,0.5 -0.5,0.5 -0.224,0.5 0,0.276 0,0"
                 inkscape:connector-curvature="0" />
            </g>
            <g
               transform="translate(17.1319,11.2337)"
               id="g179">
              <path
                 id="path181"
                 style="fill:#ab7e59;fill-opacity:1;fill-rule:nonzero;stroke:none"
                 d="M 0,0 C 0,0 0.424,-1.503 1.796,-2.855 3.168,-4.207 5.917,-4.508 6.406,-4.583 6.894,-4.658 7.423,-4.846 7.648,-5.522 7.874,-6.198 8.299,-8.213 7.998,-8.776 7.697,-9.34 6.45,-9.654 6.111,-10.293 5.921,-10.65 5.428,-11.234 6.292,-11.234 l 4.576,0 c 0.766,0 0.954,0.603 0.954,1.392 0,0.789 0.263,2.066 -0.226,3.456 -0.488,1.39 -0.676,3.493 -1.502,3.719 -0.827,0.225 -2.142,2.479 -2.142,2.479 L 0,0 Z"
                 inkscape:connector-curvature="0" />
            </g>
            <g
               transform="translate(4.3548,9.2523)"
               id="g183">
              <path
                 id="path185"
                 style="fill:#ab7e59;fill-opacity:1;fill-rule:nonzero;stroke:none"
                 d="m 0,0 c 0,0 0.559,0.996 1.037,1.395 0.478,0.398 2.55,0.916 3.028,1.195 0.478,0.279 1.046,1.434 1.046,1.434 0,0 2.437,-0.119 2.528,-0.319 C 7.731,3.506 6.735,1.594 6.536,1.116 6.336,0.637 4.025,0.876 3.428,0.677 2.83,0.478 1.754,-0.478 1.396,-0.877 1.037,-1.275 0.838,-0.916 0.997,-0.558 c 0,0 -0.239,-0.628 -0.438,-0.493 -0.199,0.135 0.04,0.653 0.04,0.653 0,0 -0.199,-0.558 -0.438,-0.479 C -0.078,-0.797 -0.188,-0.483 0,0"
                 inkscape:connector-curvature="0" />
            </g>
            <g
               transform="translate(15.7104,20.337)"
               id="g187">
              <path
                 id="path189"
                 style="fill:#8b5e3c;fill-opacity:1;fill-rule:nonzero;stroke:none"
                 d="m 0,0 c 0,-0.318 -0.258,-0.576 -0.576,-0.576 -0.318,0 -0.576,0.258 -0.576,0.576 0,0.318 0.258,0.576 0.576,0.576 C -0.258,0.576 0,0.318 0,0"
                 inkscape:connector-curvature="0" />
            </g>
            <g
               transform="translate(18.7712,19.0734)"
               id="g191">
              <path
                 id="path193"
                 style="fill:#8b5e3c;fill-opacity:1;fill-rule:nonzero;stroke:none"
                 d="m 0,0 c 0,-0.453 -0.367,-0.82 -0.82,-0.82 -0.452,0 -0.819,0.367 -0.819,0.82 0,0.453 0.367,0.82 0.819,0.82 C -0.367,0.82 0,0.453 0,0"
                 inkscape:connector-curvature="0" />
            </g>
            <g
               transform="translate(17.1319,20.7451)"
               id="g195">
              <path
                 id="path197"
                 style="fill:#8b5e3c;fill-opacity:1;fill-rule:nonzero;stroke:none"
                 d="m 0,0 c 0,-0.241 -0.195,-0.436 -0.436,-0.436 -0.241,0 -0.436,0.195 -0.436,0.436 0,0.241 0.195,0.436 0.436,0.436 C -0.195,0.436 0,0.241 0,0"
                 inkscape:connector-curvature="0" />
            </g>
            <g
               transform="translate(20.0868,20.5054)"
               id="g76">
              <path
                 id="path78"
                 style="fill:#8b5e3c;fill-opacity:1;fill-rule:nonzero;stroke:none"
                 d="m 0,0 c 0,-0.228 -0.185,-0.412 -0.412,-0.412 -0.228,0 -0.413,0.184 -0.413,0.412 0,0.228 0.185,0.412 0.413,0.412 C -0.185,0.412 0,0.228 0,0"
                 inkscape:connector-curvature="0" />
            </g>
            <g
               transform="translate(22.6996,19.3307)"
               id="g80">
              <path
                 id="path82"
                 style="fill:#8b5e3c;fill-opacity:1;fill-rule:nonzero;stroke:none"
                 d="m 0,0 c 0,-0.421 -0.341,-0.762 -0.762,-0.762 -0.421,0 -0.763,0.341 -0.763,0.762 0,0.421 0.342,0.762 0.763,0.762 C -0.341,0.762 0,0.421 0,0"
                 inkscape:connector-curvature="0" />
            </g>
            <g
               transform="translate(25.5952,15.6776)"
               id="g84">
              <path
                 id="path86"
                 style="fill:#8b5e3c;fill-opacity:1;fill-rule:nonzero;stroke:none"
                 d="m 0,0 c 0,-0.27 -0.218,-0.488 -0.488,-0.488 -0.269,0 -0.488,0.218 -0.488,0.488 0,0.27 0.219,0.488 0.488,0.488 C -0.218,0.488 0,0.27 0,0"
                 inkscape:connector-curvature="0" />
            </g>
            <g
               transform="translate(21.0626,17.7658)"
               id="g88">
              <path
                 id="path90"
                 style="fill:#8b5e3c;fill-opacity:1;fill-rule:nonzero;stroke:none"
                 d="m 0,0 c 0,-0.27 -0.218,-0.488 -0.488,-0.488 -0.269,0 -0.488,0.218 -0.488,0.488 0,0.269 0.219,0.488 0.488,0.488 C -0.218,0.488 0,0.269 0,0"
                 inkscape:connector-curvature="0" />
            </g>
            <g
               transform="translate(25.4781,17.7658)"
               id="g92">
              <path
                 id="path94"
                 style="fill:#8b5e3c;fill-opacity:1;fill-rule:nonzero;stroke:none"
                 d="m 0,0 c 0,-0.27 -0.218,-0.488 -0.488,-0.488 -0.269,0 -0.488,0.218 -0.488,0.488 0,0.269 0.219,0.488 0.488,0.488 C -0.218,0.488 0,0.269 0,0"
                 inkscape:connector-curvature="0" />
            </g>
            <g
               transform="translate(23.9852,18.0195)"
               id="g96">
              <path
                 id="path98"
                 style="fill:#8b5e3c;fill-opacity:1;fill-rule:nonzero;stroke:none"
                 d="m 0,0 c 0,-0.399 -0.323,-0.722 -0.722,-0.722 -0.399,0 -0.722,0.323 -0.722,0.722 0,0.399 0.323,0.722 0.722,0.722 C -0.323,0.722 0,0.399 0,0"
                 inkscape:connector-curvature="0" />
            </g>
          </g>
        </g>
      </g>
    </g>
    <g
       transform="matrix(-0.52814297,0.07422565,-0.07422565,-0.52814297,134.9694,92.257165)"
       id="g211">
      <g
         transform="matrix(1.25,0,0,-1.25,0,45)"
         id="g213">
        <g
           id="g215">
          <g
             clip-path="url(#clipPath16)"
             id="g217">
            <g
               transform="translate(32,0)"
               id="g219">
              <path
                 id="path221"
                 style="fill:#2a6797;fill-opacity:1;fill-rule:nonzero;stroke:none"
                 d="m 0,0 0,2 c 0,3.314 -2.686,6 -6,6 l -16,0 c -3.313,0 -6,-2.686 -6,-6 l 0,-2 28,0 z"
                 inkscape:connector-curvature="0" />
            </g>
            <g
               transform="translate(30,28.4995)"
               id="g223">
              <path
                 id="path225"
                 style="fill:#2a6797;fill-opacity:1;fill-rule:nonzero;stroke:none"
                 d="m 0,0 c 0,-4.143 -5.372,-7.499 -12,-7.499 -6.626,0 -11.999,3.356 -11.999,7.499 0,4.142 5.373,7.5 11.999,7.5 C -5.372,7.5 0,4.142 0,0"
                 inkscape:connector-curvature="0" />
            </g>
            <g
               transform="translate(13.6396,7.8994)"
               id="g227">
              <path
                 id="path229"
                 style="fill:#ffdc5d;fill-opacity:1;fill-rule:nonzero;stroke:none"
                 d="m 0,0 c 1.744,-1.268 2.848,-1.963 4.36,-1.963 1.512,0 2.616,0.696 4.36,1.963 l 0,3.811 L 0,3.811 0,0 Z"
                 inkscape:connector-curvature="0" />
            </g>
            <g
               transform="translate(13.6318,10.0273)"
               id="g231">
              <path
                 id="path233"
                 style="fill:#f9ca55;fill-opacity:1;fill-rule:nonzero;stroke:none"
                 d="m 0,0 c 1.216,-1.374 2.724,-1.746 4.364,-1.746 1.639,0 3.147,0.373 4.364,1.746 l 0,3.491 L 0,3.491 0,0 Z"
                 inkscape:connector-curvature="0" />
            </g>
            <g
               transform="translate(11.4443,20.0645)"
               id="g235">
              <path
                 id="path237"
                 style="fill:#ffdc5d;fill-opacity:1;fill-rule:nonzero;stroke:none"
                 d="m 0,0 c 0,-1.448 -0.734,-2.622 -1.639,-2.622 -0.905,0 -1.639,1.174 -1.639,2.622 0,1.448 0.734,2.623 1.639,2.623 C -0.734,2.623 0,1.448 0,0"
                 inkscape:connector-curvature="0" />
            </g>
            <g
               transform="translate(27.833,20.0645)"
               id="g239">
              <path
                 id="path241"
                 style="fill:#ffdc5d;fill-opacity:1;fill-rule:nonzero;stroke:none"
                 d="m 0,0 c 0,-1.448 -0.733,-2.622 -1.639,-2.622 -0.905,0 -1.638,1.174 -1.638,2.622 0,1.448 0.733,2.623 1.638,2.623 C -0.733,2.623 0,1.448 0,0"
                 inkscape:connector-curvature="0" />
            </g>
            <g
               transform="translate(9.4775,19.0405)"
               id="g243">
              <path
                 id="path245"
                 style="fill:#ffdc5d;fill-opacity:1;fill-rule:nonzero;stroke:none"
                 d="m 0,0 c 0,5.589 3.816,10.121 8.523,10.121 4.707,0 8.522,-4.532 8.522,-10.121 0,-5.589 -3.815,-10.121 -8.522,-10.121 C 3.816,-10.121 0,-5.589 0,0"
                 inkscape:connector-curvature="0" />
            </g>
            <g
               transform="translate(18,12.1982)"
               id="g247">
              <path
                 id="path249"
                 style="fill:#c1694f;fill-opacity:1;fill-rule:nonzero;stroke:none"
                 d="m 0,0 c -2.754,0 -3.6,0.705 -3.741,0.848 -0.256,0.256 -0.256,0.671 0,0.927 0.248,0.248 0.645,0.254 0.902,0.023 C -2.787,1.761 -2.118,1.311 0,1.311 c 2.2,0 2.836,0.485 2.842,0.49 C 3.098,2.056 3.499,2.044 3.755,1.786 4.011,1.53 3.997,1.104 3.741,0.848 3.6,0.705 2.754,0 0,0"
                 inkscape:connector-curvature="0" />
            </g>
            <g
               transform="translate(18,31.5942)"
               id="g251">
              <path
                 id="path253"
                 style="fill:#ffac33;fill-opacity:1;fill-rule:nonzero;stroke:none"
                 d="m 0,0 c 5.648,0 9.178,-3.242 9.178,-6.715 0,-3.473 -0.706,-4.863 -1.412,-3.473 -0.706,1.389 -1.412,2.778 -1.412,2.778 0,0 -4.236,0 -5.648,1.39 0,0 2.118,-4.168 -2.118,0 0,0 0.706,-2.779 -3.53,0.694 0,0 -2.118,-1.389 -2.824,-4.862 -0.196,-0.964 -1.412,0 -1.412,3.473 C -9.178,-3.242 -6.354,0 0,0"
                 inkscape:connector-curvature="0" />
            </g>
            <g
               transform="translate(14,19)"
               id="g255">
              <path
                 id="path257"
                 style="fill:#662113;fill-opacity:1;fill-rule:nonzero;stroke:none"
                 d="m 0,0 0,0 c -0.55,0 -1,0.45 -1,1 l 0,1 C -1,2.55 -0.55,3 0,3 0.55,3 1,2.55 1,2 L 1,1 C 1,0.45 0.55,0 0,0"
                 inkscape:connector-curvature="0" />
            </g>
            <g
               transform="translate(22,19)"
               id="g259">
              <path
                 id="path261"
                 style="fill:#662113;fill-opacity:1;fill-rule:nonzero;stroke:none"
                 d="m 0,0 0,0 c -0.55,0 -1,0.45 -1,1 l 0,1 C -1,2.55 -0.55,3 0,3 0.55,3 1,2.55 1,2 L 1,1 C 1,0.45 0.55,0 0,0"
                 inkscape:connector-curvature="0" />
            </g>
            <g
               transform="translate(18.75,16.25)"
               id="g263">
              <path
                 id="path265"
                 style="fill:#c1694f;fill-opacity:1;fill-rule:nonzero;stroke:none"
                 d="m 0,0 -1.5,0 c -0.413,0 -0.75,0.337 -0.75,0.75 0,0.413 0.337,0.75 0.75,0.75 L 0,1.5 C 0.413,1.5 0.75,1.163 0.75,0.75 0.75,0.337 0.413,0 0,0"
                 inkscape:connector-curvature="0" />
            </g>
            <g
               transform="translate(8.5,27)"
               id="g267">
              <path
                 id="path269"
                 style="fill:#2a6797;fill-opacity:1;fill-rule:nonzero;stroke:none"
                 d="M 0,0 C 0,1.105 4.253,2 9.5,2 14.747,2 19,1.105 19,0 19,-1.105 14.747,-2 9.5,-2 4.253,-2 0,-1.105 0,0"
                 inkscape:connector-curvature="0" />
            </g>
            <g
               transform="translate(27.001,27)"
               id="g271">
              <path
                 id="path273"
                 style="fill:#4289c1;fill-opacity:1;fill-rule:nonzero;stroke:none"
                 d="m 0,0 -18,0 0,2.999 c 0,0 3.75,2.25 8.999,2.25 C -3.75,5.249 0,2.999 0,2.999 L 0,0 Z"
                 inkscape:connector-curvature="0" />
            </g>
            <g
               transform="translate(27.5,27)"
               id="g275">
              <path
                 id="path277"
                 style="fill:#fdcb58;fill-opacity:1;fill-rule:nonzero;stroke:none"
                 d="m 0,0 -19,0 c -0.275,0 -0.5,0.225 -0.5,0.5 0,0.275 0.225,0.5 0.5,0.5 L 0,1 C 0.275,1 0.5,0.775 0.5,0.5 0.5,0.225 0.275,0 0,0"
                 inkscape:connector-curvature="0" />
            </g>
            <g
               transform="translate(18.001,5.1221)"
               id="g279">
              <path
                 id="path281"
                 style="fill:#193d59;fill-opacity:1;fill-rule:nonzero;stroke:none"
                 d="M 0,0 C 0,0 3.381,-2.494 4.093,-2.778 4.249,-2.841 3.727,0.878 3.727,0.878 l -7.455,0 c 0,0 -0.523,-3.781 -0.231,-3.625 C -3.32,-2.404 0,0 0,0"
                 inkscape:connector-curvature="0" />
            </g>
            <g
               transform="translate(19.3125,2.5625)"
               id="g283">
              <path
                 id="path285"
                 style="fill:#193d59;fill-opacity:1;fill-rule:nonzero;stroke:none"
                 d="m 0,0 c 0,0 0.375,0.625 0.531,0.906 0.183,0.329 0.453,1.571 0.453,1.571 l -2.187,0.961 c 0,0.007 -0.16,-0.005 -0.16,-0.005 L -1.547,3.391 -1.719,3.328 C -1.936,3.258 -1.625,3.32 -1.625,3.313 L -3.599,2.477 c 0,0 0.288,-1.242 0.47,-1.571 C -2.973,0.625 -2.601,0 -2.601,0 c 0,0 -0.753,-0.562 -1.035,-2.563 l 2.325,0 0.019,0 2.323,0 C 0.75,-0.969 0,0 0,0"
                 inkscape:connector-curvature="0" />
            </g>
            <g
               transform="translate(13.2915,9.375)"
               id="g287">
              <path
                 id="path289"
                 style="fill:#4289c1;fill-opacity:1;fill-rule:nonzero;stroke:none"
                 d="m 0,0 c 0.566,-0.566 4.71,-3.383 4.71,-3.383 0,0 -2.127,-1.242 -4.085,-3.534 -0.197,-0.23 -1.542,4.625 -1.583,5.709 C -0.97,-0.905 -0.271,0.271 0,0"
                 inkscape:connector-curvature="0" />
            </g>
            <g
               transform="translate(22.7305,9.375)"
               id="g291">
              <path
                 id="path293"
                 style="fill:#4289c1;fill-opacity:1;fill-rule:nonzero;stroke:none"
                 d="m 0,0 c -0.566,-0.566 -4.709,-3.383 -4.709,-3.383 0,0 2.126,-1.242 4.084,-3.534 0.196,-0.23 1.542,4.625 1.583,5.709 C 0.97,-0.905 0.271,0.271 0,0"
                 inkscape:connector-curvature="0" />
            </g>
            <g
               transform="translate(18.0156,5.3125)"
               id="g295">
              <path
                 id="path297"
                 style="fill:#1e4b6e;fill-opacity:1;fill-rule:nonzero;stroke:none"
                 d="M 0,0 C 0.39,0.022 1.543,-0.771 1.422,-1.25 0.961,-3.077 0.573,-2.641 0.031,-2.641 c -0.611,0 -0.964,-0.472 -1.39,1.313 C -1.452,-0.941 -0.562,-0.031 0,0"
                 inkscape:connector-curvature="0" />
            </g>
            <g
               transform="translate(20.0469,0)"
               id="g100">
              <path
                 id="path102"
                 style="fill:#1e4b6e;fill-opacity:1;fill-rule:nonzero;stroke:none"
                 d="m 0,0 -4.023,0 c 0,0 0.541,2.167 2.018,2.167 C -0.528,2.167 0,0 0,0"
                 inkscape:connector-curvature="0" />
            </g>
          </g>
        </g>
        <g
           id="g104">
          <g
             clip-path="url(#clipPath108)"
             id="g106">
            <g
               transform="translate(20.25,34.499)"
               id="g112">
              <path
                 id="path114"
                 style="fill:#fdcb58;fill-opacity:1;fill-rule:nonzero;stroke:none"
                 d="m 0,0 c 0,0 -0.001,-0.001 -0.002,-0.001 l 0,0.001 0,-0.001 c -0.233,0 -0.434,-0.114 -0.57,-0.282 -0.282,-0.069 -0.667,-0.084 -1.157,0.071 C -1.865,-0.082 -2.047,0 -2.25,0 c -0.201,0 -0.384,-0.082 -0.519,-0.212 -0.491,-0.155 -0.876,-0.14 -1.157,-0.071 -0.137,0.168 -0.338,0.282 -0.571,0.282 l 0,0.001 0,-0.001 c 0,0 -0.001,0.001 -0.002,0.001 -0.415,0 -0.75,-0.335 -0.75,-0.75 0,-0.414 0.335,-0.75 0.75,-0.75 l 10e-4,0 0.001,0 c 0,-3 1.498,-3.75 2.247,-3.75 0.751,0 2.248,0.75 2.248,3.75 L 0,-1.5 c 0.416,0 0.751,0.336 0.751,0.75 C 0.751,-0.335 0.416,0 0,0"
                 inkscape:connector-curvature="0" />
            </g>
            <g
               transform="translate(11.4683,6.5879)"
               id="g116">
              <path
                 id="path118"
                 style="fill:#4289c1;fill-opacity:1;fill-rule:nonzero;stroke:none"
                 d="m 0,0 -5.926,-0.938 c -0.272,-0.043 -0.529,0.143 -0.572,0.416 l -0.157,0.988 c -0.043,0.27 0.144,0.528 0.416,0.571 l 5.927,0.939 C -0.041,2.019 0.217,1.831 0.26,1.561 L 0.416,0.572 C 0.459,0.301 0.271,0.044 0,0"
                 inkscape:connector-curvature="0" />
            </g>
            <g
               transform="translate(11.2017,7.4863)"
               id="g120">
              <path
                 id="path122"
                 style="fill:#ffffff;fill-opacity:1;fill-rule:nonzero;stroke:none"
                 d="m 0,0 c 0,-0.318 -0.258,-0.576 -0.577,-0.576 -0.319,0 -0.576,0.258 -0.576,0.576 0,0.319 0.257,0.577 0.576,0.577 C -0.258,0.577 0,0.319 0,0"
                 inkscape:connector-curvature="0" />
            </g>
            <g
               transform="translate(24.5439,6.5879)"
               id="g124">
              <path
                 id="path126"
                 style="fill:#4289c1;fill-opacity:1;fill-rule:nonzero;stroke:none"
                 d="m 0,0 5.926,-0.938 c 0.272,-0.043 0.529,0.143 0.572,0.416 L 6.655,0.466 C 6.698,0.736 6.512,0.994 6.239,1.037 L 0.312,1.976 C 0.041,2.019 -0.217,1.831 -0.26,1.561 L -0.416,0.572 C -0.459,0.301 -0.271,0.044 0,0"
                 inkscape:connector-curvature="0" />
            </g>
            <g
               transform="translate(24.6152,7.4863)"
               id="g128">
              <path
                 id="path130"
                 style="fill:#ffffff;fill-opacity:1;fill-rule:nonzero;stroke:none"
                 d="m 0,0 c 0,-0.318 0.258,-0.576 0.576,-0.576 0.319,0 0.576,0.258 0.576,0.576 0,0.319 -0.257,0.577 -0.576,0.577 C 0.258,0.577 0,0.319 0,0"
                 inkscape:connector-curvature="0" />
            </g>
          </g>
        </g>
      </g>
    </g>
    <g
       transform="matrix(-0.59363367,-0.37094348,0.37094348,-0.59363367,118.88304,62.308399)"
       id="g313">
      <g
         transform="matrix(1.25,0,0,-1.25,0,47.5)"
         id="g315">
        <g
           id="g317">
          <g
             clip-path="url(#clipPath16)"
             id="g319">
            <g
               transform="translate(33.5508,18.1484)"
               id="g321">
              <path
                 id="path323"
                 style="fill:#77b255;fill-opacity:1;fill-rule:nonzero;stroke:none"
                 d="M 0,0 C -2.093,1.848 -6.686,3.264 -10.178,3.84 -6.686,4.417 -2.093,5.833 0,7.68 c 2.014,1.776 2.963,2.947 2.141,4.721 -0.567,1.22 -2.855,1.334 -4.166,2.491 -1.312,1.158 -1.444,3.177 -2.827,3.675 -2.009,0.726 -3.336,-0.113 -5.346,-1.888 -2.094,-1.847 -3.698,-5.899 -4.353,-8.981 -0.653,3.082 -2.258,7.135 -4.351,8.981 -2.015,1.776 -3.341,2.614 -5.351,1.888 -1.383,-0.5 -1.512,-2.518 -2.823,-3.675 -1.312,-1.158 -3.603,-1.274 -4.167,-2.494 -0.823,-1.773 0.129,-2.943 2.14,-4.718 2.094,-1.847 6.688,-3.263 10.181,-3.84 -3.493,-0.576 -8.087,-1.993 -10.181,-3.84 -2.013,-1.775 -2.963,-2.945 -2.139,-4.721 0.566,-1.218 2.854,-1.334 4.166,-2.49 1.311,-1.158 1.444,-3.178 2.826,-3.676 2.01,-0.726 3.337,0.116 5.348,1.889 1.652,1.457 2.997,4.288 3.814,6.933 -0.262,-4.536 0.528,-10.591 3.853,-14.262 1.343,-1.484 2.407,-0.551 2.822,-0.187 0.416,0.366 1.604,1.414 0.185,2.823 -3.91,3.882 -5.265,7.917 -5.627,11.139 0.827,-2.498 2.106,-5.077 3.657,-6.446 2.011,-1.775 3.339,-2.615 5.35,-1.889 1.382,0.5 1.512,2.52 2.823,3.676 1.312,1.158 3.602,1.274 4.166,2.494 C 2.963,-2.943 2.012,-1.773 0,0"
                 inkscape:connector-curvature="0" />
            </g>
          </g>
        </g>
      </g>
    </g>
    <g
       transform="matrix(0.47798273,-0.41550405,0.41550405,0.47798273,121.10699,149.72395)"
       id="g325">
      <g
         transform="matrix(1.25,0,0,-1.25,0,45)"
         id="g327">
        <g
           id="g329">
          <g
             clip-path="url(#clipPath16)"
             id="g331">
            <g
               transform="translate(6.5,3)"
               id="g333">
              <path
                 id="path335"
                 style="fill:#99aab5;fill-opacity:1;fill-rule:nonzero;stroke:none"
                 d="M 0,0 C -1.933,0 -3.5,1.567 -3.5,3.5 -3.5,5.433 -1.933,7 0,7 1.933,7 3.5,5.433 3.5,3.5 3.5,1.567 1.933,0 0,0 M 0,9 C -3.038,9 -5.5,6.537 -5.5,3.5 -5.5,0.463 -3.038,-2 0,-2 3.038,-2 5.5,0.463 5.5,3.5 5.5,6.537 3.038,9 0,9"
                 inkscape:connector-curvature="0" />
            </g>
            <g
               transform="translate(29.5,3)"
               id="g337">
              <path
                 id="path339"
                 style="fill:#99aab5;fill-opacity:1;fill-rule:nonzero;stroke:none"
                 d="M 0,0 C -1.934,0 -3.5,1.567 -3.5,3.5 -3.5,5.433 -1.934,7 0,7 1.934,7 3.5,5.433 3.5,3.5 3.5,1.567 1.934,0 0,0 M 0,9 C -3.037,9 -5.5,6.537 -5.5,3.5 -5.5,0.463 -3.037,-2 0,-2 3.037,-2 5.5,0.463 5.5,3.5 5.5,6.537 3.037,9 0,9"
                 inkscape:connector-curvature="0" />
            </g>
            <g
               transform="translate(6.5,2.0859)"
               id="g341">
              <path
                 id="path343"
                 style="fill:#292f33;fill-opacity:1;fill-rule:nonzero;stroke:none"
                 d="M 0,0 C -2.485,0 -4.5,2.015 -4.5,4.5 -4.5,6.985 -2.485,9 0,9 2.485,9 4.5,6.985 4.5,4.5 4.5,2.015 2.485,0 0,0 M 0,11 C -3.59,11 -6.5,8.09 -6.5,4.5 -6.5,0.91 -3.59,-2 0,-2 3.59,-2 6.5,0.91 6.5,4.5 6.5,8.09 3.59,11 0,11"
                 inkscape:connector-curvature="0" />
            </g>
            <g
               transform="translate(29.5,2.0859)"
               id="g345">
              <path
                 id="path347"
                 style="fill:#292f33;fill-opacity:1;fill-rule:nonzero;stroke:none"
                 d="M 0,0 C -2.485,0 -4.5,2.015 -4.5,4.5 -4.5,6.985 -2.485,9 0,9 2.485,9 4.5,6.985 4.5,4.5 4.5,2.015 2.485,0 0,0 M 0,11 C -3.59,11 -6.5,8.09 -6.5,4.5 -6.5,0.91 -3.59,-2 0,-2 3.59,-2 6.5,0.91 6.5,4.5 6.5,8.09 3.59,11 0,11"
                 inkscape:connector-curvature="0" />
            </g>
            <g
               transform="translate(7.0015,8.9492)"
               id="g349">
              <path
                 id="path351"
                 style="fill:#77b255;fill-opacity:1;fill-rule:nonzero;stroke:none"
                 d="m 0,0 c -2,-4 0.999,-2.587 1.999,-0.587 0.905,1.811 3.444,2.429 4.66,0.375 -0.952,3.05 -3.798,5.263 -7.16,5.263 -1.374,0 -2.657,-0.375 -3.764,-1.02 C -1.433,3.865 1.1,2.2 0,0"
                 inkscape:connector-curvature="0" />
            </g>
            <g
               transform="translate(30,7)"
               id="g353">
              <path
                 id="path355"
                 style="fill:#99aab5;fill-opacity:1;fill-rule:nonzero;stroke:none"
                 d="m 0,0 c 0,-0.553 -0.447,-1 -1,-1 l -9,0 c -0.553,0 -1,0.447 -1,1 0,0.553 0.447,1 1,1 l 9,0 C -0.447,1 0,0.553 0,0"
                 inkscape:connector-curvature="0" />
            </g>
            <g
               transform="translate(29.9229,5.6943)"
               id="g357">
              <path
                 id="path359"
                 style="fill:#99aab5;fill-opacity:1;fill-rule:nonzero;stroke:none"
                 d="m 0,0 c -0.433,-0.344 -1.062,-0.272 -1.405,0.161 l -5.601,7.045 c -0.344,0.433 -0.271,1.062 0.16,1.405 0.433,0.344 1.062,0.273 1.406,-0.161 L 0.16,1.405 C 0.504,0.973 0.432,0.344 0,0"
                 inkscape:connector-curvature="0" />
            </g>
            <g
               transform="translate(12.4629,15.6328)"
               id="g361">
              <path
                 id="path363"
                 style="fill:#ccd6dd;fill-opacity:1;fill-rule:nonzero;stroke:none"
                 d="m 0,0 c 0.466,-0.297 0.602,-0.915 0.304,-1.381 l -4.849,-7.582 c -0.298,-0.465 -0.915,-0.601 -1.381,-0.303 -0.466,0.297 -0.602,0.915 -0.304,1.381 l 4.849,7.582 C -1.083,0.162 -0.465,0.299 0,0"
                 inkscape:connector-curvature="0" />
            </g>
            <g
               transform="translate(10.5293,18.6323)"
               id="g365">
              <path
                 id="path367"
                 style="fill:#77b255;fill-opacity:1;fill-rule:nonzero;stroke:none"
                 d="m 0,0 c -0.811,-0.585 -4.529,-1.632 -1.529,-3.632 3,-2 5.093,-4.125 5.093,-6 0,-2.665 -0.656,-4 0.907,-4 l 7,0 c 0,0 -1,4 2,7 3,3 5,2 8,3 1.897,0.633 4,2 4,3 0,1 0,2 -2,1 -2,-1 -1,-1.551 -3,-0.551 -2,1 -3.16,-0.449 -4.16,-0.449 -1,0 -7.615,-1.68 -8.62,0.049 C 7.138,0.368 5.905,1.368 4.087,1.368 2.769,1.368 0.971,0.7 0,0"
                 inkscape:connector-curvature="0" />
            </g>
            <g
               transform="translate(21,7)"
               id="g369">
              <path
                 id="path371"
                 style="fill:#66757f;fill-opacity:1;fill-rule:nonzero;stroke:none"
                 d="m 0,0 c 0,-1.104 -0.895,-2 -2,-2 -1.104,0 -1.999,0.896 -1.999,2 0,1.105 0.895,2 1.999,2 1.105,0 2,-0.895 2,-2"
                 inkscape:connector-curvature="0" />
            </g>
            <g
               transform="translate(36.1982,8.9746)"
               id="g373">
              <path
                 id="path375"
                 style="fill:#ccd6dd;fill-opacity:1;fill-rule:nonzero;stroke:none"
                 d="m 0,0 -9.277,-3.732 -1.119,2.783 9.277,3.732 L 0,0 Z"
                 inkscape:connector-curvature="0" />
            </g>
            <g
               transform="translate(35.8252,9.9023)"
               id="g377">
              <path
                 id="path379"
                 style="fill:#ffffff;fill-opacity:1;fill-rule:nonzero;stroke:none"
                 d="M 0,0 -9.277,-3.732 -9.65,-2.805 -0.373,0.928 0,0 Z"
                 inkscape:connector-curvature="0" />
            </g>
            <g
               transform="translate(36.1982,8.9746)"
               id="g381">
              <path
                 id="path383"
                 style="fill:#66757f;fill-opacity:1;fill-rule:nonzero;stroke:none"
                 d="M 0,0 -9.277,-3.732 -9.65,-2.805 -0.373,0.928 0,0 Z"
                 inkscape:connector-curvature="0" />
            </g>
            <g
               transform="translate(19,17.8628)"
               id="g385">
              <path
                 id="path387"
                 style="fill:#292f33;fill-opacity:1;fill-rule:nonzero;stroke:none"
                 d="m 0,0 c 1.366,-0.385 5.645,0.007 6.802,0.098 1.157,0.09 1.594,-0.452 0,-1.25 C 5,-2.053 1.187,-4.313 0,-4.777 -0.998,-5.168 -4.5,-3.566 -4.917,-3.081 -5.333,-2.595 -1.172,0.33 0,0"
                 inkscape:connector-curvature="0" />
            </g>
            <g
               transform="translate(34,19)"
               id="g389">
              <path
                 id="path391"
                 style="fill:#292f33;fill-opacity:1;fill-rule:nonzero;stroke:none"
                 d="M 0,0 C -1.549,-0.04 -3,0 -4,0 -5,0 -5.158,-1.102 -2.451,-1.102 0.256,-1.102 0,0 0,0"
                 inkscape:connector-curvature="0" />
            </g>
            <g
               transform="translate(3.7363,19.0425)"
               id="g393">
              <path
                 id="path395"
                 style="fill:#77b255;fill-opacity:1;fill-rule:nonzero;stroke:none"
                 d="M 0,0 C 0,1.465 4.456,5.134 3.975,4.476 2.825,2.903 3.485,1 5.462,1 7.438,1 8.17,-5.519 5.264,-4.042 2.357,-2.566 0,-0.719 0,0"
                 inkscape:connector-curvature="0" />
            </g>
            <g
               transform="translate(8.606,25.4307)"
               id="g397">
              <path
                 id="path399"
                 style="fill:#ccd6dd;fill-opacity:1;fill-rule:nonzero;stroke:none"
                 d="M 0,0 C 0.704,-0.61 0.345,-1.692 -1.045,-3.485 -2.436,-5.279 -4.627,-6.006 -3.404,-4.027 -2.181,-2.048 0,0 0,0"
                 inkscape:connector-curvature="0" />
            </g>
            <g
               transform="translate(10.5293,18.6323)"
               id="g401">
              <path
                 id="path403"
                 style="fill:#66757f;fill-opacity:1;fill-rule:nonzero;stroke:none"
                 d="m 0,0 c -0.19,-0.476 -0.73,-0.706 -1.206,-0.516 l -0.134,0.054 c -0.476,0.191 -0.707,0.73 -0.516,1.206 l 0.797,1.991 c 0.191,0.476 0.73,0.707 1.206,0.517 L 0.282,3.197 C 0.757,3.007 0.988,2.467 0.798,1.992 L 0,0 Z"
                 inkscape:connector-curvature="0" />
            </g>
            <g
               transform="translate(12.9106,22.0093)"
               id="g405">
              <path
                 id="path407"
                 style="fill:#292f33;fill-opacity:1;fill-rule:nonzero;stroke:none"
                 d="m 0,0 c 0.094,-0.26 -0.04,-0.546 -0.3,-0.64 l -1.882,-0.679 c -0.259,-0.094 -0.545,0.04 -0.639,0.3 -0.094,0.26 0.04,0.546 0.3,0.641 L -0.64,0.301 C -0.38,0.394 -0.094,0.26 0,0"
                 inkscape:connector-curvature="0" />
            </g>
          </g>
        </g>
      </g>
    </g>
    <g
       transform="matrix(0.41550405,0.47798273,-0.47798273,0.41550405,167.4705,64.134767)"
       id="g409">
      <g
         transform="matrix(1.25,0,0,-1.25,0,47.5)"
         id="g411">
        <g
           id="g413">
          <g
             clip-path="url(#clipPath16)"
             id="g415">
            <g
               transform="translate(20.3203,11.6416)"
               id="g417">
              <path
                 id="path419"
                 style="fill:#3e721d;fill-opacity:1;fill-rule:nonzero;stroke:none"
                 d="m 0,0 c -0.113,0 -0.217,-0.003 -0.32,-0.005 l 0,0.415 c 4.804,0.479 8.548,4.264 8.548,7.301 0,3.249 0,-1.47 -9.562,-1.47 -9.558,0 -9.558,4.719 -9.558,1.47 0,-3.043 3.757,-6.838 8.572,-7.305 l 0,-0.411 C -2.424,-0.003 -2.527,0 -2.641,0 c -2.553,0 -6.603,2.05 -6.603,1.32 0,-0.645 4.186,-4.016 6.924,-4.796 l 0,-6.166 c 0,-0.552 0.447,-1 1,-1 0.552,0 1,0.448 1,1 l 0,6.166 C 2.418,-2.696 6.604,0.675 6.604,1.32 6.604,2.05 2.554,0 0,0"
                 inkscape:connector-curvature="0" />
            </g>
            <g
               transform="translate(27.5273,29.647)"
               id="g421">
              <path
                 id="path423"
                 style="fill:#a0041e;fill-opacity:1;fill-rule:nonzero;stroke:none"
                 d="m 0,0 c -3.887,4.412 1.506,5.882 -2.592,5.882 -0.713,0 -1.921,-0.44 -3.29,-1.189 -0.694,1.572 -1.622,2.66 -2.645,2.66 -2.051,0 -3.726,-4.342 -3.873,-8.27 -1.109,-1.542 -1.855,-3.234 -1.855,-4.965 0,-6.092 2.59,-8.824 6.479,-8.824 C 0,-14.706 5.867,-6.658 0,0"
                 inkscape:connector-curvature="0" />
            </g>
            <g
               transform="translate(24.7275,23.7646)"
               id="g425">
              <path
                 id="path427"
                 style="fill:#be1931;fill-opacity:1;fill-rule:nonzero;stroke:none"
                 d="m 0,0 c 0,-6.092 -2.59,-8.823 -6.479,-8.823 -7.776,0 -13.644,8.048 -7.776,14.705 3.888,4.412 -1.506,5.883 2.592,5.883 C -9.071,11.765 0,6.091 0,0"
                 inkscape:connector-curvature="0" />
            </g>
          </g>
        </g>
      </g>
    </g>
    <g
       transform="matrix(0.07718392,0.62861256,-0.62861256,0.07718392,124.56015,116.23747)"
       id="g429">
      <g
         transform="matrix(1.25,0,0,-1.25,0,45)"
         id="g431">
        <g
           id="g433">
          <g
             clip-path="url(#clipPath16-carrot)"
             id="g435">
            <g
               transform="translate(31.0957,27.0674)"
               id="g437">
              <path
                 id="path439"
                 style="fill:#77b255;fill-opacity:1;fill-rule:nonzero;stroke:none"
                 d="m 0,0 c 3.535,2.122 4.408,8.32 3.701,7.613 0.707,0.707 -5.657,0 -7.778,-3.536 0,1.414 -1.414,7.071 -3.535,2.121 -2.122,-4.949 -1.415,-5.656 -1.415,-7.071 0,-1.414 2.829,-1.414 2.829,-1.414 0,0 -0.125,-2.704 1.29,-2.704 1.414,0 1.997,-0.583 6.946,1.538 C 6.988,-1.331 1.414,0 0,0"
                 inkscape:connector-curvature="0" />
            </g>
            <g
               transform="translate(22.4219,12.4062)"
               id="g441">
              <path
                 id="path443"
                 style="fill:#f4900c;fill-opacity:1;fill-rule:nonzero;stroke:none"
                 d="m 0,0 c -7.615,-7.615 -20.152,-13.081 -21.92,-11.313 -1.768,1.767 3.699,14.304 11.313,21.919 7.616,7.616 11.531,7.563 14.85,4.243 C 7.562,11.53 7.615,7.615 0,0"
                 inkscape:connector-curvature="0" />
            </g>
          </g>
        </g>
        <g
           id="g445">
          <g
             clip-path="url(#clipPath32-carrot)"
             id="g30">
            <g
               transform="translate(16.1465,29.46)"
               id="g448">
              <path
                 id="path450"
                 style="fill:#d67503;fill-opacity:1;fill-rule:nonzero;stroke:none"
                 d="M 0,0 C 2.292,-4.583 4.583,-6.875 5.729,-8.02 6.875,-9.166 0,-6.875 -2.291,-2.291 -4.583,2.292 0,0 0,0"
                 inkscape:connector-curvature="0" />
            </g>
            <g
               transform="translate(8.6611,21.3887)"
               id="g452">
              <path
                 id="path454"
                 style="fill:#d67503;fill-opacity:1;fill-rule:nonzero;stroke:none"
                 d="M 0,0 C 2.292,-4.584 4.583,-6.875 5.728,-8.021 6.874,-9.166 0,-6.875 -2.291,-2.291 -4.582,2.291 0,0 0,0"
                 inkscape:connector-curvature="0" />
            </g>
            <g
               transform="translate(25.209,12.9121)"
               id="g456">
              <path
                 id="path458"
                 style="fill:#d67503;fill-opacity:1;fill-rule:nonzero;stroke:none"
                 d="M 0,0 C -4.582,2.291 -6.874,4.582 -8.02,5.728 -9.165,6.875 -6.874,0 -2.291,-2.292 2.292,-4.583 0,0 0,0"
                 inkscape:connector-curvature="0" />
            </g>
            <g
               transform="translate(16.209,4.9121)"
               id="g460">
              <path
                 id="path462"
                 style="fill:#d67503;fill-opacity:1;fill-rule:nonzero;stroke:none"
                 d="M 0,0 C -4.582,2.291 -6.874,4.582 -8.02,5.728 -9.166,6.875 -6.874,0 -2.291,-2.292 2.292,-4.583 0,0 0,0"
                 inkscape:connector-curvature="0" />
            </g>
          </g>
        </g>
      </g>
    </g>
    <g
       transform="matrix(-0.18019013,-0.84772792,0.84772792,-0.18019013,43.974239,163.58719)"
       id="g464">
      <g
         transform="matrix(1.25,0,0,-1.25,0,45)"
         id="g466">
        <g
           id="g468">
          <g
             clip-path="url(#clipPath16)"
             id="g470">
            <g
               transform="translate(36,18)"
               id="g472">
              <path
                 id="path474"
                 style="fill:#ffcc4d;fill-opacity:1;fill-rule:nonzero;stroke:none"
                 d="m 0,0 c 0,-9.941 -8.059,-18 -18,-18 -9.94,0 -18,8.059 -18,18 0,9.94 8.06,18 18,18 C -8.059,18 0,9.94 0,0"
                 inkscape:connector-curvature="0" />
            </g>
            <g
               transform="translate(14,21.5)"
               id="g476">
              <path
                 id="path478"
                 style="fill:#664500;fill-opacity:1;fill-rule:nonzero;stroke:none"
                 d="M 0,0 C 0,-1.934 -1.119,-3.5 -2.5,-3.5 -3.881,-3.5 -5,-1.934 -5,0 -5,1.933 -3.881,3.5 -2.5,3.5 -1.119,3.5 0,1.933 0,0"
                 inkscape:connector-curvature="0" />
            </g>
            <g
               transform="translate(27,21.5)"
               id="g480">
              <path
                 id="path482"
                 style="fill:#664500;fill-opacity:1;fill-rule:nonzero;stroke:none"
                 d="M 0,0 C 0,-1.934 -1.119,-3.5 -2.5,-3.5 -3.881,-3.5 -5,-1.934 -5,0 -5,1.933 -3.881,3.5 -2.5,3.5 -1.119,3.5 0,1.933 0,0"
                 inkscape:connector-curvature="0" />
            </g>
            <g
               transform="translate(8.665,8.1286)"
               id="g484">
              <path
                 id="path486"
                 style="fill:#664500;fill-opacity:1;fill-rule:nonzero;stroke:none"
                 d="m 0,0 c 0.178,-0.161 0.444,-0.171 0.635,-0.029 0.039,0.029 3.922,2.9 8.7,2.9 4.766,0 8.662,-2.871 8.7,-2.9 0.191,-0.142 0.457,-0.13 0.635,0.029 0.177,0.16 0.217,0.424 0.094,0.628 C 18.635,0.843 15.547,5.871 9.335,5.871 3.123,5.871 0.034,0.843 -0.094,0.628 -0.217,0.423 -0.178,0.16 0,0"
                 inkscape:connector-curvature="0" />
            </g>
          </g>
        </g>
      </g>
    </g>
    <g
       transform="matrix(0.80002281,-0.4807022,0.4807022,0.80002281,30.083586,54.553246)"
       id="g488">
      <g
         transform="matrix(1.25,0,0,-1.25,0,47.5)"
         id="g490">
        <g
           id="g492">
          <g
             clip-path="url(#clipPath16)"
             id="g494">
            <g
               transform="translate(36,19)"
               id="g496">
              <path
                 id="path498"
                 style="fill:#ffcc4d;fill-opacity:1;fill-rule:nonzero;stroke:none"
                 d="m 0,0 c 0,-9.389 -7.611,-17 -17,-17 -9.388,0 -17,7.611 -17,17 0,9.388 7.612,17 17,17 C -7.611,17 0,9.388 0,0"
                 inkscape:connector-curvature="0" />
            </g>
            <g
               transform="translate(28.335,14.3711)"
               id="g500">
              <path
                 id="path502"
                 style="fill:#664500;fill-opacity:1;fill-rule:nonzero;stroke:none"
                 d="m 0,0 c -0.178,0.161 -0.444,0.171 -0.635,0.029 -0.039,-0.029 -3.922,-2.9 -8.7,-2.9 -4.766,0 -8.662,2.871 -8.7,2.9 -0.191,0.142 -0.457,0.13 -0.635,-0.029 -0.177,-0.16 -0.217,-0.424 -0.094,-0.628 0.129,-0.215 3.217,-5.243 9.429,-5.243 6.212,0 9.301,5.028 9.429,5.243 C 0.217,-0.423 0.178,-0.16 0,0"
                 inkscape:connector-curvature="0" />
            </g>
            <g
               transform="translate(19,30)"
               id="g504">
              <path
                 id="path506"
                 style="fill:#5dadec;fill-opacity:1;fill-rule:nonzero;stroke:none"
                 d="M 0,0 C -6.627,0 -12,0.567 -12,2.5 -12,4.433 -6.627,5 0,5 6.627,5 12,4.433 12,2.5 12,0.567 6.627,0 0,0 m 0,7 c -8.836,0 -16,-1.686 -16,-5 0,-3.313 7.164,-5 16,-5 8.836,0 16,1.687 16,5 0,3.314 -7.164,5 -16,5"
                 inkscape:connector-curvature="0" />
            </g>
            <g
               transform="translate(11.375,30.9375)"
               id="g508">
              <path
                 id="path510"
                 style="fill:#ffcc4d;fill-opacity:1;fill-rule:nonzero;stroke:none"
                 d="m 0,0 c -3.397,1.324 -2.5,1.991 -0.062,3.23 2.308,1.172 4.92,1.832 7.687,1.832 2.893,0 5.616,-0.722 8.001,-1.997 0.695,-0.372 1.432,-0.885 2.124,-1.346"
                 inkscape:connector-curvature="0" />
            </g>
            <g
               transform="translate(27,18)"
               id="g512">
              <path
                 id="path514"
                 style="fill:#664500;fill-opacity:1;fill-rule:nonzero;stroke:none"
                 d="M 0,0 C -0.419,0 -0.809,0.265 -0.948,0.684 -1.151,1.283 -1.967,3 -3,3 -4.062,3 -4.889,1.173 -5.052,0.684 -5.227,0.16 -5.788,-0.124 -6.316,0.052 -6.84,0.226 -7.123,0.792 -6.948,1.316 -6.823,1.693 -5.645,5 -3,5 -0.355,5 0.823,1.693 0.948,1.316 1.123,0.792 0.84,0.226 0.316,0.052 0.211,0.017 0.105,0 0,0"
                 inkscape:connector-curvature="0" />
            </g>
            <g
               transform="translate(17,18)"
               id="g516">
              <path
                 id="path518"
                 style="fill:#664500;fill-opacity:1;fill-rule:nonzero;stroke:none"
                 d="M 0,0 C -0.419,0 -0.809,0.265 -0.949,0.684 -1.152,1.283 -1.966,3 -3,3 -4.062,3 -4.888,1.173 -5.051,0.684 -5.226,0.16 -5.79,-0.124 -6.316,0.052 -6.84,0.226 -7.124,0.792 -6.949,1.316 -6.823,1.693 -5.645,5 -3,5 -0.355,5 0.823,1.693 0.949,1.316 1.124,0.792 0.84,0.226 0.316,0.052 0.211,0.017 0.105,0 0,0"
                 inkscape:connector-curvature="0" />
            </g>
          </g>
        </g>
      </g>
    </g>
  </g>
</svg>
