<?xml version="1.0" encoding="UTF-8" standalone="no"?>
<svg
   xmlns:dc="http://purl.org/dc/elements/1.1/"
   xmlns:cc="http://creativecommons.org/ns#"
   xmlns:rdf="http://www.w3.org/1999/02/22-rdf-syntax-ns#"
   xmlns:svg="http://www.w3.org/2000/svg"
   xmlns="http://www.w3.org/2000/svg"
   xmlns:sodipodi="http://sodipodi.sourceforge.net/DTD/sodipodi-0.dtd"
   xmlns:inkscape="http://www.inkscape.org/namespaces/inkscape"
   version="1.1"
   id="svg2"
   viewBox="0 0 200 200"
   height="200px"
   width="200px"
   inkscape:version="0.91 r13725"
   sodipodi:docname="63.svg">
  <metadata
     id="metadata501">
    <rdf:RDF>
      <cc:Work
         rdf:about="">
        <dc:format>image/svg+xml</dc:format>
        <dc:type
           rdf:resource="http://purl.org/dc/dcmitype/StillImage" />
      </cc:Work>
    </rdf:RDF>
  </metadata>
  <sodipodi:namedview
     pagecolor="#ffffff"
     bordercolor="#666666"
     borderopacity="1"
     objecttolerance="10"
     gridtolerance="10"
     guidetolerance="10"
     inkscape:pageopacity="0"
     inkscape:pageshadow="2"
     inkscape:window-width="1920"
     inkscape:window-height="1060"
     id="namedview499"
     showgrid="false"
     inkscape:zoom="4.32"
     inkscape:cx="100"
     inkscape:cy="100"
     inkscape:window-x="0"
     inkscape:window-y="0"
     inkscape:window-maximized="1"
     inkscape:current-layer="layer1" />
  
    
    
    <defs id="defs6">

        <clipPath
           id="clipPath28"
           clipPathUnits="userSpaceOnUse">
          <path
             id="path30"
             d="M 4,36 C 0,36 0,32 0,32 L 0,32 0,4 C 0,0 4,0 4,0 l 0,0 28,0 c 4,0 4,4 4,4 l 0,0 0,28 c 0,4 -4,4 -4,4 l 0,0 -28,0 z" />
        </clipPath>


        <clipPath clipPathUnits="userSpaceOnUse" id="clipPath16-rugby">
            <path d="M 0,38 38,38 38,0 0,0 0,38 Z" id="path18"/>
        </clipPath>
        <clipPath clipPathUnits="userSpaceOnUse" id="clipPath28-rugby">
            <path d="M 9.254,28.746 C 2.09,21.582 -0.927,9.561 3.929,3.929 l 0,0 C 9.561,-0.927 21.582,2.09 28.746,9.254 l 0,0 c 7.164,7.164 11.229,17.088 5.324,24.816 l 0,0 c -1.886,1.627 -4.489,2.371 -7.387,2.37 l 0,0 c -5.752,0 -12.665,-2.93 -17.429,-7.694" id="path30"/>
        </clipPath>

        <clipPath clipPathUnits="userSpaceOnUse" id="clipPath16-carrot">
            <path d="M 0,36 36,36 36,0 0,0 0,36 Z" id="path18"/>
        </clipPath>
        <clipPath clipPathUnits="userSpaceOnUse" id="clipPath32-carrot">
            <path d="M 11.815,23.013 C 4.2,15.397 -1.265,2.86 0.502,1.093 l 0,0 c 1.768,-1.768 14.305,3.698 21.92,11.313 l 0,0 c 7.616,7.615 7.562,11.53 4.243,14.85 l 0,0 c -1.328,1.328 -2.752,2.133 -4.47,2.133 l 0,0 c -2.575,0 -5.812,-1.809 -10.38,-6.376" id="path34"/>
        </clipPath>

        <clipPath clipPathUnits="userSpaceOnUse" id="clipPath32-hat">
            <path d="m 5,33.666 c 0,-0.034 0.018,-0.067 0.022,-0.101 l 0,0 C 5.008,33.455 5,33.335 5,33.2 l 0,0 L 6.802,9.616 C 3.299,8.705 1,7.424 1,6 L 1,6 C 1,3.238 9.611,1 19,1 l 0,0 c 9.389,0 18,2.238 18,5 l 0,0 c 0,1.424 -2.298,2.705 -5.801,3.616 l 0,0 L 33,33.184 c 0,0.135 -0.008,0.263 -0.021,0.373 l 0,0 C 32.982,33.591 33,33.632 33,33.666 l 0,0 c 0,1.805 -6.268,3.267 -14,3.267 l 0,0 c -7.732,0 -14,-1.462 -14,-3.267" id="path34"/>
        </clipPath>


        <clipPath clipPathUnits="userSpaceOnUse" id="clipPath48-soccer">
            <path d="M 1,19 C 1,9.059 9.059,1 19,1 l 0,0 c 9.941,0 18,8.059 18,18 l 0,0 c 0,9.941 -8.059,18 -18,18 l 0,0 C 9.059,37 1,28.941 1,19" id="path50"/>
        </clipPath>

        <clipPath clipPathUnits="userSpaceOnUse" id="clipPath28-baguette">
            <path d="M 24.052,31.33 5.126,12.406 C 1.342,8.62 1.288,4.133 2.856,2.564 l 0,0 C 4.424,0.997 8.912,1.049 12.697,4.835 l 0,0 18.925,18.924 c 3.784,3.785 3.837,8.273 2.269,9.841 l 0,0 c -0.605,0.606 -1.647,0.969 -2.915,0.969 l 0,0 c -2.014,0 -4.602,-0.917 -6.924,-3.239" id="path30"/>
        </clipPath>
    </defs>



  <g
     id="layer1">
    <circle
       style="opacity:1;fill:white;stroke:black;stroke-width:1;stroke-miterlimit:4;stroke-dasharray:none;stroke-opacity:0.1"
       id="path4039-0-9"
       cx="100px"
       cy="100px"
       r="90px" />
    <g
       transform="matrix(-0.77220565,-0.39345843,0.39345843,-0.77220565,156.68487,90.573104)"
       id="g8">
      <g
         transform="matrix(1.25,0,0,-1.25,0,47.5)"
         id="g10">
        <g
           transform="translate(7,14)"
           id="g12">
          <path
             id="path14"
             style="fill:#ccd6dd;fill-opacity:1;fill-rule:nonzero;stroke:none"
             d="m 0,0 -5,3 2,-6 -1,-2 6,-5 7,-2 3,11 -12,1 z"
             inkscape:connector-curvature="0" />
        </g>
        <g
           transform="translate(32,14)"
           id="g16">
          <path
             id="path18"
             style="fill:#ccd6dd;fill-opacity:1;fill-rule:nonzero;stroke:none"
             d="m 0,0 5,3 -2,-6 1,-2 -6,-5 -7,-2 -3,11 12,1 z"
             inkscape:connector-curvature="0" />
        </g>
        <g
           id="g20">
          <g
             clip-path="url(#clipPath24)"
             id="g22">
            <g
               transform="translate(12,30)"
               id="g28">
              <path
                 id="path19"
                 style="fill:#66757f;fill-opacity:1;fill-rule:nonzero;stroke:none"
                 d="M 0,0 C 0,-3.866 -3.032,-7 -6.771,-7 -10.51,-7 -7.899,7 -7.899,7 -7.899,7 0,3.866 0,0"
                 inkscape:connector-curvature="0" />
            </g>
            <g
               transform="translate(25,7)"
               id="g32">
              <path
                 id="path34"
                 style="fill:#66757f;fill-opacity:1;fill-rule:nonzero;stroke:none"
                 d="m 0,0 c 0,-3.313 -2.687,-6 -6,-6 -3.313,0 -6,2.687 -6,6 0,3.313 2.687,6 6,6 3.313,0 6,-2.687 6,-6"
                 inkscape:connector-curvature="0" />
            </g>
            <g
               transform="translate(23,7)"
               id="g36">
              <path
                 id="path38"
                 style="fill:#dd2e44;fill-opacity:1;fill-rule:nonzero;stroke:none"
                 d="m 0,0 c 0,-2.209 -1.791,-4 -4,-4 -2.209,0 -4,1.791 -4,4 0,2.209 1.791,4 4,4 2.209,0 4,-1.791 4,-4"
                 inkscape:connector-curvature="0" />
            </g>
            <g
               transform="translate(32.7705,23)"
               id="g40">
              <path
                 id="path42"
                 style="fill:#66757f;fill-opacity:1;fill-rule:nonzero;stroke:none"
                 d="m 0,0 c -3.739,0 -6.771,3.134 -6.771,7 0,3.866 7.9,7 7.9,7 C 1.129,14 3.739,0 0,0"
                 inkscape:connector-curvature="0" />
            </g>
            <g
               transform="translate(10,29)"
               id="g44">
              <path
                 id="path46"
                 style="fill:#e6aaaa;fill-opacity:1;fill-rule:nonzero;stroke:none"
                 d="m 0,0 c 0,-2.209 -1.791,-4 -4,-4 -2.209,0 0,8 0,8 0,0 4,-1.791 4,-4"
                 inkscape:connector-curvature="0" />
            </g>
            <g
               transform="translate(32,25)"
               id="g48">
              <path
                 id="path50"
                 style="fill:#e6aaaa;fill-opacity:1;fill-rule:nonzero;stroke:none"
                 d="M 0,0 C -2.209,0 -4,1.791 -4,4 -4,6.209 0,8 0,8 0,8 2.209,0 0,0"
                 inkscape:connector-curvature="0" />
            </g>
            <g
               transform="translate(35,15)"
               id="g52">
              <path
                 id="path54"
                 style="fill:#66757f;fill-opacity:1;fill-rule:nonzero;stroke:none"
                 d="m 0,0 c 0,-7 -6.923,-7 -6.923,-7 l -18.154,0 c 0,0 -6.923,0 -6.923,7 0,0 1.231,19 16,19 C -1.23,19 0,0 0,0"
                 inkscape:connector-curvature="0" />
            </g>
            <g
               transform="translate(12,20)"
               id="g56">
              <path
                 id="path58"
                 style="fill:#272b2b;fill-opacity:1;fill-rule:nonzero;stroke:none"
                 d="M 0,0 C 0,0 0,2 2,2 4,2 4,0 4,0 l 0,-2 c 0,0 0,-2 -2,-2 -2,0 -2,2 -2,2 l 0,2 z"
                 inkscape:connector-curvature="0" />
            </g>
            <g
               transform="translate(22,20)"
               id="g60">
              <path
                 id="path62"
                 style="fill:#272b2b;fill-opacity:1;fill-rule:nonzero;stroke:none"
                 d="M 0,0 C 0,0 0,2 2,2 4,2 4,0 4,0 l 0,-2 c 0,0 0,-2 -2,-2 -2,0 -2,2 -2,2 l 0,2 z"
                 inkscape:connector-curvature="0" />
            </g>
            <g
               transform="translate(33.7148,12.8379)"
               id="g64">
              <path
                 id="path66"
                 style="fill:#ccd6dd;fill-opacity:1;fill-rule:nonzero;stroke:none"
                 d="M 0,0 1.229,3.162 -1.399,0.496 c -0.388,0.1 -0.823,0.191 -1.316,0.27 l 0,4.396 -2.518,-4.121 c -1.101,0.076 -2.351,0.121 -3.804,0.121 -3.483,0 -1.003,-4.451 -5.762,-4.949 -4.759,0.498 -2.28,4.949 -5.762,4.949 -1.38,0 -2.582,-0.04 -3.643,-0.108 l -2.511,4.108 0,-4.366 c -0.509,-0.077 -0.947,-0.169 -1.348,-0.267 l -2.596,2.633 1.203,-3.093 c -1.689,-0.778 -1.502,-1.864 -0.427,-2.907 5.999,-5.818 9,-6 9.322,-6 2.46,0 4.603,0.998 5.762,2.481 1.159,-1.483 3.303,-2.481 5.762,-2.481 0.322,0 3.323,0.182 9.322,6 C 1.329,-1.825 1.532,-0.772 0,0"
                 inkscape:connector-curvature="0" />
            </g>
            <g
               transform="translate(16,12)"
               id="g68">
              <path
                 id="path70"
                 style="fill:#272b2b;fill-opacity:1;fill-rule:nonzero;stroke:none"
                 d="M 0,0 C -1,-1 0,-4 3,-4 6,-4 7,-1 6,0 5,1 1,1 0,0"
                 inkscape:connector-curvature="0" />
            </g>
          </g>
        </g>
      </g>
    </g>
    <g
       transform="matrix(0.54735797,-0.14666413,0.14666413,0.54735797,19.360308,97.365621)"
       id="g41">
      <g
         transform="matrix(1.25,0,0,-1.25,0,47.5)"
         id="g43">
        <g
           id="g45">
          <g
             id="g14">
            <g
               transform="translate(36,19)"
               id="g49">
              <path
                 id="path22"
                 style="fill:#ffcc4d;fill-opacity:1;fill-rule:nonzero;stroke:none"
                 d="m 0,0 c 0,-9.389 -7.611,-17 -17,-17 -9.389,0 -17,7.611 -17,17 0,9.389 7.611,17 17,17 C -7.611,17 0,9.389 0,0"
                 inkscape:connector-curvature="0" />
            </g>
            <g
               transform="translate(19,15.1514)"
               id="g24">
              <path
                 id="path26"
                 style="fill:#664500;fill-opacity:1;fill-rule:nonzero;stroke:none"
                 d="m 0,0 c -2.966,0 -4.935,0.346 -7.369,0.819 -0.557,0.107 -1.638,0 -1.638,-1.637 0,-3.276 3.763,-7.37 9.007,-7.37 5.244,0 9.007,4.094 9.007,7.37 0,1.637 -1.082,1.745 -1.638,1.637 C 4.936,0.346 2.967,0 0,0"
                 inkscape:connector-curvature="0" />
            </g>
            <g
               transform="translate(17.6499,33.7192)"
               id="g54">
              <path
                 id="path56"
                 style="fill:#e75a70;fill-opacity:1;fill-rule:nonzero;stroke:none"
                 d="m 0,0 c -0.859,2.431 -3.524,3.707 -5.956,2.85 -1.476,-0.521 -2.521,-1.711 -2.928,-3.105 -1.191,0.83 -2.751,1.1 -4.224,0.581 -2.431,-0.858 -3.708,-3.525 -2.85,-5.956 0.122,-0.345 0.284,-0.663 0.472,-0.958 1.951,-3.582 7.588,-6.1 11.002,-6.131 2.636,2.167 5.446,7.664 4.717,11.677 C 0.195,-0.694 0.12,-0.344 0,0"
                 inkscape:connector-curvature="0" />
            </g>
            <g
               transform="translate(20.3496,33.7192)"
               id="g58">
              <path
                 id="path60"
                 style="fill:#e75a70;fill-opacity:1;fill-rule:nonzero;stroke:none"
                 d="m 0,0 c 0.859,2.431 3.525,3.707 5.956,2.85 1.477,-0.521 2.521,-1.711 2.929,-3.105 1.191,0.83 2.751,1.1 4.224,0.581 2.43,-0.858 3.707,-3.525 2.85,-5.956 -0.123,-0.345 -0.284,-0.663 -0.473,-0.958 -1.951,-3.582 -7.588,-6.1 -11.002,-6.131 -2.636,2.167 -5.445,7.664 -4.716,11.677 C -0.194,-0.694 -0.119,-0.344 0,0"
                 inkscape:connector-curvature="0" />
            </g>
          </g>
        </g>
      </g>
    </g>
    <g
       transform="matrix(-0.21918557,-0.44939702,0.44939702,-0.21918557,42.04736,89.242663)"
       id="g62">
      <g
         transform="matrix(1.25,0,0,-1.25,0,45)"
         id="g65">
        <g
           id="g67">
          <g
             clip-path="url(#clipPath16)"
             id="g69">
            <g
               transform="translate(33.5355,33.5355)"
               id="g71">
              <path
                 id="path73"
                 style="fill:#ccd6dd;fill-opacity:1;fill-rule:nonzero;stroke:none"
                 d="m 0,0 c -1.953,1.953 -5.118,1.953 -7.071,0 l -1.197,-1.199 2.842,-2.842 c 0.39,-0.391 0.39,-1.024 0,-1.414 -0.195,-0.196 -0.451,-0.293 -0.707,-0.293 -0.256,0 -0.512,0.097 -0.707,0.293 l -2.841,2.841 -2.109,-2.111 2.84,-2.84 c 0.391,-0.39 0.391,-1.023 0,-1.414 -0.195,-0.195 -0.451,-0.293 -0.707,-0.293 -0.255,0 -0.511,0.098 -0.707,0.293 l -2.839,2.839 -2.12,-2.123 2.837,-2.837 c 0.391,-0.391 0.391,-1.024 0,-1.415 -0.195,-0.195 -0.451,-0.292 -0.707,-0.292 -0.256,0 -0.511,0.097 -0.707,0.292 l -2.836,2.837 -2.121,-2.122 2.836,-2.836 c 0.391,-0.391 0.391,-1.024 0,-1.414 -0.195,-0.195 -0.451,-0.293 -0.707,-0.293 -0.256,0 -0.512,0.098 -0.707,0.293 l -2.835,2.835 -2.12,-2.123 2.833,-2.833 c 0.391,-0.391 0.391,-1.024 0,-1.414 -0.195,-0.196 -0.451,-0.293 -0.707,-0.293 -0.255,0 -0.511,0.097 -0.707,0.293 l -2.832,2.832 -1.783,-1.785 c -3.842,-0.027 -6.95,-3.148 -6.95,-6.998 0,-3.865 3.135,-7 7,-7 3.833,0 6.942,3.081 6.995,6.901 L 0,-7.071 C 1.953,-5.118 1.953,-1.953 0,0"
                 inkscape:connector-curvature="0" />
            </g>
            <g
               transform="translate(30.938,30.9086)"
               id="g75">
              <path
                 id="path77"
                 style="fill:#dd2e44;fill-opacity:1;fill-rule:nonzero;stroke:none"
                 d="m 0,0 c -0.781,0.781 -2.047,0.781 -2.828,0 l -19.065,-19.065 c -1.338,0.362 -2.823,0.035 -3.873,-1.015 -1.563,-1.562 -1.563,-4.095 0,-5.657 1.562,-1.562 4.094,-1.562 5.656,0 1.039,1.038 1.371,2.502 1.029,3.828 L 0,-2.828 C 0.781,-2.047 0.781,-0.781 0,0"
                 inkscape:connector-curvature="0" />
            </g>
            <g
               transform="translate(13.272,13.6572)"
               id="g79">
              <path
                 id="path81"
                 style="fill:#292f33;fill-opacity:1;fill-rule:nonzero;stroke:none"
                 d="m 0,0 c 0.256,0 0.512,0.098 0.707,0.293 0.391,0.391 0.391,1.023 0,1.414 L -2.126,4.54 -3.54,3.125 -0.707,0.293 C -0.512,0.098 -0.256,0 0,0"
                 inkscape:connector-curvature="0" />
            </g>
            <g
               transform="translate(16.8076,17.1924)"
               id="g83">
              <path
                 id="path85"
                 style="fill:#292f33;fill-opacity:1;fill-rule:nonzero;stroke:none"
                 d="m 0,0 c 0.256,0 0.512,0.098 0.707,0.293 0.391,0.391 0.391,1.023 0,1.414 L -2.129,4.543 -3.542,3.128 -0.707,0.293 C -0.512,0.098 -0.256,0 0,0"
                 inkscape:connector-curvature="0" />
            </g>
            <g
               transform="translate(20.3428,20.728)"
               id="g87">
              <path
                 id="path89"
                 style="fill:#292f33;fill-opacity:1;fill-rule:nonzero;stroke:none"
                 d="m 0,0 c 0.256,0 0.512,0.098 0.707,0.293 0.391,0.39 0.391,1.023 0,1.414 L -2.13,4.545 -3.544,3.13 -0.707,0.293 C -0.512,0.098 -0.256,0 0,0"
                 inkscape:connector-curvature="0" />
            </g>
            <g
               transform="translate(23.8789,24.2637)"
               id="g91">
              <path
                 id="path93"
                 style="fill:#292f33;fill-opacity:1;fill-rule:nonzero;stroke:none"
                 d="m 0,0 c 0.256,0 0.512,0.098 0.707,0.293 0.391,0.391 0.391,1.024 0,1.414 l -2.841,2.84 -1.413,-1.415 2.84,-2.839 C -0.512,0.098 -0.256,0 0,0"
                 inkscape:connector-curvature="0" />
            </g>
            <g
               transform="translate(27.4023,27.7871)"
               id="g95">
              <path
                 id="path97"
                 style="fill:#292f33;fill-opacity:1;fill-rule:nonzero;stroke:none"
                 d="m 0,0 c 0.256,0 0.512,0.098 0.707,0.293 0.391,0.39 0.391,1.023 0,1.414 L -2.135,4.55 -3.548,3.135 -0.707,0.293 C -0.512,0.098 -0.256,0 0,0"
                 inkscape:connector-curvature="0" />
            </g>
          </g>
        </g>
      </g>
    </g>
    <g
       transform="matrix(0.91935463,-0.29871643,0.29871643,0.91935463,46.608157,37.193481)"
       id="g99">
      <g
         transform="matrix(1.25,0,0,-1.25,0,47.5)"
         id="g101">
        <g
           id="g103">
          <g
             clip-path="url(#clipPath16)"
             id="g105">
            <g
               transform="translate(33.5508,18.1484)"
               id="g107">
              <path
                 id="path109"
                 style="fill:#77b255;fill-opacity:1;fill-rule:nonzero;stroke:none"
                 d="M 0,0 C -2.093,1.848 -6.686,3.264 -10.178,3.84 -6.686,4.417 -2.093,5.833 0,7.68 c 2.014,1.776 2.963,2.947 2.141,4.721 -0.567,1.22 -2.855,1.334 -4.166,2.491 -1.312,1.158 -1.444,3.177 -2.827,3.675 -2.009,0.726 -3.336,-0.113 -5.346,-1.888 -2.094,-1.847 -3.698,-5.899 -4.353,-8.981 -0.653,3.082 -2.258,7.135 -4.351,8.981 -2.015,1.776 -3.341,2.614 -5.351,1.888 -1.383,-0.5 -1.512,-2.518 -2.823,-3.675 -1.312,-1.158 -3.603,-1.274 -4.167,-2.494 -0.823,-1.773 0.129,-2.943 2.14,-4.718 2.094,-1.847 6.688,-3.263 10.181,-3.84 -3.493,-0.576 -8.087,-1.993 -10.181,-3.84 -2.013,-1.775 -2.963,-2.945 -2.139,-4.721 0.566,-1.218 2.854,-1.334 4.166,-2.49 1.311,-1.158 1.444,-3.178 2.826,-3.676 2.01,-0.726 3.337,0.116 5.348,1.889 1.652,1.457 2.997,4.288 3.814,6.933 -0.262,-4.536 0.528,-10.591 3.853,-14.262 1.343,-1.484 2.407,-0.551 2.822,-0.187 0.416,0.366 1.604,1.414 0.185,2.823 -3.91,3.882 -5.265,7.917 -5.627,11.139 0.827,-2.498 2.106,-5.077 3.657,-6.446 2.011,-1.775 3.339,-2.615 5.35,-1.889 1.382,0.5 1.512,2.52 2.823,3.676 1.312,1.158 3.602,1.274 4.166,2.494 C 2.963,-2.943 2.012,-1.773 0,0"
                 inkscape:connector-curvature="0" />
            </g>
          </g>
        </g>
      </g>
    </g>
    <g
       transform="matrix(-0.72786718,0.08937085,-0.08937085,-0.72786718,156.43846,157.412)"
       id="g111">
      <g
         transform="matrix(1.25,0,0,-1.25,0,45)"
         id="g113">
        <g
           transform="translate(10.6362,14.0498)"
           id="g115">
          <path
             id="path117"
             style="fill:#99aab5;fill-opacity:1;fill-rule:nonzero;stroke:none"
             d="M 0,0 -2.122,2.122 8.485,12.729 10.606,10.607 0,0 Z"
             inkscape:connector-curvature="0" />
        </g>
        <g
           id="g119">
          <g
             clip-path="url(#clipPath20)"
             id="g18">
            <g
               transform="translate(8.5146,6.2725)"
               id="g122">
              <path
                 id="path124"
                 style="fill:#55acee;fill-opacity:1;fill-rule:nonzero;stroke:none"
                 d="m 0,0 c -0.781,-0.781 -2.047,-0.781 -2.828,0 l -4.95,4.949 c -0.781,0.781 -0.781,2.048 0,2.828 l 4.95,4.95 c 0.781,0.781 2.047,0.781 2.828,0 L 4.95,7.777 C 5.731,6.997 5.731,5.73 4.95,4.949 L 0,0 Z"
                 inkscape:connector-curvature="0" />
            </g>
            <g
               transform="translate(24.7773,22.5352)"
               id="g126">
              <path
                 id="path128"
                 style="fill:#55acee;fill-opacity:1;fill-rule:nonzero;stroke:none"
                 d="m 0,0 c -0.78,-0.781 -2.047,-0.781 -2.827,0 l -4.95,4.95 c -0.781,0.781 -0.782,2.047 -10e-4,2.828 l 4.951,4.95 c 0.781,0.782 2.047,0.781 2.828,0 L 4.95,7.778 C 5.732,6.998 5.732,5.731 4.951,4.951 L 0,0 Z"
                 inkscape:connector-curvature="0" />
            </g>
            <g
               transform="translate(12.4038,25.7173)"
               id="g130">
              <path
                 id="path132"
                 style="fill:#99aab5;fill-opacity:1;fill-rule:nonzero;stroke:none"
                 d="M 0,0 C 0,0 -0.707,2.122 -1.414,4.243 -1.862,5.584 -2.829,5.657 -3.536,4.95 -4.243,4.243 -5.657,2.829 -6.364,2.122 -7.071,1.415 -6.999,0.447 -5.657,0 c 2.121,-0.707 4.243,-1.414 4.243,-1.414 L 0,0 Z"
                 inkscape:connector-curvature="0" />
            </g>
            <g
               transform="translate(17.708,14.0508)"
               id="g134">
              <path
                 id="path136"
                 style="fill:#ccd6dd;fill-opacity:1;fill-rule:nonzero;stroke:none"
                 d="M 0,0 C -0.782,-0.781 -2.048,-0.781 -2.829,-0.001 L -9.9,7.07 c -0.781,0.782 -0.781,2.048 0,2.829 l 4.242,4.242 c 0.781,0.781 2.048,0.781 2.829,10e-4 L 4.242,7.07 C 5.022,6.29 5.022,5.023 4.241,4.241 L 0,0 Z"
                 inkscape:connector-curvature="0" />
            </g>
            <g
               transform="translate(21.0156,14.9453)"
               id="g138">
              <path
                 id="path140"
                 style="fill:#ccd6dd;fill-opacity:1;fill-rule:nonzero;stroke:none"
                 d="m 0,0 c -1.952,-1.953 -4.802,-2.27 -6.364,-0.708 -1.562,1.563 0.876,2.29 2.829,4.243 1.953,1.953 2.681,4.39 4.243,2.829 C 2.27,4.802 1.953,1.953 0,0"
                 inkscape:connector-curvature="0" />
            </g>
            <g
               transform="translate(27.96,15.8184)"
               id="g142">
              <path
                 id="path144"
                 style="fill:#99aab5;fill-opacity:1;fill-rule:nonzero;stroke:none"
                 d="m 0,0 c -2.12,2.122 -5.118,1.951 -7.071,0 -1.952,-1.954 -2.121,-4.95 0,-7.071 L 0,0 Z"
                 inkscape:connector-curvature="0" />
            </g>
            <g
               transform="translate(25.1318,12.9893)"
               id="g146">
              <path
                 id="path148"
                 style="fill:#99aab5;fill-opacity:1;fill-rule:nonzero;stroke:none"
                 d="M 0,0 2.121,-3.535 -1.414,-1.414 0,0 Z"
                 inkscape:connector-curvature="0" />
            </g>
            <g
               transform="translate(27.8135,8.8936)"
               id="g150">
              <path
                 id="path152"
                 style="fill:#99aab5;fill-opacity:1;fill-rule:nonzero;stroke:none"
                 d="m 0,0 c -0.391,-0.391 -1.023,-0.391 -1.414,0 -0.391,0.391 -0.391,1.023 0,1.414 0.391,0.391 1.023,0.391 1.414,0 C 0.391,1.023 0.391,0.391 0,0"
                 inkscape:connector-curvature="0" />
            </g>
            <g
               transform="translate(4.272,17.5854)"
               id="g154">
              <path
                 id="path156"
                 style="fill:#88c9f9;fill-opacity:1;fill-rule:nonzero;stroke:none"
                 d="M 0,0 1.414,1.415 9.192,-6.364 7.778,-7.778 0,0 Z"
                 inkscape:connector-curvature="0" />
            </g>
            <g
               transform="translate(26.1924,23.9497)"
               id="g158">
              <path
                 id="path160"
                 style="fill:#88c9f9;fill-opacity:1;fill-rule:nonzero;stroke:none"
                 d="M 0,0 -1.414,-1.414 -9.192,6.364 -7.778,7.778 0,0 Z"
                 inkscape:connector-curvature="0" />
            </g>
            <g
               transform="translate(0.7368,14.0498)"
               id="g162">
              <path
                 id="path164"
                 style="fill:#88c9f9;fill-opacity:1;fill-rule:nonzero;stroke:none"
                 d="M 0,0 1.414,1.415 9.192,-6.363 7.777,-7.777 0,0 Z"
                 inkscape:connector-curvature="0" />
            </g>
            <g
               transform="translate(29.7275,27.4858)"
               id="g166">
              <path
                 id="path168"
                 style="fill:#88c9f9;fill-opacity:1;fill-rule:nonzero;stroke:none"
                 d="M 0,0 -1.414,-1.415 -9.192,6.363 -7.777,7.777 0,0 Z"
                 inkscape:connector-curvature="0" />
            </g>
            <g
               transform="translate(8.3066,28.3989)"
               id="g72">
              <path
                 id="path74"
                 style="fill:#99aab5;fill-opacity:1;fill-rule:nonzero;stroke:none"
                 d="m 0,0 c -0.39,-0.39 -1.023,-0.39 -1.414,0 -0.391,0.391 -0.39,1.024 0,1.415 0.391,0.39 1.024,0.39 1.414,0 C 0.391,1.024 0.391,0.391 0,0"
                 inkscape:connector-curvature="0" />
            </g>
            <g
               transform="translate(23.6816,5.5693)"
               id="g76">
              <path
                 id="path78"
                 style="fill:#ffac33;fill-opacity:1;fill-rule:nonzero;stroke:none"
                 d="M 0,0 C 0,0.017 0.001,0.034 0.002,0.051 0.029,0.603 0.499,1.027 1.051,1 1.066,0.999 3.207,0.937 4.851,2.58 6.487,4.218 6.429,6.353 6.431,6.381 6.398,6.931 6.828,7.401 7.379,7.43 7.931,7.457 8.4,7.032 8.428,6.48 8.44,6.358 8.551,3.452 6.265,1.166 3.977,-1.121 1.073,-1.004 0.951,-0.998 0.416,-0.971 0,-0.529 0,0"
                 inkscape:connector-curvature="0" />
            </g>
            <g
               transform="translate(24.2383,2.0107)"
               id="g80">
              <path
                 id="path82"
                 style="fill:#ffac33;fill-opacity:1;fill-rule:nonzero;stroke:none"
                 d="M 0,0 C 0,0.109 0.018,0.221 0.057,0.33 0.238,0.852 0.809,1.126 1.33,0.943 1.437,0.909 4.207,0.051 7.294,3.139 c 3.127,3.126 2.414,6.126 2.382,6.252 -0.137,0.529 0.184,1.077 0.716,1.216 0.53,0.139 1.073,-0.172 1.216,-0.702 C 11.654,9.735 12.686,5.7 8.708,1.725 4.694,-2.291 0.832,-1.001 0.67,-0.943 0.258,-0.8 0,-0.413 0,0"
                 inkscape:connector-curvature="0" />
            </g>
          </g>
        </g>
      </g>
    </g>
    <g
       transform="matrix(0.5264844,-0.81071488,0.81071488,0.5264844,64.713319,166.94751)"
       id="g176">
      <g
         transform="matrix(1.25,0,0,-1.25,0,45)"
         id="g178">
        <g
           id="g180">
          <g
             clip-path="url(#clipPath16)"
             id="g182">
            <g
               transform="translate(27,7.5)"
               id="g184">
              <path
                 id="path186"
                 style="fill:#66757f;fill-opacity:1;fill-rule:nonzero;stroke:none"
                 d="M 0,0 C 0,0.828 -0.672,1.5 -1.5,1.5 -2.328,1.5 -3,0.828 -3,0 l 0,-0.5 c 0,0 0,-3 -3,-3 -3,0 -3,3 -3,3 l 0,25 0,0.5 c 0,0.829 -0.671,1.5 -1.5,1.5 -0.829,0 -1.5,-0.671 -1.5,-1.5 l 0,-25.5 c 0,0 0,-6 6,-6 6,0 6,6 6,6 L 0,0 Z"
                 inkscape:connector-curvature="0" />
            </g>
            <g
               transform="translate(16.5,32)"
               id="g188">
              <path
                 id="path190"
                 style="fill:#744eaa;fill-opacity:1;fill-rule:nonzero;stroke:none"
                 d="m 0,0 c -9.112,0 -16.5,-5.82 -16.5,-13 0,0 0,-2 1,-2 1,0 3,2 3,2 l 25,0 c 0,0 2,-2 3,-2 1,0 1,2 1,2 C 16.5,-5.82 9.112,0 0,0"
                 inkscape:connector-curvature="0" />
            </g>
            <g
               transform="translate(16.5,32)"
               id="g192">
              <path
                 id="path194"
                 style="fill:#9266cc;fill-opacity:1;fill-rule:nonzero;stroke:none"
                 d="m 0,0 c -6.903,0 -12.5,-5.82 -12.5,-13 0,0 0,-2 2,-2 2,0 5,2 5,2 l 11,0 c 0,0 3,-2 5,-2 2,0 2,2 2,2 C 12.5,-5.82 6.903,0 0,0"
                 inkscape:connector-curvature="0" />
            </g>
            <g
               transform="translate(16.5,32)"
               id="g196">
              <path
                 id="path198"
                 style="fill:#744eaa;fill-opacity:1;fill-rule:nonzero;stroke:none"
                 d="m 0,0 c -3.59,0 -5.5,-5.82 -5.5,-13 0,0 3,-2 5,-2 l 1,0 c 2,0 5,2 5,2 C 5.5,-5.82 3.59,0 0,0"
                 inkscape:connector-curvature="0" />
            </g>
          </g>
        </g>
      </g>
    </g>
    <g
       transform="matrix(-0.61806332,-0.32863009,0.32863009,-0.61806332,113.40584,109.97147)"
       id="g200">
      <g
         transform="matrix(1.25,0,0,-1.25,0,47.5)"
         id="g202">
        <g
           id="g204">
          <g
             clip-path="url(#clipPath16)"
             id="g206">
            <g
               transform="translate(35.1934,23.6709)"
               id="g208">
              <path
                 id="path210"
                 style="fill:#f4abba;fill-opacity:1;fill-rule:nonzero;stroke:none"
                 d="m 0,0 c 0.387,0.371 0.733,0.795 1.02,1.28 1.685,2.853 0.269,10.292 -0.592,10.8 -0.696,0.411 -5.53,-1.05 -8.246,-3.132 -2.499,1.497 -5.344,2.381 -8.375,2.381 -3.022,0 -5.856,-0.879 -8.349,-2.367 -2.721,2.075 -7.533,3.528 -8.227,3.118 -0.861,-0.508 -2.276,-7.947 -0.592,-10.8 0.278,-0.471 0.615,-0.884 0.989,-1.249 -1.156,-2.552 -1.821,-5.342 -1.821,-8.18 0,-9.99 8.01,-12.522 18,-12.522 9.989,0 18,2.532 18,12.522 C 1.807,-5.322 1.146,-2.543 0,0"
                 inkscape:connector-curvature="0" />
            </g>
            <g
               transform="translate(8.3979,31.0352)"
               id="g212">
              <path
                 id="path214"
                 style="fill:#ea596e;fill-opacity:1;fill-rule:nonzero;stroke:none"
                 d="M 0,0 C -2.166,1.268 -4.402,2.08 -4.8,1.845 -5.37,1.509 -5.883,-3.153 -5.151,-6.419 -3.879,-3.938 -2.112,-1.738 0,0"
                 inkscape:connector-curvature="0" />
            </g>
            <g
               transform="translate(34.7529,24.6157)"
               id="g216">
              <path
                 id="path218"
                 style="fill:#ea596e;fill-opacity:1;fill-rule:nonzero;stroke:none"
                 d="M 0,0 C 0.732,3.267 0.219,7.928 -0.351,8.265 -0.749,8.5 -2.985,7.687 -5.151,6.419 -3.038,4.682 -1.271,2.482 0,0"
                 inkscape:connector-curvature="0" />
            </g>
            <g
               transform="translate(29,13.875)"
               id="g220">
              <path
                 id="path222"
                 style="fill:#ea596e;fill-opacity:1;fill-rule:nonzero;stroke:none"
                 d="m 0,0 c 0,-4.487 -3.097,-9.375 -10,-9.375 -6.904,0 -10,4.888 -10,9.375 0,4.487 3.096,5.625 10,5.625 C -3.097,5.625 0,4.487 0,0"
                 inkscape:connector-curvature="0" />
            </g>
            <g
               transform="translate(16,12.4004)"
               id="g224">
              <path
                 id="path226"
                 style="fill:#662113;fill-opacity:1;fill-rule:nonzero;stroke:none"
                 d="M 0,0 C 0,-1.857 -0.34,-2.4 -1.5,-2.4 -2.66,-2.4 -3,-1.857 -3,0 -3,1.856 -2.66,2.399 -1.5,2.399 -0.34,2.399 0,1.856 0,0"
                 inkscape:connector-curvature="0" />
            </g>
            <g
               transform="translate(25,12.4004)"
               id="g228">
              <path
                 id="path230"
                 style="fill:#662113;fill-opacity:1;fill-rule:nonzero;stroke:none"
                 d="M 0,0 C 0,-1.857 -0.34,-2.4 -1.5,-2.4 -2.66,-2.4 -3,-1.857 -3,0 -3,1.856 -2.66,2.399 -1.5,2.399 -0.34,2.399 0,1.856 0,0"
                 inkscape:connector-curvature="0" />
            </g>
            <g
               transform="translate(10,20)"
               id="g232">
              <path
                 id="path234"
                 style="fill:#292f33;fill-opacity:1;fill-rule:nonzero;stroke:none"
                 d="m 0,0 c 0,-1.104 -0.896,-2 -2,-2 -1.104,0 -2,0.896 -2,2 0,1.104 0.896,2 2,2 1.104,0 2,-0.896 2,-2"
                 inkscape:connector-curvature="0" />
            </g>
            <g
               transform="translate(32,20)"
               id="g236">
              <path
                 id="path238"
                 style="fill:#292f33;fill-opacity:1;fill-rule:nonzero;stroke:none"
                 d="m 0,0 c 0,-1.104 -0.896,-2 -2,-2 -1.104,0 -2,0.896 -2,2 0,1.104 0.896,2 2,2 1.104,0 2,-0.896 2,-2"
                 inkscape:connector-curvature="0" />
            </g>
          </g>
        </g>
      </g>
    </g>
    <g
       transform="matrix(-0.29047415,-0.44729097,0.44729097,-0.29047415,91.117305,140.69409)"
       id="g240">
      <g
         transform="matrix(1.25,0,0,-1.25,0,47.5)"
         id="g242">
        <g
           id="g244">
          <g
             clip-path="url(#clipPath16)"
             id="g246">
            <g
               transform="translate(36.0664,1.9336)"
               id="g248">
              <path
                 id="path250"
                 style="fill:#ffac33;fill-opacity:1;fill-rule:nonzero;stroke:none"
                 d="m 0,0 c -0.766,-0.766 -2.006,-0.766 -2.771,0 l -20.097,20.096 c -0.766,0.766 -0.766,2.008 0,2.773 0.765,0.765 2.007,0.765 2.772,0 L 0,2.771 C 0.766,2.008 0.766,0.766 0,0"
                 inkscape:connector-curvature="0" />
            </g>
            <g
               transform="translate(28.7998,22.9199)"
               id="g252">
              <path
                 id="path254"
                 style="fill:#dd2e44;fill-opacity:1;fill-rule:nonzero;stroke:none"
                 d="m 0,0 c 0,-7.576 -6.142,-13.72 -13.72,-13.72 -7.577,0 -13.719,6.144 -13.719,13.72 0,7.578 6.142,13.72 13.719,13.72 C -6.142,13.72 0,7.578 0,0"
                 inkscape:connector-curvature="0" />
            </g>
            <g
               transform="translate(17.0859,22.1724)"
               id="g256">
              <path
                 id="path258"
                 style="fill:#f4900c;fill-opacity:1;fill-rule:nonzero;stroke:none"
                 d="m 0,0 c 0.161,0.086 0.288,0.211 0.376,0.356 -0.071,-0.565 -0.406,-1.09 -0.946,-1.378 -0.297,-0.158 -0.637,-0.19 -0.957,-0.093 -0.321,0.098 -0.585,0.314 -0.743,0.611 -0.209,0.393 -0.06,0.884 0.333,1.094 0.067,0.036 0.14,0.053 0.212,0.053 0.161,0 0.318,-0.087 0.399,-0.239 C -1.071,-0.074 -0.478,-0.256 0,0 m 1.325,-12.548 c -1.459,-0.092 -2.938,0.065 -4.379,0.503 -3.155,0.961 -5.748,3.092 -7.3,6.003 -1.217,2.282 -1.473,4.901 -0.719,7.375 0.752,2.474 2.424,4.508 4.706,5.724 1.781,0.95 3.822,1.15 5.752,0.561 C 1.314,7.032 2.899,5.728 3.848,3.948 4.582,2.571 4.736,0.99 4.281,-0.503 3.827,-1.997 2.819,-3.224 1.441,-3.959 0.385,-4.521 -0.826,-4.641 -1.971,-4.292 c -1.144,0.348 -2.085,1.123 -2.648,2.178 -0.879,1.648 -0.253,3.704 1.395,4.583 0.593,0.317 1.272,0.384 1.915,0.187 0.231,-0.07 0.447,-0.171 0.644,-0.3 -0.672,0.328 -1.486,0.34 -2.194,-0.037 -1.347,-0.718 -1.858,-2.399 -1.14,-3.746 0.404,-0.758 1.079,-1.313 1.901,-1.564 0.822,-0.25 1.692,-0.165 2.45,0.24 1.836,0.98 2.534,3.271 1.555,5.107 -0.562,1.055 -1.502,1.828 -2.645,2.175 -1.143,0.348 -2.353,0.23 -3.408,-0.332 -2.602,-1.388 -3.59,-4.633 -2.202,-7.236 0.809,-1.517 2.161,-2.629 3.806,-3.13 1.646,-0.5 3.388,-0.33 4.906,0.479 1.839,0.98 3.187,2.62 3.794,4.614 0.606,1.994 0.4,4.105 -0.58,5.945 -1.195,2.241 -3.193,3.883 -5.622,4.623 -2.432,0.74 -5.004,0.489 -7.245,-0.707 -2.744,-1.464 -4.754,-3.908 -5.66,-6.883 -0.905,-2.976 -0.598,-6.125 0.866,-8.869 0.917,-1.721 2.151,-3.202 3.623,-4.392 1.923,-1.028 4.12,-1.615 6.454,-1.615 1.152,0 2.263,0.157 3.331,0.424"
                 inkscape:connector-curvature="0" />
            </g>
            <g
               transform="translate(15.6558,22.498)"
               id="g260">
              <path
                 id="path262"
                 style="fill:#ffcc4d;fill-opacity:1;fill-rule:nonzero;stroke:none"
                 d="m 0,0 c -0.054,-0.143 -0.16,-0.255 -0.297,-0.318 -0.554,-0.249 -0.8,-0.9 -0.55,-1.453 0.119,-0.265 0.328,-0.458 0.576,-0.562 -0.202,0.016 -0.402,0.061 -0.597,0.134 -0.54,0.204 -0.969,0.606 -1.206,1.133 -0.166,0.366 -0.179,0.777 -0.036,1.154 0.142,0.376 0.423,0.676 0.791,0.841 0.129,0.059 0.267,0.088 0.405,0.088 0.118,0 0.236,-0.021 0.349,-0.064 C -0.318,0.859 -0.123,0.677 -0.014,0.436 0.049,0.296 0.053,0.142 0,0 m 9.859,6.003 c -1.569,3.473 -6.117,7.313 -11.772,7.935 -0.212,0.023 -0.422,0.033 -0.633,0.047 -3.6,-0.52 -6.743,-2.429 -8.871,-5.176 3.382,2.808 6.776,3.214 9.264,2.943 C 2.684,11.22 6.542,8.001 7.854,5.098 9.863,0.65 7.877,-4.604 3.43,-6.612 1.761,-7.367 -0.104,-7.425 -1.817,-6.777 c -1.715,0.646 -3.075,1.923 -3.829,3.594 -1.195,2.647 -0.015,5.774 2.632,6.97 2.007,0.906 4.38,0.01 5.286,-1.996 C 2.836,0.54 2.462,-0.9 1.45,-1.733 1.713,-1.463 1.92,-1.14 2.057,-0.777 2.318,-0.085 2.294,0.667 1.99,1.341 1.64,2.116 1.009,2.709 0.213,3.01 -0.584,3.311 -1.45,3.284 -2.224,2.933 -3.127,2.526 -3.817,1.792 -4.167,0.865 c -0.35,-0.927 -0.319,-1.934 0.089,-2.837 0.479,-1.061 1.343,-1.872 2.432,-2.284 1.09,-0.412 2.276,-0.373 3.336,0.105 2.599,1.174 3.76,4.246 2.586,6.847 -1.404,3.111 -5.083,4.497 -8.195,3.095 -3.752,-1.696 -5.425,-6.128 -3.731,-9.88 0.997,-2.206 2.792,-3.891 5.056,-4.745 1.041,-0.394 2.124,-0.59 3.205,-0.59 1.268,0 2.534,0.27 3.725,0.808 5.551,2.509 8.03,9.066 5.523,14.619"
                 inkscape:connector-curvature="0" />
            </g>
          </g>
        </g>
      </g>
    </g>
    <g
       transform="matrix(0.46839142,-0.52020138,0.52020138,0.46839142,96.278831,41.452806)"
       id="g264">
      <g
         transform="matrix(1.25,0,0,-1.25,0,45)"
         id="g266">
        <g
           id="g268">
          <g
             clip-path="url(#clipPath16)"
             id="g270">
            <g
               transform="translate(27.2952,28.4738)"
               id="g272">
              <path
                 id="path274"
                 style="fill:#66757f;fill-opacity:1;fill-rule:nonzero;stroke:none"
                 d="m 0,0 c -1.152,3.054 -2.65,6.8 -8.298,6.915 -1.759,0.036 -1.521,-0.539 -0.347,-1.02 2.248,-0.922 -2.474,-5.438 4.759,-7.4 C 1.761,-3.036 1.152,-3.054 0,0"
                 inkscape:connector-curvature="0" />
            </g>
            <g
               transform="translate(36.004,32.097)"
               id="g276">
              <path
                 id="path278"
                 style="fill:#99aab5;fill-opacity:1;fill-rule:nonzero;stroke:none"
                 d="m 0,0 c -7.737,0 -14.41,-2.514 -18.105,-5.757 -4.875,-4.28 -5.38,-10.306 -14.034,-15.66 -2.847,-1.76 -0.423,-7.517 1.152,-9.618 1.908,-2.544 28.617,-0.238 30.987,8.777 L 0,0 Z"
                 inkscape:connector-curvature="0" />
            </g>
            <g
               transform="translate(8.6762,6.3477)"
               id="g280">
              <path
                 id="path282"
                 style="fill:#66757f;fill-opacity:1;fill-rule:nonzero;stroke:none"
                 d="m 0,0 c 1.011,-0.507 1.787,-1.051 1.318,-1.986 -0.469,-0.937 -1.173,-0.25 -2.184,0.257 -1.012,0.507 -2.286,0.018 -1.816,0.954 C -2.213,0.16 -1.012,0.507 0,0"
                 inkscape:connector-curvature="0" />
            </g>
            <g
               transform="translate(34.2021,29.6736)"
               id="g284">
              <path
                 id="path286"
                 style="fill:#66757f;fill-opacity:1;fill-rule:nonzero;stroke:none"
                 d="M 0,0 C 0.238,2.563 -2.178,4.999 -5.95,5.907 -7.635,6.312 -9.231,6.256 -8.295,5.429 -6.502,3.844 -8.377,1.422 -7.021,-1.695 -6.292,-3.369 -3.783,-5.449 -2.302,-5.516 -1.246,-5.564 -0.248,-2.668 0,0"
                 inkscape:connector-curvature="0" />
            </g>
            <g
               transform="translate(33.2467,29.6736)"
               id="g288">
              <path
                 id="path290"
                 style="fill:#99aab5;fill-opacity:1;fill-rule:nonzero;stroke:none"
                 d="M 0,0 C 0.238,2.563 -2.272,5.445 -6.17,6.007 -7.886,6.254 -8.457,5.92 -7.522,5.093 -5.728,3.508 -8.16,1.466 -6.804,-1.652 -6.076,-3.326 -3.41,-5.492 -1.929,-5.559 -0.873,-5.607 -0.248,-2.668 0,0"
                 inkscape:connector-curvature="0" />
            </g>
            <g
               transform="translate(2.6386,9.1021)"
               id="g292">
              <path
                 id="path294"
                 style="fill:#ccd6dd;fill-opacity:1;fill-rule:nonzero;stroke:none"
                 d="m 0,0 c -2.552,3.983 -3.626,11.971 -1.491,17.597 0.321,0.845 1.083,1.071 1.178,-0.13 C -0.132,15.185 2.104,10.634 7.653,6.499 8.894,5.575 1.94,-3.028 0,0"
                 inkscape:connector-curvature="0" />
            </g>
            <g
               transform="translate(13.2484,20.6131)"
               id="g296">
              <path
                 id="path298"
                 style="fill:#ccd6dd;fill-opacity:1;fill-rule:nonzero;stroke:none"
                 d="M 0,0 C -2.048,0.852 -3.609,3.189 -4.092,4.661 -4.669,6.419 -6.244,0.734 -3.24,-4.23 -2.034,-6.224 1.413,-0.588 0,0"
                 inkscape:connector-curvature="0" />
            </g>
            <g
               transform="translate(18.7886,14.9936)"
               id="g300">
              <path
                 id="path302"
                 style="fill:#292f33;fill-opacity:1;fill-rule:nonzero;stroke:none"
                 d="m 0,0 c 0,-1.105 -0.896,-2 -2,-2 -1.105,0 -2,0.895 -2,2 0,1.104 0.895,2 2,2 1.104,0 2,-0.896 2,-2"
                 inkscape:connector-curvature="0" />
            </g>
            <g
               transform="translate(30.2934,26.59)"
               id="g304">
              <path
                 id="path306"
                 style="fill:#e6aaaa;fill-opacity:1;fill-rule:nonzero;stroke:none"
                 d="M 0,0 C 1.331,-0.105 1.954,1.737 1.216,4.691 0.572,7.266 -3.036,7.938 -3.011,7.76 -2.986,7.581 -1.954,6.211 -2.997,4.821 -4.012,3.468 -1.65,0.13 0,0"
                 inkscape:connector-curvature="0" />
            </g>
          </g>
        </g>
      </g>
    </g>
    <g
       transform="matrix(-0.60376766,-0.52484722,0.52484722,-0.60376766,68.794573,118.34671)"
       id="g308">
      <g
         transform="matrix(1.25,0,0,-1.25,0,47.5)"
         id="g310">
        <g
           id="g312">
          <g
             clip-path="url(#clipPath16)"
             id="g314">
            <g
               transform="translate(28,17)"
               id="g316">
              <path
                 id="path318"
                 style="fill:#ffcc4d;fill-opacity:1;fill-rule:nonzero;stroke:none"
                 d="m 0,0 c 0,-1.657 -4.03,-3 -9,-3 -4.97,0 -9,1.343 -9,3 0,1.657 4.03,3 9,3 4.97,0 9,-1.343 9,-3"
                 inkscape:connector-curvature="0" />
            </g>
            <g
               transform="translate(18.1816,14)"
               id="g320">
              <path
                 id="path322"
                 style="fill:#ffcc4d;fill-opacity:1;fill-rule:nonzero;stroke:none"
                 d="m 0,0 -7.363,0 c 0,0 1.352,-6.5 2.35,-9.752 C -4.014,-13.006 -0.408,-13 0.41,-13 2.045,-13 4.834,-13.006 5.832,-9.752 6.828,-6.5 9.001,0 9.001,0 L 0,0 Z"
                 inkscape:connector-curvature="0" />
            </g>
          </g>
        </g>
        <g
           id="g324">
          <g
             clip-path="url(#clipPath32)"
             id="g30">
            <g
               transform="translate(27.1826,12.5)"
               id="g327">
              <path
                 id="path329"
                 style="fill:#ffac33;fill-opacity:1;fill-rule:nonzero;stroke:none"
                 d="m 0,0 c 0,-1.657 -2.76,-3.5 -8.183,-3.5 -5.422,0 -8.181,1.843 -8.181,3.5 0,1.657 2.759,3 8.181,3 C -2.76,3 0,1.657 0,0"
                 inkscape:connector-curvature="0" />
            </g>
          </g>
        </g>
        <g
           id="g331">
          <g
             clip-path="url(#clipPath44)"
             id="g42">
            <g
               transform="translate(10,17)"
               id="g334">
              <path
                 id="path336"
                 style="fill:#ffcc4d;fill-opacity:1;fill-rule:nonzero;stroke:none"
                 d="m 0,0 0,-3 c 0,-1.657 4.03,-3 9,-3 4.97,0 9,1.343 9,3 L 18,0 0,0 Z"
                 inkscape:connector-curvature="0" />
            </g>
            <g
               transform="translate(27.1826,16.5)"
               id="g338">
              <path
                 id="path340"
                 style="fill:#f4900c;fill-opacity:1;fill-rule:nonzero;stroke:none"
                 d="m 0,0 c 0,-1.381 -3.664,-2.5 -8.183,-2.5 -4.519,0 -8.181,1.119 -8.181,2.5 0,1.381 3.662,2.5 8.181,2.5 C -3.664,2.5 0,1.381 0,0"
                 inkscape:connector-curvature="0" />
            </g>
            <g
               transform="translate(29.375,19.8501)"
               id="g342">
              <path
                 id="path344"
                 style="fill:#ffe8b6;fill-opacity:1;fill-rule:nonzero;stroke:none"
                 d="m 0,0 c 0,2.405 -1.949,4.354 -4.354,4.354 -2.405,0 -14.188,-4.803 -14.188,-7.208 0,-2.404 8.084,-2.329 13.751,-1.371 C -2.42,-3.825 0,-2.405 0,0"
                 inkscape:connector-curvature="0" />
            </g>
            <g
               transform="translate(27.6436,26.0342)"
               id="g346">
              <path
                 id="path348"
                 style="fill:#ffe8b6;fill-opacity:1;fill-rule:nonzero;stroke:none"
                 d="m 0,0 c -1.014,2.432 -3.868,3.606 -6.374,2.623 l -10.21,-4.008 0.001,-10e-4 c -1.794,-0.705 -3.061,-2.409 -3.061,-4.402 0,-2.623 2.192,-4.75 4.895,-4.75 6.145,0 12.417,4.183 12.417,4.183 C 0.014,-4.896 1.014,-2.432 0,0"
                 inkscape:connector-curvature="0" />
            </g>
            <g
               transform="translate(25.5088,30.501)"
               id="g350">
              <path
                 id="path352"
                 style="fill:#ffe8b6;fill-opacity:1;fill-rule:nonzero;stroke:none"
                 d="m 0,0 c -0.781,1.784 -2.982,2.646 -4.915,1.924 l -7.874,-2.939 10e-4,-0.002 c -1.384,-0.517 -2.36,-1.767 -2.36,-3.23 0,-1.924 1.69,-3.484 3.774,-3.484 4.74,0 9.575,3.068 9.575,3.068 C 0.011,-3.592 0.782,-1.784 0,0"
                 inkscape:connector-curvature="0" />
            </g>
            <g
               transform="translate(21.6943,32.0791)"
               id="g354">
              <path
                 id="path356"
                 style="fill:#ffe8b6;fill-opacity:1;fill-rule:nonzero;stroke:none"
                 d="m 0,0 c 0,0 0.593,1.781 -1.781,1.781 -3.562,0 -5.771,-0.845 -5.771,-0.845 l 0,-0.001 c -0.808,-0.327 -1.379,-1.119 -1.379,-2.044 0,-1.219 0.988,-2.206 2.206,-2.206 2.769,0 5.597,1.942 5.597,1.942 C -0.072,-0.695 0,0 0,0"
                 inkscape:connector-curvature="0" />
            </g>
            <g
               transform="translate(17.9824,36.8613)"
               id="g358">
              <path
                 id="path360"
                 style="fill:#ffe8b6;fill-opacity:1;fill-rule:nonzero;stroke:none"
                 d="M 0,0 C 1.781,-2.375 4.156,-1.177 4.751,-2.959 5.313,-4.648 3.562,-5.333 3.562,-5.333 l -4.749,0 c 0,0 -1.782,3.552 1.187,5.333"
                 inkscape:connector-curvature="0" />
            </g>
          </g>
        </g>
        <g
           id="g362">
          <g
             clip-path="url(#clipPath80)"
             id="g78">
            <g
               transform="translate(10.167,24.6211)"
               id="g84">
              <path
                 id="path86"
                 style="fill:#ffd983;fill-opacity:1;fill-rule:nonzero;stroke:none"
                 d="m 0,0 c 3.417,0 9.708,1.125 16.5,5.833 2.103,1.458 3.667,-0.875 2,-2.458 C 16.833,1.792 4.417,-4.042 0.167,-3.25 -4.083,-2.458 0,0 0,0"
                 inkscape:connector-curvature="0" />
            </g>
          </g>
        </g>
        <g
           id="g88">
          <g
             clip-path="url(#clipPath92)"
             id="g90">
            <g
               transform="translate(7.792,18.6626)"
               id="g96">
              <path
                 id="path98"
                 style="fill:#ffd983;fill-opacity:1;fill-rule:nonzero;stroke:none"
                 d="M 0,0 C 1.542,-0.708 5.458,-0.583 7.958,0.125 10.458,0.833 19.208,3.667 20.5,6.792 21.792,9.917 23.333,7.375 22.958,5 22.583,2.625 11.792,-6.458 6.667,-5.375 1.542,-4.292 -1.667,-4.583 -2,-2.792 -2.333,-1 0,0 0,0"
                 inkscape:connector-curvature="0" />
            </g>
          </g>
        </g>
        <g
           id="g100">
          <g
             clip-path="url(#clipPath104)"
             id="g102">
            <g
               transform="translate(12.5,30.4546)"
               id="g108">
              <path
                 id="path110"
                 style="fill:#ffd983;fill-opacity:1;fill-rule:nonzero;stroke:none"
                 d="M 0,0 C 2.417,-0.25 10.333,2.292 10.5,4.375 10.667,6.458 12.125,2.625 11.625,1.958 11.125,1.292 1.667,-3.75 -1.75,-1.542 -5.167,0.667 0,0 0,0"
                 inkscape:connector-curvature="0" />
            </g>
          </g>
        </g>
      </g>
    </g>
    <g
       transform="matrix(0.63837037,0.53565634,-0.53565634,0.63837037,137.60485,78.997149)"
       id="g375">
      <g
         transform="matrix(1.25,0,0,-1.25,0,45)"
         id="g377">
        <g
           id="g379">
          <g
             clip-path="url(#clipPath16)"
             id="g381">
            <g
               transform="translate(5.001,8)"
               id="g383">
              <path
                 id="path385"
                 style="fill:#f7dece;fill-opacity:1;fill-rule:nonzero;stroke:none"
                 d="m 0,0 c -0.367,0 -0.72,0.202 -0.896,0.553 -0.247,0.494 -0.046,1.094 0.448,1.342 l 5.544,2.772 0.917,5.498 c 0.091,0.543 0.605,0.912 1.151,0.821 0.544,-0.09 0.912,-0.606 0.821,-1.151 l -1,-5.999 C 6.933,3.521 6.732,3.249 6.446,3.105 l -6,-3 C 0.303,0.034 0.15,0 0,0"
                 inkscape:connector-curvature="0" />
            </g>
            <g
               transform="translate(30.999,8)"
               id="g387">
              <path
                 id="path389"
                 style="fill:#f7dece;fill-opacity:1;fill-rule:nonzero;stroke:none"
                 d="m 0,0 c -0.15,0 -0.303,0.034 -0.446,0.105 l -6,3 c -0.286,0.144 -0.487,0.416 -0.539,0.731 l -1,5.999 c -0.091,0.545 0.277,1.061 0.822,1.151 0.543,0.091 1.06,-0.277 1.15,-0.821 L -5.097,4.667 0.448,1.895 C 0.942,1.647 1.143,1.047 0.896,0.553 0.72,0.202 0.367,0 0,0"
                 inkscape:connector-curvature="0" />
            </g>
            <g
               transform="translate(23,4.25)"
               id="g391">
              <path
                 id="path393"
                 style="fill:#4289c1;fill-opacity:1;fill-rule:nonzero;stroke:none"
                 d="m 0,0 c 0,0 0,-1.25 -5,-1.25 -5,0 -5,1.25 -5,1.25 l 0,5.5 10,0 L 0,0 Z"
                 inkscape:connector-curvature="0" />
            </g>
            <g
               transform="translate(18.9997,36)"
               id="g395">
              <path
                 id="path397"
                 style="fill:#292f33;fill-opacity:1;fill-rule:nonzero;stroke:none"
                 d="M 0,0 C -1.264,0 -2.435,-0.393 -3.402,-1.061 -3.598,-1.031 -3.795,-1 -4,-1 -6.208,-1 -8,-2.791 -8,-5 l 0,-4 c 0,-3.866 3.134,-7 7,-7 3.867,0 7,3.134 7,7 l 0,2.999 C 6,-2.686 3.314,0 0,0"
                 inkscape:connector-curvature="0" />
            </g>
            <g
               transform="translate(23,21)"
               id="g399">
              <path
                 id="path401"
                 style="fill:#9268ca;fill-opacity:1;fill-rule:nonzero;stroke:none"
                 d="m 0,0 -3,0 -2,0 -2,0 -3,0 c -2.563,0 -2.458,-4 -2.458,-4 l 2.458,0 0,-9 5,0 5,0 0,9 2.458,0 c 0,0 0.105,4 -2.458,4"
                 inkscape:connector-curvature="0" />
            </g>
            <g
               transform="translate(16.0002,25)"
               id="g403">
              <path
                 id="path405"
                 style="fill:#f7dece;fill-opacity:1;fill-rule:nonzero;stroke:none"
                 d="m 0,0 0,-4 c 0,-1.104 0.896,-2 2,-2 1.105,0 2,0.896 2,2 L 4,0 0,0 Z"
                 inkscape:connector-curvature="0" />
            </g>
            <g
               transform="translate(16.0002,33)"
               id="g407">
              <path
                 id="path409"
                 style="fill:#f7dece;fill-opacity:1;fill-rule:nonzero;stroke:none"
                 d="M 0,0 0,0 C 0,0 -0.011,-3.285 -3,-3.894 L -3,-6 l 0,0 c 0,-2.763 2.238,-5 4.999,-5 C 4.761,-11 7,-8.763 7,-6 l 0,0 0,2.032 C 0.019,-3.644 0,0 0,0"
                 inkscape:connector-curvature="0" />
            </g>
            <g
               transform="translate(20.0002,24)"
               id="g411">
              <path
                 id="path413"
                 style="fill:#df1f32;fill-opacity:1;fill-rule:nonzero;stroke:none"
                 d="m 0,0 -2,0 -2,0 c 0,0 0,-1 2,-1 2,0 2,1 2,1"
                 inkscape:connector-curvature="0" />
            </g>
            <g
               transform="translate(16.0002,27.5)"
               id="g415">
              <path
                 id="path417"
                 style="fill:#662113;fill-opacity:1;fill-rule:nonzero;stroke:none"
                 d="M 0,0 C 0,-0.276 -0.224,-0.5 -0.5,-0.5 -0.776,-0.5 -1,-0.276 -1,0 -1,0.276 -0.776,0.5 -0.5,0.5 -0.224,0.5 0,0.276 0,0"
                 inkscape:connector-curvature="0" />
            </g>
            <g
               transform="translate(21.0002,27.5)"
               id="g419">
              <path
                 id="path421"
                 style="fill:#662113;fill-opacity:1;fill-rule:nonzero;stroke:none"
                 d="M 0,0 C 0,-0.276 -0.224,-0.5 -0.5,-0.5 -0.776,-0.5 -1,-0.276 -1,0 -1,0.276 -0.776,0.5 -0.5,0.5 -0.224,0.5 0,0.276 0,0"
                 inkscape:connector-curvature="0" />
            </g>
            <g
               transform="translate(17.0002,26)"
               id="g423">
              <path
                 id="path425"
                 style="fill:#c1694f;fill-opacity:1;fill-rule:nonzero;stroke:none"
                 d="M 0,0 1,0 2,0 C 2,0 2,-1 1,-1 0,-1 0,0 0,0"
                 inkscape:connector-curvature="0" />
            </g>
            <g
               transform="translate(8.4173,1.444)"
               id="g427">
              <path
                 id="path429"
                 style="fill:#f7dece;fill-opacity:1;fill-rule:nonzero;stroke:none"
                 d="m 0,0 c 0.308,-0.769 1.181,-1.142 1.95,-0.834 l 12.395,3.803 c 0,0 3.49,-0.701 3.351,1.294 C 17.589,5.783 15.11,6.508 13.229,5.754 11.348,5 0.834,1.95 0.834,1.95 0.065,1.642 -0.308,0.769 0,0"
                 inkscape:connector-curvature="0" />
            </g>
            <g
               transform="translate(25.7557,5.3924)"
               id="g431">
              <path
                 id="path433"
                 style="fill:#eec2ad;fill-opacity:1;fill-rule:nonzero;stroke:none"
                 d="m 0,0 c -0.212,0.689 -2.021,0.422 -2.456,0.303 -0.435,-0.12 -12.469,-3.845 -13.453,-4.16 -0.924,-0.296 -0.364,-1.06 0.087,-1.027 0.033,0.009 0.067,0.01 0.099,0.021 l 11.768,3.586 c 0.877,0.274 1.884,0.166 2.719,0.244 0.395,0.037 0.802,0.166 0.876,0.202 C -0.193,-0.755 0.151,-0.491 0,0"
                 inkscape:connector-curvature="0" />
            </g>
            <g
               transform="translate(27.5827,1.444)"
               id="g435">
              <path
                 id="path437"
                 style="fill:#f7dece;fill-opacity:1;fill-rule:nonzero;stroke:none"
                 d="m 0,0 c -0.308,-0.769 -1.181,-1.142 -1.95,-0.834 l -12.395,3.803 c 0,0 -3.49,-0.701 -3.351,1.294 0.107,1.52 2.586,2.245 4.467,1.491 C -11.348,5 -0.834,1.95 -0.834,1.95 -0.065,1.642 0.308,0.769 0,0"
                 inkscape:connector-curvature="0" />
            </g>
            <g
               transform="translate(10.2443,5.3924)"
               id="g439">
              <path
                 id="path441"
                 style="fill:#eec2ad;fill-opacity:1;fill-rule:nonzero;stroke:none"
                 d="m 0,0 c 0.212,0.689 2.021,0.422 2.456,0.303 0.435,-0.12 12.469,-3.845 13.453,-4.16 0.924,-0.296 0.364,-1.06 -0.087,-1.027 -0.033,0.009 -0.067,0.01 -0.099,0.021 L 3.955,-1.277 C 3.078,-1.003 2.071,-1.111 1.236,-1.033 0.841,-0.996 0.434,-0.867 0.36,-0.831 0.193,-0.755 -0.151,-0.491 0,0"
                 inkscape:connector-curvature="0" />
            </g>
          </g>
        </g>
      </g>
    </g>
    <g
       transform="matrix(0.4091464,0.83887444,-0.83887444,0.4091464,72.147084,103.94252)"
       id="g443">
      <g
         transform="matrix(1.25,0,0,-1.25,0,45)"
         id="g445">
        <g
           id="g447">
          <g
             clip-path="url(#clipPath16)"
             id="g449">
            <g
               transform="translate(13.2344,16.3242)"
               id="g451">
              <path
                 id="path453"
                 style="fill:#ad743d;fill-opacity:1;fill-rule:nonzero;stroke:none"
                 d="M 0,0 C -1.243,1.243 -4.97,0 -6.211,2.488 -6.998,4.06 -9.939,1.243 -8.697,-1.246 -7.455,-3.73 -3.728,-3.73 -1.243,-2.488 1.242,-1.246 0,0 0,0"
                 inkscape:connector-curvature="0" />
            </g>
            <g
               transform="translate(10.4668,33.1802)"
               id="g455">
              <path
                 id="path457"
                 style="fill:#ad743d;fill-opacity:1;fill-rule:nonzero;stroke:none"
                 d="m 0,0 c -4.694,-1.399 -9.492,-7.219 -9.345,-8.397 0.148,-1.177 0.342,-2.638 6.571,-3.656 1.104,-0.18 3.995,-1.835 4.4,-5.779 0.657,-6.411 4.157,-11.098 8.251,-15.192 1.607,0 1.666,-0.156 3.443,-0.156 1.781,0 3.679,2.41 4.602,4.673 2.844,6.974 2.029,15.707 -5.506,19.83 C 9.427,-7.041 7.205,-6.825 7.087,-5.64 6.953,-4.262 5.869,-1.941 3.276,-0.312 3.72,0.997 2.791,2.474 2.16,2.528 1.528,2.582 0.136,1.49 0,0"
                 inkscape:connector-curvature="0" />
            </g>
          </g>
        </g>
        <g
           id="g459">
          <g
             clip-path="url(#clipPath32)"
             id="g461">
            <g
               transform="translate(2.1836,22.0332)"
               id="g463">
              <path
                 id="path465"
                 style="fill:#d99e82;fill-opacity:1;fill-rule:nonzero;stroke:none"
                 d="M 0,0 C 0.629,5.908 3.746,8.413 6.202,8.232 7.696,8.122 8.338,6.585 8.46,5.507 13.666,4.736 12.399,-1.222 9.141,-1.312 10.518,-2.69 19.28,-8.263 17.902,-15.148 16.525,-22.033 11.016,-22.033 8.263,-19.28 5.509,-16.524 0,0 0,0"
                 inkscape:connector-curvature="0" />
            </g>
          </g>
        </g>
        <g
           id="g467">
          <g
             clip-path="url(#clipPath44)"
             id="g469">
            <g
               transform="translate(9.0693,26.5405)"
               id="g471">
              <path
                 id="path473"
                 style="fill:#292f33;fill-opacity:1;fill-rule:nonzero;stroke:none"
                 d="m 0,0 c 0,-0.76 -0.617,-1.376 -1.377,-1.376 -0.761,0 -1.377,0.616 -1.377,1.376 0,0.761 0.616,1.377 1.377,1.377 C -0.617,1.377 0,0.761 0,0"
                 inkscape:connector-curvature="0" />
            </g>
            <g
               transform="translate(6.2603,15.8535)"
               id="g475">
              <path
                 id="path477"
                 style="fill:#662113;fill-opacity:1;fill-rule:nonzero;stroke:none"
                 d="m 0,0 c 0.304,-1.49 -0.383,-4.295 -1.874,-4.6 -1.489,-0.303 -3.22,2.007 -3.523,3.496 C -5.702,0.387 -4.74,1.843 -3.25,2.15 -1.759,2.455 -0.305,1.49 0,0"
                 inkscape:connector-curvature="0" />
            </g>
            <g
               transform="translate(21.2539,22.4355)"
               id="g479">
              <path
                 id="path481"
                 style="fill:#662113;fill-opacity:1;fill-rule:nonzero;stroke:none"
                 d="M 0,0 C 4.065,-3.341 6.158,-7.296 5.402,-12.37 5.084,-14.514 6.232,-15.303 7.09,-13.272 7.688,-11.85 8.025,-3.385 1.04,1.039 -0.818,2.216 -0.921,0.756 0,0"
                 inkscape:connector-curvature="0" />
            </g>
            <g
               transform="translate(13.9072,14.625)"
               id="g483">
              <path
                 id="path485"
                 style="fill:#ad743d;fill-opacity:1;fill-rule:nonzero;stroke:none"
                 d="m 0,0 c -1.635,1.061 -5.388,-1.148 -7.309,1.259 -1.215,1.523 -3.753,-2.209 -1.832,-4.615 1.922,-2.406 5.962,-1.543 8.368,0.377 C 1.634,-1.058 0,0 0,0"
                 inkscape:connector-curvature="0" />
            </g>
            <g
               transform="translate(24.625,0)"
               id="g487">
              <path
                 id="path489"
                 style="fill:#ad743d;fill-opacity:1;fill-rule:nonzero;stroke:none"
                 d="m 0,0 -10.928,0 c -2.754,0 -2.754,4.132 1.378,4.132 l 3.634,0 C -3.161,4.132 0,0 0,0"
                 inkscape:connector-curvature="0" />
            </g>
            <g
               transform="translate(16.5352,7.3838)"
               id="g491">
              <path
                 id="path493"
                 style="fill:#ad743d;fill-opacity:1;fill-rule:nonzero;stroke:none"
                 d="M 0,0 C 0.371,3.555 2.87,6.21 5.586,5.931 8.301,5.647 10.199,2.533 9.83,-1.021 9.46,-4.58 6.959,-7.234 4.246,-6.955 1.53,-6.672 -0.369,-3.559 0,0"
                 inkscape:connector-curvature="0" />
            </g>
            <g
               transform="translate(23.0117,0.9922)"
               id="g495">
              <path
                 id="path497"
                 style="fill:#ad743d;fill-opacity:1;fill-rule:nonzero;stroke:none"
                 d="m 0,0 c 1.653,0.338 4.956,1.516 6.815,9.035 0.648,2.613 1.373,6.272 -0.827,11.216 -1.875,4.218 -1.084,5.128 0.737,3.766 1.58,-1.184 1.948,-2.708 2.158,-4.928 0.154,0.462 0.377,1.046 0.264,2.153 3.65,-2.056 3.65,-6.749 2.25,-11.167 0.385,0.386 0.828,1.301 1.023,2.159 C 13.706,6.444 9.846,-0.292 2.916,-0.905 -1.064,-1.339 0,0 0,0"
                 inkscape:connector-curvature="0" />
            </g>
          </g>
        </g>
      </g>
    </g>
  </g>
</svg>
