<?xml version="1.0" encoding="UTF-8" standalone="no"?>
<svg
   xmlns:dc="http://purl.org/dc/elements/1.1/"
   xmlns:cc="http://creativecommons.org/ns#"
   xmlns:rdf="http://www.w3.org/1999/02/22-rdf-syntax-ns#"
   xmlns:svg="http://www.w3.org/2000/svg"
   xmlns="http://www.w3.org/2000/svg"
   xmlns:sodipodi="http://sodipodi.sourceforge.net/DTD/sodipodi-0.dtd"
   xmlns:inkscape="http://www.inkscape.org/namespaces/inkscape"
   version="1.1"
   id="svg2"
   viewBox="0 0 200 200"
   height="200px"
   width="200px"
   inkscape:version="0.91 r13725"
   sodipodi:docname="67.svg">
  <metadata
     id="metadata421">
    <rdf:RDF>
      <cc:Work
         rdf:about="">
        <dc:format>image/svg+xml</dc:format>
        <dc:type
           rdf:resource="http://purl.org/dc/dcmitype/StillImage" />
      </cc:Work>
    </rdf:RDF>
  </metadata>
  <sodipodi:namedview
     pagecolor="#ffffff"
     bordercolor="#666666"
     borderopacity="1"
     objecttolerance="10"
     gridtolerance="10"
     guidetolerance="10"
     inkscape:pageopacity="0"
     inkscape:pageshadow="2"
     inkscape:window-width="1920"
     inkscape:window-height="1060"
     id="namedview419"
     showgrid="false"
     inkscape:zoom="4.32"
     inkscape:cx="100"
     inkscape:cy="81.481481"
     inkscape:window-x="0"
     inkscape:window-y="0"
     inkscape:window-maximized="1"
     inkscape:current-layer="layer1" />
  
    
    
    <defs id="defs6">

        <clipPath
           id="clipPath28"
           clipPathUnits="userSpaceOnUse">
          <path
             id="path30"
             d="M 4,36 C 0,36 0,32 0,32 L 0,32 0,4 C 0,0 4,0 4,0 l 0,0 28,0 c 4,0 4,4 4,4 l 0,0 0,28 c 0,4 -4,4 -4,4 l 0,0 -28,0 z" />
        </clipPath>


        <clipPath clipPathUnits="userSpaceOnUse" id="clipPath16-rugby">
            <path d="M 0,38 38,38 38,0 0,0 0,38 Z" id="path18"/>
        </clipPath>
        <clipPath clipPathUnits="userSpaceOnUse" id="clipPath28-rugby">
            <path d="M 9.254,28.746 C 2.09,21.582 -0.927,9.561 3.929,3.929 l 0,0 C 9.561,-0.927 21.582,2.09 28.746,9.254 l 0,0 c 7.164,7.164 11.229,17.088 5.324,24.816 l 0,0 c -1.886,1.627 -4.489,2.371 -7.387,2.37 l 0,0 c -5.752,0 -12.665,-2.93 -17.429,-7.694" id="path30"/>
        </clipPath>

        <clipPath clipPathUnits="userSpaceOnUse" id="clipPath16-carrot">
            <path d="M 0,36 36,36 36,0 0,0 0,36 Z" id="path18"/>
        </clipPath>
        <clipPath clipPathUnits="userSpaceOnUse" id="clipPath32-carrot">
            <path d="M 11.815,23.013 C 4.2,15.397 -1.265,2.86 0.502,1.093 l 0,0 c 1.768,-1.768 14.305,3.698 21.92,11.313 l 0,0 c 7.616,7.615 7.562,11.53 4.243,14.85 l 0,0 c -1.328,1.328 -2.752,2.133 -4.47,2.133 l 0,0 c -2.575,0 -5.812,-1.809 -10.38,-6.376" id="path34"/>
        </clipPath>

        <clipPath clipPathUnits="userSpaceOnUse" id="clipPath32-hat">
            <path d="m 5,33.666 c 0,-0.034 0.018,-0.067 0.022,-0.101 l 0,0 C 5.008,33.455 5,33.335 5,33.2 l 0,0 L 6.802,9.616 C 3.299,8.705 1,7.424 1,6 L 1,6 C 1,3.238 9.611,1 19,1 l 0,0 c 9.389,0 18,2.238 18,5 l 0,0 c 0,1.424 -2.298,2.705 -5.801,3.616 l 0,0 L 33,33.184 c 0,0.135 -0.008,0.263 -0.021,0.373 l 0,0 C 32.982,33.591 33,33.632 33,33.666 l 0,0 c 0,1.805 -6.268,3.267 -14,3.267 l 0,0 c -7.732,0 -14,-1.462 -14,-3.267" id="path34"/>
        </clipPath>


        <clipPath clipPathUnits="userSpaceOnUse" id="clipPath48-soccer">
            <path d="M 1,19 C 1,9.059 9.059,1 19,1 l 0,0 c 9.941,0 18,8.059 18,18 l 0,0 c 0,9.941 -8.059,18 -18,18 l 0,0 C 9.059,37 1,28.941 1,19" id="path50"/>
        </clipPath>

        <clipPath clipPathUnits="userSpaceOnUse" id="clipPath28-baguette">
            <path d="M 24.052,31.33 5.126,12.406 C 1.342,8.62 1.288,4.133 2.856,2.564 l 0,0 C 4.424,0.997 8.912,1.049 12.697,4.835 l 0,0 18.925,18.924 c 3.784,3.785 3.837,8.273 2.269,9.841 l 0,0 c -0.605,0.606 -1.647,0.969 -2.915,0.969 l 0,0 c -2.014,0 -4.602,-0.917 -6.924,-3.239" id="path30"/>
        </clipPath>
    </defs>



  <g
     id="layer1">
    <circle
       style="opacity:1;fill:white;stroke:black;stroke-width:1;stroke-miterlimit:4;stroke-dasharray:none;stroke-opacity:0.1"
       id="path4039-0-9"
       cx="100px"
       cy="100px"
       r="90px" />
    <g
       transform="matrix(-0.79561752,0.08362277,-0.08362277,-0.79561752,60.957978,150.21101)"
       id="g8">
      <g
         transform="matrix(1.25,0,0,-1.25,0,47.5)"
         id="g10">
        <g
           id="g12">
          <g
             clip-path="url(#clipPath16)"
             id="g14">
            <g
               transform="translate(9,10)"
               id="g20">
              <path
                 id="path22"
                 style="fill:#66757f;fill-opacity:1;fill-rule:nonzero;stroke:none"
                 d="m 0,0 c 0,0 -2,-4 -2,-6 0,-2 4,-3 12,-3 8,0 12,1 12,3 0,2 -2,6 -2,6 L 0,0 Z"
                 inkscape:connector-curvature="0" />
            </g>
            <g
               transform="translate(10,31)"
               id="g24">
              <path
                 id="path26"
                 style="fill:#66757f;fill-opacity:1;fill-rule:nonzero;stroke:none"
                 d="m 0,0 c -3,0 -3,-1 -4,-10 -0.994,-8.945 0,-10 4,-10 2,0 2,20 0,20"
                 inkscape:connector-curvature="0" />
            </g>
            <g
               transform="translate(28,31)"
               id="g28">
              <path
                 id="path18"
                 style="fill:#66757f;fill-opacity:1;fill-rule:nonzero;stroke:none"
                 d="M 0,0 C 3,0 3,-1 4,-10 4.994,-18.945 4,-20 0,-20 -2,-20 -2,0 0,0"
                 inkscape:connector-curvature="0" />
            </g>
            <g
               transform="translate(9,34)"
               id="g32">
              <path
                 id="path34"
                 style="fill:#ccd6dd;fill-opacity:1;fill-rule:nonzero;stroke:none"
                 d="m 0,0 c 0,0 1,3 10,3 9,0 10,-3 10,-3 0,0 1,-6 1,-14 0,-8 -1,-14 -1,-14 0,0 -1,-2 -10,-2 -9,0 -10,2 -10,2 0,0 -1,3 -1,14 0,11 1,14 1,14"
                 inkscape:connector-curvature="0" />
            </g>
            <g
               transform="translate(29,29)"
               id="g36">
              <path
                 id="path38"
                 style="fill:#66757f;fill-opacity:1;fill-rule:nonzero;stroke:none"
                 d="m 0,0 c 0,1 -3,4 -10,4 -7,0 -10,-3 -10,-4 0,-0.807 4.548,-1.612 6.311,-1.894 C -13.001,-4.548 -13,-10 -13,-10 c 0.805,3.218 0.315,7.079 0.093,8.467 C -12.705,-0.942 -12.059,0 -10,0 c 3,0 3,-2 3,-2 l 0.002,0 c -0.234,-1.657 -0.565,-5.089 0.162,-8 0,0 0.002,5.491 0.697,8.134 C -4.273,-1.562 0,-0.782 0,0"
                 inkscape:connector-curvature="0" />
            </g>
            <g
               transform="translate(15,17)"
               id="g40">
              <path
                 id="path42"
                 style="fill:#66757f;fill-opacity:1;fill-rule:nonzero;stroke:none"
                 d="M 0,0 C 0,1 2,3 4,3 6,3 8,1 8,0 8,-1 7,-1 4,-1 1,-1 0,-1 0,0"
                 inkscape:connector-curvature="0" />
            </g>
            <g
               transform="translate(13,13)"
               id="g44">
              <path
                 id="path46"
                 style="fill:#66757f;fill-opacity:1;fill-rule:nonzero;stroke:none"
                 d="M 0,0 C 0,0 2,2 6,2 10,2 12,0 12,0 12,0 10,1 6,1 2,1 0,0 0,0"
                 inkscape:connector-curvature="0" />
            </g>
            <g
               transform="translate(13,11)"
               id="g48">
              <path
                 id="path50"
                 style="fill:#66757f;fill-opacity:1;fill-rule:nonzero;stroke:none"
                 d="M 0,0 C 0,1 2,2 6,2 10,2 12,1 12,0 12,-1 11,-1 6,-1 1,-1 0,-1 0,0"
                 inkscape:connector-curvature="0" />
            </g>
          </g>
        </g>
      </g>
    </g>
    <g
       transform="matrix(-0.60376766,-0.52484722,0.52484722,-0.60376766,130.35013,180.16153)"
       id="g30">
      <g
         transform="matrix(1.25,0,0,-1.25,0,47.5)"
         id="g33">
        <g
           id="g35">
          <g
             clip-path="url(#clipPath16)"
             id="g37">
            <g
               transform="translate(19,36)"
               id="g39">
              <path
                 id="path41"
                 style="fill:#ffcc4d;fill-opacity:1;fill-rule:nonzero;stroke:none"
                 d="m 0,0 c -9.388,0 -17,-7.612 -17,-17 0,-5.715 2.829,-10.759 7.153,-13.841 0.098,6.081 -2.112,12.897 -5.827,12.897 -0.438,0 -0.793,-0.063 -1.089,-0.173 0.286,0.714 0.907,1.117 2.068,1.117 4.032,0 6.295,-8.034 5.754,-14.439 C -6.341,-33.053 -3.285,-34 0,-34 c 3.285,0 6.343,0.948 8.944,2.562 -0.545,6.429 1.717,14.438 5.752,14.438 1.165,0 1.787,-0.402 2.071,-1.117 -0.296,0.11 -0.652,0.173 -1.093,0.173 -3.719,0 -5.93,-6.8 -5.827,-12.897 C 14.171,-27.759 17,-22.715 17,-17 17,-7.612 9.389,0 0,0"
                 inkscape:connector-curvature="0" />
            </g>
            <g
               transform="translate(19,36)"
               id="g43">
              <path
                 id="path45"
                 style="fill:#bdddf4;fill-opacity:1;fill-rule:nonzero;stroke:none"
                 d="m 0,0 c -9.388,0 -17,-7.612 -17,-17 0,-1.126 0.116,-2.225 0.325,-3.291 0.221,0.816 0.566,1.598 0.999,2.347 -0.437,0 -0.791,-0.063 -1.087,-0.173 0.25,0.623 0.777,0.99 1.67,1.078 2.826,3.947 8.516,6.65 15.093,6.65 6.577,0 12.267,-2.702 15.093,-6.649 0.897,-0.088 1.426,-0.455 1.674,-1.079 -0.296,0.11 -0.651,0.173 -1.091,0.173 0.433,-0.749 0.778,-1.531 0.999,-2.347 C 16.885,-19.225 17,-18.126 17,-17 17,-7.612 9.389,0 0,0"
                 inkscape:connector-curvature="0" />
            </g>
            <g
               transform="translate(8.3472,25.0898)"
               id="g47">
              <path
                 id="path49"
                 style="fill:#f5f8fa;fill-opacity:1;fill-rule:nonzero;stroke:none"
                 d="M 0,0 C -0.946,-3.176 0.107,-6.293 2.353,-6.962 4.599,-7.632 7.187,-5.6 8.132,-2.424 9.078,0.751 8.025,3.869 5.781,4.538 3.535,5.207 0.947,3.175 0,0"
                 inkscape:connector-curvature="0" />
            </g>
            <g
               transform="translate(29.6523,25.0898)"
               id="g51">
              <path
                 id="path53"
                 style="fill:#f5f8fa;fill-opacity:1;fill-rule:nonzero;stroke:none"
                 d="m 0,0 c 0.946,-3.176 -0.107,-6.293 -2.352,-6.962 -2.247,-0.67 -4.834,1.362 -5.78,4.538 -0.946,3.175 0.107,6.293 2.351,6.962 C -3.535,5.207 -0.947,3.175 0,0"
                 inkscape:connector-curvature="0" />
            </g>
            <g
               transform="translate(19,19)"
               id="g55">
              <path
                 id="path57"
                 style="fill:#664500;fill-opacity:1;fill-rule:nonzero;stroke:none"
                 d="m 0,0 c -2.757,0 -5,-2.243 -5,-5 l 0,-6 c 0,-2.757 2.243,-5 5,-5 2.757,0 5,2.243 5,5 l 0,6 C 5,-2.243 2.757,0 0,0"
                 inkscape:connector-curvature="0" />
            </g>
            <g
               transform="translate(3.3263,18.0556)"
               id="g59">
              <path
                 id="path61"
                 style="fill:#fcab40;fill-opacity:1;fill-rule:nonzero;stroke:none"
                 d="m 0,0 c -0.439,0 -0.793,-0.063 -1.089,-0.172 0.068,0.168 0.157,0.317 0.265,0.45 -1.758,-2.165 2.188,-9.288 0.271,-16.334 l 6.101,0 C 6.671,-9.482 4.381,0 0,0"
                 inkscape:connector-curvature="0" />
            </g>
            <g
               transform="translate(35.7666,17.8831)"
               id="g63">
              <path
                 id="path65"
                 style="fill:#fcab40;fill-opacity:1;fill-rule:nonzero;stroke:none"
                 d="m 0,0 c -0.296,0.11 -0.652,0.172 -1.093,0.172 -4.383,0 -6.673,-9.446 -5.547,-16.055 l 6.101,0 C -2.338,-9.23 1.026,-2.577 0,0"
                 inkscape:connector-curvature="0" />
            </g>
          </g>
        </g>
      </g>
    </g>
    <g
       transform="matrix(0.63403768,0.20601133,-0.20601133,0.63403768,119.95274,16.57112)"
       id="g67">
      <g
         transform="matrix(1.25,0,0,-1.25,0,47.5)"
         id="g69">
        <g
           id="g71">
          <g
             clip-path="url(#clipPath16)"
             id="g73">
            <g
               transform="translate(37,12)"
               id="g75">
              <path
                 id="path77"
                 style="fill:#c1694f;fill-opacity:1;fill-rule:nonzero;stroke:none"
                 d="m 0,0 c 0,-4 -8.059,-11 -18,-11 -9.941,0 -18,7 -18,11 0,19 17,25 18,25 1,0 18,-6 18,-25"
                 inkscape:connector-curvature="0" />
            </g>
            <g
               transform="translate(4.0015,7.6152)"
               id="g79">
              <path
                 id="path81"
                 style="fill:#a95233;fill-opacity:1;fill-rule:nonzero;stroke:none"
                 d="m 0,0 c -0.05,0 -0.1,0.004 -0.15,0.012 -0.546,0.082 -0.922,0.591 -0.84,1.136 0.134,0.895 3.43,21.969 15.535,28.128 0.493,0.252 1.094,0.054 1.345,-0.438 0.25,-0.492 0.054,-1.094 -0.438,-1.344 C 4.266,21.802 1.019,1.06 0.987,0.852 0.913,0.355 0.486,0 0,0"
                 inkscape:connector-curvature="0" />
            </g>
            <g
               transform="translate(33.999,7.6152)"
               id="g83">
              <path
                 id="path85"
                 style="fill:#a95233;fill-opacity:1;fill-rule:nonzero;stroke:none"
                 d="m 0,0 c -0.486,0 -0.913,0.355 -0.988,0.852 -0.032,0.208 -3.278,20.95 -14.465,26.642 -0.492,0.25 -0.688,0.852 -0.437,1.344 0.25,0.492 0.854,0.69 1.344,0.438 C -2.439,23.117 0.855,2.043 0.99,1.148 1.072,0.603 0.696,0.094 0.149,0.012 0.1,0.004 0.049,0 0,0"
                 inkscape:connector-curvature="0" />
            </g>
            <g
               transform="translate(13.001,4)"
               id="g87">
              <path
                 id="path89"
                 style="fill:#a95233;fill-opacity:1;fill-rule:nonzero;stroke:none"
                 d="M 0,0 C -0.018,0 -0.036,0 -0.054,0.001 -0.605,0.03 -1.029,0.502 -1,1.053 -0.946,2.052 0.356,25.597 5.176,32.569 5.491,33.023 6.114,33.136 6.567,32.823 7.022,32.508 7.136,31.886 6.821,31.431 2.322,24.923 1.01,1.186 0.998,0.947 0.969,0.413 0.528,0 0,0"
                 inkscape:connector-curvature="0" />
            </g>
            <g
               transform="translate(24.999,4)"
               id="g91">
              <path
                 id="path93"
                 style="fill:#a95233;fill-opacity:1;fill-rule:nonzero;stroke:none"
                 d="m 0,0 c -0.527,0 -0.969,0.413 -0.998,0.947 -0.013,0.239 -1.324,23.976 -5.824,30.484 -0.314,0.455 -0.2,1.077 0.254,1.392 0.456,0.314 1.079,0.2 1.391,-0.254 C -0.357,25.597 0.946,2.052 1,1.053 1.029,0.502 0.605,0.031 0.054,0.001 0.036,0 0.018,0 0,0"
                 inkscape:connector-curvature="0" />
            </g>
            <g
               transform="translate(37,12)"
               id="g95">
              <path
                 id="path97"
                 style="fill:#662113;fill-opacity:1;fill-rule:nonzero;stroke:none"
                 d="m 0,0 c 0,-4 -8.059,-11 -18,-11 -9.941,0 -18,7 -18,11 3,-4 10,-7 18,-7 8,0 15,3 18,7"
                 inkscape:connector-curvature="0" />
            </g>
          </g>
        </g>
      </g>
    </g>
    <g
       transform="matrix(-0.33714593,0.83446547,-0.83446547,-0.33714593,141.86019,106.81319)"
       id="g99">
      <g
         transform="matrix(1.25,0,0,-1.25,0,47.5)"
         id="g101">
        <g
           id="g103">
          <g
             clip-path="url(#clipPath16)"
             id="g105">
            <g
               transform="translate(19.2412,27.3672)"
               id="g107">
              <path
                 id="path109"
                 style="fill:#5c913b;fill-opacity:1;fill-rule:nonzero;stroke:none"
                 d="M 0,0 C -0.277,3.307 2.17,4.72 2.17,4.72 -1.029,4.607 -2.724,1.895 -2.724,1.895 -3.476,3.194 -1.778,5.907 -0.555,6.614 -3.753,6.501 -4.225,4.494 -4.225,4.494 -5.728,7.095 -5.254,9.102 -5.254,9.102 -6.375,8.454 -7.021,6.989 -7.396,5.589 L -9.714,8.26 c -0.23,-1.046 0.156,-3.176 0.572,-4.962 -3.054,1.791 -5.902,0.151 -5.902,0.151 3.95,-1.187 5.45,-3.787 5.45,-3.787 0,0 -3.948,1.187 -5.645,-1.527 2.596,0.092 4.5,-0.499 5.856,-1.229 -1.163,-0.289 -3.145,0.236 -4.355,-1.371 0,0 3.198,0.113 3.851,-1.055 -2.172,-0.614 -3.574,-2.251 -3.574,-2.251 4.422,0.818 9.123,-1.668 9.123,-1.668 L 1.78,-5.907 C 0.751,-1.3 4.422,0.82 4.422,0.82 1.697,2.713 0,0 0,0"
                 inkscape:connector-curvature="0" />
            </g>
            <g
               transform="translate(30.5605,14.1201)"
               id="g111">
              <path
                 id="path113"
                 style="fill:#ffac33;fill-opacity:1;fill-rule:nonzero;stroke:none"
                 d="m 0,0 c 2.488,-4.309 1.218,-9.7 -2.837,-12.041 -4.055,-2.341 -9.359,-0.746 -11.846,3.562 l -1.589,2.753 c -2.489,4.31 -1.218,9.699 2.837,12.04 4.055,2.342 9.359,0.747 11.846,-3.562 L 0,0 Z"
                 inkscape:connector-curvature="0" />
            </g>
            <g
               transform="translate(28.7178,10.541)"
               id="g115">
              <path
                 id="path117"
                 style="fill:#ffcc4d;fill-opacity:1;fill-rule:nonzero;stroke:none"
                 d="M 0,0 -1.951,0.828 -1.123,2.778 0.828,1.951 0,0 Z m -1.656,-3.901 -1.95,0.827 0.828,1.952 1.95,-0.828 -0.828,-1.951 z m -1.657,-3.904 -1.951,0.828 0.828,1.952 1.952,-0.829 -0.829,-1.951 z m -4.197,6.388 0.828,1.952 1.952,-0.829 -0.829,-1.952 -1.951,0.829 z m 0.294,-4.73 -1.95,0.828 0.828,1.95 1.95,-0.829 -0.828,-1.949 z m -4.196,6.386 0.829,1.951 1.951,-0.827 -0.828,-1.952 -1.952,0.828 z m 0.295,-4.73 -1.951,0.827 0.828,1.951 1.951,-0.828 -0.828,-1.95 z m -4.196,6.386 0.828,1.952 1.951,-0.828 -0.828,-1.953 -1.951,0.829 z m 2.484,5.852 1.951,-0.828 -0.829,-1.949 -1.95,0.828 0.828,1.949 z m 3.902,-1.655 1.95,-0.828 -0.828,-1.951 -1.95,0.828 0.828,1.951 z M -7.271,9.994 -5.319,9.166 -6.148,7.214 -8.1,8.042 -7.271,9.994 Z m 4.197,-6.387 -0.828,-1.95 -1.952,0.827 0.829,1.952 1.951,-0.829 z m -0.294,4.731 1.95,-0.829 -0.828,-1.95 -1.951,0.828 0.829,1.951 z M 2.845,1.095 C 2.636,1.942 2.305,2.779 1.843,3.579 L 1.656,3.902 1.656,3.901 -0.295,4.729 0.329,6.2 0.254,6.331 c -2.025,3.51 -5.92,5.217 -9.486,4.466 l -0.819,-1.926 -1.884,0.799 c -3.28,-2.122 -4.567,-6.318 -3.262,-10.128 l 1.006,-0.427 -0.401,-0.946 c 0.055,-0.106 0.102,-0.212 0.162,-0.315 l 1.59,-2.753 c 0.685,-1.188 1.59,-2.161 2.617,-2.91 l 0.229,0.538 1.951,-0.828 -0.324,-0.763 c 0.665,-0.278 1.357,-0.465 2.06,-0.573 l 0.215,0.507 1.404,-0.594 c 1.144,0.047 2.28,0.335 3.342,0.882 l -0.016,0.007 0.828,1.951 1.188,-0.504 c 0.523,0.522 0.973,1.104 1.334,1.737 l -1.693,0.72 0.828,1.951 1.667,-0.707 c 0.191,0.7 0.301,1.426 0.316,2.167 l -1.155,0.49 0.828,1.951 0.066,-0.028 z"
                 inkscape:connector-curvature="0" />
            </g>
          </g>
        </g>
      </g>
    </g>
    <g
       transform="matrix(0.39073113,0.92050485,-0.92050485,0.39073113,91.548458,118.34072)"
       id="g119">
      <g
         transform="matrix(1.25,0,0,-1.25,0,45)"
         id="g121">
        <g
           id="g123">
          <g
             clip-path="url(#clipPath16)"
             id="g125">
            <g
               transform="translate(12,28.3926)"
               id="g127">
              <path
                 id="path129"
                 style="fill:#ccd6dd;fill-opacity:1;fill-rule:nonzero;stroke:none"
                 d="m 0,0 -9,2.411 c -1.657,0.444 -3,-0.539 -3,-2.196 l 0,-20 c 0,-1.656 1.343,-3.36 3,-3.804 L 0,-26 0,0 Z"
                 inkscape:connector-curvature="0" />
            </g>
            <g
               transform="translate(24,5.6074)"
               id="g131">
              <path
                 id="path133"
                 style="fill:#ccd6dd;fill-opacity:1;fill-rule:nonzero;stroke:none"
                 d="m 0,0 9,-2.411 c 1.656,-0.444 3,0.54 3,2.196 l 0,20 c 0,1.657 -1.344,3.361 -3,3.804 L 0,26 0,0 Z"
                 inkscape:connector-curvature="0" />
            </g>
            <g
               transform="translate(24,5.6084)"
               id="g135">
              <path
                 id="path137"
                 style="fill:#e1e8ed;fill-opacity:1;fill-rule:nonzero;stroke:none"
                 d="m 0,0 -12,-3.216 0,26 L 0,26 0,0 Z"
                 inkscape:connector-curvature="0" />
            </g>
            <g
               transform="translate(12,26.3931)"
               id="g139">
              <path
                 id="path141"
                 style="fill:#55acee;fill-opacity:1;fill-rule:nonzero;stroke:none"
                 d="m 0,0 -8,2.144 c -1.104,0.295 -2,-0.36 -2,-1.464 l 0,-18.001 c 0,-1.103 0.896,-2.24 2,-2.535 L 0,-22 0,0 Z"
                 inkscape:connector-curvature="0" />
            </g>
            <g
               transform="translate(32,27.4648)"
               id="g143">
              <path
                 id="path145"
                 style="fill:#55acee;fill-opacity:1;fill-rule:nonzero;stroke:none"
                 d="m 0,0 -8,2.144 0,-22 L 0,-22 c 1.105,-0.296 2,0.359 2,1.465 l 0,18 C 2,-1.432 1.105,-0.296 0,0"
                 inkscape:connector-curvature="0" />
            </g>
            <g
               transform="translate(24,7.6084)"
               id="g147">
              <path
                 id="path149"
                 style="fill:#88c9f9;fill-opacity:1;fill-rule:nonzero;stroke:none"
                 d="m 0,0 -12,-3.216 0,22 L 0,22 0,0 Z"
                 inkscape:connector-curvature="0" />
            </g>
            <g
               transform="translate(12,14.4941)"
               id="g151">
              <path
                 id="path153"
                 style="fill:#5c913b;fill-opacity:1;fill-rule:nonzero;stroke:none"
                 d="m 0,0 c -0.268,-0.006 -0.595,-0.104 -0.845,-0.145 -0.436,-0.073 -0.329,-0.516 -0.463,-0.443 -0.135,0.074 -0.475,0.265 -0.812,0.658 -0.337,0.395 0.25,0.478 0.418,0.622 0.168,0.145 -0.317,0.172 -0.486,0.333 -0.169,0.159 -0.47,-0.104 -0.739,0.276 -0.269,0.376 -0.101,0.79 -0.133,1.179 -0.034,0.39 0.436,0.341 0.739,0.334 0.302,-0.002 0.537,-0.143 0.537,-0.602 0,-0.456 0.37,-0.708 0.27,-0.146 -0.101,0.561 0.1,0.658 0.235,0.89 0.134,0.23 0.37,0.55 0.673,1.04 C -0.385,4.354 -0.217,4.279 0,4.16 L 0,7.505 C -0.055,7.549 -0.11,7.595 -0.165,7.618 -0.468,7.75 -0.068,6.865 -0.303,6.509 -0.54,6.152 -0.901,6.316 -1.273,6.415 -1.642,6.514 -1.986,6.96 -1.716,7.422 c 0.268,0.462 0.782,0.267 1.051,0.653 0.27,0.385 -0.956,0.672 -1.394,0.942 -0.437,0.27 -0.962,0.409 -1.4,0.145 C -3.896,8.898 -4.832,9.029 -5.202,8.977 -5.571,8.923 -5.637,9.346 -5.705,9.67 c -0.066,0.322 -0.652,0.329 -1.257,0.338 -0.606,0.01 -1.741,-0.281 -1.547,-1.759 0.068,-0.514 0.605,-0.124 0.707,-0.036 0.1,0.088 0.605,-0.2 0.671,-0.637 0.068,-0.438 0.034,-0.887 -0.099,-1.232 -0.137,-0.345 0.336,-1.006 0.604,-1.612 0.269,-0.606 0.572,-0.687 0.706,-0.723 0.135,-0.036 0.908,-0.587 0.875,-0.996 -0.034,-0.411 0.706,-0.992 1.009,-1.34 0.303,-0.35 0.494,-0.662 0.887,-0.846 0.393,-0.182 0.852,-1.035 1.054,-1.165 0.155,-0.099 0.418,-0.451 0.576,-0.58 -0.208,-0.242 -0.612,-0.748 -0.612,-1.029 0,-0.383 0.441,-1.103 0.608,-1.3 0.168,-0.196 0.65,-0.442 0.751,-0.85 0.101,-0.407 -0.07,-1.646 -0.373,-1.907 -0.304,-0.262 -0.414,-1.043 -0.414,-1.043 0,0 0.107,-0.293 0.465,-0.124 0.309,0.144 0.777,0.567 1.094,0.801 L 0,0 Z"
                 inkscape:connector-curvature="0" />
            </g>
            <g
               transform="translate(24,20.2686)"
               id="g155">
              <path
                 id="path157"
                 style="fill:#77b255;fill-opacity:1;fill-rule:nonzero;stroke:none"
                 d="M 0,0 0,6.314 C -0.04,6.311 -0.068,6.303 -0.11,6.3 -0.319,6.289 -0.593,6.165 -0.89,5.98 -0.914,5.985 -0.936,5.996 -0.96,6.001 -1.855,6.176 -2.272,4.796 -2.999,4.849 c -0.73,0.052 -1.7,0.343 -2.332,-0.514 -0.631,-0.858 -0.776,-1.53 0,-1.295 0.777,0.236 1.312,1.426 1.7,1.089 0.388,-0.336 0.29,-0.72 -0.632,-1.105 C -5.185,2.639 -6.18,2.208 -6.714,2.064 -7.248,1.921 -7.37,1.53 -7.006,1.243 -6.642,0.955 -7.225,0.771 -7.831,0.223 c -0.607,-0.548 0.146,-0.512 0.656,-0.705 0.51,-0.193 0.898,0.323 1.117,0.932 0.217,0.609 1.158,1.522 1.55,1.544 0.392,0.023 0.392,-0.197 0.319,-0.602 -0.013,-0.072 0.001,-0.103 0.01,-0.139 -0.17,-0.54 -0.309,-1.029 -0.365,-1.306 -0.026,-0.134 -0.031,-0.35 -0.027,-0.595 -0.086,-0.003 -0.183,-0.021 -0.248,0 -0.438,0.128 -1.434,0.219 -1.701,-0.043 -0.267,-0.266 -0.412,-0.502 -0.728,-0.723 -0.316,-0.219 -1.603,-1.224 -1.626,-2.084 -0.025,-0.859 -0.049,-1.83 0.46,-1.721 0.51,0.11 1.749,0.826 2.137,1.288 0.387,0.463 0.921,0.523 1.092,0.156 0.169,-0.369 0.048,-0.649 -0.12,-1.354 -0.172,-0.708 0.11,-0.963 0.381,-1.468 0.274,-0.504 0.491,-0.775 0.491,-1.189 0,-0.412 0.389,-0.723 0.97,0.123 0.188,0.269 0.367,0.606 0.536,0.957 0.409,0.469 0.768,0.923 0.758,1.096 -0.016,0.281 -0.021,0.433 -0.024,0.624 0.033,0.082 0.064,0.157 0.091,0.219 0.126,0.293 0.241,0.746 0.362,1.156 0.007,0.009 0.013,0.016 0.019,0.024 0.238,0.337 0.185,0.353 0.58,0.756 0.264,0.269 0.254,0.512 0.214,0.678 0.106,0.174 0.134,0.28 -0.033,0.235 -0.005,-0.001 -0.012,-0.003 -0.016,-0.004 -0.001,0 -0.004,-0.019 -0.005,-0.014 -0.023,0.15 -0.206,-0.003 -0.501,-0.147 -0.285,-0.008 -0.567,0.065 -0.668,0.368 -0.133,0.396 -0.602,0.996 -0.639,1.336 0.003,0.041 0.005,0.077 0.01,0.124 0.013,0.036 0.033,0.066 0.069,0.088 0.038,0.022 0.075,0.03 0.112,0.035 0.041,-0.111 0.076,-0.28 0.086,-0.464 0.027,-0.477 0.395,-0.196 0.395,-0.498 0,-0.302 0.53,-0.492 0.661,-0.548 0.037,-0.015 0.094,0.028 0.159,0.098 0.031,-0.011 0.06,-0.033 0.093,-0.037 0.292,-0.031 0.922,0.984 1.117,1.164 0.102,0.095 0.105,0.269 0.033,0.394 C -0.035,-0.015 -0.019,-0.008 0,0 m -9.142,-7.239 c -0.437,0.074 -0.359,0.023 -0.628,0.598 -0.269,0.577 -0.432,0.743 -1.036,0.657 -0.606,-0.087 -0.584,-0.136 -0.751,0.163 -0.072,0.128 -0.241,0.082 -0.443,-0.032 l 0,-6.37 c 0.09,0.115 0.17,0.211 0.228,0.267 0.505,0.476 0.996,1.026 1.466,1.646 0.471,0.621 0.301,0.924 0.536,1.481 0.235,0.558 0.54,0.617 0.943,1.145 0.405,0.531 0.122,0.368 -0.315,0.445 m -2.59,5.557 c -0.1,-0.015 -0.187,-0.011 -0.268,-0.01 l 0,3.344 c 0.254,-0.064 0.512,-0.317 0.706,-0.735 0.234,-0.51 0.605,-0.067 0.739,-0.374 0.134,-0.308 0.875,-0.758 0.505,-0.742 -0.371,0.014 -0.74,-0.008 -0.841,-0.454 -0.102,-0.448 0.168,-0.795 -0.102,-0.829 -0.269,-0.033 -0.369,-0.142 -0.739,-0.2"
                 inkscape:connector-curvature="0" />
            </g>
            <g
               transform="translate(31.4072,12.2305)"
               id="g52">
              <path
                 id="path54"
                 style="fill:#5c913b;fill-opacity:1;fill-rule:nonzero;stroke:none"
                 d="M 0,0 C -0.133,0.338 -0.518,0.713 -0.675,0.91 -0.834,1.104 -1.082,1.223 -1.293,1.189 -1.505,1.158 -1.636,1.281 -1.741,1.551 -1.848,1.816 -2.031,1.783 -2.19,1.795 -2.348,1.807 -2.981,1.676 -3.352,1.564 -3.72,1.451 -3.889,1.312 -4.13,1.107 c -0.382,-0.32 -0.17,-0.105 0,-0.423 0.168,-0.319 -0.186,-1.067 -0.213,-1.543 -0.027,-0.477 0.676,-0.032 0.94,-0.039 0.263,-0.012 0.185,0.189 0.396,0.314 0.212,0.125 0.349,0.129 0.579,-0.172 0.234,-0.305 0.537,-0.611 0.537,-0.883 0,-0.269 0.834,-0.947 1.152,-0.851 0.316,0.097 0.501,0.408 0.791,0.635 0.291,0.224 0.185,0.824 0.264,1.168 C 0.396,-0.346 0.13,-0.336 0,0 m -2.403,2.578 c 0.261,-0.402 0.159,-0.043 0.504,0.016 0.342,0.058 -0.291,0.56 -0.502,0.799 -0.211,0.238 -0.42,0.3 -0.606,-0.049 C -3.216,2.945 -2.664,2.98 -2.403,2.578 M 0.685,1.146 C 0.554,1.363 0.264,1.531 -0.054,1.607 -0.369,1.684 -0.344,2.088 -0.66,2.141 -0.976,2.195 -1.204,2.529 -1.346,2.652 -1.657,2.918 -1.452,2.443 -1.346,1.953 -1.239,1.465 -0.845,1.707 -0.477,1.367 -0.107,1.027 -0.079,1.352 0.264,1.139 0.605,0.928 0.738,0.619 1.067,0.561 1.396,0.502 0.817,0.93 0.685,1.146 m -2.004,5.371 c 0.183,-0.08 0.975,-0.171 0.553,0.334 -0.422,0.506 -0.106,0.299 -0.052,0.738 0.052,0.44 -0.264,0.525 -0.264,0.525 0,-0.332 -0.211,-0.638 0,-1.027 0.21,-0.389 -0.423,-0.49 -0.237,-0.57 M -3.411,4.449 c 0.389,-0.166 0.114,0.482 0.244,0.841 0.132,0.357 0.316,0.369 0.555,0.364 0.236,-0.002 0.422,0.191 0.581,0.388 0.157,0.2 0.448,0.455 0.422,0.733 -0.027,0.279 -0.105,0.482 -0.212,0.843 -0.106,0.36 0.316,0.368 0.502,0.711 0.183,0.342 0,0 0.421,0.007 0.421,0.008 0.238,0.058 0.316,0.218 0.08,0.159 0.133,0.327 0.054,0.68 -0.078,0.353 -0.37,0.099 -0.66,0.177 -0.289,0.077 0.106,0.424 0.131,0.78 0.027,0.355 0.397,0.165 0.662,0.125 0.262,-0.039 0.341,-0.485 0.42,-0.597 0.082,-0.112 0.896,0.365 1.109,0.641 0.211,0.275 -0.186,0.291 -0.079,0.403 0.105,0.111 -0.632,0.337 -0.925,0.469 -0.289,0.133 -1.028,0.367 -1.318,0.649 -0.289,0.284 -1.397,0.426 -1.688,0.337 -0.291,-0.086 -0.476,0.143 -0.606,0.406 -0.131,0.262 -0.686,0.297 -0.844,0.467 -0.158,0.17 -0.316,-0.127 -0.529,-0.16 -0.21,-0.035 -0.29,-0.043 -0.554,0.209 -0.263,0.252 0.08,0.371 -0.288,0.621 -0.355,0.239 -0.813,0.184 -1.71,0.593 l 0,-6.314 c 0.157,-0.014 0.308,-0.037 0.364,-0.051 0.131,-0.035 0.448,-0.574 0.448,-0.784 0,-0.211 0.159,-0.829 0.291,-1.196 0.131,-0.366 0.42,-0.506 0.686,-0.818 0.264,-0.312 0.394,-0.137 0.394,-0.137 0,0 -0.105,0.544 -0.105,0.965 0,0.424 0.316,0.701 0.316,0.701 0,0 0.5,-0.557 0.529,-0.684 0.026,-0.128 0.421,-0.657 0.449,-0.876 0.025,-0.219 0.236,-0.547 0.624,-0.711 m -0.362,-0.9 C -3.826,3.109 -3.59,3.348 -3.167,2.844 -2.744,2.336 -3.271,2.449 -3.456,2.527 c -0.185,0.08 -0.37,0.131 -0.579,0.518 -0.213,0.391 0,0.695 0,1.027 0,0 0.315,-0.084 0.262,-0.523"
                 inkscape:connector-curvature="0" />
            </g>
          </g>
        </g>
      </g>
    </g>
    <g
       transform="matrix(-0.46839142,0.52020138,-0.52020138,-0.46839142,187.01746,69.454602)"
       id="g161">
      <g
         transform="matrix(1.25,0,0,-1.25,0,47.5)"
         id="g163">
        <g
           id="g165">
          <g
             clip-path="url(#clipPath16)"
             id="g167">
            <g
               transform="translate(35.751,15)"
               id="g169">
              <path
                 id="path171"
                 style="fill:#77b255;fill-opacity:1;fill-rule:nonzero;stroke:none"
                 d="m 0,0 c -3.382,0 -11.9,-3.549 -15.751,-7.158 l 0,12.158 c 0,0.553 -0.447,1 -1,1 -0.552,0 -1,-0.447 -1,-1 l 0,-12.341 C -21.504,-3.669 -30.26,0 -33.699,0 c -0.929,0 10.861,-13.992 15.948,-12.599 l 0,-0.401 c 0,-0.553 0.448,-1 1,-1 0.553,0 1,0.447 1,1 l 0,0.356 C -10.563,-13.638 0.917,0 0,0"
                 inkscape:connector-curvature="0" />
            </g>
            <g
               transform="translate(26,23.5835)"
               id="g173">
              <path
                 id="path175"
                 style="fill:#ea596e;fill-opacity:1;fill-rule:nonzero;stroke:none"
                 d="m 0,0 c 0,-6.351 -1.707,-9.583 -7,-9.583 -5.293,0 -7,3.232 -7,9.583 0,6.351 5,13.417 7,13.417 2,0 7,-7.066 7,-13.417"
                 inkscape:connector-curvature="0" />
            </g>
            <g
               transform="translate(23.7949,35)"
               id="g177">
              <path
                 id="path179"
                 style="fill:#f4abba;fill-opacity:1;fill-rule:nonzero;stroke:none"
                 d="M 0,0 C -0.48,0 -4.106,-14.271 -4.803,-19.279 -5.549,-14.271 -9.314,0 -9.795,0 c -1,0 -6,-9 -6,-13 0,-4 5.707,-8 11,-8 C 0.498,-21 6,-17 6,-13 6,-9 1,0 0,0"
                 inkscape:connector-curvature="0" />
            </g>
          </g>
        </g>
      </g>
    </g>
    <g
       transform="matrix(0.28669436,0.74686434,-0.74686434,0.28669436,104.55411,23.120774)"
       id="g181">
      <g
         transform="matrix(1.25,0,0,-1.25,0,45)"
         id="g183">
        <g
           id="g185">
          <g
             clip-path="url(#clipPath16)"
             id="g187">
            <g
               transform="translate(36,18)"
               id="g189">
              <path
                 id="path191"
                 style="fill:#ffcc4d;fill-opacity:1;fill-rule:nonzero;stroke:none"
                 d="m 0,0 c 0,-9.941 -8.059,-18 -18,-18 -9.94,0 -18,8.059 -18,18 0,9.94 8.06,18 18,18 C -8.059,18 0,9.94 0,0"
                 inkscape:connector-curvature="0" />
            </g>
            <g
               transform="translate(30.5996,18.7998)"
               id="g193">
              <path
                 id="path195"
                 style="fill:#664500;fill-opacity:1;fill-rule:nonzero;stroke:none"
                 d="M 0,0 C -0.114,0.085 -1.931,1.426 -4.646,2.344 -4.619,2.459 -4.6,2.577 -4.6,2.7 -4.6,3.069 -4.738,3.403 -4.959,3.664 -3.156,4.185 -1.625,4.2 -1.598,4.2 -1.047,4.202 -0.6,4.65 -0.601,5.202 -0.602,5.753 -1.048,6.2 -1.6,6.2 -1.82,6.2 -7.051,6.163 -10.307,2.907 -10.593,2.621 -10.679,2.191 -10.523,1.817 -10.369,1.444 -10.004,1.2 -9.6,1.2 c 4.59,0 8.364,-2.772 8.402,-2.801 0.18,-0.133 0.389,-0.198 0.597,-0.198 0.305,0 0.606,0.139 0.802,0.401 C 0.531,-0.956 0.441,-0.331 0,0"
                 inkscape:connector-curvature="0" />
            </g>
            <g
               transform="translate(15.707,21.707)"
               id="g197">
              <path
                 id="path199"
                 style="fill:#664500;fill-opacity:1;fill-rule:nonzero;stroke:none"
                 d="m 0,0 c -3.255,3.255 -8.486,3.293 -8.707,3.293 -0.552,0 -0.999,-0.447 -0.999,-0.999 -0.001,-0.551 0.446,-1 0.998,-1.001 0.026,0 1.558,-0.016 3.36,-0.536 -0.22,-0.261 -0.359,-0.595 -0.359,-0.964 0,-0.123 0.019,-0.241 0.047,-0.356 -2.716,-0.918 -4.533,-2.259 -4.647,-2.344 -0.442,-0.331 -0.531,-0.958 -0.2,-1.4 0.196,-0.262 0.497,-0.4 0.801,-0.4 0.208,0 0.419,0.065 0.599,0.2 0.037,0.028 3.787,2.8 8.4,2.8 0.404,0 0.769,0.244 0.924,0.617 C 0.372,-0.716 0.286,-0.286 0,0"
                 inkscape:connector-curvature="0" />
            </g>
            <g
               transform="translate(16,7)"
               id="g201">
              <path
                 id="path203"
                 style="fill:#664500;fill-opacity:1;fill-rule:nonzero;stroke:none"
                 d="M 0,0 C 2,5 13,5 13,3 13,2 5,4 0,0"
                 inkscape:connector-curvature="0" />
            </g>
            <g
               transform="translate(18.4059,17.9672)"
               id="g205">
              <path
                 id="path207"
                 style="fill:#ccd6dd;fill-opacity:1;fill-rule:nonzero;stroke:none"
                 d="m 0,0 c 2.678,-2.676 -3.974,-15.524 -5.25,-16.8 -1.05,-1.05 -4.2,-1.05 -5.25,1.05 -1.05,2.1 -4.2,0 -5.25,1.05 -2.1,2.1 1.05,3.15 0,5.25 -1.05,2.1 -3.15,3.15 -1.05,5.25 2.1,2.1 7.35,1.05 10.5,3.15 3.15,2.1 5.249,2.1 6.3,1.05"
                 inkscape:connector-curvature="0" />
            </g>
            <g
               transform="translate(17.3217,16.128)"
               id="g209">
              <path
                 id="path211"
                 style="fill:#f5f8fa;fill-opacity:1;fill-rule:nonzero;stroke:none"
                 d="m 0,0 c -0.016,0.062 -0.053,0.113 -0.079,0.17 -0.03,0.066 -0.051,0.135 -0.094,0.194 -0.161,0.217 -0.405,0.374 -0.694,0.415 0,0 -0.001,0 -0.001,0 C -1.005,0.798 -1.142,0.79 -1.274,0.757 -1.364,0.734 -1.443,0.685 -1.523,0.64 -1.561,0.619 -1.604,0.61 -1.639,0.584 -1.75,0.502 -1.845,0.399 -1.917,0.279 c -2.934,-4.89 -9.942,-7.944 -10.013,-7.975 -0.532,-0.229 -0.778,-0.846 -0.55,-1.379 0.171,-0.398 0.558,-0.636 0.965,-0.636 0.138,0 0.279,0.027 0.413,0.085 0.224,0.096 4.056,1.771 7.426,4.713 -2.068,-3.825 -5.23,-5.996 -5.274,-6.025 -0.481,-0.323 -0.61,-0.974 -0.288,-1.456 0.203,-0.303 0.535,-0.467 0.874,-0.467 0.2,0 0.402,0.058 0.581,0.177 0.273,0.182 6.702,4.549 7.806,12.273 C 0.043,-0.272 0.034,-0.133 0,0"
                 inkscape:connector-curvature="0" />
            </g>
          </g>
        </g>
      </g>
    </g>
    <g
       transform="matrix(0.86191898,-0.09059133,0.09059133,0.86191898,133.21795,97.816765)"
       id="g213">
      <g
         transform="matrix(1.25,0,0,-1.25,0,45)"
         id="g215">
        <g
           id="g217">
          <g
             clip-path="url(#clipPath16)"
             id="g219">
            <g
               transform="translate(31,25)"
               id="g221">
              <path
                 id="path223"
                 style="fill:#ea596e;fill-opacity:1;fill-rule:nonzero;stroke:none"
                 d="m 0,0 c 0,6 -13,11 -13,11 l 0,-25 c 0,0 13,8 13,14"
                 inkscape:connector-curvature="0" />
            </g>
            <g
               transform="translate(5.0024,25)"
               id="g225">
              <path
                 id="path227"
                 style="fill:#ea596e;fill-opacity:1;fill-rule:nonzero;stroke:none"
                 d="m 0,0 c 0,6 13,11 13,11 l 0,-25 C 13,-14 0,-6 0,0"
                 inkscape:connector-curvature="0" />
            </g>
            <g
               transform="translate(27,25)"
               id="g229">
              <path
                 id="path231"
                 style="fill:#f4abba;fill-opacity:1;fill-rule:nonzero;stroke:none"
                 d="m 0,0 c 0,-3.833 -9,-12 -9,-12 0,0 -9,8.167 -9,12 0,5 9,11 9,11 0,0 9,-6 9,-11"
                 inkscape:connector-curvature="0" />
            </g>
            <g
               transform="translate(13,20.1328)"
               id="g233">
              <path
                 id="path235"
                 style="fill:#be1931;fill-opacity:1;fill-rule:nonzero;stroke:none"
                 d="m 0,0 c 2.552,-4.254 -1.806,-9.096 -4.357,-8.245 -2.553,0.85 -3.403,-1.701 -0.851,-2.552 2.552,-0.85 8.051,0.396 11.059,3.402 0.85,0.851 1.701,0.851 1.701,0.851 L 0,0 Z"
                 inkscape:connector-curvature="0" />
            </g>
            <g
               transform="translate(23,20.1328)"
               id="g237">
              <path
                 id="path239"
                 style="fill:#be1931;fill-opacity:1;fill-rule:nonzero;stroke:none"
                 d="m 0,0 c -2.552,-4.254 1.806,-9.096 4.357,-8.245 2.553,0.85 3.404,-1.701 0.851,-2.552 -2.552,-0.85 -8.052,0.396 -11.059,3.402 -0.85,0.851 -1.701,0.851 -1.701,0.851 L 0,0 Z"
                 inkscape:connector-curvature="0" />
            </g>
            <g
               transform="translate(9,19)"
               id="g241">
              <path
                 id="path243"
                 style="fill:#ea596e;fill-opacity:1;fill-rule:nonzero;stroke:none"
                 d="m 0,0 c 2.552,-4.254 -1.369,-11.366 -3.921,-10.515 -2.552,0.851 -3.403,-1.702 -0.85,-2.552 2.552,-0.851 8.051,0.395 11.059,3.403 0.85,0.85 1.701,0.85 1.701,0.85 L 0,0 Z"
                 inkscape:connector-curvature="0" />
            </g>
            <g
               transform="translate(26.9893,19)"
               id="g245">
              <path
                 id="path247"
                 style="fill:#ea596e;fill-opacity:1;fill-rule:nonzero;stroke:none"
                 d="m 0,0 c -2.553,-4.254 1.368,-11.366 3.921,-10.515 2.552,0.851 3.402,-1.702 0.85,-2.552 -2.552,-0.851 -8.051,0.395 -11.059,3.403 -0.851,0.85 -1.701,0.85 -1.701,0.85 L 0,0 Z"
                 inkscape:connector-curvature="0" />
            </g>
            <g
               transform="translate(30.9209,3.6504)"
               id="g249">
              <path
                 id="path251"
                 style="fill:#f4abba;fill-opacity:1;fill-rule:nonzero;stroke:none"
                 d="m 0,0 c -2.322,-0.774 -6.921,5.35 -5.921,11.35 2,5 -4,7.482 -4,9.983 0,6.108 -2.031,9.735 -3.031,9.735 -1,0 -2.969,-3.627 -2.969,-9.735 0,-2.501 -6,-4.983 -4,-9.983 1,-6 -3.599,-12.124 -5.921,-11.35 -2.552,0.851 -3.403,-2.552 -0.85,-3.402 2.552,-0.851 7.068,0.533 10.208,3.402 1.862,1.702 3.563,1.702 3.563,1.702 0,0 1.701,0 3.564,-1.702 3.138,-2.869 7.656,-4.253 10.208,-3.402 C 3.402,-2.552 2.552,0.851 0,0"
                 inkscape:connector-curvature="0" />
            </g>
            <g
               transform="translate(17,12.5)"
               id="g253">
              <path
                 id="path255"
                 style="fill:#292f33;fill-opacity:1;fill-rule:nonzero;stroke:none"
                 d="M 0,0 C 0,-1.381 -1.119,-2.5 -2.5,-2.5 -3.881,-2.5 -5,-1.381 -5,0 -5,1.381 -3.881,2.5 -2.5,2.5 -1.119,2.5 0,1.381 0,0"
                 inkscape:connector-curvature="0" />
            </g>
            <g
               transform="translate(24,12.5)"
               id="g56">
              <path
                 id="path58"
                 style="fill:#292f33;fill-opacity:1;fill-rule:nonzero;stroke:none"
                 d="M 0,0 C 0,-1.381 -1.119,-2.5 -2.5,-2.5 -3.881,-2.5 -5,-1.381 -5,0 -5,1.381 -3.881,2.5 -2.5,2.5 -1.119,2.5 0,1.381 0,0"
                 inkscape:connector-curvature="0" />
            </g>
          </g>
        </g>
      </g>
    </g>
    <g
       transform="matrix(0.79184698,-0.55445722,0.55445722,0.79184698,48.886851,86.131181)"
       id="g259">
      <g
         transform="matrix(1.25,0,0,-1.25,0,47.5)"
         id="g261">
        <g
           id="g263">
          <g
             clip-path="url(#clipPath16)"
             id="g265">
            <g
               transform="translate(25.8799,3.9033)"
               id="g267">
              <path
                 id="path269"
                 style="fill:#ffac33;fill-opacity:1;fill-rule:nonzero;stroke:none"
                 d="m 0,0 c -0.098,0.18 -0.25,0.302 -0.418,0.391 -1.597,1.706 -0.462,3.707 -0.462,3.707 0,0.552 1,2 0,2 l -1,-1 c -1,-1 -1,-4 -1,-4 l -2,0 c -0.553,0 -1,-0.448 -1,-1 0,-0.553 0.447,-1 1,-1 l 1.108,0 -0.222,-0.12 c -0.486,-0.263 -0.667,-0.87 -0.404,-1.356 0.262,-0.486 0.869,-0.667 1.355,-0.404 l 2.639,1.427 C 0.082,-1.093 0.263,-0.486 0,0"
                 inkscape:connector-curvature="0" />
            </g>
            <g
               transform="translate(18.8799,3.9033)"
               id="g271">
              <path
                 id="path273"
                 style="fill:#ffac33;fill-opacity:1;fill-rule:nonzero;stroke:none"
                 d="m 0,0 c -0.097,0.18 -0.25,0.302 -0.417,0.391 -1.597,1.706 -0.463,3.707 -0.463,3.707 0,0.552 1,2 0,2 l -1,-1 c -1,-1 -1,-4 -1,-4 l -2,0 c -0.553,0 -1,-0.448 -1,-1 0,-0.553 0.447,-1 1,-1 l 1.108,0 -0.222,-0.12 c -0.486,-0.263 -0.667,-0.87 -0.404,-1.356 0.262,-0.486 0.869,-0.667 1.355,-0.404 l 2.639,1.427 C 0.082,-1.093 0.263,-0.486 0,0"
                 inkscape:connector-curvature="0" />
            </g>
            <g
               transform="translate(8.5156,27)"
               id="g275">
              <path
                 id="path277"
                 style="fill:#ffac33;fill-opacity:1;fill-rule:nonzero;stroke:none"
                 d="M 0,0 C 0,-1.104 -1.119,-2 -2.5,-2 -3.881,-2 -6,-1 -6,0 -6,1 -3.881,2 -2.5,2 -1.119,2 0,1.104 0,0"
                 inkscape:connector-curvature="0" />
            </g>
            <g
               transform="translate(14.5156,35)"
               id="g279">
              <path
                 id="path281"
                 style="fill:#dd2e44;fill-opacity:1;fill-rule:nonzero;stroke:none"
                 d="m 0,0 c -2,1 -3,-1 -3,-1 0,0 0,3 -3,3 -3,0 -3,-3 -3,-3 0,0 -3,0.938 -3,-2 0,-1.482 1.101,-2.411 2.484,-2.387 l 0,-4.613 c 0,-1 0.264,-3 -0.736,-4 -1,-1 -2.485,-4 0.515,-4 3,0 3,4 3,7 1,-1 4,-1 4,4 0,0.867 -0.213,1.512 -0.55,2 L -2,-5 c 4,0 4,4 2,5"
                 inkscape:connector-curvature="0" />
            </g>
            <g
               transform="translate(33.5156,28)"
               id="g283">
              <path
                 id="path285"
                 style="fill:#e1e8ed;fill-opacity:1;fill-rule:nonzero;stroke:none"
                 d="m 0,0 c 4,-10 0,-22 -13,-22 -7.732,0 -13,6 -14,11 -1.177,5.883 -1,8 -1,12 0,2.738 2.118,4.824 5,4 7,-2 5,-10 12,-10 10,0 8.23,11.923 11,5"
                 inkscape:connector-curvature="0" />
            </g>
            <g
               transform="translate(9.5156,29)"
               id="g287">
              <path
                 id="path289"
                 style="fill:#292f33;fill-opacity:1;fill-rule:nonzero;stroke:none"
                 d="m 0,0 c 0,-0.552 -0.447,-1 -1,-1 -0.553,0 -1,0.448 -1,1 0,0.552 0.447,1 1,1 0.553,0 1,-0.448 1,-1"
                 inkscape:connector-curvature="0" />
            </g>
          </g>
        </g>
      </g>
    </g>
    <g
       transform="matrix(0.15049509,0.85350005,-0.85350005,0.15049509,70.537764,34.863902)"
       id="g291">
      <g
         transform="matrix(1.25,0,0,-1.25,0,45)"
         id="g293">
        <g
           id="g295">
          <g
             clip-path="url(#clipPath16)"
             id="g297">
            <g
               transform="translate(3.9233,13.0771)"
               id="g299">
              <path
                 id="path301"
                 style="fill:#66757f;fill-opacity:1;fill-rule:nonzero;stroke:none"
                 d="m 0,0 c -0.212,-0.511 -0.798,-0.751 -1.308,-0.539 -0.509,0.213 -0.751,0.798 -0.538,1.308 L 2.77,13.307 c 0.212,0.51 0.797,0.751 1.307,0.539 0.51,-0.213 0.751,-0.798 0.539,-1.308 L 0,0 Z"
                 inkscape:connector-curvature="0" />
            </g>
            <g
               transform="translate(13.9229,13.8457)"
               id="g303">
              <path
                 id="path305"
                 style="fill:#66757f;fill-opacity:1;fill-rule:nonzero;stroke:none"
                 d="m 0,0 c 0.212,-0.51 -0.029,-1.095 -0.539,-1.308 -0.509,-0.212 -1.095,0.029 -1.307,0.539 L -6.462,11.77 c -0.212,0.509 0.029,1.095 0.539,1.307 0.509,0.213 1.095,-0.029 1.307,-0.538 L 0,0 Z"
                 inkscape:connector-curvature="0" />
            </g>
            <g
               transform="translate(23.9238,13.0771)"
               id="g307">
              <path
                 id="path309"
                 style="fill:#66757f;fill-opacity:1;fill-rule:nonzero;stroke:none"
                 d="m 0,0 c -0.213,-0.511 -0.799,-0.751 -1.309,-0.539 -0.509,0.213 -0.75,0.798 -0.538,1.308 L 2.77,13.307 c 0.212,0.51 0.796,0.751 1.306,0.539 0.51,-0.213 0.752,-0.798 0.539,-1.308 L 0,0 Z"
                 inkscape:connector-curvature="0" />
            </g>
            <g
               transform="translate(33.9229,13.8457)"
               id="g311">
              <path
                 id="path313"
                 style="fill:#66757f;fill-opacity:1;fill-rule:nonzero;stroke:none"
                 d="m 0,0 c 0.212,-0.51 -0.028,-1.095 -0.538,-1.308 -0.51,-0.212 -1.096,0.029 -1.309,0.539 L -6.462,11.77 c -0.213,0.509 0.029,1.095 0.539,1.307 0.51,0.213 1.095,-0.029 1.307,-0.538 L 0,0 Z"
                 inkscape:connector-curvature="0" />
            </g>
            <g
               transform="translate(14.8569,14)"
               id="g315">
              <path
                 id="path317"
                 style="fill:#ffac33;fill-opacity:1;fill-rule:nonzero;stroke:none"
                 d="m 0,0 -13.714,0 c -0.631,0 -1.143,-0.511 -1.143,-1.143 0,-2.524 3.582,-4.571 8,-4.571 4.419,0 8,2.047 8,4.571 C 1.143,-0.511 0.631,0 0,0"
                 inkscape:connector-curvature="0" />
            </g>
            <g
               transform="translate(24,2)"
               id="g319">
              <path
                 id="path321"
                 style="fill:#ffac33;fill-opacity:1;fill-rule:nonzero;stroke:none"
                 d="m 0,0 -12,0 c -0.552,0 -1,0.447 -1,1 0,2.209 3.134,4 7,4 C -2.134,5 1,3.209 1,1 1,0.447 0.553,0 0,0"
                 inkscape:connector-curvature="0" />
            </g>
            <g
               transform="translate(34.8574,14)"
               id="g323">
              <path
                 id="path325"
                 style="fill:#ffac33;fill-opacity:1;fill-rule:nonzero;stroke:none"
                 d="m 0,0 -13.715,0 c -0.632,0 -1.142,-0.511 -1.142,-1.143 0,-2.524 3.581,-4.571 8,-4.571 4.418,0 8,2.047 8,4.571 C 1.143,-0.511 0.632,0 0,0"
                 inkscape:connector-curvature="0" />
            </g>
            <g
               transform="translate(19,33)"
               id="g327">
              <path
                 id="path329"
                 style="fill:#ffac33;fill-opacity:1;fill-rule:nonzero;stroke:none"
                 d="M 0,0 C 0,0.552 -0.447,1 -1,1 -1.552,1 -2,0.552 -2,0 l 0,-27 c 0,-0.553 0.448,-1 1,-1 0.553,0 1,0.447 1,1 L 0,0 Z"
                 inkscape:connector-curvature="0" />
            </g>
            <g
               transform="translate(20,32)"
               id="g331">
              <path
                 id="path333"
                 style="fill:#ffac33;fill-opacity:1;fill-rule:nonzero;stroke:none"
                 d="m 0,0 c 0,-1.104 -0.895,-2 -2,-2 -1.104,0 -2,0.896 -2,2 0,1.105 0.896,2 2,2 1.105,0 2,-0.895 2,-2"
                 inkscape:connector-curvature="0" />
            </g>
            <g
               transform="translate(10,26)"
               id="g335">
              <path
                 id="path337"
                 style="fill:#ffac33;fill-opacity:1;fill-rule:nonzero;stroke:none"
                 d="m 0,0 c 0,-1.104 -0.895,-2 -2,-2 -1.104,0 -2,0.896 -2,2 0,1.105 0.896,2 2,2 1.105,0 2,-0.895 2,-2"
                 inkscape:connector-curvature="0" />
            </g>
            <g
               transform="translate(30,26)"
               id="g60">
              <path
                 id="path62"
                 style="fill:#ffac33;fill-opacity:1;fill-rule:nonzero;stroke:none"
                 d="m 0,0 c 0,-1.104 -0.895,-2 -2,-2 -1.104,0 -2,0.896 -2,2 0,1.105 0.896,2 2,2 1.105,0 2,-0.895 2,-2"
                 inkscape:connector-curvature="0" />
            </g>
            <g
               transform="translate(28,26)"
               id="g64">
              <path
                 id="path66"
                 style="fill:#ffac33;fill-opacity:1;fill-rule:nonzero;stroke:none"
                 d="m 0,0 c 0,-1.104 0,0 -10,0 -10,0 -10,-1.104 -10,0 0,1.105 3,4 10,4 C -3,4 0,1.105 0,0"
                 inkscape:connector-curvature="0" />
            </g>
          </g>
        </g>
      </g>
    </g>
    <g
       transform="matrix(0.13860779,-0.6520984,0.6520984,0.13860779,16.496147,105.89613)"
       id="g343">
      <g
         transform="matrix(1.25,0,0,-1.25,0,47.5)"
         id="g345">
        <g
           id="g347">
          <g
             clip-path="url(#clipPath16)"
             id="g349">
            <g
               transform="translate(37,19)"
               id="g351">
              <path
                 id="path353"
                 style="fill:#ccd6dd;fill-opacity:1;fill-rule:nonzero;stroke:none"
                 d="m 0,0 c 0,-9.941 -8.059,-18 -18,-18 -0.294,0 -0.58,0.029 -0.87,0.043 C -24.761,-15.393 -29,-8.332 -29,0 c 0,8.331 4.239,15.393 10.13,17.956 C -18.58,17.97 -18.294,18 -18,18 -8.059,18 0,9.941 0,0"
                 inkscape:connector-curvature="0" />
            </g>
            <g
               transform="translate(8,19)"
               id="g355">
              <path
                 id="path357"
                 style="fill:#66757f;fill-opacity:1;fill-rule:nonzero;stroke:none"
                 d="M 0,0 C 0,8.331 4.239,15.393 10.13,17.956 0.596,17.499 -7,9.647 -7,0 -7,-9.646 0.594,-17.498 10.128,-17.956 4.238,-15.391 0,-8.331 0,0"
                 inkscape:connector-curvature="0" />
            </g>
            <g
               transform="translate(23,28.5)"
               id="g359">
              <path
                 id="path361"
                 style="fill:#b8c5cd;fill-opacity:1;fill-rule:nonzero;stroke:none"
                 d="M 0,0 C 0,-1.933 1.566,-3.5 3.5,-3.5 5.434,-3.5 7,-1.933 7,0 7,1.933 5.434,3.5 3.5,3.5 1.566,3.5 0,1.933 0,0"
                 inkscape:connector-curvature="0" />
            </g>
            <g
               transform="translate(14,21)"
               id="g363">
              <path
                 id="path365"
                 style="fill:#b8c5cd;fill-opacity:1;fill-rule:nonzero;stroke:none"
                 d="M 0,0 C 0,-1.657 1.343,-3 3,-3 4.657,-3 6,-1.657 6,0 6,1.657 4.657,3 3,3 1.343,3 0,1.657 0,0"
                 inkscape:connector-curvature="0" />
            </g>
            <g
               transform="translate(12,9.5)"
               id="g367">
              <path
                 id="path369"
                 style="fill:#b8c5cd;fill-opacity:1;fill-rule:nonzero;stroke:none"
                 d="M 0,0 C 0,-1.934 1.566,-3.5 3.5,-3.5 5.434,-3.5 7,-1.934 7,0 7,1.934 5.434,3.5 3.5,3.5 1.566,3.5 0,1.934 0,0"
                 inkscape:connector-curvature="0" />
            </g>
            <g
               transform="translate(14,31)"
               id="g371">
              <path
                 id="path373"
                 style="fill:#b8c5cd;fill-opacity:1;fill-rule:nonzero;stroke:none"
                 d="M 0,0 C 0,-1.104 0.896,-2 2,-2 3.104,-2 4,-1.104 4,0 4,1.104 3.104,2 2,2 0.896,2 0,1.104 0,0"
                 inkscape:connector-curvature="0" />
            </g>
            <g
               transform="translate(35,19)"
               id="g375">
              <path
                 id="path377"
                 style="fill:#b8c5cd;fill-opacity:1;fill-rule:nonzero;stroke:none"
                 d="m 0,0 c 0,-0.553 -0.447,-1 -1,-1 -0.553,0 -1,0.447 -1,1 0,0.552 0.447,1 1,1 0.553,0 1,-0.448 1,-1"
                 inkscape:connector-curvature="0" />
            </g>
            <g
               transform="translate(8,28)"
               id="g379">
              <path
                 id="path381"
                 style="fill:#5b6876;fill-opacity:1;fill-rule:nonzero;stroke:none"
                 d="m 0,0 c 0,-0.553 -0.447,-1 -1,-1 -0.553,0 -1,0.447 -1,1 0,0.552 0.447,1 1,1 0.553,0 1,-0.448 1,-1"
                 inkscape:connector-curvature="0" />
            </g>
            <g
               transform="translate(23,6)"
               id="g383">
              <path
                 id="path385"
                 style="fill:#b8c5cd;fill-opacity:1;fill-rule:nonzero;stroke:none"
                 d="m 0,0 c 0,-0.553 -0.447,-1 -1,-1 -0.553,0 -1,0.447 -1,1 0,0.553 0.447,1 1,1 0.553,0 1,-0.447 1,-1"
                 inkscape:connector-curvature="0" />
            </g>
            <g
               transform="translate(3,18)"
               id="g387">
              <path
                 id="path389"
                 style="fill:#5b6876;fill-opacity:1;fill-rule:nonzero;stroke:none"
                 d="M 0,0 C 0,-1.104 0.896,-2 2,-2 3.104,-2 4,-1.104 4,0 4,1.104 3.104,2 2,2 0.896,2 0,1.104 0,0"
                 inkscape:connector-curvature="0" />
            </g>
            <g
               transform="translate(25,14)"
               id="g391">
              <path
                 id="path393"
                 style="fill:#b8c5cd;fill-opacity:1;fill-rule:nonzero;stroke:none"
                 d="M 0,0 C 0,-1.104 0.896,-2 2,-2 3.104,-2 4,-1.104 4,0 4,1.104 3.104,2 2,2 0.896,2 0,1.104 0,0"
                 inkscape:connector-curvature="0" />
            </g>
          </g>
        </g>
      </g>
    </g>
    <g
       transform="matrix(0.89124126,-0.12525579,0.12525579,0.89124126,100.67876,62.640983)"
       id="g395">
      <g
         transform="matrix(1.25,0,0,-1.25,0,47.5)"
         id="g397">
        <g
           id="g399">
          <g
             clip-path="url(#clipPath16)"
             id="g401">
            <g
               transform="translate(36.0664,1.9336)"
               id="g403">
              <path
                 id="path405"
                 style="fill:#ffac33;fill-opacity:1;fill-rule:nonzero;stroke:none"
                 d="m 0,0 c -0.766,-0.766 -2.006,-0.766 -2.771,0 l -20.097,20.096 c -0.766,0.766 -0.766,2.008 0,2.773 0.765,0.765 2.007,0.765 2.772,0 L 0,2.771 C 0.766,2.008 0.766,0.766 0,0"
                 inkscape:connector-curvature="0" />
            </g>
            <g
               transform="translate(28.7998,22.9199)"
               id="g407">
              <path
                 id="path409"
                 style="fill:#dd2e44;fill-opacity:1;fill-rule:nonzero;stroke:none"
                 d="m 0,0 c 0,-7.576 -6.142,-13.72 -13.72,-13.72 -7.577,0 -13.719,6.144 -13.719,13.72 0,7.578 6.142,13.72 13.719,13.72 C -6.142,13.72 0,7.578 0,0"
                 inkscape:connector-curvature="0" />
            </g>
            <g
               transform="translate(17.0859,22.1724)"
               id="g411">
              <path
                 id="path413"
                 style="fill:#f4900c;fill-opacity:1;fill-rule:nonzero;stroke:none"
                 d="m 0,0 c 0.161,0.086 0.288,0.211 0.376,0.356 -0.071,-0.565 -0.406,-1.09 -0.946,-1.378 -0.297,-0.158 -0.637,-0.19 -0.957,-0.093 -0.321,0.098 -0.585,0.314 -0.743,0.611 -0.209,0.393 -0.06,0.884 0.333,1.094 0.067,0.036 0.14,0.053 0.212,0.053 0.161,0 0.318,-0.087 0.399,-0.239 C -1.071,-0.074 -0.478,-0.256 0,0 m 1.325,-12.548 c -1.459,-0.092 -2.938,0.065 -4.379,0.503 -3.155,0.961 -5.748,3.092 -7.3,6.003 -1.217,2.282 -1.473,4.901 -0.719,7.375 0.752,2.474 2.424,4.508 4.706,5.724 1.781,0.95 3.822,1.15 5.752,0.561 C 1.314,7.032 2.899,5.728 3.848,3.948 4.582,2.571 4.736,0.99 4.281,-0.503 3.827,-1.997 2.819,-3.224 1.441,-3.959 0.385,-4.521 -0.826,-4.641 -1.971,-4.292 c -1.144,0.348 -2.085,1.123 -2.648,2.178 -0.879,1.648 -0.253,3.704 1.395,4.583 0.593,0.317 1.272,0.384 1.915,0.187 0.231,-0.07 0.447,-0.171 0.644,-0.3 -0.672,0.328 -1.486,0.34 -2.194,-0.037 -1.347,-0.718 -1.858,-2.399 -1.14,-3.746 0.404,-0.758 1.079,-1.313 1.901,-1.564 0.822,-0.25 1.692,-0.165 2.45,0.24 1.836,0.98 2.534,3.271 1.555,5.107 -0.562,1.055 -1.502,1.828 -2.645,2.175 -1.143,0.348 -2.353,0.23 -3.408,-0.332 -2.602,-1.388 -3.59,-4.633 -2.202,-7.236 0.809,-1.517 2.161,-2.629 3.806,-3.13 1.646,-0.5 3.388,-0.33 4.906,0.479 1.839,0.98 3.187,2.62 3.794,4.614 0.606,1.994 0.4,4.105 -0.58,5.945 -1.195,2.241 -3.193,3.883 -5.622,4.623 -2.432,0.74 -5.004,0.489 -7.245,-0.707 -2.744,-1.464 -4.754,-3.908 -5.66,-6.883 -0.905,-2.976 -0.598,-6.125 0.866,-8.869 0.917,-1.721 2.151,-3.202 3.623,-4.392 1.923,-1.028 4.12,-1.615 6.454,-1.615 1.152,0 2.263,0.157 3.331,0.424"
                 inkscape:connector-curvature="0" />
            </g>
            <g
               transform="translate(15.6558,22.498)"
               id="g415">
              <path
                 id="path417"
                 style="fill:#ffcc4d;fill-opacity:1;fill-rule:nonzero;stroke:none"
                 d="m 0,0 c -0.054,-0.143 -0.16,-0.255 -0.297,-0.318 -0.554,-0.249 -0.8,-0.9 -0.55,-1.453 0.119,-0.265 0.328,-0.458 0.576,-0.562 -0.202,0.016 -0.402,0.061 -0.597,0.134 -0.54,0.204 -0.969,0.606 -1.206,1.133 -0.166,0.366 -0.179,0.777 -0.036,1.154 0.142,0.376 0.423,0.676 0.791,0.841 0.129,0.059 0.267,0.088 0.405,0.088 0.118,0 0.236,-0.021 0.349,-0.064 C -0.318,0.859 -0.123,0.677 -0.014,0.436 0.049,0.296 0.053,0.142 0,0 m 9.859,6.003 c -1.569,3.473 -6.117,7.313 -11.772,7.935 -0.212,0.023 -0.422,0.033 -0.633,0.047 -3.6,-0.52 -6.743,-2.429 -8.871,-5.176 3.382,2.808 6.776,3.214 9.264,2.943 C 2.684,11.22 6.542,8.001 7.854,5.098 9.863,0.65 7.877,-4.604 3.43,-6.612 1.761,-7.367 -0.104,-7.425 -1.817,-6.777 c -1.715,0.646 -3.075,1.923 -3.829,3.594 -1.195,2.647 -0.015,5.774 2.632,6.97 2.007,0.906 4.38,0.01 5.286,-1.996 C 2.836,0.54 2.462,-0.9 1.45,-1.733 1.713,-1.463 1.92,-1.14 2.057,-0.777 2.318,-0.085 2.294,0.667 1.99,1.341 1.64,2.116 1.009,2.709 0.213,3.01 -0.584,3.311 -1.45,3.284 -2.224,2.933 -3.127,2.526 -3.817,1.792 -4.167,0.865 c -0.35,-0.927 -0.319,-1.934 0.089,-2.837 0.479,-1.061 1.343,-1.872 2.432,-2.284 1.09,-0.412 2.276,-0.373 3.336,0.105 2.599,1.174 3.76,4.246 2.586,6.847 -1.404,3.111 -5.083,4.497 -8.195,3.095 -3.752,-1.696 -5.425,-6.128 -3.731,-9.88 0.997,-2.206 2.792,-3.891 5.056,-4.745 1.041,-0.394 2.124,-0.59 3.205,-0.59 1.268,0 2.534,0.27 3.725,0.808 5.551,2.509 8.03,9.066 5.523,14.619"
                 inkscape:connector-curvature="0" />
            </g>
          </g>
        </g>
      </g>
    </g>
  </g>
</svg>
