<?xml version="1.0" encoding="UTF-8" standalone="no"?>
<svg
   xmlns:dc="http://purl.org/dc/elements/1.1/"
   xmlns:cc="http://creativecommons.org/ns#"
   xmlns:rdf="http://www.w3.org/1999/02/22-rdf-syntax-ns#"
   xmlns:svg="http://www.w3.org/2000/svg"
   xmlns="http://www.w3.org/2000/svg"
   xmlns:sodipodi="http://sodipodi.sourceforge.net/DTD/sodipodi-0.dtd"
   xmlns:inkscape="http://www.inkscape.org/namespaces/inkscape"
   version="1.1"
   id="svg2"
   viewBox="0 0 200 200"
   height="200px"
   width="200px"
   inkscape:version="0.91 r13725"
   sodipodi:docname="68.svg">
  <metadata
     id="metadata569">
    <rdf:RDF>
      <cc:Work
         rdf:about="">
        <dc:format>image/svg+xml</dc:format>
        <dc:type
           rdf:resource="http://purl.org/dc/dcmitype/StillImage" />
      </cc:Work>
    </rdf:RDF>
  </metadata>
  <sodipodi:namedview
     pagecolor="#ffffff"
     bordercolor="#666666"
     borderopacity="1"
     objecttolerance="10"
     gridtolerance="10"
     guidetolerance="10"
     inkscape:pageopacity="0"
     inkscape:pageshadow="2"
     inkscape:window-width="1920"
     inkscape:window-height="1060"
     id="namedview567"
     showgrid="false"
     inkscape:zoom="4.32"
     inkscape:cx="100"
     inkscape:cy="100"
     inkscape:window-x="0"
     inkscape:window-y="0"
     inkscape:window-maximized="1"
     inkscape:current-layer="layer1" />
  
    
    
    <defs id="defs6">

        <clipPath
           id="clipPath28"
           clipPathUnits="userSpaceOnUse">
          <path
             id="path30"
             d="M 4,36 C 0,36 0,32 0,32 L 0,32 0,4 C 0,0 4,0 4,0 l 0,0 28,0 c 4,0 4,4 4,4 l 0,0 0,28 c 0,4 -4,4 -4,4 l 0,0 -28,0 z" />
        </clipPath>


        <clipPath clipPathUnits="userSpaceOnUse" id="clipPath16-rugby">
            <path d="M 0,38 38,38 38,0 0,0 0,38 Z" id="path18"/>
        </clipPath>
        <clipPath clipPathUnits="userSpaceOnUse" id="clipPath28-rugby">
            <path d="M 9.254,28.746 C 2.09,21.582 -0.927,9.561 3.929,3.929 l 0,0 C 9.561,-0.927 21.582,2.09 28.746,9.254 l 0,0 c 7.164,7.164 11.229,17.088 5.324,24.816 l 0,0 c -1.886,1.627 -4.489,2.371 -7.387,2.37 l 0,0 c -5.752,0 -12.665,-2.93 -17.429,-7.694" id="path30"/>
        </clipPath>

        <clipPath clipPathUnits="userSpaceOnUse" id="clipPath16-carrot">
            <path d="M 0,36 36,36 36,0 0,0 0,36 Z" id="path18"/>
        </clipPath>
        <clipPath clipPathUnits="userSpaceOnUse" id="clipPath32-carrot">
            <path d="M 11.815,23.013 C 4.2,15.397 -1.265,2.86 0.502,1.093 l 0,0 c 1.768,-1.768 14.305,3.698 21.92,11.313 l 0,0 c 7.616,7.615 7.562,11.53 4.243,14.85 l 0,0 c -1.328,1.328 -2.752,2.133 -4.47,2.133 l 0,0 c -2.575,0 -5.812,-1.809 -10.38,-6.376" id="path34"/>
        </clipPath>

        <clipPath clipPathUnits="userSpaceOnUse" id="clipPath32-hat">
            <path d="m 5,33.666 c 0,-0.034 0.018,-0.067 0.022,-0.101 l 0,0 C 5.008,33.455 5,33.335 5,33.2 l 0,0 L 6.802,9.616 C 3.299,8.705 1,7.424 1,6 L 1,6 C 1,3.238 9.611,1 19,1 l 0,0 c 9.389,0 18,2.238 18,5 l 0,0 c 0,1.424 -2.298,2.705 -5.801,3.616 l 0,0 L 33,33.184 c 0,0.135 -0.008,0.263 -0.021,0.373 l 0,0 C 32.982,33.591 33,33.632 33,33.666 l 0,0 c 0,1.805 -6.268,3.267 -14,3.267 l 0,0 c -7.732,0 -14,-1.462 -14,-3.267" id="path34"/>
        </clipPath>


        <clipPath clipPathUnits="userSpaceOnUse" id="clipPath48-soccer">
            <path d="M 1,19 C 1,9.059 9.059,1 19,1 l 0,0 c 9.941,0 18,8.059 18,18 l 0,0 c 0,9.941 -8.059,18 -18,18 l 0,0 C 9.059,37 1,28.941 1,19" id="path50"/>
        </clipPath>

        <clipPath clipPathUnits="userSpaceOnUse" id="clipPath28-baguette">
            <path d="M 24.052,31.33 5.126,12.406 C 1.342,8.62 1.288,4.133 2.856,2.564 l 0,0 C 4.424,0.997 8.912,1.049 12.697,4.835 l 0,0 18.925,18.924 c 3.784,3.785 3.837,8.273 2.269,9.841 l 0,0 c -0.605,0.606 -1.647,0.969 -2.915,0.969 l 0,0 c -2.014,0 -4.602,-0.917 -6.924,-3.239" id="path30"/>
        </clipPath>
    </defs>



  <g
     id="layer1">
    <circle
       style="opacity:1;fill:white;stroke:black;stroke-width:1;stroke-miterlimit:4;stroke-dasharray:none;stroke-opacity:0.1"
       id="path4039-0-9"
       cx="100px"
       cy="100px"
       r="90px" />
    <g
       transform="matrix(0.82845437,-0.35165802,0.35165802,0.82845437,16.766645,71.877468)"
       id="g8">
      <g
         transform="matrix(1.25,0,0,-1.25,0,45)"
         id="g10">
        <g
           id="g12">
          <g
             clip-path="url(#clipPath16)"
             id="g14">
            <g
               transform="translate(12.375,29.6667)"
               id="g20">
              <path
                 id="path22"
                 style="fill:#7c533e;fill-opacity:1;fill-rule:nonzero;stroke:none"
                 d="m 0,0 c -1,-1 0.624,-0.666 1.624,-2.666 1,-2 4.001,-1 3,1 -0.211,0.422 -1.044,1.096 -1.731,1.604 0,0 0.586,0.687 0.274,1.416 C 2.854,2.083 0,0 0,0"
                 inkscape:connector-curvature="0" />
            </g>
            <g
               transform="translate(11.9783,33.7041)"
               id="g24">
              <path
                 id="path26"
                 style="fill:#7c533e;fill-opacity:1;fill-rule:nonzero;stroke:none"
                 d="m 0,0 c -1.54,-0.04 -2.756,-1.32 -2.717,-2.86 0.04,-1.541 1.321,-2.757 2.861,-2.717 1.54,0.04 2.756,1.32 2.716,2.86 C 2.821,-1.177 1.54,0.04 0,0"
                 inkscape:connector-curvature="0" />
            </g>
            <g
               transform="translate(19.9534,32.1458)"
               id="g28">
              <path
                 id="path18"
                 style="fill:#0b0200;fill-opacity:1;fill-rule:nonzero;stroke:none"
                 d="m 0,0 c -0.855,-0.237 -1.891,-0.562 -3.461,0.583 -1.121,0.818 -2.167,1.09 -4.369,0.608 -2.338,-0.511 -3.981,-2.233 -2.32,-2.708 0.725,-0.208 1.247,0.07 2.341,0.184 1.606,0.166 2.258,-1.189 3.814,-1.188 C -0.949,-2.518 1.276,0.354 0,0"
                 inkscape:connector-curvature="0" />
            </g>
            <g
               transform="translate(18.9995,20.0005)"
               id="g32">
              <path
                 id="path34"
                 style="fill:#664131;fill-opacity:1;fill-rule:nonzero;stroke:none"
                 d="m 0,0 c 0,0 -3,-1.999 -3,-3 0,-1.001 4,-4.001 5,-5.001 1,-1 3,-1 2,1 C 3,-5.001 0,0 0,0"
                 inkscape:connector-curvature="0" />
            </g>
            <g
               transform="translate(20.6338,12.9795)"
               id="g36">
              <path
                 id="path38"
                 style="fill:#a0041e;fill-opacity:1;fill-rule:nonzero;stroke:none"
                 d="m 0,0 c 0,0 1.173,-0.789 1.962,0.385 0.789,1.174 1.365,-1.771 1.365,-1.771 0,0 -2.559,-2.539 -4.521,-2.924 -1.963,-0.384 -1.174,0.789 -0.385,1.962 C -0.789,-1.174 0,0 0,0"
                 inkscape:connector-curvature="0" />
            </g>
            <g
               transform="translate(7.0005,2)"
               id="g40">
              <path
                 id="path42"
                 style="fill:#292f33;fill-opacity:1;fill-rule:nonzero;stroke:none"
                 d="m 0,0 c -2.761,0 -5,2.238 -5,5 0,2.762 2.239,5 5,5 C 2.761,10 5,7.762 5,5 5,2.238 2.761,0 0,0 m 0,12 c -3.866,0 -7,-3.134 -7,-7 0,-3.866 3.134,-7 7,-7 3.866,0 7,3.134 7,7 0,3.866 -3.134,7 -7,7"
                 inkscape:connector-curvature="0" />
            </g>
            <g
               transform="translate(29,2)"
               id="g44">
              <path
                 id="path46"
                 style="fill:#292f33;fill-opacity:1;fill-rule:nonzero;stroke:none"
                 d="m 0,0 c -2.761,0 -5,2.238 -5,5 0,2.762 2.239,5 5,5 C 2.762,10 5,7.762 5,5 5,2.238 2.762,0 0,0 m 0,12 c -3.865,0 -7,-3.134 -7,-7 0,-3.866 3.135,-7 7,-7 3.867,0 7,3.134 7,7 0,3.866 -3.133,7 -7,7"
                 inkscape:connector-curvature="0" />
            </g>
            <g
               transform="translate(22,16)"
               id="g48">
              <path
                 id="path50"
                 style="fill:#aab8c2;fill-opacity:1;fill-rule:nonzero;stroke:none"
                 d="M 0,0 C 0,0.553 -0.484,1 -1.083,1 L -11.917,1 C -12.515,1 -13,0.553 -13,0 c 0,-0.553 0.485,-1 1.083,-1 l 10.834,0 C -0.484,-1 0,-0.553 0,0"
                 inkscape:connector-curvature="0" />
            </g>
            <g
               transform="translate(30,7)"
               id="g52">
              <path
                 id="path54"
                 style="fill:#aab8c2;fill-opacity:1;fill-rule:nonzero;stroke:none"
                 d="m 0,0 c 0,0.553 -0.447,1 -1,1 l -11,0 c -0.552,0 -1,-0.447 -1,-1 0,-0.553 0.448,-1 1,-1 l 11,0 c 0.553,0 1,0.447 1,1"
                 inkscape:connector-curvature="0" />
            </g>
            <g
               transform="translate(21.2236,19)"
               id="g56">
              <path
                 id="path58"
                 style="fill:#aab8c2;fill-opacity:1;fill-rule:nonzero;stroke:none"
                 d="m 0,0 -4.165,-11.664 c -0.186,-0.52 0.085,-1.092 0.605,-1.277 0.111,-0.04 0.225,-0.059 0.336,-0.059 0.411,0 0.796,0.255 0.942,0.664 L 2.124,0 0,0 Z"
                 inkscape:connector-curvature="0" />
            </g>
            <g
               transform="translate(29.001,6)"
               id="g60">
              <path
                 id="path62"
                 style="fill:#aab8c2;fill-opacity:1;fill-rule:nonzero;stroke:none"
                 d="m 0,0 c -0.33,0 -0.654,0.164 -0.845,0.463 l -7,10.999 c -0.297,0.467 -0.159,1.085 0.307,1.381 0.467,0.297 1.084,0.159 1.381,-0.306 l 7,-11 C 1.14,1.071 1.002,0.453 0.536,0.156 0.369,0.051 0.184,0 0,0"
                 inkscape:connector-curvature="0" />
            </g>
            <g
               transform="translate(19,10.2656)"
               id="g64">
              <path
                 id="path66"
                 style="fill:#aab8c2;fill-opacity:1;fill-rule:nonzero;stroke:none"
                 d="M 0,0 -8.387,6.524 C -8.822,6.864 -9.45,6.785 -9.79,6.349 -10.129,5.912 -10.05,5.284 -9.614,4.945 l 9,-7 c 0.182,-0.142 0.398,-0.211 0.613,-0.211 L 0,-2.266 0,0 Z"
                 inkscape:connector-curvature="0" />
            </g>
            <g
               transform="translate(6.9995,6)"
               id="g68">
              <path
                 id="path70"
                 style="fill:#aab8c2;fill-opacity:1;fill-rule:nonzero;stroke:none"
                 d="M 0,0 C -0.104,0 -0.211,0.017 -0.316,0.052 -0.84,0.226 -1.124,0.792 -0.949,1.316 L 1.823,9.633 -1.6,12.201 c -0.442,0.331 -0.531,0.958 -0.2,1.4 0.331,0.44 0.957,0.531 1.4,0.199 L 4.177,10.367 0.949,0.684 C 0.809,0.265 0.419,0 0,0"
                 inkscape:connector-curvature="0" />
            </g>
            <g
               transform="translate(26.3828,17)"
               id="g72">
              <path
                 id="path74"
                 style="fill:#292f33;fill-opacity:1;fill-rule:nonzero;stroke:none"
                 d="m 0,0 c -0.03,0 -0.059,0.002 -0.089,0.006 l -5.672,0.708 c -0.372,0.047 -0.643,0.374 -0.62,0.748 0.024,0.374 0.333,0.664 0.707,0.665 0.041,0 4.068,0.018 5.989,1.299 C 0.565,3.594 0.898,3.583 1.14,3.4 1.379,3.215 1.477,2.899 1.381,2.612 L 0.672,0.485 C 0.575,0.192 0.302,0 0,0"
                 inkscape:connector-curvature="0" />
            </g>
            <g
               transform="translate(11,18)"
               id="g76">
              <path
                 id="path78"
                 style="fill:#292f33;fill-opacity:1;fill-rule:nonzero;stroke:none"
                 d="m 0,0 -5,0 c -0.552,0 -1,0.448 -1,1 0,0.552 0.448,1 1,1 L 0,2 C 0.552,2 1,1.552 1,1 1,0.448 0.552,0 0,0"
                 inkscape:connector-curvature="0" />
            </g>
            <g
               transform="translate(21.999,23.0005)"
               id="g80">
              <path
                 id="path82"
                 style="fill:#a0041e;fill-opacity:1;fill-rule:nonzero;stroke:none"
                 d="m 0,0 -3.999,-3 3,-3 L 0,0 Z"
                 inkscape:connector-curvature="0" />
            </g>
            <g
               transform="translate(19.999,19.0005)"
               id="g84">
              <path
                 id="path86"
                 style="fill:#7c533e;fill-opacity:1;fill-rule:nonzero;stroke:none"
                 d="m 0,0 c 0,0 -2,-3.001 -2,-4.001 0,-1 1,-4 1,-7 0,-3 2,-3 2,-2 0,1 1.581,5.419 0,7 C 0,-5.001 3,-2 3,-2 L 0,0 Z"
                 inkscape:connector-curvature="0" />
            </g>
            <g
               transform="translate(15.6845,22.7034)"
               id="g88">
              <path
                 id="path90"
                 style="fill:#7c533e;fill-opacity:1;fill-rule:nonzero;stroke:none"
                 d="m 0,0 -2.75,0.784 c -0.446,-1.957 -3.023,-4.486 -3.935,-4.486 -1,0 -2,0 -2,-1 0,-1 0,-1 2,-1 2,0 4,2 5,3 0.65,0.65 1.31,1.756 1.685,2.702"
                 inkscape:connector-curvature="0" />
            </g>
            <g
               transform="translate(21.999,23.0005)"
               id="g92">
              <path
                 id="path94"
                 style="fill:#be1931;fill-opacity:1;fill-rule:nonzero;stroke:none"
                 d="M 0,0 -3,-4 1,-7.001 C 1,-7.001 6,-2 6,0 6,2 3,3 3,3 L 0,0 Z"
                 inkscape:connector-curvature="0" />
            </g>
            <g
               transform="translate(20.9993,29.001)"
               id="g96">
              <path
                 id="path98"
                 style="fill:#dd2e44;fill-opacity:1;fill-rule:nonzero;stroke:none"
                 d="m 0,0 c -3,1 -5.585,0.414 -7,-1 -1,-1 -1,-2 -1,-4 0,-0.176 -0.03,-0.362 -0.073,-0.55 l 2.744,-0.784 C -5.127,-5.825 -5,-5.35 -5,-5 c 0,1 1,1 2,0 1,-1 2.001,-2 3.001,-2 1,0 6,4 6,4 C 3,-2 1.897,-0.632 0,0"
                 inkscape:connector-curvature="0" />
            </g>
            <g
               transform="translate(18.9995,7)"
               id="g100">
              <path
                 id="path102"
                 style="fill:#dd2e44;fill-opacity:1;fill-rule:nonzero;stroke:none"
                 d="m 0,0 c 0,0 1,-1 2,0 1,1 1,-2 1,-2 0,0 -3,-2 -5,-2 -2,0 -1,1 0,2 l 2,2 z"
                 inkscape:connector-curvature="0" />
            </g>
            <g
               transform="translate(10.9995,34.0005)"
               id="g104">
              <path
                 id="path106"
                 style="fill:#dd2e44;fill-opacity:1;fill-rule:nonzero;stroke:none"
                 d="m 0,0 c 2,1 6,0 4,-2 -1,-1 -7,-2 -7,-2 0,1 1,3 3,4"
                 inkscape:connector-curvature="0" />
            </g>
          </g>
        </g>
      </g>
    </g>
    <g
       transform="matrix(-0.92442793,0.28262598,-0.28262598,-0.92442793,126.2394,123.6627)"
       id="g58">
      <g
         transform="matrix(1.25,0,0,-1.25,0,47.5)"
         id="g61">
        <g
           id="g63">
          <g
             clip-path="url(#clipPath16)"
             id="g65">
            <g
               transform="translate(17.522,36.7676)"
               id="g67">
              <path
                 id="path69"
                 style="fill:#ea596e;fill-opacity:1;fill-rule:nonzero;stroke:none"
                 d="m 0,0 c 2.246,0 4.832,-1.375 6.703,-3.249 1.873,-1.874 3.775,-3.927 3.775,-5.998 l 0,-17.204 -15.974,-0.031 0,17.133 C -5.589,-7.844 -4.421,0 0,0"
                 inkscape:connector-curvature="0" />
            </g>
            <g
               transform="translate(20,25.6221)"
               id="g71">
              <path
                 id="path73"
                 style="fill:#dd2e44;fill-opacity:1;fill-rule:nonzero;stroke:none"
                 d="m 0,0 0,-16.622 c 0,-1.105 0.896,0 2,0 l 0,-2 c 1.104,0 2,0.895 2,2 L 4,-0.956 C 2.742,-0.851 1.35,-0.693 0,0"
                 inkscape:connector-curvature="0" />
            </g>
            <g
               transform="translate(23.0723,33.5454)"
               id="g75">
              <path
                 id="path77"
                 style="fill:#f4abba;fill-opacity:1;fill-rule:nonzero;stroke:none"
                 d="m 0,0 c 2.664,-2.391 4.277,-5.236 2.961,-6.699 -1.315,-1.464 -5.06,-0.991 -7.721,1.4 -2.661,2.39 -3.753,5.515 -2.439,6.978 C -5.883,3.143 -2.661,2.391 0,0"
                 inkscape:connector-curvature="0" />
            </g>
            <g
               transform="translate(31,3)"
               id="g79">
              <path
                 id="path81"
                 style="fill:#ffcc4d;fill-opacity:1;fill-rule:nonzero;stroke:none"
                 d="m 0,0 c 0,-1.104 -0.896,-2 -2,-2 l -18,0 c -1.104,0 -2,0.896 -2,2 l 0,6 c 0,1.104 0.896,2 2,2 L -2,8 C -0.896,8 0,7.104 0,6 L 0,0 Z"
                 inkscape:connector-curvature="0" />
            </g>
            <g
               transform="translate(32,3)"
               id="g83">
              <path
                 id="path85"
                 style="fill:#ffac33;fill-opacity:1;fill-rule:nonzero;stroke:none"
                 d="m 0,0 c 0,-1.104 -0.896,-2 -2,-2 l -20,0 c -1.104,0 -2,0.896 -2,2 l 0,1 c 0,1.104 0.896,2 2,2 L -2,3 C -0.896,3 0,2.104 0,1 L 0,0 Z"
                 inkscape:connector-curvature="0" />
            </g>
          </g>
        </g>
      </g>
    </g>
    <g
       transform="matrix(-0.60621778,-0.35,0.35,-0.60621778,124.74038,179.01816)"
       id="g87">
      <g
         transform="matrix(1.25,0,0,-1.25,0,47.5)"
         id="g89">
        <g
           id="g91">
          <g
             clip-path="url(#clipPath16)"
             id="g93">
            <g
               transform="translate(19,32.0005)"
               id="g95">
              <path
                 id="path97"
                 style="fill:#f18f26;fill-opacity:1;fill-rule:nonzero;stroke:none"
                 d="m 0,0 6,0 c 7,0 11,-7.887 11,-16 0,-15.001 -9,-15 -17,-15 -8,0 -17,0 -17,15 0,9.958 6,16 11,16 l 6,0"
                 inkscape:connector-curvature="0" />
            </g>
            <g
               transform="translate(27.9717,12.6289)"
               id="g99">
              <path
                 id="path101"
                 style="fill:#642116;fill-opacity:1;fill-rule:nonzero;stroke:none"
                 d="m 0,0 c -0.035,-0.669 -0.352,-1.405 -0.972,-2.129 -1.605,-1.873 -3.386,-1.481 -4.039,0.82 -1.224,-0.194 -2.549,-0.32 -3.961,-0.32 -7,0 -12,3 -12,3 0,-2.673 1.015,-4.438 2.465,-5.624 0.148,0.32 0.345,0.634 0.635,0.924 1.485,1.485 3.105,0.675 3.601,-1.8 0.077,-0.389 0.099,-0.733 0.096,-1.057 2.052,-0.44 4.062,-0.443 5.203,-0.443 3,0 12,0 12,8 C 3.028,1.371 1.907,0.704 0,0"
                 inkscape:connector-curvature="0" />
            </g>
            <g
               transform="translate(21.873,31.7642)"
               id="g103">
              <path
                 id="path105"
                 style="fill:#3f7123;fill-opacity:1;fill-rule:nonzero;stroke:none"
                 d="m 0,0 c 0.069,-0.42 -0.222,-0.764 -0.647,-0.764 l -4.452,0 c -0.425,0 -0.717,0.344 -0.647,0.764 L -5,4.472 c 0.07,0.42 0.476,0.764 0.901,0.764 l 2.452,0 c 0.425,0 0.832,-0.344 0.901,-0.764 L 0,0 Z"
                 inkscape:connector-curvature="0" />
            </g>
            <g
               transform="translate(17,31)"
               id="g107">
              <path
                 id="path109"
                 style="fill:#5c913b;fill-opacity:1;fill-rule:nonzero;stroke:none"
                 d="m 0,0 c 0,0 2,5 8,5 5,0 7,-5 7,-5 L 0,0 Z"
                 inkscape:connector-curvature="0" />
            </g>
            <g
               transform="translate(9.6914,25.8911)"
               id="g111">
              <path
                 id="path113"
                 style="fill:#642116;fill-opacity:1;fill-rule:nonzero;stroke:none"
                 d="M 0,0 C 0.793,1.479 2.093,1.479 2.887,-0.001 L 5.05,-4.034 C 5.845,-5.513 4.744,-6.723 2.604,-6.723 l -2.324,0 c -2.139,0 -3.239,1.21 -2.446,2.689 L 0,0 Z"
                 inkscape:connector-curvature="0" />
            </g>
            <g
               transform="translate(25.4229,25.8911)"
               id="g115">
              <path
                 id="path117"
                 style="fill:#642116;fill-opacity:1;fill-rule:nonzero;stroke:none"
                 d="M 0,0 C 0.794,1.479 2.093,1.479 2.887,-0.001 L 5.051,-4.034 C 5.845,-5.513 4.744,-6.723 2.604,-6.723 l -2.324,0 c -2.138,0 -3.239,1.21 -2.445,2.689 L 0,0 Z"
                 inkscape:connector-curvature="0" />
            </g>
            <g
               transform="translate(20.1982,14.0381)"
               id="g119">
              <path
                 id="path121"
                 style="fill:#642116;fill-opacity:1;fill-rule:nonzero;stroke:none"
                 d="m 0,0 c -0.586,-1.091 -1.544,-1.091 -2.131,0 l -1.597,2.977 c -0.586,1.092 0.226,1.985 1.805,1.985 l 1.715,0 c 1.58,0 2.393,-0.893 1.806,-1.985 L 0,0 Z"
                 inkscape:connector-curvature="0" />
            </g>
          </g>
        </g>
      </g>
    </g>
    <g
       transform="matrix(-0.1316774,0.61949348,-0.61949348,-0.1316774,156.74459,41.446461)"
       id="g123">
      <g
         transform="matrix(1.25,0,0,-1.25,0,45)"
         id="g125">
        <g
           id="g127">
          <g
             clip-path="url(#clipPath16)"
             id="g129">
            <g
               transform="translate(15.6597,29.1563)"
               id="g131">
              <path
                 id="path133"
                 style="fill:#3e721d;fill-opacity:1;fill-rule:nonzero;stroke:none"
                 d="M 0,0 C 0.485,2.03 0.384,3.139 -0.553,3.677 -1.49,4.214 -0.217,6.342 1.424,4.469 3.065,2.596 2.852,0.851 2.085,-0.383 1.319,-1.618 -0.249,-1.043 0,0"
                 inkscape:connector-curvature="0" />
            </g>
            <g
               transform="translate(15.1802,26.2046)"
               id="g135">
              <path
                 id="path137"
                 style="fill:#3e721d;fill-opacity:1;fill-rule:nonzero;stroke:none"
                 d="m 0,0 c -0.916,-1.877 -1.699,-2.668 -2.764,-2.487 -1.064,0.18 -1.434,-2.271 1.023,-1.868 2.457,0.402 3.402,1.885 3.595,3.326 C 2.047,0.411 0.471,0.964 0,0"
                 inkscape:connector-curvature="0" />
            </g>
            <g
               transform="translate(26.5156,19.9443)"
               id="g139">
              <path
                 id="path141"
                 style="fill:#3e721d;fill-opacity:1;fill-rule:nonzero;stroke:none"
                 d="m 0,0 c -2.072,1.377 -5.382,-1.43 -5.699,-2.28 -0.318,-0.85 1.72,-3.461 1.145,-4.94 -0.577,-1.476 1.142,-1.768 1.92,-0.491 0.779,1.278 0.304,3.612 0.157,4.169 -0.149,0.557 2.189,1.219 3.67,0.037 C 2.676,-4.686 0.871,-0.58 0,0"
                 inkscape:connector-curvature="0" />
            </g>
            <g
               transform="translate(27.584,20.7622)"
               id="g143">
              <path
                 id="path145"
                 style="fill:#3e721d;fill-opacity:1;fill-rule:nonzero;stroke:none"
                 d="M 0,0 C -1.546,1.949 0.975,5.482 1.794,5.87 2.615,6.257 4.366,5.467 5.791,6.164 7.215,6.861 7.536,5.31 6.441,4.29 5.214,3.148 4.2,2.956 3.322,2.765 2.759,2.643 3.29,0.732 3.314,-1.206 3.336,-3.004 0.65,-0.82 0,0"
                 inkscape:connector-curvature="0" />
            </g>
            <g
               transform="translate(15.3193,32.833)"
               id="g147">
              <path
                 id="path149"
                 style="fill:#3e721d;fill-opacity:1;fill-rule:nonzero;stroke:none"
                 d="m 0,0 c 0,-0.4 -0.324,-0.724 -0.724,-0.724 -0.399,0 -0.723,0.324 -0.723,0.724 0,0.399 0.324,0.724 0.723,0.724 C -0.324,0.724 0,0.399 0,0"
                 inkscape:connector-curvature="0" />
            </g>
            <g
               transform="translate(12.3198,23.9365)"
               id="g151">
              <path
                 id="path153"
                 style="fill:#3e721d;fill-opacity:1;fill-rule:nonzero;stroke:none"
                 d="m 0,0 c 0,-0.399 -0.324,-0.724 -0.724,-0.724 -0.399,0 -0.724,0.325 -0.724,0.724 0,0.399 0.325,0.724 0.724,0.724 C -0.324,0.724 0,0.399 0,0"
                 inkscape:connector-curvature="0" />
            </g>
            <g
               transform="translate(12.022,22.2593)"
               id="g155">
              <path
                 id="path157"
                 style="fill:#3e721d;fill-opacity:1;fill-rule:nonzero;stroke:none"
                 d="m 0,0 c 0,-0.4 -0.324,-0.724 -0.724,-0.724 -0.4,0 -0.724,0.324 -0.724,0.724 0,0.399 0.324,0.724 0.724,0.724 C -0.324,0.724 0,0.399 0,0"
                 inkscape:connector-curvature="0" />
            </g>
            <g
               transform="translate(13.4692,21.5352)"
               id="g159">
              <path
                 id="path161"
                 style="fill:#3e721d;fill-opacity:1;fill-rule:nonzero;stroke:none"
                 d="m 0,0 c 0,-0.4 -0.324,-0.724 -0.724,-0.724 -0.399,0 -0.723,0.324 -0.723,0.724 0,0.4 0.324,0.724 0.723,0.724 C -0.324,0.724 0,0.4 0,0"
                 inkscape:connector-curvature="0" />
            </g>
            <g
               transform="translate(22.0439,12.6865)"
               id="g163">
              <path
                 id="path165"
                 style="fill:#3e721d;fill-opacity:1;fill-rule:nonzero;stroke:none"
                 d="m 0,0 c 0.128,-0.378 -0.073,-0.791 -0.452,-0.92 -0.377,-0.129 -0.789,0.075 -0.918,0.453 -0.129,0.378 0.072,0.79 0.45,0.919 C -0.541,0.581 -0.129,0.378 0,0"
                 inkscape:connector-curvature="0" />
            </g>
            <g
               transform="translate(22.8164,11.4189)"
               id="g167">
              <path
                 id="path169"
                 style="fill:#3e721d;fill-opacity:1;fill-rule:nonzero;stroke:none"
                 d="m 0,0 c 0.128,-0.378 -0.073,-0.79 -0.452,-0.919 -0.377,-0.128 -0.789,0.074 -0.918,0.452 -0.129,0.377 0.073,0.79 0.451,0.918 C -0.54,0.581 -0.129,0.378 0,0"
                 inkscape:connector-curvature="0" />
            </g>
            <g
               transform="translate(24.4434,11.6592)"
               id="g171">
              <path
                 id="path173"
                 style="fill:#3e721d;fill-opacity:1;fill-rule:nonzero;stroke:none"
                 d="m 0,0 c 0.13,-0.377 -0.073,-0.79 -0.452,-0.919 -0.376,-0.129 -0.788,0.074 -0.917,0.451 -0.129,0.378 0.073,0.791 0.45,0.919 C -0.54,0.581 -0.128,0.378 0,0"
                 inkscape:connector-curvature="0" />
            </g>
            <g
               transform="translate(34.2461,27.4106)"
               id="g175">
              <path
                 id="path177"
                 style="fill:#3e721d;fill-opacity:1;fill-rule:nonzero;stroke:none"
                 d="m 0,0 c 0,-0.399 -0.325,-0.724 -0.725,-0.724 -0.399,0 -0.723,0.325 -0.723,0.724 0,0.4 0.324,0.725 0.723,0.725 C -0.325,0.725 0,0.4 0,0"
                 inkscape:connector-curvature="0" />
            </g>
            <g
               transform="translate(35.75,26.6865)"
               id="g179">
              <path
                 id="path181"
                 style="fill:#3e721d;fill-opacity:1;fill-rule:nonzero;stroke:none"
                 d="m 0,0 c 0,-0.399 -0.324,-0.724 -0.725,-0.724 -0.398,0 -0.722,0.325 -0.722,0.724 0,0.399 0.324,0.724 0.722,0.724 C -0.324,0.724 0,0.399 0,0"
                 inkscape:connector-curvature="0" />
            </g>
            <g
               transform="translate(35.4043,24.9697)"
               id="g183">
              <path
                 id="path185"
                 style="fill:#3e721d;fill-opacity:1;fill-rule:nonzero;stroke:none"
                 d="m 0,0 c 0,-0.399 -0.324,-0.724 -0.725,-0.724 -0.399,0 -0.723,0.325 -0.723,0.724 0,0.399 0.324,0.724 0.723,0.724 C -0.324,0.724 0,0.399 0,0"
                 inkscape:connector-curvature="0" />
            </g>
            <g
               transform="translate(15.5122,34.3818)"
               id="g187">
              <path
                 id="path189"
                 style="fill:#3e721d;fill-opacity:1;fill-rule:nonzero;stroke:none"
                 d="m 0,0 c 0,-0.399 -0.324,-0.724 -0.724,-0.724 -0.4,0 -0.724,0.325 -0.724,0.724 0,0.4 0.324,0.724 0.724,0.724 C -0.324,0.724 0,0.4 0,0"
                 inkscape:connector-curvature="0" />
            </g>
            <g
               transform="translate(17.0835,34.8506)"
               id="g191">
              <path
                 id="path193"
                 style="fill:#3e721d;fill-opacity:1;fill-rule:nonzero;stroke:none"
                 d="m 0,0 c 0,-0.4 -0.324,-0.724 -0.724,-0.724 -0.399,0 -0.723,0.324 -0.723,0.724 0,0.399 0.324,0.724 0.723,0.724 C -0.324,0.724 0,0.399 0,0"
                 inkscape:connector-curvature="0" />
            </g>
            <g
               transform="translate(0.2085,30.3481)"
               id="g195">
              <path
                 id="path197"
                 style="fill:#3e721d;fill-opacity:1;fill-rule:nonzero;stroke:none"
                 d="m 0,0 c 0.264,1.053 4.656,4.723 8.641,4.034 2.024,-0.351 2.942,-3.354 5.102,-3.429 11.29,-0.389 22.272,-11.138 18.847,-21.391 -1.505,-4.506 -5.618,-8.797 -15.461,-5.001 -1.955,0.754 -3.97,1.986 -7.824,1.227 -2.852,-0.563 -3.149,-3.159 -2.803,-4.497 0.272,-1.048 -0.161,-1.582 -0.7,-0.759 -1.226,1.868 -1.317,4.348 0.642,5.956 3.912,3.211 9.248,1.284 13.138,0.059 6.481,-2.044 9.917,3.651 6.345,10.315 -3.503,6.54 -9.812,8.324 -14.005,8.817 C 10.754,-4.532 8.283,-6.718 6.555,-6.412 2.935,-5.769 -0.19,-0.764 0,0"
                 inkscape:connector-curvature="0" />
            </g>
            <g
               transform="translate(0.2085,30.3481)"
               id="g199">
              <path
                 id="path201"
                 style="fill:#77b255;fill-opacity:1;fill-rule:nonzero;stroke:none"
                 d="m 0,0 c 0.264,1.053 4.656,4.723 8.641,4.034 2.024,-0.351 2.942,-3.354 5.102,-3.429 11.29,-0.389 22.272,-11.138 18.847,-21.391 -1.505,-4.506 -5.618,-8.797 -15.461,-5.001 -1.955,0.754 -3.97,1.986 -7.824,1.227 -2.852,-0.563 -3.149,-3.159 -2.803,-4.497 0.134,-0.516 0.098,-0.906 -0.039,-1.073 -0.921,1.282 -1.362,4.34 0.662,5.865 3.539,2.667 8.568,0.131 13.301,-1.042 10.251,-2.541 12.183,7.995 7.908,14.875 C 23.147,-2.084 6.792,-0.098 0,0"
                 inkscape:connector-curvature="0" />
            </g>
            <g
               transform="translate(8,33)"
               id="g203">
              <path
                 id="path205"
                 style="fill:#292f33;fill-opacity:1;fill-rule:nonzero;stroke:none"
                 d="m 0,0 c 0,-0.552 -0.448,-1 -1,-1 -0.552,0 -1,0.448 -1,1 0,0.552 0.448,1 1,1 0.552,0 1,-0.448 1,-1"
                 inkscape:connector-curvature="0" />
            </g>
            <g
               transform="translate(7,26)"
               id="g207">
              <path
                 id="path209"
                 style="fill:#292f33;fill-opacity:1;fill-rule:nonzero;stroke:none"
                 d="m 0,0 c 0,-0.552 -0.448,-1 -1,-1 -0.552,0 -1,0.448 -1,1 0,0.552 0.448,1 1,1 0.552,0 1,-0.448 1,-1"
                 inkscape:connector-curvature="0" />
            </g>
          </g>
        </g>
      </g>
    </g>
    <g
       transform="matrix(-0.47902641,-0.68189306,0.68189306,-0.47902641,99.684923,59.432675)"
       id="g211">
      <g
         transform="matrix(1.25,0,0,-1.25,0,47.5)"
         id="g213">
        <g
           id="g215">
          <g
             clip-path="url(#clipPath16)"
             id="g217">
            <g
               transform="translate(25.9248,18.7485)"
               id="g219">
              <path
                 id="path221"
                 style="fill:#f18f26;fill-opacity:1;fill-rule:nonzero;stroke:none"
                 d="m 0,0 c -2.392,-0.797 -3.189,3.189 -3.189,3.189 0,0 1.088,1.092 0.264,2.062 1.283,1.283 0.533,1.925 0.533,1.925 -2.203,2.202 -5.772,2.202 -7.974,0 -0.278,-0.278 -0.466,-0.527 -0.624,-0.764 -0.068,-0.098 -0.13,-0.196 -0.191,-0.296 -0.006,-0.011 -0.01,-0.021 -0.016,-0.031 -0.322,-0.535 -0.553,-1.107 -0.682,-1.701 -0.176,-0.359 -0.427,-0.743 -0.879,-1.195 -1.595,-1.594 -5.581,0.797 -8.771,-2.392 -0.033,-0.032 -0.051,-0.078 -0.077,-0.116 -0.107,-0.095 -0.218,-0.179 -0.321,-0.282 -3.743,-3.743 -3.386,-10.169 0.798,-14.353 3.974,-3.974 9.968,-4.487 13.767,-1.319 0.066,0.035 0.132,0.069 0.185,0.123 0.081,0.081 0.142,0.158 0.218,0.237 0.06,0.056 0.123,0.105 0.181,0.162 1.909,1.91 2.641,4.206 2.352,6.552 -0.076,1.116 -0.186,1.991 0.44,2.617 0.797,0.797 3.188,0 4.783,1.595 C 3.188,-1.595 1.513,0.503 0,0"
                 inkscape:connector-curvature="0" />
            </g>
            <g
               transform="translate(33.0488,30.9287)"
               id="g223">
              <path
                 id="path225"
                 style="fill:#642116;fill-opacity:1;fill-rule:nonzero;stroke:none"
                 d="m 0,0 -12.141,-12.142 -2.122,2.121 L -2.121,2.122 0,0 Z"
                 inkscape:connector-curvature="0" />
            </g>
            <g
               transform="translate(36.2041,33.8145)"
               id="g227">
              <path
                 id="path229"
                 style="fill:#f18f26;fill-opacity:1;fill-rule:nonzero;stroke:none"
                 d="m 0,0 c 0.437,-0.438 0.437,-1.155 -0.001,-1.593 l -3.187,-3.185 c -0.438,-0.438 -1.155,-0.438 -1.592,0 l -2.39,2.389 c -0.437,0.438 -0.437,1.155 0.001,1.593 l 3.187,3.185 c 0.438,0.438 1.155,0.438 1.592,0 L 0,0 Z"
                 inkscape:connector-curvature="0" />
            </g>
            <g
               transform="translate(21,17.4648)"
               id="g231">
              <path
                 id="path233"
                 style="fill:#ccd6dd;fill-opacity:1;fill-rule:nonzero;stroke:none"
                 d="M 0,0 -1.414,-1.415 -4.95,2.121 -3.536,3.535 0,0 Z"
                 inkscape:connector-curvature="0" />
            </g>
            <g
               transform="translate(17.4639,13.9287)"
               id="g235">
              <path
                 id="path237"
                 style="fill:#ccd6dd;fill-opacity:1;fill-rule:nonzero;stroke:none"
                 d="M 0,0 -1.414,-1.414 -4.95,2.121 -3.536,3.536 0,0 Z"
                 inkscape:connector-curvature="0" />
            </g>
            <g
               transform="translate(13.9282,11.8076)"
               id="g239">
              <path
                 id="path241"
                 style="fill:#642116;fill-opacity:1;fill-rule:nonzero;stroke:none"
                 d="m 0,0 c 0.389,-0.389 0.389,-1.025 0,-1.414 -0.389,-0.389 -1.025,-0.389 -1.414,0 l -2.122,2.121 c -0.388,0.389 -0.388,1.025 0,1.414 l 10e-4,0 c 0.389,0.389 1.025,0.389 1.414,0 L 0,0 Z"
                 inkscape:connector-curvature="0" />
            </g>
          </g>
        </g>
      </g>
    </g>
    <g
       transform="matrix(0.08710705,-0.82876825,0.82876825,0.08710705,26.8198,142.72953)"
       id="g243">
      <g
         transform="matrix(1.25,0,0,-1.25,0,47.5)"
         id="g245">
        <g
           id="g247">
          <g
             clip-path="url(#clipPath16)"
             id="g249">
            <g
               transform="translate(36.0664,1.9336)"
               id="g251">
              <path
                 id="path253"
                 style="fill:#ffac33;fill-opacity:1;fill-rule:nonzero;stroke:none"
                 d="m 0,0 c -0.766,-0.766 -2.006,-0.766 -2.771,0 l -20.097,20.096 c -0.766,0.766 -0.766,2.008 0,2.773 0.765,0.765 2.007,0.765 2.772,0 L 0,2.771 C 0.766,2.008 0.766,0.766 0,0"
                 inkscape:connector-curvature="0" />
            </g>
            <g
               transform="translate(28.7998,22.9199)"
               id="g255">
              <path
                 id="path257"
                 style="fill:#dd2e44;fill-opacity:1;fill-rule:nonzero;stroke:none"
                 d="m 0,0 c 0,-7.576 -6.142,-13.72 -13.72,-13.72 -7.577,0 -13.719,6.144 -13.719,13.72 0,7.578 6.142,13.72 13.719,13.72 C -6.142,13.72 0,7.578 0,0"
                 inkscape:connector-curvature="0" />
            </g>
            <g
               transform="translate(17.0859,22.1724)"
               id="g259">
              <path
                 id="path261"
                 style="fill:#f4900c;fill-opacity:1;fill-rule:nonzero;stroke:none"
                 d="m 0,0 c 0.161,0.086 0.288,0.211 0.376,0.356 -0.071,-0.565 -0.406,-1.09 -0.946,-1.378 -0.297,-0.158 -0.637,-0.19 -0.957,-0.093 -0.321,0.098 -0.585,0.314 -0.743,0.611 -0.209,0.393 -0.06,0.884 0.333,1.094 0.067,0.036 0.14,0.053 0.212,0.053 0.161,0 0.318,-0.087 0.399,-0.239 C -1.071,-0.074 -0.478,-0.256 0,0 m 1.325,-12.548 c -1.459,-0.092 -2.938,0.065 -4.379,0.503 -3.155,0.961 -5.748,3.092 -7.3,6.003 -1.217,2.282 -1.473,4.901 -0.719,7.375 0.752,2.474 2.424,4.508 4.706,5.724 1.781,0.95 3.822,1.15 5.752,0.561 C 1.314,7.032 2.899,5.728 3.848,3.948 4.582,2.571 4.736,0.99 4.281,-0.503 3.827,-1.997 2.819,-3.224 1.441,-3.959 0.385,-4.521 -0.826,-4.641 -1.971,-4.292 c -1.144,0.348 -2.085,1.123 -2.648,2.178 -0.879,1.648 -0.253,3.704 1.395,4.583 0.593,0.317 1.272,0.384 1.915,0.187 0.231,-0.07 0.447,-0.171 0.644,-0.3 -0.672,0.328 -1.486,0.34 -2.194,-0.037 -1.347,-0.718 -1.858,-2.399 -1.14,-3.746 0.404,-0.758 1.079,-1.313 1.901,-1.564 0.822,-0.25 1.692,-0.165 2.45,0.24 1.836,0.98 2.534,3.271 1.555,5.107 -0.562,1.055 -1.502,1.828 -2.645,2.175 -1.143,0.348 -2.353,0.23 -3.408,-0.332 -2.602,-1.388 -3.59,-4.633 -2.202,-7.236 0.809,-1.517 2.161,-2.629 3.806,-3.13 1.646,-0.5 3.388,-0.33 4.906,0.479 1.839,0.98 3.187,2.62 3.794,4.614 0.606,1.994 0.4,4.105 -0.58,5.945 -1.195,2.241 -3.193,3.883 -5.622,4.623 -2.432,0.74 -5.004,0.489 -7.245,-0.707 -2.744,-1.464 -4.754,-3.908 -5.66,-6.883 -0.905,-2.976 -0.598,-6.125 0.866,-8.869 0.917,-1.721 2.151,-3.202 3.623,-4.392 1.923,-1.028 4.12,-1.615 6.454,-1.615 1.152,0 2.263,0.157 3.331,0.424"
                 inkscape:connector-curvature="0" />
            </g>
            <g
               transform="translate(15.6558,22.498)"
               id="g263">
              <path
                 id="path265"
                 style="fill:#ffcc4d;fill-opacity:1;fill-rule:nonzero;stroke:none"
                 d="m 0,0 c -0.054,-0.143 -0.16,-0.255 -0.297,-0.318 -0.554,-0.249 -0.8,-0.9 -0.55,-1.453 0.119,-0.265 0.328,-0.458 0.576,-0.562 -0.202,0.016 -0.402,0.061 -0.597,0.134 -0.54,0.204 -0.969,0.606 -1.206,1.133 -0.166,0.366 -0.179,0.777 -0.036,1.154 0.142,0.376 0.423,0.676 0.791,0.841 0.129,0.059 0.267,0.088 0.405,0.088 0.118,0 0.236,-0.021 0.349,-0.064 C -0.318,0.859 -0.123,0.677 -0.014,0.436 0.049,0.296 0.053,0.142 0,0 m 9.859,6.003 c -1.569,3.473 -6.117,7.313 -11.772,7.935 -0.212,0.023 -0.422,0.033 -0.633,0.047 -3.6,-0.52 -6.743,-2.429 -8.871,-5.176 3.382,2.808 6.776,3.214 9.264,2.943 C 2.684,11.22 6.542,8.001 7.854,5.098 9.863,0.65 7.877,-4.604 3.43,-6.612 1.761,-7.367 -0.104,-7.425 -1.817,-6.777 c -1.715,0.646 -3.075,1.923 -3.829,3.594 -1.195,2.647 -0.015,5.774 2.632,6.97 2.007,0.906 4.38,0.01 5.286,-1.996 C 2.836,0.54 2.462,-0.9 1.45,-1.733 1.713,-1.463 1.92,-1.14 2.057,-0.777 2.318,-0.085 2.294,0.667 1.99,1.341 1.64,2.116 1.009,2.709 0.213,3.01 -0.584,3.311 -1.45,3.284 -2.224,2.933 -3.127,2.526 -3.817,1.792 -4.167,0.865 c -0.35,-0.927 -0.319,-1.934 0.089,-2.837 0.479,-1.061 1.343,-1.872 2.432,-2.284 1.09,-0.412 2.276,-0.373 3.336,0.105 2.599,1.174 3.76,4.246 2.586,6.847 -1.404,3.111 -5.083,4.497 -8.195,3.095 -3.752,-1.696 -5.425,-6.128 -3.731,-9.88 0.997,-2.206 2.792,-3.891 5.056,-4.745 1.041,-0.394 2.124,-0.59 3.205,-0.59 1.268,0 2.534,0.27 3.725,0.808 5.551,2.509 8.03,9.066 5.523,14.619"
                 inkscape:connector-curvature="0" />
            </g>
          </g>
        </g>
      </g>
    </g>
    <g
       transform="translate(133.0 135.0) rotate(145 15 15) scale(0.6)"
       id="g267">
      <g
         transform="matrix(1.25,0,0,-1.25,0,45)"
         id="g269">
        <g
           id="g271">
          <g
             clip-path="url(#clipPath16)"
             id="g273">
            <g
               transform="translate(32.3252,25.0415)"
               id="g275">
              <path
                 id="path277"
                 style="fill:#662113;fill-opacity:1;fill-rule:nonzero;stroke:none"
                 d="M 0,0 C 0,0 2.315,-0.024 3.511,-1.177 3.175,3.794 1.407,7.072 -2.434,8.953 -5.574,10.072 -8.5,7.5 -8.5,7.5 c 0,0 0.862,1.99 2.19,2.746 -2.226,0.477 -4.869,0.712 -8.015,0.712 -3.136,0 -5.785,-0.226 -8.007,-0.7 1.342,-0.745 2.215,-2.758 2.215,-2.758 0,0 -3.014,2.656 -6.209,1.405 -3.778,-1.895 -5.518,-5.169 -5.841,-10.12 1.183,1.19 3.55,1.215 3.55,1.215 0,0 -3.813,-2.308 -3.425,-5.655 0.387,-2.947 1.394,-5.967 2.878,-8.722 -0.122,3.185 2.756,5.335 2.756,5.335 0,0 -2.492,-5.96 -0.581,-8.738 1.935,-2.542 4.313,-4.64 6.975,-5.916 -0.954,1.645 -0.135,3.044 -0.103,2.945 0.042,-0.125 0.459,-3.112 2.138,-3.743 1.178,-0.355 2.4,-0.548 3.654,-0.548 1.292,0 2.55,0.207 3.761,0.583 1.614,0.692 2.023,3.585 2.064,3.708 0.032,0.098 0.843,-1.287 -0.09,-2.92 2.706,1.308 5.118,3.463 7.065,6.073 1.698,2.846 -0.684,8.556 -0.684,8.556 0,0 2.85,-2.129 2.757,-5.288 1.556,2.907 2.585,6.105 2.911,9.2 C 3.424,-2.068 0,0 0,0" />
            </g>
            <g
               transform="translate(13.8594,26.5049)"
               id="g279">
              <path
                 id="path281"
                 style="fill:#ffcc4d;fill-opacity:1;fill-rule:nonzero;stroke:none"
                 d="m 0,0 c 0.596,-2.392 0.16,-4.422 -2.232,-5.017 -2.392,-0.596 -6.363,-0.087 -6.958,2.304 -0.596,2.392 0.469,5.39 1.811,5.724 C -6.038,3.345 -0.595,2.392 0,0" />
            </g>
            <g
               transform="translate(22.9629,8.0732)"
               id="g283">
              <path
                 id="path285"
                 style="fill:#ffcc4d;fill-opacity:1;fill-rule:nonzero;stroke:none"
                 d="m 0,0 c 0,-2.74 -2.222,-4.963 -4.963,-4.963 -2.741,0 -4.963,2.223 -4.963,4.963 0,2.741 2.222,4.964 4.963,4.964 C -2.222,4.964 0,2.741 0,0" />
            </g>
            <g
               transform="translate(21.3086,8.0732)"
               id="g287">
              <path
                 id="path289"
                 style="fill:#dd2e44;fill-opacity:1;fill-rule:nonzero;stroke:none"
                 d="m 0,0 c 0,-1.827 -1.481,-3.309 -3.309,-3.309 -1.827,0 -3.308,1.482 -3.308,3.309 0,1.827 1.481,3.31 3.308,3.31 C -1.481,3.31 0,1.827 0,0" />
            </g>
            <g
               transform="translate(11.0518,27.0034)"
               id="g291">
              <path
                 id="path293"
                 style="fill:#e6aaaa;fill-opacity:1;fill-rule:nonzero;stroke:none"
                 d="M 0,0 C 0.871,-1.393 0.447,-3.229 -0.946,-4.1 -2.339,-4.971 -3.554,-4.897 -4.424,-3.503 -5.295,-2.11 -4.61,0.627 -4.1,0.946 -3.59,1.265 -0.871,1.394 0,0" />
            </g>
            <g
               transform="translate(22.1406,26.5049)"
               id="g295">
              <path
                 id="path297"
                 style="fill:#ffcc4d;fill-opacity:1;fill-rule:nonzero;stroke:none"
                 d="M 0,0 C -0.596,-2.392 -0.159,-4.422 2.232,-5.017 4.624,-5.613 8.595,-5.104 9.191,-2.713 9.786,-0.321 8.721,2.677 7.38,3.011 6.038,3.345 0.595,2.392 0,0" />
            </g>
            <g
               transform="translate(24.9482,27.0034)"
               id="g299">
              <path
                 id="path301"
                 style="fill:#e6aaaa;fill-opacity:1;fill-rule:nonzero;stroke:none"
                 d="M 0,0 C -0.871,-1.393 -0.447,-3.229 0.945,-4.1 2.34,-4.971 3.554,-4.897 4.424,-3.503 5.295,-2.11 4.609,0.627 4.1,0.946 3.59,1.265 0.871,1.394 0,0" />
            </g>
            <g
               transform="translate(18,28.875)"
               id="g303">
              <path
                 id="path305"
                 style="fill:#ffcc4d;fill-opacity:1;fill-rule:nonzero;stroke:none"
                 d="m 0,0 0,0 -0.001,0 -0.002,0 c -12.83,-0.001 -10.872,-4.958 -9.497,-11.542 1.375,-6.583 1.884,-8.333 1.884,-8.333 l 7.613,0 0.003,0 7.612,0 c 0,0 0.51,1.75 1.885,8.333 C 10.872,-4.958 12.829,-0.001 0,0" />
            </g>
            <g
               transform="translate(12,20)"
               id="g307">
              <path
                 id="path309"
                 style="fill:#272b2b;fill-opacity:1;fill-rule:nonzero;stroke:none"
                 d="M 0,0 C 0,0 0,1.5 1.5,1.5 3,1.5 3,0 3,0 L 3,-1.5 C 3,-1.5 3,-3 1.5,-3 0,-3 0,-1.5 0,-1.5 L 0,0 Z" />
            </g>
            <g
               transform="translate(21,20)"
               id="g311">
              <path
                 id="path313"
                 style="fill:#272b2b;fill-opacity:1;fill-rule:nonzero;stroke:none"
                 d="M 0,0 C 0,0 0,1.5 1.5,1.5 3,1.5 3,0 3,0 L 3,-1.5 C 3,-1.5 3,-3 1.5,-3 0,-3 0,-1.5 0,-1.5 L 0,0 Z" />
            </g>
            <g
               transform="translate(20.168,14.4795)"
               id="g315">
              <path
                 id="path317"
                 style="fill:#ffe8b6;fill-opacity:1;fill-rule:nonzero;stroke:none"
                 d="M 0,0 C -1.598,0 -1.385,-0.848 -2.169,-2.113 -2.951,-0.848 -2.739,0 -4.337,0 c -6.865,0 -6.837,-0.375 -6.865,-2.828 -0.058,-4.987 2.802,-6.132 5.257,-6.06 1.597,0.048 2.994,0.88 3.777,2.131 0.783,-1.251 2.179,-2.083 3.776,-2.131 2.455,-0.072 5.316,1.073 5.257,6.06 C 6.837,-0.375 6.865,0 0,0" />
            </g>
            <g
               transform="translate(14.5815,14.5889)"
               id="g319">
              <path
                 id="path321"
                 style="fill:#272b2b;fill-opacity:1;fill-rule:nonzero;stroke:none"
                 d="M 0,0 C -1.14,-0.232 2.279,-4.431 3.419,-4.431 4.558,-4.431 7.977,-0.232 6.837,0 5.698,0.232 1.139,0.232 0,0" />
            </g>
            <g
               transform="translate(12,11.5)"
               id="g323">
              <path
                 id="path325"
                 style="fill:#d99e82;fill-opacity:1;fill-rule:nonzero;stroke:none"
                 d="M 0,0 C 0,-0.276 -0.224,-0.5 -0.5,-0.5 -0.776,-0.5 -1,-0.276 -1,0 -1,0.276 -0.776,0.5 -0.5,0.5 -0.224,0.5 0,0.276 0,0" />
            </g>
            <g
               transform="translate(11,9.5)"
               id="g327">
              <path
                 id="path329"
                 style="fill:#d99e82;fill-opacity:1;fill-rule:nonzero;stroke:none"
                 d="M 0,0 C 0,-0.276 -0.224,-0.5 -0.5,-0.5 -0.776,-0.5 -1,-0.276 -1,0 -1,0.276 -0.776,0.5 -0.5,0.5 -0.224,0.5 0,0.276 0,0" />
            </g>
            <g
               transform="translate(13,8.5)"
               id="g331">
              <path
                 id="path333"
                 style="fill:#d99e82;fill-opacity:1;fill-rule:nonzero;stroke:none"
                 d="M 0,0 C 0,-0.276 -0.224,-0.5 -0.5,-0.5 -0.776,-0.5 -1,-0.276 -1,0 -1,0.276 -0.776,0.5 -0.5,0.5 -0.224,0.5 0,0.276 0,0" />
            </g>
            <g
               transform="translate(24,11.5)"
               id="g335">
              <path
                 id="path337"
                 style="fill:#d99e82;fill-opacity:1;fill-rule:nonzero;stroke:none"
                 d="M 0,0 C 0,-0.276 0.224,-0.5 0.5,-0.5 0.776,-0.5 1,-0.276 1,0 1,0.276 0.776,0.5 0.5,0.5 0.224,0.5 0,0.276 0,0" />
            </g>
            <g
               transform="translate(25,9.5)"
               id="g339">
              <path
                 id="path341"
                 style="fill:#d99e82;fill-opacity:1;fill-rule:nonzero;stroke:none"
                 d="M 0,0 C 0,-0.276 0.224,-0.5 0.5,-0.5 0.776,-0.5 1,-0.276 1,0 1,0.276 0.776,0.5 0.5,0.5 0.224,0.5 0,0.276 0,0" />
            </g>
            <g
               transform="translate(23,8.5)"
               id="g343">
              <path
                 id="path345"
                 style="fill:#d99e82;fill-opacity:1;fill-rule:nonzero;stroke:none"
                 d="M 0,0 C 0,-0.276 0.224,-0.5 0.5,-0.5 0.776,-0.5 1,-0.276 1,0 1,0.276 0.776,0.5 0.5,0.5 0.224,0.5 0,0.276 0,0" />
            </g>
          </g>
        </g>
      </g>
    </g>
    <g
       transform="matrix(0.78801075,0.61566148,-0.61566148,0.78801075,139.35921,64.213435)"
       id="g347">
      <g
         transform="matrix(1.25,0,0,-1.25,0,47.5)"
         id="g349">
        <g
           id="g351">
          <g
             clip-path="url(#clipPath16)"
             id="g353">
            <g
               transform="translate(35.5391,5.5117)"
               id="g355">
              <path
                 id="path357"
                 style="fill:#292f33;fill-opacity:1;fill-rule:nonzero;stroke:none"
                 d="m 0,0 c 0,0 1.18,-0.215 1.18,-1.256 0,-1.043 -1.042,-1.256 -2.084,-1.256 l -17.72,0 c -2.084,0 -2.084,3.34 -5.212,9.594 -3.127,6.255 -6.253,2.001 -6.253,2.001 l -1.042,-12.595 -2.408,0 0,13.936 c 0,2.084 -0.881,4.285 -0.881,5.211 0,2.084 0.672,4.395 0.672,4.395 L -27.002,17.719 0,0 Z"
                 inkscape:connector-curvature="0" />
            </g>
            <g
               transform="translate(2.668,23.7192)"
               id="g359">
              <path
                 id="path361"
                 style="fill:#9266cc;fill-opacity:1;fill-rule:nonzero;stroke:none"
                 d="m 0,0 c 3.036,-0.732 10.291,-3.88 13.969,-17.379 0,0 0,-1.34 2.363,-1.34 l 16.539,0 c 0,0 1.18,0.257 1.18,2.424 0,1.084 -5.907,3.38 -8.27,4.464 -2.361,1.084 -4.445,4.317 -4.445,4.317 0,0 -4.17,-1.635 -11.258,5.952 C 2.99,6.025 5.7,8.876 3.337,8.876 2.852,8.876 -0.401,5.569 -1.207,1.838 -1.322,1.305 -0.864,0.208 0,0"
                 inkscape:connector-curvature="0" />
            </g>
          </g>
        </g>
      </g>
    </g>
    <g
       transform="matrix(0.69889214,0.45386586,-0.45386586,0.69889214,156.90434,56.315171)"
       id="g363">
      <g
         transform="matrix(1.25,0,0,-1.25,0,45)"
         id="g365">
        <g
           id="g367">
          <g
             clip-path="url(#clipPath16)"
             id="g369">
            <g
               transform="translate(28.6885,15.6875)"
               id="g371">
              <path
                 id="path373"
                 style="fill:#6d6e71;fill-opacity:1;fill-rule:nonzero;stroke:none"
                 d="m 0,0 c 0,-5.904 -4.784,-10.688 -10.689,-10.688 -5.902,0 -10.688,4.784 -10.688,10.688 0,5.903 4.786,10.689 10.688,10.689 C -4.784,10.689 0,5.903 0,0"
                 inkscape:connector-curvature="0" />
            </g>
            <g
               transform="translate(26,2.5)"
               id="g375">
              <path
                 id="path377"
                 style="fill:#662113;fill-opacity:1;fill-rule:nonzero;stroke:none"
                 d="m 0,0 -16,0 c -1.665,0 -2.479,1.339 -2.763,2.31 l -2.664,0.055 c -0.153,0.003 -0.297,0.077 -0.389,0.2 -0.092,0.123 -0.123,0.282 -0.083,0.43 l 0.594,2.216 -2.446,0.651 c -0.152,0.041 -0.276,0.151 -0.335,0.296 -0.06,0.146 -0.046,0.311 0.035,0.446 l 1.198,1.993 -2.155,1.192 c -0.139,0.077 -0.234,0.216 -0.254,0.374 -0.02,0.157 0.036,0.316 0.151,0.426 l 1.729,1.647 -1.729,1.646 c -0.115,0.11 -0.171,0.267 -0.151,0.426 0.02,0.158 0.115,0.297 0.254,0.374 l 2.156,1.194 -1.2,1.994 c -0.08,0.134 -0.094,0.299 -0.034,0.445 0.059,0.146 0.183,0.255 0.335,0.296 l 2.446,0.65 -0.594,2.218 c -0.04,0.148 -0.009,0.307 0.083,0.43 0.092,0.123 0.236,0.196 0.39,0.199 l 2.574,0.054 0.058,2.302 c 0.004,0.149 0.074,0.289 0.192,0.381 0.118,0.092 0.271,0.127 0.416,0.094 l 2.521,-0.56 0.718,2.234 c 0.044,0.138 0.147,0.251 0.282,0.308 0.135,0.056 0.287,0.051 0.417,-0.014 l 2.284,-1.138 1.341,2.009 c 0.08,0.119 0.208,0.199 0.35,0.218 0.144,0.018 0.286,-0.025 0.394,-0.119 L -8,26.242 l 1.88,1.635 c 0.109,0.095 0.251,0.137 0.394,0.119 0.143,-0.019 0.27,-0.099 0.35,-0.219 l 1.34,-2.008 2.286,1.138 c 0.13,0.066 0.283,0.07 0.417,0.014 0.135,-0.057 0.237,-0.17 0.282,-0.308 l 0.716,-2.234 2.522,0.56 c 0.146,0.033 0.297,-0.002 0.416,-0.094 0.118,-0.092 0.188,-0.232 0.192,-0.381 L 2.853,22.162 5.427,22.108 C 5.58,22.105 5.724,22.031 5.815,21.909 5.908,21.786 5.939,21.627 5.898,21.479 L 5.304,19.261 7.753,18.611 C 7.905,18.57 8.029,18.461 8.089,18.315 8.148,18.169 8.135,18.004 8.054,17.87 L 6.853,15.876 9.008,14.682 C 9.148,14.605 9.241,14.466 9.262,14.308 9.282,14.149 9.226,13.991 9.11,13.882 L 7.381,12.236 9.11,10.589 C 9.226,10.479 9.282,10.32 9.262,10.163 9.241,10.005 9.148,9.866 9.008,9.789 L 6.854,8.597 8.054,6.604 C 8.135,6.469 8.148,6.304 8.089,6.158 8.029,6.013 7.905,5.903 7.754,5.862 L 5.304,5.211 5.898,2.995 C 5.939,2.847 5.908,2.689 5.816,2.565 5.724,2.442 5.58,2.368 5.427,2.365 L 2.764,2.31 C 2.48,1.339 1.665,0 0,0"
                 inkscape:connector-curvature="0" />
            </g>
            <g
               transform="translate(16.188,7.1758)"
               id="g379">
              <path
                 id="path381"
                 style="fill:#8a4b38;fill-opacity:1;fill-rule:nonzero;stroke:none"
                 d="m 0,0 c -0.022,0 -0.044,0.001 -0.066,0.004 -0.142,0.019 -0.27,0.099 -0.35,0.219 l -1.058,1.585 -1.804,-0.9 C -3.41,0.844 -3.561,0.838 -3.696,0.895 -3.83,0.951 -3.933,1.064 -3.978,1.203 L -4.542,2.96 -6.532,2.518 C -6.68,2.486 -6.831,2.521 -6.948,2.612 -7.066,2.704 -7.136,2.844 -7.14,2.993 L -7.185,4.797 -9.214,4.84 c -0.154,0.003 -0.297,0.077 -0.39,0.2 -0.092,0.122 -0.123,0.281 -0.083,0.43 l 0.465,1.732 -1.922,0.512 c -0.152,0.041 -0.276,0.15 -0.335,0.296 -0.059,0.145 -0.046,0.31 0.035,0.445 l 0.937,1.557 -1.689,0.934 c -0.139,0.077 -0.234,0.216 -0.254,0.373 -0.02,0.158 0.035,0.316 0.151,0.426 l 1.352,1.289 -1.352,1.287 c -0.115,0.11 -0.171,0.268 -0.151,0.426 0.02,0.158 0.115,0.296 0.254,0.374 l 1.689,0.935 -0.937,1.557 c -0.081,0.135 -0.094,0.3 -0.035,0.446 0.059,0.146 0.183,0.255 0.335,0.296 l 1.922,0.51 -0.465,1.735 c -0.04,0.148 -0.009,0.306 0.083,0.429 0.093,0.123 0.236,0.197 0.39,0.2 l 2.029,0.042 0.045,1.805 c 0.004,0.149 0.074,0.289 0.192,0.381 0.117,0.092 0.27,0.127 0.416,0.094 l 1.99,-0.442 0.564,1.756 c 0.045,0.139 0.148,0.252 0.282,0.308 0.136,0.056 0.287,0.052 0.418,-0.013 l 1.804,-0.9 1.058,1.584 c 0.08,0.119 0.208,0.199 0.35,0.218 0.144,0.021 0.286,-0.024 0.394,-0.119 l 1.484,-1.291 1.484,1.291 c 0.11,0.096 0.253,0.138 0.395,0.119 0.142,-0.019 0.269,-0.099 0.349,-0.218 l 1.057,-1.584 1.807,0.9 c 0.13,0.065 0.283,0.069 0.417,0.013 0.135,-0.057 0.237,-0.169 0.282,-0.308 l 0.562,-1.756 1.992,0.442 c 0.145,0.033 0.299,-0.002 0.416,-0.094 0.118,-0.092 0.188,-0.232 0.192,-0.382 l 0.045,-1.804 2.028,-0.042 c 0.154,-0.003 0.297,-0.077 0.389,-0.2 0.093,-0.123 0.123,-0.281 0.083,-0.43 l -0.465,-1.734 1.924,-0.51 c 0.152,-0.041 0.276,-0.15 0.336,-0.296 0.059,-0.146 0.046,-0.311 -0.035,-0.446 l -0.939,-1.558 1.689,-0.934 c 0.14,-0.078 0.233,-0.216 0.254,-0.374 0.02,-0.158 -0.036,-0.316 -0.152,-0.426 l -1.352,-1.287 1.352,-1.289 c 0.116,-0.11 0.172,-0.267 0.152,-0.426 -0.021,-0.157 -0.116,-0.296 -0.254,-0.373 L 14.132,10.012 15.07,8.455 C 15.151,8.32 15.164,8.155 15.105,8.01 15.045,7.864 14.921,7.755 14.77,7.714 L 12.845,7.202 13.31,5.47 C 13.35,5.321 13.32,5.163 13.228,5.04 13.135,4.917 12.992,4.843 12.838,4.84 L 10.81,4.797 10.765,2.993 C 10.761,2.844 10.691,2.704 10.573,2.612 10.456,2.521 10.302,2.486 10.157,2.518 L 8.165,2.96 7.603,1.203 C 7.558,1.064 7.456,0.951 7.321,0.895 7.187,0.837 7.037,0.842 6.904,0.908 L 5.098,1.808 4.04,0.223 C 3.96,0.103 3.833,0.023 3.691,0.004 3.549,-0.014 3.405,0.028 3.296,0.123 L 1.812,1.417 0.329,0.123 C 0.237,0.043 0.12,0 0,0"
                 inkscape:connector-curvature="0" />
            </g>
            <g
               transform="translate(13.5,8.9484)"
               id="g383">
              <path
                 id="path385"
                 style="fill:#8a4b38;fill-opacity:1;fill-rule:nonzero;stroke:none"
                 d="m 0,0 9,0 c 3.521,0 6.5,-2.575 6.5,-4.5 0,-1.65 -1.35,-2 -3,-2 l -16,0 c -1.65,0 -3,0.35 -3,2 0,1.925 2.99,4.5 6.5,4.5"
                 inkscape:connector-curvature="0" />
            </g>
            <g
               transform="translate(26.2217,13.2207)"
               id="g387">
              <path
                 id="path389"
                 style="fill:#d99e82;fill-opacity:1;fill-rule:nonzero;stroke:none"
                 d="m 0,0 c 0,-4.088 -3.68,-7.398 -8.222,-7.398 -4.541,0 -8.221,3.31 -8.221,7.398 0,4.087 3.68,7.4 8.221,7.4 C -3.68,7.4 0,4.087 0,0"
                 inkscape:connector-curvature="0" />
            </g>
            <g
               transform="translate(21.2891,9.5215)"
               id="g391">
              <path
                 id="path393"
                 style="fill:#e6e7e8;fill-opacity:1;fill-rule:nonzero;stroke:none"
                 d="m 0,0 c 0,-2.043 -1.473,-3.699 -3.289,-3.699 -1.817,0 -3.289,1.656 -3.289,3.699 0,2.043 1.472,3.699 3.289,3.699 C -1.473,3.699 0,2.043 0,0"
                 inkscape:connector-curvature="0" />
            </g>
            <g
               transform="translate(19.6445,8.2891)"
               id="g395">
              <path
                 id="path397"
                 style="fill:#231f20;fill-opacity:1;fill-rule:nonzero;stroke:none"
                 d="m 0,0 c 0,-0.908 -0.736,-1.645 -1.645,-1.645 -0.908,0 -1.644,0.737 -1.644,1.645 0,0.908 0.736,1.643 1.644,1.643 C -0.736,1.643 0,0.908 0,0"
                 inkscape:connector-curvature="0" />
            </g>
            <g
               transform="translate(14.7114,14.4551)"
               id="g399">
              <path
                 id="path401"
                 style="fill:#231f20;fill-opacity:1;fill-rule:nonzero;stroke:none"
                 d="m 0,0 c 0,-0.682 -0.552,-1.234 -1.233,-1.234 -0.681,0 -1.234,0.552 -1.234,1.234 0,0.68 0.553,1.232 1.234,1.232 C -0.552,1.232 0,0.68 0,0"
                 inkscape:connector-curvature="0" />
            </g>
            <g
               transform="translate(23.7549,14.4551)"
               id="g403">
              <path
                 id="path405"
                 style="fill:#231f20;fill-opacity:1;fill-rule:nonzero;stroke:none"
                 d="m 0,0 c 0,-0.682 -0.552,-1.234 -1.232,-1.234 -0.682,0 -1.234,0.552 -1.234,1.234 0,0.68 0.552,1.232 1.234,1.232 C -0.552,1.232 0,0.68 0,0"
                 inkscape:connector-curvature="0" />
            </g>
            <g
               transform="translate(11.4224,18.1543)"
               id="g407">
              <path
                 id="path409"
                 style="fill:#c1694f;fill-opacity:1;fill-rule:nonzero;stroke:none"
                 d="m 0,0 c 0,0 4.111,1.645 4.933,0 0.822,-1.645 1.645,-1.645 1.645,-1.645 l 0,4.934 C 6.578,3.289 0,3.289 0,0"
                 inkscape:connector-curvature="0" />
            </g>
            <g
               transform="translate(24.5771,18.1543)"
               id="g411">
              <path
                 id="path413"
                 style="fill:#c1694f;fill-opacity:1;fill-rule:nonzero;stroke:none"
                 d="m 0,0 c 0,0 -4.11,1.645 -4.933,0 -0.822,-1.645 -1.644,-1.645 -1.644,-1.645 l 0,4.934 c 0,0 6.577,0 6.577,-3.289"
                 inkscape:connector-curvature="0" />
            </g>
            <g
               transform="translate(12.2446,17.7437)"
               id="g415">
              <path
                 id="path417"
                 style="fill:#d99e82;fill-opacity:1;fill-rule:nonzero;stroke:none"
                 d="m 0,0 c 0,-1.136 -0.92,-2.056 -2.055,-2.056 -1.136,0 -2.056,0.92 -2.056,2.056 0,1.135 0.92,2.055 2.056,2.055 C -0.92,2.055 0,1.135 0,0"
                 inkscape:connector-curvature="0" />
            </g>
            <g
               transform="translate(27.8662,17.7437)"
               id="g419">
              <path
                 id="path421"
                 style="fill:#d99e82;fill-opacity:1;fill-rule:nonzero;stroke:none"
                 d="m 0,0 c 0,-1.136 -0.92,-2.056 -2.056,-2.056 -1.134,0 -2.055,0.92 -2.055,2.056 0,1.135 0.921,2.055 2.055,2.055 C -0.92,2.055 0,1.135 0,0"
                 inkscape:connector-curvature="0" />
            </g>
            <g
               transform="translate(11,1)"
               id="g423">
              <path
                 id="path425"
                 style="fill:#d99e82;fill-opacity:1;fill-rule:nonzero;stroke:none"
                 d="M 0,0 C -2,0 -2,4 2,4 6,4 6.062,0 4,0 L 0,0 Z"
                 inkscape:connector-curvature="0" />
            </g>
            <g
               transform="translate(21,1)"
               id="g427">
              <path
                 id="path429"
                 style="fill:#d99e82;fill-opacity:1;fill-rule:nonzero;stroke:none"
                 d="M 0,0 C -2,0 -2,4 2,4 6,4 6.062,0 4,0 L 0,0 Z"
                 inkscape:connector-curvature="0" />
            </g>
          </g>
        </g>
      </g>
    </g>
    <g
       transform="matrix(0.54287262,0.32619078,-0.32619078,0.54287262,104.07177,45.463216)"
       id="g431">
      <g
         transform="matrix(1.25,0,0,-1.25,0,45)"
         id="g433">
        <g
           id="g435">
          <g
             clip-path="url(#clipPath16)"
             id="g437">
            <g
               transform="translate(18,1)"
               id="g439">
              <path
                 id="path441"
                 style="fill:#ccd6dd;fill-opacity:1;fill-rule:nonzero;stroke:none"
                 d="m 0,0 c -14.958,0 -17,14 -17,18 l 34,0 C 17,16 15.042,0 0,0"
                 inkscape:connector-curvature="0" />
            </g>
            <g
               transform="translate(35,18.9443)"
               id="g443">
              <path
                 id="path445"
                 style="fill:#66757f;fill-opacity:1;fill-rule:nonzero;stroke:none"
                 d="m 0,0 c 0,-5.216 -7.611,-9.444 -17,-9.444 -9.389,0 -17,4.228 -17,9.444 0,5.216 7.611,8.444 17,8.444 C -7.611,8.444 0,5.216 0,0"
                 inkscape:connector-curvature="0" />
            </g>
            <g
               transform="translate(2.7085,17.125)"
               id="g447">
              <path
                 id="path449"
                 style="fill:#77b255;fill-opacity:1;fill-rule:nonzero;stroke:none"
                 d="M 0,0 C -0.808,1.161 -2.333,3.5 -0.708,7 0,8.833 1.471,10.027 1.667,9.458 2.125,8.125 3.042,6.958 4.417,7.083 4.399,6.61 3.748,11.392 6.042,12.667 c 1.125,0.625 2.333,-0.375 3.708,-2.584 2.202,-3.536 7.811,-1.884 9.385,-0.958 1.594,0.938 2.991,1.552 2.574,4.063 -0.092,0.55 0.743,1.029 1.594,0.573 1.431,-0.766 3.498,-2.671 3.864,-4.761 1.02,-0.271 1.786,0.163 2.375,1.354 0.292,0.59 1.292,0.729 1.719,-0.041 0.754,-1.356 1.992,-5.526 0.24,-9.105 -2,-4.083 -5.042,-6.25 -11.875,-7.125 C 12.792,-6.792 4,-5.75 0,0"
                 inkscape:connector-curvature="0" />
            </g>
            <g
               transform="translate(19.417,25.854)"
               id="g451">
              <path
                 id="path453"
                 style="fill:#5c913b;fill-opacity:1;fill-rule:nonzero;stroke:none"
                 d="m 0,0 c 0,-2.105 -1.81,-3.813 -4.042,-3.813 -2.232,0 -4.042,1.708 -4.042,3.813 0,2.105 1.81,3.813 4.042,3.813 C -1.81,3.813 0,2.105 0,0"
                 inkscape:connector-curvature="0" />
            </g>
            <g
               transform="translate(18.417,25.8535)"
               id="g455">
              <path
                 id="path457"
                 style="fill:#c6e5b3;fill-opacity:1;fill-rule:nonzero;stroke:none"
                 d="m 0,0 c 0,-1.585 -1.362,-2.869 -3.042,-2.869 -1.68,0 -3.042,1.284 -3.042,2.869 0,1.585 1.362,2.87 3.042,2.87 C -1.362,2.87 0,1.585 0,0"
                 inkscape:connector-curvature="0" />
            </g>
            <g
               transform="translate(10.459,21.5)"
               id="g459">
              <path
                 id="path461"
                 style="fill:#292f33;fill-opacity:1;fill-rule:nonzero;stroke:none"
                 d="m 0,0 c 0,-1.104 -1.026,-2 -2.292,-2 -1.266,0 -2.292,0.896 -2.292,2 0,1.105 1.026,2 2.292,2 C -1.026,2 0,1.105 0,0"
                 inkscape:connector-curvature="0" />
            </g>
            <g
               transform="translate(17.5244,20.8179)"
               id="g463">
              <path
                 id="path465"
                 style="fill:#dd2e44;fill-opacity:1;fill-rule:nonzero;stroke:none"
                 d="m 0,0 c 1.267,-2.388 -2.104,-0.951 -4.614,-2.284 -2.51,-1.332 -3.209,-4.928 -4.477,-2.541 -1.267,2.388 -0.26,5.405 2.25,6.737 C -4.331,3.244 -1.268,2.388 0,0"
                 inkscape:connector-curvature="0" />
            </g>
            <g
               transform="translate(26.459,23.5)"
               id="g467">
              <path
                 id="path469"
                 style="fill:#292f33;fill-opacity:1;fill-rule:nonzero;stroke:none"
                 d="m 0,0 c 0,-1.104 -1.026,-2 -2.292,-2 -1.266,0 -2.292,0.896 -2.292,2 0,1.105 1.026,2 2.292,2 C -1.026,2 0,1.105 0,0"
                 inkscape:connector-curvature="0" />
            </g>
            <g
               transform="translate(29.1172,15.8711)"
               id="g471">
              <path
                 id="path473"
                 style="fill:#9266cc;fill-opacity:1;fill-rule:nonzero;stroke:none"
                 d="M 0,0 C -1.564,-1.48 -1.178,1.412 -2.734,3.056 -4.292,4.7 -7.2,4.471 -5.638,5.952 -4.074,7.434 -1.544,7.301 0.013,5.658 1.569,4.015 1.563,1.481 0,0"
                 inkscape:connector-curvature="0" />
            </g>
            <g
               transform="translate(28.1172,14.8711)"
               id="g475">
              <path
                 id="path477"
                 style="fill:#e1e8ed;fill-opacity:1;fill-rule:nonzero;stroke:none"
                 d="M 0,0 C -1.564,-1.48 -1.178,1.412 -2.734,3.057 -4.292,4.7 -7.2,4.471 -5.638,5.952 -4.074,7.434 -1.544,7.301 0.013,5.658 1.569,4.015 1.563,1.481 0,0"
                 inkscape:connector-curvature="0" />
            </g>
            <g
               transform="translate(24.0127,16.0723)"
               id="g479">
              <path
                 id="path481"
                 style="fill:#dd2e44;fill-opacity:1;fill-rule:nonzero;stroke:none"
                 d="m 0,0 c 0.781,-2.063 -1.798,-0.555 -3.966,-1.377 -2.166,-0.821 -3.099,-3.658 -3.881,-1.597 -0.781,2.06 0.343,4.398 2.509,5.219 C -3.171,3.066 -0.781,2.06 0,0"
                 inkscape:connector-curvature="0" />
            </g>
            <g
               transform="translate(8.9585,16.916)"
               id="g483">
              <path
                 id="path485"
                 style="fill:#ea596e;fill-opacity:1;fill-rule:nonzero;stroke:none"
                 d="M 0,0 C -0.167,1.542 2.834,8.418 8.167,2.417 6.917,2.209 3.875,2.209 2.5,0.292 1.125,-1.624 -0.125,0.084 0,0"
                 inkscape:connector-curvature="0" />
            </g>
            <g
               transform="translate(4.917,16.291)"
               id="g487">
              <path
                 id="path489"
                 style="fill:#a6d388;fill-opacity:1;fill-rule:nonzero;stroke:none"
                 d="M 0,0 C -0.728,0.971 1.75,3.209 3.625,1.293 4.417,2.251 8.333,4.167 9.792,0 10.458,0.75 15.917,0.917 16,-3.708 16.041,-4.333 9.705,-4.214 6.458,-3.458 4.667,-3.041 1.375,-1.833 0,0"
                 inkscape:connector-curvature="0" />
            </g>
            <g
               transform="translate(26,13.542)"
               id="g491">
              <path
                 id="path493"
                 style="fill:#a6d388;fill-opacity:1;fill-rule:nonzero;stroke:none"
                 d="M 0,0 C -1.167,-0.315 0.793,5.125 4.459,4.208 4.584,5.208 5.375,8.5 7.667,7.916 7.75,6.958 7.708,2.084 0,0"
                 inkscape:connector-curvature="0" />
            </g>
          </g>
        </g>
      </g>
    </g>
    <g
       transform="matrix(0.94890628,0.1844487,-0.1844487,0.94890628,58.656246,129.19124)"
       id="g495">
      <g
         transform="matrix(1.25,0,0,-1.25,0,47.5)"
         id="g497">
        <g
           id="g499">
          <g
             clip-path="url(#clipPath16)"
             id="g501">
            <g
               transform="translate(20.6016,4.6709)"
               id="g503">
              <path
                 id="path505"
                 style="fill:#77b255;fill-opacity:1;fill-rule:nonzero;stroke:none"
                 d="M 0,0 C 6.509,-6.506 17.254,7.669 15.72,7.669 8.052,7.669 -6.506,6.508 0,0"
                 inkscape:connector-curvature="0" />
            </g>
            <g
               transform="translate(16.6445,3.6279)"
               id="g507">
              <path
                 id="path509"
                 style="fill:#77b255;fill-opacity:1;fill-rule:nonzero;stroke:none"
                 d="M 0,0 C -6.032,-6.032 -15.715,7.109 -14.292,7.109 -7.182,7.109 6.035,6.034 0,0"
                 inkscape:connector-curvature="0" />
            </g>
            <g
               transform="translate(35.6133,21.2461)"
               id="g511">
              <path
                 id="path513"
                 style="fill:#f4abba;fill-opacity:1;fill-rule:nonzero;stroke:none"
                 d="m 0,0 c -0.052,0.901 -0.175,2.585 -1.398,4.227 -1.161,1.549 -3.805,3.371 -5.535,2.585 0.516,1.676 -0.263,4.125 -1.191,5.49 -1.179,1.737 -4.262,3.843 -8.146,3.027 -1.754,-0.37 -4.18,-2.036 -4.632,-3.865 -1.18,1.472 -4.221,1.675 -6.015,1.222 -2.025,-0.511 -3.153,-1.777 -3.739,-2.461 l 0.004,0.005 c -0.01,-0.01 -0.02,-0.024 -0.03,-0.034 -0.007,-0.009 -0.02,-0.024 -0.027,-0.033 -0.583,-0.689 -1.656,-1.994 -1.847,-4.074 -0.193,-2.146 0.75,-5.832 3.026,-6.042 0.149,-0.014 0.323,-0.031 0.513,-0.051 -2.27,-0.098 -3.572,-3.654 -3.594,-5.8 -0.023,-2.101 0.926,-3.506 1.443,-4.243 l -0.003,0.004 c 0.008,-0.01 0.019,-0.024 0.025,-0.036 0.007,-0.011 0.02,-0.024 0.026,-0.036 0.523,-0.733 1.525,-2.094 3.515,-2.777 1.958,-0.669 5.553,-0.656 6.566,1.237 -0.273,-2.244 3.028,-4.077 5.17,-4.439 2.115,-0.358 3.71,0.358 4.55,0.753 l -0.005,-0.003 c 0.012,0.008 0.028,0.015 0.041,0.021 0.011,0.005 0.028,0.013 0.041,0.019 0.838,0.401 2.397,1.178 3.462,3.04 0.728,1.283 1.269,3.404 0.951,5.015 0.064,-0.043 0.136,-0.089 0.192,-0.127 1.826,-1.224 4.63,1.119 5.705,2.938 C 0.111,-2.675 0,-0.012 0,0"
                 inkscape:connector-curvature="0" />
            </g>
            <g
               transform="translate(28.542,23.4585)"
               id="g515">
              <path
                 id="path517"
                 style="fill:#ea596e;fill-opacity:1;fill-rule:nonzero;stroke:none"
                 d="m 0,0 c -1.786,0.997 -4.874,0.434 -6.792,-0.308 -0.266,0.468 -0.621,0.875 -1.051,1.196 1.393,1.607 3.527,4.593 1.468,6.362 -2.191,1.883 -3.74,-2.154 -3.575,-5.605 -0.068,0.003 -0.132,0.02 -0.2,0.02 -1.02,0 -1.94,-0.402 -2.632,-1.045 -1.402,2.277 -3.943,4.244 -5.314,2.392 -1.482,-2.002 1.149,-3.153 4.222,-4.199 -0.09,-0.329 -0.154,-0.668 -0.154,-1.026 0,-0.456 0.093,-0.887 0.237,-1.293 -2.54,-0.733 -6.236,-2.718 -4.209,-4.911 2.121,-2.295 4.471,1.239 5.603,3.053 0.635,-0.454 1.407,-0.727 2.247,-0.727 0.224,0 0.441,0.029 0.655,0.066 -0.109,-4.802 1.443,-7.07 4.036,-5.892 2.295,1.043 -0.137,5.299 -1.781,7.166 0.316,0.362 0.564,0.779 0.729,1.241 C 0.497,-6.054 2.078,-1.159 0,0"
                 inkscape:connector-curvature="0" />
            </g>
            <g
               transform="translate(18.707,19.541)"
               id="g519">
              <path
                 id="path521"
                 style="fill:#be1931;fill-opacity:1;fill-rule:nonzero;stroke:none"
                 d="m 0,0 c -0.679,0 -0.668,0.562 -0.832,1.25 -0.532,2.234 -2.381,6.309 -4.601,9.163 -0.508,0.654 -0.39,1.596 0.264,2.105 0.654,0.508 1.596,0.391 2.105,-0.263 C -0.625,9.119 0.199,4.851 0.918,1.834 1.109,1.028 1.155,0.233 0.349,0.042 0.232,0.014 0.115,0 0,0"
                 inkscape:connector-curvature="0" />
            </g>
            <g
               transform="translate(16.9043,31.6729)"
               id="g523">
              <path
                 id="path525"
                 style="fill:#ffcc4d;fill-opacity:1;fill-rule:nonzero;stroke:none"
                 d="m 0,0 c 0.498,-0.684 0.079,-1.838 -0.936,-2.578 l -0.475,-0.346 c -1.016,-0.74 -2.242,-0.785 -2.741,-0.101 l -2.781,3.816 c -0.498,0.684 -0.079,1.838 0.937,2.578 l 0.475,0.346 c 1.015,0.74 2.242,0.785 2.74,0.101 L 0,0 Z"
                 inkscape:connector-curvature="0" />
            </g>
          </g>
        </g>
      </g>
    </g>
    <g
       transform="matrix(0.51305123,-0.65667563,0.65667563,0.51305123,40.102324,55.168573)"
       id="g527">
      <g
         transform="matrix(1.25,0,0,-1.25,0,47.5)"
         id="g529">
        <g
           id="g531">
          <g
             clip-path="url(#clipPath16)"
             id="g533">
            <g
               transform="translate(37,15)"
               id="g535">
              <path
                 id="path537"
                 style="fill:#c6e5b3;fill-opacity:1;fill-rule:nonzero;stroke:none"
                 d="m 0,0 c 0,-7.456 -8.059,-12 -18,-12 -9.941,0 -18,4.544 -18,12 0,7.456 8.059,15 18,15 C -8.059,15 0,7.456 0,0"
                 inkscape:connector-curvature="0" />
            </g>
            <g
               transform="translate(32.7549,24.3242)"
               id="g539">
              <path
                 id="path541"
                 style="fill:#77b255;fill-opacity:1;fill-rule:nonzero;stroke:none"
                 d="m 0,0 c 1.368,1.1 2.245,2.785 2.245,4.676 0,3.313 -2.686,6 -6,6 -2.861,0 -5.25,-2.005 -5.85,-4.685 -1.289,0.483 -2.684,0.758 -4.15,0.758 -1.465,0 -2.861,-0.275 -4.149,-0.758 -0.601,2.68 -2.99,4.685 -5.851,4.685 -3.313,0 -6,-2.687 -6,-6 0,-1.891 0.878,-3.576 2.245,-4.676 -2.645,-2.68 -4.245,-6.009 -4.245,-9.324 0,-7.456 8.059,-1 18,-1 9.942,0 18,-6.456 18,1 C 4.245,-6.009 2.646,-2.68 0,0"
                 inkscape:connector-curvature="0" />
            </g>
            <g
               transform="translate(12,29.5)"
               id="g543">
              <path
                 id="path545"
                 style="fill:#ffffff;fill-opacity:1;fill-rule:nonzero;stroke:none"
                 d="M 0,0 C 0,-1.933 -1.567,-3.5 -3.5,-3.5 -5.433,-3.5 -7,-1.933 -7,0 -7,1.933 -5.433,3.5 -3.5,3.5 -1.567,3.5 0,1.933 0,0"
                 inkscape:connector-curvature="0" />
            </g>
            <g
               transform="translate(10,29.5)"
               id="g547">
              <path
                 id="path549"
                 style="fill:#292f33;fill-opacity:1;fill-rule:nonzero;stroke:none"
                 d="M 0,0 C 0,-0.829 -0.671,-1.5 -1.5,-1.5 -2.329,-1.5 -3,-0.829 -3,0 -3,0.829 -2.329,1.5 -1.5,1.5 -0.671,1.5 0,0.829 0,0"
                 inkscape:connector-curvature="0" />
            </g>
            <g
               transform="translate(33,29.5)"
               id="g551">
              <path
                 id="path553"
                 style="fill:#ffffff;fill-opacity:1;fill-rule:nonzero;stroke:none"
                 d="M 0,0 C 0,-1.933 -1.566,-3.5 -3.5,-3.5 -5.434,-3.5 -7,-1.933 -7,0 -7,1.933 -5.434,3.5 -3.5,3.5 -1.566,3.5 0,1.933 0,0"
                 inkscape:connector-curvature="0" />
            </g>
            <g
               transform="translate(31,29.5)"
               id="g555">
              <path
                 id="path557"
                 style="fill:#292f33;fill-opacity:1;fill-rule:nonzero;stroke:none"
                 d="M 0,0 C 0,-0.829 -0.672,-1.5 -1.5,-1.5 -2.328,-1.5 -3,-0.829 -3,0 -3,0.829 -2.328,1.5 -1.5,1.5 -0.672,1.5 0,0.829 0,0"
                 inkscape:connector-curvature="0" />
            </g>
            <g
               transform="translate(16,17)"
               id="g559">
              <path
                 id="path561"
                 style="fill:#5c913b;fill-opacity:1;fill-rule:nonzero;stroke:none"
                 d="m 0,0 c 0,-0.553 -0.448,-1 -1,-1 -0.552,0 -1,0.447 -1,1 0,0.553 0.448,1 1,1 0.552,0 1,-0.447 1,-1"
                 inkscape:connector-curvature="0" />
            </g>
            <g
               transform="translate(24,17)"
               id="g563">
              <path
                 id="path565"
                 style="fill:#5c913b;fill-opacity:1;fill-rule:nonzero;stroke:none"
                 d="m 0,0 c 0,-0.553 -0.447,-1 -1,-1 -0.553,0 -1,0.447 -1,1 0,0.553 0.447,1 1,1 0.553,0 1,-0.447 1,-1"
                 inkscape:connector-curvature="0" />
            </g>
          </g>
        </g>
      </g>
    </g>
  </g>
</svg>
