<?xml version="1.0" encoding="UTF-8" standalone="no"?>
<svg
   xmlns:dc="http://purl.org/dc/elements/1.1/"
   xmlns:cc="http://creativecommons.org/ns#"
   xmlns:rdf="http://www.w3.org/1999/02/22-rdf-syntax-ns#"
   xmlns:svg="http://www.w3.org/2000/svg"
   xmlns="http://www.w3.org/2000/svg"
   xmlns:sodipodi="http://sodipodi.sourceforge.net/DTD/sodipodi-0.dtd"
   xmlns:inkscape="http://www.inkscape.org/namespaces/inkscape"
   version="1.1"
   id="svg2"
   viewBox="0 0 200 200"
   height="200px"
   width="200px"
   inkscape:version="0.91 r13725"
   sodipodi:docname="7.svg">
  <metadata
     id="metadata409">
    <rdf:RDF>
      <cc:Work
         rdf:about="">
        <dc:format>image/svg+xml</dc:format>
        <dc:type
           rdf:resource="http://purl.org/dc/dcmitype/StillImage" />
      </cc:Work>
    </rdf:RDF>
  </metadata>
  <sodipodi:namedview
     pagecolor="#ffffff"
     bordercolor="#666666"
     borderopacity="1"
     objecttolerance="10"
     gridtolerance="10"
     guidetolerance="10"
     inkscape:pageopacity="0"
     inkscape:pageshadow="2"
     inkscape:window-width="1920"
     inkscape:window-height="1060"
     id="namedview407"
     showgrid="false"
     inkscape:zoom="3.337544"
     inkscape:cx="70.771022"
     inkscape:cy="98.279834"
     inkscape:window-x="0"
     inkscape:window-y="0"
     inkscape:window-maximized="1"
     inkscape:current-layer="layer1" />
  <defs
     id="defs6">
    <clipPath
       id="clipPath28"
       clipPathUnits="userSpaceOnUse">
      <path
         id="path30"
         d="M 4,36 C 0,36 0,32 0,32 L 0,32 0,4 C 0,0 4,0 4,0 l 0,0 28,0 c 4,0 4,4 4,4 l 0,0 0,28 c 0,4 -4,4 -4,4 l 0,0 -28,0 z" />
    </clipPath>
    <clipPath
       clipPathUnits="userSpaceOnUse"
       id="clipPath16-rugby">
      <path
         d="M 0,38 38,38 38,0 0,0 0,38 Z"
         id="path18" />
    </clipPath>
    <clipPath
       clipPathUnits="userSpaceOnUse"
       id="clipPath28-rugby">
      <path
         d="M 9.254,28.746 C 2.09,21.582 -0.927,9.561 3.929,3.929 l 0,0 C 9.561,-0.927 21.582,2.09 28.746,9.254 l 0,0 c 7.164,7.164 11.229,17.088 5.324,24.816 l 0,0 c -1.886,1.627 -4.489,2.371 -7.387,2.37 l 0,0 c -5.752,0 -12.665,-2.93 -17.429,-7.694"
         id="path11" />
    </clipPath>
    <clipPath
       clipPathUnits="userSpaceOnUse"
       id="clipPath16-carrot">
      <path
         d="M 0,36 36,36 36,0 0,0 0,36 Z"
         id="path14" />
    </clipPath>
    <clipPath
       clipPathUnits="userSpaceOnUse"
       id="clipPath32-carrot">
      <path
         d="M 11.815,23.013 C 4.2,15.397 -1.265,2.86 0.502,1.093 l 0,0 c 1.768,-1.768 14.305,3.698 21.92,11.313 l 0,0 c 7.616,7.615 7.562,11.53 4.243,14.85 l 0,0 c -1.328,1.328 -2.752,2.133 -4.47,2.133 l 0,0 c -2.575,0 -5.812,-1.809 -10.38,-6.376"
         id="path34" />
    </clipPath>
    <clipPath
       clipPathUnits="userSpaceOnUse"
       id="clipPath32-hat">
      <path
         d="m 5,33.666 c 0,-0.034 0.018,-0.067 0.022,-0.101 l 0,0 C 5.008,33.455 5,33.335 5,33.2 l 0,0 L 6.802,9.616 C 3.299,8.705 1,7.424 1,6 L 1,6 C 1,3.238 9.611,1 19,1 l 0,0 c 9.389,0 18,2.238 18,5 l 0,0 c 0,1.424 -2.298,2.705 -5.801,3.616 l 0,0 L 33,33.184 c 0,0.135 -0.008,0.263 -0.021,0.373 l 0,0 C 32.982,33.591 33,33.632 33,33.666 l 0,0 c 0,1.805 -6.268,3.267 -14,3.267 l 0,0 c -7.732,0 -14,-1.462 -14,-3.267"
         id="path19" />
    </clipPath>
    <clipPath
       clipPathUnits="userSpaceOnUse"
       id="clipPath48-soccer">
      <path
         d="M 1,19 C 1,9.059 9.059,1 19,1 l 0,0 c 9.941,0 18,8.059 18,18 l 0,0 c 0,9.941 -8.059,18 -18,18 l 0,0 C 9.059,37 1,28.941 1,19"
         id="path50" />
    </clipPath>
    <clipPath
       clipPathUnits="userSpaceOnUse"
       id="clipPath28-baguette">
      <path
         d="M 24.052,31.33 5.126,12.406 C 1.342,8.62 1.288,4.133 2.856,2.564 l 0,0 C 4.424,0.997 8.912,1.049 12.697,4.835 l 0,0 18.925,18.924 c 3.784,3.785 3.837,8.273 2.269,9.841 l 0,0 c -0.605,0.606 -1.647,0.969 -2.915,0.969 l 0,0 c -2.014,0 -4.602,-0.917 -6.924,-3.239"
         id="path24" />
    </clipPath>
  </defs>
  <g
     id="layer1">
    <circle
       style="opacity:1;fill:white;stroke:black;stroke-width:1;stroke-miterlimit:4;stroke-dasharray:none;stroke-opacity:0.1"
       id="path4039-0-9"
       cx="100px"
       cy="100px"
       r="90px" />
    <g
       transform="matrix(-0.03024623,0.86613872,-0.86613872,-0.03024623,183.28559,77.629981)"
       id="g7">
      <g
         transform="matrix(1.25,0,0,-1.25,0,47.5)"
         id="g10">
        <g
           id="g12">
          <g
             clip-path="url(#clipPath16)"
             id="g14">
            <g
               transform="translate(26,2)"
               id="g20">
              <path
                 id="path22"
                 style="fill:#292f33;fill-opacity:1;fill-rule:nonzero;stroke:none"
                 d="M 0,0 C -2.75,0 -2,6 -2,6 -2,7.104 0.646,8 1.75,8 2.854,8 5,8.104 5,7 5,7 2.75,0 0,0"
                 inkscape:connector-curvature="0" />
            </g>
            <g
               transform="translate(29,1)"
               id="g24">
              <path
                 id="path26"
                 style="fill:#66757f;fill-opacity:1;fill-rule:nonzero;stroke:none"
                 d="M 0,0 C -2.75,0 -2,6 -2,6 -2,7.104 0.646,8 1.75,8 2.854,8 5,8.104 5,7 5,7 2.75,0 0,0"
                 inkscape:connector-curvature="0" />
            </g>
            <g
               transform="translate(15,2)"
               id="g28">
              <path
                 id="path17"
                 style="fill:#292f33;fill-opacity:1;fill-rule:nonzero;stroke:none"
                 d="m 0,0 c -2.75,0 -4,6 -4,6 0,1.104 2.646,2 3.75,2 C 0.854,8 3,8.104 3,7 3,7 2.75,0 0,0"
                 inkscape:connector-curvature="0" />
            </g>
            <g
               transform="translate(18,1)"
               id="g32">
              <path
                 id="path39"
                 style="fill:#66757f;fill-opacity:1;fill-rule:nonzero;stroke:none"
                 d="m 0,0 c -2.75,0 -4,6 -4,6 0,1.104 2.646,2 3.75,2 C 0.854,8 3,8.104 3,7 3,7 2.75,0 0,0"
                 inkscape:connector-curvature="0" />
            </g>
            <g
               transform="translate(36.75,15.6162)"
               id="g36">
              <path
                 id="path38"
                 style="fill:#e1e8ed;fill-opacity:1;fill-rule:nonzero;stroke:none"
                 d="M 0,0 C 0,-7.782 -4.495,-11.408 -14.519,-11.408 -24.542,-11.408 -28,-7.782 -28,0 c 0,7.783 3.458,11.407 13.481,11.407 C -4.495,11.407 0,7.783 0,0"
                 inkscape:connector-curvature="0" />
            </g>
            <g
               transform="translate(18,19.333)"
               id="g40">
              <path
                 id="path42"
                 style="fill:#99aab5;fill-opacity:1;fill-rule:nonzero;stroke:none"
                 d="m 0,0 c 0,-9.333 -4.655,-11.333 -8.958,-11.333 -4.304,0 -7.042,6.64 -7.042,11.333 0,4.694 2.738,5.667 7.042,5.667 C -4.655,5.667 0,4.694 0,0"
                 inkscape:connector-curvature="0" />
            </g>
            <g
               transform="translate(7,16.5)"
               id="g44">
              <path
                 id="path46"
                 style="fill:#292f33;fill-opacity:1;fill-rule:nonzero;stroke:none"
                 d="M 0,0 C 0,-0.828 -0.671,-1.5 -1.5,-1.5 -2.329,-1.5 -3,-0.828 -3,0 -3,0.828 -2.329,1.5 -1.5,1.5 -0.671,1.5 0,0.828 0,0"
                 inkscape:connector-curvature="0" />
            </g>
            <g
               transform="translate(16.75,24.25)"
               id="g48">
              <path
                 id="path48"
                 style="fill:#e1e8ed;fill-opacity:1;fill-rule:nonzero;stroke:none"
                 d="m 0,0 c -1.75,-3.25 -2.128,-2.606 -7.128,-4.606 -3.077,-1.231 -8.622,-0.894 -8.622,3.856 0,1.933 3.687,2.5 7,2.5 C -5.437,1.75 1.659,3.082 0,0"
                 inkscape:connector-curvature="0" />
            </g>
            <g
               transform="translate(17,23.3042)"
               id="g52">
              <path
                 id="path54"
                 style="fill:#ffcc4d;fill-opacity:1;fill-rule:nonzero;stroke:none"
                 d="m 0,0 c 3.353,-2.427 5.43,-6.139 3.724,-11.089 -1.368,-3.967 -6.817,-3.116 -9.617,-1.127 -2.798,1.988 -2.642,4.792 -1.733,6.291 0.909,1.497 4.158,1.228 6.024,-0.097 0.934,-0.663 0.288,-1.56 -0.72,-1.068 -2.292,1.118 -3.037,-1.444 -1.246,-2.882 1.265,-1.016 3.274,-1.049 3.655,1.01 0.671,3.629 -3.505,6.274 -7.465,5.301 C -5,-2.304 -2.839,2.055 0,0"
                 inkscape:connector-curvature="0" />
            </g>
          </g>
        </g>
      </g>
    </g>
    <g
       transform="matrix(-0.25951635,0.75369019,-0.75369019,-0.25951635,141.87873,150.03961)"
       id="g31">
      <g
         transform="matrix(1.25,0,0,-1.25,0,45)"
         id="g33">
        <g
           id="g35">
          <g
             clip-path="url(#clipPath16)"
             id="g37">
            <g
               transform="translate(25,18.875)"
               id="g39">
              <path
                 id="path41"
                 style="fill:#ef9645;fill-opacity:1;fill-rule:nonzero;stroke:none"
                 d="m 0,0 -8,-0.021 c -1.104,0 -1.875,-0.75 -1.875,-1.854 0,-1.104 0.771,-1.854 1.875,-1.854 l 5.266,-0.021 c 0,0 0.88,0.104 0.88,-0.625 C -1.854,-4.651 -2.224,-5 -2.5,-5 -2.5,-5 -7,-4.792 -7.375,-11.875 -7.39,-12.151 -7.724,-12.5 -8,-12.5 c -0.276,0 -0.625,0.349 -0.625,0.625 0,3.01 1.396,5.938 2.867,6.824 -0.91,0 -1.711,0.051 -2.242,0.051 -1,0 -1.438,0.334 -1.438,0.333 -0.146,-0.231 -0.562,-1.27 -2.687,-1.27 -2.375,0 -3.021,2.362 -3.021,3.02 l 0,5.021 0.146,0.021 c 0,0.811 0.485,1.507 1.18,1.82 l -0.097,-6.653 c 0,-1.105 0.813,-2.084 1.917,-2.084 0.755,0 1.263,0.341 1.604,0.959 -0.458,0.526 -0.677,1.132 -0.677,1.885 0,0.886 0.318,1.795 0.927,2.344 l 0.042,2.708 0.104,0.021 c 0,0.811 0.485,1.507 1.18,1.82 L -8.875,2.125 -8.896,1.104 c 0.315,0.111 0.564,0.146 0.917,0.146 l 2.875,-0.021 0,2.917 0.104,-0.021 0,9 c 0,0.811 0.485,1.507 1.18,1.82 l -0.034,-13.66 3.646,0 L 0,1.125 c 0.922,0 1.723,-2 1.723,-2 0,0 0.002,-0.013 0.002,-0.015 C 1.481,-0.471 0.968,0 0,0"
                 inkscape:connector-curvature="0" />
            </g>
            <g
               transform="translate(15,19.2217)"
               id="g43">
              <path
                 id="path45"
                 style="fill:#ffdc5d;fill-opacity:1;fill-rule:nonzero;stroke:none"
                 d="m 0,0 c -0.609,-0.549 -1,-1.336 -1,-2.222 0,-0.753 0.287,-1.432 0.745,-1.959 -0.341,-0.617 -0.99,-1.041 -1.745,-1.041 -1.104,0 -2,0.896 -2,2 l 0,6 c 0,0.293 0.067,0.57 0.18,0.82 0.313,0.695 1.009,1.18 1.82,1.18 1.104,0 2,-0.895 2,-2 l 0,-1 L 0,0 Z"
                 inkscape:connector-curvature="0" />
            </g>
            <g
               transform="translate(6,30)"
               id="g47">
              <path
                 id="path49"
                 style="fill:#ffdc5d;fill-opacity:1;fill-rule:nonzero;stroke:none"
                 d="M 0,0 C 0,1.104 0.896,2 2,2 3.104,2 4,1.104 4,0 l 0,-9 0,-2 0,-3 c 0,-0.658 0.217,-1.262 0.578,-1.753 0.028,-0.037 0.061,-0.068 0.089,-0.102 0.104,-0.129 0.21,-0.255 0.332,-0.366 0.033,-0.027 0.066,-0.054 0.1,-0.082 0.119,-0.098 0.243,-0.188 0.377,-0.268 0.066,-0.039 0.131,-0.075 0.201,-0.109 0.139,-0.069 0.285,-0.125 0.435,-0.172 0.068,-0.02 0.131,-0.045 0.2,-0.061 C 6.534,-16.966 6.763,-17 7,-17 c 0.236,0 0.461,0.036 0.681,0.089 0.076,0.017 0.148,0.042 0.222,0.066 0.137,0.044 0.269,0.099 0.396,0.161 0.082,0.04 0.163,0.077 0.24,0.124 0.164,0.1 0.318,0.213 0.46,0.341 0.202,0.184 0.384,0.387 0.53,0.618 -10e-4,0.001 -0.002,0.002 -0.003,0.003 C 9.727,-15.713 10,-16 11,-16 l 2.537,0 c -1.808,-1.365 -3.037,-3.99 -3.037,-7 0,-0.276 0.224,-0.5 0.5,-0.5 0.276,0 0.5,0.224 0.5,0.5 0,3.859 2.187,7 4.875,7 l 0.125,0 c 0.276,0 0.5,0.224 0.5,0.5 0,0.276 -0.224,0.5 -0.5,0.5 l -1.5,0 -4,0 c -1.104,0 -2,0.896 -2,2 0,1.104 0.896,2 2,2 l 8,0 c 0.968,0 1.481,-0.596 1.725,-1.015 0.126,-0.216 0.185,-0.389 0.188,-0.4 L 22,-16 c 0.103,-0.335 0.479,-1.871 0.411,-2.191 C 22.411,-23 17.715,-28 12,-28 5.463,-28 0,-22.75 0,-16 0.008,-16.007 0,0 0,0"
                 inkscape:connector-curvature="0" />
            </g>
            <g
               transform="translate(20,20)"
               id="g51">
              <path
                 id="path53"
                 style="fill:#ffdc5d;fill-opacity:1;fill-rule:nonzero;stroke:none"
                 d="M 0,0 -3,0 C -3.352,0 -3.685,-0.072 -4,-0.184 L -4,1 -4,3 c 0,0.293 0.067,0.569 0.18,0.82 C -3.507,4.515 -2.811,5 -2,5 -0.896,5 0,4.104 0,3 L 0,1 0,0 Z"
                 inkscape:connector-curvature="0" />
            </g>
            <g
               transform="translate(21,20)"
               id="g55">
              <path
                 id="path57"
                 style="fill:#ffdc5d;fill-opacity:1;fill-rule:nonzero;stroke:none"
                 d="m 0,0 0,13 c 0,0.293 0.067,0.569 0.18,0.82 C 0.493,14.515 1.189,15 2,15 3.104,15 4,14.104 4,13 L 4,1 4,0 3,0 0,0 Z"
                 inkscape:connector-curvature="0" />
            </g>
          </g>
        </g>
      </g>
    </g>
    <g
       transform="matrix(-0.44038271,-0.35661489,0.35661489,-0.44038271,109.60489,53.604565)"
       id="g59">
      <g
         transform="matrix(1.25,0,0,-1.25,0,47.5)"
         id="g61">
        <g
           id="g63">
          <g
             clip-path="url(#clipPath16)"
             id="g65">
            <g
               transform="translate(19,36)"
               id="g67">
              <path
                 id="path69"
                 style="fill:#ffcc4d;fill-opacity:1;fill-rule:nonzero;stroke:none"
                 d="m 0,0 c -9.388,0 -17,-7.612 -17,-17 0,-5.715 2.829,-10.759 7.153,-13.841 0.098,6.081 -2.112,12.897 -5.827,12.897 -0.438,0 -0.793,-0.063 -1.089,-0.173 0.286,0.714 0.907,1.117 2.068,1.117 4.032,0 6.295,-8.034 5.754,-14.439 C -6.341,-33.053 -3.285,-34 0,-34 c 3.285,0 6.343,0.948 8.944,2.562 -0.545,6.429 1.717,14.438 5.752,14.438 1.165,0 1.787,-0.402 2.071,-1.117 -0.296,0.11 -0.652,0.173 -1.093,0.173 -3.719,0 -5.93,-6.8 -5.827,-12.897 C 14.171,-27.759 17,-22.715 17,-17 17,-7.612 9.389,0 0,0"
                 inkscape:connector-curvature="0" />
            </g>
            <g
               transform="translate(19,36)"
               id="g71">
              <path
                 id="path73"
                 style="fill:#bdddf4;fill-opacity:1;fill-rule:nonzero;stroke:none"
                 d="m 0,0 c -9.388,0 -17,-7.612 -17,-17 0,-1.126 0.116,-2.225 0.325,-3.291 0.221,0.816 0.566,1.598 0.999,2.347 -0.437,0 -0.791,-0.063 -1.087,-0.173 0.25,0.623 0.777,0.99 1.67,1.078 2.826,3.947 8.516,6.65 15.093,6.65 6.577,0 12.267,-2.702 15.093,-6.649 0.897,-0.088 1.426,-0.455 1.674,-1.079 -0.296,0.11 -0.651,0.173 -1.091,0.173 0.433,-0.749 0.778,-1.531 0.999,-2.347 C 16.885,-19.225 17,-18.126 17,-17 17,-7.612 9.389,0 0,0"
                 inkscape:connector-curvature="0" />
            </g>
            <g
               transform="translate(8.3472,25.0898)"
               id="g75">
              <path
                 id="path77"
                 style="fill:#f5f8fa;fill-opacity:1;fill-rule:nonzero;stroke:none"
                 d="M 0,0 C -0.946,-3.176 0.107,-6.293 2.353,-6.962 4.599,-7.632 7.187,-5.6 8.132,-2.424 9.078,0.751 8.025,3.869 5.781,4.538 3.535,5.207 0.947,3.175 0,0"
                 inkscape:connector-curvature="0" />
            </g>
            <g
               transform="translate(29.6523,25.0898)"
               id="g79">
              <path
                 id="path81"
                 style="fill:#f5f8fa;fill-opacity:1;fill-rule:nonzero;stroke:none"
                 d="m 0,0 c 0.946,-3.176 -0.107,-6.293 -2.352,-6.962 -2.247,-0.67 -4.834,1.362 -5.78,4.538 -0.946,3.175 0.107,6.293 2.351,6.962 C -3.535,5.207 -0.947,3.175 0,0"
                 inkscape:connector-curvature="0" />
            </g>
            <g
               transform="translate(19,19)"
               id="g83">
              <path
                 id="path85"
                 style="fill:#664500;fill-opacity:1;fill-rule:nonzero;stroke:none"
                 d="m 0,0 c -2.757,0 -5,-2.243 -5,-5 l 0,-6 c 0,-2.757 2.243,-5 5,-5 2.757,0 5,2.243 5,5 l 0,6 C 5,-2.243 2.757,0 0,0"
                 inkscape:connector-curvature="0" />
            </g>
            <g
               transform="translate(3.3263,18.0556)"
               id="g87">
              <path
                 id="path89"
                 style="fill:#fcab40;fill-opacity:1;fill-rule:nonzero;stroke:none"
                 d="m 0,0 c -0.439,0 -0.793,-0.063 -1.089,-0.172 0.068,0.168 0.157,0.317 0.265,0.45 -1.758,-2.165 2.188,-9.288 0.271,-16.334 l 6.101,0 C 6.671,-9.482 4.381,0 0,0"
                 inkscape:connector-curvature="0" />
            </g>
            <g
               transform="translate(35.7666,17.8831)"
               id="g91">
              <path
                 id="path93"
                 style="fill:#fcab40;fill-opacity:1;fill-rule:nonzero;stroke:none"
                 d="m 0,0 c -0.296,0.11 -0.652,0.172 -1.093,0.172 -4.383,0 -6.673,-9.446 -5.547,-16.055 l 6.101,0 C -2.338,-9.23 1.026,-2.577 0,0"
                 inkscape:connector-curvature="0" />
            </g>
          </g>
        </g>
      </g>
    </g>
    <g
       transform="matrix(0.16900448,0.86945265,-0.86945265,0.16900448,83.778958,102.68785)"
       id="g95">
      <g
         transform="matrix(1.25,0,0,-1.25,0,47.5)"
         id="g97">
        <g
           id="g99">
          <g
             clip-path="url(#clipPath16)"
             id="g101">
            <g
               transform="translate(20,16.7451)"
               id="g103">
              <path
                 id="path105"
                 style="fill:#8899a6;fill-opacity:1;fill-rule:nonzero;stroke:none"
                 d="m 0,0 c 0,0 10.042,2.213 10.042,16.005 0,1.481 -1.167,2.25 -3.416,2.25 l -7.124,0 -1.125,0 -1.125,0 -7.123,0 c -1.125,0 -3.329,0.262 -3.329,-2.125 C -13.2,2.422 -3,0 -3,0 l 0,-10.123 c 0,0 -4.584,-2.34 -5.498,-2.883 -0.984,-0.562 -0.33,-1.462 0.063,-1.617 0.657,-0.258 2.254,-1.102 6.781,-1.102 4.64,0 6.202,0.914 6.764,1.102 0.217,0.072 1.347,0.932 0.011,1.723 C 2.743,-11.492 0,-10.123 0,-10.123 L 0,0 Z"
                 inkscape:connector-curvature="0" />
            </g>
            <g
               transform="translate(30,33.5576)"
               id="g107">
              <path
                 id="path109"
                 style="fill:#ccd6dd;fill-opacity:1;fill-rule:nonzero;stroke:none"
                 d="m 0,0 c 0,-1.621 -3.547,-2.935 -11.623,-2.935 -8.076,0 -11.623,1.314 -11.623,2.935 0,1.622 3.547,2.935 11.623,2.935 C -3.547,2.935 0,1.622 0,0"
                 inkscape:connector-curvature="0" />
            </g>
            <g
               transform="translate(8.4585,33.4165)"
               id="g111">
              <path
                 id="path113"
                 style="fill:#ccd6dd;fill-opacity:1;fill-rule:nonzero;stroke:none"
                 d="m 0,0 c 2.042,-9.5 5.458,-12.792 8.699,-13.835 1.11,-0.358 2.026,-0.428 2.801,-0.123 3.5,1.375 7.542,5.666 8.167,13.583 C 19.828,1.662 0,0 0,0"
                 inkscape:connector-curvature="0" />
            </g>
            <g
               transform="translate(10,27.5)"
               id="g115">
              <path
                 id="path117"
                 style="fill:#a0041e;fill-opacity:1;fill-rule:nonzero;stroke:none"
                 d="M 0,0 C 0,-3.5 3.333,-8.5 8.333,-8.5 13.334,-8.5 17,-3.042 17,-0.042 11,-0.042 0,0 0,0"
                 inkscape:connector-curvature="0" />
            </g>
            <g
               transform="translate(27,27.5)"
               id="g119">
              <path
                 id="path121"
                 style="fill:#dd2e44;fill-opacity:1;fill-rule:nonzero;stroke:none"
                 d="m 0,0 c 0,-0.829 -3.806,-1.5 -8.5,-1.5 -4.694,0 -8.5,0.671 -8.5,1.5 0,0.829 3.806,1.5 8.5,1.5 C -3.806,1.5 0,0.829 0,0"
                 inkscape:connector-curvature="0" />
            </g>
            <g
               transform="translate(18.168,30.3408)"
               id="g123">
              <path
                 id="path125"
                 style="fill:#ffffff;fill-opacity:1;fill-rule:nonzero;stroke:none"
                 d="m 0,0 c -5.03,0 -8.783,1.11 -9.801,1.587 -0.5,0.235 -0.715,0.83 -0.481,1.33 0.234,0.501 0.831,0.716 1.33,0.481 C -7.713,2.816 0.502,0.504 9.644,3.525 10.167,3.699 10.732,3.414 10.906,2.89 11.08,2.365 10.795,1.799 10.271,1.626 6.594,0.411 3.061,0 0,0"
                 inkscape:connector-curvature="0" />
            </g>
          </g>
        </g>
      </g>
    </g>
    <g
       transform="translate(27.0 55.0) rotate(182 15 15) scale(0.6)"
       id="g127">
      <g
         transform="matrix(1.25,0,0,-1.25,0,47.5)"
         id="g129">
        <g
           id="g131">
          <g
             clip-path="url(#clipPath16)"
             id="g133">
            <g
               transform="translate(25.9248,18.7485)"
               id="g135">
              <path
                 id="path137"
                 style="fill:#f18f26;fill-opacity:1;fill-rule:nonzero;stroke:none"
                 d="m 0,0 c -2.392,-0.797 -3.189,3.189 -3.189,3.189 0,0 1.088,1.092 0.264,2.062 1.283,1.283 0.533,1.925 0.533,1.925 -2.203,2.202 -5.772,2.202 -7.974,0 -0.278,-0.278 -0.466,-0.527 -0.624,-0.764 -0.068,-0.098 -0.13,-0.196 -0.191,-0.296 -0.006,-0.011 -0.01,-0.021 -0.016,-0.031 -0.322,-0.535 -0.553,-1.107 -0.682,-1.701 -0.176,-0.359 -0.427,-0.743 -0.879,-1.195 -1.595,-1.594 -5.581,0.797 -8.771,-2.392 -0.033,-0.032 -0.051,-0.078 -0.077,-0.116 -0.107,-0.095 -0.218,-0.179 -0.321,-0.282 -3.743,-3.743 -3.386,-10.169 0.798,-14.353 3.974,-3.974 9.968,-4.487 13.767,-1.319 0.066,0.035 0.132,0.069 0.185,0.123 0.081,0.081 0.142,0.158 0.218,0.237 0.06,0.056 0.123,0.105 0.181,0.162 1.909,1.91 2.641,4.206 2.352,6.552 -0.076,1.116 -0.186,1.991 0.44,2.617 0.797,0.797 3.188,0 4.783,1.595 C 3.188,-1.595 1.513,0.503 0,0" />
            </g>
            <g
               transform="translate(33.0488,30.9287)"
               id="g139">
              <path
                 id="path141"
                 style="fill:#642116;fill-opacity:1;fill-rule:nonzero;stroke:none"
                 d="m 0,0 -12.141,-12.142 -2.122,2.121 L -2.121,2.122 0,0 Z" />
            </g>
            <g
               transform="translate(36.2041,33.8145)"
               id="g143">
              <path
                 id="path145"
                 style="fill:#f18f26;fill-opacity:1;fill-rule:nonzero;stroke:none"
                 d="m 0,0 c 0.437,-0.438 0.437,-1.155 -0.001,-1.593 l -3.187,-3.185 c -0.438,-0.438 -1.155,-0.438 -1.592,0 l -2.39,2.389 c -0.437,0.438 -0.437,1.155 0.001,1.593 l 3.187,3.185 c 0.438,0.438 1.155,0.438 1.592,0 L 0,0 Z" />
            </g>
            <g
               transform="translate(21,17.4648)"
               id="g147">
              <path
                 id="path149"
                 style="fill:#ccd6dd;fill-opacity:1;fill-rule:nonzero;stroke:none"
                 d="M 0,0 -1.414,-1.415 -4.95,2.121 -3.536,3.535 0,0 Z" />
            </g>
            <g
               transform="translate(17.4639,13.9287)"
               id="g151">
              <path
                 id="path153"
                 style="fill:#ccd6dd;fill-opacity:1;fill-rule:nonzero;stroke:none"
                 d="M 0,0 -1.414,-1.414 -4.95,2.121 -3.536,3.536 0,0 Z" />
            </g>
            <g
               transform="translate(13.9282,11.8076)"
               id="g155">
              <path
                 id="path157"
                 style="fill:#642116;fill-opacity:1;fill-rule:nonzero;stroke:none"
                 d="m 0,0 c 0.389,-0.389 0.389,-1.025 0,-1.414 -0.389,-0.389 -1.025,-0.389 -1.414,0 l -2.122,2.121 c -0.388,0.389 -0.388,1.025 0,1.414 l 10e-4,0 c 0.389,0.389 1.025,0.389 1.414,0 L 0,0 Z" />
            </g>
          </g>
        </g>
      </g>
    </g>
    <g
       transform="matrix(-0.22476396,-0.55631031,0.55631031,-0.22476396,108.8909,144.21967)"
       id="g159">
      <g
         transform="matrix(1.25,0,0,-1.25,0,47.5)"
         id="g161">
        <g
           id="g163">
          <g
             clip-path="url(#clipPath16)"
             id="g165">
            <g
               transform="translate(37,10)"
               id="g167">
              <path
                 id="path169"
                 style="fill:#ccd6dd;fill-opacity:1;fill-rule:nonzero;stroke:none"
                 d="m 0,0 c 0,-2.209 -1.791,-4 -4,-4 l -28,0 c -2.209,0 -4,1.791 -4,4 l 0,18 c 0,2.209 1.791,4 4,4 l 28,0 c 2.209,0 4,-1.791 4,-4 L 0,0 Z"
                 inkscape:connector-curvature="0" />
            </g>
            <g
               transform="translate(12.9492,19.3643)"
               id="g171">
              <path
                 id="path173"
                 style="fill:#99aab5;fill-opacity:1;fill-rule:nonzero;stroke:none"
                 d="m 0,0 -11.313,-11.313 c -0.026,-0.028 -0.037,-0.063 -0.06,-0.091 0.34,-0.571 0.814,-1.043 1.385,-1.384 0.029,0.023 0.063,0.033 0.09,0.059 L 1.416,-1.414 c 0.39,0.391 0.39,1.022 0,1.414 C 1.023,0.391 0.392,0.391 0,0"
                 inkscape:connector-curvature="0" />
            </g>
            <g
               transform="translate(36.4229,7.96)"
               id="g175">
              <path
                 id="path177"
                 style="fill:#99aab5;fill-opacity:1;fill-rule:nonzero;stroke:none"
                 d="m 0,0 c -0.021,0.028 -0.033,0.063 -0.06,0.09 l -11.312,11.314 c -0.392,0.391 -1.024,0.391 -1.415,0 -0.391,-0.391 -0.391,-1.023 0,-1.414 L -1.474,-1.324 c 0.027,-0.027 0.062,-0.037 0.09,-0.06 C -0.813,-1.044 -0.34,-0.57 0,0"
                 inkscape:connector-curvature="0" />
            </g>
            <g
               transform="translate(33,32)"
               id="g179">
              <path
                 id="path181"
                 style="fill:#99aab5;fill-opacity:1;fill-rule:nonzero;stroke:none"
                 d="m 0,0 -28,0 c -2.209,0 -4,-1.791 -4,-4 l 0,-1.03 14.527,-14.495 c 1.895,-1.894 4.989,-1.894 6.885,0 L 4,-5.009 4,-4 C 4,-1.791 2.209,0 0,0"
                 inkscape:connector-curvature="0" />
            </g>
            <g
               transform="translate(33,32)"
               id="g183">
              <path
                 id="path185"
                 style="fill:#e1e8ed;fill-opacity:1;fill-rule:nonzero;stroke:none"
                 d="m 0,0 -28,0 c -1.588,0 -2.949,-0.934 -3.595,-2.275 l 14.766,-14.767 c 1.561,-1.562 4.096,-1.562 5.657,0 L 3.595,-2.275 C 2.949,-0.934 1.589,0 0,0"
                 inkscape:connector-curvature="0" />
            </g>
            <g
               transform="translate(28,20.2202)"
               id="g187">
              <path
                 id="path189"
                 style="fill:#e75a70;fill-opacity:1;fill-rule:nonzero;stroke:none"
                 d="m 0,0 c 0,2.754 -2.232,4.987 -4.986,4.987 -1.672,0 -3.148,-0.826 -4.053,-2.087 -0.906,1.261 -2.381,2.087 -4.051,2.087 -2.754,0 -4.987,-2.233 -4.987,-4.987 0,-0.391 0.05,-0.769 0.134,-1.133 0.693,-4.302 5.476,-8.841 8.904,-10.087 3.428,1.246 8.212,5.785 8.904,10.086 C -0.05,-0.769 0,-0.391 0,0"
                 inkscape:connector-curvature="0" />
            </g>
          </g>
        </g>
      </g>
    </g>
    <g
       transform="matrix(-0.37192466,0.69948855,-0.69948855,-0.37192466,161.23244,53.289804)"
       id="g191">
      <g
         transform="matrix(1.25,0,0,-1.25,0,45)"
         id="g193">
        <g
           id="g195">
          <g
             clip-path="url(#clipPath16)"
             id="g197">
            <g
               transform="translate(18,33)"
               id="g199">
              <path
                 id="path201"
                 style="fill:#f2abba;fill-opacity:1;fill-rule:nonzero;stroke:none"
                 d="m 0,0 c 0,0 0,2 -3,2 -2,0 -5.375,-2.042 -6,-4 -2,0 -5,-4 -4,-7 -3,-1 -3.625,-8.042 -2,-9 -2,-2 -1,-7 3,-8 1.009,-3.095 3.6,-5.153 6,-5 0.875,-0.708 1.792,-1 3,-1 3,0 3,1.958 3,4.958 L 0,0 Z"
                 inkscape:connector-curvature="0" />
            </g>
            <g
               transform="translate(18,33)"
               id="g203">
              <path
                 id="path205"
                 style="fill:#f2abba;fill-opacity:1;fill-rule:nonzero;stroke:none"
                 d="m 0,0 c 0,0 0,2 3,2 2,0 5.375,-2.042 6,-4 2,0 5,-4 4,-7 3,-1 3.625,-8.042 2,-9 2,-2 1,-7 -3,-8 -1.009,-3.095 -3.6,-5.153 -6,-5 -0.875,-0.708 -1.792,-1 -3,-1 -3,0 -3,1.958 -3,4.958 L 0,0 Z"
                 inkscape:connector-curvature="0" />
            </g>
            <g
               transform="translate(12,25.5)"
               id="g207">
              <path
                 id="path209"
                 style="fill:#e75a70;fill-opacity:1;fill-rule:nonzero;stroke:none"
                 d="M 0,0 C -0.052,0 -0.105,0.008 -0.158,0.026 -2.802,0.907 -3.5,3.338 -3.5,4.5 c 0,0.275 0.223,0.498 0.498,0.499 l 0.002,0 c 0.274,0 0.498,-0.222 0.5,-0.497 C -2.499,4.394 -2.451,1.844 0.158,0.974 0.42,0.887 0.562,0.604 0.474,0.342 0.404,0.132 0.209,0 0,0"
                 inkscape:connector-curvature="0" />
            </g>
            <g
               transform="translate(12.0005,23.5)"
               id="g211">
              <path
                 id="path213"
                 style="fill:#e75a70;fill-opacity:1;fill-rule:nonzero;stroke:none"
                 d="M 0,0 C -0.184,0 -0.36,0.101 -0.448,0.276 -1.416,2.212 -0.07,3.524 0.776,3.947 1.023,4.069 1.323,3.971 1.447,3.724 1.57,3.478 1.471,3.178 1.225,3.054 1.067,2.973 -0.3,2.218 0.447,0.724 0.57,0.477 0.47,0.176 0.223,0.053 0.151,0.017 0.075,0 0,0"
                 inkscape:connector-curvature="0" />
            </g>
            <g
               transform="translate(9.2515,18.3906)"
               id="g215">
              <path
                 id="path217"
                 style="fill:#e75a70;fill-opacity:1;fill-rule:nonzero;stroke:none"
                 d="m 0,0 -0.41,0.135 c -3.229,1.076 -4.027,4.406 -4.059,4.547 -0.062,0.268 0.106,0.536 0.374,0.598 0.269,0.061 0.537,-0.105 0.6,-0.374 0.007,-0.028 0.649,-2.657 3.031,-3.681 0.44,0.652 1.498,1.884 3.213,1.884 0.276,0 0.5,-0.223 0.5,-0.5 0,-0.276 -0.224,-0.5 -0.5,-0.5 C 1.09,2.109 0.204,0.402 0.195,0.384 L 0,0 Z"
                 inkscape:connector-curvature="0" />
            </g>
            <g
               transform="translate(10.9995,14.6387)"
               id="g219">
              <path
                 id="path221"
                 style="fill:#e75a70;fill-opacity:1;fill-rule:nonzero;stroke:none"
                 d="M 0,0 C -0.055,0 -0.112,0.009 -0.167,0.028 -0.426,0.121 -0.562,0.403 -0.472,0.663 -0.46,0.696 0.731,3.941 5.122,2.847 5.39,2.779 5.553,2.508 5.485,2.24 5.418,1.972 5.144,1.812 4.879,1.876 1.394,2.748 0.508,0.428 0.471,0.33 0.397,0.127 0.205,0 0,0"
                 inkscape:connector-curvature="0" />
            </g>
            <g
               transform="translate(7.9995,9.5)"
               id="g223">
              <path
                 id="path225"
                 style="fill:#e75a70;fill-opacity:1;fill-rule:nonzero;stroke:none"
                 d="m 0,0 c -0.075,0 -0.151,0.017 -0.223,0.053 -1.518,0.759 -1.668,2.063 -1.458,3 -1.832,0.28 -3.116,1.593 -3.176,1.655 -0.191,0.198 -0.185,0.514 0.013,0.706 0.198,0.191 0.515,0.185 0.706,-0.012 C -4.124,5.389 -2.754,4 -1,4 L -0.19,4 -0.552,3.276 C -0.629,3.118 -1.27,1.694 0.224,0.947 0.471,0.823 0.571,0.523 0.448,0.276 0.36,0.102 0.184,0 0,0"
                 inkscape:connector-curvature="0" />
            </g>
            <g
               transform="translate(13.0005,2.5)"
               id="g227">
              <path
                 id="path229"
                 style="fill:#e75a70;fill-opacity:1;fill-rule:nonzero;stroke:none"
                 d="M 0,0 C -0.131,0 -0.262,0.051 -0.36,0.153 -0.551,0.352 -0.546,0.668 -0.348,0.859 -0.33,0.877 1.463,2.639 1.017,4.282 0.945,4.549 1.102,4.823 1.368,4.896 1.635,4.967 1.91,4.811 1.982,4.544 2.584,2.328 0.438,0.229 0.346,0.14 0.25,0.047 0.125,0 0,0"
                 inkscape:connector-curvature="0" />
            </g>
            <g
               transform="translate(15.1562,6.4121)"
               id="g231">
              <path
                 id="path233"
                 style="fill:#e75a70;fill-opacity:1;fill-rule:nonzero;stroke:none"
                 d="M 0,0 C -1.894,0 -2.571,1.3 -2.603,1.363 -2.727,1.61 -2.627,1.911 -2.381,2.035 -2.134,2.158 -1.837,2.06 -1.712,1.817 -1.681,1.76 -1.082,0.72 0.747,1.078 1.016,1.134 1.28,0.956 1.334,0.685 1.388,0.414 1.211,0.151 0.941,0.098 0.598,0.029 0.285,0 0,0"
                 inkscape:connector-curvature="0" />
            </g>
            <g
               transform="translate(12.7334,30.9932)"
               id="g56">
              <path
                 id="path58"
                 style="fill:#e75a70;fill-opacity:1;fill-rule:nonzero;stroke:none"
                 d="M 0,0 C -0.12,0 -0.24,0.043 -0.336,0.13 -0.54,0.315 -0.556,0.63 -0.371,0.835 -0.319,0.892 0.917,2.241 2.479,2.28 3.265,2.308 3.99,1.991 4.62,1.36 4.815,1.165 4.815,0.849 4.62,0.653 4.425,0.458 4.108,0.458 3.913,0.653 3.479,1.087 2.994,1.298 2.509,1.28 1.378,1.254 0.38,0.174 0.37,0.164 0.271,0.055 0.136,0 0,0"
                 inkscape:connector-curvature="0" />
            </g>
            <g
               transform="translate(24,25.5)"
               id="g60">
              <path
                 id="path62"
                 style="fill:#e75a70;fill-opacity:1;fill-rule:nonzero;stroke:none"
                 d="M 0,0 C -0.209,0 -0.404,0.132 -0.475,0.342 -0.562,0.604 -0.42,0.887 -0.158,0.974 2.451,1.844 2.499,4.394 2.5,4.502 2.502,4.778 2.695,5.01 3.002,4.999 3.277,4.998 3.5,4.775 3.5,4.5 3.5,3.338 2.802,0.907 0.158,0.026 0.105,0.008 0.053,0 0,0"
                 inkscape:connector-curvature="0" />
            </g>
            <g
               transform="translate(24,23.5)"
               id="g64">
              <path
                 id="path66"
                 style="fill:#e75a70;fill-opacity:1;fill-rule:nonzero;stroke:none"
                 d="M 0,0 C -0.075,0 -0.151,0.017 -0.224,0.053 -0.471,0.176 -0.57,0.477 -0.447,0.724 0.308,2.233 -1.064,2.973 -1.224,3.053 -1.471,3.176 -1.57,3.477 -1.447,3.724 -1.323,3.971 -1.022,4.069 -0.776,3.947 0.07,3.524 1.415,2.212 0.447,0.276 0.359,0.101 0.183,0 0,0"
                 inkscape:connector-curvature="0" />
            </g>
            <g
               transform="translate(26.749,18.3892)"
               id="g68">
              <path
                 id="path70"
                 style="fill:#e75a70;fill-opacity:1;fill-rule:nonzero;stroke:none"
                 d="m 0,0 -0.195,0.386 c -0.009,0.017 -0.896,1.725 -2.554,1.725 -0.276,0 -0.5,0.223 -0.5,0.5 0,0.276 0.224,0.5 0.5,0.5 1.715,0 2.772,-1.233 3.212,-1.885 C 2.859,2.253 3.487,4.879 3.494,4.907 3.555,5.175 3.821,5.348 4.093,5.282 4.362,5.221 4.53,4.952 4.469,4.683 4.437,4.542 3.639,1.213 0.409,0.137 L 0,0 Z"
                 inkscape:connector-curvature="0" />
            </g>
            <g
               transform="translate(25,14.6367)"
               id="g72">
              <path
                 id="path74"
                 style="fill:#e75a70;fill-opacity:1;fill-rule:nonzero;stroke:none"
                 d="M 0,0 C -0.206,0 -0.398,0.128 -0.471,0.332 -0.507,0.431 -1.404,2.75 -4.879,1.878 -5.146,1.816 -5.419,1.975 -5.485,2.242 -5.552,2.51 -5.39,2.781 -5.121,2.849 -0.732,3.946 0.46,0.698 0.472,0.665 0.563,0.404 0.426,0.119 0.165,0.028 0.11,0.009 0.055,0 0,0"
                 inkscape:connector-curvature="0" />
            </g>
            <g
               transform="translate(28,9.5)"
               id="g76">
              <path
                 id="path78"
                 style="fill:#e75a70;fill-opacity:1;fill-rule:nonzero;stroke:none"
                 d="m 0,0 c -0.183,0 -0.359,0.102 -0.447,0.276 -0.123,0.247 -0.024,0.547 0.223,0.671 1.509,0.755 0.856,2.17 0.777,2.329 L 0.191,4 1,4 C 2.755,4 4.125,5.389 4.139,5.402 4.333,5.599 4.646,5.606 4.846,5.413 5.044,5.222 5.05,4.906 4.858,4.708 4.798,4.646 3.514,3.333 1.682,3.053 1.892,2.116 1.741,0.812 0.224,0.053 0.151,0.017 0.075,0 0,0"
                 inkscape:connector-curvature="0" />
            </g>
            <g
               transform="translate(23,2.5)"
               id="g80">
              <path
                 id="path82"
                 style="fill:#e75a70;fill-opacity:1;fill-rule:nonzero;stroke:none"
                 d="M 0,0 C -0.125,0 -0.25,0.047 -0.347,0.14 -0.438,0.229 -2.584,2.328 -1.982,4.544 -1.91,4.81 -1.637,4.967 -1.369,4.896 -1.103,4.823 -0.945,4.549 -1.018,4.282 -1.466,2.631 0.329,0.878 0.347,0.86 0.546,0.669 0.552,0.352 0.36,0.153 0.262,0.051 0.131,0 0,0"
                 inkscape:connector-curvature="0" />
            </g>
            <g
               transform="translate(20.8438,6.4121)"
               id="g84">
              <path
                 id="path86"
                 style="fill:#e75a70;fill-opacity:1;fill-rule:nonzero;stroke:none"
                 d="m 0,0 c -0.285,0 -0.599,0.029 -0.94,0.098 -0.272,0.053 -0.448,0.316 -0.394,0.587 0.054,0.271 0.321,0.451 0.587,0.393 1.848,-0.362 2.434,0.694 2.46,0.74 C 1.841,2.06 2.142,2.155 2.386,2.028 2.628,1.902 2.726,1.607 2.603,1.363 2.571,1.3 1.893,0 0,0"
                 inkscape:connector-curvature="0" />
            </g>
            <g
               transform="translate(23.2666,30.9932)"
               id="g88">
              <path
                 id="path90"
                 style="fill:#e75a70;fill-opacity:1;fill-rule:nonzero;stroke:none"
                 d="m 0,0 c -0.136,0 -0.271,0.055 -0.37,0.164 -0.01,0.01 -1.008,1.09 -2.139,1.116 -0.519,0.024 -0.97,-0.193 -1.404,-0.627 -0.195,-0.195 -0.512,-0.195 -0.707,0 -0.195,0.196 -0.195,0.512 0,0.707 0.63,0.63 1.323,0.955 2.141,0.92 C -0.918,2.241 0.319,0.892 0.371,0.835 0.556,0.63 0.54,0.315 0.336,0.13 0.24,0.043 0.12,0 0,0"
                 inkscape:connector-curvature="0" />
            </g>
            <g
               transform="translate(18.5,32)"
               id="g92">
              <path
                 id="path94"
                 style="fill:#e75a70;fill-opacity:1;fill-rule:nonzero;stroke:none"
                 d="m 0,0 -1,0 c -0.275,0 -0.5,-0.225 -0.5,-0.5 l 0,-26 c 0,-0.275 0.225,-0.5 0.5,-0.5 l 1,0 c 0.275,0 0.5,0.225 0.5,0.5 l 0,26 C 0.5,-0.225 0.275,0 0,0"
                 inkscape:connector-curvature="0" />
            </g>
          </g>
        </g>
      </g>
    </g>
    <g
       transform="matrix(0.1656773,-0.54190603,0.54190603,0.1656773,135.74714,146.459)"
       id="g255">
      <g
         transform="matrix(1.25,0,0,-1.25,0,45)"
         id="g257">
        <g
           id="g259">
          <g
             clip-path="url(#clipPath16)"
             id="g261">
            <g
               transform="translate(36,18)"
               id="g263">
              <path
                 id="path265"
                 style="fill:#ffcc4d;fill-opacity:1;fill-rule:nonzero;stroke:none"
                 d="m 0,0 c 0,-9.941 -8.059,-18 -18,-18 -9.94,0 -18,8.059 -18,18 0,9.94 8.06,18 18,18 C -8.059,18 0,9.94 0,0"
                 inkscape:connector-curvature="0" />
            </g>
            <g
               transform="translate(14.0342,21.501)"
               id="g267">
              <path
                 id="path269"
                 style="fill:#664500;fill-opacity:1;fill-rule:nonzero;stroke:none"
                 d="M 0,0 C 0,-1.934 -1.119,-3.5 -2.5,-3.5 -3.881,-3.5 -5,-1.934 -5,0 -5,1.933 -3.881,3.5 -2.5,3.5 -1.119,3.5 0,1.933 0,0"
                 inkscape:connector-curvature="0" />
            </g>
            <g
               transform="translate(27.0342,21.501)"
               id="g271">
              <path
                 id="path273"
                 style="fill:#664500;fill-opacity:1;fill-rule:nonzero;stroke:none"
                 d="M 0,0 C 0,-1.934 -1.119,-3.5 -2.5,-3.5 -3.881,-3.5 -5,-1.934 -5,0 -5,1.933 -3.881,3.5 -2.5,3.5 -1.119,3.5 0,1.933 0,0"
                 inkscape:connector-curvature="0" />
            </g>
            <g
               transform="translate(25.001,8.9961)"
               id="g275">
              <path
                 id="path277"
                 style="fill:#664500;fill-opacity:1;fill-rule:nonzero;stroke:none"
                 d="m 0,0 -15.001,0 c -1,0 -1,1 -1,1 l 0,1 c 0,0 0,1.003 1,1.003 C -14.001,3.003 0,3 0,3 L 0,0 Z"
                 inkscape:connector-curvature="0" />
            </g>
            <path
               id="path36"
               style="fill:#9aaab4;fill-opacity:1;fill-rule:nonzero;stroke:none"
               d="m 14,7.999 -2,0 0,3 2,0 0,-3 z"
               inkscape:connector-curvature="0" />
            <path
               id="path280"
               style="fill:#9aaab4;fill-opacity:1;fill-rule:nonzero;stroke:none"
               d="m 16,12.999 -2,0 0,-3 2,0 0,3 z"
               inkscape:connector-curvature="0" />
            <path
               id="path40"
               style="fill:#9aaab4;fill-opacity:1;fill-rule:nonzero;stroke:none"
               d="m 12,12.999 -2,0 0,-3 2,0 0,3 z"
               inkscape:connector-curvature="0" />
            <path
               id="path283"
               style="fill:#9aaab4;fill-opacity:1;fill-rule:nonzero;stroke:none"
               d="m 17.999,7.999 -2,0 0,3 2,0 0,-3 z"
               inkscape:connector-curvature="0" />
            <path
               id="path44"
               style="fill:#9aaab4;fill-opacity:1;fill-rule:nonzero;stroke:none"
               d="m 20,12.999 -2.001,0 0,-3 2.001,0 0,3 z"
               inkscape:connector-curvature="0" />
            <path
               id="path286"
               style="fill:#9aaab4;fill-opacity:1;fill-rule:nonzero;stroke:none"
               d="m 22,7.999 -2,0 0,3 2,0 0,-3 z"
               inkscape:connector-curvature="0" />
            <path
               id="path192"
               style="fill:#9aaab4;fill-opacity:1;fill-rule:nonzero;stroke:none"
               d="m 24,12.999 -2,0 0,-3 2,0 0,3 z"
               inkscape:connector-curvature="0" />
            <g
               transform="translate(31.4834,3.8447)"
               id="g50">
              <path
                 id="path52"
                 style="fill:#99aab5;fill-opacity:1;fill-rule:nonzero;stroke:none"
                 d="M 0,0 2.308,4.186 -1.03,5.317 -2.645,2.248 0,0 Z m -5.172,7.493 c 0,0 0.265,0.964 1.231,0.699 L 3.771,6.071 c 0,0 0.964,-0.265 0.699,-1.23 -0.265,-0.964 -3.176,-6.314 -3.914,-6.984 -0.869,-0.787 -1.769,0.08 -1.769,0.08 0,0 -4.664,4.198 -5.285,4.735 -0.621,0.538 -0.373,1.275 -0.373,1.275 l 1.699,3.546 z"
                 inkscape:connector-curvature="0" />
            </g>
            <g
               transform="translate(24.8174,7.9482)"
               id="g54">
              <path
                 id="path56"
                 style="fill:#99aab5;fill-opacity:1;fill-rule:nonzero;stroke:none"
                 d="M 0,0 -1.754,0.839 -0.086,4.326 1.668,3.487 0,0 Z"
                 inkscape:connector-curvature="0" />
            </g>
          </g>
        </g>
      </g>
    </g>
    <g
       transform="matrix(-0.09407562,-0.89506971,0.89506971,-0.09407562,78.236094,109.15017)"
       id="g293">
      <g
         transform="matrix(1.25,0,0,-1.25,0,47.5)"
         id="g295">
        <g
           id="g297">
          <g
             clip-path="url(#clipPath16)"
             id="g299">
            <g
               transform="translate(36,19)"
               id="g301">
              <path
                 id="path303"
                 style="fill:#ffcc4d;fill-opacity:1;fill-rule:nonzero;stroke:none"
                 d="m 0,0 c 0,-9.389 -7.611,-17 -17,-17 -9.389,0 -17,7.611 -17,17 0,9.389 7.611,17 17,17 C -7.611,17 0,9.389 0,0"
                 inkscape:connector-curvature="0" />
            </g>
            <g
               transform="translate(2.2402,25.9824)"
               id="g305">
              <path
                 id="path307"
                 style="fill:#292f33;fill-opacity:1;fill-rule:evenodd;stroke:none"
                 d="m 0,0 c 0.24,-0.239 1.437,-0.958 1.677,-1.675 0.24,-0.717 0.72,-4.784 2.158,-5.981 1.484,-1.233 7.077,-0.774 8.149,-0.24 2.397,1.195 2.691,4.531 3.115,6.221 0.239,0.957 1.677,0.957 1.677,0.957 0,0 1.439,0 1.678,-0.956 0.424,-1.691 0.72,-5.027 3.115,-6.221 1.073,-0.535 6.666,-0.994 8.152,0.239 1.435,1.197 1.915,5.264 2.155,5.982 0.238,0.717 1.437,1.435 1.677,1.674 0.241,0.239 0.241,1.196 0,1.436 C 33.074,1.914 27.419,2.34 21.33,1.675 20.115,1.542 19.653,1.196 16.776,1.196 13.901,1.196 13.437,1.542 12.223,1.674 6.136,2.34 0.479,1.914 0,1.436 -0.239,1.196 -0.239,0.239 0,0"
                 inkscape:connector-curvature="0" />
            </g>
            <g
               transform="translate(28.335,13.3711)"
               id="g309">
              <path
                 id="path311"
                 style="fill:#664500;fill-opacity:1;fill-rule:nonzero;stroke:none"
                 d="m 0,0 c -0.178,0.161 -0.444,0.171 -0.635,0.029 -0.039,-0.029 -3.922,-2.9 -8.7,-2.9 -4.766,0 -8.662,2.871 -8.7,2.9 -0.191,0.142 -0.457,0.13 -0.635,-0.029 -0.177,-0.16 -0.217,-0.424 -0.094,-0.628 0.129,-0.215 3.217,-5.243 9.429,-5.243 6.212,0 9.301,5.028 9.429,5.243 C 0.217,-0.423 0.178,-0.16 0,0"
                 inkscape:connector-curvature="0" />
            </g>
          </g>
        </g>
      </g>
    </g>
    <g
       transform="matrix(0.53530449,0.59451586,-0.59451586,0.53530449,46.394696,79.321546)"
       id="g313">
      <g
         transform="matrix(1.25,0,0,-1.25,0,45)"
         id="g315">
        <g
           id="g317">
          <g
             clip-path="url(#clipPath16)"
             id="g319">
            <g
               transform="translate(27,7.5)"
               id="g321">
              <path
                 id="path323"
                 style="fill:#66757f;fill-opacity:1;fill-rule:nonzero;stroke:none"
                 d="M 0,0 C 0,0.828 -0.672,1.5 -1.5,1.5 -2.328,1.5 -3,0.828 -3,0 l 0,-0.5 c 0,0 0,-3 -3,-3 -3,0 -3,3 -3,3 l 0,25 0,0.5 c 0,0.829 -0.671,1.5 -1.5,1.5 -0.829,0 -1.5,-0.671 -1.5,-1.5 l 0,-25.5 c 0,0 0,-6 6,-6 6,0 6,6 6,6 L 0,0 Z"
                 inkscape:connector-curvature="0" />
            </g>
            <g
               transform="translate(16.5,32)"
               id="g325">
              <path
                 id="path327"
                 style="fill:#744eaa;fill-opacity:1;fill-rule:nonzero;stroke:none"
                 d="m 0,0 c -9.112,0 -16.5,-5.82 -16.5,-13 0,0 0,-2 1,-2 1,0 3,2 3,2 l 25,0 c 0,0 2,-2 3,-2 1,0 1,2 1,2 C 16.5,-5.82 9.112,0 0,0"
                 inkscape:connector-curvature="0" />
            </g>
            <g
               transform="translate(16.5,32)"
               id="g329">
              <path
                 id="path331"
                 style="fill:#9266cc;fill-opacity:1;fill-rule:nonzero;stroke:none"
                 d="m 0,0 c -6.903,0 -12.5,-5.82 -12.5,-13 0,0 0,-2 2,-2 2,0 5,2 5,2 l 11,0 c 0,0 3,-2 5,-2 2,0 2,2 2,2 C 12.5,-5.82 6.903,0 0,0"
                 inkscape:connector-curvature="0" />
            </g>
            <g
               transform="translate(16.5,32)"
               id="g333">
              <path
                 id="path335"
                 style="fill:#744eaa;fill-opacity:1;fill-rule:nonzero;stroke:none"
                 d="m 0,0 c -3.59,0 -5.5,-5.82 -5.5,-13 0,0 3,-2 5,-2 l 1,0 c 2,0 5,2 5,2 C 5.5,-5.82 3.59,0 0,0"
                 inkscape:connector-curvature="0" />
            </g>
          </g>
        </g>
      </g>
    </g>
    <g
       transform="matrix(0.1335663,0.68713903,-0.68713903,0.1335663,89.160002,140.50892)"
       id="g337">
      <g
         transform="matrix(1.25,0,0,-1.25,0,47.5)"
         id="g339">
        <g
           id="g341">
          <g
             clip-path="url(#clipPath16)"
             id="g343">
            <g
               transform="translate(30.0488,29.9673)"
               id="g345">
              <path
                 id="path347"
                 style="fill:#ccd6dd;fill-opacity:1;fill-rule:nonzero;stroke:none"
                 d="m 0,0 c 4.423,-4.424 5.71,-21.367 1.289,-25.788 -4.425,-4.424 -12.185,-3.783 -16.607,0.64 -2.979,2.979 -3.834,10.952 0.589,15.377 C -10.305,-5.35 -4.423,4.423 0,0"
                 inkscape:connector-curvature="0" />
            </g>
            <g
               transform="translate(17.9897,3.8916)"
               id="g349">
              <path
                 id="path351"
                 style="fill:#ccd6dd;fill-opacity:1;fill-rule:nonzero;stroke:none"
                 d="m 0,0 c -2.175,-0.273 -5.546,2.28 -5.913,5.912 l -1.329,13.157 c -0.366,3.63 1.687,6.873 4.586,7.24 L 7.84,27.637 c 2.898,0.365 5.483,-1.666 5.912,-5.912 C 14.178,17.473 3.393,0.428 0,0"
                 inkscape:connector-curvature="0" />
            </g>
          </g>
        </g>
        <g
           id="g353">
          <g
             clip-path="url(#clipPath32)"
             id="g30">
            <g
               transform="translate(11.3491,10.5322)"
               id="g356">
              <path
                 id="path358"
                 style="fill:#99aab5;fill-opacity:1;fill-rule:nonzero;stroke:none"
                 d="m 0,0 c -2.174,-0.274 -5.548,2.282 -5.915,5.914 l -1.327,13.154 c -0.367,3.632 1.686,6.875 4.584,7.243 L 7.84,27.638 c 2.898,0.366 5.483,-1.665 5.912,-5.911 C 14.18,17.473 3.393,0.428 0,0"
                 inkscape:connector-curvature="0" />
            </g>
          </g>
        </g>
        <g
           id="g360">
          <g
             clip-path="url(#clipPath44)"
             id="g42">
            <g
               transform="translate(11.8501,14.7217)"
               id="g363">
              <path
                 id="path365"
                 style="fill:#ccd6dd;fill-opacity:1;fill-rule:nonzero;stroke:none"
                 d="m 0,0 c -1.613,-0.202 -4.115,1.693 -4.388,4.389 l -0.985,9.758 c -0.272,2.694 1.252,5.1 3.402,5.374 l 7.788,0.984 C 7.968,20.777 9.886,19.271 10.204,16.119 10.522,12.964 2.518,0.319 0,0"
                 inkscape:connector-curvature="0" />
            </g>
          </g>
        </g>
        <g
           id="g367">
          <g
             clip-path="url(#clipPath56)"
             id="g369">
            <g
               transform="translate(6.3511,20.2207)"
               id="g371">
              <path
                 id="path373"
                 style="fill:#99aab5;fill-opacity:1;fill-rule:nonzero;stroke:none"
                 d="m 0,0 c -1.612,-0.204 -4.114,1.693 -4.387,4.387 l -0.985,9.759 c -0.272,2.695 1.251,5.101 3.401,5.375 l 7.788,0.983 C 7.968,20.777 9.886,19.272 10.205,16.118 10.522,12.962 2.518,0.318 0,0"
                 inkscape:connector-curvature="0" />
            </g>
          </g>
        </g>
        <g
           id="g375">
          <g
             clip-path="url(#clipPath68)"
             id="g66">
            <g
               transform="translate(7.2471,24.1943)"
               id="g378">
              <path
                 id="path380"
                 style="fill:#ccd6dd;fill-opacity:1;fill-rule:nonzero;stroke:none"
                 d="m 0,0 c -0.993,-0.125 -2.533,1.043 -2.701,2.702 l -0.606,6.006 c -0.167,1.659 0.77,3.14 2.093,3.308 l 4.795,0.606 C 4.905,12.79 6.084,11.863 6.28,9.923 6.477,7.98 1.548,0.198 0,0"
                 inkscape:connector-curvature="0" />
            </g>
            <g
               transform="translate(31.6094,22.6035)"
               id="g382">
              <path
                 id="path384"
                 style="fill:#66757f;fill-opacity:1;fill-rule:nonzero;stroke:none"
                 d="m 0,0 c 0.801,-2.371 1.545,-11.57 -1.532,-15.543 -3.079,-3.972 -8.043,1.389 -5.312,6.205 C -4.114,-4.523 -0.809,2.396 0,0"
                 inkscape:connector-curvature="0" />
            </g>
          </g>
        </g>
      </g>
    </g>
    <g
       transform="matrix(0,1,-1,0,90.692809,21.599243)"
       id="g386">
      <g
         transform="matrix(1.25,0,0,-1.25,0,47.5)"
         id="g388">
        <g
           id="g390">
          <g
             clip-path="url(#clipPath16)"
             id="g392">
            <g
               transform="translate(20.3203,11.6416)"
               id="g394">
              <path
                 id="path396"
                 style="fill:#3e721d;fill-opacity:1;fill-rule:nonzero;stroke:none"
                 d="m 0,0 c -0.113,0 -0.217,-0.003 -0.32,-0.005 l 0,0.415 c 4.804,0.479 8.548,4.264 8.548,7.301 0,3.249 0,-1.47 -9.562,-1.47 -9.558,0 -9.558,4.719 -9.558,1.47 0,-3.043 3.757,-6.838 8.572,-7.305 l 0,-0.411 C -2.424,-0.003 -2.527,0 -2.641,0 c -2.553,0 -6.603,2.05 -6.603,1.32 0,-0.645 4.186,-4.016 6.924,-4.796 l 0,-6.166 c 0,-0.552 0.447,-1 1,-1 0.552,0 1,0.448 1,1 l 0,6.166 C 2.418,-2.696 6.604,0.675 6.604,1.32 6.604,2.05 2.554,0 0,0"
                 inkscape:connector-curvature="0" />
            </g>
            <g
               transform="translate(27.5273,29.647)"
               id="g398">
              <path
                 id="path400"
                 style="fill:#a0041e;fill-opacity:1;fill-rule:nonzero;stroke:none"
                 d="m 0,0 c -3.887,4.412 1.506,5.882 -2.592,5.882 -0.713,0 -1.921,-0.44 -3.29,-1.189 -0.694,1.572 -1.622,2.66 -2.645,2.66 -2.051,0 -3.726,-4.342 -3.873,-8.27 -1.109,-1.542 -1.855,-3.234 -1.855,-4.965 0,-6.092 2.59,-8.824 6.479,-8.824 C 0,-14.706 5.867,-6.658 0,0"
                 inkscape:connector-curvature="0" />
            </g>
            <g
               transform="translate(24.7275,23.7646)"
               id="g402">
              <path
                 id="path404"
                 style="fill:#be1931;fill-opacity:1;fill-rule:nonzero;stroke:none"
                 d="m 0,0 c 0,-6.092 -2.59,-8.823 -6.479,-8.823 -7.776,0 -13.644,8.048 -7.776,14.705 3.888,4.412 -1.506,5.883 2.592,5.883 C -9.071,11.765 0,6.091 0,0"
                 inkscape:connector-curvature="0" />
            </g>
          </g>
        </g>
      </g>
    </g>
  </g>
</svg>
