<?xml version="1.0" encoding="UTF-8" standalone="no"?>
<svg
   xmlns:dc="http://purl.org/dc/elements/1.1/"
   xmlns:cc="http://creativecommons.org/ns#"
   xmlns:rdf="http://www.w3.org/1999/02/22-rdf-syntax-ns#"
   xmlns:svg="http://www.w3.org/2000/svg"
   xmlns="http://www.w3.org/2000/svg"
   xmlns:sodipodi="http://sodipodi.sourceforge.net/DTD/sodipodi-0.dtd"
   xmlns:inkscape="http://www.inkscape.org/namespaces/inkscape"
   version="1.1"
   id="svg2"
   viewBox="0 0 200 200"
   height="200px"
   width="200px"
   inkscape:version="0.91 r13725"
   sodipodi:docname="79.svg">
  <metadata
     id="metadata543">
    <rdf:RDF>
      <cc:Work
         rdf:about="">
        <dc:format>image/svg+xml</dc:format>
        <dc:type
           rdf:resource="http://purl.org/dc/dcmitype/StillImage" />
      </cc:Work>
    </rdf:RDF>
  </metadata>
  <sodipodi:namedview
     pagecolor="#ffffff"
     bordercolor="#666666"
     borderopacity="1"
     objecttolerance="10"
     gridtolerance="10"
     guidetolerance="10"
     inkscape:pageopacity="0"
     inkscape:pageshadow="2"
     inkscape:window-width="1920"
     inkscape:window-height="1060"
     id="namedview541"
     showgrid="false"
     inkscape:zoom="4.32"
     inkscape:cx="100"
     inkscape:cy="81.481481"
     inkscape:window-x="0"
     inkscape:window-y="0"
     inkscape:window-maximized="1"
     inkscape:current-layer="layer1" />
  
    
    
    <defs id="defs6">

        <clipPath
           id="clipPath28"
           clipPathUnits="userSpaceOnUse">
          <path
             id="path30"
             d="M 4,36 C 0,36 0,32 0,32 L 0,32 0,4 C 0,0 4,0 4,0 l 0,0 28,0 c 4,0 4,4 4,4 l 0,0 0,28 c 0,4 -4,4 -4,4 l 0,0 -28,0 z" />
        </clipPath>


        <clipPath clipPathUnits="userSpaceOnUse" id="clipPath16-rugby">
            <path d="M 0,38 38,38 38,0 0,0 0,38 Z" id="path18"/>
        </clipPath>
        <clipPath clipPathUnits="userSpaceOnUse" id="clipPath28-rugby">
            <path d="M 9.254,28.746 C 2.09,21.582 -0.927,9.561 3.929,3.929 l 0,0 C 9.561,-0.927 21.582,2.09 28.746,9.254 l 0,0 c 7.164,7.164 11.229,17.088 5.324,24.816 l 0,0 c -1.886,1.627 -4.489,2.371 -7.387,2.37 l 0,0 c -5.752,0 -12.665,-2.93 -17.429,-7.694" id="path30"/>
        </clipPath>

        <clipPath clipPathUnits="userSpaceOnUse" id="clipPath16-carrot">
            <path d="M 0,36 36,36 36,0 0,0 0,36 Z" id="path18"/>
        </clipPath>
        <clipPath clipPathUnits="userSpaceOnUse" id="clipPath32-carrot">
            <path d="M 11.815,23.013 C 4.2,15.397 -1.265,2.86 0.502,1.093 l 0,0 c 1.768,-1.768 14.305,3.698 21.92,11.313 l 0,0 c 7.616,7.615 7.562,11.53 4.243,14.85 l 0,0 c -1.328,1.328 -2.752,2.133 -4.47,2.133 l 0,0 c -2.575,0 -5.812,-1.809 -10.38,-6.376" id="path34"/>
        </clipPath>

        <clipPath clipPathUnits="userSpaceOnUse" id="clipPath32-hat">
            <path d="m 5,33.666 c 0,-0.034 0.018,-0.067 0.022,-0.101 l 0,0 C 5.008,33.455 5,33.335 5,33.2 l 0,0 L 6.802,9.616 C 3.299,8.705 1,7.424 1,6 L 1,6 C 1,3.238 9.611,1 19,1 l 0,0 c 9.389,0 18,2.238 18,5 l 0,0 c 0,1.424 -2.298,2.705 -5.801,3.616 l 0,0 L 33,33.184 c 0,0.135 -0.008,0.263 -0.021,0.373 l 0,0 C 32.982,33.591 33,33.632 33,33.666 l 0,0 c 0,1.805 -6.268,3.267 -14,3.267 l 0,0 c -7.732,0 -14,-1.462 -14,-3.267" id="path34"/>
        </clipPath>


        <clipPath clipPathUnits="userSpaceOnUse" id="clipPath48-soccer">
            <path d="M 1,19 C 1,9.059 9.059,1 19,1 l 0,0 c 9.941,0 18,8.059 18,18 l 0,0 c 0,9.941 -8.059,18 -18,18 l 0,0 C 9.059,37 1,28.941 1,19" id="path50"/>
        </clipPath>

        <clipPath clipPathUnits="userSpaceOnUse" id="clipPath28-baguette">
            <path d="M 24.052,31.33 5.126,12.406 C 1.342,8.62 1.288,4.133 2.856,2.564 l 0,0 C 4.424,0.997 8.912,1.049 12.697,4.835 l 0,0 18.925,18.924 c 3.784,3.785 3.837,8.273 2.269,9.841 l 0,0 c -0.605,0.606 -1.647,0.969 -2.915,0.969 l 0,0 c -2.014,0 -4.602,-0.917 -6.924,-3.239" id="path30"/>
        </clipPath>
    </defs>



  <g
     id="layer1">
    <circle
       style="opacity:1;fill:white;stroke:black;stroke-width:1;stroke-miterlimit:4;stroke-dasharray:none;stroke-opacity:0.1"
       id="path4039-0-9"
       cx="100px"
       cy="100px"
       r="90px" />
    <g
       transform="matrix(-0.56819241,0.78204976,-0.78204976,-0.56819241,71.507589,92.774116)"
       id="g8">
      <g
         transform="matrix(1.25,0,0,-1.25,0,47.5)"
         id="g10">
        <g
           id="g12">
          <g
             clip-path="url(#clipPath16)"
             id="g14">
            <g
               transform="translate(2.0005,20)"
               id="g20">
              <path
                 id="path22"
                 style="fill:#a0041e;fill-opacity:1;fill-rule:nonzero;stroke:none"
                 d="m 0,0 8,7 16,-1 1,-16 -7,-8 c 0,0 0,5.999 -6,12 C 5.999,0.001 0,0 0,0"
                 inkscape:connector-curvature="0" />
            </g>
            <g
               transform="translate(1.9727,2)"
               id="g24">
              <path
                 id="path26"
                 style="fill:#ffac33;fill-opacity:1;fill-rule:nonzero;stroke:none"
                 d="m 0,0 c 0,0 -0.036,7.979 2.985,11 3.021,3.021 11.042,2.813 11.042,2.813 C 14.027,13.813 14.026,6 11.026,3 8.026,0 0,0 0,0"
                 inkscape:connector-curvature="0" />
            </g>
            <g
               transform="translate(5.999,10)"
               id="g28">
              <path
                 id="path18"
                 style="fill:#ffcc4d;fill-opacity:1;fill-rule:nonzero;stroke:none"
                 d="M 0,0 C 0,2.209 1.791,4 4,4 6.209,4 8,2.209 8,0 8,-2.209 6.209,-4 4,-4 1.791,-4 0,-2.209 0,0"
                 inkscape:connector-curvature="0" />
            </g>
            <g
               transform="translate(36.999,37.0005)"
               id="g32">
              <path
                 id="path34"
                 style="fill:#55acee;fill-opacity:1;fill-rule:nonzero;stroke:none"
                 d="m 0,0 c 0,0 -10,0 -22,-10 -6,-5 -6,-14 -4,-16 2,-2 11,-2 16,4 C 0,-10 0,0 0,0"
                 inkscape:connector-curvature="0" />
            </g>
            <g
               transform="translate(27.999,32.0005)"
               id="g36">
              <path
                 id="path38"
                 style="fill:#000000;fill-opacity:1;fill-rule:nonzero;stroke:none"
                 d="M 0,0 C -1.623,0 -3.013,-0.971 -3.641,-2.36 -3.139,-2.133 -2.586,-2 -2,-2 0.209,-2 2,-3.791 2,-6 2,-6.586 1.867,-7.139 1.641,-7.64 3.029,-7.013 4,-5.623 4,-4 4,-1.791 2.209,0 0,0"
                 inkscape:connector-curvature="0" />
            </g>
            <g
               transform="translate(9,9)"
               id="g40">
              <path
                 id="path42"
                 style="fill:#a0041e;fill-opacity:1;fill-rule:nonzero;stroke:none"
                 d="M 0,0 C 0,0 0,4 1,5 2,6 14.001,15.999 15,15 15.999,14.001 5.999,2 4.999,1 3.999,0 0,0 0,0"
                 inkscape:connector-curvature="0" />
            </g>
          </g>
        </g>
      </g>
    </g>
    <g
       transform="matrix(-0.62932039,0.77714596,-0.77714596,-0.62932039,142.99514,92.078913)"
       id="g26">
      <g
         transform="matrix(1.25,0,0,-1.25,0,45)"
         id="g29">
        <g
           id="g31">
          <g
             clip-path="url(#clipPath16)"
             id="g33">
            <g
               transform="translate(23.1064,30.0288)"
               id="g35">
              <path
                 id="path37"
                 style="fill:#dd2e44;fill-opacity:1;fill-rule:nonzero;stroke:none"
                 d="m 0,0 c -5.491,5.491 -14.722,6.492 -19.799,1.414 -5.077,-5.077 -4.077,-14.308 1.414,-19.799 3.554,-3.554 7.785,-4.324 11.706,-3.058 l -0.014,-0.013 c 0,0 0.053,0.022 0.13,0.052 0.263,0.088 0.526,0.179 0.787,0.284 0.698,0.239 1.734,0.558 2.942,0.806 1.848,0.38 3.541,-1.606 4.955,-3.021 1.414,-1.414 4.242,-5.657 4.949,-6.364 0.707,-0.707 1.414,0 2.122,0.707 l 0.708,0.707 0.707,0.707 c 0.707,0.708 1.414,1.415 0.707,2.122 -0.707,0.707 -4.951,3.536 -6.365,4.95 -1.414,1.414 -3.4,3.107 -3.02,4.955 0.198,0.965 0.441,1.815 0.653,2.481 C 4.556,-8.849 4.118,-4.119 0,0"
                 inkscape:connector-curvature="0" />
            </g>
            <g
               transform="translate(15.564,8.3447)"
               id="g39">
              <path
                 id="path41"
                 style="fill:#d99e82;fill-opacity:1;fill-rule:nonzero;stroke:none"
                 d="M 0,0 C 0.289,0.07 0.578,0.148 0.864,0.241 L 0.849,0.229 c 0,0 0.053,0.021 0.13,0.051 0.264,0.088 0.527,0.179 0.788,0.284 0.697,0.239 1.734,0.558 2.942,0.806 1.847,0.38 3.541,-1.606 4.955,-3.02 1.414,-1.414 4.242,-5.658 4.949,-6.365 0.707,-0.707 1.414,0 2.122,0.707 l 0.707,0.707 0.707,0.708 c 0.707,0.707 1.414,1.414 0.707,2.122 -0.707,0.707 -4.95,3.535 -6.364,4.949 -1.414,1.414 -3.401,3.107 -3.021,4.955 0.198,0.965 0.442,1.815 0.654,2.481 0.357,0.764 0.632,1.543 0.824,2.334 L 0,0 Z"
                 inkscape:connector-curvature="0" />
            </g>
            <g
               transform="translate(33.7129,2.4512)"
               id="g43">
              <path
                 id="path45"
                 style="fill:#ffcc4d;fill-opacity:1;fill-rule:nonzero;stroke:none"
                 d="m 0,0 -1.414,-1.414 -12.022,12.021 1.415,1.414 L 0,0 Z"
                 inkscape:connector-curvature="0" />
            </g>
            <g
               transform="translate(35,29.5)"
               id="g47">
              <path
                 id="path49"
                 style="fill:#ccd6dd;fill-opacity:1;fill-rule:nonzero;stroke:none"
                 d="M 0,0 C 0,-1.934 -1.567,-3.5 -3.5,-3.5 -5.433,-3.5 -7,-1.934 -7,0 -7,1.933 -5.433,3.5 -3.5,3.5 -1.567,3.5 0,1.933 0,0"
                 inkscape:connector-curvature="0" />
            </g>
          </g>
        </g>
      </g>
    </g>
    <g
       transform="matrix(0.52900673,0.72811529,-0.72811529,0.52900673,166.00366,84.547966)"
       id="g51">
      <g
         transform="matrix(1.25,0,0,-1.25,0,47.5)"
         id="g53">
        <g
           id="g55">
          <g
             clip-path="url(#clipPath16)"
             id="g57">
            <g
               transform="translate(11,25)"
               id="g59">
              <path
                 id="path61"
                 style="fill:#553788;fill-opacity:1;fill-rule:nonzero;stroke:none"
                 d="m 0,0 c 3,-5 0,-10.692 -3,-9.692 -3,1 -4,-2 -1,-3 3,-1 9.465,0.464 13,4 1,1 2,1 2,1 L 0,0 Z"
                 inkscape:connector-curvature="0" />
            </g>
            <g
               transform="translate(27,25)"
               id="g63">
              <path
                 id="path65"
                 style="fill:#553788;fill-opacity:1;fill-rule:nonzero;stroke:none"
                 d="m 0,0 c -3,-5 0,-10.692 3,-9.692 3,1 4,-2 1,-3 -3,-1 -9.465,0.464 -13,4 -1,1 -2,1 -2,1 L 0,0 Z"
                 inkscape:connector-curvature="0" />
            </g>
            <g
               transform="translate(31.1885,21)"
               id="g67">
              <path
                 id="path69"
                 style="fill:#744eaa;fill-opacity:1;fill-rule:nonzero;stroke:none"
                 d="m 0,0 c -3,-5 0,-10.692 3,-9.692 3,1 4,-2 1,-3 -3,-1 -9.465,0.464 -13,4 -1,1 -2,1 -2,1 L 0,0 Z"
                 inkscape:connector-curvature="0" />
            </g>
            <g
               transform="translate(6.8115,21)"
               id="g71">
              <path
                 id="path73"
                 style="fill:#744eaa;fill-opacity:1;fill-rule:nonzero;stroke:none"
                 d="m 0,0 c 3,-5 0,-10.692 -3,-9.692 -3,1 -4,-2 -1,-3 3,-1 9.465,0.464 13,4 1,1 2,1 2,1 L 0,0 Z"
                 inkscape:connector-curvature="0" />
            </g>
            <g
               transform="translate(34.1885,5.625)"
               id="g75">
              <path
                 id="path77"
                 style="fill:#9266cc;fill-opacity:1;fill-rule:nonzero;stroke:none"
                 d="m 0,0 c -2.729,-0.91 -6.425,5.626 -4.812,10.578 1.646,3.243 2.624,6.857 2.624,9.797 0,7.18 -5.821,11 -13,11 -7.18,0 -13,-3.82 -13,-11 0,-2.94 0.977,-6.554 2.623,-9.797 C -23.952,5.626 -27.647,-0.91 -30.377,0 c -3,1 -4,-3 -1,-4 3,-1 8.31,0.627 12,4 2.189,2 4.189,2 4.189,2 0,0 2,0 4.188,-2 3.69,-3.373 9,-5 12,-4 3,1 2,5 -1,4"
                 inkscape:connector-curvature="0" />
            </g>
            <g
               transform="translate(17,16)"
               id="g79">
              <path
                 id="path81"
                 style="fill:#292f33;fill-opacity:1;fill-rule:nonzero;stroke:none"
                 d="m 0,0 c 0,-1.104 -0.896,-2 -2,-2 -1.104,0 -2,0.896 -2,2 0,1.104 0.896,2 2,2 1.104,0 2,-0.896 2,-2"
                 inkscape:connector-curvature="0" />
            </g>
            <g
               transform="translate(25,16)"
               id="g44">
              <path
                 id="path46"
                 style="fill:#292f33;fill-opacity:1;fill-rule:nonzero;stroke:none"
                 d="m 0,0 c 0,-1.104 -0.896,-2 -2,-2 -1.104,0 -2,0.896 -2,2 0,1.104 0.896,2 2,2 1.104,0 2,-0.896 2,-2"
                 inkscape:connector-curvature="0" />
            </g>
          </g>
        </g>
      </g>
    </g>
    <g
       transform="matrix(0.62716978,-0.08814296,0.08814296,0.62716978,74.910235,38.455797)"
       id="g85">
      <g
         transform="matrix(1.25,0,0,-1.25,0,47.5)"
         id="g87">
        <g
           id="g89">
          <g
             clip-path="url(#clipPath16)"
             id="g91">
            <g
               transform="translate(19.2412,27.3672)"
               id="g93">
              <path
                 id="path95"
                 style="fill:#5c913b;fill-opacity:1;fill-rule:nonzero;stroke:none"
                 d="M 0,0 C -0.277,3.307 2.17,4.72 2.17,4.72 -1.029,4.607 -2.724,1.895 -2.724,1.895 -3.476,3.194 -1.778,5.907 -0.555,6.614 -3.753,6.501 -4.225,4.494 -4.225,4.494 -5.728,7.095 -5.254,9.102 -5.254,9.102 -6.375,8.454 -7.021,6.989 -7.396,5.589 L -9.714,8.26 c -0.23,-1.046 0.156,-3.176 0.572,-4.962 -3.054,1.791 -5.902,0.151 -5.902,0.151 3.95,-1.187 5.45,-3.787 5.45,-3.787 0,0 -3.948,1.187 -5.645,-1.527 2.596,0.092 4.5,-0.499 5.856,-1.229 -1.163,-0.289 -3.145,0.236 -4.355,-1.371 0,0 3.198,0.113 3.851,-1.055 -2.172,-0.614 -3.574,-2.251 -3.574,-2.251 4.422,0.818 9.123,-1.668 9.123,-1.668 L 1.78,-5.907 C 0.751,-1.3 4.422,0.82 4.422,0.82 1.697,2.713 0,0 0,0"
                 inkscape:connector-curvature="0" />
            </g>
            <g
               transform="translate(30.5605,14.1201)"
               id="g97">
              <path
                 id="path99"
                 style="fill:#ffac33;fill-opacity:1;fill-rule:nonzero;stroke:none"
                 d="m 0,0 c 2.488,-4.309 1.218,-9.7 -2.837,-12.041 -4.055,-2.341 -9.359,-0.746 -11.846,3.562 l -1.589,2.753 c -2.489,4.31 -1.218,9.699 2.837,12.04 4.055,2.342 9.359,0.747 11.846,-3.562 L 0,0 Z"
                 inkscape:connector-curvature="0" />
            </g>
            <g
               transform="translate(28.7178,10.541)"
               id="g101">
              <path
                 id="path103"
                 style="fill:#ffcc4d;fill-opacity:1;fill-rule:nonzero;stroke:none"
                 d="M 0,0 -1.951,0.828 -1.123,2.778 0.828,1.951 0,0 Z m -1.656,-3.901 -1.95,0.827 0.828,1.952 1.95,-0.828 -0.828,-1.951 z m -1.657,-3.904 -1.951,0.828 0.828,1.952 1.952,-0.829 -0.829,-1.951 z m -4.197,6.388 0.828,1.952 1.952,-0.829 -0.829,-1.952 -1.951,0.829 z m 0.294,-4.73 -1.95,0.828 0.828,1.95 1.95,-0.829 -0.828,-1.949 z m -4.196,6.386 0.829,1.951 1.951,-0.827 -0.828,-1.952 -1.952,0.828 z m 0.295,-4.73 -1.951,0.827 0.828,1.951 1.951,-0.828 -0.828,-1.95 z m -4.196,6.386 0.828,1.952 1.951,-0.828 -0.828,-1.953 -1.951,0.829 z m 2.484,5.852 1.951,-0.828 -0.829,-1.949 -1.95,0.828 0.828,1.949 z m 3.902,-1.655 1.95,-0.828 -0.828,-1.951 -1.95,0.828 0.828,1.951 z M -7.271,9.994 -5.319,9.166 -6.148,7.214 -8.1,8.042 -7.271,9.994 Z m 4.197,-6.387 -0.828,-1.95 -1.952,0.827 0.829,1.952 1.951,-0.829 z m -0.294,4.731 1.95,-0.829 -0.828,-1.95 -1.951,0.828 0.829,1.951 z M 2.845,1.095 C 2.636,1.942 2.305,2.779 1.843,3.579 L 1.656,3.902 1.656,3.901 -0.295,4.729 0.329,6.2 0.254,6.331 c -2.025,3.51 -5.92,5.217 -9.486,4.466 l -0.819,-1.926 -1.884,0.799 c -3.28,-2.122 -4.567,-6.318 -3.262,-10.128 l 1.006,-0.427 -0.401,-0.946 c 0.055,-0.106 0.102,-0.212 0.162,-0.315 l 1.59,-2.753 c 0.685,-1.188 1.59,-2.161 2.617,-2.91 l 0.229,0.538 1.951,-0.828 -0.324,-0.763 c 0.665,-0.278 1.357,-0.465 2.06,-0.573 l 0.215,0.507 1.404,-0.594 c 1.144,0.047 2.28,0.335 3.342,0.882 l -0.016,0.007 0.828,1.951 1.188,-0.504 c 0.523,0.522 0.973,1.104 1.334,1.737 l -1.693,0.72 0.828,1.951 1.667,-0.707 c 0.191,0.7 0.301,1.426 0.316,2.167 l -1.155,0.49 0.828,1.951 0.066,-0.028 z"
                 inkscape:connector-curvature="0" />
            </g>
          </g>
        </g>
      </g>
    </g>
    <g
       transform="matrix(0.54163352,-0.71877196,0.71877196,0.54163352,65.372871,159.66527)"
       id="g105">
      <g
         transform="matrix(1.25,0,0,-1.25,0,47.5)"
         id="g107">
        <g
           id="g109">
          <g
             clip-path="url(#clipPath16)"
             id="g111">
            <g
               transform="translate(3.4717,30.4277)"
               id="g113">
              <path
                 id="path115"
                 style="fill:#5c913b;fill-opacity:1;fill-rule:nonzero;stroke:none"
                 d="m 0,0 c -0.943,-2.125 -1.472,-4.466 -1.472,-6.928 0,-9.665 8.059,-17.5 18,-17.5 7.746,0 14.33,4.767 16.868,11.441 L 0,0 Z"
                 inkscape:connector-curvature="0" />
            </g>
            <g
               transform="translate(5.3315,29.7046)"
               id="g117">
              <path
                 id="path119"
                 style="fill:#ffe8b6;fill-opacity:1;fill-rule:nonzero;stroke:none"
                 d="m 0,0 c -0.853,-1.902 -1.332,-3.998 -1.332,-6.205 0,-8.59 7.164,-15.555 16,-15.555 6.905,0 12.77,4.26 15.013,10.218 L 0,0 Z"
                 inkscape:connector-curvature="0" />
            </g>
            <g
               transform="translate(7.1909,28.9814)"
               id="g121">
              <path
                 id="path123"
                 style="fill:#dd2e44;fill-opacity:1;fill-rule:nonzero;stroke:none"
                 d="m 0,0 c -0.761,-1.678 -1.191,-3.53 -1.191,-5.481 0,-7.518 6.268,-13.612 14,-13.612 6.063,0 11.21,3.753 13.156,8.995 L 0,0 Z"
                 inkscape:connector-curvature="0" />
            </g>
            <g
               transform="translate(10.916,22.7227)"
               id="g125">
              <path
                 id="path127"
                 style="fill:#000000;fill-opacity:1;fill-rule:nonzero;stroke:none"
                 d="m 0,0 c -0.307,-0.46 -0.741,-0.708 -0.971,-0.555 -0.23,0.154 -0.168,0.65 0.139,1.11 0.307,0.46 0.741,0.708 0.971,0.554 C 0.369,0.956 0.307,0.46 0,0"
                 inkscape:connector-curvature="0" />
            </g>
            <g
               transform="translate(16.916,21.7227)"
               id="g129">
              <path
                 id="path131"
                 style="fill:#000000;fill-opacity:1;fill-rule:nonzero;stroke:none"
                 d="m 0,0 c -0.307,-0.46 -0.741,-0.708 -0.971,-0.555 -0.23,0.154 -0.168,0.65 0.139,1.11 0.307,0.46 0.741,0.708 0.971,0.554 C 0.369,0.956 0.307,0.46 0,0"
                 inkscape:connector-curvature="0" />
            </g>
            <g
               transform="translate(21.998,17.0449)"
               id="g133">
              <path
                 id="path135"
                 style="fill:#000000;fill-opacity:1;fill-rule:nonzero;stroke:none"
                 d="m 0,0 c 0.05,-0.551 -0.132,-1.016 -0.406,-1.041 -0.276,-0.025 -0.538,0.4 -0.588,0.951 -0.051,0.551 0.132,1.016 0.406,1.04 C -0.312,0.977 -0.05,0.552 0,0"
                 inkscape:connector-curvature="0" />
            </g>
            <g
               transform="translate(12.998,19.0449)"
               id="g137">
              <path
                 id="path139"
                 style="fill:#000000;fill-opacity:1;fill-rule:nonzero;stroke:none"
                 d="m 0,0 c 0.05,-0.551 -0.132,-1.016 -0.406,-1.041 -0.276,-0.025 -0.538,0.4 -0.588,0.951 -0.05,0.551 0.132,1.016 0.406,1.04 C -0.312,0.977 -0.05,0.552 0,0"
                 inkscape:connector-curvature="0" />
            </g>
            <g
               transform="translate(16.8994,13.6992)"
               id="g48">
              <path
                 id="path50"
                 style="fill:#000000;fill-opacity:1;fill-rule:nonzero;stroke:none"
                 d="m 0,0 c -0.333,-0.441 -0.78,-0.663 -1,-0.497 -0.222,0.166 -0.129,0.658 0.204,1.099 0.334,0.441 0.781,0.663 1,0.497 C 0.426,0.933 0.334,0.441 0,0"
                 inkscape:connector-curvature="0" />
            </g>
            <g
               transform="translate(24.9355,13.2451)"
               id="g52">
              <path
                 id="path54"
                 style="fill:#000000;fill-opacity:1;fill-rule:nonzero;stroke:none"
                 d="m 0,0 c 0.272,-0.481 0.299,-0.979 0.06,-1.115 -0.242,-0.137 -0.657,0.142 -0.929,0.624 -0.274,0.48 -0.299,0.978 -0.059,1.115 C -0.687,0.762 -0.273,0.482 0,0"
                 inkscape:connector-curvature="0" />
            </g>
            <g
               transform="translate(17.918,18.2734)"
               id="g56">
              <path
                 id="path58"
                 style="fill:#000000;fill-opacity:1;fill-rule:nonzero;stroke:none"
                 d="M 0,0 C 0.303,-0.463 0.362,-0.958 0.131,-1.109 -0.1,-1.262 -0.532,-1.01 -0.835,-0.547 -1.138,-0.085 -1.196,0.411 -0.966,0.562 -0.735,0.715 -0.303,0.464 0,0"
                 inkscape:connector-curvature="0" />
            </g>
            <g
               transform="translate(26.8994,16.6992)"
               id="g60">
              <path
                 id="path62"
                 style="fill:#000000;fill-opacity:1;fill-rule:nonzero;stroke:none"
                 d="m 0,0 c -0.333,-0.441 -0.78,-0.663 -1.001,-0.497 -0.221,0.166 -0.129,0.658 0.205,1.099 0.333,0.442 0.78,0.663 1,0.497 C 0.426,0.933 0.335,0.441 0,0"
                 inkscape:connector-curvature="0" />
            </g>
          </g>
        </g>
      </g>
    </g>
    <g
       transform="matrix(-0.09749547,0.79403692,-0.79403692,-0.09749547,139.65141,20.356514)"
       id="g149">
      <g
         transform="matrix(1.25,0,0,-1.25,0,47.5)"
         id="g151">
        <g
           id="g153">
          <g
             clip-path="url(#clipPath16)"
             id="g155">
            <g
               transform="translate(36,19)"
               id="g157">
              <path
                 id="path159"
                 style="fill:#ffcc4d;fill-opacity:1;fill-rule:nonzero;stroke:none"
                 d="m 0,0 c 0,-9.389 -7.611,-17 -17,-17 -9.388,0 -17,7.611 -17,17 0,9.388 7.612,17 17,17 C -7.611,17 0,9.388 0,0"
                 inkscape:connector-curvature="0" />
            </g>
            <g
               transform="translate(29.457,19.2031)"
               id="g161">
              <path
                 id="path163"
                 style="fill:#664500;fill-opacity:1;fill-rule:nonzero;stroke:none"
                 d="m 0,0 c -0.059,0.135 -1.499,3.297 -4.457,3.297 -2.957,0 -4.397,-3.162 -4.457,-3.297 -0.092,-0.207 -0.032,-0.449 0.144,-0.591 0.175,-0.142 0.426,-0.147 0.611,-0.014 0.012,0.009 1.262,0.902 3.702,0.902 2.426,0 3.674,-0.881 3.702,-0.901 0.088,-0.066 0.194,-0.099 0.298,-0.099 0.11,0 0.221,0.037 0.312,0.109 C 0.032,-0.452 0.093,-0.208 0,0"
                 inkscape:connector-curvature="0" />
            </g>
            <g
               transform="translate(17.457,19.2031)"
               id="g165">
              <path
                 id="path167"
                 style="fill:#664500;fill-opacity:1;fill-rule:nonzero;stroke:none"
                 d="m 0,0 c -0.06,0.135 -1.499,3.297 -4.457,3.297 -2.957,0 -4.397,-3.162 -4.457,-3.297 -0.092,-0.207 -0.032,-0.449 0.144,-0.591 0.176,-0.142 0.427,-0.147 0.61,-0.014 0.013,0.009 1.262,0.902 3.703,0.902 2.426,0 3.674,-0.881 3.702,-0.901 0.088,-0.066 0.194,-0.099 0.298,-0.099 0.11,0 0.221,0.037 0.312,0.109 C 0.033,-0.452 0.092,-0.208 0,0"
                 inkscape:connector-curvature="0" />
            </g>
            <g
               transform="translate(19,15)"
               id="g169">
              <path
                 id="path171"
                 style="fill:#664500;fill-opacity:1;fill-rule:nonzero;stroke:none"
                 d="m 0,0 c -3.623,0 -6.027,0.422 -9,1 -0.679,0.131 -2,0 -2,-2 0,-4 4.595,-9 11,-9 6.404,0 11,5 11,9 C 11,1 9.679,1.132 9,1 6.027,0.422 3.623,0 0,0"
                 inkscape:connector-curvature="0" />
            </g>
            <g
               transform="translate(10,14)"
               id="g173">
              <path
                 id="path175"
                 style="fill:#ffffff;fill-opacity:1;fill-rule:nonzero;stroke:none"
                 d="m 0,0 c 0,0 3,-1 9,-1 6,0 9,1 9,1 0,0 -2,-4 -9,-4 -7,0 -9,4 -9,4"
                 inkscape:connector-curvature="0" />
            </g>
            <g
               transform="translate(36,26)"
               id="g177">
              <path
                 id="path179"
                 style="fill:#5dadec;fill-opacity:1;fill-rule:nonzero;stroke:none"
                 d="m 0,0 c 0,-2.762 -2.238,-5 -5,-5 -2.762,0 -5,2.238 -5,5 0,2.762 4,10 5,10 1,0 5,-7.238 5,-10"
                 inkscape:connector-curvature="0" />
            </g>
          </g>
        </g>
      </g>
    </g>
    <g
       transform="matrix(-0.815123,0.17325974,-0.17325974,-0.815123,104.07793,137.34983)"
       id="g181">
      <g
         transform="matrix(1.25,0,0,-1.25,0,47.5)"
         id="g183">
        <g
           id="g185">
          <g
             clip-path="url(#clipPath16)"
             id="g187">
            <g
               transform="translate(33.5508,18.1484)"
               id="g189">
              <path
                 id="path191"
                 style="fill:#77b255;fill-opacity:1;fill-rule:nonzero;stroke:none"
                 d="M 0,0 C -2.093,1.848 -6.686,3.264 -10.178,3.84 -6.686,4.417 -2.093,5.833 0,7.68 c 2.014,1.776 2.963,2.947 2.141,4.721 -0.567,1.22 -2.855,1.334 -4.166,2.491 -1.312,1.158 -1.444,3.177 -2.827,3.675 -2.009,0.726 -3.336,-0.113 -5.346,-1.888 -2.094,-1.847 -3.698,-5.899 -4.353,-8.981 -0.653,3.082 -2.258,7.135 -4.351,8.981 -2.015,1.776 -3.341,2.614 -5.351,1.888 -1.383,-0.5 -1.512,-2.518 -2.823,-3.675 -1.312,-1.158 -3.603,-1.274 -4.167,-2.494 -0.823,-1.773 0.129,-2.943 2.14,-4.718 2.094,-1.847 6.688,-3.263 10.181,-3.84 -3.493,-0.576 -8.087,-1.993 -10.181,-3.84 -2.013,-1.775 -2.963,-2.945 -2.139,-4.721 0.566,-1.218 2.854,-1.334 4.166,-2.49 1.311,-1.158 1.444,-3.178 2.826,-3.676 2.01,-0.726 3.337,0.116 5.348,1.889 1.652,1.457 2.997,4.288 3.814,6.933 -0.262,-4.536 0.528,-10.591 3.853,-14.262 1.343,-1.484 2.407,-0.551 2.822,-0.187 0.416,0.366 1.604,1.414 0.185,2.823 -3.91,3.882 -5.265,7.917 -5.627,11.139 0.827,-2.498 2.106,-5.077 3.657,-6.446 2.011,-1.775 3.339,-2.615 5.35,-1.889 1.382,0.5 1.512,2.52 2.823,3.676 1.312,1.158 3.602,1.274 4.166,2.494 C 2.963,-2.943 2.012,-1.773 0,0"
                 inkscape:connector-curvature="0" />
            </g>
          </g>
        </g>
      </g>
    </g>
    <g
       transform="matrix(0.93333333,0,0,0.93333333,40.305556,31.37963)"
       id="g193">
      <g
         transform="matrix(1.25,0,0,-1.25,0,47.5)"
         id="g195">
        <g
           id="g197">
          <g
             clip-path="url(#clipPath16)"
             id="g199">
            <g
               transform="translate(10.8423,17.0781)"
               id="g201">
              <path
                 id="path203"
                 style="fill:#77b255;fill-opacity:1;fill-rule:nonzero;stroke:none"
                 d="m 0,0 c 0,-9.842 6.575,-9.673 5.158,-10.078 -7,-2 -8.804,7.618 -9.464,7.618 -2.378,0 -5.536,0.423 -5.536,2.46 0,2.039 2.46,4.922 6.151,4.922 C -1.312,4.922 0,2.039 0,0"
                 inkscape:connector-curvature="0" />
            </g>
            <g
               transform="translate(37,8.3623)"
               id="g205">
              <path
                 id="path207"
                 style="fill:#77b255;fill-opacity:1;fill-rule:nonzero;stroke:none"
                 d="m 0,0 c 0,-1.104 -3.518,0.741 -5,0 -2,-1 -2,0.896 -2,2 0,1.104 1.343,1 3,1 1.657,0 4,-1.896 4,-3"
                 inkscape:connector-curvature="0" />
            </g>
            <g
               transform="translate(17.7148,3.8574)"
               id="g209">
              <path
                 id="path211"
                 style="fill:#77b255;fill-opacity:1;fill-rule:nonzero;stroke:none"
                 d="m 0,0 c 0,-2.761 -1.279,-2.857 -2.857,-2.857 -1.579,0 -2.858,0.096 -2.858,2.857 0,0.489 0.085,1.029 0.234,1.587 0.69,2.59 2.754,5.556 4.052,5.556 C 0.149,7.143 0,2.761 0,0"
                 inkscape:connector-curvature="0" />
            </g>
            <g
               transform="translate(26.2861,3.8574)"
               id="g213">
              <path
                 id="path215"
                 style="fill:#77b255;fill-opacity:1;fill-rule:nonzero;stroke:none"
                 d="m 0,0 c 0,-2.761 1.278,-2.857 2.856,-2.857 1.579,0 2.858,0.096 2.858,2.857 0,0.489 -0.085,1.029 -0.235,1.587 C 4.789,4.177 2.726,7.143 1.428,7.143 -0.15,7.143 0,2.761 0,0"
                 inkscape:connector-curvature="0" />
            </g>
            <g
               transform="translate(33,10)"
               id="g217">
              <path
                 id="path219"
                 style="fill:#3e721d;fill-opacity:1;fill-rule:nonzero;stroke:none"
                 d="m 0,0 c 0,-4 -5.149,-4 -11.5,-4 -6.351,0 -11.5,0 -11.5,4 0,6.627 5.149,12 11.5,12 C -5.149,12 0,6.627 0,0"
                 inkscape:connector-curvature="0" />
            </g>
            <g
               transform="translate(7,19)"
               id="g221">
              <path
                 id="path223"
                 style="fill:#292f33;fill-opacity:1;fill-rule:nonzero;stroke:none"
                 d="m 0,0 c 0,-0.553 -0.448,-1 -1,-1 -0.552,0 -1,0.447 -1,1 0,0.553 0.448,1 1,1 0.552,0 1,-0.447 1,-1"
                 inkscape:connector-curvature="0" />
            </g>
            <g
               transform="translate(24.667,11.9004)"
               id="g225">
              <path
                 id="path227"
                 style="fill:#5c913b;fill-opacity:1;fill-rule:nonzero;stroke:none"
                 d="m 0,0 c 0,-3.591 -1.418,-3.9 -3.167,-3.9 -1.749,0 -3.166,0.309 -3.166,3.9 0,3.59 1.417,8.1 3.166,8.1 C -1.418,8.1 0,3.59 0,0"
                 inkscape:connector-curvature="0" />
            </g>
            <g
               transform="translate(31,13)"
               id="g229">
              <path
                 id="path231"
                 style="fill:#5c913b;fill-opacity:1;fill-rule:nonzero;stroke:none"
                 d="m 0,0 c 0.871,-3.482 -0.784,-4 -2.533,-4 -1.749,0 -2.533,-0.69 -2.533,2.9 0,3.59 -1.117,6.5 0.632,6.5 C -2.685,5.4 -1,4 0,0"
                 inkscape:connector-curvature="0" />
            </g>
            <g
               transform="translate(17.0669,11.9004)"
               id="g233">
              <path
                 id="path235"
                 style="fill:#5c913b;fill-opacity:1;fill-rule:nonzero;stroke:none"
                 d="m 0,0 c 0,-3.591 -0.785,-2.9 -2.534,-2.9 -1.749,0 -3.403,0.517 -2.533,4 1,4 3.251,5.4 5,5.4 C 1.683,6.5 0,3.59 0,0"
                 inkscape:connector-curvature="0" />
            </g>
          </g>
        </g>
      </g>
    </g>
    <g
       transform="matrix(0.33714593,-0.83446547,0.83446547,0.33714593,128.26018,82.140511)"
       id="g237">
      <g
         transform="matrix(1.25,0,0,-1.25,0,45)"
         id="g239">
        <g
           id="g241">
          <g
             clip-path="url(#clipPath16)"
             id="g243">
            <g
               transform="translate(18,33)"
               id="g245">
              <path
                 id="path247"
                 style="fill:#f2abba;fill-opacity:1;fill-rule:nonzero;stroke:none"
                 d="m 0,0 c 0,0 0,2 -3,2 -2,0 -5.375,-2.042 -6,-4 -2,0 -5,-4 -4,-7 -3,-1 -3.625,-8.042 -2,-9 -2,-2 -1,-7 3,-8 1.009,-3.095 3.6,-5.153 6,-5 0.875,-0.708 1.792,-1 3,-1 3,0 3,1.958 3,4.958 L 0,0 Z"
                 inkscape:connector-curvature="0" />
            </g>
            <g
               transform="translate(18,33)"
               id="g249">
              <path
                 id="path251"
                 style="fill:#f2abba;fill-opacity:1;fill-rule:nonzero;stroke:none"
                 d="m 0,0 c 0,0 0,2 3,2 2,0 5.375,-2.042 6,-4 2,0 5,-4 4,-7 3,-1 3.625,-8.042 2,-9 2,-2 1,-7 -3,-8 -1.009,-3.095 -3.6,-5.153 -6,-5 -0.875,-0.708 -1.792,-1 -3,-1 -3,0 -3,1.958 -3,4.958 L 0,0 Z"
                 inkscape:connector-curvature="0" />
            </g>
            <g
               transform="translate(12,25.5)"
               id="g253">
              <path
                 id="path255"
                 style="fill:#e75a70;fill-opacity:1;fill-rule:nonzero;stroke:none"
                 d="M 0,0 C -0.052,0 -0.105,0.008 -0.158,0.026 -2.802,0.907 -3.5,3.338 -3.5,4.5 c 0,0.275 0.223,0.498 0.498,0.499 l 0.002,0 c 0.274,0 0.498,-0.222 0.5,-0.497 C -2.499,4.394 -2.451,1.844 0.158,0.974 0.42,0.887 0.562,0.604 0.474,0.342 0.404,0.132 0.209,0 0,0"
                 inkscape:connector-curvature="0" />
            </g>
            <g
               transform="translate(12.0005,23.5)"
               id="g257">
              <path
                 id="path259"
                 style="fill:#e75a70;fill-opacity:1;fill-rule:nonzero;stroke:none"
                 d="M 0,0 C -0.184,0 -0.36,0.101 -0.448,0.276 -1.416,2.212 -0.07,3.524 0.776,3.947 1.023,4.069 1.323,3.971 1.447,3.724 1.57,3.478 1.471,3.178 1.225,3.054 1.067,2.973 -0.3,2.218 0.447,0.724 0.57,0.477 0.47,0.176 0.223,0.053 0.151,0.017 0.075,0 0,0"
                 inkscape:connector-curvature="0" />
            </g>
            <g
               transform="translate(9.2515,18.3906)"
               id="g261">
              <path
                 id="path263"
                 style="fill:#e75a70;fill-opacity:1;fill-rule:nonzero;stroke:none"
                 d="m 0,0 -0.41,0.135 c -3.229,1.076 -4.027,4.406 -4.059,4.547 -0.062,0.268 0.106,0.536 0.374,0.598 0.269,0.061 0.537,-0.105 0.6,-0.374 0.007,-0.028 0.649,-2.657 3.031,-3.681 0.44,0.652 1.498,1.884 3.213,1.884 0.276,0 0.5,-0.223 0.5,-0.5 0,-0.276 -0.224,-0.5 -0.5,-0.5 C 1.09,2.109 0.204,0.402 0.195,0.384 L 0,0 Z"
                 inkscape:connector-curvature="0" />
            </g>
            <g
               transform="translate(10.9995,14.6387)"
               id="g265">
              <path
                 id="path267"
                 style="fill:#e75a70;fill-opacity:1;fill-rule:nonzero;stroke:none"
                 d="M 0,0 C -0.055,0 -0.112,0.009 -0.167,0.028 -0.426,0.121 -0.562,0.403 -0.472,0.663 -0.46,0.696 0.731,3.941 5.122,2.847 5.39,2.779 5.553,2.508 5.485,2.24 5.418,1.972 5.144,1.812 4.879,1.876 1.394,2.748 0.508,0.428 0.471,0.33 0.397,0.127 0.205,0 0,0"
                 inkscape:connector-curvature="0" />
            </g>
            <g
               transform="translate(7.9995,9.5)"
               id="g269">
              <path
                 id="path271"
                 style="fill:#e75a70;fill-opacity:1;fill-rule:nonzero;stroke:none"
                 d="m 0,0 c -0.075,0 -0.151,0.017 -0.223,0.053 -1.518,0.759 -1.668,2.063 -1.458,3 -1.832,0.28 -3.116,1.593 -3.176,1.655 -0.191,0.198 -0.185,0.514 0.013,0.706 0.198,0.191 0.515,0.185 0.706,-0.012 C -4.124,5.389 -2.754,4 -1,4 L -0.19,4 -0.552,3.276 C -0.629,3.118 -1.27,1.694 0.224,0.947 0.471,0.823 0.571,0.523 0.448,0.276 0.36,0.102 0.184,0 0,0"
                 inkscape:connector-curvature="0" />
            </g>
            <g
               transform="translate(13.0005,2.5)"
               id="g273">
              <path
                 id="path275"
                 style="fill:#e75a70;fill-opacity:1;fill-rule:nonzero;stroke:none"
                 d="M 0,0 C -0.131,0 -0.262,0.051 -0.36,0.153 -0.551,0.352 -0.546,0.668 -0.348,0.859 -0.33,0.877 1.463,2.639 1.017,4.282 0.945,4.549 1.102,4.823 1.368,4.896 1.635,4.967 1.91,4.811 1.982,4.544 2.584,2.328 0.438,0.229 0.346,0.14 0.25,0.047 0.125,0 0,0"
                 inkscape:connector-curvature="0" />
            </g>
            <g
               transform="translate(15.1562,6.4121)"
               id="g277">
              <path
                 id="path279"
                 style="fill:#e75a70;fill-opacity:1;fill-rule:nonzero;stroke:none"
                 d="M 0,0 C -1.894,0 -2.571,1.3 -2.603,1.363 -2.727,1.61 -2.627,1.911 -2.381,2.035 -2.134,2.158 -1.837,2.06 -1.712,1.817 -1.681,1.76 -1.082,0.72 0.747,1.078 1.016,1.134 1.28,0.956 1.334,0.685 1.388,0.414 1.211,0.151 0.941,0.098 0.598,0.029 0.285,0 0,0"
                 inkscape:connector-curvature="0" />
            </g>
            <g
               transform="translate(12.7334,30.9932)"
               id="g281">
              <path
                 id="path283"
                 style="fill:#e75a70;fill-opacity:1;fill-rule:nonzero;stroke:none"
                 d="M 0,0 C -0.12,0 -0.24,0.043 -0.336,0.13 -0.54,0.315 -0.556,0.63 -0.371,0.835 -0.319,0.892 0.917,2.241 2.479,2.28 3.265,2.308 3.99,1.991 4.62,1.36 4.815,1.165 4.815,0.849 4.62,0.653 4.425,0.458 4.108,0.458 3.913,0.653 3.479,1.087 2.994,1.298 2.509,1.28 1.378,1.254 0.38,0.174 0.37,0.164 0.271,0.055 0.136,0 0,0"
                 inkscape:connector-curvature="0" />
            </g>
            <g
               transform="translate(24,25.5)"
               id="g285">
              <path
                 id="path287"
                 style="fill:#e75a70;fill-opacity:1;fill-rule:nonzero;stroke:none"
                 d="M 0,0 C -0.209,0 -0.404,0.132 -0.475,0.342 -0.562,0.604 -0.42,0.887 -0.158,0.974 2.451,1.844 2.499,4.394 2.5,4.502 2.502,4.778 2.695,5.01 3.002,4.999 3.277,4.998 3.5,4.775 3.5,4.5 3.5,3.338 2.802,0.907 0.158,0.026 0.105,0.008 0.053,0 0,0"
                 inkscape:connector-curvature="0" />
            </g>
            <g
               transform="translate(24,23.5)"
               id="g64">
              <path
                 id="path66"
                 style="fill:#e75a70;fill-opacity:1;fill-rule:nonzero;stroke:none"
                 d="M 0,0 C -0.075,0 -0.151,0.017 -0.224,0.053 -0.471,0.176 -0.57,0.477 -0.447,0.724 0.308,2.233 -1.064,2.973 -1.224,3.053 -1.471,3.176 -1.57,3.477 -1.447,3.724 -1.323,3.971 -1.022,4.069 -0.776,3.947 0.07,3.524 1.415,2.212 0.447,0.276 0.359,0.101 0.183,0 0,0"
                 inkscape:connector-curvature="0" />
            </g>
            <g
               transform="translate(26.749,18.3892)"
               id="g68">
              <path
                 id="path70"
                 style="fill:#e75a70;fill-opacity:1;fill-rule:nonzero;stroke:none"
                 d="m 0,0 -0.195,0.386 c -0.009,0.017 -0.896,1.725 -2.554,1.725 -0.276,0 -0.5,0.223 -0.5,0.5 0,0.276 0.224,0.5 0.5,0.5 1.715,0 2.772,-1.233 3.212,-1.885 C 2.859,2.253 3.487,4.879 3.494,4.907 3.555,5.175 3.821,5.348 4.093,5.282 4.362,5.221 4.53,4.952 4.469,4.683 4.437,4.542 3.639,1.213 0.409,0.137 L 0,0 Z"
                 inkscape:connector-curvature="0" />
            </g>
            <g
               transform="translate(25,14.6367)"
               id="g72">
              <path
                 id="path74"
                 style="fill:#e75a70;fill-opacity:1;fill-rule:nonzero;stroke:none"
                 d="M 0,0 C -0.206,0 -0.398,0.128 -0.471,0.332 -0.507,0.431 -1.404,2.75 -4.879,1.878 -5.146,1.816 -5.419,1.975 -5.485,2.242 -5.552,2.51 -5.39,2.781 -5.121,2.849 -0.732,3.946 0.46,0.698 0.472,0.665 0.563,0.404 0.426,0.119 0.165,0.028 0.11,0.009 0.055,0 0,0"
                 inkscape:connector-curvature="0" />
            </g>
            <g
               transform="translate(28,9.5)"
               id="g76">
              <path
                 id="path78"
                 style="fill:#e75a70;fill-opacity:1;fill-rule:nonzero;stroke:none"
                 d="m 0,0 c -0.183,0 -0.359,0.102 -0.447,0.276 -0.123,0.247 -0.024,0.547 0.223,0.671 1.509,0.755 0.856,2.17 0.777,2.329 L 0.191,4 1,4 C 2.755,4 4.125,5.389 4.139,5.402 4.333,5.599 4.646,5.606 4.846,5.413 5.044,5.222 5.05,4.906 4.858,4.708 4.798,4.646 3.514,3.333 1.682,3.053 1.892,2.116 1.741,0.812 0.224,0.053 0.151,0.017 0.075,0 0,0"
                 inkscape:connector-curvature="0" />
            </g>
            <g
               transform="translate(23,2.5)"
               id="g80">
              <path
                 id="path82"
                 style="fill:#e75a70;fill-opacity:1;fill-rule:nonzero;stroke:none"
                 d="M 0,0 C -0.125,0 -0.25,0.047 -0.347,0.14 -0.438,0.229 -2.584,2.328 -1.982,4.544 -1.91,4.81 -1.637,4.967 -1.369,4.896 -1.103,4.823 -0.945,4.549 -1.018,4.282 -1.466,2.631 0.329,0.878 0.347,0.86 0.546,0.669 0.552,0.352 0.36,0.153 0.262,0.051 0.131,0 0,0"
                 inkscape:connector-curvature="0" />
            </g>
            <g
               transform="translate(20.8438,6.4121)"
               id="g84">
              <path
                 id="path86"
                 style="fill:#e75a70;fill-opacity:1;fill-rule:nonzero;stroke:none"
                 d="m 0,0 c -0.285,0 -0.599,0.029 -0.94,0.098 -0.272,0.053 -0.448,0.316 -0.394,0.587 0.054,0.271 0.321,0.451 0.587,0.393 1.848,-0.362 2.434,0.694 2.46,0.74 C 1.841,2.06 2.142,2.155 2.386,2.028 2.628,1.902 2.726,1.607 2.603,1.363 2.571,1.3 1.893,0 0,0"
                 inkscape:connector-curvature="0" />
            </g>
            <g
               transform="translate(23.2666,30.9932)"
               id="g88">
              <path
                 id="path90"
                 style="fill:#e75a70;fill-opacity:1;fill-rule:nonzero;stroke:none"
                 d="m 0,0 c -0.136,0 -0.271,0.055 -0.37,0.164 -0.01,0.01 -1.008,1.09 -2.139,1.116 -0.519,0.024 -0.97,-0.193 -1.404,-0.627 -0.195,-0.195 -0.512,-0.195 -0.707,0 -0.195,0.196 -0.195,0.512 0,0.707 0.63,0.63 1.323,0.955 2.141,0.92 C -0.918,2.241 0.319,0.892 0.371,0.835 0.556,0.63 0.54,0.315 0.336,0.13 0.24,0.043 0.12,0 0,0"
                 inkscape:connector-curvature="0" />
            </g>
            <g
               transform="translate(18.5,32)"
               id="g92">
              <path
                 id="path94"
                 style="fill:#e75a70;fill-opacity:1;fill-rule:nonzero;stroke:none"
                 d="m 0,0 -1,0 c -0.275,0 -0.5,-0.225 -0.5,-0.5 l 0,-26 c 0,-0.275 0.225,-0.5 0.5,-0.5 l 1,0 c 0.275,0 0.5,0.225 0.5,0.5 l 0,26 C 0.5,-0.225 0.275,0 0,0"
                 inkscape:connector-curvature="0" />
            </g>
          </g>
        </g>
      </g>
    </g>
    <g
       transform="matrix(-0.13781868,0.48063085,-0.48063085,-0.13781868,84.164595,82.104524)"
       id="g305">
      <g
         transform="matrix(1.25,0,0,-1.25,0,45)"
         id="g307">
        <g
           id="g309">
          <g
             clip-path="url(#clipPath16)"
             id="g311">
            <g
               transform="translate(28.6885,15.6875)"
               id="g313">
              <path
                 id="path315"
                 style="fill:#6d6e71;fill-opacity:1;fill-rule:nonzero;stroke:none"
                 d="m 0,0 c 0,-5.904 -4.784,-10.688 -10.689,-10.688 -5.902,0 -10.688,4.784 -10.688,10.688 0,5.903 4.786,10.689 10.688,10.689 C -4.784,10.689 0,5.903 0,0"
                 inkscape:connector-curvature="0" />
            </g>
            <g
               transform="translate(26,2.5)"
               id="g317">
              <path
                 id="path319"
                 style="fill:#662113;fill-opacity:1;fill-rule:nonzero;stroke:none"
                 d="m 0,0 -16,0 c -1.665,0 -2.479,1.339 -2.763,2.31 l -2.664,0.055 c -0.153,0.003 -0.297,0.077 -0.389,0.2 -0.092,0.123 -0.123,0.282 -0.083,0.43 l 0.594,2.216 -2.446,0.651 c -0.152,0.041 -0.276,0.151 -0.335,0.296 -0.06,0.146 -0.046,0.311 0.035,0.446 l 1.198,1.993 -2.155,1.192 c -0.139,0.077 -0.234,0.216 -0.254,0.374 -0.02,0.157 0.036,0.316 0.151,0.426 l 1.729,1.647 -1.729,1.646 c -0.115,0.11 -0.171,0.267 -0.151,0.426 0.02,0.158 0.115,0.297 0.254,0.374 l 2.156,1.194 -1.2,1.994 c -0.08,0.134 -0.094,0.299 -0.034,0.445 0.059,0.146 0.183,0.255 0.335,0.296 l 2.446,0.65 -0.594,2.218 c -0.04,0.148 -0.009,0.307 0.083,0.43 0.092,0.123 0.236,0.196 0.39,0.199 l 2.574,0.054 0.058,2.302 c 0.004,0.149 0.074,0.289 0.192,0.381 0.118,0.092 0.271,0.127 0.416,0.094 l 2.521,-0.56 0.718,2.234 c 0.044,0.138 0.147,0.251 0.282,0.308 0.135,0.056 0.287,0.051 0.417,-0.014 l 2.284,-1.138 1.341,2.009 c 0.08,0.119 0.208,0.199 0.35,0.218 0.144,0.018 0.286,-0.025 0.394,-0.119 L -8,26.242 l 1.88,1.635 c 0.109,0.095 0.251,0.137 0.394,0.119 0.143,-0.019 0.27,-0.099 0.35,-0.219 l 1.34,-2.008 2.286,1.138 c 0.13,0.066 0.283,0.07 0.417,0.014 0.135,-0.057 0.237,-0.17 0.282,-0.308 l 0.716,-2.234 2.522,0.56 c 0.146,0.033 0.297,-0.002 0.416,-0.094 0.118,-0.092 0.188,-0.232 0.192,-0.381 L 2.853,22.162 5.427,22.108 C 5.58,22.105 5.724,22.031 5.815,21.909 5.908,21.786 5.939,21.627 5.898,21.479 L 5.304,19.261 7.753,18.611 C 7.905,18.57 8.029,18.461 8.089,18.315 8.148,18.169 8.135,18.004 8.054,17.87 L 6.853,15.876 9.008,14.682 C 9.148,14.605 9.241,14.466 9.262,14.308 9.282,14.149 9.226,13.991 9.11,13.882 L 7.381,12.236 9.11,10.589 C 9.226,10.479 9.282,10.32 9.262,10.163 9.241,10.005 9.148,9.866 9.008,9.789 L 6.854,8.597 8.054,6.604 C 8.135,6.469 8.148,6.304 8.089,6.158 8.029,6.013 7.905,5.903 7.754,5.862 L 5.304,5.211 5.898,2.995 C 5.939,2.847 5.908,2.689 5.816,2.565 5.724,2.442 5.58,2.368 5.427,2.365 L 2.764,2.31 C 2.48,1.339 1.665,0 0,0"
                 inkscape:connector-curvature="0" />
            </g>
            <g
               transform="translate(16.188,7.1758)"
               id="g321">
              <path
                 id="path323"
                 style="fill:#8a4b38;fill-opacity:1;fill-rule:nonzero;stroke:none"
                 d="m 0,0 c -0.022,0 -0.044,0.001 -0.066,0.004 -0.142,0.019 -0.27,0.099 -0.35,0.219 l -1.058,1.585 -1.804,-0.9 C -3.41,0.844 -3.561,0.838 -3.696,0.895 -3.83,0.951 -3.933,1.064 -3.978,1.203 L -4.542,2.96 -6.532,2.518 C -6.68,2.486 -6.831,2.521 -6.948,2.612 -7.066,2.704 -7.136,2.844 -7.14,2.993 L -7.185,4.797 -9.214,4.84 c -0.154,0.003 -0.297,0.077 -0.39,0.2 -0.092,0.122 -0.123,0.281 -0.083,0.43 l 0.465,1.732 -1.922,0.512 c -0.152,0.041 -0.276,0.15 -0.335,0.296 -0.059,0.145 -0.046,0.31 0.035,0.445 l 0.937,1.557 -1.689,0.934 c -0.139,0.077 -0.234,0.216 -0.254,0.373 -0.02,0.158 0.035,0.316 0.151,0.426 l 1.352,1.289 -1.352,1.287 c -0.115,0.11 -0.171,0.268 -0.151,0.426 0.02,0.158 0.115,0.296 0.254,0.374 l 1.689,0.935 -0.937,1.557 c -0.081,0.135 -0.094,0.3 -0.035,0.446 0.059,0.146 0.183,0.255 0.335,0.296 l 1.922,0.51 -0.465,1.735 c -0.04,0.148 -0.009,0.306 0.083,0.429 0.093,0.123 0.236,0.197 0.39,0.2 l 2.029,0.042 0.045,1.805 c 0.004,0.149 0.074,0.289 0.192,0.381 0.117,0.092 0.27,0.127 0.416,0.094 l 1.99,-0.442 0.564,1.756 c 0.045,0.139 0.148,0.252 0.282,0.308 0.136,0.056 0.287,0.052 0.418,-0.013 l 1.804,-0.9 1.058,1.584 c 0.08,0.119 0.208,0.199 0.35,0.218 0.144,0.021 0.286,-0.024 0.394,-0.119 l 1.484,-1.291 1.484,1.291 c 0.11,0.096 0.253,0.138 0.395,0.119 0.142,-0.019 0.269,-0.099 0.349,-0.218 l 1.057,-1.584 1.807,0.9 c 0.13,0.065 0.283,0.069 0.417,0.013 0.135,-0.057 0.237,-0.169 0.282,-0.308 l 0.562,-1.756 1.992,0.442 c 0.145,0.033 0.299,-0.002 0.416,-0.094 0.118,-0.092 0.188,-0.232 0.192,-0.382 l 0.045,-1.804 2.028,-0.042 c 0.154,-0.003 0.297,-0.077 0.389,-0.2 0.093,-0.123 0.123,-0.281 0.083,-0.43 l -0.465,-1.734 1.924,-0.51 c 0.152,-0.041 0.276,-0.15 0.336,-0.296 0.059,-0.146 0.046,-0.311 -0.035,-0.446 l -0.939,-1.558 1.689,-0.934 c 0.14,-0.078 0.233,-0.216 0.254,-0.374 0.02,-0.158 -0.036,-0.316 -0.152,-0.426 l -1.352,-1.287 1.352,-1.289 c 0.116,-0.11 0.172,-0.267 0.152,-0.426 -0.021,-0.157 -0.116,-0.296 -0.254,-0.373 L 14.132,10.012 15.07,8.455 C 15.151,8.32 15.164,8.155 15.105,8.01 15.045,7.864 14.921,7.755 14.77,7.714 L 12.845,7.202 13.31,5.47 C 13.35,5.321 13.32,5.163 13.228,5.04 13.135,4.917 12.992,4.843 12.838,4.84 L 10.81,4.797 10.765,2.993 C 10.761,2.844 10.691,2.704 10.573,2.612 10.456,2.521 10.302,2.486 10.157,2.518 L 8.165,2.96 7.603,1.203 C 7.558,1.064 7.456,0.951 7.321,0.895 7.187,0.837 7.037,0.842 6.904,0.908 L 5.098,1.808 4.04,0.223 C 3.96,0.103 3.833,0.023 3.691,0.004 3.549,-0.014 3.405,0.028 3.296,0.123 L 1.812,1.417 0.329,0.123 C 0.237,0.043 0.12,0 0,0"
                 inkscape:connector-curvature="0" />
            </g>
            <g
               transform="translate(13.5,8.9484)"
               id="g325">
              <path
                 id="path327"
                 style="fill:#8a4b38;fill-opacity:1;fill-rule:nonzero;stroke:none"
                 d="m 0,0 9,0 c 3.521,0 6.5,-2.575 6.5,-4.5 0,-1.65 -1.35,-2 -3,-2 l -16,0 c -1.65,0 -3,0.35 -3,2 0,1.925 2.99,4.5 6.5,4.5"
                 inkscape:connector-curvature="0" />
            </g>
            <g
               transform="translate(26.2217,13.2207)"
               id="g329">
              <path
                 id="path331"
                 style="fill:#d99e82;fill-opacity:1;fill-rule:nonzero;stroke:none"
                 d="m 0,0 c 0,-4.088 -3.68,-7.398 -8.222,-7.398 -4.541,0 -8.221,3.31 -8.221,7.398 0,4.087 3.68,7.4 8.221,7.4 C -3.68,7.4 0,4.087 0,0"
                 inkscape:connector-curvature="0" />
            </g>
            <g
               transform="translate(21.2891,9.5215)"
               id="g333">
              <path
                 id="path335"
                 style="fill:#e6e7e8;fill-opacity:1;fill-rule:nonzero;stroke:none"
                 d="m 0,0 c 0,-2.043 -1.473,-3.699 -3.289,-3.699 -1.817,0 -3.289,1.656 -3.289,3.699 0,2.043 1.472,3.699 3.289,3.699 C -1.473,3.699 0,2.043 0,0"
                 inkscape:connector-curvature="0" />
            </g>
            <g
               transform="translate(19.6445,8.2891)"
               id="g337">
              <path
                 id="path339"
                 style="fill:#231f20;fill-opacity:1;fill-rule:nonzero;stroke:none"
                 d="m 0,0 c 0,-0.908 -0.736,-1.645 -1.645,-1.645 -0.908,0 -1.644,0.737 -1.644,1.645 0,0.908 0.736,1.643 1.644,1.643 C -0.736,1.643 0,0.908 0,0"
                 inkscape:connector-curvature="0" />
            </g>
            <g
               transform="translate(14.7114,14.4551)"
               id="g341">
              <path
                 id="path343"
                 style="fill:#231f20;fill-opacity:1;fill-rule:nonzero;stroke:none"
                 d="m 0,0 c 0,-0.682 -0.552,-1.234 -1.233,-1.234 -0.681,0 -1.234,0.552 -1.234,1.234 0,0.68 0.553,1.232 1.234,1.232 C -0.552,1.232 0,0.68 0,0"
                 inkscape:connector-curvature="0" />
            </g>
            <g
               transform="translate(23.7549,14.4551)"
               id="g345">
              <path
                 id="path347"
                 style="fill:#231f20;fill-opacity:1;fill-rule:nonzero;stroke:none"
                 d="m 0,0 c 0,-0.682 -0.552,-1.234 -1.232,-1.234 -0.682,0 -1.234,0.552 -1.234,1.234 0,0.68 0.552,1.232 1.234,1.232 C -0.552,1.232 0,0.68 0,0"
                 inkscape:connector-curvature="0" />
            </g>
            <g
               transform="translate(11.4224,18.1543)"
               id="g349">
              <path
                 id="path351"
                 style="fill:#c1694f;fill-opacity:1;fill-rule:nonzero;stroke:none"
                 d="m 0,0 c 0,0 4.111,1.645 4.933,0 0.822,-1.645 1.645,-1.645 1.645,-1.645 l 0,4.934 C 6.578,3.289 0,3.289 0,0"
                 inkscape:connector-curvature="0" />
            </g>
            <g
               transform="translate(24.5771,18.1543)"
               id="g353">
              <path
                 id="path355"
                 style="fill:#c1694f;fill-opacity:1;fill-rule:nonzero;stroke:none"
                 d="m 0,0 c 0,0 -4.11,1.645 -4.933,0 -0.822,-1.645 -1.644,-1.645 -1.644,-1.645 l 0,4.934 c 0,0 6.577,0 6.577,-3.289"
                 inkscape:connector-curvature="0" />
            </g>
            <g
               transform="translate(12.2446,17.7437)"
               id="g357">
              <path
                 id="path359"
                 style="fill:#d99e82;fill-opacity:1;fill-rule:nonzero;stroke:none"
                 d="m 0,0 c 0,-1.136 -0.92,-2.056 -2.055,-2.056 -1.136,0 -2.056,0.92 -2.056,2.056 0,1.135 0.92,2.055 2.056,2.055 C -0.92,2.055 0,1.135 0,0"
                 inkscape:connector-curvature="0" />
            </g>
            <g
               transform="translate(27.8662,17.7437)"
               id="g361">
              <path
                 id="path363"
                 style="fill:#d99e82;fill-opacity:1;fill-rule:nonzero;stroke:none"
                 d="m 0,0 c 0,-1.136 -0.92,-2.056 -2.056,-2.056 -1.134,0 -2.055,0.92 -2.055,2.056 0,1.135 0.921,2.055 2.055,2.055 C -0.92,2.055 0,1.135 0,0"
                 inkscape:connector-curvature="0" />
            </g>
            <g
               transform="translate(11,1)"
               id="g365">
              <path
                 id="path367"
                 style="fill:#d99e82;fill-opacity:1;fill-rule:nonzero;stroke:none"
                 d="M 0,0 C -2,0 -2,4 2,4 6,4 6.062,0 4,0 L 0,0 Z"
                 inkscape:connector-curvature="0" />
            </g>
            <g
               transform="translate(21,1)"
               id="g369">
              <path
                 id="path371"
                 style="fill:#d99e82;fill-opacity:1;fill-rule:nonzero;stroke:none"
                 d="M 0,0 C -2,0 -2,4 2,4 6,4 6.062,0 4,0 L 0,0 Z"
                 inkscape:connector-curvature="0" />
            </g>
          </g>
        </g>
      </g>
    </g>
    <g
       transform="matrix(0.57787455,0.45148508,-0.45148508,0.57787455,136.4518,124.03751)"
       id="g373">
      <g
         transform="matrix(1.25,0,0,-1.25,0,45)"
         id="g375">
        <g
           id="g377">
          <g
             clip-path="url(#clipPath16)"
             id="g379">
            <g
               transform="translate(32,0)"
               id="g381">
              <path
                 id="path383"
                 style="fill:#292f33;fill-opacity:1;fill-rule:nonzero;stroke:none"
                 d="m 0,0 0,2 c 0,3.314 -2.686,6 -6,6 l -16,0 c -3.313,0 -6,-2.686 -6,-6 l 0,-2 28,0 z"
                 inkscape:connector-curvature="0" />
            </g>
            <g
               transform="translate(27,7.3826)"
               id="g385">
              <path
                 id="path387"
                 style="fill:#be1931;fill-opacity:1;fill-rule:nonzero;stroke:none"
                 d="m 0,0 c 2.239,2.225 7,9.617 7,11.617 0,0 -4.667,5 -16,5 l 0,-23 c 0,0 7.103,4.499 9,6.383"
                 inkscape:connector-curvature="0" />
            </g>
            <g
               transform="translate(9,7.3826)"
               id="g389">
              <path
                 id="path391"
                 style="fill:#be1931;fill-opacity:1;fill-rule:nonzero;stroke:none"
                 d="m 0,0 c -2.239,2.225 -7,9.617 -7,11.617 0,0 4.667,5 16,5 l 0,-23 c 0,0 -7.103,4.499 -9,6.383"
                 inkscape:connector-curvature="0" />
            </g>
            <g
               transform="translate(18.75,16.25)"
               id="g393">
              <path
                 id="path395"
                 style="fill:#c1694f;fill-opacity:1;fill-rule:nonzero;stroke:none"
                 d="m 0,0 -1.5,0 c -0.413,0 -0.75,0.337 -0.75,0.75 0,0.413 0.337,0.75 0.75,0.75 L 0,1.5 C 0.413,1.5 0.75,1.163 0.75,0.75 0.75,0.337 0.413,0 0,0"
                 inkscape:connector-curvature="0" />
            </g>
            <g
               transform="translate(18.0043,31.9332)"
               id="g397">
              <path
                 id="path399"
                 style="fill:#292f33;fill-opacity:1;fill-rule:nonzero;stroke:none"
                 d="m 0,0 c 4.35,0 11.601,-2.175 11.601,-11.601 0,-9.426 0,-11.602 -2.175,-11.602 -2.176,0 -5.076,2.176 -9.426,2.176 -4.351,0 -7.19,-2.176 -9.427,-2.176 -2.423,0 -2.175,8.701 -2.175,11.602 C -11.602,-2.175 -4.351,0 0,0"
                 inkscape:connector-curvature="0" />
            </g>
            <g
               transform="translate(17.9957,31.9332)"
               id="g401">
              <path
                 id="path403"
                 style="fill:#292f33;fill-opacity:1;fill-rule:nonzero;stroke:none"
                 d="m 0,0 c -4.35,0 -11.601,-2.175 -11.601,-11.601 0,-9.426 0,-11.602 2.175,-11.602 2.176,0 5.076,2.176 9.426,2.176 4.351,0 7.19,-2.176 9.427,-2.176 2.423,0 2.175,8.701 2.175,11.602 C 11.602,-2.175 4.351,0 0,0"
                 inkscape:connector-curvature="0" />
            </g>
            <g
               transform="translate(22.2388,8)"
               id="g405">
              <path
                 id="path407"
                 style="fill:#d5ab88;fill-opacity:1;fill-rule:nonzero;stroke:none"
                 d="m 0,0 c 0,-1.92 -4.239,-7 -4.239,-7 0,0 -4.239,5.019 -4.239,7 L 0,0 Z"
                 inkscape:connector-curvature="0" />
            </g>
            <g
               transform="translate(14.291,7.7545)"
               id="g409">
              <path
                 id="path411"
                 style="fill:#d5ab88;fill-opacity:1;fill-rule:nonzero;stroke:none"
                 d="m 0,0 c 1.553,-1.129 2.959,-1.039 3.709,-1.039 0.75,0 2.325,-0.09 3.697,1.006 L 7.418,4.354 0,4.354 0,0 Z"
                 inkscape:connector-curvature="0" />
            </g>
            <g
               transform="translate(14.2907,9.9759)"
               id="g413">
              <path
                 id="path415"
                 style="fill:#cc9b7a;fill-opacity:1;fill-rule:nonzero;stroke:none"
                 d="m 0,0 c 1.031,-1.224 3.022,-1.336 3.699,-1.336 0.677,0 2.67,0.112 3.701,1.336 l 0,3.112 -7.4,0 L 0,0 Z"
                 inkscape:connector-curvature="0" />
            </g>
            <g
               transform="translate(9.2404,20.649)"
               id="g417">
              <path
                 id="path419"
                 style="fill:#d5ab88;fill-opacity:1;fill-rule:nonzero;stroke:none"
                 d="m 0,0 c 0,6.182 3.896,11.194 8.702,11.194 4.803,0 8.699,-5.012 8.699,-11.194 0,-6.181 -3.896,-11.238 -8.699,-11.238 C 3.896,-11.238 0,-6.181 0,0"
                 inkscape:connector-curvature="0" />
            </g>
            <g
               transform="translate(7.1117,17.1709)"
               id="g421">
              <path
                 id="path423"
                 style="fill:#292f33;fill-opacity:1;fill-rule:nonzero;stroke:none"
                 d="m 0,0 c -0.022,1.06 -0.047,0.237 -0.047,0.493 0,3.626 2.176,-0.524 2.176,2.059 0,2.584 1.45,2.843 2.9,4.293 0.725,0.725 2.175,2.147 2.175,2.147 0,0 3.625,-2.191 6.526,-2.191 2.9,0 5.801,-1.457 5.801,-4.358 0,-2.899 2.175,1.679 2.175,-1.946 0,-0.259 -0.024,0.563 -0.043,-0.497 l 0.762,0 c 0.006,2.119 0.006,2.039 0.006,3.393 0,9.426 -7.25,12.936 -11.602,12.936 -4.349,0 -11.53,-3.451 -11.53,-12.878 0,-0.84 -0.021,-1.332 0.009,-3.451 L 0,0 Z"
                 inkscape:connector-curvature="0" />
            </g>
            <g
               transform="translate(14.4059,18.3506)"
               id="g425">
              <path
                 id="path427"
                 style="fill:#dd2e44;fill-opacity:1;fill-rule:nonzero;stroke:none"
                 d="m 0,0 0,0 c -0.493,0 -0.896,0.404 -0.896,0.897 l 0,0.895 c 0,0.493 0.403,0.897 0.896,0.897 0.494,0 0.897,-0.404 0.897,-0.897 l 0,-0.895 C 0.897,0.404 0.494,0 0,0"
                 inkscape:connector-curvature="0" />
            </g>
            <g
               transform="translate(21.5744,18.3506)"
               id="g429">
              <path
                 id="path431"
                 style="fill:#dd2e44;fill-opacity:1;fill-rule:nonzero;stroke:none"
                 d="m 0,0 0,0 c -0.493,0 -0.896,0.404 -0.896,0.897 l 0,0.895 c 0,0.493 0.403,0.897 0.896,0.897 0.493,0 0.896,-0.404 0.896,-0.897 l 0,-0.895 C 0.896,0.404 0.493,0 0,0"
                 inkscape:connector-curvature="0" />
            </g>
            <g
               transform="translate(18.8858,15.5813)"
               id="g433">
              <path
                 id="path435"
                 style="fill:#c1694f;fill-opacity:1;fill-rule:nonzero;stroke:none"
                 d="m 0,0 -1.791,0 c -0.248,0 -0.448,0.201 -0.448,0.448 l 0,0.163 c 0,0.247 0.2,0.449 0.448,0.449 L 0,1.06 c 0.247,0 0.449,-0.202 0.449,-0.449 l 0,-0.163 C 0.449,0.201 0.247,0 0,0"
                 inkscape:connector-curvature="0" />
            </g>
            <g
               transform="translate(26,21.72)"
               id="g437">
              <path
                 id="path439"
                 style="fill:#d5ab88;fill-opacity:1;fill-rule:nonzero;stroke:none"
                 d="m 0,0 -0.47,-0.129 c 0,0 -1.192,-3.4 -0.001,-3.996 C 2.194,-5.457 3,-0.332 3,1 3,2 0,0 0,0"
                 inkscape:connector-curvature="0" />
            </g>
            <g
               transform="translate(10,21.72)"
               id="g441">
              <path
                 id="path443"
                 style="fill:#d5ab88;fill-opacity:1;fill-rule:nonzero;stroke:none"
                 d="m 0,0 0.47,-0.129 c 0,0 1.192,-3.4 0.001,-3.996 C -2.194,-5.457 -3,-0.332 -3,1 -3,2 0,0 0,0"
                 inkscape:connector-curvature="0" />
            </g>
            <g
               transform="translate(18.0595,11.4959)"
               id="g445">
              <path
                 id="path447"
                 style="fill:#c1694f;fill-opacity:1;fill-rule:nonzero;stroke:none"
                 d="m 0,0 c -2.754,0 -3.6,1.904 -3.741,2.045 -0.256,0.257 -0.256,0.671 0,0.927 0.248,0.249 0.645,0.256 0.902,0.024 C -2.787,2.958 -2.118,2.509 0,2.509 c 2.2,0 2.836,0.485 2.842,0.49 C 3.098,3.253 3.499,3.241 3.755,2.985 4.011,2.729 3.997,2.302 3.741,2.045 3.6,1.904 2.754,0 0,0"
                 inkscape:connector-curvature="0" />
            </g>
            <g
               transform="translate(15.6259,13.9959)"
               id="g449">
              <path
                 id="path451"
                 style="fill:#c1694f;fill-opacity:1;fill-rule:nonzero;stroke:none"
                 d="m 0,0 c -0.331,0 -0.637,-0.149 -0.84,-0.41 -0.204,-0.261 -0.274,-0.594 -0.194,-0.915 0.008,-0.034 0.02,-0.066 0.035,-0.098 l 1.012,-2.072 c 0.084,-0.172 0.259,-0.28 0.45,-0.28 0.002,0 0.005,0 0.008,0 0.195,0.003 0.369,0.119 0.448,0.296 l 0.88,1.973 c 0.012,0.027 0.021,0.054 0.028,0.083 0.064,0.257 0.018,0.52 -0.13,0.741 -0.173,0.258 -0.479,0.441 -0.817,0.489 l -0.767,0.18 C 0.076,-0.004 0.038,0 0,0"
                 inkscape:connector-curvature="0" />
            </g>
            <g
               transform="translate(16.4345,13.3084)"
               id="g453">
              <path
                 id="path455"
                 style="fill:#f5f8fa;fill-opacity:1;fill-rule:nonzero;stroke:none"
                 d="m 0,0 -0.809,0.187 c -0.368,0 -0.638,-0.346 -0.549,-0.703 l 1.012,-2.072 0.879,1.973 C 0.614,-0.294 0.322,-0.046 0,0"
                 inkscape:connector-curvature="0" />
            </g>
            <g
               transform="translate(20.454,13.9959)"
               id="g96">
              <path
                 id="path98"
                 style="fill:#c1694f;fill-opacity:1;fill-rule:nonzero;stroke:none"
                 d="M 0,0 C -0.038,0 -0.076,-0.004 -0.113,-0.013 L -0.922,-0.2 c -0.296,-0.041 -0.602,-0.224 -0.775,-0.482 -0.148,-0.221 -0.195,-0.484 -0.13,-0.741 0.007,-0.029 0.016,-0.056 0.028,-0.083 l 0.88,-1.973 c 0.079,-0.177 0.253,-0.293 0.448,-0.296 0.003,0 0.006,0 0.008,0 0.191,0 0.366,0.108 0.45,0.28 l 1.012,2.072 c 0.015,0.032 0.027,0.064 0.035,0.098 0.08,0.321 0.01,0.654 -0.194,0.915 C 0.637,-0.149 0.331,0 0,0"
                 inkscape:connector-curvature="0" />
            </g>
            <g
               transform="translate(19.6454,13.3084)"
               id="g100">
              <path
                 id="path102"
                 style="fill:#f5f8fa;fill-opacity:1;fill-rule:nonzero;stroke:none"
                 d="m 0,0 0.809,0.187 c 0.368,0 0.638,-0.346 0.549,-0.703 L 0.346,-2.588 -0.533,-0.615 C -0.614,-0.294 -0.322,-0.046 0,0"
                 inkscape:connector-curvature="0" />
            </g>
          </g>
        </g>
      </g>
    </g>
    <g
       transform="matrix(0.16538241,0.57675702,-0.57675702,0.16538241,57.284365,130.22429)"
       id="g461">
      <g
         transform="matrix(1.25,0,0,-1.25,0,45)"
         id="g463">
        <g
           id="g465">
          <g
             clip-path="url(#clipPath16)"
             id="g467">
            <g
               transform="translate(25.8193,25.2695)"
               id="g469">
              <path
                 id="path471"
                 style="fill:#66757f;fill-opacity:1;fill-rule:nonzero;stroke:none"
                 d="m 0,0 c -0.22,-0.132 -0.505,-0.061 -0.637,0.158 l -3.134,5.201 c -0.133,0.219 -0.063,0.504 0.157,0.636 l 0.061,0.038 c 0.22,0.132 0.505,0.062 0.637,-0.158 L 0.22,0.674 C 0.352,0.455 0.281,0.17 0.062,0.038 L 0,0 Z"
                 inkscape:connector-curvature="0" />
            </g>
            <g
               transform="translate(25.2695,25.8193)"
               id="g473">
              <path
                 id="path475"
                 style="fill:#66757f;fill-opacity:1;fill-rule:nonzero;stroke:none"
                 d="m 0,0 c -0.132,-0.219 -0.061,-0.504 0.158,-0.636 l 5.2,-3.135 c 0.22,-0.133 0.505,-0.063 0.637,0.157 l 0.037,0.062 c 0.133,0.219 0.063,0.504 -0.158,0.637 L 0.674,0.22 C 0.455,0.352 0.17,0.282 0.037,0.062 L 0,0 Z"
                 inkscape:connector-curvature="0" />
            </g>
            <g
               transform="translate(13.0488,3.8564)"
               id="g477">
              <path
                 id="path479"
                 style="fill:#be1931;fill-opacity:1;fill-rule:nonzero;stroke:none"
                 d="m 0,0 -3.536,4.95 -0.707,0.707 -4.949,3.535 c -0.391,0.391 -1.024,0.391 -1.414,0 l -2.122,-2.121 c -0.391,-0.39 -0.39,-1.023 0,-1.414 l 9.192,-9.192 c 0.391,-0.391 1.024,-0.391 1.415,0 L 0,-1.414 C 0.391,-1.023 0.391,-0.391 0,0"
                 inkscape:connector-curvature="0" />
            </g>
            <g
               transform="translate(23.2041,18.2534)"
               id="g481">
              <path
                 id="path483"
                 style="fill:#ccd6dd;fill-opacity:1;fill-rule:nonzero;stroke:none"
                 d="m 0,0 c -6.995,-6.994 -19.669,-15.557 -20.088,-15.137 -0.42,0.419 8.144,13.093 15.138,20.087 6.993,6.993 8.821,6.606 10.188,5.238 C 6.604,8.822 6.993,6.994 0,0"
                 inkscape:connector-curvature="0" />
            </g>
            <g
               transform="translate(32.0762,31.3682)"
               id="g485">
              <path
                 id="path487"
                 style="fill:#be1931;fill-opacity:1;fill-rule:nonzero;stroke:none"
                 d="m 0,0 c -0.977,-0.976 -1.927,-1.609 -2.122,-1.414 -0.195,0.195 0.438,1.145 1.414,2.122 C 0.268,1.684 1.219,2.317 1.414,2.122 1.609,1.926 0.976,0.977 0,0"
                 inkscape:connector-curvature="0" />
            </g>
            <g
               transform="translate(23.9443,18.9946)"
               id="g489">
              <path
                 id="path491"
                 style="fill:#ccd6dd;fill-opacity:1;fill-rule:nonzero;stroke:none"
                 d="M 0,0 C -0.781,-0.781 -2.048,-0.781 -2.828,0 L -4.95,2.121 c -0.781,0.781 -0.781,2.048 0,2.829 l 7.778,7.778 c 0.781,0.781 3.222,1.955 4.003,1.173 L 8.952,11.78 C 9.733,10.999 8.56,8.559 7.778,7.778 L 0,0 Z"
                 inkscape:connector-curvature="0" />
            </g>
            <g
               transform="translate(28.5264,32.7974)"
               id="g493">
              <path
                 id="path495"
                 style="fill:#226699;fill-opacity:1;fill-rule:nonzero;stroke:none"
                 d="m 0,0 4.271,-4.271 c 0.365,0.883 0.53,1.817 0.099,2.249 L 2.249,0.099 C 1.818,0.529 0.883,0.364 0,0"
                 inkscape:connector-curvature="0" />
            </g>
            <g
               transform="translate(32.5918,32.2671)"
               id="g497">
              <path
                 id="path499"
                 style="fill:#be1931;fill-opacity:1;fill-rule:nonzero;stroke:none"
                 d="M 0,0 C -0.196,-0.196 -1.145,0.437 -2.121,1.414 -3.098,2.39 -3.731,3.34 -3.535,3.535 -3.34,3.73 -2.391,3.097 -1.414,2.121 -0.437,1.145 0.195,0.195 0,0"
                 inkscape:connector-curvature="0" />
            </g>
            <g
               transform="translate(35.8232,29.0347)"
               id="g501">
              <path
                 id="path503"
                 style="fill:#be1931;fill-opacity:1;fill-rule:nonzero;stroke:none"
                 d="M 0,0 C -0.195,-0.195 -1.145,0.438 -2.121,1.414 -3.098,2.391 -3.731,3.34 -3.535,3.536 -3.34,3.731 -2.391,3.098 -1.414,2.121 -0.437,1.145 0.195,0.195 0,0"
                 inkscape:connector-curvature="0" />
            </g>
            <g
               transform="translate(24.5166,25.8921)"
               id="g505">
              <path
                 id="path507"
                 style="fill:#66757f;fill-opacity:1;fill-rule:nonzero;stroke:none"
                 d="M 0,0 1.375,-1.375 C 1.953,-1.953 2.489,-2.463 2.66,-3.121 l 0.061,0.061 c 0.944,0.945 0.944,2.477 0,3.422 L 1.738,1.344 c -0.944,0.945 -2.476,0.945 -3.422,0 l -0.06,-0.06 C -1.087,1.113 -0.577,0.577 0,0"
                 inkscape:connector-curvature="0" />
            </g>
            <g
               transform="translate(21.8311,29.6099)"
               id="g509">
              <path
                 id="path511"
                 style="fill:#292f33;fill-opacity:1;fill-rule:nonzero;stroke:none"
                 d="m 0,0 c -0.34,-0.34 -0.893,-0.34 -1.233,0 l -0.18,0.181 c -0.341,0.34 -0.341,0.893 -10e-4,1.233 l 1.596,1.595 c 0.339,0.341 0.892,0.341 1.233,0 l 0.18,-0.18 C 1.936,2.488 1.936,1.936 1.596,1.595 L 0,0 Z"
                 inkscape:connector-curvature="0" />
            </g>
            <g
               transform="translate(30.9902,20.3838)"
               id="g513">
              <path
                 id="path515"
                 style="fill:#292f33;fill-opacity:1;fill-rule:nonzero;stroke:none"
                 d="m 0,0 c -0.322,-0.322 -0.844,-0.322 -1.166,0 l -0.248,0.248 c -0.322,0.322 -0.322,0.844 0,1.166 l 1.662,1.663 c 0.322,0.321 0.844,0.321 1.166,0 L 1.662,2.828 c 0.322,-0.322 0.322,-0.844 0,-1.166 L 0,0 Z"
                 inkscape:connector-curvature="0" />
            </g>
            <g
               transform="translate(3.8652,8.7979)"
               id="g517">
              <path
                 id="path519"
                 style="fill:#ea596e;fill-opacity:1;fill-rule:nonzero;stroke:none"
                 d="m 0,0 -0.716,0.716 -1.423,1.423 c -0.385,0.385 -1.011,0.385 -1.397,0 L -3.553,2.122 c -0.385,-0.387 -0.385,-1.012 0,-1.397 l 1.423,-1.423 0.715,-0.716 0.699,-0.698 0.699,0.698 L 0,-1.397 0.698,-0.698 0,0 Z"
                 inkscape:connector-curvature="0" />
            </g>
            <g
               transform="translate(10.9277,1.7354)"
               id="g521">
              <path
                 id="path523"
                 style="fill:#ea596e;fill-opacity:1;fill-rule:nonzero;stroke:none"
                 d="m 0,0 -1.44,1.44 -0.682,0.681 -0.707,0.707 -1.414,-1.414 0.707,-0.707 0.681,-0.681 1.44,-1.44 c 0.392,-0.391 1.024,-0.391 1.415,0 0.391,0.391 0.391,1.023 0,1.414"
                 inkscape:connector-curvature="0" />
            </g>
            <g
               transform="translate(7.1191,6.5254)"
               id="g525">
              <path
                 id="path527"
                 style="fill:#be1931;fill-opacity:1;fill-rule:nonzero;stroke:none"
                 d="m 0,0 c -2.047,-2.047 -3.84,-3.573 -4.003,-3.409 -0.164,0.163 1.362,1.956 3.409,4.003 2.048,2.048 3.84,3.574 4.004,3.41 C 3.574,3.84 2.047,2.048 0,0"
                 inkscape:connector-curvature="0" />
            </g>
            <g
               transform="translate(35.1318,12.8271)"
               id="g529">
              <path
                 id="path531"
                 style="fill:#be1931;fill-opacity:1;fill-rule:nonzero;stroke:none"
                 d="m 0,0 -22.329,22.328 c -0.781,0.781 -2.047,0.781 -2.829,0 l -2.535,-2.95 8.226,-10.64 5.9,-5.899 L -2.95,-5.365 0,-2.828 C 0.781,-2.049 0.781,-0.781 0,0"
                 inkscape:connector-curvature="0" />
            </g>
            <g
               transform="translate(16.5249,25.5103)"
               id="g533">
              <path
                 id="path535"
                 style="fill:#ea596e;fill-opacity:1;fill-rule:nonzero;stroke:none"
                 d="M 0,0 -7.981,7.981 -9.086,6.695 -2.205,-2.205 0,0 Z"
                 inkscape:connector-curvature="0" />
            </g>
            <g
               transform="translate(33.4678,8.5674)"
               id="g537">
              <path
                 id="path539"
                 style="fill:#ea596e;fill-opacity:1;fill-rule:nonzero;stroke:none"
                 d="M 0,0 -8.457,8.458 -10.726,6.189 -1.286,-1.105 0,0 Z"
                 inkscape:connector-curvature="0" />
            </g>
          </g>
        </g>
      </g>
    </g>
  </g>
</svg>
