<?xml version="1.0" encoding="UTF-8" standalone="no"?>
<svg
   xmlns:dc="http://purl.org/dc/elements/1.1/"
   xmlns:cc="http://creativecommons.org/ns#"
   xmlns:rdf="http://www.w3.org/1999/02/22-rdf-syntax-ns#"
   xmlns:svg="http://www.w3.org/2000/svg"
   xmlns="http://www.w3.org/2000/svg"
   xmlns:sodipodi="http://sodipodi.sourceforge.net/DTD/sodipodi-0.dtd"
   xmlns:inkscape="http://www.inkscape.org/namespaces/inkscape"
   version="1.1"
   id="svg2"
   viewBox="0 0 200 200"
   height="200px"
   width="200px"
   inkscape:version="0.91 r13725"
   sodipodi:docname="87.svg">
  <metadata
     id="metadata551">
    <rdf:RDF>
      <cc:Work
         rdf:about="">
        <dc:format>image/svg+xml</dc:format>
        <dc:type
           rdf:resource="http://purl.org/dc/dcmitype/StillImage" />
      </cc:Work>
    </rdf:RDF>
  </metadata>
  <sodipodi:namedview
     pagecolor="#ffffff"
     bordercolor="#666666"
     borderopacity="1"
     objecttolerance="10"
     gridtolerance="10"
     guidetolerance="10"
     inkscape:pageopacity="0"
     inkscape:pageshadow="2"
     inkscape:window-width="1920"
     inkscape:window-height="1060"
     id="namedview549"
     showgrid="false"
     inkscape:zoom="4.32"
     inkscape:cx="62.962963"
     inkscape:cy="90.740741"
     inkscape:window-x="0"
     inkscape:window-y="0"
     inkscape:window-maximized="1"
     inkscape:current-layer="layer1" />
  
    
    
    <defs id="defs6">

        <clipPath
           id="clipPath28"
           clipPathUnits="userSpaceOnUse">
          <path
             id="path30"
             d="M 4,36 C 0,36 0,32 0,32 L 0,32 0,4 C 0,0 4,0 4,0 l 0,0 28,0 c 4,0 4,4 4,4 l 0,0 0,28 c 0,4 -4,4 -4,4 l 0,0 -28,0 z" />
        </clipPath>


        <clipPath clipPathUnits="userSpaceOnUse" id="clipPath16-rugby">
            <path d="M 0,38 38,38 38,0 0,0 0,38 Z" id="path18"/>
        </clipPath>
        <clipPath clipPathUnits="userSpaceOnUse" id="clipPath28-rugby">
            <path d="M 9.254,28.746 C 2.09,21.582 -0.927,9.561 3.929,3.929 l 0,0 C 9.561,-0.927 21.582,2.09 28.746,9.254 l 0,0 c 7.164,7.164 11.229,17.088 5.324,24.816 l 0,0 c -1.886,1.627 -4.489,2.371 -7.387,2.37 l 0,0 c -5.752,0 -12.665,-2.93 -17.429,-7.694" id="path30"/>
        </clipPath>

        <clipPath clipPathUnits="userSpaceOnUse" id="clipPath16-carrot">
            <path d="M 0,36 36,36 36,0 0,0 0,36 Z" id="path18"/>
        </clipPath>
        <clipPath clipPathUnits="userSpaceOnUse" id="clipPath32-carrot">
            <path d="M 11.815,23.013 C 4.2,15.397 -1.265,2.86 0.502,1.093 l 0,0 c 1.768,-1.768 14.305,3.698 21.92,11.313 l 0,0 c 7.616,7.615 7.562,11.53 4.243,14.85 l 0,0 c -1.328,1.328 -2.752,2.133 -4.47,2.133 l 0,0 c -2.575,0 -5.812,-1.809 -10.38,-6.376" id="path34"/>
        </clipPath>

        <clipPath clipPathUnits="userSpaceOnUse" id="clipPath32-hat">
            <path d="m 5,33.666 c 0,-0.034 0.018,-0.067 0.022,-0.101 l 0,0 C 5.008,33.455 5,33.335 5,33.2 l 0,0 L 6.802,9.616 C 3.299,8.705 1,7.424 1,6 L 1,6 C 1,3.238 9.611,1 19,1 l 0,0 c 9.389,0 18,2.238 18,5 l 0,0 c 0,1.424 -2.298,2.705 -5.801,3.616 l 0,0 L 33,33.184 c 0,0.135 -0.008,0.263 -0.021,0.373 l 0,0 C 32.982,33.591 33,33.632 33,33.666 l 0,0 c 0,1.805 -6.268,3.267 -14,3.267 l 0,0 c -7.732,0 -14,-1.462 -14,-3.267" id="path34"/>
        </clipPath>


        <clipPath clipPathUnits="userSpaceOnUse" id="clipPath48-soccer">
            <path d="M 1,19 C 1,9.059 9.059,1 19,1 l 0,0 c 9.941,0 18,8.059 18,18 l 0,0 c 0,9.941 -8.059,18 -18,18 l 0,0 C 9.059,37 1,28.941 1,19" id="path50"/>
        </clipPath>

        <clipPath clipPathUnits="userSpaceOnUse" id="clipPath28-baguette">
            <path d="M 24.052,31.33 5.126,12.406 C 1.342,8.62 1.288,4.133 2.856,2.564 l 0,0 C 4.424,0.997 8.912,1.049 12.697,4.835 l 0,0 18.925,18.924 c 3.784,3.785 3.837,8.273 2.269,9.841 l 0,0 c -0.605,0.606 -1.647,0.969 -2.915,0.969 l 0,0 c -2.014,0 -4.602,-0.917 -6.924,-3.239" id="path30"/>
        </clipPath>
    </defs>



  <g
     id="layer1">
    <circle
       style="opacity:1;fill:white;stroke:black;stroke-width:1;stroke-miterlimit:4;stroke-dasharray:none;stroke-opacity:0.1"
       id="path4039-0-9"
       cx="100px"
       cy="100px"
       r="90px" />
    <g
       transform="matrix(-0.2296978,0.80105141,-0.80105141,-0.2296978,134.97015,24.697116)"
       id="g8">
      <g
         transform="matrix(1.25,0,0,-1.25,0,47.5)"
         id="g10">
        <g
           id="g12">
          <g
             clip-path="url(#clipPath16)"
             id="g14">
            <g
               transform="translate(35.5391,3.5117)"
               id="g20">
              <path
                 id="path22"
                 style="fill:#662113;fill-opacity:1;fill-rule:nonzero;stroke:none"
                 d="m 0,0 c 0,0 1.18,-0.215 1.18,-1.256 0,-1.043 -1.042,-1.256 -2.084,-1.256 l -17.72,0 c -2.084,0 -5.915,4 -7.915,4 l -0.592,-4 -6.408,0 0,2.936 c 0,2.084 -0.881,2.285 -0.881,3.211 0,2.084 0.672,4.394 0.672,4.394 l 6.746,-0.31 9.463,-7.231 L 0,0 Z"
                 inkscape:connector-curvature="0" />
            </g>
            <g
               transform="translate(2.668,9.7187)"
               id="g24">
              <path
                 id="path26"
                 style="fill:#c1694f;fill-opacity:1;fill-rule:nonzero;stroke:none"
                 d="m 0,0 c 3.036,-0.731 6.332,-1.719 13.969,-5.379 0,0 2,-1.34 4.363,-1.34 l 14.539,0 c 0,0 1.18,0.257 1.18,2.424 0,1.084 -7.907,3.381 -10.27,4.465 -2.361,1.084 -6.445,6.316 -6.445,6.316 0,0 -0.17,-13.634 -7.258,-6.049 C 2.99,8.025 5.7,6.877 3.337,6.877 2.852,6.877 -0.401,5.57 -1.207,1.838 -1.322,1.305 -0.864,0.209 0,0"
                 inkscape:connector-curvature="0" />
            </g>
            <g
               transform="translate(3,15)"
               id="g28">
              <path
                 id="path18"
                 style="fill:#c1694f;fill-opacity:1;fill-rule:nonzero;stroke:none"
                 d="m 0,0 c 0,0 1,2 1,4 0,2 -1,17 -1,17 0,0 4.917,1 10,1 5.084,0 7,-1 7,-1 0,0 -6,-15 2,-23 2.55,-2.55 -2,-7 -2,-7 0,0 -1,-2 -4,0 C 10,-7 0,0 0,0"
                 inkscape:connector-curvature="0" />
            </g>
            <path
               id="path32"
               style="fill:#d99e82;fill-opacity:1;fill-rule:nonzero;stroke:none"
               d="m 11,17 -2,0 0,20 2,0 0,-20 z"
               inkscape:connector-curvature="0" />
          </g>
        </g>
      </g>
    </g>
    <g
       transform="matrix(0.42261826,0.90630779,-0.90630779,0.42261826,120.10719,95.501294)"
       id="g21">
      <g
         transform="matrix(1.25,0,0,-1.25,-5.4393636,49.30558)"
         id="g23">
        <g
           id="g25">
          <g
             clip-path="url(#clipPath16)"
             id="g27">
            <g
               transform="translate(37,19)"
               id="g29">
              <path
                 id="path31"
                 style="fill:#f5f8fa;fill-opacity:1;fill-rule:nonzero;stroke:none"
                 d="m 0,0 c 0,-9.941 -8.059,-18 -18,-18 -9.941,0 -18,8.059 -18,18 0,9.941 8.059,18 18,18 C -8.059,18 0,9.941 0,0"
                 inkscape:connector-curvature="0" />
            </g>
            <g
               transform="translate(19,26)"
               id="g33">
              <path
                 id="path35"
                 style="fill:#ccd6dd;fill-opacity:1;fill-rule:nonzero;stroke:none"
                 d="m 0,0 c -0.552,0 -1,0.448 -1,1 l 0,7 C -1,8.552 -0.552,9 0,9 0.552,9 1,8.552 1,8 L 1,1 C 1,0.448 0.552,0 0,0"
                 inkscape:connector-curvature="0" />
            </g>
            <g
               transform="translate(12.417,21.4995)"
               id="g37">
              <path
                 id="path39"
                 style="fill:#ccd6dd;fill-opacity:1;fill-rule:nonzero;stroke:none"
                 d="M 0,0 C -0.1,0 -0.202,0.015 -0.302,0.047 L -8.343,2.588 C -8.87,2.755 -9.162,3.317 -8.996,3.843 -8.83,4.37 -8.265,4.662 -7.741,4.496 L 0.301,1.954 C 0.828,1.788 1.12,1.226 0.953,0.699 0.818,0.273 0.424,0 0,0"
                 inkscape:connector-curvature="0" />
            </g>
            <g
               transform="translate(26.042,21.791)"
               id="g32">
              <path
                 id="path34"
                 style="fill:#ccd6dd;fill-opacity:1;fill-rule:nonzero;stroke:none"
                 d="m 0,0 c -0.434,0 -0.833,0.285 -0.96,0.722 -0.154,0.53 0.151,1.085 0.682,1.239 l 6.75,1.958 C 7.003,4.073 7.557,3.767 7.71,3.238 7.864,2.707 7.559,2.152 7.028,1.999 L 0.278,0.04 C 0.186,0.013 0.092,0 0,0"
                 inkscape:connector-curvature="0" />
            </g>
            <g
               transform="translate(28.043,6.833)"
               id="g36">
              <path
                 id="path38"
                 style="fill:#ccd6dd;fill-opacity:1;fill-rule:nonzero;stroke:none"
                 d="m 0,0 c -0.306,0 -0.606,0.14 -0.803,0.403 l -5.459,7.333 c -0.33,0.443 -0.238,1.07 0.205,1.399 0.443,0.331 1.07,0.238 1.399,-0.205 L 0.801,1.597 C 1.131,1.154 1.039,0.527 0.596,0.198 0.417,0.064 0.207,0 0,0"
                 inkscape:connector-curvature="0" />
            </g>
            <g
               transform="translate(9.749,6.916)"
               id="g40">
              <path
                 id="path42"
                 style="fill:#ccd6dd;fill-opacity:1;fill-rule:nonzero;stroke:none"
                 d="M 0,0 C -0.197,0 -0.396,0.058 -0.57,0.179 -1.023,0.494 -1.135,1.117 -0.82,1.57 L 4.305,8.945 C 4.62,9.399 5.243,9.512 5.697,9.196 6.15,8.881 6.262,8.258 5.947,7.805 L 0.822,0.43 C 0.628,0.149 0.316,0 0,0"
                 inkscape:connector-curvature="0" />
            </g>
          </g>
        </g>
        <g
           id="g44">
          <g
             clip-path="url(#clipPath48-soccer)"
             id="g46">
            <g
               transform="translate(4.4995,9.9375)"
               id="g52">
              <path
                 id="path54"
                 style="fill:#ccd6dd;fill-opacity:1;fill-rule:nonzero;stroke:none"
                 d="m 0,0 c -0.44,0 -0.844,0.293 -0.965,0.738 l -2.187,8.063 c -0.145,0.532 0.17,1.082 0.703,1.227 0.535,0.14 1.083,-0.171 1.227,-0.704 L 0.966,1.262 C 1.11,0.729 0.795,0.18 0.262,0.035 0.175,0.011 0.086,0 0,0"
                 inkscape:connector-curvature="0" />
            </g>
            <g
               transform="translate(23,3)"
               id="g56">
              <path
                 id="path58"
                 style="fill:#ccd6dd;fill-opacity:1;fill-rule:nonzero;stroke:none"
                 d="m 0,0 -9,0 c -0.552,0 -1,0.447 -1,1 0,0.553 0.448,1 1,1 L 0,2 C 0.553,2 1,1.553 1,1 1,0.447 0.553,0 0,0"
                 inkscape:connector-curvature="0" />
            </g>
            <g
               transform="translate(33.126,9.875)"
               id="g60">
              <path
                 id="path62"
                 style="fill:#ccd6dd;fill-opacity:1;fill-rule:nonzero;stroke:none"
                 d="m 0,0 c -0.079,0 -0.16,0.009 -0.24,0.029 -0.536,0.132 -0.864,0.674 -0.732,1.21 l 2.125,8.625 c 0.133,0.536 0.679,0.862 1.21,0.732 0.536,-0.132 0.865,-0.674 0.732,-1.21 L 0.97,0.761 C 0.857,0.305 0.449,0 0,0"
                 inkscape:connector-curvature="0" />
            </g>
            <g
               transform="translate(31.3115,29.3125)"
               id="g64">
              <path
                 id="path66"
                 style="fill:#ccd6dd;fill-opacity:1;fill-rule:nonzero;stroke:none"
                 d="m 0,0 c -0.17,0 -0.342,0.043 -0.5,0.134 l -7.563,4.375 c -0.477,0.277 -0.641,0.888 -0.364,1.367 0.276,0.478 0.886,0.643 1.366,0.365 L 0.502,1.866 C 0.979,1.589 1.144,0.978 0.866,0.499 0.682,0.179 0.346,0 0,0"
                 inkscape:connector-curvature="0" />
            </g>
            <g
               transform="translate(6.501,29.3125)"
               id="g68">
              <path
                 id="path70"
                 style="fill:#ccd6dd;fill-opacity:1;fill-rule:nonzero;stroke:none"
                 d="m 0,0 c -0.312,0 -0.618,0.145 -0.813,0.417 -0.322,0.449 -0.22,1.074 0.229,1.395 L 5.604,6.25 C 6.053,6.572 6.677,6.469 6.999,6.021 7.321,5.571 7.218,4.947 6.77,4.625 L 0.582,0.187 C 0.405,0.061 0.202,0 0,0"
                 inkscape:connector-curvature="0" />
            </g>
            <g
               transform="translate(26.4932,23.4839)"
               id="g72">
              <path
                 id="path74"
                 style="fill:#292f33;fill-opacity:1;fill-rule:nonzero;stroke:none"
                 d="M 0,0 -7.208,5.083 C -7.556,5.328 -8.022,5.327 -8.37,5.077 l -7.167,-5.167 c -0.343,-0.247 -0.493,-0.684 -0.375,-1.091 l 2.5,-8.582 c 0.124,-0.427 0.516,-0.721 0.96,-0.721 l 8.959,0 c 0.43,0 0.81,0.275 0.948,0.681 l 2.917,8.667 C 0.513,-0.717 0.361,-0.255 0,0"
                 inkscape:connector-curvature="0" />
            </g>
            <g
               transform="translate(7.7744,31.6323)"
               id="g76">
              <path
                 id="path78"
                 style="fill:#292f33;fill-opacity:1;fill-rule:nonzero;stroke:none"
                 d="m 0,0 c -0.19,0.233 -0.474,0.368 -0.774,0.368 l -3,0 c -0.217,0 -0.427,-0.071 -0.601,-0.201 l -4,-3 c -0.251,-0.188 -0.399,-0.484 -0.399,-0.799 l 0,-7.584 c 0,-0.292 0.128,-0.57 0.35,-0.76 l 2.291,-1.958 c 0.183,-0.156 0.414,-0.24 0.65,-0.24 0.058,0 0.117,0.005 0.175,0.015 0.294,0.052 0.55,0.234 0.697,0.494 l 3.375,6 c 0.05,0.091 0.087,0.189 0.108,0.291 l 1.334,6.542 C 0.266,-0.538 0.19,-0.232 0,0"
                 inkscape:connector-curvature="0" />
            </g>
            <g
               transform="translate(24.7354,38.1484)"
               id="g80">
              <path
                 id="path82"
                 style="fill:#292f33;fill-opacity:1;fill-rule:nonzero;stroke:none"
                 d="m 0,0 c -0.077,0.378 -0.437,0.634 -0.811,0.598 l -10.292,-1.042 c -0.293,-0.03 -0.52,-0.174 -0.614,-0.453 -0.08,-0.174 -0.858,-1.6 -1.384,-2.557 -0.117,-0.213 -0.124,-0.471 -0.017,-0.69 0.106,-0.219 0.313,-0.372 0.553,-0.412 l 6.375,-1.041 c 0.04,-0.007 0.081,-0.01 0.121,-0.01 0.041,0 0.082,0.003 0.122,0.01 l 6.084,1 c 0.2,0.033 0.38,0.146 0.495,0.314 0.116,0.168 0.158,0.375 0.118,0.575 L 0,0 Z"
                 inkscape:connector-curvature="0" />
            </g>
            <g
               transform="translate(38.6973,20.3589)"
               id="g84">
              <path
                 id="path86"
                 style="fill:#292f33;fill-opacity:1;fill-rule:nonzero;stroke:none"
                 d="m 0,0 -4.083,10.333 c -0.106,0.271 -0.36,0.457 -0.65,0.475 l -3.334,0.209 c -0.229,0.013 -0.455,-0.076 -0.61,-0.249 -0.152,-0.173 -0.218,-0.402 -0.175,-0.63 L -7.685,3.94 c 0.017,-0.086 0.048,-0.148 0.093,-0.224 1.492,-2.504 3.153,-5.301 3.381,-5.781 0.024,-0.084 0.063,-0.08 0.114,-0.151 0.141,-0.196 0.372,-0.143 0.613,-0.143 l 0.006,0 c 0.249,0 0.375,-0.155 3.181,1.619 C 0.008,-0.547 0.133,-0.335 0,0"
                 inkscape:connector-curvature="0" />
            </g>
            <g
               transform="translate(15.3491,4.168)"
               id="g88">
              <path
                 id="path90"
                 style="fill:#292f33;fill-opacity:1;fill-rule:nonzero;stroke:none"
                 d="m 0,0 -4.5,5 c -0.06,0.066 -0.131,0.122 -0.211,0.163 -5.885,3.069 -5.994,3.106 -6.066,3.13 -0.077,0.025 -0.16,0.039 -0.241,0.039 -0.677,0 -0.75,-0.092 -1.645,-3.956 -0.012,-0.05 -0.019,-0.102 -0.02,-0.154 l -0.083,-4.125 c -0.005,-0.273 0.138,-0.527 0.374,-0.663 l 7.333,-4.25 c 0.118,-0.069 0.247,-0.102 0.376,-0.102 0.18,0 0.358,0.064 0.498,0.189 l 4.125,3.667 C 0.09,-0.93 0.18,-0.743 0.191,-0.544 0.202,-0.345 0.133,-0.148 0,0"
                 inkscape:connector-curvature="0" />
            </g>
            <g
               transform="translate(34.9941,8.5557)"
               id="g92">
              <path
                 id="path94"
                 style="fill:#292f33;fill-opacity:1;fill-rule:nonzero;stroke:none"
                 d="M 0,0 -1.209,3.209 C -1.282,3.401 -1.431,3.556 -1.62,3.636 -1.81,3.716 -2.025,3.714 -2.212,3.631 L -8.295,0.964 C -8.401,0.918 -8.495,0.848 -8.569,0.759 l -4.25,-5.083 c -0.129,-0.155 -0.191,-0.353 -0.172,-0.552 0.019,-0.2 0.117,-0.384 0.272,-0.51 4.791,-3.92 4.892,-3.92 5.225,-3.92 0.279,0 0.384,0 6.484,3.867 0.183,0.116 0.307,0.304 0.34,0.518 L 0.039,-0.38 C 0.059,-0.252 0.045,-0.121 0,0"
                 inkscape:connector-curvature="0" />
            </g>
          </g>
        </g>
      </g>
    </g>
    <g
       transform="matrix(-0.51749105,0.12902501,-0.12902501,-0.51749105,181.78512,137.34228)"
       id="g71">
      <g
         transform="matrix(1.25,0,0,-1.25,0,47.5)"
         id="g73">
        <g
           id="g75">
          <g
             clip-path="url(#clipPath16)"
             id="g77">
            <g
               transform="translate(36,19)"
               id="g79">
              <path
                 id="path81"
                 style="fill:#ffcc4d;fill-opacity:1;fill-rule:nonzero;stroke:none"
                 d="m 0,0 c 0,-9.389 -7.611,-17 -17,-17 -9.388,0 -17,7.611 -17,17 0,9.388 7.612,17 17,17 C -7.611,17 0,9.388 0,0"
                 inkscape:connector-curvature="0" />
            </g>
            <g
               transform="translate(22,11)"
               id="g83">
              <path
                 id="path85"
                 style="fill:#664500;fill-opacity:1;fill-rule:nonzero;stroke:none"
                 d="m 0,0 c 0,-1.657 -1.343,-3 -3,-3 -1.657,0 -3,1.343 -3,3 0,1.656 1.343,3 3,3 1.657,0 3,-1.344 3,-3"
                 inkscape:connector-curvature="0" />
            </g>
            <g
               transform="translate(18.3125,20.3882)"
               id="g87">
              <path
                 id="path89"
                 style="fill:#664500;fill-opacity:1;fill-rule:nonzero;stroke:none"
                 d="m 0,0 c -0.176,0.143 -0.427,0.147 -0.61,0.014 -0.013,-0.01 -1.261,-0.902 -3.702,-0.902 -2.441,0 -3.69,0.892 -3.701,0.9 -0.182,0.136 -0.434,0.133 -0.611,-0.009 -0.178,-0.142 -0.238,-0.386 -0.146,-0.594 0.061,-0.135 1.5,-3.297 4.458,-3.297 2.958,0 4.397,3.162 4.457,3.297 C 0.236,-0.384 0.176,-0.142 0,0"
                 inkscape:connector-curvature="0" />
            </g>
            <g
               transform="translate(28.3125,20.3882)"
               id="g91">
              <path
                 id="path93"
                 style="fill:#664500;fill-opacity:1;fill-rule:nonzero;stroke:none"
                 d="m 0,0 c -0.176,0.143 -0.426,0.148 -0.61,0.014 -0.012,-0.01 -1.261,-0.902 -3.702,-0.902 -2.441,0 -3.691,0.892 -3.701,0.9 -0.182,0.136 -0.433,0.133 -0.611,-0.009 -0.178,-0.142 -0.238,-0.386 -0.146,-0.594 0.06,-0.135 1.5,-3.297 4.458,-3.297 2.958,0 4.397,3.162 4.457,3.297 C 0.236,-0.384 0.177,-0.142 0,0"
                 inkscape:connector-curvature="0" />
            </g>
            <g
               transform="translate(16.9985,31.8691)"
               id="g95">
              <path
                 id="path97"
                 style="fill:#2a6797;fill-opacity:1;fill-rule:nonzero;stroke:none"
                 d="m 0,0 -2.003,0 c -0.432,0 -0.78,0.276 -0.78,0.756 0,0.479 0.348,0.755 0.78,0.755 l 3.922,0 c 0.156,0 0.563,-0.071 0.563,-0.539 0,-0.228 -0.047,-0.336 -0.179,-0.516 l -2.723,-3.814 2.279,0 c 0.432,0 0.779,-0.276 0.779,-0.756 0,-0.479 -0.347,-0.755 -0.779,-0.755 l -4.018,0 c -0.384,0 -0.708,0.192 -0.708,0.588 0,0.192 0.096,0.371 0.156,0.468 L 0,0 Z"
                 inkscape:connector-curvature="0" />
            </g>
            <g
               transform="translate(24.502,34.687)"
               id="g99">
              <path
                 id="path101"
                 style="fill:#2a6797;fill-opacity:1;fill-rule:nonzero;stroke:none"
                 d="m 0,0 -2.34,0 c -0.504,0 -0.91,0.322 -0.91,0.882 0,0.561 0.406,0.883 0.91,0.883 l 4.58,0 C 2.424,1.765 2.9,1.681 2.9,1.135 2.9,0.869 2.844,0.743 2.689,0.532 l -3.179,-4.454 2.662,0 c 0.504,0 0.91,-0.322 0.91,-0.883 0,-0.56 -0.406,-0.882 -0.91,-0.882 l -4.693,0 c -0.449,0 -0.827,0.224 -0.827,0.687 0,0.224 0.112,0.434 0.182,0.545 L 0,0 Z"
                 inkscape:connector-curvature="0" />
            </g>
            <g
               transform="translate(32.502,31.3101)"
               id="g103">
              <path
                 id="path46"
                 style="fill:#2a6797;fill-opacity:1;fill-rule:nonzero;stroke:none"
                 d="m 0,0 -3.008,0 c -0.648,0 -1.17,0.414 -1.17,1.134 0,0.72 0.522,1.135 1.17,1.135 l 5.889,0 c 0.234,0 0.846,-0.108 0.846,-0.811 0,-0.341 -0.073,-0.504 -0.27,-0.774 l -4.088,-5.726 3.422,0 c 0.647,0 1.17,-0.414 1.17,-1.134 0,-0.72 -0.523,-1.134 -1.17,-1.134 l -6.033,0 c -0.576,0 -1.062,0.288 -1.062,0.882 0,0.288 0.144,0.558 0.234,0.702 L 0,0 Z"
                 inkscape:connector-curvature="0" />
            </g>
          </g>
        </g>
      </g>
    </g>
    <g
       transform="matrix(-0.05813039,0.83130338,-0.83130338,-0.05813039,59.556104,72.147701)"
       id="g106">
      <g
         transform="matrix(1.25,0,0,-1.25,0,47.5)"
         id="g108">
        <g
           id="g110">
          <g
             clip-path="url(#clipPath16)"
             id="g112">
            <g
               transform="translate(6,16)"
               id="g114">
              <path
                 id="path116"
                 style="fill:#d79e84;fill-opacity:1;fill-rule:nonzero;stroke:none"
                 d="M 0,0 C 0,-2.209 -1.119,-4 -2.5,-4 -3.881,-4 -5,-2.209 -5,0 -5,2.209 -3.881,4 -2.5,4 -1.119,4 0,2.209 0,0"
                 inkscape:connector-curvature="0" />
            </g>
            <g
               transform="translate(4,18.4375)"
               id="g118">
              <path
                 id="path120"
                 style="fill:#d79e84;fill-opacity:1;fill-rule:nonzero;stroke:none"
                 d="M 0,0 C 0,8.526 5.373,15.438 12,15.438 18.627,15.438 24,8.526 24,0 24,-8.525 18.627,-15.438 12,-15.438 5.373,-15.438 0,-8.525 0,0"
                 inkscape:connector-curvature="0" />
            </g>
            <g
               transform="translate(21,37)"
               id="g122">
              <path
                 id="path124"
                 style="fill:#dd2e44;fill-opacity:1;fill-rule:nonzero;stroke:none"
                 d="M 0,0 C -0.249,0 -0.478,-0.007 -0.713,-0.012 -0.81,-0.01 -0.903,0 -1,0 c -10,0 -17,-4.582 -17,-9 0,-4.418 6.373,-4 13,-4 4.442,0 7.648,0 9.966,0.086 C 4.978,-12.944 4.988,-12.97 5,-13 l 6,-15 2,0 c 0,0 0.343,3.055 1,7 1,6 0.533,21 -14,21"
                 inkscape:connector-curvature="0" />
            </g>
            <g
               transform="translate(31,16)"
               id="g126">
              <path
                 id="path128"
                 style="fill:#d79e84;fill-opacity:1;fill-rule:nonzero;stroke:none"
                 d="M 0,0 C 0,-2.209 -1.119,-4 -2.5,-4 -3.881,-4 -5,-2.209 -5,0 -5,2.209 -3.881,4 -2.5,4 -1.119,4 0,2.209 0,0"
                 inkscape:connector-curvature="0" />
            </g>
            <g
               transform="translate(11,16)"
               id="g130">
              <path
                 id="path132"
                 style="fill:#662113;fill-opacity:1;fill-rule:nonzero;stroke:none"
                 d="m 0,0 c -0.552,0 -1,0.447 -1,1 l 0,2 C -1,3.552 -0.552,4 0,4 0.552,4 1,3.552 1,3 L 1,1 C 1,0.447 0.552,0 0,0"
                 inkscape:connector-curvature="0" />
            </g>
            <g
               transform="translate(21,16)"
               id="g134">
              <path
                 id="path136"
                 style="fill:#662113;fill-opacity:1;fill-rule:nonzero;stroke:none"
                 d="m 0,0 c -0.553,0 -1,0.447 -1,1 l 0,2 C -1,3.552 -0.553,4 0,4 0.553,4 1,3.552 1,3 L 1,1 C 1,0.447 0.553,0 0,0"
                 inkscape:connector-curvature="0" />
            </g>
            <g
               transform="translate(17,11)"
               id="g138">
              <path
                 id="path140"
                 style="fill:#b7755e;fill-opacity:1;fill-rule:nonzero;stroke:none"
                 d="m 0,0 -2,0 c -0.552,0 -1,0.447 -1,1 0,0.553 0.448,1 1,1 L 0,2 C 0.552,2 1,1.553 1,1 1,0.447 0.552,0 0,0"
                 inkscape:connector-curvature="0" />
            </g>
            <g
               transform="translate(28,12)"
               id="g48">
              <path
                 id="path50"
                 style="fill:#e6e7e8;fill-opacity:1;fill-rule:nonzero;stroke:none"
                 d="m 0,0 c 0,2 -2.293,0.707 -3,0 -1,-1 -3,-3 -5,-2 -2.828,1.414 -4,1 -4,1 0,0 -1.171,0.414 -4,-1 -2,-1 -4,1 -5,2 -0.707,0.707 -3,2 -3,0 0,-2 1,-2 1,-2 -1,-2 1,-3 1,-3 0,-3 3,-3 3,-3 0,-3 4,-2 4,-2 1,-1 3,-1 3,-1 0,0 2,0 3,1 0,0 4,-1 4,2 0,0 3,0 3,3 0,0 2,1 1,3 0,0 1,0 1,2"
                 inkscape:connector-curvature="0" />
            </g>
            <g
               transform="translate(16,9)"
               id="g144">
              <path
                 id="path146"
                 style="fill:#d99e82;fill-opacity:1;fill-rule:nonzero;stroke:none"
                 d="m 0,0 c 7,0 4,-2 0,-2 -4,0 -7,2 0,2"
                 inkscape:connector-curvature="0" />
            </g>
            <g
               transform="translate(2,23)"
               id="g148">
              <path
                 id="path150"
                 style="fill:#d1d3d4;fill-opacity:1;fill-rule:nonzero;stroke:none"
                 d="M 0,0 C 0,2.209 0.896,4 2,4 3.104,4 4,2.209 4,0 4,-2.209 3.104,-4 2,-4 0.896,-4 0,-2.209 0,0"
                 inkscape:connector-curvature="0" />
            </g>
            <g
               transform="translate(25,23)"
               id="g152">
              <path
                 id="path154"
                 style="fill:#d1d3d4;fill-opacity:1;fill-rule:nonzero;stroke:none"
                 d="M 0,0 C 0,2.209 0.896,4 2,4 3.104,4 4,2.209 4,0 4,-2.209 3.104,-4 2,-4 0.896,-4 0,-2.209 0,0"
                 inkscape:connector-curvature="0" />
            </g>
            <g
               transform="translate(29,8)"
               id="g156">
              <path
                 id="path158"
                 style="fill:#f1f2f2;fill-opacity:1;fill-rule:nonzero;stroke:none"
                 d="M 0,0 C 0,-2.209 1.791,-4 4,-4 6.209,-4 8,-2.209 8,0 8,2.209 6.209,4 4,4 1.791,4 0,2.209 0,0"
                 inkscape:connector-curvature="0" />
            </g>
            <g
               transform="translate(30,25)"
               id="g160">
              <path
                 id="path162"
                 style="fill:#f1f2f2;fill-opacity:1;fill-rule:nonzero;stroke:none"
                 d="m 0,0 c 0,-1.104 -0.896,-2 -2,-2 l -25,0 c -1.104,0 -2,0.896 -2,2 l 0,1 c 0,1.104 0.896,2 2,2 L -2,3 C -0.896,3 0,2.104 0,1 L 0,0 Z"
                 inkscape:connector-curvature="0" />
            </g>
          </g>
        </g>
      </g>
    </g>
    <g
       transform="matrix(-0.7917394,-0.35250509,0.35250509,-0.7917394,72.796577,80.109787)"
       id="g164">
      <g
         transform="matrix(1.25,0,0,-1.25,0,47.5)"
         id="g166">
        <g
           id="g168">
          <g
             clip-path="url(#clipPath16)"
             id="g170">
            <g
               transform="translate(31.1982,9.6152)"
               id="g172">
              <path
                 id="path174"
                 style="fill:#292f33;fill-opacity:1;fill-rule:nonzero;stroke:none"
                 d="m 0,0 1.802,23.568 c 0,0.136 -0.008,0.264 -0.022,0.373 0.004,0.034 0.022,0.076 0.022,0.11 0,1.804 -6.269,3.267 -14,3.267 -7.732,0 -14,-1.463 -14,-3.267 0,-0.034 0.017,-0.068 0.022,-0.102 -0.014,-0.109 -0.022,-0.229 -0.022,-0.364 L -24.396,0 c -3.504,-0.91 -5.802,-2.191 -5.802,-3.615 0,-2.762 8.611,-5 18,-5 9.388,0 18,2.238 18,5 C 5.802,-2.191 3.504,-0.91 0,0"
                 inkscape:connector-curvature="0" />
            </g>
            <g
               transform="translate(18.5356,30.4048)"
               id="g176">
              <path
                 id="path178"
                 style="fill:#66757f;fill-opacity:1;fill-rule:nonzero;stroke:none"
                 d="m 0,0 c -4.89,0 -8.602,0.896 -10.852,1.646 -0.524,0.175 -0.807,0.742 -0.632,1.266 0.174,0.523 0.738,0.807 1.265,0.632 C -7.33,2.581 0.543,0.653 11.202,3.56 11.731,3.702 12.284,3.392 12.429,2.858 12.575,2.326 12.26,1.776 11.727,1.63 7.321,0.429 3.379,0 0,0"
                 inkscape:connector-curvature="0" />
            </g>
          </g>
        </g>
        <g
           id="g180">
          <g
             clip-path="url(#clipPath32-hat)"
             id="g30">
            <g
               transform="translate(9.6045,6.208)"
               id="g183">
              <path
                 id="path185"
                 style="fill:#744eaa;fill-opacity:1;fill-rule:nonzero;stroke:none"
                 d="m 0,0 c 4.458,-1.708 13.958,-1.646 18.807,-0.149 1.466,0.453 2.776,1.733 2.776,3.191 0,3.256 3.742,7.25 2.271,6.75 -8.271,-2.813 -19.771,-3 -28.25,0.208 -9.995,3.782 0.125,-2.625 0.792,-3.875 0.4,-0.751 0.833,-1.347 0.833,-2.729 C -2.771,1.646 -1.482,0.567 0,0"
                 inkscape:connector-curvature="0" />
            </g>
          </g>
        </g>
      </g>
    </g>
    <g
       transform="matrix(0.37460659,0.92718385,-0.92718385,0.37460659,65.881252,100.59351)"
       id="g187">
      <g
         transform="matrix(1.25,0,0,-1.25,0,47.5)"
         id="g189">
        <g
           id="g191">
          <g
             clip-path="url(#clipPath16)"
             id="g193">
            <g
               transform="translate(36,19)"
               id="g195">
              <path
                 id="path197"
                 style="fill:#ffcc4d;fill-opacity:1;fill-rule:nonzero;stroke:none"
                 d="m 0,0 c 0,-9.389 -7.611,-17 -17,-17 -9.388,0 -17,7.611 -17,17 0,9.388 7.612,17 17,17 C -7.611,17 0,9.388 0,0"
                 inkscape:connector-curvature="0" />
            </g>
            <g
               transform="translate(17.6641,26.457)"
               id="g199">
              <path
                 id="path201"
                 style="fill:#664500;fill-opacity:1;fill-rule:nonzero;stroke:none"
                 d="m 0,0 c -0.207,0.09 -0.451,0.03 -0.592,-0.148 -0.01,-0.012 -0.979,-1.202 -3.335,-1.844 -0.775,-0.212 -1.531,-0.319 -2.244,-0.319 -0.993,0 -1.559,0.212 -1.562,0.213 -0.21,0.084 -0.453,0.014 -0.587,-0.17 -0.135,-0.184 -0.128,-0.435 0.016,-0.611 0.071,-0.088 1.779,-2.148 4.124,-2.148 0.351,0 0.702,0.048 1.043,0.14 2.854,0.779 3.41,4.209 3.432,4.354 C 0.329,-0.309 0.207,-0.091 0,0"
                 inkscape:connector-curvature="0" />
            </g>
            <g
               transform="translate(28.6387,24.3022)"
               id="g203">
              <path
                 id="path205"
                 style="fill:#664500;fill-opacity:1;fill-rule:nonzero;stroke:none"
                 d="m 0,0 c -0.138,0.181 -0.38,0.245 -0.59,0.159 -0.006,-0.003 -0.633,-0.256 -1.737,-0.256 -0.661,0 -1.359,0.09 -2.073,0.266 C -6.77,0.751 -7.77,1.917 -7.777,1.927 -7.923,2.103 -8.165,2.16 -8.373,2.064 -8.58,1.969 -8.696,1.746 -8.656,1.522 c 0.026,-0.145 0.668,-3.56 3.539,-4.267 0.31,-0.076 0.629,-0.115 0.946,-0.115 2.397,0 4.099,2.159 4.17,2.252 C 0.138,-0.43 0.137,-0.18 0,0"
                 inkscape:connector-curvature="0" />
            </g>
            <g
               transform="translate(10.9985,27)"
               id="g207">
              <path
                 id="path209"
                 style="fill:#664500;fill-opacity:1;fill-rule:nonzero;stroke:none"
                 d="m 0,0 c -0.448,0 -0.855,0.303 -0.969,0.757 -0.134,0.535 0.19,1.077 0.724,1.212 0.036,0.01 3.593,0.962 5.352,4.478 C 5.354,6.941 5.953,7.143 6.449,6.895 6.943,6.648 7.143,6.047 6.896,5.553 4.715,1.191 0.425,0.075 0.244,0.03 0.162,0.009 0.081,0 0,0"
                 inkscape:connector-curvature="0" />
            </g>
            <g
               transform="translate(27,27)"
               id="g211">
              <path
                 id="path213"
                 style="fill:#664500;fill-opacity:1;fill-rule:nonzero;stroke:none"
                 d="m 0,0 c -0.08,0 -0.161,0.01 -0.242,0.03 -0.182,0.045 -4.472,1.161 -6.653,5.523 -0.247,0.494 -0.046,1.095 0.448,1.342 0.493,0.247 1.093,0.046 1.342,-0.448 C -3.348,2.93 0.21,1.979 0.246,1.969 0.779,1.832 1.104,1.289 0.968,0.754 0.853,0.302 0.447,0 0,0"
                 inkscape:connector-curvature="0" />
            </g>
            <g
               transform="translate(19,8.0352)"
               id="g215">
              <path
                 id="path217"
                 style="fill:#664500;fill-opacity:1;fill-rule:nonzero;stroke:none"
                 d="m 0,0 c -3.623,0 -6.027,-0.422 -9,-1 -0.679,-0.131 -2,0 -2,2 0,4 4.595,9 11,9 C 6.404,10 11,5 11,1 11,-1 9.679,-1.132 9,-1 6.027,-0.422 3.623,0 0,0"
                 inkscape:connector-curvature="0" />
            </g>
            <g
               transform="translate(10.9995,12)"
               id="g219">
              <path
                 id="path221"
                 style="fill:#ffffff;fill-opacity:1;fill-rule:nonzero;stroke:none"
                 d="m 0,0 c 0,0 3,1 8,1 5.001,0 8.001,-1 8.001,-1 0,0 -2,4 -8.001,4 C 2,4 0,0 0,0"
                 inkscape:connector-curvature="0" />
            </g>
          </g>
        </g>
      </g>
    </g>
    <g
       transform="matrix(-0.62986387,-0.06620136,0.06620136,-0.62986387,149.02582,158.49501)"
       id="g223">
      <g
         transform="matrix(1.25,0,0,-1.25,0,45)"
         id="g225">
        <g
           id="g227">
          <g
             clip-path="url(#clipPath16)"
             id="g229">
            <g
               transform="translate(33.2031,22.6992)"
               id="g231">
              <path
                 id="path233"
                 style="fill:#e1e8ed;fill-opacity:1;fill-rule:nonzero;stroke:none"
                 d="m 0,0 -21.213,-21.214 -10.607,10.607 21.214,21.213 c 1.952,1.953 5.91,1.161 8.838,-1.768 C 1.161,5.909 1.952,1.952 0,0"
                 inkscape:connector-curvature="0" />
            </g>
          </g>
        </g>
        <g
           id="g235">
          <g
             clip-path="url(#clipPath28)"
             id="g26">
            <g
               transform="translate(1.3828,12.0918)"
               id="g238">
              <path
                 id="path240"
                 style="fill:#99aab5;fill-opacity:1;fill-rule:nonzero;stroke:none"
                 d="M 0,0 24.749,24.749 30.305,19.193 5.556,-5.556 0,0 Z"
                 inkscape:connector-curvature="0" />
            </g>
          </g>
        </g>
        <g
           id="g242">
          <g
             clip-path="url(#clipPath40)"
             id="g38">
            <g
               transform="translate(10.2217,10.3242)"
               id="g245">
              <path
                 id="path247"
                 style="fill:#66757f;fill-opacity:1;fill-rule:nonzero;stroke:none"
                 d="M 0,0 C -2.928,2.929 -6.886,3.721 -8.839,1.768 -10.792,-0.186 -10,-4.143 -7.071,-7.07 -4.142,-10 -0.185,-10.791 1.768,-8.839 3.721,-6.886 2.929,-2.93 0,0"
                 inkscape:connector-curvature="0" />
            </g>
            <g
               transform="translate(31.6797,31.2764)"
               id="g249">
              <path
                 id="path251"
                 style="fill:#ccd6dd;fill-opacity:1;fill-rule:nonzero;stroke:none"
                 d="M 0,0 C 2.722,-2.898 3.419,-6.682 1.523,-8.577 L -19.69,-29.791 c 1.953,1.953 1.161,5.909 -1.768,8.839 l -3.889,3.889 L -4.134,4.15 0.008,0.009 0,0 Z"
                 inkscape:connector-curvature="0" />
            </g>
            <g
               transform="translate(33.0938,32.6904)"
               id="g253">
              <path
                 id="path255"
                 style="fill:#e1e8ed;fill-opacity:1;fill-rule:nonzero;stroke:none"
                 d="M 0,0 C 2.722,-2.898 3.42,-6.682 1.523,-8.577 L -19.69,-29.79 c 1.953,1.952 1.162,5.909 -1.768,8.838 l -2.475,2.475 L -2.72,2.736 0.008,0.009 0,0 Z"
                 inkscape:connector-curvature="0" />
            </g>
            <g
               transform="translate(2.2104,10.9971)"
               id="g257">
              <path
                 id="path259"
                 style="fill:#99aab5;fill-opacity:1;fill-rule:nonzero;stroke:none"
                 d="m 0,0 c -1.402,-1.401 -0.838,-4.371 1.281,-6.759 1.916,-2.158 4.948,-4.008 7.187,-2.123 0.761,0.633 1.163,1.608 1.146,2.735 -0.028,1.974 -1.298,4.193 -3.313,5.79 -0.324,0.258 -0.788,0.2 -1.054,-0.121 C 4.99,-0.803 5.044,-1.274 5.369,-1.531 7.015,-2.836 8.093,-4.657 8.114,-6.169 8.121,-6.643 8.02,-7.299 7.502,-7.735 c -1.513,-1.274 -3.917,0.64 -5.099,1.97 -1.675,1.888 -2.052,3.994 -1.342,4.704 0.183,0.184 0.411,0.232 0.695,0.148 0.877,-0.262 2,-1.662 2.534,-4.205 0.085,-0.406 0.483,-0.666 0.888,-0.581 0.405,0.086 0.665,0.483 0.579,0.888 C 5.168,-2.001 3.799,0.042 2.185,0.524 1.371,0.767 0.576,0.575 0,0"
                 inkscape:connector-curvature="0" />
            </g>
            <g
               transform="translate(28.4316,31.7139)"
               id="g261">
              <path
                 id="path263"
                 style="fill:#99aab5;fill-opacity:1;fill-rule:nonzero;stroke:none"
                 d="M 0,0 C -0.02,-0.019 -0.038,-0.038 -0.055,-0.06 -0.315,-0.382 -0.264,-0.854 0.058,-1.114 0.089,-1.139 3.157,-3.653 3.314,-6.931 3.335,-7.344 3.688,-7.663 4.1,-7.643 4.515,-7.622 4.833,-7.27 4.814,-6.857 4.623,-2.897 1.146,-0.063 0.997,0.055 0.696,0.297 0.267,0.268 0,0"
                 inkscape:connector-curvature="0" />
            </g>
            <g
               transform="translate(26.3096,29.5928)"
               id="g265">
              <path
                 id="path267"
                 style="fill:#99aab5;fill-opacity:1;fill-rule:nonzero;stroke:none"
                 d="M 0,0 C -0.019,-0.019 -0.037,-0.038 -0.055,-0.06 -0.314,-0.382 -0.263,-0.854 0.059,-1.114 0.09,-1.139 3.158,-3.653 3.315,-6.931 3.336,-7.345 3.688,-7.663 4.101,-7.643 4.515,-7.622 4.833,-7.271 4.814,-6.857 4.623,-2.898 1.146,-0.064 0.998,0.055 0.697,0.297 0.268,0.268 0,0"
                 inkscape:connector-curvature="0" />
            </g>
            <g
               transform="translate(17.8242,21.1074)"
               id="g269">
              <path
                 id="path271"
                 style="fill:#99aab5;fill-opacity:1;fill-rule:nonzero;stroke:none"
                 d="m 0,0 c -0.019,-0.019 -0.037,-0.038 -0.054,-0.06 -0.26,-0.322 -0.209,-0.794 0.113,-1.054 0.031,-0.025 3.099,-2.539 3.256,-5.817 0.021,-0.413 0.373,-0.732 0.786,-0.712 0.414,0.022 0.732,0.372 0.713,0.786 C 4.623,-2.898 1.146,-0.064 0.998,0.055 0.697,0.297 0.268,0.268 0,0"
                 inkscape:connector-curvature="0" />
            </g>
            <g
               transform="translate(12.875,16.1582)"
               id="g273">
              <path
                 id="path275"
                 style="fill:#99aab5;fill-opacity:1;fill-rule:nonzero;stroke:none"
                 d="m 0,0 c -0.019,-0.02 -0.038,-0.039 -0.055,-0.061 -0.26,-0.322 -0.208,-0.794 0.113,-1.054 0.032,-0.025 3.1,-2.539 3.257,-5.817 0.02,-0.413 0.373,-0.732 0.786,-0.711 0.414,0.02 0.732,0.372 0.713,0.786 C 4.623,-2.898 1.146,-0.064 0.998,0.055 0.697,0.296 0.267,0.268 0,0"
                 inkscape:connector-curvature="0" />
            </g>
            <g
               transform="translate(24.7754,16.4609)"
               id="g277">
              <path
                 id="path279"
                 style="fill:#5dadec;fill-opacity:1;fill-rule:nonzero;stroke:none"
                 d="M 0,0 C 1.296,1.348 3.49,3.383 3.756,3.661 4.369,4.303 2.215,9.133 0.454,10.515 0.068,10.817 -0.405,10.572 -0.608,10.364 -2.104,8.833 -3.291,7.645 -4.285,6.656 -4.517,6.426 -4.65,6.005 -4.324,5.704 -3.257,4.72 -1.338,2.28 -0.796,0.041 -0.732,-0.219 -0.269,-0.281 0,0"
                 inkscape:connector-curvature="0" />
            </g>
          </g>
        </g>
      </g>
    </g>
    <g
       transform="matrix(-0.19405091,-0.91293776,0.91293776,-0.19405091,89.622388,91.911264)"
       id="g281">
      <g
         transform="matrix(1.25,0,0,-1.25,0,45)"
         id="g283">
        <g
           id="g285">
          <g
             clip-path="url(#clipPath16)"
             id="g287">
            <g
               transform="translate(26,8)"
               id="g289">
              <path
                 id="path291"
                 style="fill:#4289c1;fill-opacity:1;fill-rule:nonzero;stroke:none"
                 d="m 0,0 -16,0 c -2.484,0 -4.615,-1.51 -5.527,-3.661 C -21.893,-3.258 -22.416,-3 -23,-3 c -1.1,0 -2,-0.9 -2,-2 l 0,-3 31,0 0,2 C 6,-2.687 3.313,0 0,0"
                 inkscape:connector-curvature="0" />
            </g>
            <g
               transform="translate(14,9)"
               id="g293">
              <path
                 id="path295"
                 style="fill:#2a6797;fill-opacity:1;fill-rule:nonzero;stroke:none"
                 d="M 0,0 8,0 C 8,0 9,-9 4,-9 -1,-9 0,0 0,0"
                 inkscape:connector-curvature="0" />
            </g>
            <g
               transform="translate(33,16.9756)"
               id="g297">
              <path
                 id="path299"
                 style="fill:#292f33;fill-opacity:1;fill-rule:nonzero;stroke:none"
                 d="m 0,0 c 0,-1.949 -6.716,-3.529 -15,-3.529 -8.284,0 -15,1.58 -15,3.529 0,1.949 6.716,3.529 15,3.529 8.284,0 15,-1.58 15,-3.529"
                 inkscape:connector-curvature="0" />
            </g>
            <g
               transform="translate(26.3395,18.4366)"
               id="g301">
              <path
                 id="path303"
                 style="fill:#ffdc5d;fill-opacity:1;fill-rule:nonzero;stroke:none"
                 d="m 0,0 c -0.809,3.6 -4.235,8.65 -8.339,8.65 -4.105,0 -7.531,-5.05 -8.34,-8.65 -0.836,-0.048 -1.494,-0.52 -1.494,-1.889 0,-1.448 0.734,-2.622 1.639,-2.622 0.015,0 0.028,0.006 0.043,0.007 1.064,-4.376 4.31,-8.013 8.152,-8.013 3.842,0 7.088,3.637 8.151,8.013 0.015,-0.001 0.028,-0.007 0.043,-0.007 0.905,0 1.639,1.174 1.639,2.622 C 1.494,-0.52 0.836,-0.048 0,0"
                 inkscape:connector-curvature="0" />
            </g>
            <g
               transform="translate(14,15.2914)"
               id="g305">
              <path
                 id="path307"
                 style="fill:#662113;fill-opacity:1;fill-rule:nonzero;stroke:none"
                 d="m 0,0 0,0 c -0.55,0 -1,0.45 -1,1 l 0,1 c 0,0.55 0.45,1 1,1 L 0,3 C 0.55,3 1,2.55 1,2 L 1,1 C 1,0.45 0.55,0 0,0"
                 inkscape:connector-curvature="0" />
            </g>
            <g
               transform="translate(22,15.2914)"
               id="g309">
              <path
                 id="path311"
                 style="fill:#662113;fill-opacity:1;fill-rule:nonzero;stroke:none"
                 d="m 0,0 0,0 c -0.55,0 -1,0.45 -1,1 l 0,1 c 0,0.55 0.45,1 1,1 L 0,3 C 0.55,3 1,2.55 1,2 L 1,1 C 1,0.45 0.55,0 0,0"
                 inkscape:connector-curvature="0" />
            </g>
            <g
               transform="translate(18.75,14.1758)"
               id="g313">
              <path
                 id="path315"
                 style="fill:#c1694f;fill-opacity:1;fill-rule:nonzero;stroke:none"
                 d="m 0,0 -1.5,0 c -0.413,0 -0.75,0.337 -0.75,0.75 l 0,0 c 0,0.412 0.337,0.75 0.75,0.75 l 1.5,0 c 0.413,0 0.75,-0.338 0.75,-0.75 l 0,0 C 0.75,0.337 0.413,0 0,0"
                 inkscape:connector-curvature="0" />
            </g>
            <g
               transform="translate(20.1667,10.9674)"
               id="g317">
              <path
                 id="path319"
                 style="fill:#c1694f;fill-opacity:1;fill-rule:nonzero;stroke:none"
                 d="m 0,0 -4.333,0 c -0.413,0 -0.75,0.338 -0.75,0.75 l 0,0.331 c 0,0.412 0.337,0.75 0.75,0.75 l 4.333,0 c 0.413,0 0.75,-0.338 0.75,-0.75 l 0,-0.331 C 0.75,0.338 0.413,0 0,0"
                 inkscape:connector-curvature="0" />
            </g>
            <g
               transform="translate(20.6667,10.1295)"
               id="g321">
              <path
                 id="path323"
                 style="fill:#e6e7e8;fill-opacity:1;fill-rule:nonzero;stroke:none"
                 d="m 0,0 c -1.885,1.289 -2.667,0.911 -2.667,0.911 0,0 -0.781,0.378 -2.666,-0.911 -1.013,-0.692 -2.025,0.192 -2.745,1.057 0.748,0.276 1.684,0.623 2.675,0.819 1.83,-0.03 2.534,0.225 2.7,0.599 C -2.536,2.111 -1.828,1.877 -0.002,1.869 1.011,1.668 1.968,1.309 2.724,1.032 2.005,0.175 1.002,-0.685 0,0 M 5.757,8.024 C 5.95,8.116 6.105,8.248 6.206,8.423 6.621,9.141 5.987,10.282 4.791,10.972 3.596,11.663 2.291,11.641 1.876,10.923 1.462,10.206 2.096,9.065 3.291,8.374 3.81,8.075 4.345,7.918 4.823,7.885 4.531,7.361 4.333,6.412 4.333,5.317 4.333,4.254 4.519,3.326 4.796,2.793 4.388,2.809 3.843,2.397 3.506,2.029 2.797,2.768 1.665,3.578 0.386,3.831 -1.666,4.237 -2.515,3.445 -2.702,2.898 -2.884,3.445 -3.731,4.246 -5.792,3.838 -7.051,3.589 -8.166,2.8 -8.877,2.071 c -0.339,0.356 -0.86,0.737 -1.253,0.722 0.278,0.533 0.463,1.461 0.463,2.524 0,1.101 -0.2,2.053 -0.494,2.575 0.566,-0.064 1.274,0.091 1.952,0.482 1.196,0.691 1.83,1.832 1.415,2.549 -0.414,0.718 -1.719,0.74 -2.915,0.049 -1.195,-0.69 -1.829,-1.831 -1.415,-2.549 0.051,-0.087 0.115,-0.162 0.189,-0.229 -0.421,-0.353 -0.732,-1.501 -0.732,-2.877 0,-1.657 0.448,-3 1,-3 0.02,0 0.039,0.014 0.059,0.018 C -10.644,2.199 -10.667,2.033 -10.667,1.823 -10.667,0 -10,0 -10,0 c -0.667,-1.823 0.667,-3.66 0.667,-3.66 0,-2.735 2,-2.735 2,-2.735 0,-2.735 2.666,-1.823 2.666,-1.823 0.667,-0.912 2,-0.912 2,-0.912 0,0 1.334,0 2,0.912 0,0 2.667,-0.912 2.667,1.823 0,0 2,0 2,2.735 0,0 1.333,1.837 0.667,3.66 0,0 0.666,0 0.666,1.823 0,0.21 -0.022,0.376 -0.058,0.512 0.019,-0.004 0.038,-0.018 0.058,-0.018 0.553,0 1,1.343 1,3 0,1.2 -0.236,2.227 -0.576,2.707"
                 inkscape:connector-curvature="0" />
            </g>
            <g
               transform="translate(25.7654,20.8431)"
               id="g325">
              <path
                 id="path327"
                 style="fill:#4289c1;fill-opacity:1;fill-rule:nonzero;stroke:none"
                 d="m 0,0 c -1.228,2.686 -6.972,15.157 -7.765,15.157 -0.794,0 -6.538,-12.471 -7.766,-15.157 -4.819,-0.844 -7.234,-2.438 -7.234,-3.843 6,2 11,2.443 15,2.443 4,0 9,-0.443 15,-2.443 C 7.235,-2.438 4.819,-0.844 0,0"
                 inkscape:connector-curvature="0" />
            </g>
            <g
               transform="translate(5,0)"
               id="g329">
              <path
                 id="path331"
                 style="fill:#d99e82;fill-opacity:1;fill-rule:nonzero;stroke:none"
                 d="M 0,0 -2,0 -2,24.138 -3,28 1,28 0,24.138 0,0 Z"
                 inkscape:connector-curvature="0" />
            </g>
            <g
               transform="translate(7,30)"
               id="g333">
              <path
                 id="path335"
                 style="fill:#55acee;fill-opacity:1;fill-rule:nonzero;stroke:none"
                 d="m 0,0 c 0,-1.657 -1.343,-3 -3,-3 -1.657,0 -3,1.343 -3,3 0,1.657 1.343,3 3,3 1.657,0 3,-1.343 3,-3"
                 inkscape:connector-curvature="0" />
            </g>
            <g
               transform="translate(5,30.5)"
               id="g337">
              <path
                 id="path339"
                 style="fill:#b0f0ff;fill-opacity:1;fill-rule:nonzero;stroke:none"
                 d="M 0,0 C 0,-0.828 -0.672,-1.5 -1.5,-1.5 -2.328,-1.5 -3,-0.828 -3,0 -3,0.828 -2.328,1.5 -1.5,1.5 -0.672,1.5 0,0.828 0,0"
                 inkscape:connector-curvature="0" />
            </g>
            <g
               transform="translate(7,5.5)"
               id="g341">
              <path
                 id="path343"
                 style="fill:#ffdc5d;fill-opacity:1;fill-rule:nonzero;stroke:none"
                 d="m 0,0 c 0,-1.933 -1.343,-3.5 -3,-3.5 -1.657,0 -3,1.567 -3,3.5 0,1.933 1.343,2.5 3,2.5 1.657,0 3,-0.567 3,-2.5"
                 inkscape:connector-curvature="0" />
            </g>
          </g>
        </g>
      </g>
    </g>
    <g
       transform="matrix(0.08715574,0.9961947,-0.9961947,0.08715574,175.86706,72.29604)"
       id="g345">
      <g
         transform="matrix(1.25,0,0,-1.25,0,47.5)"
         id="g347">
        <g
           id="g349">
          <g
             clip-path="url(#clipPath16)"
             id="g351">
            <g
               transform="translate(36.0664,1.9336)"
               id="g353">
              <path
                 id="path355"
                 style="fill:#ffac33;fill-opacity:1;fill-rule:nonzero;stroke:none"
                 d="m 0,0 c -0.766,-0.766 -2.006,-0.766 -2.771,0 l -20.097,20.096 c -0.766,0.766 -0.766,2.008 0,2.773 0.765,0.765 2.007,0.765 2.772,0 L 0,2.771 C 0.766,2.008 0.766,0.766 0,0"
                 inkscape:connector-curvature="0" />
            </g>
            <g
               transform="translate(28.7998,22.9199)"
               id="g357">
              <path
                 id="path359"
                 style="fill:#dd2e44;fill-opacity:1;fill-rule:nonzero;stroke:none"
                 d="m 0,0 c 0,-7.576 -6.142,-13.72 -13.72,-13.72 -7.577,0 -13.719,6.144 -13.719,13.72 0,7.578 6.142,13.72 13.719,13.72 C -6.142,13.72 0,7.578 0,0"
                 inkscape:connector-curvature="0" />
            </g>
            <g
               transform="translate(17.0859,22.1724)"
               id="g361">
              <path
                 id="path363"
                 style="fill:#f4900c;fill-opacity:1;fill-rule:nonzero;stroke:none"
                 d="m 0,0 c 0.161,0.086 0.288,0.211 0.376,0.356 -0.071,-0.565 -0.406,-1.09 -0.946,-1.378 -0.297,-0.158 -0.637,-0.19 -0.957,-0.093 -0.321,0.098 -0.585,0.314 -0.743,0.611 -0.209,0.393 -0.06,0.884 0.333,1.094 0.067,0.036 0.14,0.053 0.212,0.053 0.161,0 0.318,-0.087 0.399,-0.239 C -1.071,-0.074 -0.478,-0.256 0,0 m 1.325,-12.548 c -1.459,-0.092 -2.938,0.065 -4.379,0.503 -3.155,0.961 -5.748,3.092 -7.3,6.003 -1.217,2.282 -1.473,4.901 -0.719,7.375 0.752,2.474 2.424,4.508 4.706,5.724 1.781,0.95 3.822,1.15 5.752,0.561 C 1.314,7.032 2.899,5.728 3.848,3.948 4.582,2.571 4.736,0.99 4.281,-0.503 3.827,-1.997 2.819,-3.224 1.441,-3.959 0.385,-4.521 -0.826,-4.641 -1.971,-4.292 c -1.144,0.348 -2.085,1.123 -2.648,2.178 -0.879,1.648 -0.253,3.704 1.395,4.583 0.593,0.317 1.272,0.384 1.915,0.187 0.231,-0.07 0.447,-0.171 0.644,-0.3 -0.672,0.328 -1.486,0.34 -2.194,-0.037 -1.347,-0.718 -1.858,-2.399 -1.14,-3.746 0.404,-0.758 1.079,-1.313 1.901,-1.564 0.822,-0.25 1.692,-0.165 2.45,0.24 1.836,0.98 2.534,3.271 1.555,5.107 -0.562,1.055 -1.502,1.828 -2.645,2.175 -1.143,0.348 -2.353,0.23 -3.408,-0.332 -2.602,-1.388 -3.59,-4.633 -2.202,-7.236 0.809,-1.517 2.161,-2.629 3.806,-3.13 1.646,-0.5 3.388,-0.33 4.906,0.479 1.839,0.98 3.187,2.62 3.794,4.614 0.606,1.994 0.4,4.105 -0.58,5.945 -1.195,2.241 -3.193,3.883 -5.622,4.623 -2.432,0.74 -5.004,0.489 -7.245,-0.707 -2.744,-1.464 -4.754,-3.908 -5.66,-6.883 -0.905,-2.976 -0.598,-6.125 0.866,-8.869 0.917,-1.721 2.151,-3.202 3.623,-4.392 1.923,-1.028 4.12,-1.615 6.454,-1.615 1.152,0 2.263,0.157 3.331,0.424"
                 inkscape:connector-curvature="0" />
            </g>
            <g
               transform="translate(15.6558,22.498)"
               id="g365">
              <path
                 id="path367"
                 style="fill:#ffcc4d;fill-opacity:1;fill-rule:nonzero;stroke:none"
                 d="m 0,0 c -0.054,-0.143 -0.16,-0.255 -0.297,-0.318 -0.554,-0.249 -0.8,-0.9 -0.55,-1.453 0.119,-0.265 0.328,-0.458 0.576,-0.562 -0.202,0.016 -0.402,0.061 -0.597,0.134 -0.54,0.204 -0.969,0.606 -1.206,1.133 -0.166,0.366 -0.179,0.777 -0.036,1.154 0.142,0.376 0.423,0.676 0.791,0.841 0.129,0.059 0.267,0.088 0.405,0.088 0.118,0 0.236,-0.021 0.349,-0.064 C -0.318,0.859 -0.123,0.677 -0.014,0.436 0.049,0.296 0.053,0.142 0,0 m 9.859,6.003 c -1.569,3.473 -6.117,7.313 -11.772,7.935 -0.212,0.023 -0.422,0.033 -0.633,0.047 -3.6,-0.52 -6.743,-2.429 -8.871,-5.176 3.382,2.808 6.776,3.214 9.264,2.943 C 2.684,11.22 6.542,8.001 7.854,5.098 9.863,0.65 7.877,-4.604 3.43,-6.612 1.761,-7.367 -0.104,-7.425 -1.817,-6.777 c -1.715,0.646 -3.075,1.923 -3.829,3.594 -1.195,2.647 -0.015,5.774 2.632,6.97 2.007,0.906 4.38,0.01 5.286,-1.996 C 2.836,0.54 2.462,-0.9 1.45,-1.733 1.713,-1.463 1.92,-1.14 2.057,-0.777 2.318,-0.085 2.294,0.667 1.99,1.341 1.64,2.116 1.009,2.709 0.213,3.01 -0.584,3.311 -1.45,3.284 -2.224,2.933 -3.127,2.526 -3.817,1.792 -4.167,0.865 c -0.35,-0.927 -0.319,-1.934 0.089,-2.837 0.479,-1.061 1.343,-1.872 2.432,-2.284 1.09,-0.412 2.276,-0.373 3.336,0.105 2.599,1.174 3.76,4.246 2.586,6.847 -1.404,3.111 -5.083,4.497 -8.195,3.095 -3.752,-1.696 -5.425,-6.128 -3.731,-9.88 0.997,-2.206 2.792,-3.891 5.056,-4.745 1.041,-0.394 2.124,-0.59 3.205,-0.59 1.268,0 2.534,0.27 3.725,0.808 5.551,2.509 8.03,9.066 5.523,14.619"
                 inkscape:connector-curvature="0" />
            </g>
          </g>
        </g>
      </g>
    </g>
    <g
       transform="matrix(0.41144968,0.5663119,-0.5663119,0.41144968,78.068476,144.1776)"
       id="g369">
      <g
         transform="matrix(1.25,0,0,-1.25,0,45)"
         id="g371">
        <g
           id="g373">
          <g
             clip-path="url(#clipPath16)"
             id="g375">
            <g
               transform="translate(18,33)"
               id="g377">
              <path
                 id="path379"
                 style="fill:#f2abba;fill-opacity:1;fill-rule:nonzero;stroke:none"
                 d="m 0,0 c 0,0 0,2 -3,2 -2,0 -5.375,-2.042 -6,-4 -2,0 -5,-4 -4,-7 -3,-1 -3.625,-8.042 -2,-9 -2,-2 -1,-7 3,-8 1.009,-3.095 3.6,-5.153 6,-5 0.875,-0.708 1.792,-1 3,-1 3,0 3,1.958 3,4.958 L 0,0 Z"
                 inkscape:connector-curvature="0" />
            </g>
            <g
               transform="translate(18,33)"
               id="g381">
              <path
                 id="path383"
                 style="fill:#f2abba;fill-opacity:1;fill-rule:nonzero;stroke:none"
                 d="m 0,0 c 0,0 0,2 3,2 2,0 5.375,-2.042 6,-4 2,0 5,-4 4,-7 3,-1 3.625,-8.042 2,-9 2,-2 1,-7 -3,-8 -1.009,-3.095 -3.6,-5.153 -6,-5 -0.875,-0.708 -1.792,-1 -3,-1 -3,0 -3,1.958 -3,4.958 L 0,0 Z"
                 inkscape:connector-curvature="0" />
            </g>
            <g
               transform="translate(12,25.5)"
               id="g385">
              <path
                 id="path387"
                 style="fill:#e75a70;fill-opacity:1;fill-rule:nonzero;stroke:none"
                 d="M 0,0 C -0.052,0 -0.105,0.008 -0.158,0.026 -2.802,0.907 -3.5,3.338 -3.5,4.5 c 0,0.275 0.223,0.498 0.498,0.499 l 0.002,0 c 0.274,0 0.498,-0.222 0.5,-0.497 C -2.499,4.394 -2.451,1.844 0.158,0.974 0.42,0.887 0.562,0.604 0.474,0.342 0.404,0.132 0.209,0 0,0"
                 inkscape:connector-curvature="0" />
            </g>
            <g
               transform="translate(12.0005,23.5)"
               id="g389">
              <path
                 id="path391"
                 style="fill:#e75a70;fill-opacity:1;fill-rule:nonzero;stroke:none"
                 d="M 0,0 C -0.184,0 -0.36,0.101 -0.448,0.276 -1.416,2.212 -0.07,3.524 0.776,3.947 1.023,4.069 1.323,3.971 1.447,3.724 1.57,3.478 1.471,3.178 1.225,3.054 1.067,2.973 -0.3,2.218 0.447,0.724 0.57,0.477 0.47,0.176 0.223,0.053 0.151,0.017 0.075,0 0,0"
                 inkscape:connector-curvature="0" />
            </g>
            <g
               transform="translate(9.2515,18.3906)"
               id="g393">
              <path
                 id="path395"
                 style="fill:#e75a70;fill-opacity:1;fill-rule:nonzero;stroke:none"
                 d="m 0,0 -0.41,0.135 c -3.229,1.076 -4.027,4.406 -4.059,4.547 -0.062,0.268 0.106,0.536 0.374,0.598 0.269,0.061 0.537,-0.105 0.6,-0.374 0.007,-0.028 0.649,-2.657 3.031,-3.681 0.44,0.652 1.498,1.884 3.213,1.884 0.276,0 0.5,-0.223 0.5,-0.5 0,-0.276 -0.224,-0.5 -0.5,-0.5 C 1.09,2.109 0.204,0.402 0.195,0.384 L 0,0 Z"
                 inkscape:connector-curvature="0" />
            </g>
            <g
               transform="translate(10.9995,14.6387)"
               id="g397">
              <path
                 id="path399"
                 style="fill:#e75a70;fill-opacity:1;fill-rule:nonzero;stroke:none"
                 d="M 0,0 C -0.055,0 -0.112,0.009 -0.167,0.028 -0.426,0.121 -0.562,0.403 -0.472,0.663 -0.46,0.696 0.731,3.941 5.122,2.847 5.39,2.779 5.553,2.508 5.485,2.24 5.418,1.972 5.144,1.812 4.879,1.876 1.394,2.748 0.508,0.428 0.471,0.33 0.397,0.127 0.205,0 0,0"
                 inkscape:connector-curvature="0" />
            </g>
            <g
               transform="translate(7.9995,9.5)"
               id="g401">
              <path
                 id="path403"
                 style="fill:#e75a70;fill-opacity:1;fill-rule:nonzero;stroke:none"
                 d="m 0,0 c -0.075,0 -0.151,0.017 -0.223,0.053 -1.518,0.759 -1.668,2.063 -1.458,3 -1.832,0.28 -3.116,1.593 -3.176,1.655 -0.191,0.198 -0.185,0.514 0.013,0.706 0.198,0.191 0.515,0.185 0.706,-0.012 C -4.124,5.389 -2.754,4 -1,4 L -0.19,4 -0.552,3.276 C -0.629,3.118 -1.27,1.694 0.224,0.947 0.471,0.823 0.571,0.523 0.448,0.276 0.36,0.102 0.184,0 0,0"
                 inkscape:connector-curvature="0" />
            </g>
            <g
               transform="translate(13.0005,2.5)"
               id="g405">
              <path
                 id="path407"
                 style="fill:#e75a70;fill-opacity:1;fill-rule:nonzero;stroke:none"
                 d="M 0,0 C -0.131,0 -0.262,0.051 -0.36,0.153 -0.551,0.352 -0.546,0.668 -0.348,0.859 -0.33,0.877 1.463,2.639 1.017,4.282 0.945,4.549 1.102,4.823 1.368,4.896 1.635,4.967 1.91,4.811 1.982,4.544 2.584,2.328 0.438,0.229 0.346,0.14 0.25,0.047 0.125,0 0,0"
                 inkscape:connector-curvature="0" />
            </g>
            <g
               transform="translate(15.1562,6.4121)"
               id="g409">
              <path
                 id="path411"
                 style="fill:#e75a70;fill-opacity:1;fill-rule:nonzero;stroke:none"
                 d="M 0,0 C -1.894,0 -2.571,1.3 -2.603,1.363 -2.727,1.61 -2.627,1.911 -2.381,2.035 -2.134,2.158 -1.837,2.06 -1.712,1.817 -1.681,1.76 -1.082,0.72 0.747,1.078 1.016,1.134 1.28,0.956 1.334,0.685 1.388,0.414 1.211,0.151 0.941,0.098 0.598,0.029 0.285,0 0,0"
                 inkscape:connector-curvature="0" />
            </g>
            <g
               transform="translate(12.7334,30.9932)"
               id="g413">
              <path
                 id="path415"
                 style="fill:#e75a70;fill-opacity:1;fill-rule:nonzero;stroke:none"
                 d="M 0,0 C -0.12,0 -0.24,0.043 -0.336,0.13 -0.54,0.315 -0.556,0.63 -0.371,0.835 -0.319,0.892 0.917,2.241 2.479,2.28 3.265,2.308 3.99,1.991 4.62,1.36 4.815,1.165 4.815,0.849 4.62,0.653 4.425,0.458 4.108,0.458 3.913,0.653 3.479,1.087 2.994,1.298 2.509,1.28 1.378,1.254 0.38,0.174 0.37,0.164 0.271,0.055 0.136,0 0,0"
                 inkscape:connector-curvature="0" />
            </g>
            <g
               transform="translate(24,25.5)"
               id="g417">
              <path
                 id="path419"
                 style="fill:#e75a70;fill-opacity:1;fill-rule:nonzero;stroke:none"
                 d="M 0,0 C -0.209,0 -0.404,0.132 -0.475,0.342 -0.562,0.604 -0.42,0.887 -0.158,0.974 2.451,1.844 2.499,4.394 2.5,4.502 2.502,4.778 2.695,5.01 3.002,4.999 3.277,4.998 3.5,4.775 3.5,4.5 3.5,3.338 2.802,0.907 0.158,0.026 0.105,0.008 0.053,0 0,0"
                 inkscape:connector-curvature="0" />
            </g>
            <g
               transform="translate(24,23.5)"
               id="g421">
              <path
                 id="path423"
                 style="fill:#e75a70;fill-opacity:1;fill-rule:nonzero;stroke:none"
                 d="M 0,0 C -0.075,0 -0.151,0.017 -0.224,0.053 -0.471,0.176 -0.57,0.477 -0.447,0.724 0.308,2.233 -1.064,2.973 -1.224,3.053 -1.471,3.176 -1.57,3.477 -1.447,3.724 -1.323,3.971 -1.022,4.069 -0.776,3.947 0.07,3.524 1.415,2.212 0.447,0.276 0.359,0.101 0.183,0 0,0"
                 inkscape:connector-curvature="0" />
            </g>
            <g
               transform="translate(26.749,18.3892)"
               id="g425">
              <path
                 id="path427"
                 style="fill:#e75a70;fill-opacity:1;fill-rule:nonzero;stroke:none"
                 d="m 0,0 -0.195,0.386 c -0.009,0.017 -0.896,1.725 -2.554,1.725 -0.276,0 -0.5,0.223 -0.5,0.5 0,0.276 0.224,0.5 0.5,0.5 1.715,0 2.772,-1.233 3.212,-1.885 C 2.859,2.253 3.487,4.879 3.494,4.907 3.555,5.175 3.821,5.348 4.093,5.282 4.362,5.221 4.53,4.952 4.469,4.683 4.437,4.542 3.639,1.213 0.409,0.137 L 0,0 Z"
                 inkscape:connector-curvature="0" />
            </g>
            <g
               transform="translate(25,14.6367)"
               id="g429">
              <path
                 id="path431"
                 style="fill:#e75a70;fill-opacity:1;fill-rule:nonzero;stroke:none"
                 d="M 0,0 C -0.206,0 -0.398,0.128 -0.471,0.332 -0.507,0.431 -1.404,2.75 -4.879,1.878 -5.146,1.816 -5.419,1.975 -5.485,2.242 -5.552,2.51 -5.39,2.781 -5.121,2.849 -0.732,3.946 0.46,0.698 0.472,0.665 0.563,0.404 0.426,0.119 0.165,0.028 0.11,0.009 0.055,0 0,0"
                 inkscape:connector-curvature="0" />
            </g>
            <g
               transform="translate(28,9.5)"
               id="g433">
              <path
                 id="path435"
                 style="fill:#e75a70;fill-opacity:1;fill-rule:nonzero;stroke:none"
                 d="m 0,0 c -0.183,0 -0.359,0.102 -0.447,0.276 -0.123,0.247 -0.024,0.547 0.223,0.671 1.509,0.755 0.856,2.17 0.777,2.329 L 0.191,4 1,4 C 2.755,4 4.125,5.389 4.139,5.402 4.333,5.599 4.646,5.606 4.846,5.413 5.044,5.222 5.05,4.906 4.858,4.708 4.798,4.646 3.514,3.333 1.682,3.053 1.892,2.116 1.741,0.812 0.224,0.053 0.151,0.017 0.075,0 0,0"
                 inkscape:connector-curvature="0" />
            </g>
            <g
               transform="translate(23,2.5)"
               id="g437">
              <path
                 id="path439"
                 style="fill:#e75a70;fill-opacity:1;fill-rule:nonzero;stroke:none"
                 d="M 0,0 C -0.125,0 -0.25,0.047 -0.347,0.14 -0.438,0.229 -2.584,2.328 -1.982,4.544 -1.91,4.81 -1.637,4.967 -1.369,4.896 -1.103,4.823 -0.945,4.549 -1.018,4.282 -1.466,2.631 0.329,0.878 0.347,0.86 0.546,0.669 0.552,0.352 0.36,0.153 0.262,0.051 0.131,0 0,0"
                 inkscape:connector-curvature="0" />
            </g>
            <g
               transform="translate(20.8438,6.4121)"
               id="g441">
              <path
                 id="path443"
                 style="fill:#e75a70;fill-opacity:1;fill-rule:nonzero;stroke:none"
                 d="m 0,0 c -0.285,0 -0.599,0.029 -0.94,0.098 -0.272,0.053 -0.448,0.316 -0.394,0.587 0.054,0.271 0.321,0.451 0.587,0.393 1.848,-0.362 2.434,0.694 2.46,0.74 C 1.841,2.06 2.142,2.155 2.386,2.028 2.628,1.902 2.726,1.607 2.603,1.363 2.571,1.3 1.893,0 0,0"
                 inkscape:connector-curvature="0" />
            </g>
            <g
               transform="translate(23.2666,30.9932)"
               id="g445">
              <path
                 id="path447"
                 style="fill:#e75a70;fill-opacity:1;fill-rule:nonzero;stroke:none"
                 d="m 0,0 c -0.136,0 -0.271,0.055 -0.37,0.164 -0.01,0.01 -1.008,1.09 -2.139,1.116 -0.519,0.024 -0.97,-0.193 -1.404,-0.627 -0.195,-0.195 -0.512,-0.195 -0.707,0 -0.195,0.196 -0.195,0.512 0,0.707 0.63,0.63 1.323,0.955 2.141,0.92 C -0.918,2.241 0.319,0.892 0.371,0.835 0.556,0.63 0.54,0.315 0.336,0.13 0.24,0.043 0.12,0 0,0"
                 inkscape:connector-curvature="0" />
            </g>
            <g
               transform="translate(18.5,32)"
               id="g449">
              <path
                 id="path451"
                 style="fill:#e75a70;fill-opacity:1;fill-rule:nonzero;stroke:none"
                 d="m 0,0 -1,0 c -0.275,0 -0.5,-0.225 -0.5,-0.5 l 0,-26 c 0,-0.275 0.225,-0.5 0.5,-0.5 l 1,0 c 0.275,0 0.5,0.225 0.5,0.5 l 0,26 C 0.5,-0.225 0.275,0 0,0"
                 inkscape:connector-curvature="0" />
            </g>
          </g>
        </g>
      </g>
    </g>
    <g
       transform="matrix(-0.36309269,-0.55911371,0.55911371,-0.36309269,104.36731,188.44409)"
       id="g453">
      <g
         transform="matrix(1.25,0,0,-1.25,0,45)"
         id="g455">
        <g
           id="g457">
          <g
             clip-path="url(#clipPath16)"
             id="g459">
            <g
               transform="translate(8,34)"
               id="g461">
              <path
                 id="path463"
                 style="fill:none;stroke:#292f33;stroke-width:2;stroke-linecap:round;stroke-linejoin:round;stroke-miterlimit:10;stroke-dasharray:none;stroke-opacity:1"
                 d="M 0,0 C -0.042,-5.625 3,-11 7,-14"
                 inkscape:connector-curvature="0" />
            </g>
            <g
               transform="translate(16,18)"
               id="g465">
              <path
                 id="path467"
                 style="fill:none;stroke:#292f33;stroke-width:2;stroke-linecap:round;stroke-linejoin:round;stroke-miterlimit:10;stroke-dasharray:none;stroke-opacity:1"
                 d="M 0,0 C -2,0 -9,1 -12,8"
                 inkscape:connector-curvature="0" />
            </g>
            <g
               transform="translate(16,16)"
               id="g469">
              <path
                 id="path471"
                 style="fill:none;stroke:#292f33;stroke-width:2;stroke-linecap:round;stroke-linejoin:round;stroke-miterlimit:10;stroke-dasharray:none;stroke-opacity:1"
                 d="M 0,0 C -1,0 -9,1 -12,-8"
                 inkscape:connector-curvature="0" />
            </g>
            <g
               transform="translate(16,16)"
               id="g473">
              <path
                 id="path475"
                 style="fill:none;stroke:#292f33;stroke-width:2;stroke-linecap:round;stroke-linejoin:round;stroke-miterlimit:10;stroke-dasharray:none;stroke-opacity:1"
                 d="M 0,0 C -5,-3 -8,-11 -8,-15"
                 inkscape:connector-curvature="0" />
            </g>
            <g
               transform="translate(28,34)"
               id="g477">
              <path
                 id="path479"
                 style="fill:none;stroke:#292f33;stroke-width:2;stroke-linecap:round;stroke-linejoin:round;stroke-miterlimit:10;stroke-dasharray:none;stroke-opacity:1"
                 d="M 0,0 C 0.042,-5.625 -3,-11 -7,-14"
                 inkscape:connector-curvature="0" />
            </g>
            <g
               transform="translate(20,18)"
               id="g481">
              <path
                 id="path483"
                 style="fill:none;stroke:#292f33;stroke-width:2;stroke-linecap:round;stroke-linejoin:round;stroke-miterlimit:10;stroke-dasharray:none;stroke-opacity:1"
                 d="M 0,0 C 2,0 9,1 12,8"
                 inkscape:connector-curvature="0" />
            </g>
            <g
               transform="translate(20,16)"
               id="g485">
              <path
                 id="path487"
                 style="fill:none;stroke:#292f33;stroke-width:2;stroke-linecap:round;stroke-linejoin:round;stroke-miterlimit:10;stroke-dasharray:none;stroke-opacity:1"
                 d="M 0,0 C 1,0 9,1 12,-8"
                 inkscape:connector-curvature="0" />
            </g>
            <g
               transform="translate(20,16)"
               id="g489">
              <path
                 id="path491"
                 style="fill:none;stroke:#292f33;stroke-width:2;stroke-linecap:round;stroke-linejoin:round;stroke-miterlimit:10;stroke-dasharray:none;stroke-opacity:1"
                 d="M 0,0 C 5,-3 8,-11 8,-15"
                 inkscape:connector-curvature="0" />
            </g>
            <g
               transform="translate(24,10.792)"
               id="g493">
              <path
                 id="path495"
                 style="fill:#292f33;fill-opacity:1;fill-rule:nonzero;stroke:none"
                 d="m 0,0 c 0,-3.751 -2.688,-6.792 -6,-6.792 -3.314,0 -6,3.041 -6,6.792 0,3.751 2.686,6.792 6,6.792 3.312,0 6,-3.041 6,-6.792"
                 inkscape:connector-curvature="0" />
            </g>
            <g
               transform="translate(22,19)"
               id="g497">
              <path
                 id="path499"
                 style="fill:#292f33;fill-opacity:1;fill-rule:nonzero;stroke:none"
                 d="m 0,0 c 0,-3.314 -1.79,-6 -4,-6 -2.208,0 -4,2.686 -4,6 0,3.314 1.792,6 4,6 2.21,0 4,-2.686 4,-6"
                 inkscape:connector-curvature="0" />
            </g>
            <g
               transform="translate(15,26)"
               id="g501">
              <path
                 id="path503"
                 style="fill:none;stroke:#292f33;stroke-width:2;stroke-linecap:round;stroke-linejoin:round;stroke-miterlimit:10;stroke-dasharray:none;stroke-opacity:1"
                 d="M 0,0 C 0,-1 0,-2 1,-3"
                 inkscape:connector-curvature="0" />
            </g>
            <g
               transform="translate(21,26)"
               id="g505">
              <path
                 id="path507"
                 style="fill:none;stroke:#292f33;stroke-width:2;stroke-linecap:round;stroke-linejoin:round;stroke-miterlimit:10;stroke-dasharray:none;stroke-opacity:1"
                 d="M 0,0 C 0,-1 0,-2 -1,-3"
                 inkscape:connector-curvature="0" />
            </g>
          </g>
        </g>
      </g>
    </g>
    <g
       transform="matrix(0.68713903,-0.1335663,0.1335663,0.68713903,129.97827,43.156245)"
       id="g509">
      <g
         transform="matrix(1.25,0,0,-1.25,0,47.5)"
         id="g511">
        <g
           id="g513">
          <g
             clip-path="url(#clipPath16)"
             id="g515">
            <g
               transform="translate(10,26)"
               id="g517">
              <path
                 id="path519"
                 style="fill:#99aab5;fill-opacity:1;fill-rule:nonzero;stroke:none"
                 d="M 0,0 C 0,4.142 -2,11 -1,11 0,11 6,7 4,0 2.862,-3.983 3.104,-4 2,-4 0.896,-4 0,-4.142 0,0"
                 inkscape:connector-curvature="0" />
            </g>
            <g
               transform="translate(10.5498,25.2964)"
               id="g521">
              <path
                 id="path523"
                 style="fill:#f4abba;fill-opacity:1;fill-rule:nonzero;stroke:none"
                 d="M 0,0 C 0,3.414 -1.297,9.065 -0.648,9.065 0,9.065 3.89,5.769 2.593,0 1.855,-3.282 2.013,-3.296 1.296,-3.296 0.58,-3.296 0,-3.414 0,0"
                 inkscape:connector-curvature="0" />
            </g>
            <g
               transform="translate(5.7886,24.625)"
               id="g525">
              <path
                 id="path527"
                 style="fill:#99aab5;fill-opacity:1;fill-rule:nonzero;stroke:none"
                 d="M 0,0 C -1.062,4.003 -4.755,10.119 -3.789,10.375 -2.822,10.632 4.003,8.305 3.866,1.026 3.789,-3.115 4.027,-3.07 2.959,-3.353 1.892,-3.636 1.062,-4.003 0,0"
                 inkscape:connector-curvature="0" />
            </g>
            <g
               transform="translate(6.5005,24.0859)"
               id="g529">
              <path
                 id="path531"
                 style="fill:#f4abba;fill-opacity:1;fill-rule:nonzero;stroke:none"
                 d="M 0,0 C -0.876,3.299 -3.579,8.429 -2.953,8.595 -2.326,8.762 2.279,6.573 2.506,0.665 2.635,-2.696 2.791,-2.67 2.099,-2.854 1.406,-3.037 0.876,-3.299 0,0"
                 inkscape:connector-curvature="0" />
            </g>
            <g
               transform="translate(37,8.5)"
               id="g533">
              <path
                 id="path535"
                 style="fill:#ccd6dd;fill-opacity:1;fill-rule:nonzero;stroke:none"
                 d="M 0,0 C 0,-1.933 -1.567,-3.5 -3.5,-3.5 -5.433,-3.5 -7,-1.933 -7,0 -7,1.933 -5.433,3.5 -3.5,3.5 -1.567,3.5 0,1.933 0,0"
                 inkscape:connector-curvature="0" />
            </g>
            <g
               transform="translate(31.7334,5.2637)"
               id="g537">
              <path
                 id="path539"
                 style="fill:#99aab5;fill-opacity:1;fill-rule:nonzero;stroke:none"
                 d="m 0,0 c 1.493,1.383 2.267,3.519 2.267,6.736 0,7.18 -6.821,11 -14,11 -2.058,0 -3.829,-0.157 -5.324,-0.539 -1.085,1.13 -2.859,1.539 -5.276,1.539 -4.265,0 -8.4,-4.069 -8.4,-8.333 0,-4.13 3.88,-4.636 7.998,-4.664 l 0.002,-0.003 c 3,-5 1,-10 3,-10 1.588,0 1.914,2.217 1.981,4.375 1.068,-0.663 2.258,-1.191 3.531,-1.577 -0.878,-0.523 -1.512,-1.068 -1.512,-1.298 0,-1.381 2,-1.5 5,-1.5 5.522,0 13,0 11,4 C 0.213,-0.156 0.115,-0.073 0,0"
                 inkscape:connector-curvature="0" />
            </g>
            <g
               transform="translate(8,19)"
               id="g541">
              <path
                 id="path543"
                 style="fill:#292f33;fill-opacity:1;fill-rule:nonzero;stroke:none"
                 d="m 0,0 c 0,-0.553 -0.448,-1 -1,-1 -0.552,0 -1,0.447 -1,1 0,0.552 0.448,1 1,1 0.552,0 1,-0.448 1,-1"
                 inkscape:connector-curvature="0" />
            </g>
            <g
               transform="translate(3,16)"
               id="g545">
              <path
                 id="path547"
                 style="fill:#f4abba;fill-opacity:1;fill-rule:nonzero;stroke:none"
                 d="m 0,0 c 0,-1.104 -0.5,-2 -1,-2 -0.5,0 -1,0.896 -1,2 0,1.104 0.448,1 1,1 0.552,0 1,0.104 1,-1"
                 inkscape:connector-curvature="0" />
            </g>
          </g>
        </g>
      </g>
    </g>
  </g>
</svg>
