<?xml version="1.0" encoding="UTF-8" standalone="no"?>
<svg
   xmlns:dc="http://purl.org/dc/elements/1.1/"
   xmlns:cc="http://creativecommons.org/ns#"
   xmlns:rdf="http://www.w3.org/1999/02/22-rdf-syntax-ns#"
   xmlns:svg="http://www.w3.org/2000/svg"
   xmlns="http://www.w3.org/2000/svg"
   xmlns:sodipodi="http://sodipodi.sourceforge.net/DTD/sodipodi-0.dtd"
   xmlns:inkscape="http://www.inkscape.org/namespaces/inkscape"
   version="1.1"
   id="svg2"
   viewBox="0 0 200 200"
   height="200px"
   width="200px"
   inkscape:version="0.91 r13725"
   sodipodi:docname="92.svg">
  <metadata
     id="metadata582">
    <rdf:RDF>
      <cc:Work
         rdf:about="">
        <dc:format>image/svg+xml</dc:format>
        <dc:type
           rdf:resource="http://purl.org/dc/dcmitype/StillImage" />
      </cc:Work>
    </rdf:RDF>
  </metadata>
  <sodipodi:namedview
     pagecolor="#ffffff"
     bordercolor="#666666"
     borderopacity="1"
     objecttolerance="10"
     gridtolerance="10"
     guidetolerance="10"
     inkscape:pageopacity="0"
     inkscape:pageshadow="2"
     inkscape:window-width="1920"
     inkscape:window-height="1060"
     id="namedview580"
     showgrid="false"
     inkscape:zoom="4.32"
     inkscape:cx="100"
     inkscape:cy="81.481481"
     inkscape:window-x="0"
     inkscape:window-y="0"
     inkscape:window-maximized="1"
     inkscape:current-layer="layer1" />
  
    
    
    <defs id="defs6">

        <clipPath
           id="clipPath28"
           clipPathUnits="userSpaceOnUse">
          <path
             id="path30"
             d="M 4,36 C 0,36 0,32 0,32 L 0,32 0,4 C 0,0 4,0 4,0 l 0,0 28,0 c 4,0 4,4 4,4 l 0,0 0,28 c 0,4 -4,4 -4,4 l 0,0 -28,0 z" />
        </clipPath>


        <clipPath clipPathUnits="userSpaceOnUse" id="clipPath16-rugby">
            <path d="M 0,38 38,38 38,0 0,0 0,38 Z" id="path18"/>
        </clipPath>
        <clipPath clipPathUnits="userSpaceOnUse" id="clipPath28-rugby">
            <path d="M 9.254,28.746 C 2.09,21.582 -0.927,9.561 3.929,3.929 l 0,0 C 9.561,-0.927 21.582,2.09 28.746,9.254 l 0,0 c 7.164,7.164 11.229,17.088 5.324,24.816 l 0,0 c -1.886,1.627 -4.489,2.371 -7.387,2.37 l 0,0 c -5.752,0 -12.665,-2.93 -17.429,-7.694" id="path30"/>
        </clipPath>

        <clipPath clipPathUnits="userSpaceOnUse" id="clipPath16-carrot">
            <path d="M 0,36 36,36 36,0 0,0 0,36 Z" id="path18"/>
        </clipPath>
        <clipPath clipPathUnits="userSpaceOnUse" id="clipPath32-carrot">
            <path d="M 11.815,23.013 C 4.2,15.397 -1.265,2.86 0.502,1.093 l 0,0 c 1.768,-1.768 14.305,3.698 21.92,11.313 l 0,0 c 7.616,7.615 7.562,11.53 4.243,14.85 l 0,0 c -1.328,1.328 -2.752,2.133 -4.47,2.133 l 0,0 c -2.575,0 -5.812,-1.809 -10.38,-6.376" id="path34"/>
        </clipPath>

        <clipPath clipPathUnits="userSpaceOnUse" id="clipPath32-hat">
            <path d="m 5,33.666 c 0,-0.034 0.018,-0.067 0.022,-0.101 l 0,0 C 5.008,33.455 5,33.335 5,33.2 l 0,0 L 6.802,9.616 C 3.299,8.705 1,7.424 1,6 L 1,6 C 1,3.238 9.611,1 19,1 l 0,0 c 9.389,0 18,2.238 18,5 l 0,0 c 0,1.424 -2.298,2.705 -5.801,3.616 l 0,0 L 33,33.184 c 0,0.135 -0.008,0.263 -0.021,0.373 l 0,0 C 32.982,33.591 33,33.632 33,33.666 l 0,0 c 0,1.805 -6.268,3.267 -14,3.267 l 0,0 c -7.732,0 -14,-1.462 -14,-3.267" id="path34"/>
        </clipPath>


        <clipPath clipPathUnits="userSpaceOnUse" id="clipPath48-soccer">
            <path d="M 1,19 C 1,9.059 9.059,1 19,1 l 0,0 c 9.941,0 18,8.059 18,18 l 0,0 c 0,9.941 -8.059,18 -18,18 l 0,0 C 9.059,37 1,28.941 1,19" id="path50"/>
        </clipPath>

        <clipPath clipPathUnits="userSpaceOnUse" id="clipPath28-baguette">
            <path d="M 24.052,31.33 5.126,12.406 C 1.342,8.62 1.288,4.133 2.856,2.564 l 0,0 C 4.424,0.997 8.912,1.049 12.697,4.835 l 0,0 18.925,18.924 c 3.784,3.785 3.837,8.273 2.269,9.841 l 0,0 c -0.605,0.606 -1.647,0.969 -2.915,0.969 l 0,0 c -2.014,0 -4.602,-0.917 -6.924,-3.239" id="path30"/>
        </clipPath>
    </defs>



  <g
     id="layer1">
    <circle
       style="opacity:1;fill:white;stroke:black;stroke-width:1;stroke-miterlimit:4;stroke-dasharray:none;stroke-opacity:0.1"
       id="path4039-0-9"
       cx="100px"
       cy="100px"
       r="90px" />
    <g
       transform="matrix(0.87704645,0.3192188,-0.3192188,0.87704645,60.970098,122.56135)"
       id="g8">
      <g
         transform="matrix(1.25,0,0,-1.25,0,45)"
         id="g10">
        <g
           id="g12">
          <g
             clip-path="url(#clipPath16)"
             id="g14">
            <g
               transform="translate(35,30.0957)"
               id="g20">
              <path
                 id="path22"
                 style="fill:#3e721d;fill-opacity:1;fill-rule:nonzero;stroke:none"
                 d="m 0,0 c 2.394,-6.042 -1.438,-20.543 -10.5,-26.5 -9.06,-5.957 -20.395,-3.573 -23.097,6.443 -1.669,6.186 2.79,10.722 11.851,16.678 C -12.686,2.578 -2.36,5.958 0,0"
                 inkscape:connector-curvature="0" />
            </g>
            <g
               transform="translate(20.6055,9.9697)"
               id="g24">
              <path
                 id="path26"
                 style="fill:#3e721d;fill-opacity:1;fill-rule:nonzero;stroke:none"
                 d="m 0,0 c -6.523,-4.546 -15.287,-5.15 -18.469,-0.582 -3.183,4.566 0.418,12.578 6.943,17.124 6.522,4.545 21.951,9.796 25.133,5.229 C 16.79,17.203 6.522,4.546 0,0"
                 inkscape:connector-curvature="0" />
            </g>
            <g
               transform="translate(19.8154,9.4219)"
               id="g28">
              <path
                 id="path18"
                 style="fill:#a6d388;fill-opacity:1;fill-rule:nonzero;stroke:none"
                 d="m 0,0 c -5.757,-4.013 -13.482,-3.097 -16.29,0.934 -2.808,4.031 0.474,11.17 6.231,15.181 5.756,4.011 20.258,9.264 23.069,5.234 C 15.816,17.319 8.185,5.174 0,0"
                 inkscape:connector-curvature="0" />
            </g>
            <g
               transform="translate(18.1689,12.0742)"
               id="g32">
              <path
                 id="path34"
                 style="fill:#c6e5b3;fill-opacity:1;fill-rule:nonzero;stroke:none"
                 d="m 0,0 c -4.506,-3.14 -9.939,-3.127 -12.136,0.027 -2.2,3.155 -0.33,8.255 4.176,11.396 4.506,3.141 15.835,7.238 18.034,4.084 C 12.275,12.352 4.508,3.14 0,0"
                 inkscape:connector-curvature="0" />
            </g>
            <g
               transform="translate(11.1621,23.5122)"
               id="g36">
              <path
                 id="path38"
                 style="fill:#662113;fill-opacity:1;fill-rule:nonzero;stroke:none"
                 d="M 0,0 C 3.48,2.332 7.382,1.495 9.798,-0.995 11.23,-2.472 8.918,-6.377 5.439,-8.709 1.961,-11.039 -2.331,-10.471 -2.801,-9.44 -4.24,-6.283 -3.478,-2.332 0,0"
                 inkscape:connector-curvature="0" />
            </g>
            <g
               transform="translate(13.0713,22.894)"
               id="g40">
              <path
                 id="path42"
                 style="fill:#7c3225;fill-opacity:1;fill-rule:nonzero;stroke:none"
                 d="M 0,0 C 1.51,1.013 3.414,0.819 4.254,-0.431 5.091,-1.682 4.548,-3.518 3.037,-4.531 1.527,-5.54 -0.378,-5.348 -1.216,-4.098 -2.056,-2.846 -1.51,-1.012 0,0"
                 inkscape:connector-curvature="0" />
            </g>
          </g>
        </g>
      </g>
    </g>
    <g
       transform="matrix(-0.23443868,-0.55230291,0.55230291,-0.23443868,123.39598,125.59447)"
       id="g26">
      <g
         transform="matrix(1.25,0,0,-1.25,0,47.5)"
         id="g29">
        <g
           id="g31">
          <g
             clip-path="url(#clipPath16)"
             id="g33">
            <g
               transform="translate(37,35)"
               id="g35">
              <path
                 id="path37"
                 style="fill:#aa8ed6;fill-opacity:1;fill-rule:nonzero;stroke:none"
                 d="M 0,0 C 0,0.809 -0.487,1.538 -1.234,1.848 -1.984,2.158 -2.842,1.987 -3.414,1.414 -4.3,0.528 -7.411,-2 -10,-2 c -10e-4,0 -0.002,0 -0.004,0 -2.384,1.273 -5.104,2 -7.996,2 -2.892,0 -5.612,-0.727 -7.996,-2 -0.002,0 -0.003,0 -0.004,0 -2.58,0 -5.631,2.466 -6.586,3.414 -0.571,0.572 -1.433,0.744 -2.179,0.434 C -35.513,1.538 -36,0.809 -36,0 c 0,-2.384 0.795,-6.229 3.359,-8.391 C -34.13,-10.918 -35,-13.854 -35,-17 c 0,-9.389 7.612,-17 17,-17 9.389,0 17,7.611 17,17 0,3.146 -0.87,6.082 -2.359,8.609 C -0.795,-6.229 0,-2.384 0,0"
                 inkscape:connector-curvature="0" />
            </g>
            <g
               transform="translate(28.335,11.3711)"
               id="g39">
              <path
                 id="path41"
                 style="fill:#553986;fill-opacity:1;fill-rule:nonzero;stroke:none"
                 d="m 0,0 c -0.178,0.161 -0.444,0.171 -0.635,0.029 -0.039,-0.029 -3.922,-2.9 -8.7,-2.9 -4.766,0 -8.662,2.871 -8.7,2.9 -0.191,0.142 -0.457,0.13 -0.635,-0.029 -0.177,-0.16 -0.217,-0.424 -0.094,-0.628 0.129,-0.215 3.217,-5.243 9.429,-5.243 6.212,0 9.301,5.028 9.429,5.243 C 0.217,-0.423 0.178,-0.16 0,0"
                 inkscape:connector-curvature="0" />
            </g>
            <g
               transform="translate(16.707,18.707)"
               id="g43">
              <path
                 id="path45"
                 style="fill:#553986;fill-opacity:1;fill-rule:nonzero;stroke:none"
                 d="m 0,0 c -3.255,3.255 -8.486,3.293 -8.707,3.293 -0.552,0 -0.999,-0.447 -0.999,-0.999 -0.001,-0.551 0.446,-1 0.998,-1.001 0.029,0 1.925,-0.022 3.983,-0.737 -0.593,-0.64 -0.982,-1.634 -0.982,-2.763 0,-1.934 1.119,-3.5 2.5,-3.5 1.381,0 2.5,1.566 2.5,3.5 0,0.174 -0.019,0.34 -0.037,0.507 0.013,0 0.025,-0.007 0.037,-0.007 0.256,0 0.512,0.098 0.707,0.293 0.391,0.391 0.391,1.023 0,1.414"
                 inkscape:connector-curvature="0" />
            </g>
            <g
               transform="translate(30,22)"
               id="g47">
              <path
                 id="path49"
                 style="fill:#553986;fill-opacity:1;fill-rule:nonzero;stroke:none"
                 d="m 0,0 c -0.221,0 -5.451,-0.038 -8.707,-3.293 -0.391,-0.391 -0.391,-1.023 0,-1.414 C -8.512,-4.902 -8.256,-5 -8,-5 c 0.013,0 0.024,0.007 0.036,0.007 C -7.98,-5.16 -8,-5.326 -8,-5.5 -8,-7.434 -6.881,-9 -5.5,-9 c 1.381,0 2.5,1.566 2.5,3.5 0,1.129 -0.389,2.123 -0.982,2.763 C -1.924,-2.022 -0.028,-2 0.002,-2 0.553,-1.999 1,-1.55 0.999,-0.999 0.998,-0.447 0.552,0 0,0"
                 inkscape:connector-curvature="0" />
            </g>
          </g>
        </g>
      </g>
    </g>
    <g
       transform="matrix(0.57991319,-0.64405885,0.64405885,0.57991319,67.04735,86.239843)"
       id="g51">
      <g
         transform="matrix(1.25,0,0,-1.25,0,47.5)"
         id="g53">
        <g
           id="g55">
          <g
             clip-path="url(#clipPath16)"
             id="g57">
            <g
               transform="translate(20,9.7451)"
               id="g59">
              <path
                 id="path61"
                 style="fill:#8899a6;fill-opacity:1;fill-rule:nonzero;stroke:none"
                 d="m 0,0 c 0,0 8,0.213 9.651,4.075 1.07,2.501 -0.609,9.554 -0.609,13.93 0,1.481 -1.167,2.25 -3.416,2.25 l -6.124,0 -1.125,0 -1.125,0 -6.123,0 c -1.125,0 -3.329,0.262 -3.329,-2.125 0,-4.284 -1.765,-11.341 -0.634,-13.815 C -10.958,0.213 -3,0 -3,0 l 0,-3.123 c 0,0 -4.584,-2.34 -5.498,-2.883 -0.984,-0.562 -0.33,-1.462 0.063,-1.617 0.657,-0.258 2.254,-1.102 6.781,-1.102 4.64,0 6.202,0.914 6.764,1.102 0.217,0.072 1.347,0.932 0.011,1.723 C 2.743,-4.492 0,-3.123 0,-3.123 L 0,0 Z"
                 inkscape:connector-curvature="0" />
            </g>
            <g
               transform="translate(29,28.5576)"
               id="g63">
              <path
                 id="path65"
                 style="fill:#ccd6dd;fill-opacity:1;fill-rule:nonzero;stroke:none"
                 d="m 0,0 c 0,-1.621 -2.547,-2.935 -10.623,-2.935 -8.076,0 -10.623,1.314 -10.623,2.935 0,1.622 2.547,2.935 10.623,2.935 C -2.547,2.935 0,1.622 0,0"
                 inkscape:connector-curvature="0" />
            </g>
            <g
               transform="translate(9.4585,28.4165)"
               id="g67">
              <path
                 id="path69"
                 style="fill:#ccd6dd;fill-opacity:1;fill-rule:nonzero;stroke:none"
                 d="m 0,0 c 2.042,-9.5 -2.417,-13.583 2.083,-15.167 5.432,-1.911 8.542,-1.592 13.459,0 4.5,1.459 1.5,6.875 2.125,14.792 C 17.828,1.662 0,0 0,0"
                 inkscape:connector-curvature="0" />
            </g>
            <g
               transform="translate(10.0415,22.4165)"
               id="g71">
              <path
                 id="path73"
                 style="fill:#f4900c;fill-opacity:1;fill-rule:nonzero;stroke:none"
                 d="m 0,0 c -0.083,-1.083 -1.09,-6.129 -0.625,-7.292 0.5,-1.25 1.75,-3.25 8.917,-3.25 5.25,0 8.583,1.584 9.125,3.584 0.47,1.74 -0.25,5.583 -0.334,7"
                 inkscape:connector-curvature="0" />
            </g>
            <g
               transform="translate(27,22.5)"
               id="g75">
              <path
                 id="path77"
                 style="fill:#ffcc4d;fill-opacity:1;fill-rule:nonzero;stroke:none"
                 d="m 0,0 c 0,-0.829 -3.806,-1.5 -8.5,-1.5 -4.694,0 -8.5,0.671 -8.5,1.5 0,0.829 3.806,1.5 8.5,1.5 C -3.806,1.5 0,0.829 0,0"
                 inkscape:connector-curvature="0" />
            </g>
            <g
               transform="translate(25.7451,32.0991)"
               id="g79">
              <path
                 id="path81"
                 style="fill:#c1694f;fill-opacity:1;fill-rule:nonzero;stroke:none"
                 d="m 0,0 c 0,0 -5.922,-13.911 -6.231,-14.549 -0.376,-0.781 0.601,-1.874 1.47,-0.484 0.868,1.391 6.741,13.698 6.741,13.698 L 0,0 Z"
                 inkscape:connector-curvature="0" />
            </g>
            <g
               transform="translate(18.3105,25.3247)"
               id="g44">
              <path
                 id="path46"
                 style="fill:#ffffff;fill-opacity:1;fill-rule:nonzero;stroke:none"
                 d="M 0,0 C -4.292,0 -7.672,1.007 -8.943,1.604 -9.444,1.838 -9.659,2.433 -9.424,2.933 -9.19,3.434 -8.595,3.649 -8.095,3.414 -8.021,3.379 -0.388,0.138 8.457,3.525 8.971,3.725 9.551,3.466 9.748,2.95 9.946,2.434 9.688,1.855 9.172,1.658 5.95,0.424 2.783,0 0,0"
                 inkscape:connector-curvature="0" />
            </g>
            <g
               transform="translate(29,35.75)"
               id="g48">
              <path
                 id="path50"
                 style="fill:#77b255;fill-opacity:1;fill-rule:nonzero;stroke:none"
                 d="m 0,0 c -2.333,0 -9.375,0.042 -10.208,0.042 -1,0 -0.325,-2.987 7,-6.5 7.125,-3.417 9.501,-2.334 8.792,-1.5 C 4.626,-6.458 0,0 0,0"
                 inkscape:connector-curvature="0" />
            </g>
          </g>
        </g>
        <g
           id="g52">
          <g
             clip-path="url(#clipPath56)"
             id="g54">
            <g
               transform="translate(21.375,22.75)"
               id="g60">
              <path
                 id="path62"
                 style="fill:#ffac33;fill-opacity:1;fill-rule:nonzero;stroke:none"
                 d="m 0,0 c 1,-0.5 1.875,-0.625 2.792,-0.5 0.917,0.125 0.75,-0.667 -0.25,-0.875 -1,-0.208 -2.833,-0.375 -4,-0.292 C -2.625,-1.583 0,0 0,0"
                 inkscape:connector-curvature="0" />
            </g>
            <g
               transform="translate(19.4585,21)"
               id="g64">
              <path
                 id="path66"
                 style="fill:#cc6f00;fill-opacity:1;fill-rule:nonzero;stroke:none"
                 d="M 0,0 C 1.167,0 3.75,0.167 4.458,0.333 5.167,0.5 4.875,-5.874 2.542,-5.833 0.208,-5.792 -2.25,-6.709 -1.75,-4.625 -1.25,-2.542 0,0 0,0"
                 inkscape:connector-curvature="0" />
            </g>
          </g>
        </g>
        <g
           id="g68">
          <g
             clip-path="url(#clipPath72)"
             id="g70">
            <g
               transform="translate(33.3301,24.9438)"
               id="g76">
              <path
                 id="path78"
                 style="fill:#77b255;fill-opacity:1;fill-rule:nonzero;stroke:none"
                 d="m 0,0 -0.001,0 c -1.309,0 -3.754,0.424 -7.97,2.446 -6.363,3.052 -8.228,5.863 -7.891,7.343 0.144,0.633 0.676,1.059 1.324,1.059 0.312,0 1.494,-0.006 2.975,-0.014 2.47,-0.012 5.774,-0.028 7.233,-0.028 0.322,0 0.625,-0.156 0.812,-0.417 C -3.329,10.126 1.048,4.014 2.067,2.432 2.397,2.003 2.467,1.479 2.252,1.013 2.038,0.551 1.474,0 0,0"
                 inkscape:connector-curvature="0" />
            </g>
          </g>
        </g>
        <g
           id="g80">
          <g
             clip-path="url(#clipPath84)"
             id="g82">
            <g
               transform="translate(30.584,35.0415)"
               id="g88">
              <path
                 id="path90"
                 style="fill:#5c913b;fill-opacity:1;fill-rule:nonzero;stroke:none"
                 d="M 0,0 C 0.916,-1.875 3.541,-8.708 -4.292,-8.458 -0.834,-11.75 -1.416,-17 3,-13.875 7.416,-10.75 9.874,-5.25 7.416,-3.292 4.958,-1.333 0,0 0,0"
                 inkscape:connector-curvature="0" />
            </g>
          </g>
        </g>
        <g
           id="g92">
          <g
             clip-path="url(#clipPath96)"
             id="g94">
            <g
               transform="translate(30.875,35.3125)"
               id="g100">
              <path
                 id="path102"
                 style="fill:#3e721d;fill-opacity:1;fill-rule:nonzero;stroke:none"
                 d="m 0,0 c 0,-0.932 -0.756,-1.687 -1.687,-1.687 -0.932,0 -1.688,0.755 -1.688,1.687 0,0.932 0.756,1.687 1.688,1.687 C -0.756,1.687 0,0.932 0,0"
                 inkscape:connector-curvature="0" />
            </g>
          </g>
        </g>
      </g>
    </g>
    <g
       transform="matrix(0.33863364,-0.79777087,0.79777087,0.33863364,35.905534,68.242902)"
       id="g105">
      <g
         transform="matrix(1.25,0,0,-1.25,0,47.5)"
         id="g107">
        <g
           id="g109">
          <g
             clip-path="url(#clipPath16)"
             id="g111">
            <g
               transform="translate(37,14)"
               id="g113">
              <path
                 id="path115"
                 style="fill:#ffd983;fill-opacity:1;fill-rule:nonzero;stroke:none"
                 d="m 0,0 c 0,-2.071 -8.059,-5 -18,-5 -9.941,0 -18,2.929 -18,5 0,2.071 8.059,5 18,5 C -8.059,5 0,2.071 0,0"
                 inkscape:connector-curvature="0" />
            </g>
            <g
               transform="translate(30,20)"
               id="g117">
              <path
                 id="path119"
                 style="fill:#ffd983;fill-opacity:1;fill-rule:nonzero;stroke:none"
                 d="m 0,0 c 0,-1.566 -4.925,-6 -11,-6 -6.075,0 -10.957,4.434 -10.957,6 0,7 6.957,10 10.957,10 C -7,10 0,7 0,0"
                 inkscape:connector-curvature="0" />
            </g>
            <g
               transform="translate(30,16)"
               id="g121">
              <path
                 id="path123"
                 style="fill:#9266cc;fill-opacity:1;fill-rule:nonzero;stroke:none"
                 d="m 0,0 c -5,-3 -17,-3 -22,0 0,0.492 0.043,3.535 0.043,4 C -16,1 -6,1 0,4 -0.003,3.535 0,0.492 0,0"
                 inkscape:connector-curvature="0" />
            </g>
            <g
               transform="translate(20,13)"
               id="g125">
              <path
                 id="path127"
                 style="fill:#ffffff;fill-opacity:1;fill-rule:nonzero;stroke:none"
                 d="m 0,0 c 0,-1.104 -0.448,-2 -1,-2 -0.553,0 -1,0.896 -1,2 0,1.104 0.447,2 1,2 0.552,0 1,-0.896 1,-2"
                 inkscape:connector-curvature="0" />
            </g>
            <g
               transform="translate(20,19)"
               id="g129">
              <path
                 id="path131"
                 style="fill:#ffffff;fill-opacity:1;fill-rule:nonzero;stroke:none"
                 d="m 0,0 c 0,-1.104 -0.448,-2 -1,-2 -0.553,0 -1,0.896 -1,2 0,1.104 0.447,2 1,2 0.552,0 1,-0.896 1,-2"
                 inkscape:connector-curvature="0" />
            </g>
            <g
               transform="translate(17.5859,13.1719)"
               id="g133">
              <path
                 id="path135"
                 style="fill:#ffffff;fill-opacity:1;fill-rule:nonzero;stroke:none"
                 d="m 0,0 c -0.781,-0.781 -1.731,-1.098 -2.122,-0.707 -0.39,0.391 -0.073,1.34 0.707,2.121 0.782,0.781 1.731,1.098 2.122,0.707 C 1.098,1.73 0.781,0.78 0,0"
                 inkscape:connector-curvature="0" />
            </g>
            <g
               transform="translate(21.8281,17.4141)"
               id="g137">
              <path
                 id="path139"
                 style="fill:#ffffff;fill-opacity:1;fill-rule:nonzero;stroke:none"
                 d="m 0,0 c -0.78,-0.781 -1.73,-1.098 -2.121,-0.707 -0.391,0.391 -0.074,1.34 0.707,2.122 0.781,0.78 1.73,1.097 2.121,0.707 C 1.098,1.731 0.781,0.781 0,0"
                 inkscape:connector-curvature="0" />
            </g>
            <g
               transform="translate(16.0005,15)"
               id="g141">
              <path
                 id="path143"
                 style="fill:#ffffff;fill-opacity:1;fill-rule:nonzero;stroke:none"
                 d="M 0,0 C -1.105,0 -2,0.448 -2,1 -2,1.553 -1.105,2 0,2 1.104,2 2,1.553 2,1 2,0.447 1.104,0 0,0"
                 inkscape:connector-curvature="0" />
            </g>
            <g
               transform="translate(22,15)"
               id="g145">
              <path
                 id="path54"
                 style="fill:#ffffff;fill-opacity:1;fill-rule:nonzero;stroke:none"
                 d="M 0,0 C -1.104,-0.001 -2,0.447 -2,1 -2,1.553 -1.104,2 0,2 1.104,2 2,1.553 2,1 2,0.448 1.104,0 0,0"
                 inkscape:connector-curvature="0" />
            </g>
            <g
               transform="translate(16.1719,17.4131)"
               id="g56">
              <path
                 id="path58"
                 style="fill:#ffffff;fill-opacity:1;fill-rule:nonzero;stroke:none"
                 d="M 0,0 C -0.782,0.782 -1.098,1.732 -0.708,2.122 -0.317,2.513 0.633,2.196 1.414,1.415 2.195,0.633 2.512,-0.315 2.121,-0.706 1.73,-1.098 0.78,-0.78 0,0"
                 inkscape:connector-curvature="0" />
            </g>
            <g
               transform="translate(20.4141,13.1709)"
               id="g150">
              <path
                 id="path152"
                 style="fill:#ffffff;fill-opacity:1;fill-rule:nonzero;stroke:none"
                 d="M 0,0 C -0.782,0.78 -1.098,1.73 -0.707,2.121 -0.316,2.513 0.633,2.195 1.414,1.414 2.195,0.634 2.512,-0.316 2.121,-0.707 1.731,-1.097 0.781,-0.781 0,0"
                 inkscape:connector-curvature="0" />
            </g>
            <g
               transform="translate(21,16)"
               id="g154">
              <path
                 id="path156"
                 style="fill:#ffac33;fill-opacity:1;fill-rule:nonzero;stroke:none"
                 d="m 0,0 c 0,-1.104 -0.896,-2 -2,-2 -1.105,0 -2,0.896 -2,2 0,1.104 0.895,2 2,2 1.104,0 2,-0.896 2,-2"
                 inkscape:connector-curvature="0" />
            </g>
          </g>
        </g>
      </g>
    </g>
    <g
       transform="matrix(0.69829484,0.04882953,-0.04882953,0.69829484,85.138438,22.175382)"
       id="g158">
      <g
         transform="matrix(1.25,0,0,-1.25,0,47.5)"
         id="g160">
        <g
           id="g162">
          <g
             clip-path="url(#clipPath16)"
             id="g164">
            <g
               transform="translate(35.1934,23.6709)"
               id="g166">
              <path
                 id="path168"
                 style="fill:#f4abba;fill-opacity:1;fill-rule:nonzero;stroke:none"
                 d="m 0,0 c 0.387,0.371 0.733,0.795 1.02,1.28 1.685,2.853 0.269,10.292 -0.592,10.8 -0.696,0.411 -5.53,-1.05 -8.246,-3.132 -2.499,1.497 -5.344,2.381 -8.375,2.381 -3.022,0 -5.856,-0.879 -8.349,-2.367 -2.721,2.075 -7.533,3.528 -8.227,3.118 -0.861,-0.508 -2.276,-7.947 -0.592,-10.8 0.278,-0.471 0.615,-0.884 0.989,-1.249 -1.156,-2.552 -1.821,-5.342 -1.821,-8.18 0,-9.99 8.01,-12.522 18,-12.522 9.989,0 18,2.532 18,12.522 C 1.807,-5.322 1.146,-2.543 0,0"
                 inkscape:connector-curvature="0" />
            </g>
            <g
               transform="translate(8.3979,31.0352)"
               id="g170">
              <path
                 id="path172"
                 style="fill:#ea596e;fill-opacity:1;fill-rule:nonzero;stroke:none"
                 d="M 0,0 C -2.166,1.268 -4.402,2.08 -4.8,1.845 -5.37,1.509 -5.883,-3.153 -5.151,-6.419 -3.879,-3.938 -2.112,-1.738 0,0"
                 inkscape:connector-curvature="0" />
            </g>
            <g
               transform="translate(34.7529,24.6157)"
               id="g174">
              <path
                 id="path176"
                 style="fill:#ea596e;fill-opacity:1;fill-rule:nonzero;stroke:none"
                 d="M 0,0 C 0.732,3.267 0.219,7.928 -0.351,8.265 -0.749,8.5 -2.985,7.687 -5.151,6.419 -3.038,4.682 -1.271,2.482 0,0"
                 inkscape:connector-curvature="0" />
            </g>
            <g
               transform="translate(29,13.875)"
               id="g178">
              <path
                 id="path180"
                 style="fill:#ea596e;fill-opacity:1;fill-rule:nonzero;stroke:none"
                 d="m 0,0 c 0,-4.487 -3.097,-9.375 -10,-9.375 -6.904,0 -10,4.888 -10,9.375 0,4.487 3.096,5.625 10,5.625 C -3.097,5.625 0,4.487 0,0"
                 inkscape:connector-curvature="0" />
            </g>
            <g
               transform="translate(16,12.4004)"
               id="g182">
              <path
                 id="path184"
                 style="fill:#662113;fill-opacity:1;fill-rule:nonzero;stroke:none"
                 d="M 0,0 C 0,-1.857 -0.34,-2.4 -1.5,-2.4 -2.66,-2.4 -3,-1.857 -3,0 -3,1.856 -2.66,2.399 -1.5,2.399 -0.34,2.399 0,1.856 0,0"
                 inkscape:connector-curvature="0" />
            </g>
            <g
               transform="translate(25,12.4004)"
               id="g186">
              <path
                 id="path188"
                 style="fill:#662113;fill-opacity:1;fill-rule:nonzero;stroke:none"
                 d="M 0,0 C 0,-1.857 -0.34,-2.4 -1.5,-2.4 -2.66,-2.4 -3,-1.857 -3,0 -3,1.856 -2.66,2.399 -1.5,2.399 -0.34,2.399 0,1.856 0,0"
                 inkscape:connector-curvature="0" />
            </g>
            <g
               transform="translate(10,20)"
               id="g190">
              <path
                 id="path192"
                 style="fill:#292f33;fill-opacity:1;fill-rule:nonzero;stroke:none"
                 d="m 0,0 c 0,-1.104 -0.896,-2 -2,-2 -1.104,0 -2,0.896 -2,2 0,1.104 0.896,2 2,2 1.104,0 2,-0.896 2,-2"
                 inkscape:connector-curvature="0" />
            </g>
            <g
               transform="translate(32,20)"
               id="g194">
              <path
                 id="path196"
                 style="fill:#292f33;fill-opacity:1;fill-rule:nonzero;stroke:none"
                 d="m 0,0 c 0,-1.104 -0.896,-2 -2,-2 -1.104,0 -2,0.896 -2,2 0,1.104 0.896,2 2,2 1.104,0 2,-0.896 2,-2"
                 inkscape:connector-curvature="0" />
            </g>
          </g>
        </g>
      </g>
    </g>
    <g
       transform="matrix(0.5011694,0.18241074,-0.18241074,0.5011694,158.10899,96.38542)"
       id="g198">
      <g
         transform="matrix(1.25,0,0,-1.25,0,47.5)"
         id="g200">
        <g
           id="g202">
          <g
             clip-path="url(#clipPath16)"
             id="g204">
            <g
               transform="translate(19,36)"
               id="g206">
              <path
                 id="path208"
                 style="fill:#ffcc4d;fill-opacity:1;fill-rule:nonzero;stroke:none"
                 d="m 0,0 c -9.388,0 -17,-7.612 -17,-17 0,-5.715 2.829,-10.759 7.153,-13.841 0.098,6.081 -2.112,12.897 -5.827,12.897 -0.438,0 -0.793,-0.063 -1.089,-0.173 0.286,0.714 0.907,1.117 2.068,1.117 4.032,0 6.295,-8.034 5.754,-14.439 C -6.341,-33.053 -3.285,-34 0,-34 c 3.285,0 6.343,0.948 8.944,2.562 -0.545,6.429 1.717,14.438 5.752,14.438 1.165,0 1.787,-0.402 2.071,-1.117 -0.296,0.11 -0.652,0.173 -1.093,0.173 -3.719,0 -5.93,-6.8 -5.827,-12.897 C 14.171,-27.759 17,-22.715 17,-17 17,-7.612 9.389,0 0,0"
                 inkscape:connector-curvature="0" />
            </g>
            <g
               transform="translate(19,36)"
               id="g210">
              <path
                 id="path212"
                 style="fill:#bdddf4;fill-opacity:1;fill-rule:nonzero;stroke:none"
                 d="m 0,0 c -9.388,0 -17,-7.612 -17,-17 0,-1.126 0.116,-2.225 0.325,-3.291 0.221,0.816 0.566,1.598 0.999,2.347 -0.437,0 -0.791,-0.063 -1.087,-0.173 0.25,0.623 0.777,0.99 1.67,1.078 2.826,3.947 8.516,6.65 15.093,6.65 6.577,0 12.267,-2.702 15.093,-6.649 0.897,-0.088 1.426,-0.455 1.674,-1.079 -0.296,0.11 -0.651,0.173 -1.091,0.173 0.433,-0.749 0.778,-1.531 0.999,-2.347 C 16.885,-19.225 17,-18.126 17,-17 17,-7.612 9.389,0 0,0"
                 inkscape:connector-curvature="0" />
            </g>
            <g
               transform="translate(8.3472,25.0898)"
               id="g214">
              <path
                 id="path216"
                 style="fill:#f5f8fa;fill-opacity:1;fill-rule:nonzero;stroke:none"
                 d="M 0,0 C -0.946,-3.176 0.107,-6.293 2.353,-6.962 4.599,-7.632 7.187,-5.6 8.132,-2.424 9.078,0.751 8.025,3.869 5.781,4.538 3.535,5.207 0.947,3.175 0,0"
                 inkscape:connector-curvature="0" />
            </g>
            <g
               transform="translate(29.6523,25.0898)"
               id="g218">
              <path
                 id="path220"
                 style="fill:#f5f8fa;fill-opacity:1;fill-rule:nonzero;stroke:none"
                 d="m 0,0 c 0.946,-3.176 -0.107,-6.293 -2.352,-6.962 -2.247,-0.67 -4.834,1.362 -5.78,4.538 -0.946,3.175 0.107,6.293 2.351,6.962 C -3.535,5.207 -0.947,3.175 0,0"
                 inkscape:connector-curvature="0" />
            </g>
            <g
               transform="translate(19,19)"
               id="g222">
              <path
                 id="path224"
                 style="fill:#664500;fill-opacity:1;fill-rule:nonzero;stroke:none"
                 d="m 0,0 c -2.757,0 -5,-2.243 -5,-5 l 0,-6 c 0,-2.757 2.243,-5 5,-5 2.757,0 5,2.243 5,5 l 0,6 C 5,-2.243 2.757,0 0,0"
                 inkscape:connector-curvature="0" />
            </g>
            <g
               transform="translate(3.3263,18.0556)"
               id="g226">
              <path
                 id="path228"
                 style="fill:#fcab40;fill-opacity:1;fill-rule:nonzero;stroke:none"
                 d="m 0,0 c -0.439,0 -0.793,-0.063 -1.089,-0.172 0.068,0.168 0.157,0.317 0.265,0.45 -1.758,-2.165 2.188,-9.288 0.271,-16.334 l 6.101,0 C 6.671,-9.482 4.381,0 0,0"
                 inkscape:connector-curvature="0" />
            </g>
            <g
               transform="translate(35.7666,17.8831)"
               id="g230">
              <path
                 id="path232"
                 style="fill:#fcab40;fill-opacity:1;fill-rule:nonzero;stroke:none"
                 d="m 0,0 c -0.296,0.11 -0.652,0.172 -1.093,0.172 -4.383,0 -6.673,-9.446 -5.547,-16.055 l 6.101,0 C -2.338,-9.23 1.026,-2.577 0,0"
                 inkscape:connector-curvature="0" />
            </g>
          </g>
        </g>
      </g>
    </g>
    <g
       transform="matrix(0.07718392,-0.62861256,0.62861256,0.07718392,129.85784,66.115708)"
       id="g234">
      <g
         transform="matrix(1.25,0,0,-1.25,0,45)"
         id="g236">
        <g
           id="g238">
          <g
             clip-path="url(#clipPath16)"
             id="g240">
            <g
               transform="translate(25.8193,25.2695)"
               id="g242">
              <path
                 id="path244"
                 style="fill:#66757f;fill-opacity:1;fill-rule:nonzero;stroke:none"
                 d="m 0,0 c -0.22,-0.132 -0.505,-0.061 -0.637,0.158 l -3.134,5.201 c -0.133,0.219 -0.063,0.504 0.157,0.636 l 0.061,0.038 c 0.22,0.132 0.505,0.062 0.637,-0.158 L 0.22,0.674 C 0.352,0.455 0.281,0.17 0.062,0.038 L 0,0 Z"
                 inkscape:connector-curvature="0" />
            </g>
            <g
               transform="translate(25.2695,25.8193)"
               id="g246">
              <path
                 id="path248"
                 style="fill:#66757f;fill-opacity:1;fill-rule:nonzero;stroke:none"
                 d="m 0,0 c -0.132,-0.219 -0.061,-0.504 0.158,-0.636 l 5.2,-3.135 c 0.22,-0.133 0.505,-0.063 0.637,0.157 l 0.037,0.062 c 0.133,0.219 0.063,0.504 -0.158,0.637 L 0.674,0.22 C 0.455,0.352 0.17,0.282 0.037,0.062 L 0,0 Z"
                 inkscape:connector-curvature="0" />
            </g>
            <g
               transform="translate(13.0488,3.8564)"
               id="g250">
              <path
                 id="path252"
                 style="fill:#be1931;fill-opacity:1;fill-rule:nonzero;stroke:none"
                 d="m 0,0 -3.536,4.95 -0.707,0.707 -4.949,3.535 c -0.391,0.391 -1.024,0.391 -1.414,0 l -2.122,-2.121 c -0.391,-0.39 -0.39,-1.023 0,-1.414 l 9.192,-9.192 c 0.391,-0.391 1.024,-0.391 1.415,0 L 0,-1.414 C 0.391,-1.023 0.391,-0.391 0,0"
                 inkscape:connector-curvature="0" />
            </g>
            <g
               transform="translate(23.2041,18.2534)"
               id="g254">
              <path
                 id="path256"
                 style="fill:#ccd6dd;fill-opacity:1;fill-rule:nonzero;stroke:none"
                 d="m 0,0 c -6.995,-6.994 -19.669,-15.557 -20.088,-15.137 -0.42,0.419 8.144,13.093 15.138,20.087 6.993,6.993 8.821,6.606 10.188,5.238 C 6.604,8.822 6.993,6.994 0,0"
                 inkscape:connector-curvature="0" />
            </g>
            <g
               transform="translate(32.0762,31.3682)"
               id="g258">
              <path
                 id="path260"
                 style="fill:#be1931;fill-opacity:1;fill-rule:nonzero;stroke:none"
                 d="m 0,0 c -0.977,-0.976 -1.927,-1.609 -2.122,-1.414 -0.195,0.195 0.438,1.145 1.414,2.122 C 0.268,1.684 1.219,2.317 1.414,2.122 1.609,1.926 0.976,0.977 0,0"
                 inkscape:connector-curvature="0" />
            </g>
            <g
               transform="translate(23.9443,18.9946)"
               id="g262">
              <path
                 id="path264"
                 style="fill:#ccd6dd;fill-opacity:1;fill-rule:nonzero;stroke:none"
                 d="M 0,0 C -0.781,-0.781 -2.048,-0.781 -2.828,0 L -4.95,2.121 c -0.781,0.781 -0.781,2.048 0,2.829 l 7.778,7.778 c 0.781,0.781 3.222,1.955 4.003,1.173 L 8.952,11.78 C 9.733,10.999 8.56,8.559 7.778,7.778 L 0,0 Z"
                 inkscape:connector-curvature="0" />
            </g>
            <g
               transform="translate(28.5264,32.7974)"
               id="g266">
              <path
                 id="path268"
                 style="fill:#226699;fill-opacity:1;fill-rule:nonzero;stroke:none"
                 d="m 0,0 4.271,-4.271 c 0.365,0.883 0.53,1.817 0.099,2.249 L 2.249,0.099 C 1.818,0.529 0.883,0.364 0,0"
                 inkscape:connector-curvature="0" />
            </g>
            <g
               transform="translate(32.5918,32.2671)"
               id="g270">
              <path
                 id="path272"
                 style="fill:#be1931;fill-opacity:1;fill-rule:nonzero;stroke:none"
                 d="M 0,0 C -0.196,-0.196 -1.145,0.437 -2.121,1.414 -3.098,2.39 -3.731,3.34 -3.535,3.535 -3.34,3.73 -2.391,3.097 -1.414,2.121 -0.437,1.145 0.195,0.195 0,0"
                 inkscape:connector-curvature="0" />
            </g>
            <g
               transform="translate(35.8232,29.0347)"
               id="g274">
              <path
                 id="path276"
                 style="fill:#be1931;fill-opacity:1;fill-rule:nonzero;stroke:none"
                 d="M 0,0 C -0.195,-0.195 -1.145,0.438 -2.121,1.414 -3.098,2.391 -3.731,3.34 -3.535,3.536 -3.34,3.731 -2.391,3.098 -1.414,2.121 -0.437,1.145 0.195,0.195 0,0"
                 inkscape:connector-curvature="0" />
            </g>
            <g
               transform="translate(24.5166,25.8921)"
               id="g278">
              <path
                 id="path280"
                 style="fill:#66757f;fill-opacity:1;fill-rule:nonzero;stroke:none"
                 d="M 0,0 1.375,-1.375 C 1.953,-1.953 2.489,-2.463 2.66,-3.121 l 0.061,0.061 c 0.944,0.945 0.944,2.477 0,3.422 L 1.738,1.344 c -0.944,0.945 -2.476,0.945 -3.422,0 l -0.06,-0.06 C -1.087,1.113 -0.577,0.577 0,0"
                 inkscape:connector-curvature="0" />
            </g>
            <g
               transform="translate(21.8311,29.6099)"
               id="g282">
              <path
                 id="path284"
                 style="fill:#292f33;fill-opacity:1;fill-rule:nonzero;stroke:none"
                 d="m 0,0 c -0.34,-0.34 -0.893,-0.34 -1.233,0 l -0.18,0.181 c -0.341,0.34 -0.341,0.893 -10e-4,1.233 l 1.596,1.595 c 0.339,0.341 0.892,0.341 1.233,0 l 0.18,-0.18 C 1.936,2.488 1.936,1.936 1.596,1.595 L 0,0 Z"
                 inkscape:connector-curvature="0" />
            </g>
            <g
               transform="translate(30.9902,20.3838)"
               id="g286">
              <path
                 id="path288"
                 style="fill:#292f33;fill-opacity:1;fill-rule:nonzero;stroke:none"
                 d="m 0,0 c -0.322,-0.322 -0.844,-0.322 -1.166,0 l -0.248,0.248 c -0.322,0.322 -0.322,0.844 0,1.166 l 1.662,1.663 c 0.322,0.321 0.844,0.321 1.166,0 L 1.662,2.828 c 0.322,-0.322 0.322,-0.844 0,-1.166 L 0,0 Z"
                 inkscape:connector-curvature="0" />
            </g>
            <g
               transform="translate(3.8652,8.7979)"
               id="g290">
              <path
                 id="path70"
                 style="fill:#ea596e;fill-opacity:1;fill-rule:nonzero;stroke:none"
                 d="m 0,0 -0.716,0.716 -1.423,1.423 c -0.385,0.385 -1.011,0.385 -1.397,0 L -3.553,2.122 c -0.385,-0.387 -0.385,-1.012 0,-1.397 l 1.423,-1.423 0.715,-0.716 0.699,-0.698 0.699,0.698 L 0,-1.397 0.698,-0.698 0,0 Z"
                 inkscape:connector-curvature="0" />
            </g>
            <g
               transform="translate(10.9277,1.7354)"
               id="g72">
              <path
                 id="path74"
                 style="fill:#ea596e;fill-opacity:1;fill-rule:nonzero;stroke:none"
                 d="m 0,0 -1.44,1.44 -0.682,0.681 -0.707,0.707 -1.414,-1.414 0.707,-0.707 0.681,-0.681 1.44,-1.44 c 0.392,-0.391 1.024,-0.391 1.415,0 0.391,0.391 0.391,1.023 0,1.414"
                 inkscape:connector-curvature="0" />
            </g>
            <g
               transform="translate(7.1191,6.5254)"
               id="g295">
              <path
                 id="path297"
                 style="fill:#be1931;fill-opacity:1;fill-rule:nonzero;stroke:none"
                 d="m 0,0 c -2.047,-2.047 -3.84,-3.573 -4.003,-3.409 -0.164,0.163 1.362,1.956 3.409,4.003 2.048,2.048 3.84,3.574 4.004,3.41 C 3.574,3.84 2.047,2.048 0,0"
                 inkscape:connector-curvature="0" />
            </g>
            <g
               transform="translate(35.1318,12.8271)"
               id="g299">
              <path
                 id="path82"
                 style="fill:#be1931;fill-opacity:1;fill-rule:nonzero;stroke:none"
                 d="m 0,0 -22.329,22.328 c -0.781,0.781 -2.047,0.781 -2.829,0 l -2.535,-2.95 8.226,-10.64 5.9,-5.899 L -2.95,-5.365 0,-2.828 C 0.781,-2.049 0.781,-0.781 0,0"
                 inkscape:connector-curvature="0" />
            </g>
            <g
               transform="translate(16.5249,25.5103)"
               id="g84">
              <path
                 id="path86"
                 style="fill:#ea596e;fill-opacity:1;fill-rule:nonzero;stroke:none"
                 d="M 0,0 -7.981,7.981 -9.086,6.695 -2.205,-2.205 0,0 Z"
                 inkscape:connector-curvature="0" />
            </g>
            <g
               transform="translate(33.4678,8.5674)"
               id="g304">
              <path
                 id="path306"
                 style="fill:#ea596e;fill-opacity:1;fill-rule:nonzero;stroke:none"
                 d="M 0,0 -8.457,8.458 -10.726,6.189 -1.286,-1.105 0,0 Z"
                 inkscape:connector-curvature="0" />
            </g>
          </g>
        </g>
      </g>
    </g>
    <g
       transform="matrix(0.1532172,-0.61452063,0.61452063,0.1532172,26.224143,131.23116)"
       id="g308">
      <g
         transform="matrix(1.25,0,0,-1.25,0,47.5)"
         id="g310">
        <g
           id="g312">
          <g
             clip-path="url(#clipPath16)"
             id="g314">
            <g
               transform="translate(36,19)"
               id="g316">
              <path
                 id="path318"
                 style="fill:#ffcc4d;fill-opacity:1;fill-rule:nonzero;stroke:none"
                 d="m 0,0 c 0,-9.389 -7.611,-17 -17,-17 -9.388,0 -17,7.611 -17,17 0,9.388 7.612,17 17,17 C -7.611,17 0,9.388 0,0"
                 inkscape:connector-curvature="0" />
            </g>
            <g
               transform="translate(15,20.5)"
               id="g320">
              <path
                 id="path322"
                 style="fill:#664500;fill-opacity:1;fill-rule:nonzero;stroke:none"
                 d="M 0,0 C 0,-1.934 -1.119,-3.5 -2.5,-3.5 -3.881,-3.5 -5,-1.934 -5,0 -5,1.933 -3.881,3.5 -2.5,3.5 -1.119,3.5 0,1.933 0,0"
                 inkscape:connector-curvature="0" />
            </g>
            <g
               transform="translate(29.457,19.2031)"
               id="g324">
              <path
                 id="path326"
                 style="fill:#664500;fill-opacity:1;fill-rule:nonzero;stroke:none"
                 d="m 0,0 c -0.059,0.135 -1.499,3.297 -4.457,3.297 -2.957,0 -4.397,-3.162 -4.457,-3.297 -0.092,-0.207 -0.032,-0.449 0.144,-0.591 0.175,-0.142 0.426,-0.147 0.611,-0.014 0.012,0.009 1.262,0.902 3.702,0.902 2.426,0 3.674,-0.881 3.702,-0.901 0.088,-0.066 0.194,-0.099 0.298,-0.099 0.11,0 0.221,0.037 0.312,0.109 C 0.032,-0.452 0.093,-0.208 0,0"
                 inkscape:connector-curvature="0" />
            </g>
            <g
               transform="translate(6.999,24.542)"
               id="g328">
              <path
                 id="path330"
                 style="fill:#664500;fill-opacity:1;fill-rule:nonzero;stroke:none"
                 d="m 0,0 c -0.208,0 -0.419,0.065 -0.599,0.2 -0.442,0.331 -0.531,0.958 -0.2,1.4 3.262,4.35 7.616,4.4 7.8,4.4 0.552,0 1,-0.448 1,-1 C 8.001,4.449 7.556,4.002 7.005,4 6.85,3.998 3.436,3.914 0.801,0.4 0.604,0.138 0.304,0 0,0"
                 inkscape:connector-curvature="0" />
            </g>
            <g
               transform="translate(30.001,22.4165)"
               id="g332">
              <path
                 id="path334"
                 style="fill:#664500;fill-opacity:1;fill-rule:nonzero;stroke:none"
                 d="M 0,0 C -0.305,0 -0.605,0.138 -0.801,0.4 -3.393,3.856 -7.762,3.027 -7.805,3.02 -8.352,2.912 -8.873,3.263 -8.982,3.804 -9.09,4.345 -8.738,4.872 -8.197,4.98 -7.967,5.027 -2.54,6.052 0.799,1.6 1.131,1.158 1.041,0.531 0.599,0.2 0.419,0.065 0.209,0 0,0"
                 inkscape:connector-curvature="0" />
            </g>
            <g
               transform="translate(24.2539,13.4229)"
               id="g336">
              <path
                 id="path338"
                 style="fill:#664500;fill-opacity:1;fill-rule:nonzero;stroke:none"
                 d="m 0,0 c -0.187,0.11 -0.432,0.087 -0.597,-0.06 -0.009,-0.007 -1.013,-0.863 -4.657,-0.863 -3.641,0 -4.645,0.854 -4.646,0.854 -0.16,0.16 -0.405,0.19 -0.601,0.082 -0.195,-0.112 -0.293,-0.339 -0.238,-0.557 0.011,-0.044 1.145,-4.379 5.485,-4.379 4.34,0 5.474,4.335 5.485,4.379 C 0.284,-0.331 0.187,-0.113 0,0"
                 inkscape:connector-curvature="0" />
            </g>
          </g>
        </g>
      </g>
    </g>
    <g
       transform="matrix(0.2923717,0.95630476,-0.95630476,0.2923717,107.01455,92.630964)"
       id="g340">
      <g
         transform="matrix(1.25,0,0,-1.25,0,45)"
         id="g342">
        <g
           id="g344">
          <g
             clip-path="url(#clipPath16)"
             id="g346">
            <g
               transform="translate(33.2031,22.6992)"
               id="g348">
              <path
                 id="path350"
                 style="fill:#e1e8ed;fill-opacity:1;fill-rule:nonzero;stroke:none"
                 d="m 0,0 -21.213,-21.214 -10.607,10.607 21.214,21.213 c 1.952,1.953 5.91,1.161 8.838,-1.768 C 1.161,5.909 1.952,1.952 0,0"
                 inkscape:connector-curvature="0" />
            </g>
          </g>
        </g>
        <g
           id="g352">
          <g
             clip-path="url(#clipPath28)"
             id="g354">
            <g
               transform="translate(1.3828,12.0918)"
               id="g356">
              <path
                 id="path358"
                 style="fill:#99aab5;fill-opacity:1;fill-rule:nonzero;stroke:none"
                 d="M 0,0 24.749,24.749 30.305,19.193 5.556,-5.556 0,0 Z"
                 inkscape:connector-curvature="0" />
            </g>
          </g>
        </g>
        <g
           id="g360">
          <g
             clip-path="url(#clipPath40)"
             id="g38">
            <g
               transform="translate(10.2217,10.3242)"
               id="g363">
              <path
                 id="path365"
                 style="fill:#66757f;fill-opacity:1;fill-rule:nonzero;stroke:none"
                 d="M 0,0 C -2.928,2.929 -6.886,3.721 -8.839,1.768 -10.792,-0.186 -10,-4.143 -7.071,-7.07 -4.142,-10 -0.185,-10.791 1.768,-8.839 3.721,-6.886 2.929,-2.93 0,0"
                 inkscape:connector-curvature="0" />
            </g>
            <g
               transform="translate(31.6797,31.2764)"
               id="g367">
              <path
                 id="path369"
                 style="fill:#ccd6dd;fill-opacity:1;fill-rule:nonzero;stroke:none"
                 d="M 0,0 C 2.722,-2.898 3.419,-6.682 1.523,-8.577 L -19.69,-29.791 c 1.953,1.953 1.161,5.909 -1.768,8.839 l -3.889,3.889 L -4.134,4.15 0.008,0.009 0,0 Z"
                 inkscape:connector-curvature="0" />
            </g>
            <g
               transform="translate(33.0938,32.6904)"
               id="g371">
              <path
                 id="path373"
                 style="fill:#e1e8ed;fill-opacity:1;fill-rule:nonzero;stroke:none"
                 d="M 0,0 C 2.722,-2.898 3.42,-6.682 1.523,-8.577 L -19.69,-29.79 c 1.953,1.952 1.162,5.909 -1.768,8.838 l -2.475,2.475 L -2.72,2.736 0.008,0.009 0,0 Z"
                 inkscape:connector-curvature="0" />
            </g>
            <g
               transform="translate(2.2104,10.9971)"
               id="g375">
              <path
                 id="path377"
                 style="fill:#99aab5;fill-opacity:1;fill-rule:nonzero;stroke:none"
                 d="m 0,0 c -1.402,-1.401 -0.838,-4.371 1.281,-6.759 1.916,-2.158 4.948,-4.008 7.187,-2.123 0.761,0.633 1.163,1.608 1.146,2.735 -0.028,1.974 -1.298,4.193 -3.313,5.79 -0.324,0.258 -0.788,0.2 -1.054,-0.121 C 4.99,-0.803 5.044,-1.274 5.369,-1.531 7.015,-2.836 8.093,-4.657 8.114,-6.169 8.121,-6.643 8.02,-7.299 7.502,-7.735 c -1.513,-1.274 -3.917,0.64 -5.099,1.97 -1.675,1.888 -2.052,3.994 -1.342,4.704 0.183,0.184 0.411,0.232 0.695,0.148 0.877,-0.262 2,-1.662 2.534,-4.205 0.085,-0.406 0.483,-0.666 0.888,-0.581 0.405,0.086 0.665,0.483 0.579,0.888 C 5.168,-2.001 3.799,0.042 2.185,0.524 1.371,0.767 0.576,0.575 0,0"
                 inkscape:connector-curvature="0" />
            </g>
            <g
               transform="translate(28.4316,31.7139)"
               id="g379">
              <path
                 id="path381"
                 style="fill:#99aab5;fill-opacity:1;fill-rule:nonzero;stroke:none"
                 d="M 0,0 C -0.02,-0.019 -0.038,-0.038 -0.055,-0.06 -0.315,-0.382 -0.264,-0.854 0.058,-1.114 0.089,-1.139 3.157,-3.653 3.314,-6.931 3.335,-7.344 3.688,-7.663 4.1,-7.643 4.515,-7.622 4.833,-7.27 4.814,-6.857 4.623,-2.897 1.146,-0.063 0.997,0.055 0.696,0.297 0.267,0.268 0,0"
                 inkscape:connector-curvature="0" />
            </g>
            <g
               transform="translate(26.3096,29.5928)"
               id="g383">
              <path
                 id="path385"
                 style="fill:#99aab5;fill-opacity:1;fill-rule:nonzero;stroke:none"
                 d="M 0,0 C -0.019,-0.019 -0.037,-0.038 -0.055,-0.06 -0.314,-0.382 -0.263,-0.854 0.059,-1.114 0.09,-1.139 3.158,-3.653 3.315,-6.931 3.336,-7.345 3.688,-7.663 4.101,-7.643 4.515,-7.622 4.833,-7.271 4.814,-6.857 4.623,-2.898 1.146,-0.064 0.998,0.055 0.697,0.297 0.268,0.268 0,0"
                 inkscape:connector-curvature="0" />
            </g>
            <g
               transform="translate(17.8242,21.1074)"
               id="g387">
              <path
                 id="path389"
                 style="fill:#99aab5;fill-opacity:1;fill-rule:nonzero;stroke:none"
                 d="m 0,0 c -0.019,-0.019 -0.037,-0.038 -0.054,-0.06 -0.26,-0.322 -0.209,-0.794 0.113,-1.054 0.031,-0.025 3.099,-2.539 3.256,-5.817 0.021,-0.413 0.373,-0.732 0.786,-0.712 0.414,0.022 0.732,0.372 0.713,0.786 C 4.623,-2.898 1.146,-0.064 0.998,0.055 0.697,0.297 0.268,0.268 0,0"
                 inkscape:connector-curvature="0" />
            </g>
            <g
               transform="translate(12.875,16.1582)"
               id="g391">
              <path
                 id="path393"
                 style="fill:#99aab5;fill-opacity:1;fill-rule:nonzero;stroke:none"
                 d="m 0,0 c -0.019,-0.02 -0.038,-0.039 -0.055,-0.061 -0.26,-0.322 -0.208,-0.794 0.113,-1.054 0.032,-0.025 3.1,-2.539 3.257,-5.817 0.02,-0.413 0.373,-0.732 0.786,-0.711 0.414,0.02 0.732,0.372 0.713,0.786 C 4.623,-2.898 1.146,-0.064 0.998,0.055 0.697,0.296 0.267,0.268 0,0"
                 inkscape:connector-curvature="0" />
            </g>
            <g
               transform="translate(24.7754,16.4609)"
               id="g395">
              <path
                 id="path397"
                 style="fill:#5dadec;fill-opacity:1;fill-rule:nonzero;stroke:none"
                 d="M 0,0 C 1.296,1.348 3.49,3.383 3.756,3.661 4.369,4.303 2.215,9.133 0.454,10.515 0.068,10.817 -0.405,10.572 -0.608,10.364 -2.104,8.833 -3.291,7.645 -4.285,6.656 -4.517,6.426 -4.65,6.005 -4.324,5.704 -3.257,4.72 -1.338,2.28 -0.796,0.041 -0.732,-0.219 -0.269,-0.281 0,0"
                 inkscape:connector-curvature="0" />
            </g>
          </g>
        </g>
      </g>
    </g>
    <g
       transform="matrix(-0.58462204,0.13497063,-0.13497063,-0.58462204,144.08241,164.12092)"
       id="g399">
      <g
         transform="matrix(1.25,0,0,-1.25,0,47.5)"
         id="g401">
        <g
           id="g403">
          <g
             clip-path="url(#clipPath16)"
             id="g405">
            <g
               transform="translate(29,10)"
               id="g407">
              <path
                 id="path409"
                 style="fill:#3e721d;fill-opacity:1;fill-rule:nonzero;stroke:none"
                 d="m 0,0 c -8,0 -8,-6 -8,-6 l 0,11 -4,0 0,-11 c 0,0 0,6 -8,6 -4,0 -7,2 -7,2 0,0 0,-9 9,-9 l 6,0 c 0,0 0,-2 2,-2 2,0 2,2 2,2 l 6,0 C 7,-7 7,2 7,2 7,2 4,0 0,0"
                 inkscape:connector-curvature="0" />
            </g>
            <g
               transform="translate(22.125,9.3379)"
               id="g411">
              <path
                 id="path413"
                 style="fill:#ffac33;fill-opacity:1;fill-rule:nonzero;stroke:none"
                 d="M 0,0 C -0.328,0 -0.651,0.097 -0.927,0.283 L -3.25,1.858 -5.572,0.283 C -5.849,0.097 -6.173,0 -6.501,0 -6.645,0 -6.788,0.018 -6.93,0.057 -7.392,0.18 -7.78,0.498 -7.99,0.931 L -9.214,3.458 -12.012,3.254 C -12.051,3.252 -12.091,3.25 -12.13,3.25 c -0.438,0 -0.86,0.174 -1.17,0.484 -0.34,0.342 -0.516,0.811 -0.482,1.288 l 0.201,2.8 -2.523,1.225 c -0.432,0.209 -0.751,0.598 -0.875,1.061 -0.125,0.464 -0.042,0.958 0.228,1.356 l 1.573,2.323 -1.573,2.322 c -0.27,0.398 -0.353,0.893 -0.228,1.358 0.124,0.462 0.443,0.85 0.875,1.06 l 2.523,1.224 -0.201,2.798 c -0.034,0.48 0.142,0.951 0.482,1.288 0.309,0.312 0.732,0.485 1.17,0.485 0.039,0 0.079,0 0.118,-0.003 l 2.798,-0.201 1.224,2.523 c 0.21,0.432 0.598,0.751 1.06,0.876 0.142,0.037 0.285,0.057 0.429,0.057 0.328,0 0.651,-0.098 0.929,-0.285 l 2.322,-1.574 2.323,1.574 c 0.276,0.187 0.599,0.285 0.927,0.285 0.144,0 0.29,-0.02 0.428,-0.057 0.465,-0.125 0.853,-0.444 1.062,-0.876 l 1.225,-2.523 2.8,0.201 c 0.037,0.003 0.078,0.003 0.116,0.003 0.437,0 0.858,-0.173 1.172,-0.485 0.338,-0.337 0.514,-0.808 0.48,-1.288 L 7.079,19.751 9.606,18.527 c 0.433,-0.21 0.751,-0.598 0.874,-1.06 0.124,-0.465 0.043,-0.96 -0.226,-1.358 l -1.575,-2.322 1.575,-2.323 c 0.269,-0.398 0.35,-0.892 0.226,-1.356 C 10.357,9.645 10.039,9.256 9.606,9.047 L 7.079,7.822 7.283,5.022 C 7.317,4.545 7.141,4.076 6.803,3.734 6.489,3.424 6.068,3.25 5.631,3.25 5.593,3.25 5.552,3.252 5.515,3.254 L 2.715,3.458 1.49,0.931 C 1.281,0.498 0.893,0.18 0.428,0.057 0.289,0.018 0.144,0 0,0"
                 inkscape:connector-curvature="0" />
            </g>
            <g
               transform="translate(26,23)"
               id="g415">
              <path
                 id="path417"
                 style="fill:#732700;fill-opacity:1;fill-rule:nonzero;stroke:none"
                 d="m 0,0 c 0,3.866 -3.135,7 -7,7 -3.866,0 -7,-3.134 -7,-7 0,-3.866 3.134,-7 7,-7 3.865,0 7,3.134 7,7"
                 inkscape:connector-curvature="0" />
            </g>
          </g>
        </g>
      </g>
    </g>
    <g
       transform="matrix(-0.63948182,0.28471565,-0.28471565,-0.63948182,58.600528,96.592873)"
       id="g419">
      <g
         transform="matrix(1.25,0,0,-1.25,0,45)"
         id="g421">
        <g
           id="g423">
          <g
             clip-path="url(#clipPath16)"
             id="g425">
            <g
               transform="translate(27.7852,16.0596)"
               id="g427">
              <path
                 id="path429"
                 style="fill:#f4900c;fill-opacity:1;fill-rule:nonzero;stroke:none"
                 d="m 0,0 c -0.311,-0.431 -0.665,-0.812 -1.04,-1.167 -1.274,0.985 -2.839,1.789 -4.745,2.107 -0.341,0.057 -0.654,0.126 -0.95,0.202 1.372,1.525 1.95,3.322 1.95,4.798 0,1.502 -0.314,2.816 -0.861,3.941 0.285,0.036 0.573,0.059 0.861,0.059 1.15,0 4.947,0.159 6,-3 C 2.011,4.553 1.625,2.254 0,0 m -9.785,-4.06 c -2.297,0 -4.476,0.394 -6.324,1.266 0.657,0.372 1.415,0.643 2.324,0.734 1.565,0.158 2.885,0.525 4,1.025 1.115,-0.5 2.435,-0.867 4,-1.025 0.909,-0.091 1.667,-0.362 2.324,-0.734 C -5.31,-3.666 -7.489,-4.06 -9.785,-4.06 M -19.57,0 c -1.625,2.254 -2.011,4.553 -1.215,6.94 1.053,3.159 4.849,3 6,3 0.288,0 0.575,-0.023 0.861,-0.059 -0.548,-1.125 -0.861,-2.439 -0.861,-3.941 0,-1.476 0.578,-3.273 1.95,-4.798 -0.297,-0.076 -0.609,-0.145 -0.95,-0.202 -1.907,-0.318 -3.471,-1.122 -4.745,-2.107 -0.375,0.355 -0.73,0.736 -1.04,1.167 m 9.785,2.733 c -1.422,1.471 -1,3.207 -1,3.207 0,0.708 0.381,1.415 1,2.034 0.619,-0.619 1,-1.326 1,-2.034 0,0 0.422,-1.736 -1,-3.207 m 17,1.207 c 0,8 -6,11 -12,11 -1.738,0 -3.472,-0.371 -5,-1.096 -1.529,0.725 -3.262,1.096 -5,1.096 -6,0 -12,-3 -12,-11 0,-3 1.314,-5.662 3,-8 0.433,-0.601 0.903,-1.146 1.4,-1.647 -0.357,-0.603 -0.617,-1.091 -0.779,-1.353 -0.621,-1 0.379,-2 1.379,-2 0.69,0 1.205,0.618 1.745,1.483 2.807,-1.756 6.277,-2.483 10.255,-2.483 3.977,0 7.448,0.727 10.255,2.483 0.54,-0.865 1.055,-1.483 1.745,-1.483 1,0 2,1 1.379,2 -0.163,0.262 -0.422,0.75 -0.78,1.353 0.497,0.501 0.967,1.046 1.401,1.647 1.685,2.338 3,5 3,8"
                 inkscape:connector-curvature="0" />
            </g>
            <g
               id="g431">
              <g
                 id="g433" />
              <g
                 id="g435">
                <g
                   style="opacity:0.5"
                   id="g34"
                   clip-path="url(#clipPath28)">
                  <g
                     id="g438"
                     transform="translate(11.751,13.2363)">
                    <path
                       id="path440"
                       style="fill:#662113;fill-opacity:1;fill-rule:nonzero;stroke:none"
                       d="M 0,0 C -0.794,-0.448 -1.78,-1.172 -2.376,-2.236 -3.064,-3.465 -3.594,-4.27 -3.96,-4.78 c 0.335,-0.207 0.679,-0.403 1.032,-0.581 0.353,0.692 0.878,1.653 1.552,2.687 0.768,1.179 1.902,1.912 2.489,2.238 C 0.732,-0.305 0.357,-0.166 0,0"
                       inkscape:connector-curvature="0" />
                  </g>
                </g>
              </g>
            </g>
            <g
               id="g442">
              <g
                 id="g42" />
              <g
                 id="g445">
                <g
                   style="opacity:0.5"
                   id="g50"
                   clip-path="url(#clipPath44)">
                  <g
                     id="g448"
                     transform="translate(23.4434,13.6699)">
                    <path
                       id="path450"
                       style="fill:#662113;fill-opacity:1;fill-rule:nonzero;stroke:none"
                       d="m 0,0 -0.005,-0.002 c 0.314,-0.114 0.611,-0.247 0.886,-0.402 -0.191,-0.09 -0.4,-0.154 -0.597,-0.234 0.565,-0.415 1.348,-1.092 1.96,-2.032 0.74,-1.136 1.377,-2.218 1.797,-2.952 0.26,0.14 0.52,0.278 0.77,0.435 0.188,-0.3 0.373,-0.568 0.562,-0.793 0,0 -0.562,0.793 -2.004,3.31 C 1.927,-0.152 0,0 0,0"
                       inkscape:connector-curvature="0" />
                  </g>
                </g>
              </g>
            </g>
            <g
               id="g452">
              <g
                 id="g58" />
              <g
                 id="g455">
                <g
                   style="opacity:0.5"
                   id="g66"
                   clip-path="url(#clipPath60)">
                  <g
                     id="g458"
                     transform="translate(21.0498,17.2012)">
                    <path
                       id="path460"
                       style="fill:#662113;fill-opacity:1;fill-rule:nonzero;stroke:none"
                       d="m 0,0 c 0.05,0.055 0.09,0.112 0.138,0.168 -0.569,-0.444 -1.34,-1.055 -2.024,-1.622 -0.357,-0.297 -0.762,-0.531 -1.161,-0.724 0.401,-0.179 0.839,-0.335 1.296,-0.477 0.523,0.293 1.157,0.698 1.701,1.204 0.561,0.52 0.892,0.92 1.081,1.23 C 1.003,-0.216 0.979,-0.206 0.95,-0.201 0.609,-0.145 0.297,-0.075 0,0"
                       inkscape:connector-curvature="0" />
                  </g>
                </g>
              </g>
            </g>
            <g
               id="g462">
              <g
                 id="g74" />
              <g
                 id="g465">
                <g
                   style="opacity:0.5"
                   id="g467"
                   clip-path="url(#clipPath76)">
                  <g
                     id="g469"
                     transform="translate(18.5835,23.2886)">
                    <path
                       id="path471"
                       style="fill:#662113;fill-opacity:1;fill-rule:nonzero;stroke:none"
                       d="M 0,0 C 0.732,0.612 2.127,1.524 3.951,1.669 3.841,1.994 3.717,2.307 3.575,2.604 2.992,2.514 2.19,2.355 1.417,2.086 0.54,1.781 -0.164,1.172 -0.581,0.743 -0.346,0.507 -0.159,0.256 0,0"
                       inkscape:connector-curvature="0" />
                  </g>
                </g>
              </g>
            </g>
            <g
               transform="translate(13,29)"
               id="g473">
              <path
                 id="path475"
                 style="fill:#ffe8b6;fill-opacity:1;fill-rule:nonzero;stroke:none"
                 d="m 0,0 c 0,-0.552 -0.448,-1 -1,-1 -0.552,0 -1,0.448 -1,1 0,0.552 0.448,1 1,1 0.552,0 1,-0.448 1,-1"
                 inkscape:connector-curvature="0" />
            </g>
            <g
               transform="translate(23,28)"
               id="g477">
              <path
                 id="path94"
                 style="fill:#ffe8b6;fill-opacity:1;fill-rule:nonzero;stroke:none"
                 d="m 0,0 c 0,-0.552 -0.447,-1 -1,-1 -0.553,0 -1,0.448 -1,1 0,0.552 0.447,1 1,1 0.553,0 1,-0.448 1,-1"
                 inkscape:connector-curvature="0" />
            </g>
            <g
               transform="translate(20,27)"
               id="g96">
              <path
                 id="path98"
                 style="fill:#ffe8b6;fill-opacity:1;fill-rule:nonzero;stroke:none"
                 d="m 0,0 c 0,-0.552 -0.447,-1 -1,-1 -0.553,0 -1,0.448 -1,1 0,0.552 0.447,1 1,1 0.553,0 1,-0.448 1,-1"
                 inkscape:connector-curvature="0" />
            </g>
            <g
               transform="translate(4,22)"
               id="g482">
              <path
                 id="path484"
                 style="fill:#ffe8b6;fill-opacity:1;fill-rule:nonzero;stroke:none"
                 d="m 0,0 c 0,-0.553 -0.447,-1 -1,-1 -0.553,0 -1,0.447 -1,1 0,0.553 0.447,1 1,1 0.553,0 1,-0.447 1,-1"
                 inkscape:connector-curvature="0" />
            </g>
            <g
               transform="translate(7,25)"
               id="g104">
              <path
                 id="path106"
                 style="fill:#ffe8b6;fill-opacity:1;fill-rule:nonzero;stroke:none"
                 d="m 0,0 c 0,-0.553 -0.447,-1 -1,-1 -0.553,0 -1,0.447 -1,1 0,0.553 0.447,1 1,1 0.553,0 1,-0.447 1,-1"
                 inkscape:connector-curvature="0" />
            </g>
            <g
               transform="translate(32,19)"
               id="g108">
              <path
                 id="path110"
                 style="fill:#ffe8b6;fill-opacity:1;fill-rule:nonzero;stroke:none"
                 d="m 0,0 c 0,-0.553 -0.447,-1 -1,-1 -0.553,0 -1,0.447 -1,1 0,0.553 0.447,1 1,1 0.553,0 1,-0.447 1,-1"
                 inkscape:connector-curvature="0" />
            </g>
            <g
               transform="translate(32,27)"
               id="g112">
              <path
                 id="path114"
                 style="fill:#ffe8b6;fill-opacity:1;fill-rule:nonzero;stroke:none"
                 d="m 0,0 c 0,-0.553 -0.447,-1 -1,-1 -0.553,0 -1,0.447 -1,1 0,0.553 0.447,1 1,1 0.553,0 1,-0.447 1,-1"
                 inkscape:connector-curvature="0" />
            </g>
            <g
               transform="translate(15,9)"
               id="g116">
              <path
                 id="path118"
                 style="fill:#ffe8b6;fill-opacity:1;fill-rule:nonzero;stroke:none"
                 d="m 0,0 c 0,-0.553 -0.447,-1 -1,-1 -0.553,0 -1,0.447 -1,1 0,0.553 0.447,1 1,1 0.553,0 1,-0.447 1,-1"
                 inkscape:connector-curvature="0" />
            </g>
            <g
               transform="translate(22,10)"
               id="g120">
              <path
                 id="path122"
                 style="fill:#ffe8b6;fill-opacity:1;fill-rule:nonzero;stroke:none"
                 d="m 0,0 c 0,-0.553 -0.447,-1 -1,-1 -0.553,0 -1,0.447 -1,1 0,0.553 0.447,1 1,1 0.553,0 1,-0.447 1,-1"
                 inkscape:connector-curvature="0" />
            </g>
            <g
               transform="translate(26,9)"
               id="g124">
              <path
                 id="path126"
                 style="fill:#ffe8b6;fill-opacity:1;fill-rule:nonzero;stroke:none"
                 d="m 0,0 c 0,-0.553 -0.447,-1 -1,-1 -0.553,0 -1,0.447 -1,1 0,0.553 0.447,1 1,1 0.553,0 1,-0.447 1,-1"
                 inkscape:connector-curvature="0" />
            </g>
            <g
               transform="translate(8,14)"
               id="g128">
              <path
                 id="path130"
                 style="fill:#ffe8b6;fill-opacity:1;fill-rule:nonzero;stroke:none"
                 d="m 0,0 c 0,-0.553 -0.447,-1 -1,-1 -0.553,0 -1,0.447 -1,1 0,0.553 0.447,1 1,1 0.553,0 1,-0.447 1,-1"
                 inkscape:connector-curvature="0" />
            </g>
          </g>
        </g>
      </g>
    </g>
    <g
       transform="matrix(-0.37176678,-0.42766876,0.42766876,-0.37176678,160.33506,99.059677)"
       id="g500">
      <g
         transform="matrix(1.25,0,0,-1.25,0,45)"
         id="g502">
        <g
           id="g504">
          <g
             clip-path="url(#clipPath16)"
             id="g506">
            <g
               transform="translate(32.3252,25.0415)"
               id="g508">
              <path
                 id="path510"
                 style="fill:#662113;fill-opacity:1;fill-rule:nonzero;stroke:none"
                 d="M 0,0 C 0,0 2.315,-0.024 3.511,-1.177 3.175,3.794 1.407,7.072 -2.434,8.953 -5.574,10.072 -8.5,7.5 -8.5,7.5 c 0,0 0.862,1.99 2.19,2.746 -2.226,0.477 -4.869,0.712 -8.015,0.712 -3.136,0 -5.785,-0.226 -8.007,-0.7 1.342,-0.745 2.215,-2.758 2.215,-2.758 0,0 -3.014,2.656 -6.209,1.405 -3.778,-1.895 -5.518,-5.169 -5.841,-10.12 1.183,1.19 3.55,1.215 3.55,1.215 0,0 -3.813,-2.308 -3.425,-5.655 0.387,-2.947 1.394,-5.967 2.878,-8.722 -0.122,3.185 2.756,5.335 2.756,5.335 0,0 -2.492,-5.96 -0.581,-8.738 1.935,-2.542 4.313,-4.64 6.975,-5.916 -0.954,1.645 -0.135,3.044 -0.103,2.945 0.042,-0.125 0.459,-3.112 2.138,-3.743 1.178,-0.355 2.4,-0.548 3.654,-0.548 1.292,0 2.55,0.207 3.761,0.583 1.614,0.692 2.023,3.585 2.064,3.708 0.032,0.098 0.843,-1.287 -0.09,-2.92 2.706,1.308 5.118,3.463 7.065,6.073 1.698,2.846 -0.684,8.556 -0.684,8.556 0,0 2.85,-2.129 2.757,-5.288 1.556,2.907 2.585,6.105 2.911,9.2 C 3.424,-2.068 0,0 0,0"
                 inkscape:connector-curvature="0" />
            </g>
            <g
               transform="translate(13.8594,26.5049)"
               id="g512">
              <path
                 id="path514"
                 style="fill:#ffcc4d;fill-opacity:1;fill-rule:nonzero;stroke:none"
                 d="m 0,0 c 0.596,-2.392 0.16,-4.422 -2.232,-5.017 -2.392,-0.596 -6.363,-0.087 -6.958,2.304 -0.596,2.392 0.469,5.39 1.811,5.724 C -6.038,3.345 -0.595,2.392 0,0"
                 inkscape:connector-curvature="0" />
            </g>
            <g
               transform="translate(22.9629,8.0732)"
               id="g516">
              <path
                 id="path518"
                 style="fill:#ffcc4d;fill-opacity:1;fill-rule:nonzero;stroke:none"
                 d="m 0,0 c 0,-2.74 -2.222,-4.963 -4.963,-4.963 -2.741,0 -4.963,2.223 -4.963,4.963 0,2.741 2.222,4.964 4.963,4.964 C -2.222,4.964 0,2.741 0,0"
                 inkscape:connector-curvature="0" />
            </g>
            <g
               transform="translate(21.3086,8.0732)"
               id="g520">
              <path
                 id="path522"
                 style="fill:#dd2e44;fill-opacity:1;fill-rule:nonzero;stroke:none"
                 d="m 0,0 c 0,-1.827 -1.481,-3.309 -3.309,-3.309 -1.827,0 -3.308,1.482 -3.308,3.309 0,1.827 1.481,3.31 3.308,3.31 C -1.481,3.31 0,1.827 0,0"
                 inkscape:connector-curvature="0" />
            </g>
            <g
               transform="translate(11.0518,27.0034)"
               id="g524">
              <path
                 id="path526"
                 style="fill:#e6aaaa;fill-opacity:1;fill-rule:nonzero;stroke:none"
                 d="M 0,0 C 0.871,-1.393 0.447,-3.229 -0.946,-4.1 -2.339,-4.971 -3.554,-4.897 -4.424,-3.503 -5.295,-2.11 -4.61,0.627 -4.1,0.946 -3.59,1.265 -0.871,1.394 0,0"
                 inkscape:connector-curvature="0" />
            </g>
            <g
               transform="translate(22.1406,26.5049)"
               id="g528">
              <path
                 id="path530"
                 style="fill:#ffcc4d;fill-opacity:1;fill-rule:nonzero;stroke:none"
                 d="M 0,0 C -0.596,-2.392 -0.159,-4.422 2.232,-5.017 4.624,-5.613 8.595,-5.104 9.191,-2.713 9.786,-0.321 8.721,2.677 7.38,3.011 6.038,3.345 0.595,2.392 0,0"
                 inkscape:connector-curvature="0" />
            </g>
            <g
               transform="translate(24.9482,27.0034)"
               id="g532">
              <path
                 id="path534"
                 style="fill:#e6aaaa;fill-opacity:1;fill-rule:nonzero;stroke:none"
                 d="M 0,0 C -0.871,-1.393 -0.447,-3.229 0.945,-4.1 2.34,-4.971 3.554,-4.897 4.424,-3.503 5.295,-2.11 4.609,0.627 4.1,0.946 3.59,1.265 0.871,1.394 0,0"
                 inkscape:connector-curvature="0" />
            </g>
            <g
               transform="translate(18,28.875)"
               id="g536">
              <path
                 id="path538"
                 style="fill:#ffcc4d;fill-opacity:1;fill-rule:nonzero;stroke:none"
                 d="m 0,0 0,0 -0.001,0 -0.002,0 c -12.83,-0.001 -10.872,-4.958 -9.497,-11.542 1.375,-6.583 1.884,-8.333 1.884,-8.333 l 7.613,0 0.003,0 7.612,0 c 0,0 0.51,1.75 1.885,8.333 C 10.872,-4.958 12.829,-0.001 0,0"
                 inkscape:connector-curvature="0" />
            </g>
            <g
               transform="translate(12,20)"
               id="g540">
              <path
                 id="path542"
                 style="fill:#272b2b;fill-opacity:1;fill-rule:nonzero;stroke:none"
                 d="M 0,0 C 0,0 0,1.5 1.5,1.5 3,1.5 3,0 3,0 L 3,-1.5 C 3,-1.5 3,-3 1.5,-3 0,-3 0,-1.5 0,-1.5 L 0,0 Z"
                 inkscape:connector-curvature="0" />
            </g>
            <g
               transform="translate(21,20)"
               id="g544">
              <path
                 id="path546"
                 style="fill:#272b2b;fill-opacity:1;fill-rule:nonzero;stroke:none"
                 d="M 0,0 C 0,0 0,1.5 1.5,1.5 3,1.5 3,0 3,0 L 3,-1.5 C 3,-1.5 3,-3 1.5,-3 0,-3 0,-1.5 0,-1.5 L 0,0 Z"
                 inkscape:connector-curvature="0" />
            </g>
            <g
               transform="translate(20.168,14.4795)"
               id="g548">
              <path
                 id="path550"
                 style="fill:#ffe8b6;fill-opacity:1;fill-rule:nonzero;stroke:none"
                 d="M 0,0 C -1.598,0 -1.385,-0.848 -2.169,-2.113 -2.951,-0.848 -2.739,0 -4.337,0 c -6.865,0 -6.837,-0.375 -6.865,-2.828 -0.058,-4.987 2.802,-6.132 5.257,-6.06 1.597,0.048 2.994,0.88 3.777,2.131 0.783,-1.251 2.179,-2.083 3.776,-2.131 2.455,-0.072 5.316,1.073 5.257,6.06 C 6.837,-0.375 6.865,0 0,0"
                 inkscape:connector-curvature="0" />
            </g>
            <g
               transform="translate(14.5815,14.5889)"
               id="g552">
              <path
                 id="path554"
                 style="fill:#272b2b;fill-opacity:1;fill-rule:nonzero;stroke:none"
                 d="M 0,0 C -1.14,-0.232 2.279,-4.431 3.419,-4.431 4.558,-4.431 7.977,-0.232 6.837,0 5.698,0.232 1.139,0.232 0,0"
                 inkscape:connector-curvature="0" />
            </g>
            <g
               transform="translate(12,11.5)"
               id="g556">
              <path
                 id="path558"
                 style="fill:#d99e82;fill-opacity:1;fill-rule:nonzero;stroke:none"
                 d="M 0,0 C 0,-0.276 -0.224,-0.5 -0.5,-0.5 -0.776,-0.5 -1,-0.276 -1,0 -1,0.276 -0.776,0.5 -0.5,0.5 -0.224,0.5 0,0.276 0,0"
                 inkscape:connector-curvature="0" />
            </g>
            <g
               transform="translate(11,9.5)"
               id="g560">
              <path
                 id="path562"
                 style="fill:#d99e82;fill-opacity:1;fill-rule:nonzero;stroke:none"
                 d="M 0,0 C 0,-0.276 -0.224,-0.5 -0.5,-0.5 -0.776,-0.5 -1,-0.276 -1,0 -1,0.276 -0.776,0.5 -0.5,0.5 -0.224,0.5 0,0.276 0,0"
                 inkscape:connector-curvature="0" />
            </g>
            <g
               transform="translate(13,8.5)"
               id="g564">
              <path
                 id="path566"
                 style="fill:#d99e82;fill-opacity:1;fill-rule:nonzero;stroke:none"
                 d="M 0,0 C 0,-0.276 -0.224,-0.5 -0.5,-0.5 -0.776,-0.5 -1,-0.276 -1,0 -1,0.276 -0.776,0.5 -0.5,0.5 -0.224,0.5 0,0.276 0,0"
                 inkscape:connector-curvature="0" />
            </g>
            <g
               transform="translate(24,11.5)"
               id="g568">
              <path
                 id="path570"
                 style="fill:#d99e82;fill-opacity:1;fill-rule:nonzero;stroke:none"
                 d="M 0,0 C 0,-0.276 0.224,-0.5 0.5,-0.5 0.776,-0.5 1,-0.276 1,0 1,0.276 0.776,0.5 0.5,0.5 0.224,0.5 0,0.276 0,0"
                 inkscape:connector-curvature="0" />
            </g>
            <g
               transform="translate(25,9.5)"
               id="g572">
              <path
                 id="path574"
                 style="fill:#d99e82;fill-opacity:1;fill-rule:nonzero;stroke:none"
                 d="M 0,0 C 0,-0.276 0.224,-0.5 0.5,-0.5 0.776,-0.5 1,-0.276 1,0 1,0.276 0.776,0.5 0.5,0.5 0.224,0.5 0,0.276 0,0"
                 inkscape:connector-curvature="0" />
            </g>
            <g
               transform="translate(23,8.5)"
               id="g576">
              <path
                 id="path578"
                 style="fill:#d99e82;fill-opacity:1;fill-rule:nonzero;stroke:none"
                 d="M 0,0 C 0,-0.276 0.224,-0.5 0.5,-0.5 0.776,-0.5 1,-0.276 1,0 1,0.276 0.776,0.5 0.5,0.5 0.224,0.5 0,0.276 0,0"
                 inkscape:connector-curvature="0" />
            </g>
          </g>
        </g>
      </g>
    </g>
  </g>
</svg>
