<?xml version="1.0" encoding="UTF-8" standalone="no"?>
<svg
   xmlns:dc="http://purl.org/dc/elements/1.1/"
   xmlns:cc="http://creativecommons.org/ns#"
   xmlns:rdf="http://www.w3.org/1999/02/22-rdf-syntax-ns#"
   xmlns:svg="http://www.w3.org/2000/svg"
   xmlns="http://www.w3.org/2000/svg"
   xmlns:sodipodi="http://sodipodi.sourceforge.net/DTD/sodipodi-0.dtd"
   xmlns:inkscape="http://www.inkscape.org/namespaces/inkscape"
   version="1.1"
   id="svg2"
   viewBox="0 0 200 200"
   height="200px"
   width="200px"
   inkscape:version="0.91 r13725"
   sodipodi:docname="94.svg">
  <metadata
     id="metadata486">
    <rdf:RDF>
      <cc:Work
         rdf:about="">
        <dc:format>image/svg+xml</dc:format>
        <dc:type
           rdf:resource="http://purl.org/dc/dcmitype/StillImage" />
      </cc:Work>
    </rdf:RDF>
  </metadata>
  <sodipodi:namedview
     pagecolor="#ffffff"
     bordercolor="#666666"
     borderopacity="1"
     objecttolerance="10"
     gridtolerance="10"
     guidetolerance="10"
     inkscape:pageopacity="0"
     inkscape:pageshadow="2"
     inkscape:window-width="1920"
     inkscape:window-height="1060"
     id="namedview484"
     showgrid="false"
     inkscape:zoom="4.32"
     inkscape:cx="100"
     inkscape:cy="100"
     inkscape:window-x="0"
     inkscape:window-y="0"
     inkscape:window-maximized="1"
     inkscape:current-layer="layer1" />
  
    
    
    <defs id="defs6">

        <clipPath
           id="clipPath28"
           clipPathUnits="userSpaceOnUse">
          <path
             id="path30"
             d="M 4,36 C 0,36 0,32 0,32 L 0,32 0,4 C 0,0 4,0 4,0 l 0,0 28,0 c 4,0 4,4 4,4 l 0,0 0,28 c 0,4 -4,4 -4,4 l 0,0 -28,0 z" />
        </clipPath>


        <clipPath clipPathUnits="userSpaceOnUse" id="clipPath16-rugby">
            <path d="M 0,38 38,38 38,0 0,0 0,38 Z" id="path18"/>
        </clipPath>
        <clipPath clipPathUnits="userSpaceOnUse" id="clipPath28-rugby">
            <path d="M 9.254,28.746 C 2.09,21.582 -0.927,9.561 3.929,3.929 l 0,0 C 9.561,-0.927 21.582,2.09 28.746,9.254 l 0,0 c 7.164,7.164 11.229,17.088 5.324,24.816 l 0,0 c -1.886,1.627 -4.489,2.371 -7.387,2.37 l 0,0 c -5.752,0 -12.665,-2.93 -17.429,-7.694" id="path30"/>
        </clipPath>

        <clipPath clipPathUnits="userSpaceOnUse" id="clipPath16-carrot">
            <path d="M 0,36 36,36 36,0 0,0 0,36 Z" id="path18"/>
        </clipPath>
        <clipPath clipPathUnits="userSpaceOnUse" id="clipPath32-carrot">
            <path d="M 11.815,23.013 C 4.2,15.397 -1.265,2.86 0.502,1.093 l 0,0 c 1.768,-1.768 14.305,3.698 21.92,11.313 l 0,0 c 7.616,7.615 7.562,11.53 4.243,14.85 l 0,0 c -1.328,1.328 -2.752,2.133 -4.47,2.133 l 0,0 c -2.575,0 -5.812,-1.809 -10.38,-6.376" id="path34"/>
        </clipPath>

        <clipPath clipPathUnits="userSpaceOnUse" id="clipPath32-hat">
            <path d="m 5,33.666 c 0,-0.034 0.018,-0.067 0.022,-0.101 l 0,0 C 5.008,33.455 5,33.335 5,33.2 l 0,0 L 6.802,9.616 C 3.299,8.705 1,7.424 1,6 L 1,6 C 1,3.238 9.611,1 19,1 l 0,0 c 9.389,0 18,2.238 18,5 l 0,0 c 0,1.424 -2.298,2.705 -5.801,3.616 l 0,0 L 33,33.184 c 0,0.135 -0.008,0.263 -0.021,0.373 l 0,0 C 32.982,33.591 33,33.632 33,33.666 l 0,0 c 0,1.805 -6.268,3.267 -14,3.267 l 0,0 c -7.732,0 -14,-1.462 -14,-3.267" id="path34"/>
        </clipPath>


        <clipPath clipPathUnits="userSpaceOnUse" id="clipPath48-soccer">
            <path d="M 1,19 C 1,9.059 9.059,1 19,1 l 0,0 c 9.941,0 18,8.059 18,18 l 0,0 c 0,9.941 -8.059,18 -18,18 l 0,0 C 9.059,37 1,28.941 1,19" id="path50"/>
        </clipPath>

        <clipPath clipPathUnits="userSpaceOnUse" id="clipPath28-baguette">
            <path d="M 24.052,31.33 5.126,12.406 C 1.342,8.62 1.288,4.133 2.856,2.564 l 0,0 C 4.424,0.997 8.912,1.049 12.697,4.835 l 0,0 18.925,18.924 c 3.784,3.785 3.837,8.273 2.269,9.841 l 0,0 c -0.605,0.606 -1.647,0.969 -2.915,0.969 l 0,0 c -2.014,0 -4.602,-0.917 -6.924,-3.239" id="path30"/>
        </clipPath>
    </defs>



  <g
     id="layer1">
    <circle
       style="opacity:1;fill:white;stroke:black;stroke-width:1;stroke-miterlimit:4;stroke-dasharray:none;stroke-opacity:0.1"
       id="path4039-0-9"
       cx="100px"
       cy="100px"
       r="90px" />
    <g
       transform="matrix(0.51767576,-0.2304841,0.2304841,0.51767576,31.760583,53.416386)"
       id="g8">
      <g
         transform="matrix(1.25,0,0,-1.25,0,47.5)"
         id="g10">
        <g
           id="g12">
          <g
             clip-path="url(#clipPath16)"
             id="g14">
            <g
               transform="translate(37,15)"
               id="g20">
              <path
                 id="path22"
                 style="fill:#c6e5b3;fill-opacity:1;fill-rule:nonzero;stroke:none"
                 d="m 0,0 c 0,-7.456 -8.059,-12 -18,-12 -9.941,0 -18,4.544 -18,12 0,7.456 8.059,15 18,15 C -8.059,15 0,7.456 0,0"
                 inkscape:connector-curvature="0" />
            </g>
            <g
               transform="translate(32.7549,24.3242)"
               id="g24">
              <path
                 id="path26"
                 style="fill:#77b255;fill-opacity:1;fill-rule:nonzero;stroke:none"
                 d="m 0,0 c 1.368,1.1 2.245,2.785 2.245,4.676 0,3.313 -2.686,6 -6,6 -2.861,0 -5.25,-2.005 -5.85,-4.685 -1.289,0.483 -2.684,0.758 -4.15,0.758 -1.465,0 -2.861,-0.275 -4.149,-0.758 -0.601,2.68 -2.99,4.685 -5.851,4.685 -3.313,0 -6,-2.687 -6,-6 0,-1.891 0.878,-3.576 2.245,-4.676 -2.645,-2.68 -4.245,-6.009 -4.245,-9.324 0,-7.456 8.059,-1 18,-1 9.942,0 18,-6.456 18,1 C 4.245,-6.009 2.646,-2.68 0,0"
                 inkscape:connector-curvature="0" />
            </g>
            <g
               transform="translate(12,29.5)"
               id="g28">
              <path
                 id="path18"
                 style="fill:#ffffff;fill-opacity:1;fill-rule:nonzero;stroke:none"
                 d="M 0,0 C 0,-1.933 -1.567,-3.5 -3.5,-3.5 -5.433,-3.5 -7,-1.933 -7,0 -7,1.933 -5.433,3.5 -3.5,3.5 -1.567,3.5 0,1.933 0,0"
                 inkscape:connector-curvature="0" />
            </g>
            <g
               transform="translate(10,29.5)"
               id="g32">
              <path
                 id="path34"
                 style="fill:#292f33;fill-opacity:1;fill-rule:nonzero;stroke:none"
                 d="M 0,0 C 0,-0.829 -0.671,-1.5 -1.5,-1.5 -2.329,-1.5 -3,-0.829 -3,0 -3,0.829 -2.329,1.5 -1.5,1.5 -0.671,1.5 0,0.829 0,0"
                 inkscape:connector-curvature="0" />
            </g>
            <g
               transform="translate(33,29.5)"
               id="g36">
              <path
                 id="path38"
                 style="fill:#ffffff;fill-opacity:1;fill-rule:nonzero;stroke:none"
                 d="M 0,0 C 0,-1.933 -1.566,-3.5 -3.5,-3.5 -5.434,-3.5 -7,-1.933 -7,0 -7,1.933 -5.434,3.5 -3.5,3.5 -1.566,3.5 0,1.933 0,0"
                 inkscape:connector-curvature="0" />
            </g>
            <g
               transform="translate(31,29.5)"
               id="g40">
              <path
                 id="path42"
                 style="fill:#292f33;fill-opacity:1;fill-rule:nonzero;stroke:none"
                 d="M 0,0 C 0,-0.829 -0.672,-1.5 -1.5,-1.5 -2.328,-1.5 -3,-0.829 -3,0 -3,0.829 -2.328,1.5 -1.5,1.5 -0.672,1.5 0,0.829 0,0"
                 inkscape:connector-curvature="0" />
            </g>
            <g
               transform="translate(16,17)"
               id="g44">
              <path
                 id="path46"
                 style="fill:#5c913b;fill-opacity:1;fill-rule:nonzero;stroke:none"
                 d="m 0,0 c 0,-0.553 -0.448,-1 -1,-1 -0.552,0 -1,0.447 -1,1 0,0.553 0.448,1 1,1 0.552,0 1,-0.447 1,-1"
                 inkscape:connector-curvature="0" />
            </g>
            <g
               transform="translate(24,17)"
               id="g48">
              <path
                 id="path50"
                 style="fill:#5c913b;fill-opacity:1;fill-rule:nonzero;stroke:none"
                 d="m 0,0 c 0,-0.553 -0.447,-1 -1,-1 -0.553,0 -1,0.447 -1,1 0,0.553 0.447,1 1,1 0.553,0 1,-0.447 1,-1"
                 inkscape:connector-curvature="0" />
            </g>
          </g>
        </g>
      </g>
    </g>
    <g
       transform="matrix(0.58778525,-0.80901699,0.80901699,0.58778525,91.862781,151.82774)"
       id="g30">
      <g
         transform="matrix(1.25,0,0,-1.25,0,45)"
         id="g33">
        <g
           id="g35">
          <g
             clip-path="url(#clipPath16)"
             id="g37">
            <g
               transform="translate(6.2031,14.3594)"
               id="g39">
              <path
                 id="path41"
                 style="fill:#ef9645;fill-opacity:1;fill-rule:nonzero;stroke:none"
                 d="M 0,0 C -0.078,-0.922 0.321,-1.198 0.946,-1.636 1.564,-2.068 5.329,1.231 6.561,1.733 7.792,2.235 19.348,4.682 18.847,6.916 18.346,9.151 14.853,9.481 12.164,9.025 9.473,8.569 4.326,6.203 2.821,4.926 1.317,3.648 0,0 0,0"
                 inkscape:connector-curvature="0" />
            </g>
            <g
               transform="translate(14.8252,12.8623)"
               id="g43">
              <path
                 id="path45"
                 style="fill:#ef9645;fill-opacity:1;fill-rule:nonzero;stroke:none"
                 d="m 0,0 c 0,0 -3.557,-1.155 -3.557,-4.155 0,-3 0.866,-4.693 1.277,-5.513 0.41,-0.82 1.687,-1.616 3.455,-0.851 2.052,0.889 -0.491,6.004 6,3.657 2.973,-1.075 6.058,-2.529 9.058,-1.529 2.846,0.949 3.942,4.529 3.942,6.529 0,4.093 -3,3 -4,2 -1,-1 -9,-3 -10,-3 C 5.175,-2.862 0,0 0,0"
                 inkscape:connector-curvature="0" />
            </g>
            <g
               transform="translate(19.3125,7.8125)"
               id="g47">
              <path
                 id="path49"
                 style="fill:#f9ca55;fill-opacity:1;fill-rule:nonzero;stroke:none"
                 d="m 0,0 c 0,0 -0.12,1.316 -1.375,1.469 -1.031,0.125 -2.656,-0.219 -3.5,-1.906 -0.844,-1.688 -2.344,-1.407 -2.281,-2.813 0.062,-1.406 0.5,-2.5 1.406,-2.781 0.906,-0.281 2.187,0.219 2.344,1.719 0.156,1.499 0.343,2.875 1.312,3.468 C -1.125,-0.25 0,0 0,0"
                 inkscape:connector-curvature="0" />
            </g>
            <g
               transform="translate(18,10)"
               id="g51">
              <path
                 id="path53"
                 style="fill:#ef9645;fill-opacity:1;fill-rule:nonzero;stroke:none"
                 d="m 0,0 c 0,0 -1,1 -3,1 -2,0 -6.664,-2.133 -5.25,-6.375 1,-3 3.844,-1.594 4.25,1.375 0.407,2.973 4,4 4,4"
                 inkscape:connector-curvature="0" />
            </g>
            <g
               transform="translate(17,10)"
               id="g55">
              <path
                 id="path57"
                 style="fill:#f9ca55;fill-opacity:1;fill-rule:nonzero;stroke:none"
                 d="m 0,0 c 0,0 -1,1 -3,1 -2,0 -4.885,-1.53 -5,-6 -0.094,-3.656 4.031,-2 4,1 -0.031,3 4,4 4,4"
                 inkscape:connector-curvature="0" />
            </g>
            <g
               transform="translate(5,9)"
               id="g59">
              <path
                 id="path61"
                 style="fill:#ef9645;fill-opacity:1;fill-rule:nonzero;stroke:none"
                 d="m 0,0 c 0,-3.297 0.457,-5.286 2.428,-4.947 3.269,0.562 2.029,4.614 4.889,5.754 2.078,0.827 5.102,0.629 8.02,-1.103 C 17.26,-1.437 16,3 14,4 12,5 6,4 5,4 4,4 0,0 0,0"
                 inkscape:connector-curvature="0" />
            </g>
            <g
               transform="translate(4.8423,8.8262)"
               id="g63">
              <path
                 id="path65"
                 style="fill:#f9ca55;fill-opacity:1;fill-rule:nonzero;stroke:none"
                 d="m 0,0 c -1.591,-2.665 -0.624,-5.42 2.158,-4.826 2.691,0.574 1.342,4.07 4,6 1.489,1.082 4.698,1.445 6.698,0.445 2,-1 2.302,1.555 0.302,2.555 -2,1 -8.54,0.025 -9.538,-0.037 C 1.71,4.018 0,0 0,0"
                 inkscape:connector-curvature="0" />
            </g>
            <g
               transform="translate(9.4185,6.8857)"
               id="g67">
              <path
                 id="path69"
                 style="fill:#3b88c3;fill-opacity:1;fill-rule:nonzero;stroke:none"
                 d="m 0,0 c -0.679,-0.778 -1.86,-0.859 -2.639,-0.18 l -0.195,0.171 c -0.779,0.679 -0.86,1.86 -0.18,2.638 l 22.521,25.817 c 0.679,0.779 1.861,0.86 2.639,0.181 l 0.195,-0.172 c 0.78,-0.679 0.86,-1.86 0.181,-2.638 L 0,0 Z"
                 inkscape:connector-curvature="0" />
            </g>
            <g
               transform="translate(10.4902,8.1143)"
               id="g52">
              <path
                 id="path54"
                 style="fill:#3b88c3;fill-opacity:1;fill-rule:nonzero;stroke:none"
                 d="m 0,0 c -2.36,-2.705 -8.313,-8.009 -9.067,-7.352 -0.754,0.658 3.693,7.276 6.052,9.981 2.36,2.706 1.661,0.542 2.494,-0.185 C 0.311,1.718 2.359,2.704 0,0"
                 inkscape:connector-curvature="0" />
            </g>
            <g
               transform="translate(6.6724,10.9736)"
               id="g56">
              <path
                 id="path58"
                 style="fill:#ef9645;fill-opacity:1;fill-rule:nonzero;stroke:none"
                 d="m 0,0 c 0,-1 2.421,-1.915 3.421,-0.915 1,1 3.341,2.227 6.419,0.941 7.203,-3.009 4.488,1 1.488,2 -3,1 -8,0 -9,0 C 1.328,2.026 0,0 0,0"
                 inkscape:connector-curvature="0" />
            </g>
            <g
               transform="translate(6.1948,13.957)"
               id="g60">
              <path
                 id="path62"
                 style="fill:#ffdc5d;fill-opacity:1;fill-rule:nonzero;stroke:none"
                 d="m 0,0 c -0.358,1.113 2.188,7.279 3.341,8.234 1.452,1.202 7.07,3.063 9.07,3.063 2,0 16.394,-7.254 16.394,-12.254 0,-5 -2,-5.625 -4.875,-6.406 -2.299,-0.625 -7.115,-0.242 -9.219,1.718 -1.843,1.719 -3.125,2.907 -4.906,3.688 -3.302,1.448 -5.503,-0.424 -6.503,-1.424 -2,-2 -5.768,0.159 -2.626,3.58 2.25,2.449 4.232,3.212 6.129,3.844 6,2 10,2 8,4 C 14.098,8.75 13.713,7.697 12.729,7.518 10.749,7.158 9.173,6.917 6.563,6.046 5.662,5.746 1.392,3.023 0,0"
                 inkscape:connector-curvature="0" />
            </g>
            <g
               transform="translate(13.1958,19.7246)"
               id="g64">
              <path
                 id="path66"
                 style="fill:#ef9645;fill-opacity:1;fill-rule:nonzero;stroke:none"
                 d="M 0,0 C 1.064,0.388 5.702,1.232 8.115,2.068 10.064,2.745 11.774,1.432 8.075,0.04 4.504,-1.303 0.795,-1.193 -1.909,-2.267 -2.932,-2.673 -3.819,-1.392 0,0"
                 inkscape:connector-curvature="0" />
            </g>
            <g
               transform="translate(22.4873,27.9766)"
               id="g68">
              <path
                 id="path70"
                 style="fill:#3b88c3;fill-opacity:1;fill-rule:nonzero;stroke:none"
                 d="m 0,0 c 0,0 -5.928,-6.795 -8.446,-9.661 2.254,0.927 4.27,0.751 6.198,1.885 1.927,1.133 2.806,2.342 5.73,5.694 C 4.567,-0.837 0,0 0,0"
                 inkscape:connector-curvature="0" />
            </g>
          </g>
        </g>
      </g>
    </g>
    <g
       transform="matrix(-0.28669436,0.74686434,-0.74686434,-0.28669436,170.82367,50.103294)"
       id="g81">
      <g
         transform="matrix(1.25,0,0,-1.25,0,45)"
         id="g83">
        <g
           transform="translate(10.6362,14.0498)"
           id="g85">
          <path
             id="path14"
             style="fill:#99aab5;fill-opacity:1;fill-rule:nonzero;stroke:none"
             d="M 0,0 -2.122,2.122 8.485,12.729 10.606,10.607 0,0 Z"
             inkscape:connector-curvature="0" />
        </g>
        <g
           id="g16">
          <g
             clip-path="url(#clipPath20)"
             id="g18">
            <g
               transform="translate(8.5146,6.2725)"
               id="g90">
              <path
                 id="path92"
                 style="fill:#55acee;fill-opacity:1;fill-rule:nonzero;stroke:none"
                 d="m 0,0 c -0.781,-0.781 -2.047,-0.781 -2.828,0 l -4.95,4.949 c -0.781,0.781 -0.781,2.048 0,2.828 l 4.95,4.95 c 0.781,0.781 2.047,0.781 2.828,0 L 4.95,7.777 C 5.731,6.997 5.731,5.73 4.95,4.949 L 0,0 Z"
                 inkscape:connector-curvature="0" />
            </g>
            <g
               transform="translate(24.7773,22.5352)"
               id="g94">
              <path
                 id="path96"
                 style="fill:#55acee;fill-opacity:1;fill-rule:nonzero;stroke:none"
                 d="m 0,0 c -0.78,-0.781 -2.047,-0.781 -2.827,0 l -4.95,4.95 c -0.781,0.781 -0.782,2.047 -10e-4,2.828 l 4.951,4.95 c 0.781,0.782 2.047,0.781 2.828,0 L 4.95,7.778 C 5.732,6.998 5.732,5.731 4.951,4.951 L 0,0 Z"
                 inkscape:connector-curvature="0" />
            </g>
            <g
               transform="translate(12.4038,25.7173)"
               id="g98">
              <path
                 id="path100"
                 style="fill:#99aab5;fill-opacity:1;fill-rule:nonzero;stroke:none"
                 d="M 0,0 C 0,0 -0.707,2.122 -1.414,4.243 -1.862,5.584 -2.829,5.657 -3.536,4.95 -4.243,4.243 -5.657,2.829 -6.364,2.122 -7.071,1.415 -6.999,0.447 -5.657,0 c 2.121,-0.707 4.243,-1.414 4.243,-1.414 L 0,0 Z"
                 inkscape:connector-curvature="0" />
            </g>
            <g
               transform="translate(17.708,14.0508)"
               id="g102">
              <path
                 id="path104"
                 style="fill:#ccd6dd;fill-opacity:1;fill-rule:nonzero;stroke:none"
                 d="M 0,0 C -0.782,-0.781 -2.048,-0.781 -2.829,-0.001 L -9.9,7.07 c -0.781,0.782 -0.781,2.048 0,2.829 l 4.242,4.242 c 0.781,0.781 2.048,0.781 2.829,10e-4 L 4.242,7.07 C 5.022,6.29 5.022,5.023 4.241,4.241 L 0,0 Z"
                 inkscape:connector-curvature="0" />
            </g>
            <g
               transform="translate(21.0156,14.9453)"
               id="g106">
              <path
                 id="path108"
                 style="fill:#ccd6dd;fill-opacity:1;fill-rule:nonzero;stroke:none"
                 d="m 0,0 c -1.952,-1.953 -4.802,-2.27 -6.364,-0.708 -1.562,1.563 0.876,2.29 2.829,4.243 1.953,1.953 2.681,4.39 4.243,2.829 C 2.27,4.802 1.953,1.953 0,0"
                 inkscape:connector-curvature="0" />
            </g>
            <g
               transform="translate(27.96,15.8184)"
               id="g110">
              <path
                 id="path112"
                 style="fill:#99aab5;fill-opacity:1;fill-rule:nonzero;stroke:none"
                 d="m 0,0 c -2.12,2.122 -5.118,1.951 -7.071,0 -1.952,-1.954 -2.121,-4.95 0,-7.071 L 0,0 Z"
                 inkscape:connector-curvature="0" />
            </g>
            <g
               transform="translate(25.1318,12.9893)"
               id="g114">
              <path
                 id="path116"
                 style="fill:#99aab5;fill-opacity:1;fill-rule:nonzero;stroke:none"
                 d="M 0,0 2.121,-3.535 -1.414,-1.414 0,0 Z"
                 inkscape:connector-curvature="0" />
            </g>
            <g
               transform="translate(27.8135,8.8936)"
               id="g118">
              <path
                 id="path120"
                 style="fill:#99aab5;fill-opacity:1;fill-rule:nonzero;stroke:none"
                 d="m 0,0 c -0.391,-0.391 -1.023,-0.391 -1.414,0 -0.391,0.391 -0.391,1.023 0,1.414 0.391,0.391 1.023,0.391 1.414,0 C 0.391,1.023 0.391,0.391 0,0"
                 inkscape:connector-curvature="0" />
            </g>
            <g
               transform="translate(4.272,17.5854)"
               id="g122">
              <path
                 id="path124"
                 style="fill:#88c9f9;fill-opacity:1;fill-rule:nonzero;stroke:none"
                 d="M 0,0 1.414,1.415 9.192,-6.364 7.778,-7.778 0,0 Z"
                 inkscape:connector-curvature="0" />
            </g>
            <g
               transform="translate(26.1924,23.9497)"
               id="g126">
              <path
                 id="path128"
                 style="fill:#88c9f9;fill-opacity:1;fill-rule:nonzero;stroke:none"
                 d="M 0,0 -1.414,-1.414 -9.192,6.364 -7.778,7.778 0,0 Z"
                 inkscape:connector-curvature="0" />
            </g>
            <g
               transform="translate(0.7368,14.0498)"
               id="g130">
              <path
                 id="path132"
                 style="fill:#88c9f9;fill-opacity:1;fill-rule:nonzero;stroke:none"
                 d="M 0,0 1.414,1.415 9.192,-6.363 7.777,-7.777 0,0 Z"
                 inkscape:connector-curvature="0" />
            </g>
            <g
               transform="translate(29.7275,27.4858)"
               id="g134">
              <path
                 id="path136"
                 style="fill:#88c9f9;fill-opacity:1;fill-rule:nonzero;stroke:none"
                 d="M 0,0 -1.414,-1.415 -9.192,6.363 -7.777,7.777 0,0 Z"
                 inkscape:connector-curvature="0" />
            </g>
            <g
               transform="translate(8.3066,28.3989)"
               id="g72">
              <path
                 id="path74"
                 style="fill:#99aab5;fill-opacity:1;fill-rule:nonzero;stroke:none"
                 d="m 0,0 c -0.39,-0.39 -1.023,-0.39 -1.414,0 -0.391,0.391 -0.39,1.024 0,1.415 0.391,0.39 1.024,0.39 1.414,0 C 0.391,1.024 0.391,0.391 0,0"
                 inkscape:connector-curvature="0" />
            </g>
            <g
               transform="translate(23.6816,5.5693)"
               id="g76">
              <path
                 id="path78"
                 style="fill:#ffac33;fill-opacity:1;fill-rule:nonzero;stroke:none"
                 d="M 0,0 C 0,0.017 0.001,0.034 0.002,0.051 0.029,0.603 0.499,1.027 1.051,1 1.066,0.999 3.207,0.937 4.851,2.58 6.487,4.218 6.429,6.353 6.431,6.381 6.398,6.931 6.828,7.401 7.379,7.43 7.931,7.457 8.4,7.032 8.428,6.48 8.44,6.358 8.551,3.452 6.265,1.166 3.977,-1.121 1.073,-1.004 0.951,-0.998 0.416,-0.971 0,-0.529 0,0"
                 inkscape:connector-curvature="0" />
            </g>
            <g
               transform="translate(24.2383,2.0107)"
               id="g80">
              <path
                 id="path82"
                 style="fill:#ffac33;fill-opacity:1;fill-rule:nonzero;stroke:none"
                 d="M 0,0 C 0,0.109 0.018,0.221 0.057,0.33 0.238,0.852 0.809,1.126 1.33,0.943 1.437,0.909 4.207,0.051 7.294,3.139 c 3.127,3.126 2.414,6.126 2.382,6.252 -0.137,0.529 0.184,1.077 0.716,1.216 0.53,0.139 1.073,-0.172 1.216,-0.702 C 11.654,9.735 12.686,5.7 8.708,1.725 4.694,-2.291 0.832,-1.001 0.67,-0.943 0.258,-0.8 0,-0.413 0,0"
                 inkscape:connector-curvature="0" />
            </g>
          </g>
        </g>
      </g>
    </g>
    <g
       transform="translate(33.0 118.0) rotate(46 15 15) scale(0.8)"
       id="g144">
      <g
         transform="matrix(1.25,0,0,-1.25,0,45)"
         id="g146">
        <g
           id="g148">
          <g
             clip-path="url(#clipPath16-carrot)"
             id="g150">
            <g
               transform="translate(31.0957,27.0674)"
               id="g152">
              <path
                 id="path154"
                 style="fill:#77b255;fill-opacity:1;fill-rule:nonzero;stroke:none"
                 d="m 0,0 c 3.535,2.122 4.408,8.32 3.701,7.613 0.707,0.707 -5.657,0 -7.778,-3.536 0,1.414 -1.414,7.071 -3.535,2.121 -2.122,-4.949 -1.415,-5.656 -1.415,-7.071 0,-1.414 2.829,-1.414 2.829,-1.414 0,0 -0.125,-2.704 1.29,-2.704 1.414,0 1.997,-0.583 6.946,1.538 C 6.988,-1.331 1.414,0 0,0" />
            </g>
            <g
               transform="translate(22.4219,12.4062)"
               id="g156">
              <path
                 id="path158"
                 style="fill:#f4900c;fill-opacity:1;fill-rule:nonzero;stroke:none"
                 d="m 0,0 c -7.615,-7.615 -20.152,-13.081 -21.92,-11.313 -1.768,1.767 3.699,14.304 11.313,21.919 7.616,7.616 11.531,7.563 14.85,4.243 C 7.562,11.53 7.615,7.615 0,0" />
            </g>
          </g>
        </g>
        <g
           id="g160">
          <g
             clip-path="url(#clipPath32-carrot)"
             id="g162">
            <g
               transform="translate(16.1465,29.46)"
               id="g164">
              <path
                 id="path166"
                 style="fill:#d67503;fill-opacity:1;fill-rule:nonzero;stroke:none"
                 d="M 0,0 C 2.292,-4.583 4.583,-6.875 5.729,-8.02 6.875,-9.166 0,-6.875 -2.291,-2.291 -4.583,2.292 0,0 0,0" />
            </g>
            <g
               transform="translate(8.6611,21.3887)"
               id="g168">
              <path
                 id="path170"
                 style="fill:#d67503;fill-opacity:1;fill-rule:nonzero;stroke:none"
                 d="M 0,0 C 2.292,-4.584 4.583,-6.875 5.728,-8.021 6.874,-9.166 0,-6.875 -2.291,-2.291 -4.582,2.291 0,0 0,0" />
            </g>
            <g
               transform="translate(25.209,12.9121)"
               id="g172">
              <path
                 id="path174"
                 style="fill:#d67503;fill-opacity:1;fill-rule:nonzero;stroke:none"
                 d="M 0,0 C -4.582,2.291 -6.874,4.582 -8.02,5.728 -9.165,6.875 -6.874,0 -2.291,-2.292 2.292,-4.583 0,0 0,0" />
            </g>
            <g
               transform="translate(16.209,4.9121)"
               id="g176">
              <path
                 id="path178"
                 style="fill:#d67503;fill-opacity:1;fill-rule:nonzero;stroke:none"
                 d="M 0,0 C -4.582,2.291 -6.874,4.582 -8.02,5.728 -9.166,6.875 -6.874,0 -2.291,-2.292 2.292,-4.583 0,0 0,0" />
            </g>
          </g>
        </g>
      </g>
    </g>
    <g
       transform="matrix(-0.10950413,0.69138184,-0.69138184,-0.10950413,146.12481,78.55897)"
       id="g180">
      <g
         transform="matrix(1.25,0,0,-1.25,0,47.5)"
         id="g182">
        <g
           id="g184">
          <g
             clip-path="url(#clipPath16)"
             id="g186">
            <g
               transform="translate(11,25)"
               id="g188">
              <path
                 id="path190"
                 style="fill:#553788;fill-opacity:1;fill-rule:nonzero;stroke:none"
                 d="m 0,0 c 3,-5 0,-10.692 -3,-9.692 -3,1 -4,-2 -1,-3 3,-1 9.465,0.464 13,4 1,1 2,1 2,1 L 0,0 Z"
                 inkscape:connector-curvature="0" />
            </g>
            <g
               transform="translate(27,25)"
               id="g192">
              <path
                 id="path194"
                 style="fill:#553788;fill-opacity:1;fill-rule:nonzero;stroke:none"
                 d="m 0,0 c -3,-5 0,-10.692 3,-9.692 3,1 4,-2 1,-3 -3,-1 -9.465,0.464 -13,4 -1,1 -2,1 -2,1 L 0,0 Z"
                 inkscape:connector-curvature="0" />
            </g>
            <g
               transform="translate(31.1885,21)"
               id="g196">
              <path
                 id="path198"
                 style="fill:#744eaa;fill-opacity:1;fill-rule:nonzero;stroke:none"
                 d="m 0,0 c -3,-5 0,-10.692 3,-9.692 3,1 4,-2 1,-3 -3,-1 -9.465,0.464 -13,4 -1,1 -2,1 -2,1 L 0,0 Z"
                 inkscape:connector-curvature="0" />
            </g>
            <g
               transform="translate(6.8115,21)"
               id="g200">
              <path
                 id="path202"
                 style="fill:#744eaa;fill-opacity:1;fill-rule:nonzero;stroke:none"
                 d="m 0,0 c 3,-5 0,-10.692 -3,-9.692 -3,1 -4,-2 -1,-3 3,-1 9.465,0.464 13,4 1,1 2,1 2,1 L 0,0 Z"
                 inkscape:connector-curvature="0" />
            </g>
            <g
               transform="translate(34.1885,5.625)"
               id="g204">
              <path
                 id="path206"
                 style="fill:#9266cc;fill-opacity:1;fill-rule:nonzero;stroke:none"
                 d="m 0,0 c -2.729,-0.91 -6.425,5.626 -4.812,10.578 1.646,3.243 2.624,6.857 2.624,9.797 0,7.18 -5.821,11 -13,11 -7.18,0 -13,-3.82 -13,-11 0,-2.94 0.977,-6.554 2.623,-9.797 C -23.952,5.626 -27.647,-0.91 -30.377,0 c -3,1 -4,-3 -1,-4 3,-1 8.31,0.627 12,4 2.189,2 4.189,2 4.189,2 0,0 2,0 4.188,-2 3.69,-3.373 9,-5 12,-4 3,1 2,5 -1,4"
                 inkscape:connector-curvature="0" />
            </g>
            <g
               transform="translate(17,16)"
               id="g208">
              <path
                 id="path210"
                 style="fill:#292f33;fill-opacity:1;fill-rule:nonzero;stroke:none"
                 d="m 0,0 c 0,-1.104 -0.896,-2 -2,-2 -1.104,0 -2,0.896 -2,2 0,1.104 0.896,2 2,2 1.104,0 2,-0.896 2,-2"
                 inkscape:connector-curvature="0" />
            </g>
            <g
               transform="translate(25,16)"
               id="g212">
              <path
                 id="path214"
                 style="fill:#292f33;fill-opacity:1;fill-rule:nonzero;stroke:none"
                 d="m 0,0 c 0,-1.104 -0.896,-2 -2,-2 -1.104,0 -2,0.896 -2,2 0,1.104 0.896,2 2,2 1.104,0 2,-0.896 2,-2"
                 inkscape:connector-curvature="0" />
            </g>
          </g>
        </g>
      </g>
    </g>
    <g
       transform="matrix(0.67093645,-0.43571123,0.43571123,0.67093645,51.009615,154.27471)"
       id="g216">
      <g
         transform="matrix(1.25,0,0,-1.25,0,47.5)"
         id="g218">
        <g
           id="g220">
          <g
             clip-path="url(#clipPath16)"
             id="g222">
            <g
               transform="translate(10,26)"
               id="g224">
              <path
                 id="path226"
                 style="fill:#99aab5;fill-opacity:1;fill-rule:nonzero;stroke:none"
                 d="M 0,0 C 0,4.142 -2,11 -1,11 0,11 6,7 4,0 2.862,-3.983 3.104,-4 2,-4 0.896,-4 0,-4.142 0,0"
                 inkscape:connector-curvature="0" />
            </g>
            <g
               transform="translate(10.5498,25.2964)"
               id="g228">
              <path
                 id="path230"
                 style="fill:#f4abba;fill-opacity:1;fill-rule:nonzero;stroke:none"
                 d="M 0,0 C 0,3.414 -1.297,9.065 -0.648,9.065 0,9.065 3.89,5.769 2.593,0 1.855,-3.282 2.013,-3.296 1.296,-3.296 0.58,-3.296 0,-3.414 0,0"
                 inkscape:connector-curvature="0" />
            </g>
            <g
               transform="translate(5.7886,24.625)"
               id="g232">
              <path
                 id="path234"
                 style="fill:#99aab5;fill-opacity:1;fill-rule:nonzero;stroke:none"
                 d="M 0,0 C -1.062,4.003 -4.755,10.119 -3.789,10.375 -2.822,10.632 4.003,8.305 3.866,1.026 3.789,-3.115 4.027,-3.07 2.959,-3.353 1.892,-3.636 1.062,-4.003 0,0"
                 inkscape:connector-curvature="0" />
            </g>
            <g
               transform="translate(6.5005,24.0859)"
               id="g236">
              <path
                 id="path238"
                 style="fill:#f4abba;fill-opacity:1;fill-rule:nonzero;stroke:none"
                 d="M 0,0 C -0.876,3.299 -3.579,8.429 -2.953,8.595 -2.326,8.762 2.279,6.573 2.506,0.665 2.635,-2.696 2.791,-2.67 2.099,-2.854 1.406,-3.037 0.876,-3.299 0,0"
                 inkscape:connector-curvature="0" />
            </g>
            <g
               transform="translate(37,8.5)"
               id="g240">
              <path
                 id="path242"
                 style="fill:#ccd6dd;fill-opacity:1;fill-rule:nonzero;stroke:none"
                 d="M 0,0 C 0,-1.933 -1.567,-3.5 -3.5,-3.5 -5.433,-3.5 -7,-1.933 -7,0 -7,1.933 -5.433,3.5 -3.5,3.5 -1.567,3.5 0,1.933 0,0"
                 inkscape:connector-curvature="0" />
            </g>
            <g
               transform="translate(31.7334,5.2637)"
               id="g244">
              <path
                 id="path246"
                 style="fill:#99aab5;fill-opacity:1;fill-rule:nonzero;stroke:none"
                 d="m 0,0 c 1.493,1.383 2.267,3.519 2.267,6.736 0,7.18 -6.821,11 -14,11 -2.058,0 -3.829,-0.157 -5.324,-0.539 -1.085,1.13 -2.859,1.539 -5.276,1.539 -4.265,0 -8.4,-4.069 -8.4,-8.333 0,-4.13 3.88,-4.636 7.998,-4.664 l 0.002,-0.003 c 3,-5 1,-10 3,-10 1.588,0 1.914,2.217 1.981,4.375 1.068,-0.663 2.258,-1.191 3.531,-1.577 -0.878,-0.523 -1.512,-1.068 -1.512,-1.298 0,-1.381 2,-1.5 5,-1.5 5.522,0 13,0 11,4 C 0.213,-0.156 0.115,-0.073 0,0"
                 inkscape:connector-curvature="0" />
            </g>
            <g
               transform="translate(8,19)"
               id="g248">
              <path
                 id="path250"
                 style="fill:#292f33;fill-opacity:1;fill-rule:nonzero;stroke:none"
                 d="m 0,0 c 0,-0.553 -0.448,-1 -1,-1 -0.552,0 -1,0.447 -1,1 0,0.552 0.448,1 1,1 0.552,0 1,-0.448 1,-1"
                 inkscape:connector-curvature="0" />
            </g>
            <g
               transform="translate(3,16)"
               id="g252">
              <path
                 id="path254"
                 style="fill:#f4abba;fill-opacity:1;fill-rule:nonzero;stroke:none"
                 d="m 0,0 c 0,-1.104 -0.5,-2 -1,-2 -0.5,0 -1,0.896 -1,2 0,1.104 0.448,1 1,1 0.552,0 1,0.104 1,-1"
                 inkscape:connector-curvature="0" />
            </g>
          </g>
        </g>
      </g>
    </g>
    <g
       transform="matrix(0.80355934,-0.32465905,0.32465905,0.80355934,60.158328,111.30393)"
       id="g256">
      <g
         transform="matrix(1.25,0,0,-1.25,0,47.5)"
         id="g258">
        <g
           id="g260">
          <g
             clip-path="url(#clipPath16)"
             id="g262">
            <g
               transform="translate(21,17)"
               id="g264">
              <path
                 id="path266"
                 style="fill:#9aaab4;fill-opacity:1;fill-rule:nonzero;stroke:none"
                 d="m 0,0 c 0,-1.657 -1.343,-3 -3,-3 -1.657,0 -3,1.343 -3,3 0,1.657 1.343,3 3,3 1.657,0 3,-1.343 3,-3"
                 inkscape:connector-curvature="0" />
            </g>
            <g
               transform="translate(20.2354,19.9414)"
               id="g268">
              <path
                 id="path270"
                 style="fill:#da2f47;fill-opacity:1;fill-rule:nonzero;stroke:none"
                 d="m 0,0 c -0.259,-0.485 -0.868,-0.671 -1.353,-0.412 l -12.354,6.588 c -0.485,0.259 -0.67,0.867 -0.411,1.353 l 2.823,5.295 c 0.259,0.485 0.868,0.67 1.353,0.411 L 2.411,6.647 C 2.896,6.389 3.082,5.78 2.823,5.294 L 0,0 Z"
                 inkscape:connector-curvature="0" />
            </g>
            <g
               transform="translate(32.1768,14.707)"
               id="g272">
              <path
                 id="path274"
                 style="fill:#da2f47;fill-opacity:1;fill-rule:nonzero;stroke:none"
                 d="m 0,0 c -0.259,-0.485 -0.868,-0.671 -1.354,-0.412 l -9.705,5.176 c -0.485,0.258 -0.67,0.868 -0.412,1.353 l 1.882,3.529 c 0.259,0.485 0.868,0.67 1.354,0.412 L 1.47,4.882 C 1.955,4.623 2.141,4.014 1.882,3.528 L 0,0 Z"
                 inkscape:connector-curvature="0" />
            </g>
            <g
               transform="translate(22,19)"
               id="g276">
              <path
                 id="path278"
                 style="fill:#bb1a34;fill-opacity:1;fill-rule:nonzero;stroke:none"
                 d="M 0,0 -1.765,0.941 1.059,6.235 2.823,5.295 0,0 Z"
                 inkscape:connector-curvature="0" />
            </g>
            <g
               transform="translate(33.4707,12.8828)"
               id="g280">
              <path
                 id="path282"
                 style="fill:#9d0522;fill-opacity:1;fill-rule:nonzero;stroke:none"
                 d="M 0,0 -3.529,1.882 -0.706,7.177 2.823,5.294 0,0 Z"
                 inkscape:connector-curvature="0" />
            </g>
            <g
               transform="translate(9.2944,29.1763)"
               id="g284">
              <path
                 id="path286"
                 style="fill:#292f33;fill-opacity:1;fill-rule:nonzero;stroke:none"
                 d="M 0,0 1.882,3.53 1.001,4 C 1,4 1,4 1,4 L -3.412,6.353 C -3.897,6.612 -4.506,6.427 -4.765,5.941 L -7.588,0.646 c -0.259,-0.485 -0.074,-1.094 0.411,-1.353 l 3.529,-1.881 1.766,-0.942 0.47,0.882 c 0,0 0,0 0,0.001 L 0,0 Z"
                 inkscape:connector-curvature="0" />
            </g>
            <g
               transform="translate(24,12)"
               id="g288">
              <path
                 id="path290"
                 style="fill:#292f33;fill-opacity:1;fill-rule:nonzero;stroke:none"
                 d="m 0,0 c 0,-1.104 -0.896,-2 -2,-2 l -8,0 c -1.104,0 -2,0.896 -2,2 0,1.104 0.896,2 2,2 l 8,0 C -0.896,2 0,1.104 0,0"
                 inkscape:connector-curvature="0" />
            </g>
            <g
               transform="translate(10.4673,1)"
               id="g292">
              <path
                 id="path294"
                 style="fill:#9aaab4;fill-opacity:1;fill-rule:nonzero;stroke:none"
                 d="m 0,0 3.344,7.152 c 0.468,1 0.036,2.192 -0.965,2.659 -1,0.468 -2.191,0.037 -2.658,-0.965 L -4.416,0 0,0 Z"
                 inkscape:connector-curvature="0" />
            </g>
            <g
               transform="translate(25.5322,1)"
               id="g296">
              <path
                 id="path298"
                 style="fill:#9aaab4;fill-opacity:1;fill-rule:nonzero;stroke:none"
                 d="M 0,0 4.416,0 0.279,8.846 C -0.187,9.848 -1.379,10.279 -2.379,9.811 -3.38,9.344 -3.812,8.152 -3.344,7.152 L 0,0 Z"
                 inkscape:connector-curvature="0" />
            </g>
            <g
               transform="translate(20,1)"
               id="g300">
              <path
                 id="path302"
                 style="fill:#9aaab4;fill-opacity:1;fill-rule:nonzero;stroke:none"
                 d="m 0,0 0,8 c 0,1.104 -0.896,2 -2,2 -1.104,0 -2,-0.896 -2,-2 l 0,-8 4,0 z"
                 inkscape:connector-curvature="0" />
            </g>
          </g>
        </g>
      </g>
    </g>
    <g
       transform="matrix(-0.28501679,0.78307718,-0.78307718,-0.28501679,182.28125,107.26639)"
       id="g304">
      <g
         transform="matrix(1.25,0,0,-1.25,0,45)"
         id="g306">
        <g
           id="g308">
          <g
             clip-path="url(#clipPath16)"
             id="g310">
            <g
               transform="translate(27.8652,19.2485)"
               id="g312">
              <path
                 id="path314"
                 style="fill:#ccd6dd;fill-opacity:1;fill-rule:nonzero;stroke:none"
                 d="m 0,0 c 0,6.242 -4.411,9.988 -9.927,9.988 -5.516,0 -9.836,-3.746 -9.836,-9.988 0,-3.48 -0.102,-6.485 3.898,-7.89 l 0,-2.722 c 0,-1.034 0.966,-1.872 2,-1.872 1.035,0 2,0.838 2,1.872 l 0,1.97 0,-0.044 0,-1.926 c 0,-1.034 0.965,-1.872 1.999,-1.872 1.036,0 2.001,0.838 2.001,1.872 l 0,1.926 0,0.044 0,-1.97 c 0,-1.034 0.966,-1.872 2,-1.872 1.034,0 2,0.838 2,1.872 l 0,2.722 C 0.135,-6.485 0,-3.48 0,0"
                 inkscape:connector-curvature="0" />
            </g>
            <g
               transform="translate(16.75,20.4971)"
               id="g316">
              <path
                 id="path318"
                 style="fill:#292f33;fill-opacity:1;fill-rule:nonzero;stroke:none"
                 d="m 0,0 c 0,-1.724 0,-3.121 -3.121,-3.121 -3.121,0 -3.121,1.397 -3.121,3.121 0,1.724 1.397,3.121 3.121,3.121 C -1.398,3.121 0,1.724 0,0"
                 inkscape:connector-curvature="0" />
            </g>
            <g
               transform="translate(25.4883,20.4971)"
               id="g320">
              <path
                 id="path322"
                 style="fill:#292f33;fill-opacity:1;fill-rule:nonzero;stroke:none"
                 d="m 0,0 c 0,-1.724 0,-3.121 -3.121,-3.121 -3.12,0 -3.12,1.397 -3.12,3.121 0,1.724 1.396,3.121 3.12,3.121 C -1.396,3.121 0,1.724 0,0"
                 inkscape:connector-curvature="0" />
            </g>
            <g
               transform="translate(19.1865,14.8408)"
               id="g324">
              <path
                 id="path326"
                 style="fill:#292f33;fill-opacity:1;fill-rule:nonzero;stroke:none"
                 d="M 0,0 C -0.157,0.382 -0.626,0.662 -1.189,0.662 -1.75,0.662 -2.22,0.382 -2.376,0 c -0.395,-0.11 -0.685,-0.469 -0.685,-0.898 0,-0.517 0.419,-0.936 0.936,-0.936 0.409,0 0.753,0.263 0.88,0.628 0.019,0 0.037,-0.004 0.056,-0.004 0.02,0 0.038,0.004 0.057,0.004 0.128,-0.365 0.472,-0.628 0.88,-0.628 0.517,0 0.937,0.419 0.937,0.936 C 0.685,-0.469 0.394,-0.111 0,0"
                 inkscape:connector-curvature="0" />
            </g>
            <g
               transform="translate(10.9995,9)"
               id="g328">
              <path
                 id="path330"
                 style="fill:#aab8c2;fill-opacity:1;fill-rule:nonzero;stroke:none"
                 d="M 0,0 C 0,0.367 0.075,0.713 0.196,1.038 -0.789,1.485 -1.635,2.12 -2.307,3.008 -3.414,2.04 -4.47,1.133 -5.434,0.313 -6.015,0.74 -6.724,1 -7.499,1 c -1.934,0 -3.5,-1.566 -3.5,-3.5 0,-1.778 1.329,-3.229 3.045,-3.454 C -7.729,-7.671 -6.277,-9 -4.499,-9 c 1.933,0 3.5,1.566 3.5,3.5 0,0.775 -0.261,1.485 -0.687,2.065 0.6,0.706 1.246,1.46 1.931,2.25 C 0.088,-0.821 0,-0.421 0,0"
                 inkscape:connector-curvature="0" />
            </g>
            <g
               transform="translate(27.8715,24.4822)"
               id="g332">
              <path
                 id="path334"
                 style="fill:#aab8c2;fill-opacity:1;fill-rule:nonzero;stroke:none"
                 d="m 0,0 c 0.884,0.769 1.729,1.495 2.515,2.162 0.57,-0.403 1.262,-0.644 2.014,-0.644 1.933,0 3.5,1.567 3.5,3.5 0,1.743 -1.277,3.177 -2.945,3.444 -0.221,1.721 -1.674,3.056 -3.456,3.056 -1.933,0 -3.5,-1.567 -3.5,-3.5 0,-0.775 0.261,-1.485 0.687,-2.065 C -1.779,5.253 -2.418,4.508 -3.096,3.726 -1.795,2.855 -0.735,1.631 0,0"
                 inkscape:connector-curvature="0" />
            </g>
            <g
               transform="translate(3.5,26)"
               id="g336">
              <path
                 id="path338"
                 style="fill:#aab8c2;fill-opacity:1;fill-rule:nonzero;stroke:none"
                 d="M 0,0 C 0.775,0 1.485,0.26 2.065,0.687 2.863,0.008 3.726,-0.732 4.628,-1.518 5.363,0.113 6.424,1.337 7.725,2.208 7.046,2.99 6.408,3.736 5.813,4.435 6.24,5.015 6.5,5.725 6.5,6.5 6.5,8.433 4.933,10 3,10 1.222,10 -0.229,8.67 -0.454,6.954 -2.17,6.729 -3.5,5.277 -3.5,3.5 -3.5,1.567 -1.933,0 0,0"
                 inkscape:connector-curvature="0" />
            </g>
            <g
               transform="translate(32.4004,10)"
               id="g340">
              <path
                 id="path342"
                 style="fill:#aab8c2;fill-opacity:1;fill-rule:nonzero;stroke:none"
                 d="M 0,0 C -0.752,0 -1.444,-0.242 -2.014,-0.645 -2.966,0.164 -4.004,1.056 -5.093,2.009 -5.765,1.12 -6.612,0.485 -7.596,0.038 -7.476,-0.287 -7.4,-0.633 -7.4,-1 c 0,-0.421 -0.089,-0.821 -0.245,-1.185 0.685,-0.79 1.331,-1.544 1.931,-2.25 C -6.14,-5.015 -6.4,-5.725 -6.4,-6.5 c 0,-1.934 1.566,-3.5 3.5,-3.5 1.781,0 3.235,1.334 3.455,3.056 C 2.223,-6.677 3.5,-5.244 3.5,-3.5 3.5,-1.566 1.934,0 0,0"
                 inkscape:connector-curvature="0" />
            </g>
          </g>
        </g>
      </g>
    </g>
    <g
       transform="matrix(-0.34335872,-0.57144487,0.57144487,-0.34335872,104.04399,61.21271)"
       id="g344">
      <g
         transform="matrix(1.25,0,0,-1.25,0,47.5)"
         id="g346">
        <g
           id="g348">
          <g
             clip-path="url(#clipPath16)"
             id="g350">
            <g
               transform="translate(19,36)"
               id="g352">
              <path
                 id="path354"
                 style="fill:#ffcc4d;fill-opacity:1;fill-rule:nonzero;stroke:none"
                 d="m 0,0 c -9.388,0 -17,-7.612 -17,-17 0,-5.715 2.829,-10.759 7.153,-13.841 0.098,6.081 -2.112,12.897 -5.827,12.897 -0.438,0 -0.793,-0.063 -1.089,-0.173 0.286,0.714 0.907,1.117 2.068,1.117 4.032,0 6.295,-8.034 5.754,-14.439 C -6.341,-33.053 -3.285,-34 0,-34 c 3.285,0 6.343,0.948 8.944,2.562 -0.545,6.429 1.717,14.438 5.752,14.438 1.165,0 1.787,-0.402 2.071,-1.117 -0.296,0.11 -0.652,0.173 -1.093,0.173 -3.719,0 -5.93,-6.8 -5.827,-12.897 C 14.171,-27.759 17,-22.715 17,-17 17,-7.612 9.389,0 0,0"
                 inkscape:connector-curvature="0" />
            </g>
            <g
               transform="translate(19,36)"
               id="g356">
              <path
                 id="path358"
                 style="fill:#bdddf4;fill-opacity:1;fill-rule:nonzero;stroke:none"
                 d="m 0,0 c -9.388,0 -17,-7.612 -17,-17 0,-1.126 0.116,-2.225 0.325,-3.291 0.221,0.816 0.566,1.598 0.999,2.347 -0.437,0 -0.791,-0.063 -1.087,-0.173 0.25,0.623 0.777,0.99 1.67,1.078 2.826,3.947 8.516,6.65 15.093,6.65 6.577,0 12.267,-2.702 15.093,-6.649 0.897,-0.088 1.426,-0.455 1.674,-1.079 -0.296,0.11 -0.651,0.173 -1.091,0.173 0.433,-0.749 0.778,-1.531 0.999,-2.347 C 16.885,-19.225 17,-18.126 17,-17 17,-7.612 9.389,0 0,0"
                 inkscape:connector-curvature="0" />
            </g>
            <g
               transform="translate(8.3472,25.0898)"
               id="g360">
              <path
                 id="path362"
                 style="fill:#f5f8fa;fill-opacity:1;fill-rule:nonzero;stroke:none"
                 d="M 0,0 C -0.946,-3.176 0.107,-6.293 2.353,-6.962 4.599,-7.632 7.187,-5.6 8.132,-2.424 9.078,0.751 8.025,3.869 5.781,4.538 3.535,5.207 0.947,3.175 0,0"
                 inkscape:connector-curvature="0" />
            </g>
            <g
               transform="translate(29.6523,25.0898)"
               id="g364">
              <path
                 id="path366"
                 style="fill:#f5f8fa;fill-opacity:1;fill-rule:nonzero;stroke:none"
                 d="m 0,0 c 0.946,-3.176 -0.107,-6.293 -2.352,-6.962 -2.247,-0.67 -4.834,1.362 -5.78,4.538 -0.946,3.175 0.107,6.293 2.351,6.962 C -3.535,5.207 -0.947,3.175 0,0"
                 inkscape:connector-curvature="0" />
            </g>
            <g
               transform="translate(19,19)"
               id="g368">
              <path
                 id="path370"
                 style="fill:#664500;fill-opacity:1;fill-rule:nonzero;stroke:none"
                 d="m 0,0 c -2.757,0 -5,-2.243 -5,-5 l 0,-6 c 0,-2.757 2.243,-5 5,-5 2.757,0 5,2.243 5,5 l 0,6 C 5,-2.243 2.757,0 0,0"
                 inkscape:connector-curvature="0" />
            </g>
            <g
               transform="translate(3.3263,18.0556)"
               id="g372">
              <path
                 id="path374"
                 style="fill:#fcab40;fill-opacity:1;fill-rule:nonzero;stroke:none"
                 d="m 0,0 c -0.439,0 -0.793,-0.063 -1.089,-0.172 0.068,0.168 0.157,0.317 0.265,0.45 -1.758,-2.165 2.188,-9.288 0.271,-16.334 l 6.101,0 C 6.671,-9.482 4.381,0 0,0"
                 inkscape:connector-curvature="0" />
            </g>
            <g
               transform="translate(35.7666,17.8831)"
               id="g376">
              <path
                 id="path378"
                 style="fill:#fcab40;fill-opacity:1;fill-rule:nonzero;stroke:none"
                 d="m 0,0 c -0.296,0.11 -0.652,0.172 -1.093,0.172 -4.383,0 -6.673,-9.446 -5.547,-16.055 l 6.101,0 C -2.338,-9.23 1.026,-2.577 0,0"
                 inkscape:connector-curvature="0" />
            </g>
          </g>
        </g>
      </g>
    </g>
    <g
       transform="matrix(0,0.96666667,-0.96666667,0,107.59259,28.194444)"
       id="g380">
      <g
         transform="matrix(1.25,0,0,-1.25,0,47.5)"
         id="g382">
        <g
           id="g384">
          <g
             clip-path="url(#clipPath16)"
             id="g386">
            <g
               transform="translate(24.9121,24.9131)"
               id="g388">
              <path
                 id="path390"
                 style="fill:#f18f26;fill-opacity:1;fill-rule:nonzero;stroke:none"
                 d="m 0,0 c -1.693,1.692 -3.594,2.587 -5.497,2.587 -1.626,0 -3.19,-0.668 -4.402,-1.88 -1.519,-1.519 -1.728,-2.39 -1.866,-2.966 -0.07,-0.295 -0.105,-0.421 -0.255,-0.57 -0.105,-0.106 -0.155,-0.256 -0.14,-0.406 0.015,-0.149 0.1,-0.286 0.225,-0.369 0.013,-0.009 0.324,-0.22 0.368,-0.651 0.039,-0.394 -0.13,-1.08 -1.16,-2.11 -0.629,-0.629 -1.252,-0.948 -1.85,-0.948 -0.981,0 -1.649,0.87 -1.653,0.876 -0.111,0.15 -0.295,0.227 -0.481,0.197 -0.185,-0.029 -0.337,-0.158 -0.396,-0.335 -0.221,-0.663 -0.251,-0.668 -0.535,-0.709 -0.59,-0.086 -1.578,-0.23 -3.624,-2.276 -1.675,-1.674 -2.265,-3.766 -1.708,-6.047 0.395,-1.618 1.408,-3.359 2.708,-4.66 1.408,-1.408 3.803,-2.912 6.301,-2.912 l 10e-4,0 c 1.654,0 3.136,0.643 4.405,1.912 2.046,2.046 2.189,3.034 2.275,3.624 0.041,0.285 0.046,0.314 0.709,0.535 0.178,0.059 0.307,0.212 0.336,0.396 0.03,0.184 -0.046,0.369 -0.196,0.481 -0.008,0.005 -0.805,0.619 -0.873,1.527 -0.047,0.638 0.27,1.302 0.944,1.975 0.963,0.963 1.622,1.166 2.005,1.166 0.504,0 0.746,-0.358 0.752,-0.367 0.08,-0.13 0.215,-0.216 0.368,-0.234 0.142,-0.016 0.302,0.035 0.411,0.143 0.149,0.15 0.275,0.185 0.57,0.255 0.576,0.139 1.446,0.348 2.965,1.867 C 2.994,-7.612 3.663,-3.664 0,0"
                 inkscape:connector-curvature="0" />
            </g>
            <g
               transform="translate(33,32.0005)"
               id="g392">
              <path
                 id="path394"
                 style="fill:#292f33;fill-opacity:1;fill-rule:nonzero;stroke:none"
                 d="M 0,0 -13.878,-15 -16,-12.879 -1,1 0,0 Z"
                 inkscape:connector-curvature="0" />
            </g>
            <g
               transform="translate(35.7041,34.3145)"
               id="g396">
              <path
                 id="path398"
                 style="fill:#f18f26;fill-opacity:1;fill-rule:nonzero;stroke:none"
                 d="m 0,0 c 0.437,-0.438 0.437,-1.155 -0.001,-1.592 l -3.187,-3.186 c -0.438,-0.438 -1.155,-0.438 -1.592,0 l -1.39,1.389 c -0.437,0.438 -0.437,1.155 0.001,1.593 l 3.187,3.186 c 0.438,0.437 1.155,0.437 1.592,-10e-4 L 0,0 Z"
                 inkscape:connector-curvature="0" />
            </g>
            <g
               transform="translate(35,29)"
               id="g400">
              <path
                 id="path402"
                 style="fill:#642116;fill-opacity:1;fill-rule:nonzero;stroke:none"
                 d="m 0,0 c 0,-0.552 -0.447,-1 -1,-1 -0.553,0 -1,0.448 -1,1 0,0.552 0.447,1 1,1 0.553,0 1,-0.448 1,-1"
                 inkscape:connector-curvature="0" />
            </g>
            <g
               transform="translate(37,31)"
               id="g404">
              <path
                 id="path406"
                 style="fill:#642116;fill-opacity:1;fill-rule:nonzero;stroke:none"
                 d="m 0,0 c 0,-0.553 -0.447,-1 -1,-1 -0.553,0 -1,0.447 -1,1 0,0.553 0.447,1 1,1 0.553,0 1,-0.447 1,-1"
                 inkscape:connector-curvature="0" />
            </g>
            <g
               transform="translate(30,34)"
               id="g408">
              <path
                 id="path410"
                 style="fill:#642116;fill-opacity:1;fill-rule:nonzero;stroke:none"
                 d="m 0,0 c 0,-0.553 -0.447,-1 -1,-1 -0.553,0 -1,0.447 -1,1 0,0.553 0.447,1 1,1 0.553,0 1,-0.447 1,-1"
                 inkscape:connector-curvature="0" />
            </g>
            <g
               transform="translate(32,36)"
               id="g412">
              <path
                 id="path414"
                 style="fill:#642116;fill-opacity:1;fill-rule:nonzero;stroke:none"
                 d="m 0,0 c 0,-0.553 -0.447,-1 -1,-1 -0.553,0 -1,0.447 -1,1 0,0.553 0.447,1 1,1 0.553,0 1,-0.447 1,-1"
                 inkscape:connector-curvature="0" />
            </g>
            <g
               transform="translate(3,5)"
               id="g416">
              <path
                 id="path418"
                 style="fill:#292f33;fill-opacity:1;fill-rule:nonzero;stroke:none"
                 d="M 0,0 4,5 C 4,5 4.999,5 6,4 7,3 7,2 7,2 L 2,-2 0,0 Z"
                 inkscape:connector-curvature="0" />
            </g>
            <g
               transform="translate(13.9995,10)"
               id="g420">
              <path
                 id="path422"
                 style="fill:#fee7b8;fill-opacity:1;fill-rule:nonzero;stroke:none"
                 d="m 0,0 c -0.256,0 -0.512,0.098 -0.707,0.293 l -3,3 c -0.391,0.391 -0.391,1.023 0,1.414 0.391,0.391 1.023,0.391 1.414,0 l 3,-3 C 1.098,1.316 1.098,0.684 0.707,0.293 0.512,0.098 0.256,0 0,0"
                 inkscape:connector-curvature="0" />
            </g>
          </g>
        </g>
      </g>
    </g>
    <g
       transform="matrix(0.19842793,-0.74054313,0.74054313,0.19842793,68.239938,102.14364)"
       id="g424">
      <g
         transform="matrix(1.25,0,0,-1.25,0,47.5)"
         id="g426">
        <g
           id="g428">
          <g
             clip-path="url(#clipPath16)"
             id="g430">
            <g
               transform="translate(36,19)"
               id="g432">
              <path
                 id="path434"
                 style="fill:#ffcc4d;fill-opacity:1;fill-rule:nonzero;stroke:none"
                 d="m 0,0 c 0,-9.389 -7.611,-17 -17,-17 -9.388,0 -17,7.611 -17,17 0,9.388 7.612,17 17,17 C -7.611,17 0,9.388 0,0"
                 inkscape:connector-curvature="0" />
            </g>
            <g
               transform="translate(19,15)"
               id="g436">
              <path
                 id="path438"
                 style="fill:#664500;fill-opacity:1;fill-rule:nonzero;stroke:none"
                 d="m 0,0 c -3.623,0 -6.027,0.422 -9,1 -0.679,0.131 -2,0 -2,-2 0,-4 4.595,-9 11,-9 6.404,0 11,5 11,9 C 11,1 9.679,1.132 9,1 6.027,0.422 3.623,0 0,0"
                 inkscape:connector-curvature="0" />
            </g>
            <g
               transform="translate(10,14)"
               id="g440">
              <path
                 id="path442"
                 style="fill:#ffffff;fill-opacity:1;fill-rule:nonzero;stroke:none"
                 d="m 0,0 c 0,0 3,-1 9,-1 6,0 9,1 9,1 0,0 -2,-4 -9,-4 -7,0 -9,4 -9,4"
                 inkscape:connector-curvature="0" />
            </g>
            <g
               transform="translate(31.5996,18.7998)"
               id="g444">
              <path
                 id="path446"
                 style="fill:#664500;fill-opacity:1;fill-rule:nonzero;stroke:none"
                 d="M 0,0 C -0.114,0.085 -1.931,1.426 -4.646,2.344 -4.619,2.459 -4.6,2.577 -4.6,2.7 -4.6,3.069 -4.738,3.403 -4.959,3.664 -3.156,4.185 -1.625,4.2 -1.598,4.2 -1.047,4.202 -0.6,4.65 -0.601,5.202 -0.602,5.753 -1.048,6.2 -1.6,6.2 -1.82,6.2 -7.051,6.163 -10.307,2.907 -10.593,2.621 -10.679,2.191 -10.523,1.817 -10.369,1.444 -10.004,1.2 -9.6,1.2 c 4.59,0 8.364,-2.772 8.402,-2.801 0.18,-0.133 0.389,-0.198 0.597,-0.198 0.305,0 0.606,0.139 0.802,0.401 C 0.531,-0.956 0.441,-0.331 0,0"
                 inkscape:connector-curvature="0" />
            </g>
            <g
               transform="translate(16.707,21.707)"
               id="g448">
              <path
                 id="path450"
                 style="fill:#664500;fill-opacity:1;fill-rule:nonzero;stroke:none"
                 d="m 0,0 c -3.255,3.255 -8.486,3.293 -8.707,3.293 -0.552,0 -0.999,-0.447 -0.999,-0.999 -0.001,-0.551 0.446,-1 0.998,-1.001 0.026,0 1.558,-0.016 3.36,-0.536 -0.22,-0.261 -0.359,-0.595 -0.359,-0.964 0,-0.123 0.019,-0.241 0.047,-0.356 -2.716,-0.918 -4.533,-2.259 -4.647,-2.344 -0.442,-0.331 -0.531,-0.958 -0.2,-1.4 0.196,-0.262 0.497,-0.4 0.801,-0.4 0.208,0 0.419,0.065 0.599,0.2 0.037,0.028 3.787,2.8 8.4,2.8 0.404,0 0.769,0.244 0.924,0.617 C 0.372,-0.716 0.286,-0.286 0,0"
                 inkscape:connector-curvature="0" />
            </g>
          </g>
        </g>
      </g>
    </g>
    <g
       transform="matrix(-0.48333333,-0.83715789,0.83715789,-0.48333333,42.278137,126.59223)"
       id="g452">
      <g
         transform="matrix(1.25,0,0,-1.25,0,47.5)"
         id="g454">
        <g
           id="g456">
          <g
             clip-path="url(#clipPath16)"
             id="g458">
            <g
               transform="translate(6,32)"
               id="g460">
              <path
                 id="path462"
                 style="fill:#ffac33;fill-opacity:1;fill-rule:nonzero;stroke:none"
                 d="M 0,0 6,0 C 7.104,0 8,0.104 8,-1 L 8,1 C 8,2.104 7.104,3 6,3 l -8,0 c -2,0 -3.583,-2.125 -3,-5 0,0 1.791,-9.375 1.917,-9.958 C -2.75,-13.5 -0.958,-15 0.958,-15 l 6.959,0 C 9.021,-15 8,-13.104 8,-12 l 0,2 c 0,-1.104 -0.896,-2 -2,-2 l -4,0 c -1.104,0 -1.833,1.042 -2,2 -0.167,0.958 -1.583,7.333 -1.583,7.333 C -1.917,-0.75 -1.104,0 0,0"
                 inkscape:connector-curvature="0" />
            </g>
            <g
               transform="translate(31.8125,32)"
               id="g464">
              <path
                 id="path466"
                 style="fill:#ffac33;fill-opacity:1;fill-rule:nonzero;stroke:none"
                 d="m 0,0 -6,0 c -1.104,0 -2.813,0.104 -2.813,-1 l 0,2 c 0,1.104 1.709,2 2.813,2 l 8,0 c 2,0 3.584,-2.125 3,-5 0,0 -1.633,-9.419 -1.771,-10 -0.354,-1.5 -2.042,-3 -4,-3 l -7.145,0 c -1.105,0 -0.897,1.896 -0.897,3 l 0,2 c 0,-1.104 1.709,-2 2.813,-2 l 4,0 c 1.104,0 1.834,1.042 2,2 0.166,0.958 1.584,7.333 1.584,7.333 C 1.916,-0.75 1.104,0 0,0"
                 inkscape:connector-curvature="0" />
            </g>
            <g
               transform="translate(21.709,15)"
               id="g468">
              <path
                 id="path470"
                 style="fill:#ffac33;fill-opacity:1;fill-rule:nonzero;stroke:none"
                 d="m 0,0 c 0,6.958 -2.709,0 -2.709,0 0,0 -3,6.958 -3,0 C -5.709,-6.958 -9,-10 -9,-10 l 6.291,0 6,0 C 3.291,-10 0,-6.958 0,0"
                 inkscape:connector-curvature="0" />
            </g>
            <g
               transform="translate(30,30.4233)"
               id="g472">
              <path
                 id="path474"
                 style="fill:#ffcc4d;fill-opacity:1;fill-rule:nonzero;stroke:none"
                 d="m 0,0 c 0,-6.775 -6.77,-18.192 -11,-18.192 -4.231,0 -11,11.417 -11,18.192 0,5.195 1,6.319 3,6.319 1.374,0 6.025,0.027 8,0.027 1.391,0 5.914,0.002 7,0.002 2.917,0 4,-0.685 4,-6.348"
                 inkscape:connector-curvature="0" />
            </g>
            <g
               transform="translate(28,4)"
               id="g476">
              <path
                 id="path478"
                 style="fill:#c1694f;fill-opacity:1;fill-rule:nonzero;stroke:none"
                 d="m 0,0 c 0,-1.104 0.104,-2 -1,-2 l -16,0 c -1.104,0 -1,0.896 -1,2 l 0,1 c 0,1.104 1.042,2 2.083,2 L -2,3 C -0.958,3 0,2.104 0,1 L 0,0 Z"
                 inkscape:connector-curvature="0" />
            </g>
            <g
               transform="translate(30,2.375)"
               id="g480">
              <path
                 id="path482"
                 style="fill:#c1694f;fill-opacity:1;fill-rule:nonzero;stroke:none"
                 d="m 0,0 c 0,-0.76 0.042,-1.375 -1.375,-1.375 l -19.25,0 C -21.917,-1.375 -22,-0.76 -22,0 l 0,0.25 c 0,0.76 0.616,1.375 1.375,1.375 l 19.25,0 C -0.615,1.625 0,1.01 0,0.25 L 0,0 Z"
                 inkscape:connector-curvature="0" />
            </g>
          </g>
        </g>
      </g>
    </g>
  </g>
</svg>
