<?xml version="1.0" encoding="UTF-8" standalone="no"?>
<svg
   xmlns:dc="http://purl.org/dc/elements/1.1/"
   xmlns:cc="http://creativecommons.org/ns#"
   xmlns:rdf="http://www.w3.org/1999/02/22-rdf-syntax-ns#"
   xmlns:svg="http://www.w3.org/2000/svg"
   xmlns="http://www.w3.org/2000/svg"
   xmlns:sodipodi="http://sodipodi.sourceforge.net/DTD/sodipodi-0.dtd"
   xmlns:inkscape="http://www.inkscape.org/namespaces/inkscape"
   version="1.1"
   id="svg2"
   viewBox="0 0 200 200"
   height="200px"
   width="200px"
   inkscape:version="0.91 r13725"
   sodipodi:docname="99.svg">
  <metadata
     id="metadata460">
    <rdf:RDF>
      <cc:Work
         rdf:about="">
        <dc:format>image/svg+xml</dc:format>
        <dc:type
           rdf:resource="http://purl.org/dc/dcmitype/StillImage" />
      </cc:Work>
    </rdf:RDF>
  </metadata>
  <sodipodi:namedview
     pagecolor="#ffffff"
     bordercolor="#666666"
     borderopacity="1"
     objecttolerance="10"
     gridtolerance="10"
     guidetolerance="10"
     inkscape:pageopacity="0"
     inkscape:pageshadow="2"
     inkscape:window-width="1920"
     inkscape:window-height="1060"
     id="namedview458"
     showgrid="false"
     inkscape:zoom="4.32"
     inkscape:cx="100"
     inkscape:cy="100"
     inkscape:window-x="0"
     inkscape:window-y="0"
     inkscape:window-maximized="1"
     inkscape:current-layer="layer1" />
  
    
    
    <defs id="defs6">

        <clipPath
           id="clipPath28"
           clipPathUnits="userSpaceOnUse">
          <path
             id="path30"
             d="M 4,36 C 0,36 0,32 0,32 L 0,32 0,4 C 0,0 4,0 4,0 l 0,0 28,0 c 4,0 4,4 4,4 l 0,0 0,28 c 0,4 -4,4 -4,4 l 0,0 -28,0 z" />
        </clipPath>


        <clipPath clipPathUnits="userSpaceOnUse" id="clipPath16-rugby">
            <path d="M 0,38 38,38 38,0 0,0 0,38 Z" id="path18"/>
        </clipPath>
        <clipPath clipPathUnits="userSpaceOnUse" id="clipPath28-rugby">
            <path d="M 9.254,28.746 C 2.09,21.582 -0.927,9.561 3.929,3.929 l 0,0 C 9.561,-0.927 21.582,2.09 28.746,9.254 l 0,0 c 7.164,7.164 11.229,17.088 5.324,24.816 l 0,0 c -1.886,1.627 -4.489,2.371 -7.387,2.37 l 0,0 c -5.752,0 -12.665,-2.93 -17.429,-7.694" id="path30"/>
        </clipPath>

        <clipPath clipPathUnits="userSpaceOnUse" id="clipPath16-carrot">
            <path d="M 0,36 36,36 36,0 0,0 0,36 Z" id="path18"/>
        </clipPath>
        <clipPath clipPathUnits="userSpaceOnUse" id="clipPath32-carrot">
            <path d="M 11.815,23.013 C 4.2,15.397 -1.265,2.86 0.502,1.093 l 0,0 c 1.768,-1.768 14.305,3.698 21.92,11.313 l 0,0 c 7.616,7.615 7.562,11.53 4.243,14.85 l 0,0 c -1.328,1.328 -2.752,2.133 -4.47,2.133 l 0,0 c -2.575,0 -5.812,-1.809 -10.38,-6.376" id="path34"/>
        </clipPath>

        <clipPath clipPathUnits="userSpaceOnUse" id="clipPath32-hat">
            <path d="m 5,33.666 c 0,-0.034 0.018,-0.067 0.022,-0.101 l 0,0 C 5.008,33.455 5,33.335 5,33.2 l 0,0 L 6.802,9.616 C 3.299,8.705 1,7.424 1,6 L 1,6 C 1,3.238 9.611,1 19,1 l 0,0 c 9.389,0 18,2.238 18,5 l 0,0 c 0,1.424 -2.298,2.705 -5.801,3.616 l 0,0 L 33,33.184 c 0,0.135 -0.008,0.263 -0.021,0.373 l 0,0 C 32.982,33.591 33,33.632 33,33.666 l 0,0 c 0,1.805 -6.268,3.267 -14,3.267 l 0,0 c -7.732,0 -14,-1.462 -14,-3.267" id="path34"/>
        </clipPath>


        <clipPath clipPathUnits="userSpaceOnUse" id="clipPath48-soccer">
            <path d="M 1,19 C 1,9.059 9.059,1 19,1 l 0,0 c 9.941,0 18,8.059 18,18 l 0,0 c 0,9.941 -8.059,18 -18,18 l 0,0 C 9.059,37 1,28.941 1,19" id="path50"/>
        </clipPath>

        <clipPath clipPathUnits="userSpaceOnUse" id="clipPath28-baguette">
            <path d="M 24.052,31.33 5.126,12.406 C 1.342,8.62 1.288,4.133 2.856,2.564 l 0,0 C 4.424,0.997 8.912,1.049 12.697,4.835 l 0,0 18.925,18.924 c 3.784,3.785 3.837,8.273 2.269,9.841 l 0,0 c -0.605,0.606 -1.647,0.969 -2.915,0.969 l 0,0 c -2.014,0 -4.602,-0.917 -6.924,-3.239" id="path30"/>
        </clipPath>
    </defs>



  <g
     id="layer1">
    <circle
       style="opacity:1;fill:white;stroke:black;stroke-width:1;stroke-miterlimit:4;stroke-dasharray:none;stroke-opacity:0.1"
       id="path4039-0-9"
       cx="100px"
       cy="100px"
       r="90px" />
    <g
       transform="matrix(-0.49252918,-0.6304086,0.6304086,-0.49252918,103.92402,65.684713)"
       id="g8">
      <g
         transform="matrix(1.25,0,0,-1.25,0,45)"
         id="g10">
        <g
           id="g12">
          <g
             clip-path="url(#clipPath16)"
             id="g14">
            <g
               transform="translate(23.2832,12.7246)"
               id="g20">
              <path
                 id="path22"
                 style="fill:#e1e8ed;fill-opacity:1;fill-rule:nonzero;stroke:none"
                 d="m 0,0 c 0,0 1.374,-1.635 2.733,-10.047 0.143,-0.883 0.202,-1.775 0.217,-2.678 l 9.767,0 0,28.553 c -4.387,3.472 -10.4,4.188 -17.678,1.757 0,0 -5.408,3 -6.147,3.74 -0.719,0.719 -1.857,1.555 -1.235,-0.35 0.364,-1.113 0.764,-2.373 2.359,-4.862 -3.436,-2.036 -4.513,-4.68 -8.558,-13.342 -3.089,-6.616 -4.662,-8.764 -3.805,-11.292 1.13,-3.337 5.316,-5.595 8.844,-3.021 1.919,1.4 2.246,3.913 6.225,6.223 C -3.624,-5.255 0,-3.716 0,0"
                 inkscape:connector-curvature="0" />
            </g>
            <g
               transform="translate(36,29.9878)"
               id="g24">
              <path
                 id="path26"
                 style="fill:#292f33;fill-opacity:1;fill-rule:nonzero;stroke:none"
                 d="M 0,0 C -8.335,5.711 -21.646,4.539 -20.091,-0.178 -10.49,1.684 -4.23,-1.719 0,-7.346 L 0,0 Z"
                 inkscape:connector-curvature="0" />
            </g>
            <g
               transform="translate(19.6631,30.2373)"
               id="g28">
              <path
                 id="path18"
                 style="fill:#292f33;fill-opacity:1;fill-rule:nonzero;stroke:none"
                 d="m 0,0 c -2.878,-0.233 -7.28,-1.765 -9.42,-4.137 0,0 -0.005,5.317 3.69,5.783 C 0.441,2.425 0.078,1.284 0.078,1.284 L 0,0 Z"
                 inkscape:connector-curvature="0" />
            </g>
            <g
               transform="translate(16.3569,34.9438)"
               id="g32">
              <path
                 id="path34"
                 style="fill:#e1e8ed;fill-opacity:1;fill-rule:nonzero;stroke:none"
                 d="M 0,0 C 0.558,-1.155 4.006,-1.79 5.056,-6.029 6.107,-10.269 1.922,-8.979 0.7,-6.884 -0.662,-4.551 -1.128,-2.723 -1.167,-1.206 -1.188,-0.404 -1.128,2.333 0,0"
                 inkscape:connector-curvature="0" />
            </g>
            <g
               transform="translate(16.5962,33.1616)"
               id="g36">
              <path
                 id="path38"
                 style="fill:#66757f;fill-opacity:1;fill-rule:nonzero;stroke:none"
                 d="M 0,0 C 1.103,-0.968 2.448,-2.472 2.65,-3.955 2.852,-5.438 1.525,-4.943 0.914,-3.583 0.302,-2.224 0.161,-0.804 -0.22,-0.35 -0.6,0.104 0,0 0,0"
                 inkscape:connector-curvature="0" />
            </g>
            <g
               transform="translate(16.9399,20.4746)"
               id="g40">
              <path
                 id="path42"
                 style="fill:#292f33;fill-opacity:1;fill-rule:nonzero;stroke:none"
                 d="m 0,0 c 0,-0.687 -0.557,-1.244 -1.245,-1.244 -0.687,0 -1.244,0.557 -1.244,1.244 0,0.687 0.557,1.245 1.244,1.245 C -0.557,1.245 0,0.687 0,0"
                 inkscape:connector-curvature="0" />
            </g>
            <g
               transform="translate(10.3545,26.0757)"
               id="g44">
              <path
                 id="path46"
                 style="fill:#e1e8ed;fill-opacity:1;fill-rule:nonzero;stroke:none"
                 d="m 0,0 c -0.033,0.018 -0.075,0.015 -0.111,0.024 -1.543,-2.032 -2.921,-5.102 -5.49,-10.604 -1.356,-2.903 -2.42,-4.946 -3.116,-6.538 1.628,-0.225 3.285,1.443 3.946,3.272 0.673,1.866 3.215,5.652 4.926,7.778 C 1.867,-3.941 1.716,-0.924 0,0"
                 inkscape:connector-curvature="0" />
            </g>
            <g
               transform="translate(28.1875,29.6875)"
               id="g48">
              <path
                 id="path50"
                 style="fill:#292f33;fill-opacity:1;fill-rule:nonzero;stroke:none"
                 d="m 0,0 c 0,0 -2.296,-6.947 -2.302,-8.947 -0.011,-3.803 -2.686,-7.801 -2.686,-7.801 l 1.342,-3.422 c 0,0 3.25,3.04 3.937,10.228 0.571,5.972 2.566,7.666 2.566,7.666 L 0,0 Z"
                 inkscape:connector-curvature="0" />
            </g>
            <g
               transform="translate(34.0625,26.5625)"
               id="g52">
              <path
                 id="path54"
                 style="fill:#292f33;fill-opacity:1;fill-rule:nonzero;stroke:none"
                 d="M 0,0 C 0,0 -3.006,-3.635 -4.062,-9.563 -5.5,-17.625 -8.92,-19.309 -8.92,-19.309 l 0.482,-2.441 c 0,0 5.282,3.056 6.632,9.115 1.619,7.26 3.743,8.714 3.743,8.714 L 0,0 Z"
                 inkscape:connector-curvature="0" />
            </g>
            <g
               transform="translate(3.25,12.5625)"
               id="g56">
              <path
                 id="path58"
                 style="fill:#292f33;fill-opacity:1;fill-rule:nonzero;stroke:none"
                 d="m 0,0 c 0.687,0.714 3.017,-3.808 4.53,-4.884 1.589,-1.13 5.469,-0.934 5.7,-2.162 -1.667,-1.704 -2.762,-4.272 -4.84,-4.988 -2.077,-0.716 -5.71,-0.677 -7.238,2.647 -1.527,3.325 -0.402,4.7 0.223,6.137 C -1,-1.812 -0.167,-0.312 0,0"
                 inkscape:connector-curvature="0" />
            </g>
            <g
               transform="translate(4.2217,6.083)"
               id="g60">
              <path
                 id="path62"
                 style="fill:#66757f;fill-opacity:1;fill-rule:nonzero;stroke:none"
                 d="m 0,0 c 0,-0.881 -0.532,-1.594 -1.187,-1.594 -0.654,0 -1.186,0.713 -1.186,1.594 0,0.882 0.532,1.596 1.186,1.596 C -0.532,1.596 0,0.882 0,0"
                 inkscape:connector-curvature="0" />
            </g>
            <g
               transform="translate(25.9541,3.0547)"
               id="g64">
              <path
                 id="path66"
                 style="fill:#292f33;fill-opacity:1;fill-rule:nonzero;stroke:none"
                 d="m 0,0 c 0,0 4.608,1.57 6.108,3.383 1.5,1.812 3.938,5.562 3.938,5.562 l 0,-6.375 c 0,0 -1.188,-1.625 -3.688,-2.937 C 4.773,-1.199 0.267,-2.618 0.267,-2.618 L 0,0 Z"
                 inkscape:connector-curvature="0" />
            </g>
            <g
               transform="translate(25.0098,29.9204)"
               id="g68">
              <path
                 id="path70"
                 style="fill:#292f33;fill-opacity:1;fill-rule:nonzero;stroke:none"
                 d="m 0,0 c 0,0 -0.947,-2.92 -1.197,-5.92 -0.25,-3 -1.125,-4.875 -1.938,-6.188 0.313,4.25 -0.687,5.875 -0.125,8.125 0.563,2.25 0.87,4.32 0.87,4.32 0,0 0.63,0.368 1.255,0.305 C -0.51,0.58 0,0 0,0"
                 inkscape:connector-curvature="0" />
            </g>
            <g
               transform="translate(4.7534,15.4961)"
               id="g72">
              <path
                 id="path74"
                 style="fill:#292f33;fill-opacity:1;fill-rule:nonzero;stroke:none"
                 d="m 0,0 c 0,0 3.934,0.379 5.747,-0.871 1.812,-1.25 5.331,-7.323 5.331,-7.323 L 9.944,-8.947 c 0,0 -1.697,4.638 -4.76,6.076 -3.062,1.437 -6,1.187 -6,1.187 L 0,0 Z"
                 inkscape:connector-curvature="0" />
            </g>
            <g
               transform="translate(5.605,17.3218)"
               id="g76">
              <path
                 id="path78"
                 style="fill:#292f33;fill-opacity:1;fill-rule:nonzero;stroke:none"
                 d="m 0,0 c 0,0 5.516,0.358 6.958,-1.509 2.75,-3.563 3.831,-5.01 4.446,-8.349 l 1.785,0.307 C 12.395,-6.634 10.583,-1.447 7.27,0.741 3.958,2.928 1.02,2.428 1.02,2.428 L 0,0 Z"
                 inkscape:connector-curvature="0" />
            </g>
            <g
               transform="translate(17.875,23.3125)"
               id="g80">
              <path
                 id="path82"
                 style="fill:#292f33;fill-opacity:1;fill-rule:nonzero;stroke:none"
                 d="M 0,0 C -0.625,-0.687 2,-3.313 1.125,-5.5 0.25,-7.687 0.75,-10.75 1.25,-12.125 c 0.5,-1.375 1.26,-2.839 1.26,-2.839 l 1.622,1.146 c 0,0 -0.257,1.505 -1.007,3.693 -0.75,2.188 -0.687,2.25 -0.375,4.438 C 3.063,-3.5 0.625,0.687 0,0"
                 inkscape:connector-curvature="0" />
            </g>
            <g
               transform="translate(15.0454,29.1714)"
               id="g84">
              <path
                 id="path86"
                 style="fill:#292f33;fill-opacity:1;fill-rule:nonzero;stroke:none"
                 d="m 0,0 c 0,0 1.142,-2.046 1.08,-3.046 -0.063,-1 -0.063,-2.688 -0.625,-3.063 -0.563,-0.375 -0.813,2 -1.188,3.063 -0.375,1.062 -1.064,2.257 -1.064,2.257 0,0 1.468,1.429 1.797,0.789"
                 inkscape:connector-curvature="0" />
            </g>
            <g
               transform="translate(11.501,27.3809)"
               id="g88">
              <path
                 id="path90"
                 style="fill:#292f33;fill-opacity:1;fill-rule:nonzero;stroke:none"
                 d="m 0,0 c 0,0 1.793,-1.398 1.73,-2.398 -0.062,-1 1.144,-2.608 0.581,-2.983 -0.562,-0.375 -1.937,1.25 -2.312,2.313 -0.375,1.062 -1.257,1.787 -1.257,1.787 0,0 0.929,1.921 1.258,1.281"
                 inkscape:connector-curvature="0" />
            </g>
            <g
               transform="translate(8.9375,24.1875)"
               id="g92">
              <path
                 id="path94"
                 style="fill:#292f33;fill-opacity:1;fill-rule:nonzero;stroke:none"
                 d="m 0,0 c 0,0 1.522,-0.981 1.937,-1.75 0.416,-0.768 2.111,-1.387 1.938,-1.875 -0.173,-0.488 -1.977,0.098 -2.688,0.75 -0.71,0.652 -2.345,0.579 -2.345,0.579 L 0,0 Z"
                 inkscape:connector-curvature="0" />
            </g>
          </g>
        </g>
      </g>
    </g>
    <g
       transform="matrix(-0.46139152,-0.61228722,0.61228722,-0.46139152,88.418063,145.60861)"
       id="g53">
      <g
         transform="matrix(1.25,0,0,-1.25,0,45)"
         id="g55">
        <g
           id="g57">
          <g
             clip-path="url(#clipPath16)"
             id="g59">
            <g
               transform="translate(25,18.875)"
               id="g61">
              <path
                 id="path63"
                 style="fill:#ef9645;fill-opacity:1;fill-rule:nonzero;stroke:none"
                 d="m 0,0 -8,-0.021 c -1.104,0 -1.875,-0.75 -1.875,-1.854 0,-1.104 0.771,-1.854 1.875,-1.854 l 5.266,-0.021 c 0,0 0.88,0.104 0.88,-0.625 C -1.854,-4.651 -2.224,-5 -2.5,-5 -2.5,-5 -7,-4.792 -7.375,-11.875 -7.39,-12.151 -7.724,-12.5 -8,-12.5 c -0.276,0 -0.625,0.349 -0.625,0.625 0,3.01 1.396,5.938 2.867,6.824 -0.91,0 -1.711,0.051 -2.242,0.051 -1,0 -1.438,0.334 -1.438,0.333 -0.146,-0.231 -0.562,-1.27 -2.687,-1.27 -2.375,0 -3.021,2.362 -3.021,3.02 l 0,5.021 0.146,0.021 c 0,0.811 0.485,1.507 1.18,1.82 l -0.097,-6.653 c 0,-1.105 0.813,-2.084 1.917,-2.084 0.755,0 1.263,0.341 1.604,0.959 -0.458,0.526 -0.677,1.132 -0.677,1.885 0,0.886 0.318,1.795 0.927,2.344 l 0.042,2.708 0.104,0.021 c 0,0.811 0.485,1.507 1.18,1.82 L -8.875,2.125 -8.896,1.104 c 0.315,0.111 0.564,0.146 0.917,0.146 l 2.875,-0.021 0,2.917 0.104,-0.021 0,9 c 0,0.811 0.485,1.507 1.18,1.82 l -0.034,-13.66 3.646,0 L 0,1.125 c 0.922,0 1.723,-2 1.723,-2 0,0 0.002,-0.013 0.002,-0.015 C 1.481,-0.471 0.968,0 0,0"
                 inkscape:connector-curvature="0" />
            </g>
            <g
               transform="translate(15,19.2217)"
               id="g65">
              <path
                 id="path67"
                 style="fill:#ffdc5d;fill-opacity:1;fill-rule:nonzero;stroke:none"
                 d="m 0,0 c -0.609,-0.549 -1,-1.336 -1,-2.222 0,-0.753 0.287,-1.432 0.745,-1.959 -0.341,-0.617 -0.99,-1.041 -1.745,-1.041 -1.104,0 -2,0.896 -2,2 l 0,6 c 0,0.293 0.067,0.57 0.18,0.82 0.313,0.695 1.009,1.18 1.82,1.18 1.104,0 2,-0.895 2,-2 l 0,-1 L 0,0 Z"
                 inkscape:connector-curvature="0" />
            </g>
            <g
               transform="translate(6,30)"
               id="g69">
              <path
                 id="path71"
                 style="fill:#ffdc5d;fill-opacity:1;fill-rule:nonzero;stroke:none"
                 d="M 0,0 C 0,1.104 0.896,2 2,2 3.104,2 4,1.104 4,0 l 0,-9 0,-2 0,-3 c 0,-0.658 0.217,-1.262 0.578,-1.753 0.028,-0.037 0.061,-0.068 0.089,-0.102 0.104,-0.129 0.21,-0.255 0.332,-0.366 0.033,-0.027 0.066,-0.054 0.1,-0.082 0.119,-0.098 0.243,-0.188 0.377,-0.268 0.066,-0.039 0.131,-0.075 0.201,-0.109 0.139,-0.069 0.285,-0.125 0.435,-0.172 0.068,-0.02 0.131,-0.045 0.2,-0.061 C 6.534,-16.966 6.763,-17 7,-17 c 0.236,0 0.461,0.036 0.681,0.089 0.076,0.017 0.148,0.042 0.222,0.066 0.137,0.044 0.269,0.099 0.396,0.161 0.082,0.04 0.163,0.077 0.24,0.124 0.164,0.1 0.318,0.213 0.46,0.341 0.202,0.184 0.384,0.387 0.53,0.618 -10e-4,0.001 -0.002,0.002 -0.003,0.003 C 9.727,-15.713 10,-16 11,-16 l 2.537,0 c -1.808,-1.365 -3.037,-3.99 -3.037,-7 0,-0.276 0.224,-0.5 0.5,-0.5 0.276,0 0.5,0.224 0.5,0.5 0,3.859 2.187,7 4.875,7 l 0.125,0 c 0.276,0 0.5,0.224 0.5,0.5 0,0.276 -0.224,0.5 -0.5,0.5 l -1.5,0 -4,0 c -1.104,0 -2,0.896 -2,2 0,1.104 0.896,2 2,2 l 8,0 c 0.968,0 1.481,-0.596 1.725,-1.015 0.126,-0.216 0.185,-0.389 0.188,-0.4 L 22,-16 c 0.103,-0.335 0.479,-1.871 0.411,-2.191 C 22.411,-23 17.715,-28 12,-28 5.463,-28 0,-22.75 0,-16 0.008,-16.007 0,0 0,0"
                 inkscape:connector-curvature="0" />
            </g>
            <g
               transform="translate(20,20)"
               id="g73">
              <path
                 id="path75"
                 style="fill:#ffdc5d;fill-opacity:1;fill-rule:nonzero;stroke:none"
                 d="M 0,0 -3,0 C -3.352,0 -3.685,-0.072 -4,-0.184 L -4,1 -4,3 c 0,0.293 0.067,0.569 0.18,0.82 C -3.507,4.515 -2.811,5 -2,5 -0.896,5 0,4.104 0,3 L 0,1 0,0 Z"
                 inkscape:connector-curvature="0" />
            </g>
            <g
               transform="translate(21,20)"
               id="g77">
              <path
                 id="path79"
                 style="fill:#ffdc5d;fill-opacity:1;fill-rule:nonzero;stroke:none"
                 d="m 0,0 0,13 c 0,0.293 0.067,0.569 0.18,0.82 C 0.493,14.515 1.189,15 2,15 3.104,15 4,14.104 4,13 L 4,1 4,0 3,0 0,0 Z"
                 inkscape:connector-curvature="0" />
            </g>
          </g>
        </g>
      </g>
    </g>
    <g
       transform="matrix(0.22696637,-0.5912676,0.5912676,0.22696637,137.11152,97.368928)"
       id="g81">
      <g
         transform="matrix(1.25,0,0,-1.25,0,47.5)"
         id="g83">
        <g
           id="g85">
          <g
             clip-path="url(#clipPath16)"
             id="g87">
            <g
               transform="translate(19.2412,27.3672)"
               id="g89">
              <path
                 id="path91"
                 style="fill:#5c913b;fill-opacity:1;fill-rule:nonzero;stroke:none"
                 d="M 0,0 C -0.277,3.307 2.17,4.72 2.17,4.72 -1.029,4.607 -2.724,1.895 -2.724,1.895 -3.476,3.194 -1.778,5.907 -0.555,6.614 -3.753,6.501 -4.225,4.494 -4.225,4.494 -5.728,7.095 -5.254,9.102 -5.254,9.102 -6.375,8.454 -7.021,6.989 -7.396,5.589 L -9.714,8.26 c -0.23,-1.046 0.156,-3.176 0.572,-4.962 -3.054,1.791 -5.902,0.151 -5.902,0.151 3.95,-1.187 5.45,-3.787 5.45,-3.787 0,0 -3.948,1.187 -5.645,-1.527 2.596,0.092 4.5,-0.499 5.856,-1.229 -1.163,-0.289 -3.145,0.236 -4.355,-1.371 0,0 3.198,0.113 3.851,-1.055 -2.172,-0.614 -3.574,-2.251 -3.574,-2.251 4.422,0.818 9.123,-1.668 9.123,-1.668 L 1.78,-5.907 C 0.751,-1.3 4.422,0.82 4.422,0.82 1.697,2.713 0,0 0,0"
                 inkscape:connector-curvature="0" />
            </g>
            <g
               transform="translate(30.5605,14.1201)"
               id="g93">
              <path
                 id="path95"
                 style="fill:#ffac33;fill-opacity:1;fill-rule:nonzero;stroke:none"
                 d="m 0,0 c 2.488,-4.309 1.218,-9.7 -2.837,-12.041 -4.055,-2.341 -9.359,-0.746 -11.846,3.562 l -1.589,2.753 c -2.489,4.31 -1.218,9.699 2.837,12.04 4.055,2.342 9.359,0.747 11.846,-3.562 L 0,0 Z"
                 inkscape:connector-curvature="0" />
            </g>
            <g
               transform="translate(28.7178,10.541)"
               id="g97">
              <path
                 id="path99"
                 style="fill:#ffcc4d;fill-opacity:1;fill-rule:nonzero;stroke:none"
                 d="M 0,0 -1.951,0.828 -1.123,2.778 0.828,1.951 0,0 Z m -1.656,-3.901 -1.95,0.827 0.828,1.952 1.95,-0.828 -0.828,-1.951 z m -1.657,-3.904 -1.951,0.828 0.828,1.952 1.952,-0.829 -0.829,-1.951 z m -4.197,6.388 0.828,1.952 1.952,-0.829 -0.829,-1.952 -1.951,0.829 z m 0.294,-4.73 -1.95,0.828 0.828,1.95 1.95,-0.829 -0.828,-1.949 z m -4.196,6.386 0.829,1.951 1.951,-0.827 -0.828,-1.952 -1.952,0.828 z m 0.295,-4.73 -1.951,0.827 0.828,1.951 1.951,-0.828 -0.828,-1.95 z m -4.196,6.386 0.828,1.952 1.951,-0.828 -0.828,-1.953 -1.951,0.829 z m 2.484,5.852 1.951,-0.828 -0.829,-1.949 -1.95,0.828 0.828,1.949 z m 3.902,-1.655 1.95,-0.828 -0.828,-1.951 -1.95,0.828 0.828,1.951 z M -7.271,9.994 -5.319,9.166 -6.148,7.214 -8.1,8.042 -7.271,9.994 Z m 4.197,-6.387 -0.828,-1.95 -1.952,0.827 0.829,1.952 1.951,-0.829 z m -0.294,4.731 1.95,-0.829 -0.828,-1.95 -1.951,0.828 0.829,1.951 z M 2.845,1.095 C 2.636,1.942 2.305,2.779 1.843,3.579 L 1.656,3.902 1.656,3.901 -0.295,4.729 0.329,6.2 0.254,6.331 c -2.025,3.51 -5.92,5.217 -9.486,4.466 l -0.819,-1.926 -1.884,0.799 c -3.28,-2.122 -4.567,-6.318 -3.262,-10.128 l 1.006,-0.427 -0.401,-0.946 c 0.055,-0.106 0.102,-0.212 0.162,-0.315 l 1.59,-2.753 c 0.685,-1.188 1.59,-2.161 2.617,-2.91 l 0.229,0.538 1.951,-0.828 -0.324,-0.763 c 0.665,-0.278 1.357,-0.465 2.06,-0.573 l 0.215,0.507 1.404,-0.594 c 1.144,0.047 2.28,0.335 3.342,0.882 l -0.016,0.007 0.828,1.951 1.188,-0.504 c 0.523,0.522 0.973,1.104 1.334,1.737 l -1.693,0.72 0.828,1.951 1.667,-0.707 c 0.191,0.7 0.301,1.426 0.316,2.167 l -1.155,0.49 0.828,1.951 0.066,-0.028 z"
                 inkscape:connector-curvature="0" />
            </g>
          </g>
        </g>
      </g>
    </g>
    <g
       transform="matrix(-0.31183143,0.70038485,-0.70038485,-0.31183143,141.52645,79.12009)"
       id="g101">
      <g
         transform="matrix(1.25,0,0,-1.25,0,45)"
         id="g103">
        <g
           id="g105">
          <g
             clip-path="url(#clipPath16)"
             id="g107">
            <g
               transform="translate(33.5355,33.5355)"
               id="g109">
              <path
                 id="path111"
                 style="fill:#ccd6dd;fill-opacity:1;fill-rule:nonzero;stroke:none"
                 d="m 0,0 c -1.953,1.953 -5.118,1.953 -7.071,0 l -1.197,-1.199 2.842,-2.842 c 0.39,-0.391 0.39,-1.024 0,-1.414 -0.195,-0.196 -0.451,-0.293 -0.707,-0.293 -0.256,0 -0.512,0.097 -0.707,0.293 l -2.841,2.841 -2.109,-2.111 2.84,-2.84 c 0.391,-0.39 0.391,-1.023 0,-1.414 -0.195,-0.195 -0.451,-0.293 -0.707,-0.293 -0.255,0 -0.511,0.098 -0.707,0.293 l -2.839,2.839 -2.12,-2.123 2.837,-2.837 c 0.391,-0.391 0.391,-1.024 0,-1.415 -0.195,-0.195 -0.451,-0.292 -0.707,-0.292 -0.256,0 -0.511,0.097 -0.707,0.292 l -2.836,2.837 -2.121,-2.122 2.836,-2.836 c 0.391,-0.391 0.391,-1.024 0,-1.414 -0.195,-0.195 -0.451,-0.293 -0.707,-0.293 -0.256,0 -0.512,0.098 -0.707,0.293 l -2.835,2.835 -2.12,-2.123 2.833,-2.833 c 0.391,-0.391 0.391,-1.024 0,-1.414 -0.195,-0.196 -0.451,-0.293 -0.707,-0.293 -0.255,0 -0.511,0.097 -0.707,0.293 l -2.832,2.832 -1.783,-1.785 c -3.842,-0.027 -6.95,-3.148 -6.95,-6.998 0,-3.865 3.135,-7 7,-7 3.833,0 6.942,3.081 6.995,6.901 L 0,-7.071 C 1.953,-5.118 1.953,-1.953 0,0"
                 inkscape:connector-curvature="0" />
            </g>
            <g
               transform="translate(30.938,30.9086)"
               id="g113">
              <path
                 id="path115"
                 style="fill:#dd2e44;fill-opacity:1;fill-rule:nonzero;stroke:none"
                 d="m 0,0 c -0.781,0.781 -2.047,0.781 -2.828,0 l -19.065,-19.065 c -1.338,0.362 -2.823,0.035 -3.873,-1.015 -1.563,-1.562 -1.563,-4.095 0,-5.657 1.562,-1.562 4.094,-1.562 5.656,0 1.039,1.038 1.371,2.502 1.029,3.828 L 0,-2.828 C 0.781,-2.047 0.781,-0.781 0,0"
                 inkscape:connector-curvature="0" />
            </g>
            <g
               transform="translate(13.272,13.6572)"
               id="g117">
              <path
                 id="path119"
                 style="fill:#292f33;fill-opacity:1;fill-rule:nonzero;stroke:none"
                 d="m 0,0 c 0.256,0 0.512,0.098 0.707,0.293 0.391,0.391 0.391,1.023 0,1.414 L -2.126,4.54 -3.54,3.125 -0.707,0.293 C -0.512,0.098 -0.256,0 0,0"
                 inkscape:connector-curvature="0" />
            </g>
            <g
               transform="translate(16.8076,17.1924)"
               id="g121">
              <path
                 id="path123"
                 style="fill:#292f33;fill-opacity:1;fill-rule:nonzero;stroke:none"
                 d="m 0,0 c 0.256,0 0.512,0.098 0.707,0.293 0.391,0.391 0.391,1.023 0,1.414 L -2.129,4.543 -3.542,3.128 -0.707,0.293 C -0.512,0.098 -0.256,0 0,0"
                 inkscape:connector-curvature="0" />
            </g>
            <g
               transform="translate(20.3428,20.728)"
               id="g125">
              <path
                 id="path127"
                 style="fill:#292f33;fill-opacity:1;fill-rule:nonzero;stroke:none"
                 d="m 0,0 c 0.256,0 0.512,0.098 0.707,0.293 0.391,0.39 0.391,1.023 0,1.414 L -2.13,4.545 -3.544,3.13 -0.707,0.293 C -0.512,0.098 -0.256,0 0,0"
                 inkscape:connector-curvature="0" />
            </g>
            <g
               transform="translate(23.8789,24.2637)"
               id="g129">
              <path
                 id="path131"
                 style="fill:#292f33;fill-opacity:1;fill-rule:nonzero;stroke:none"
                 d="m 0,0 c 0.256,0 0.512,0.098 0.707,0.293 0.391,0.391 0.391,1.024 0,1.414 l -2.841,2.84 -1.413,-1.415 2.84,-2.839 C -0.512,0.098 -0.256,0 0,0"
                 inkscape:connector-curvature="0" />
            </g>
            <g
               transform="translate(27.4023,27.7871)"
               id="g133">
              <path
                 id="path135"
                 style="fill:#292f33;fill-opacity:1;fill-rule:nonzero;stroke:none"
                 d="m 0,0 c 0.256,0 0.512,0.098 0.707,0.293 0.391,0.39 0.391,1.023 0,1.414 L -2.135,4.55 -3.548,3.135 -0.707,0.293 C -0.512,0.098 -0.256,0 0,0"
                 inkscape:connector-curvature="0" />
            </g>
          </g>
        </g>
      </g>
    </g>
    <g
       transform="matrix(0.6443534,0.27351179,-0.27351179,0.6443534,77.405246,64.396275)"
       id="g137">
      <g
         transform="matrix(1.25,0,0,-1.25,0,47.5)"
         id="g139">
        <g
           id="g141">
          <g
             clip-path="url(#clipPath16)"
             id="g143">
            <g
               transform="translate(36,19)"
               id="g145">
              <path
                 id="path147"
                 style="fill:#ffcc4d;fill-opacity:1;fill-rule:nonzero;stroke:none"
                 d="m 0,0 c 0,-9.389 -7.611,-17 -17,-17 -9.388,0 -17,7.611 -17,17 0,9.388 7.612,17 17,17 C -7.611,17 0,9.388 0,0"
                 inkscape:connector-curvature="0" />
            </g>
            <g
               transform="translate(19,15)"
               id="g149">
              <path
                 id="path151"
                 style="fill:#664500;fill-opacity:1;fill-rule:nonzero;stroke:none"
                 d="m 0,0 c -3.623,0 -6.027,0.422 -9,1 -0.679,0.131 -2,0 -2,-2 0,-4 4.595,-9 11,-9 6.404,0 11,5 11,9 C 11,1 9.679,1.132 9,1 6.027,0.422 3.623,0 0,0"
                 inkscape:connector-curvature="0" />
            </g>
            <g
               transform="translate(10,14)"
               id="g153">
              <path
                 id="path155"
                 style="fill:#ffffff;fill-opacity:1;fill-rule:nonzero;stroke:none"
                 d="m 0,0 c 0,0 3,-1 9,-1 6,0 9,1 9,1 0,0 -2,-4 -9,-4 -7,0 -9,4 -9,4"
                 inkscape:connector-curvature="0" />
            </g>
            <g
               transform="translate(31.5996,18.7998)"
               id="g157">
              <path
                 id="path159"
                 style="fill:#664500;fill-opacity:1;fill-rule:nonzero;stroke:none"
                 d="M 0,0 C -0.114,0.085 -1.931,1.426 -4.646,2.344 -4.619,2.459 -4.6,2.577 -4.6,2.7 -4.6,3.069 -4.738,3.403 -4.959,3.664 -3.156,4.185 -1.625,4.2 -1.598,4.2 -1.047,4.202 -0.6,4.65 -0.601,5.202 -0.602,5.753 -1.048,6.2 -1.6,6.2 -1.82,6.2 -7.051,6.163 -10.307,2.907 -10.593,2.621 -10.679,2.191 -10.523,1.817 -10.369,1.444 -10.004,1.2 -9.6,1.2 c 4.59,0 8.364,-2.772 8.402,-2.801 0.18,-0.133 0.389,-0.198 0.597,-0.198 0.305,0 0.606,0.139 0.802,0.401 C 0.531,-0.956 0.441,-0.331 0,0"
                 inkscape:connector-curvature="0" />
            </g>
            <g
               transform="translate(16.707,21.707)"
               id="g161">
              <path
                 id="path163"
                 style="fill:#664500;fill-opacity:1;fill-rule:nonzero;stroke:none"
                 d="m 0,0 c -3.255,3.255 -8.486,3.293 -8.707,3.293 -0.552,0 -0.999,-0.447 -0.999,-0.999 -0.001,-0.551 0.446,-1 0.998,-1.001 0.026,0 1.558,-0.016 3.36,-0.536 -0.22,-0.261 -0.359,-0.595 -0.359,-0.964 0,-0.123 0.019,-0.241 0.047,-0.356 -2.716,-0.918 -4.533,-2.259 -4.647,-2.344 -0.442,-0.331 -0.531,-0.958 -0.2,-1.4 0.196,-0.262 0.497,-0.4 0.801,-0.4 0.208,0 0.419,0.065 0.599,0.2 0.037,0.028 3.787,2.8 8.4,2.8 0.404,0 0.769,0.244 0.924,0.617 C 0.372,-0.716 0.286,-0.286 0,0"
                 inkscape:connector-curvature="0" />
            </g>
          </g>
        </g>
      </g>
    </g>
    <g
       transform="translate(142.0 103.0) rotate(55 15 15) scale(0.8)"
       id="g165">
      <g
         transform="matrix(1.25,0,0,-1.25,0,45)"
         id="g167">
        <g
           id="g169">
          <g
             clip-path="url(#clipPath16)"
             id="g171">
            <g
               transform="translate(32,0)"
               id="g173">
              <path
                 id="path175"
                 style="fill:#2a6797;fill-opacity:1;fill-rule:nonzero;stroke:none"
                 d="m 0,0 0,2 c 0,3.314 -2.686,6 -6,6 l -16,0 c -3.313,0 -6,-2.686 -6,-6 l 0,-2 28,0 z" />
            </g>
            <g
               transform="translate(30,28.4995)"
               id="g177">
              <path
                 id="path179"
                 style="fill:#2a6797;fill-opacity:1;fill-rule:nonzero;stroke:none"
                 d="m 0,0 c 0,-4.143 -5.372,-7.499 -12,-7.499 -6.626,0 -11.999,3.356 -11.999,7.499 0,4.142 5.373,7.5 11.999,7.5 C -5.372,7.5 0,4.142 0,0" />
            </g>
            <g
               transform="translate(13.6396,7.8994)"
               id="g181">
              <path
                 id="path183"
                 style="fill:#ffdc5d;fill-opacity:1;fill-rule:nonzero;stroke:none"
                 d="m 0,0 c 1.744,-1.268 2.848,-1.963 4.36,-1.963 1.512,0 2.616,0.696 4.36,1.963 l 0,3.811 L 0,3.811 0,0 Z" />
            </g>
            <g
               transform="translate(13.6318,10.0273)"
               id="g185">
              <path
                 id="path187"
                 style="fill:#f9ca55;fill-opacity:1;fill-rule:nonzero;stroke:none"
                 d="m 0,0 c 1.216,-1.374 2.724,-1.746 4.364,-1.746 1.639,0 3.147,0.373 4.364,1.746 l 0,3.491 L 0,3.491 0,0 Z" />
            </g>
            <g
               transform="translate(11.4443,20.0645)"
               id="g189">
              <path
                 id="path191"
                 style="fill:#ffdc5d;fill-opacity:1;fill-rule:nonzero;stroke:none"
                 d="m 0,0 c 0,-1.448 -0.734,-2.622 -1.639,-2.622 -0.905,0 -1.639,1.174 -1.639,2.622 0,1.448 0.734,2.623 1.639,2.623 C -0.734,2.623 0,1.448 0,0" />
            </g>
            <g
               transform="translate(27.833,20.0645)"
               id="g193">
              <path
                 id="path195"
                 style="fill:#ffdc5d;fill-opacity:1;fill-rule:nonzero;stroke:none"
                 d="m 0,0 c 0,-1.448 -0.733,-2.622 -1.639,-2.622 -0.905,0 -1.638,1.174 -1.638,2.622 0,1.448 0.733,2.623 1.638,2.623 C -0.733,2.623 0,1.448 0,0" />
            </g>
            <g
               transform="translate(9.4775,19.0405)"
               id="g197">
              <path
                 id="path199"
                 style="fill:#ffdc5d;fill-opacity:1;fill-rule:nonzero;stroke:none"
                 d="m 0,0 c 0,5.589 3.816,10.121 8.523,10.121 4.707,0 8.522,-4.532 8.522,-10.121 0,-5.589 -3.815,-10.121 -8.522,-10.121 C 3.816,-10.121 0,-5.589 0,0" />
            </g>
            <g
               transform="translate(18,12.1982)"
               id="g201">
              <path
                 id="path203"
                 style="fill:#c1694f;fill-opacity:1;fill-rule:nonzero;stroke:none"
                 d="m 0,0 c -2.754,0 -3.6,0.705 -3.741,0.848 -0.256,0.256 -0.256,0.671 0,0.927 0.248,0.248 0.645,0.254 0.902,0.023 C -2.787,1.761 -2.118,1.311 0,1.311 c 2.2,0 2.836,0.485 2.842,0.49 C 3.098,2.056 3.499,2.044 3.755,1.786 4.011,1.53 3.997,1.104 3.741,0.848 3.6,0.705 2.754,0 0,0" />
            </g>
            <g
               transform="translate(18,31.5942)"
               id="g205">
              <path
                 id="path207"
                 style="fill:#ffac33;fill-opacity:1;fill-rule:nonzero;stroke:none"
                 d="m 0,0 c 5.648,0 9.178,-3.242 9.178,-6.715 0,-3.473 -0.706,-4.863 -1.412,-3.473 -0.706,1.389 -1.412,2.778 -1.412,2.778 0,0 -4.236,0 -5.648,1.39 0,0 2.118,-4.168 -2.118,0 0,0 0.706,-2.779 -3.53,0.694 0,0 -2.118,-1.389 -2.824,-4.862 -0.196,-0.964 -1.412,0 -1.412,3.473 C -9.178,-3.242 -6.354,0 0,0" />
            </g>
            <g
               transform="translate(14,19)"
               id="g209">
              <path
                 id="path211"
                 style="fill:#662113;fill-opacity:1;fill-rule:nonzero;stroke:none"
                 d="m 0,0 0,0 c -0.55,0 -1,0.45 -1,1 l 0,1 C -1,2.55 -0.55,3 0,3 0.55,3 1,2.55 1,2 L 1,1 C 1,0.45 0.55,0 0,0" />
            </g>
            <g
               transform="translate(22,19)"
               id="g213">
              <path
                 id="path215"
                 style="fill:#662113;fill-opacity:1;fill-rule:nonzero;stroke:none"
                 d="m 0,0 0,0 c -0.55,0 -1,0.45 -1,1 l 0,1 C -1,2.55 -0.55,3 0,3 0.55,3 1,2.55 1,2 L 1,1 C 1,0.45 0.55,0 0,0" />
            </g>
            <g
               transform="translate(18.75,16.25)"
               id="g217">
              <path
                 id="path219"
                 style="fill:#c1694f;fill-opacity:1;fill-rule:nonzero;stroke:none"
                 d="m 0,0 -1.5,0 c -0.413,0 -0.75,0.337 -0.75,0.75 0,0.413 0.337,0.75 0.75,0.75 L 0,1.5 C 0.413,1.5 0.75,1.163 0.75,0.75 0.75,0.337 0.413,0 0,0" />
            </g>
            <g
               transform="translate(8.5,27)"
               id="g221">
              <path
                 id="path223"
                 style="fill:#2a6797;fill-opacity:1;fill-rule:nonzero;stroke:none"
                 d="M 0,0 C 0,1.105 4.253,2 9.5,2 14.747,2 19,1.105 19,0 19,-1.105 14.747,-2 9.5,-2 4.253,-2 0,-1.105 0,0" />
            </g>
            <g
               transform="translate(27.001,27)"
               id="g225">
              <path
                 id="path227"
                 style="fill:#4289c1;fill-opacity:1;fill-rule:nonzero;stroke:none"
                 d="m 0,0 -18,0 0,2.999 c 0,0 3.75,2.25 8.999,2.25 C -3.75,5.249 0,2.999 0,2.999 L 0,0 Z" />
            </g>
            <g
               transform="translate(27.5,27)"
               id="g229">
              <path
                 id="path231"
                 style="fill:#fdcb58;fill-opacity:1;fill-rule:nonzero;stroke:none"
                 d="m 0,0 -19,0 c -0.275,0 -0.5,0.225 -0.5,0.5 0,0.275 0.225,0.5 0.5,0.5 L 0,1 C 0.275,1 0.5,0.775 0.5,0.5 0.5,0.225 0.275,0 0,0" />
            </g>
            <g
               transform="translate(18.001,5.1221)"
               id="g233">
              <path
                 id="path235"
                 style="fill:#193d59;fill-opacity:1;fill-rule:nonzero;stroke:none"
                 d="M 0,0 C 0,0 3.381,-2.494 4.093,-2.778 4.249,-2.841 3.727,0.878 3.727,0.878 l -7.455,0 c 0,0 -0.523,-3.781 -0.231,-3.625 C -3.32,-2.404 0,0 0,0" />
            </g>
            <g
               transform="translate(19.3125,2.5625)"
               id="g237">
              <path
                 id="path239"
                 style="fill:#193d59;fill-opacity:1;fill-rule:nonzero;stroke:none"
                 d="m 0,0 c 0,0 0.375,0.625 0.531,0.906 0.183,0.329 0.453,1.571 0.453,1.571 l -2.187,0.961 c 0,0.007 -0.16,-0.005 -0.16,-0.005 L -1.547,3.391 -1.719,3.328 C -1.936,3.258 -1.625,3.32 -1.625,3.313 L -3.599,2.477 c 0,0 0.288,-1.242 0.47,-1.571 C -2.973,0.625 -2.601,0 -2.601,0 c 0,0 -0.753,-0.562 -1.035,-2.563 l 2.325,0 0.019,0 2.323,0 C 0.75,-0.969 0,0 0,0" />
            </g>
            <g
               transform="translate(13.2915,9.375)"
               id="g241">
              <path
                 id="path243"
                 style="fill:#4289c1;fill-opacity:1;fill-rule:nonzero;stroke:none"
                 d="m 0,0 c 0.566,-0.566 4.71,-3.383 4.71,-3.383 0,0 -2.127,-1.242 -4.085,-3.534 -0.197,-0.23 -1.542,4.625 -1.583,5.709 C -0.97,-0.905 -0.271,0.271 0,0" />
            </g>
            <g
               transform="translate(22.7305,9.375)"
               id="g245">
              <path
                 id="path247"
                 style="fill:#4289c1;fill-opacity:1;fill-rule:nonzero;stroke:none"
                 d="m 0,0 c -0.566,-0.566 -4.709,-3.383 -4.709,-3.383 0,0 2.126,-1.242 4.084,-3.534 0.196,-0.23 1.542,4.625 1.583,5.709 C 0.97,-0.905 0.271,0.271 0,0" />
            </g>
            <g
               transform="translate(18.0156,5.3125)"
               id="g96">
              <path
                 id="path98"
                 style="fill:#1e4b6e;fill-opacity:1;fill-rule:nonzero;stroke:none"
                 d="M 0,0 C 0.39,0.022 1.543,-0.771 1.422,-1.25 0.961,-3.077 0.573,-2.641 0.031,-2.641 c -0.611,0 -0.964,-0.472 -1.39,1.313 C -1.452,-0.941 -0.562,-0.031 0,0" />
            </g>
            <g
               transform="translate(20.0469,0)"
               id="g100">
              <path
                 id="path102"
                 style="fill:#1e4b6e;fill-opacity:1;fill-rule:nonzero;stroke:none"
                 d="m 0,0 -4.023,0 c 0,0 0.541,2.167 2.018,2.167 C -0.528,2.167 0,0 0,0" />
            </g>
          </g>
        </g>
        <g
           id="g104">
          <g
             clip-path="url(#clipPath108)"
             id="g106">
            <g
               transform="translate(20.25,34.499)"
               id="g112">
              <path
                 id="path114"
                 style="fill:#fdcb58;fill-opacity:1;fill-rule:nonzero;stroke:none"
                 d="m 0,0 c 0,0 -0.001,-0.001 -0.002,-0.001 l 0,0.001 0,-0.001 c -0.233,0 -0.434,-0.114 -0.57,-0.282 -0.282,-0.069 -0.667,-0.084 -1.157,0.071 C -1.865,-0.082 -2.047,0 -2.25,0 c -0.201,0 -0.384,-0.082 -0.519,-0.212 -0.491,-0.155 -0.876,-0.14 -1.157,-0.071 -0.137,0.168 -0.338,0.282 -0.571,0.282 l 0,0.001 0,-0.001 c 0,0 -0.001,0.001 -0.002,0.001 -0.415,0 -0.75,-0.335 -0.75,-0.75 0,-0.414 0.335,-0.75 0.75,-0.75 l 10e-4,0 0.001,0 c 0,-3 1.498,-3.75 2.247,-3.75 0.751,0 2.248,0.75 2.248,3.75 L 0,-1.5 c 0.416,0 0.751,0.336 0.751,0.75 C 0.751,-0.335 0.416,0 0,0" />
            </g>
            <g
               transform="translate(11.4683,6.5879)"
               id="g116">
              <path
                 id="path118"
                 style="fill:#4289c1;fill-opacity:1;fill-rule:nonzero;stroke:none"
                 d="m 0,0 -5.926,-0.938 c -0.272,-0.043 -0.529,0.143 -0.572,0.416 l -0.157,0.988 c -0.043,0.27 0.144,0.528 0.416,0.571 l 5.927,0.939 C -0.041,2.019 0.217,1.831 0.26,1.561 L 0.416,0.572 C 0.459,0.301 0.271,0.044 0,0" />
            </g>
            <g
               transform="translate(11.2017,7.4863)"
               id="g120">
              <path
                 id="path122"
                 style="fill:#ffffff;fill-opacity:1;fill-rule:nonzero;stroke:none"
                 d="m 0,0 c 0,-0.318 -0.258,-0.576 -0.577,-0.576 -0.319,0 -0.576,0.258 -0.576,0.576 0,0.319 0.257,0.577 0.576,0.577 C -0.258,0.577 0,0.319 0,0" />
            </g>
            <g
               transform="translate(24.5439,6.5879)"
               id="g124">
              <path
                 id="path126"
                 style="fill:#4289c1;fill-opacity:1;fill-rule:nonzero;stroke:none"
                 d="m 0,0 5.926,-0.938 c 0.272,-0.043 0.529,0.143 0.572,0.416 L 6.655,0.466 C 6.698,0.736 6.512,0.994 6.239,1.037 L 0.312,1.976 C 0.041,2.019 -0.217,1.831 -0.26,1.561 L -0.416,0.572 C -0.459,0.301 -0.271,0.044 0,0" />
            </g>
            <g
               transform="translate(24.6152,7.4863)"
               id="g128">
              <path
                 id="path130"
                 style="fill:#ffffff;fill-opacity:1;fill-rule:nonzero;stroke:none"
                 d="m 0,0 c 0,-0.318 0.258,-0.576 0.576,-0.576 0.319,0 0.576,0.258 0.576,0.576 0,0.319 -0.257,0.577 -0.576,0.577 C 0.258,0.577 0,0.319 0,0" />
            </g>
          </g>
        </g>
      </g>
    </g>
    <g
       transform="matrix(-0.26781473,-0.82424898,0.82424898,-0.26781473,52.369407,77.401103)"
       id="g265">
      <g
         transform="matrix(1.25,0,0,-1.25,0,47.5)"
         id="g267">
        <g
           id="g269">
          <g
             clip-path="url(#clipPath16)"
             id="g271">
            <g
               transform="translate(9.2314,27)"
               id="g273">
              <path
                 id="path275"
                 style="fill:#ffac33;fill-opacity:1;fill-rule:nonzero;stroke:none"
                 d="M 0,0 C 6,8 14,10 18,10 19,10 19,9 18,9 17,9 12,7 11,0 10,-7 0,0 0,0"
                 inkscape:connector-curvature="0" />
            </g>
            <g
               transform="translate(8.2314,9)"
               id="g277">
              <path
                 id="path279"
                 style="fill:#ffac33;fill-opacity:1;fill-rule:nonzero;stroke:none"
                 d="m 0,0 c 4,-3 13,-8 18,-8 3,0 2,1 1,1 C 18,-7 10,-4 9,0 8,4 0,0 0,0"
                 inkscape:connector-curvature="0" />
            </g>
            <g
               transform="translate(30,18)"
               id="g281">
              <path
                 id="path283"
                 style="fill:#ffcc4d;fill-opacity:1;fill-rule:nonzero;stroke:none"
                 d="M 0,0 C 0,-4.418 3.791,-10 6,-10 8.209,-10 4,-4.418 4,0 4,4.418 8.209,10 6,10 3.791,10 0,4.418 0,0"
                 inkscape:connector-curvature="0" />
            </g>
            <g
               transform="translate(31.2314,17.9658)"
               id="g285">
              <path
                 id="path287"
                 style="fill:#ffcc4d;fill-opacity:1;fill-rule:nonzero;stroke:none"
                 d="m 0,0 c 0,-6.854 -6.591,-12.41 -13.445,-12.41 -5.294,0 -11.666,3.285 -14.291,6.205 -0.773,0.859 -4.325,1.034 -1.222,3.102 -3.103,2.069 0.359,2.012 0.989,3.103 2.463,4.263 6.251,14.479 14.524,14.479 C -5.171,14.479 0,6.854 0,0"
                 inkscape:connector-curvature="0" />
            </g>
          </g>
        </g>
        <g
           id="g289">
          <g
             clip-path="url(#clipPath40)"
             id="g38">
            <g
               transform="translate(20.001,18)"
               id="g292">
              <path
                 id="path294"
                 style="fill:#f4900c;fill-opacity:1;fill-rule:nonzero;stroke:none"
                 d="M 0,0 C -0.012,0 -0.022,0 -0.034,0.001 -0.586,0.019 -1.019,0.481 -1,1.033 -0.751,8.573 6.294,11.781 6.594,11.914 7.1,12.141 7.689,11.91 7.913,11.405 8.137,10.901 7.91,10.311 7.406,10.086 7.153,9.973 1.206,7.236 0.998,0.967 0.98,0.426 0.536,0 0,0"
                 inkscape:connector-curvature="0" />
            </g>
            <g
               transform="translate(25.001,20)"
               id="g296">
              <path
                 id="path298"
                 style="fill:#f4900c;fill-opacity:1;fill-rule:nonzero;stroke:none"
                 d="M 0,0 C -0.065,0 -0.131,0.006 -0.197,0.02 -0.738,0.128 -1.09,0.655 -0.981,1.196 -0.063,5.787 3.986,7 5.999,7 c 0.553,0 1,-0.448 1,-1 C 6.999,5.449 6.554,5.002 6.003,5 5.83,4.999 1.802,4.915 0.979,0.804 0.885,0.329 0.467,0 0,0"
                 inkscape:connector-curvature="0" />
            </g>
            <g
               transform="translate(15,16)"
               id="g300">
              <path
                 id="path302"
                 style="fill:#f4900c;fill-opacity:1;fill-rule:nonzero;stroke:none"
                 d="m 0,0 c -0.552,0 -1,0.447 -1,1 0,12.598 10.605,15.926 10.713,15.958 0.529,0.158 1.086,-0.142 1.245,-0.671 0.158,-0.529 -0.142,-1.086 -0.67,-1.245 C 9.881,14.917 1,12.06 1,1 1,0.447 0.552,0 0,0"
                 inkscape:connector-curvature="0" />
            </g>
          </g>
        </g>
        <g
           id="g304">
          <g
             clip-path="url(#clipPath60)"
             id="g58">
            <g
               transform="translate(12,21.5)"
               id="g307">
              <path
                 id="path309"
                 style="fill:#292f33;fill-opacity:1;fill-rule:nonzero;stroke:none"
                 d="M 0,0 C 0,-0.829 -0.671,-1.5 -1.5,-1.5 -2.329,-1.5 -3,-0.829 -3,0 -3,0.829 -2.329,1.5 -1.5,1.5 -0.671,1.5 0,0.829 0,0"
                 inkscape:connector-curvature="0" />
            </g>
          </g>
        </g>
      </g>
    </g>
    <g
       transform="matrix(-0.47065839,-0.42378272,0.42378272,-0.47065839,79.786139,184.23043)"
       id="g311">
      <g
         transform="matrix(1.25,0,0,-1.25,0,47.5)"
         id="g313">
        <g
           id="g315">
          <g
             clip-path="url(#clipPath16)"
             id="g317">
            <g
               transform="translate(36,18)"
               id="g319">
              <path
                 id="path321"
                 style="fill:#f4900c;fill-opacity:1;fill-rule:nonzero;stroke:none"
                 d="M 0,0 C 0,2.063 -0.367,4.039 -1.04,5.868 -1.5,0.479 -4.373,-2.289 -7.375,-1 c -2.813,1.208 -0.917,5.917 -0.777,8.164 0.236,3.809 -0.012,8.169 -6.931,11.794 2.875,-5.5 0.333,-8.916 -2.334,-9.125 -2.958,-0.23 -5.666,2.542 -4.666,7.042 -3.238,-2.386 -3.333,-6.402 -2.334,-9 C -23.375,5.167 -24.458,2.917 -27,2.667 -29.839,2.387 -31.417,5.708 -29.962,11 -32.48,8.035 -34,4.195 -34,0 c 0,-9.389 7.611,-17 17,-17 9.389,0 17,7.611 17,17"
                 inkscape:connector-curvature="0" />
            </g>
          </g>
        </g>
        <g
           id="g323">
          <g
             clip-path="url(#clipPath28)"
             id="g26">
            <g
               transform="translate(31,7)"
               id="g326">
              <path
                 id="path328"
                 style="fill:#ffcc4d;fill-opacity:1;fill-rule:nonzero;stroke:none"
                 d="m 0,0 c 0,2.187 -0.584,4.236 -1.605,6.001 0.147,-3.084 -2.562,-4.293 -4.02,-3.709 -2.105,0.843 -1.541,2.291 -2.083,5.291 -0.542,3 -2.625,5.084 -5.709,6 2.25,-6.333 -1.247,-8.667 -3.08,-9.084 C -18.369,4.073 -20.25,4.5 -20.465,8.506 -22.648,6.332 -24,3.324 -24,0 c 0,-6.627 5.373,-12 12,-12 6.627,0 12,5.373 12,12"
                 inkscape:connector-curvature="0" />
            </g>
          </g>
        </g>
      </g>
    </g>
    <g
       transform="matrix(-0.85351601,0.45382251,-0.45382251,-0.85351601,151.12888,160.43362)"
       id="g330">
      <g
         transform="matrix(1.25,0,0,-1.25,0,45)"
         id="g332">
        <g
           id="g334">
          <g
             clip-path="url(#clipPath16)"
             id="g336">
            <g
               transform="translate(35,30.0957)"
               id="g338">
              <path
                 id="path340"
                 style="fill:#3e721d;fill-opacity:1;fill-rule:nonzero;stroke:none"
                 d="m 0,0 c 2.394,-6.042 -1.438,-20.543 -10.5,-26.5 -9.06,-5.957 -20.395,-3.573 -23.097,6.443 -1.669,6.186 2.79,10.722 11.851,16.678 C -12.686,2.578 -2.36,5.958 0,0"
                 inkscape:connector-curvature="0" />
            </g>
            <g
               transform="translate(20.6055,9.9697)"
               id="g342">
              <path
                 id="path344"
                 style="fill:#3e721d;fill-opacity:1;fill-rule:nonzero;stroke:none"
                 d="m 0,0 c -6.523,-4.546 -15.287,-5.15 -18.469,-0.582 -3.183,4.566 0.418,12.578 6.943,17.124 6.522,4.545 21.951,9.796 25.133,5.229 C 16.79,17.203 6.522,4.546 0,0"
                 inkscape:connector-curvature="0" />
            </g>
            <g
               transform="translate(19.8154,9.4219)"
               id="g346">
              <path
                 id="path348"
                 style="fill:#a6d388;fill-opacity:1;fill-rule:nonzero;stroke:none"
                 d="m 0,0 c -5.757,-4.013 -13.482,-3.097 -16.29,0.934 -2.808,4.031 0.474,11.17 6.231,15.181 5.756,4.011 20.258,9.264 23.069,5.234 C 15.816,17.319 8.185,5.174 0,0"
                 inkscape:connector-curvature="0" />
            </g>
            <g
               transform="translate(18.1689,12.0742)"
               id="g350">
              <path
                 id="path352"
                 style="fill:#c6e5b3;fill-opacity:1;fill-rule:nonzero;stroke:none"
                 d="m 0,0 c -4.506,-3.14 -9.939,-3.127 -12.136,0.027 -2.2,3.155 -0.33,8.255 4.176,11.396 4.506,3.141 15.835,7.238 18.034,4.084 C 12.275,12.352 4.508,3.14 0,0"
                 inkscape:connector-curvature="0" />
            </g>
            <g
               transform="translate(11.1621,23.5122)"
               id="g354">
              <path
                 id="path356"
                 style="fill:#662113;fill-opacity:1;fill-rule:nonzero;stroke:none"
                 d="M 0,0 C 3.48,2.332 7.382,1.495 9.798,-0.995 11.23,-2.472 8.918,-6.377 5.439,-8.709 1.961,-11.039 -2.331,-10.471 -2.801,-9.44 -4.24,-6.283 -3.478,-2.332 0,0"
                 inkscape:connector-curvature="0" />
            </g>
            <g
               transform="translate(13.0713,22.894)"
               id="g358">
              <path
                 id="path360"
                 style="fill:#7c3225;fill-opacity:1;fill-rule:nonzero;stroke:none"
                 d="M 0,0 C 1.51,1.013 3.414,0.819 4.254,-0.431 5.091,-1.682 4.548,-3.518 3.037,-4.531 1.527,-5.54 -0.378,-5.348 -1.216,-4.098 -2.056,-2.846 -1.51,-1.012 0,0"
                 inkscape:connector-curvature="0" />
            </g>
          </g>
        </g>
      </g>
    </g>
    <g
       transform="matrix(-0.45382251,0.85351601,-0.85351601,-0.45382251,81.25851,125.60342)"
       id="g362">
      <g
         transform="matrix(1.25,0,0,-1.25,0,47.5)"
         id="g364">
        <g
           id="g366">
          <g
             clip-path="url(#clipPath16)"
             id="g368">
            <g
               transform="translate(36,19)"
               id="g370">
              <path
                 id="path372"
                 style="fill:#ffcc4d;fill-opacity:1;fill-rule:nonzero;stroke:none"
                 d="m 0,0 c 0,-9.389 -7.611,-17 -17,-17 -9.388,0 -17,7.611 -17,17 0,9.388 7.612,17 17,17 C -7.611,17 0,9.388 0,0"
                 inkscape:connector-curvature="0" />
            </g>
            <g
               transform="translate(17.6641,26.457)"
               id="g374">
              <path
                 id="path376"
                 style="fill:#664500;fill-opacity:1;fill-rule:nonzero;stroke:none"
                 d="m 0,0 c -0.207,0.09 -0.451,0.03 -0.592,-0.148 -0.01,-0.012 -0.979,-1.202 -3.335,-1.844 -0.775,-0.212 -1.531,-0.319 -2.244,-0.319 -0.993,0 -1.559,0.212 -1.562,0.213 -0.21,0.084 -0.453,0.014 -0.587,-0.17 -0.135,-0.184 -0.128,-0.435 0.016,-0.611 0.071,-0.088 1.779,-2.148 4.124,-2.148 0.351,0 0.702,0.048 1.043,0.14 2.854,0.779 3.41,4.209 3.432,4.354 C 0.329,-0.309 0.207,-0.091 0,0"
                 inkscape:connector-curvature="0" />
            </g>
            <g
               transform="translate(28.6387,24.3022)"
               id="g378">
              <path
                 id="path380"
                 style="fill:#664500;fill-opacity:1;fill-rule:nonzero;stroke:none"
                 d="m 0,0 c -0.138,0.181 -0.38,0.245 -0.59,0.159 -0.006,-0.003 -0.633,-0.256 -1.737,-0.256 -0.661,0 -1.359,0.09 -2.073,0.266 C -6.77,0.751 -7.77,1.917 -7.777,1.927 -7.923,2.103 -8.165,2.16 -8.373,2.064 -8.58,1.969 -8.696,1.746 -8.656,1.522 c 0.026,-0.145 0.668,-3.56 3.539,-4.267 0.31,-0.076 0.629,-0.115 0.946,-0.115 2.397,0 4.099,2.159 4.17,2.252 C 0.138,-0.43 0.137,-0.18 0,0"
                 inkscape:connector-curvature="0" />
            </g>
            <g
               transform="translate(10.9985,27)"
               id="g382">
              <path
                 id="path384"
                 style="fill:#664500;fill-opacity:1;fill-rule:nonzero;stroke:none"
                 d="m 0,0 c -0.448,0 -0.855,0.303 -0.969,0.757 -0.134,0.535 0.19,1.077 0.724,1.212 0.036,0.01 3.593,0.962 5.352,4.478 C 5.354,6.941 5.953,7.143 6.449,6.895 6.943,6.648 7.143,6.047 6.896,5.553 4.715,1.191 0.425,0.075 0.244,0.03 0.162,0.009 0.081,0 0,0"
                 inkscape:connector-curvature="0" />
            </g>
            <g
               transform="translate(27,27)"
               id="g386">
              <path
                 id="path388"
                 style="fill:#664500;fill-opacity:1;fill-rule:nonzero;stroke:none"
                 d="m 0,0 c -0.08,0 -0.161,0.01 -0.242,0.03 -0.182,0.045 -4.472,1.161 -6.653,5.523 -0.247,0.494 -0.046,1.095 0.448,1.342 0.493,0.247 1.093,0.046 1.342,-0.448 C -3.348,2.93 0.21,1.979 0.246,1.969 0.779,1.832 1.104,1.289 0.968,0.754 0.853,0.302 0.447,0 0,0"
                 inkscape:connector-curvature="0" />
            </g>
            <g
               transform="translate(19,8.0352)"
               id="g390">
              <path
                 id="path392"
                 style="fill:#664500;fill-opacity:1;fill-rule:nonzero;stroke:none"
                 d="m 0,0 c -3.623,0 -6.027,-0.422 -9,-1 -0.679,-0.131 -2,0 -2,2 0,4 4.595,9 11,9 C 6.404,10 11,5 11,1 11,-1 9.679,-1.132 9,-1 6.027,-0.422 3.623,0 0,0"
                 inkscape:connector-curvature="0" />
            </g>
            <g
               transform="translate(10.9995,12)"
               id="g394">
              <path
                 id="path396"
                 style="fill:#ffffff;fill-opacity:1;fill-rule:nonzero;stroke:none"
                 d="m 0,0 c 0,0 3,1 8,1 5.001,0 8.001,-1 8.001,-1 0,0 -2,4 -8.001,4 C 2,4 0,0 0,0"
                 inkscape:connector-curvature="0" />
            </g>
          </g>
        </g>
      </g>
    </g>
    <g
       transform="matrix(0.49709958,-0.70993177,0.70993177,0.49709958,10.109073,92.007708)"
       id="g398">
      <g
         transform="matrix(1.25,0,0,-1.25,0,47.5)"
         id="g400">
        <g
           id="g402">
          <g
             clip-path="url(#clipPath16)"
             id="g404">
            <g
               transform="translate(28.7461,9.2539)"
               id="g406">
              <path
                 id="path408"
                 style="fill:#3b88c3;fill-opacity:1;fill-rule:nonzero;stroke:none"
                 d="m 0,0 c -7.164,-7.164 -19.186,-10.181 -24.816,-5.324 -4.857,5.631 -1.84,17.652 5.324,24.816 7.164,7.164 19.185,10.181 24.816,5.324 C 11.229,17.088 7.164,7.164 0,0"
                 inkscape:connector-curvature="0" />
            </g>
          </g>
        </g>
        <g
           id="g410">
          <g
             clip-path="url(#clipPath28-rugby)"
             id="g412">
            <g
               transform="translate(36.834,29.6665)"
               id="g414">
              <path
                 id="path416"
                 style="fill:#ccd6dd;fill-opacity:1;fill-rule:nonzero;stroke:none"
                 d="m 0,0 c -0.334,-4.417 -9.334,-19.167 -24.417,-24.75 -1.167,-0.5 -1.084,-2 0.833,-2.167 1.917,-0.166 13.5,0.167 17.5,2.417 4,2.25 10.75,18.917 9,20.25 -1.75,1.333 4.416,7.75 3,6.417 C 4.5,0.833 0,0 0,0"
                 inkscape:connector-curvature="0" />
            </g>
            <g
               transform="translate(9.0835,9.166)"
               id="g418">
              <path
                 id="path420"
                 style="fill:#e1e8ed;fill-opacity:1;fill-rule:nonzero;stroke:none"
                 d="M 0,0 C 7.833,1.917 26.667,10.417 25.25,24.584 24.834,25.75 17.099,30.7 3.917,19.834 -3.667,13.584 -4.862,5.643 -4.333,0.917 -4.131,-0.896 -1.918,-0.47 0,0"
                 inkscape:connector-curvature="0" />
            </g>
          </g>
        </g>
      </g>
    </g>
    <g
       transform="matrix(-0.57861068,-0.50297859,0.50297859,-0.57861068,150.28531,88.254122)"
       id="g422">
      <g
         transform="matrix(1.25,0,0,-1.25,0,47.5)"
         id="g424">
        <g
           id="g426">
          <g
             clip-path="url(#clipPath16)"
             id="g428">
            <g
               transform="translate(19,32.0005)"
               id="g430">
              <path
                 id="path432"
                 style="fill:#f18f26;fill-opacity:1;fill-rule:nonzero;stroke:none"
                 d="m 0,0 6,0 c 7,0 11,-7.887 11,-16 0,-15.001 -9,-15 -17,-15 -8,0 -17,0 -17,15 0,9.958 6,16 11,16 l 6,0"
                 inkscape:connector-curvature="0" />
            </g>
            <g
               transform="translate(27.9717,12.6289)"
               id="g434">
              <path
                 id="path436"
                 style="fill:#642116;fill-opacity:1;fill-rule:nonzero;stroke:none"
                 d="m 0,0 c -0.035,-0.669 -0.352,-1.405 -0.972,-2.129 -1.605,-1.873 -3.386,-1.481 -4.039,0.82 -1.224,-0.194 -2.549,-0.32 -3.961,-0.32 -7,0 -12,3 -12,3 0,-2.673 1.015,-4.438 2.465,-5.624 0.148,0.32 0.345,0.634 0.635,0.924 1.485,1.485 3.105,0.675 3.601,-1.8 0.077,-0.389 0.099,-0.733 0.096,-1.057 2.052,-0.44 4.062,-0.443 5.203,-0.443 3,0 12,0 12,8 C 3.028,1.371 1.907,0.704 0,0"
                 inkscape:connector-curvature="0" />
            </g>
            <g
               transform="translate(21.873,31.7642)"
               id="g438">
              <path
                 id="path440"
                 style="fill:#3f7123;fill-opacity:1;fill-rule:nonzero;stroke:none"
                 d="m 0,0 c 0.069,-0.42 -0.222,-0.764 -0.647,-0.764 l -4.452,0 c -0.425,0 -0.717,0.344 -0.647,0.764 L -5,4.472 c 0.07,0.42 0.476,0.764 0.901,0.764 l 2.452,0 c 0.425,0 0.832,-0.344 0.901,-0.764 L 0,0 Z"
                 inkscape:connector-curvature="0" />
            </g>
            <g
               transform="translate(17,31)"
               id="g442">
              <path
                 id="path444"
                 style="fill:#5c913b;fill-opacity:1;fill-rule:nonzero;stroke:none"
                 d="m 0,0 c 0,0 2,5 8,5 5,0 7,-5 7,-5 L 0,0 Z"
                 inkscape:connector-curvature="0" />
            </g>
            <g
               transform="translate(9.6914,25.8911)"
               id="g446">
              <path
                 id="path448"
                 style="fill:#642116;fill-opacity:1;fill-rule:nonzero;stroke:none"
                 d="M 0,0 C 0.793,1.479 2.093,1.479 2.887,-0.001 L 5.05,-4.034 C 5.845,-5.513 4.744,-6.723 2.604,-6.723 l -2.324,0 c -2.139,0 -3.239,1.21 -2.446,2.689 L 0,0 Z"
                 inkscape:connector-curvature="0" />
            </g>
            <g
               transform="translate(25.4229,25.8911)"
               id="g450">
              <path
                 id="path452"
                 style="fill:#642116;fill-opacity:1;fill-rule:nonzero;stroke:none"
                 d="M 0,0 C 0.794,1.479 2.093,1.479 2.887,-0.001 L 5.051,-4.034 C 5.845,-5.513 4.744,-6.723 2.604,-6.723 l -2.324,0 c -2.138,0 -3.239,1.21 -2.445,2.689 L 0,0 Z"
                 inkscape:connector-curvature="0" />
            </g>
            <g
               transform="translate(20.1982,14.0381)"
               id="g454">
              <path
                 id="path456"
                 style="fill:#642116;fill-opacity:1;fill-rule:nonzero;stroke:none"
                 d="m 0,0 c -0.586,-1.091 -1.544,-1.091 -2.131,0 l -1.597,2.977 c -0.586,1.092 0.226,1.985 1.805,1.985 l 1.715,0 c 1.58,0 2.393,-0.893 1.806,-1.985 L 0,0 Z"
                 inkscape:connector-curvature="0" />
            </g>
          </g>
        </g>
      </g>
    </g>
  </g>
</svg>
